<?xml version="1.0" encoding="UTF-8" standalone="no"?>
<!DOCTYPE svg PUBLIC "-//W3C//DTD SVG 1.1//EN"
 "http://www.w3.org/Graphics/SVG/1.1/DTD/svg11.dtd">
<!-- Generated by graphviz version 2.43.0 (0)
 -->
<!-- Title: software/nixie_clock_esp32_project/main/clock_task.c Pages: 1 -->
<svg width="937pt" height="225pt"
 viewBox="0.00 0.00 936.50 225.00" xmlns="http://www.w3.org/2000/svg" xmlns:xlink="http://www.w3.org/1999/xlink">
<g id="graph0" class="graph" transform="scale(1 1) rotate(0) translate(4 221)">
<title>software/nixie_clock_esp32_project/main/clock_task.c</title>
<!-- Node1 -->
<g id="Node000001" class="node">
<title>Node1</title>
<g id="a_Node000001"><a xlink:title=" ">
<polygon fill="#999999" stroke="#666666" points="572,-217 426,-217 426,-176 572,-176 572,-217"/>
<text text-anchor="start" x="434" y="-205" font-family="Helvetica,sans-Serif" font-size="10.00">software/nixie_clock</text>
<text text-anchor="start" x="434" y="-194" font-family="Helvetica,sans-Serif" font-size="10.00">_esp32_project/main/clock</text>
<text text-anchor="middle" x="499" y="-183" font-family="Helvetica,sans-Serif" font-size="10.00">_task.c</text>
</a>
</g>
</g>
<!-- Node2 -->
<g id="Node000002" class="node">
<title>Node2</title>
<g id="a_Node000002"><a xlink:title=" ">
<polygon fill="#e0e0e0" stroke="#999999" points="219.5,-74 106.5,-74 106.5,-55 219.5,-55 219.5,-74"/>
<text text-anchor="middle" x="163" y="-62" font-family="Helvetica,sans-Serif" font-size="10.00">freertos/FreeRTOS.h</text>
</a>
</g>
</g>
<!-- Node1&#45;&gt;Node2 -->
<g id="edge1_Node000001_Node000002" class="edge">
<title>Node1&#45;&gt;Node2</title>
<g id="a_edge1_Node000001_Node000002"><a xlink:title=" ">
<path fill="none" stroke="#63b8ff" d="M443.95,-175.92C415.01,-165.49 378.99,-152.31 347,-140 292.46,-119.01 229.45,-93.14 193.12,-78.07"/>
<polygon fill="#63b8ff" stroke="#63b8ff" points="194.18,-74.72 183.6,-74.11 191.49,-81.18 194.18,-74.72"/>
</a>
</g>
</g>
<!-- Node3 -->
<g id="Node000003" class="node">
<title>Node3</title>
<g id="a_Node000003"><a xlink:title=" ">
<polygon fill="#e0e0e0" stroke="#999999" points="88,-74 0,-74 0,-55 88,-55 88,-74"/>
<text text-anchor="middle" x="44" y="-62" font-family="Helvetica,sans-Serif" font-size="10.00">freertos/task.h</text>
</a>
</g>
</g>
<!-- Node1&#45;&gt;Node3 -->
<g id="edge2_Node000001_Node000003" class="edge">
<title>Node1&#45;&gt;Node3</title>
<g id="a_edge2_Node000001_Node000003"><a xlink:title=" ">
<path fill="none" stroke="#63b8ff" d="M425.78,-190.62C329.88,-183.27 167.75,-167.23 115,-140 89.28,-126.72 67.68,-100.42 55.28,-82.89"/>
<polygon fill="#63b8ff" stroke="#63b8ff" points="57.89,-80.5 49.38,-74.19 52.1,-84.43 57.89,-80.5"/>
</a>
</g>
</g>
<!-- Node4 -->
<g id="Node000004" class="node">
<title>Node4</title>
<g id="a_Node000004"><a xlink:href="clock__task_8h.html" target="_top" xlink:title=" ">
<polygon fill="white" stroke="#666666" points="201.5,-134.5 124.5,-134.5 124.5,-115.5 201.5,-115.5 201.5,-134.5"/>
<text text-anchor="middle" x="163" y="-122.5" font-family="Helvetica,sans-Serif" font-size="10.00">clock_task.h</text>
</a>
</g>
</g>
<!-- Node1&#45;&gt;Node4 -->
<g id="edge3_Node000001_Node000004" class="edge">
<title>Node1&#45;&gt;Node4</title>
<g id="a_edge3_Node000001_Node000004"><a xlink:title=" ">
<path fill="none" stroke="#63b8ff" d="M425.68,-180.33C360.78,-166.91 267.9,-147.7 211.74,-136.08"/>
<polygon fill="#63b8ff" stroke="#63b8ff" points="212.19,-132.6 201.69,-134 210.78,-139.46 212.19,-132.6"/>
</a>
</g>
</g>
<!-- Node5 -->
<g id="Node000005" class="node">
<title>Node5</title>
<g id="a_Node000005"><a xlink:href="display_8h.html" target="_top" xlink:title=" ">
<polygon fill="white" stroke="#666666" points="760.5,-134.5 701.5,-134.5 701.5,-115.5 760.5,-115.5 760.5,-134.5"/>
<text text-anchor="middle" x="731" y="-122.5" font-family="Helvetica,sans-Serif" font-size="10.00">display.h</text>
</a>
</g>
</g>
<!-- Node1&#45;&gt;Node5 -->
<g id="edge6_Node000001_Node000005" class="edge">
<title>Node1&#45;&gt;Node5</title>
<g id="a_edge6_Node000001_Node000005"><a xlink:title=" ">
<path fill="none" stroke="#63b8ff" d="M566.54,-175.93C602.38,-165.46 647.14,-152.22 687,-140 689.57,-139.21 692.22,-138.39 694.89,-137.56"/>
<polygon fill="#63b8ff" stroke="#63b8ff" points="696.02,-140.87 704.5,-134.53 693.91,-134.19 696.02,-140.87"/>
</a>
</g>
</g>
<!-- Node7 -->
<g id="Node000007" class="node">
<title>Node7</title>
<g id="a_Node000007"><a xlink:href="clock_8h.html" target="_top" xlink:title=" ">
<polygon fill="white" stroke="#666666" points="778.5,-74 727.5,-74 727.5,-55 778.5,-55 778.5,-74"/>
<text text-anchor="middle" x="753" y="-62" font-family="Helvetica,sans-Serif" font-size="10.00">clock.h</text>
</a>
</g>
</g>
<!-- Node1&#45;&gt;Node7 -->
<g id="edge8_Node000001_Node000007" class="edge">
<title>Node1&#45;&gt;Node7</title>
<g id="a_edge8_Node000001_Node000007"><a xlink:title=" ">
<path fill="none" stroke="#63b8ff" d="M568.12,-175.88C595.67,-166.76 627.16,-154.66 654,-140 673.19,-129.52 675.55,-123.18 693,-110 706.19,-100.03 721.13,-88.96 732.8,-80.35"/>
<polygon fill="#63b8ff" stroke="#63b8ff" points="735.03,-83.05 741,-74.3 730.87,-77.42 735.03,-83.05"/>
</a>
</g>
</g>
<!-- Node8 -->
<g id="Node000008" class="node">
<title>Node8</title>
<g id="a_Node000008"><a xlink:href="gpio__task_8h.html" target="_top" xlink:title=" ">
<polygon fill="white" stroke="#666666" points="429.5,-134.5 356.5,-134.5 356.5,-115.5 429.5,-115.5 429.5,-134.5"/>
<text text-anchor="middle" x="393" y="-122.5" font-family="Helvetica,sans-Serif" font-size="10.00">gpio_task.h</text>
</a>
</g>
</g>
<!-- Node1&#45;&gt;Node8 -->
<g id="edge10_Node000001_Node000008" class="edge">
<title>Node1&#45;&gt;Node8</title>
<g id="a_edge10_Node000001_Node000008"><a xlink:title=" ">
<path fill="none" stroke="#63b8ff" d="M469.19,-175.96C451.79,-164.54 430.23,-150.41 414.49,-140.09"/>
<polygon fill="#63b8ff" stroke="#63b8ff" points="416.25,-137.06 405.97,-134.5 412.41,-142.91 416.25,-137.06"/>
</a>
</g>
</g>
<!-- Node10 -->
<g id="Node000010" class="node">
<title>Node10</title>
<g id="a_Node000010"><a xlink:href="gpio__driver_8h.html" target="_top" xlink:title=" ">
<polygon fill="white" stroke="#666666" points="433,-74 353,-74 353,-55 433,-55 433,-74"/>
<text text-anchor="middle" x="393" y="-62" font-family="Helvetica,sans-Serif" font-size="10.00">gpio_driver.h</text>
</a>
</g>
</g>
<!-- Node1&#45;&gt;Node10 -->
<g id="edge17_Node000001_Node000010" class="edge">
<title>Node1&#45;&gt;Node10</title>
<g id="a_edge17_Node000001_Node000010"><a xlink:title=" ">
<path fill="none" stroke="#63b8ff" d="M486.34,-175.78C474.58,-157.98 456.2,-131.38 438,-110 429.38,-99.88 418.86,-89.39 410.16,-81.13"/>
<polygon fill="#63b8ff" stroke="#63b8ff" points="412.49,-78.52 402.79,-74.26 407.71,-83.64 412.49,-78.52"/>
</a>
</g>
</g>
<!-- Node13 -->
<g id="Node000013" class="node">
<title>Node13</title>
<g id="a_Node000013"><a xlink:href="rotary__encoder_8h.html" target="_top" xlink:title=" ">
<polygon fill="white" stroke="#666666" points="549,-74 451,-74 451,-55 549,-55 549,-74"/>
<text text-anchor="middle" x="500" y="-62" font-family="Helvetica,sans-Serif" font-size="10.00">rotary_encoder.h</text>
</a>
</g>
</g>
<!-- Node1&#45;&gt;Node13 -->
<g id="edge18_Node000001_Node000013" class="edge">
<title>Node1&#45;&gt;Node13</title>
<g id="a_edge18_Node000001_Node000013"><a xlink:title=" ">
<path fill="none" stroke="#63b8ff" d="M499.15,-175.76C499.34,-150.86 499.67,-108.38 499.86,-84.06"/>
<polygon fill="#63b8ff" stroke="#63b8ff" points="503.36,-84.04 499.93,-74.01 496.36,-83.99 503.36,-84.04"/>
</a>
</g>
</g>
<!-- Node14 -->
<g id="Node000014" class="node">
<title>Node14</title>
<g id="a_Node000014"><a xlink:href="esp__stub_8h.html" target="_top" xlink:title=" ">
<polygon fill="white" stroke="#666666" points="847.5,-134.5 778.5,-134.5 778.5,-115.5 847.5,-115.5 847.5,-134.5"/>
<text text-anchor="middle" x="813" y="-122.5" font-family="Helvetica,sans-Serif" font-size="10.00">esp_stub.h</text>
</a>
</g>
</g>
<!-- Node1&#45;&gt;Node14 -->
<g id="edge19_Node000001_Node000014" class="edge">
<title>Node1&#45;&gt;Node14</title>
<g id="a_edge19_Node000001_Node000014"><a xlink:title=" ">
<path fill="none" stroke="#63b8ff" d="M572.27,-182.81C627.09,-172.76 703.72,-157.52 770,-140 772.78,-139.27 775.63,-138.46 778.5,-137.61"/>
<polygon fill="#63b8ff" stroke="#63b8ff" points="779.61,-140.93 788.13,-134.62 777.54,-134.24 779.61,-140.93"/>
</a>
</g>
</g>
<!-- Node15 -->
<g id="Node000015" class="node">
<title>Node15</title>
<g id="a_Node000015"><a xlink:title=" ">
<polygon fill="#e0e0e0" stroke="#999999" points="928.5,-134.5 865.5,-134.5 865.5,-115.5 928.5,-115.5 928.5,-134.5"/>
<text text-anchor="middle" x="897" y="-122.5" font-family="Helvetica,sans-Serif" font-size="10.00">esp_log.h</text>
</a>
</g>
</g>
<!-- Node1&#45;&gt;Node15 -->
<g id="edge20_Node000001_Node000015" class="edge">
<title>Node1&#45;&gt;Node15</title>
<g id="a_edge20_Node000001_Node000015"><a xlink:title=" ">
<path fill="none" stroke="#63b8ff" d="M572.12,-188.13C645.02,-179.86 759.84,-164.32 857,-140 859.65,-139.34 862.38,-138.57 865.1,-137.75"/>
<polygon fill="#63b8ff" stroke="#63b8ff" points="866.37,-141.01 874.79,-134.58 864.2,-134.36 866.37,-141.01"/>
</a>
</g>
</g>
<!-- Node16 -->
<g id="Node000016" class="node">
<title>Node16</title>
<g id="a_Node000016"><a xlink:href="config_8h.html" target="_top" xlink:title=" ">
<polygon fill="white" stroke="#666666" points="645,-140 527,-140 527,-110 645,-110 645,-140"/>
<text text-anchor="start" x="535" y="-128" font-family="Helvetica,sans-Serif" font-size="10.00">../components/config</text>
<text text-anchor="middle" x="586" y="-117" font-family="Helvetica,sans-Serif" font-size="10.00">/config.h</text>
</a>
</g>
</g>
<!-- Node1&#45;&gt;Node16 -->
<g id="edge21_Node000001_Node000016" class="edge">
<title>Node1&#45;&gt;Node16</title>
<g id="a_edge21_Node000001_Node000016"><a xlink:title=" ">
<path fill="none" stroke="#63b8ff" d="M523.7,-175.77C535.18,-166.6 548.82,-155.7 560.41,-146.44"/>
<polygon fill="#63b8ff" stroke="#63b8ff" points="562.8,-149.01 568.43,-140.04 558.43,-143.55 562.8,-149.01"/>
</a>
</g>
</g>
<!-- Node4&#45;&gt;Node2 -->
<g id="edge4_Node000004_Node000002" class="edge">
<title>Node4&#45;&gt;Node2</title>
<g id="a_edge4_Node000004_Node000002"><a xlink:title=" ">
<path fill="none" stroke="#63b8ff" d="M163,-115.37C163,-107.25 163,-94.81 163,-84.39"/>
<polygon fill="#63b8ff" stroke="#63b8ff" points="166.5,-84.17 163,-74.17 159.5,-84.17 166.5,-84.17"/>
</a>
</g>
</g>
<!-- Node4&#45;&gt;Node3 -->
<g id="edge5_Node000004_Node000003" class="edge">
<title>Node4&#45;&gt;Node3</title>
<g id="a_edge5_Node000004_Node000003"><a xlink:title=" ">
<path fill="none" stroke="#63b8ff" d="M145.7,-115.49C125.95,-105.79 93.45,-89.81 70.51,-78.53"/>
<polygon fill="#63b8ff" stroke="#63b8ff" points="71.84,-75.29 61.32,-74.02 68.75,-81.57 71.84,-75.29"/>
</a>
</g>
</g>
<!-- Node6 -->
<g id="Node000006" class="node">
<title>Node6</title>
<g id="a_Node000006"><a xlink:title=" ">
<polygon fill="#e0e0e0" stroke="#999999" points="806.5,-19 753.5,-19 753.5,0 806.5,0 806.5,-19"/>
<text text-anchor="middle" x="780" y="-7" font-family="Helvetica,sans-Serif" font-size="10.00">stdint.h</text>
</a>
</g>
</g>
<!-- Node5&#45;&gt;Node6 -->
<g id="edge7_Node000005_Node000006" class="edge">
<title>Node5&#45;&gt;Node6</title>
<g id="a_edge7_Node000005_Node000006"><a xlink:title=" ">
<path fill="none" stroke="#63b8ff" d="M746.68,-115.47C760.46,-106.99 779.58,-92.59 788,-74 794.45,-59.77 791.4,-42.01 787.34,-28.89"/>
<polygon fill="#63b8ff" stroke="#63b8ff" points="790.52,-27.4 783.88,-19.15 783.93,-29.74 790.52,-27.4"/>
</a>
</g>
</g>
<!-- Node7&#45;&gt;Node6 -->
<g id="edge9_Node000007_Node000006" class="edge">
<title>Node7&#45;&gt;Node6</title>
<g id="a_edge9_Node000007_Node000006"><a xlink:title=" ">
<path fill="none" stroke="#63b8ff" d="M757.46,-54.75C761.12,-47.57 766.41,-37.18 770.95,-28.27"/>
<polygon fill="#63b8ff" stroke="#63b8ff" points="774.2,-29.59 775.62,-19.09 767.97,-26.41 774.2,-29.59"/>
</a>
</g>
</g>
<!-- Node8&#45;&gt;Node2 -->
<g id="edge11_Node000008_Node000002" class="edge">
<title>Node8&#45;&gt;Node2</title>
<g id="a_edge11_Node000008_Node000002"><a xlink:title=" ">
<path fill="none" stroke="#63b8ff" d="M359.56,-115.49C319.1,-105.2 250.9,-87.86 206.42,-76.54"/>
<polygon fill="#63b8ff" stroke="#63b8ff" points="207.04,-73.09 196.48,-74.02 205.31,-79.87 207.04,-73.09"/>
</a>
</g>
</g>
<!-- Node9 -->
<g id="Node000009" class="node">
<title>Node9</title>
<g id="a_Node000009"><a xlink:title=" ">
<polygon fill="#e0e0e0" stroke="#999999" points="334.5,-74 237.5,-74 237.5,-55 334.5,-55 334.5,-74"/>
<text text-anchor="middle" x="286" y="-62" font-family="Helvetica,sans-Serif" font-size="10.00">freertos/queue.h</text>
</a>
</g>
</g>
<!-- Node8&#45;&gt;Node9 -->
<g id="edge12_Node000008_Node000009" class="edge">
<title>Node8&#45;&gt;Node9</title>
<g id="a_edge12_Node000008_Node000009"><a xlink:title=" ">
<path fill="none" stroke="#63b8ff" d="M377.21,-115.37C359.67,-105.78 331.12,-90.17 310.63,-78.97"/>
<polygon fill="#63b8ff" stroke="#63b8ff" points="312.31,-75.89 301.85,-74.17 308.95,-82.04 312.31,-75.89"/>
</a>
</g>
</g>
<!-- Node8&#45;&gt;Node10 -->
<g id="edge13_Node000008_Node000010" class="edge">
<title>Node8&#45;&gt;Node10</title>
<g id="a_edge13_Node000008_Node000010"><a xlink:title=" ">
<path fill="none" stroke="#63b8ff" d="M393,-115.37C393,-107.25 393,-94.81 393,-84.39"/>
<polygon fill="#63b8ff" stroke="#63b8ff" points="396.5,-84.17 393,-74.17 389.5,-84.17 396.5,-84.17"/>
</a>
</g>
</g>
<!-- Node8&#45;&gt;Node13 -->
<g id="edge16_Node000008_Node000013" class="edge">
<title>Node8&#45;&gt;Node13</title>
<g id="a_edge16_Node000008_Node000013"><a xlink:title=" ">
<path fill="none" stroke="#63b8ff" d="M408.79,-115.37C426.33,-105.78 454.88,-90.17 475.37,-78.97"/>
<polygon fill="#63b8ff" stroke="#63b8ff" points="477.05,-82.04 484.15,-74.17 473.69,-75.89 477.05,-82.04"/>
</a>
</g>
</g>
<!-- Node11 -->
<g id="Node000011" class="node">
<title>Node11</title>
<g id="a_Node000011"><a xlink:title=" ">
<polygon fill="#e0e0e0" stroke="#999999" points="432,-19 354,-19 354,0 432,0 432,-19"/>
<text text-anchor="middle" x="393" y="-7" font-family="Helvetica,sans-Serif" font-size="10.00">driver/gpio.h</text>
</a>
</g>
</g>
<!-- Node10&#45;&gt;Node11 -->
<g id="edge14_Node000010_Node000011" class="edge">
<title>Node10&#45;&gt;Node11</title>
<g id="a_edge14_Node000010_Node000011"><a xlink:title=" ">
<path fill="none" stroke="#63b8ff" d="M393,-54.75C393,-47.8 393,-37.85 393,-29.13"/>
<polygon fill="#63b8ff" stroke="#63b8ff" points="396.5,-29.09 393,-19.09 389.5,-29.09 396.5,-29.09"/>
</a>
</g>
</g>
<!-- Node12 -->
<g id="Node000012" class="node">
<title>Node12</title>
<g id="a_Node000012"><a xlink:title=" ">
<polygon fill="#e0e0e0" stroke="#999999" points="637.5,-19 576.5,-19 576.5,0 637.5,0 637.5,-19"/>
<text text-anchor="middle" x="607" y="-7" font-family="Helvetica,sans-Serif" font-size="10.00">esp_err.h</text>
</a>
</g>
</g>
<!-- Node10&#45;&gt;Node12 -->
<g id="edge15_Node000010_Node000012" class="edge">
<title>Node10&#45;&gt;Node12</title>
<g id="a_edge15_Node000010_Node000012"><a xlink:title=" ">
<path fill="none" stroke="#63b8ff" d="M427.38,-54.98C465.29,-45.6 526.21,-30.51 566.42,-20.55"/>
<polygon fill="#63b8ff" stroke="#63b8ff" points="567.31,-23.94 576.18,-18.13 565.63,-17.14 567.31,-23.94"/>
</a>
</g>
</g>
<!-- Node16&#45;&gt;Node2 -->
<g id="edge24_Node000016_Node000002" class="edge">
<title>Node16&#45;&gt;Node2</title>
<g id="a_edge24_Node000016_Node000002"><a xlink:title=" ">
<path fill="none" stroke="#63b8ff" d="M526.74,-115.8C448.6,-105 311.48,-86.03 229.76,-74.73"/>
<polygon fill="#63b8ff" stroke="#63b8ff" points="230.22,-71.26 219.83,-73.36 229.26,-78.2 230.22,-71.26"/>
</a>
</g>
</g>
<!-- Node16&#45;&gt;Node7 -->
<g id="edge23_Node000016_Node000007" class="edge">
<title>Node16&#45;&gt;Node7</title>
<g id="a_edge23_Node000016_Node000007"><a xlink:title=" ">
<path fill="none" stroke="#63b8ff" d="M626,-109.99C654.24,-100.1 691.68,-86.98 718.58,-77.56"/>
<polygon fill="#63b8ff" stroke="#63b8ff" points="720.06,-80.75 728.34,-74.14 717.74,-74.14 720.06,-80.75"/>
</a>
</g>
</g>
<!-- Node16&#45;&gt;Node12 -->
<g id="edge22_Node000016_Node000012" class="edge">
<title>Node16&#45;&gt;Node12</title>
<g id="a_edge22_Node000016_Node000012"><a xlink:title=" ">
<path fill="none" stroke="#63b8ff" d="M634.61,-109.92C652.06,-102.25 669.91,-90.8 680,-74 692.96,-52.42 665.74,-34.35 640.93,-23.07"/>
<polygon fill="#63b8ff" stroke="#63b8ff" points="642.2,-19.81 631.63,-19.09 639.44,-26.24 642.2,-19.81"/>
</a>
</g>
</g>
<!-- Node17 -->
<g id="Node000017" class="node">
<title>Node17</title>
<g id="a_Node000017"><a xlink:title=" ">
<polygon fill="#e0e0e0" stroke="#999999" points="670.5,-74 567.5,-74 567.5,-55 670.5,-55 670.5,-74"/>
<text text-anchor="middle" x="619" y="-62" font-family="Helvetica,sans-Serif" font-size="10.00">freertos/semphr.h</text>
</a>
</g>
</g>
<!-- Node16&#45;&gt;Node17 -->
<g id="edge25_Node000016_Node000017" class="edge">
<title>Node16&#45;&gt;Node17</title>
<g id="a_edge25_Node000016_Node000017"><a xlink:title=" ">
<path fill="none" stroke="#63b8ff" d="M593.99,-109.84C598.53,-101.78 604.27,-91.62 609.1,-83.06"/>
<polygon fill="#63b8ff" stroke="#63b8ff" points="612.19,-84.7 614.06,-74.27 606.09,-81.26 612.19,-84.7"/>
</a>
</g>
</g>
</g>
</svg>
