<?xml version="1.0" encoding="UTF-8" standalone="no"?>
<!DOCTYPE svg PUBLIC "-//W3C//DTD SVG 1.1//EN"
 "http://www.w3.org/Graphics/SVG/1.1/DTD/svg11.dtd">
<!-- Generated by graphviz version 2.43.0 (0)
 -->
<!-- Title: software/nixie_clock_esp32_project/components/clock_task/clock_task.c Pages: 1 -->
<svg width="947pt" height="225pt"
 viewBox="0.00 0.00 946.50 225.00" xmlns="http://www.w3.org/2000/svg" xmlns:xlink="http://www.w3.org/1999/xlink">
<g id="graph0" class="graph" transform="scale(1 1) rotate(0) translate(4 221)">
<title>software/nixie_clock_esp32_project/components/clock_task/clock_task.c</title>
<!-- Node1 -->
<g id="Node000001" class="node">
<title>Node1</title>
<g id="a_Node000001"><a xlink:title=" ">
<polygon fill="#999999" stroke="#666666" points="596.5,-217 443.5,-217 443.5,-176 596.5,-176 596.5,-217"/>
<text text-anchor="start" x="451.5" y="-205" font-family="Helvetica,sans-Serif" font-size="10.00">software/nixie_clock</text>
<text text-anchor="start" x="451.5" y="-194" font-family="Helvetica,sans-Serif" font-size="10.00">_esp32_project/components</text>
<text text-anchor="middle" x="520" y="-183" font-family="Helvetica,sans-Serif" font-size="10.00">/clock_task/clock_task.c</text>
</a>
</g>
</g>
<!-- Node2 -->
<g id="Node000002" class="node">
<title>Node2</title>
<g id="a_Node000002"><a xlink:title=" ">
<polygon fill="#e0e0e0" stroke="#999999" points="219.5,-79.5 106.5,-79.5 106.5,-60.5 219.5,-60.5 219.5,-79.5"/>
<text text-anchor="middle" x="163" y="-67.5" font-family="Helvetica,sans-Serif" font-size="10.00">freertos/FreeRTOS.h</text>
</a>
</g>
</g>
<!-- Node1&#45;&gt;Node2 -->
<g id="edge1_Node000001_Node000002" class="edge">
<title>Node1&#45;&gt;Node2</title>
<g id="a_edge1_Node000001_Node000002"><a xlink:title=" ">
<path fill="none" stroke="#63b8ff" d="M446.33,-175.97C410.88,-166.07 367.93,-153.33 330,-140 280.38,-122.56 224.13,-98.37 191.21,-83.75"/>
<polygon fill="#63b8ff" stroke="#63b8ff" points="192.34,-80.42 181.78,-79.54 189.48,-86.81 192.34,-80.42"/>
</a>
</g>
</g>
<!-- Node3 -->
<g id="Node000003" class="node">
<title>Node3</title>
<g id="a_Node000003"><a xlink:title=" ">
<polygon fill="#e0e0e0" stroke="#999999" points="88,-79.5 0,-79.5 0,-60.5 88,-60.5 88,-79.5"/>
<text text-anchor="middle" x="44" y="-67.5" font-family="Helvetica,sans-Serif" font-size="10.00">freertos/task.h</text>
</a>
</g>
</g>
<!-- Node1&#45;&gt;Node3 -->
<g id="edge2_Node000001_Node000003" class="edge">
<title>Node1&#45;&gt;Node3</title>
<g id="a_edge2_Node000001_Node000003"><a xlink:title=" ">
<path fill="none" stroke="#63b8ff" d="M443.37,-190.71C342.48,-183.43 171.3,-167.45 115,-140 90.23,-127.92 68.64,-103.91 55.96,-87.65"/>
<polygon fill="#63b8ff" stroke="#63b8ff" points="58.67,-85.44 49.87,-79.54 53.08,-89.64 58.67,-85.44"/>
</a>
</g>
</g>
<!-- Node4 -->
<g id="Node000004" class="node">
<title>Node4</title>
<g id="a_Node000004"><a xlink:href="clock__task_8h.html" target="_top" xlink:title=" ">
<polygon fill="white" stroke="#666666" points="201.5,-140 124.5,-140 124.5,-121 201.5,-121 201.5,-140"/>
<text text-anchor="middle" x="163" y="-128" font-family="Helvetica,sans-Serif" font-size="10.00">clock_task.h</text>
</a>
</g>
</g>
<!-- Node1&#45;&gt;Node4 -->
<g id="edge3_Node000001_Node000004" class="edge">
<title>Node1&#45;&gt;Node4</title>
<g id="a_edge3_Node000001_Node000004"><a xlink:title=" ">
<path fill="none" stroke="#63b8ff" d="M443.41,-181.77C373.11,-169.17 271.09,-150.88 211.44,-140.18"/>
<polygon fill="#63b8ff" stroke="#63b8ff" points="211.99,-136.73 201.53,-138.41 210.75,-143.62 211.99,-136.73"/>
</a>
</g>
</g>
<!-- Node5 -->
<g id="Node000005" class="node">
<title>Node5</title>
<g id="a_Node000005"><a xlink:href="display_8h.html" target="_top" xlink:title=" ">
<polygon fill="white" stroke="#666666" points="857.5,-140 750.5,-140 750.5,-121 857.5,-121 857.5,-140"/>
<text text-anchor="middle" x="804" y="-128" font-family="Helvetica,sans-Serif" font-size="10.00">../display/display.h</text>
</a>
</g>
</g>
<!-- Node1&#45;&gt;Node5 -->
<g id="edge6_Node000001_Node000005" class="edge">
<title>Node1&#45;&gt;Node5</title>
<g id="a_edge6_Node000001_Node000005"><a xlink:title=" ">
<path fill="none" stroke="#63b8ff" d="M596.85,-178.18C647.76,-166.71 712.92,-152.03 756.43,-142.22"/>
<polygon fill="#63b8ff" stroke="#63b8ff" points="757.21,-145.63 766.19,-140.02 755.67,-138.8 757.21,-145.63"/>
</a>
</g>
</g>
<!-- Node7 -->
<g id="Node000007" class="node">
<title>Node7</title>
<g id="a_Node000007"><a xlink:href="clock_8h.html" target="_top" xlink:title=" ">
<polygon fill="white" stroke="#666666" points="873.5,-79.5 784.5,-79.5 784.5,-60.5 873.5,-60.5 873.5,-79.5"/>
<text text-anchor="middle" x="829" y="-67.5" font-family="Helvetica,sans-Serif" font-size="10.00">../clock/clock.h</text>
</a>
</g>
</g>
<!-- Node1&#45;&gt;Node7 -->
<g id="edge8_Node000001_Node000007" class="edge">
<title>Node1&#45;&gt;Node7</title>
<g id="a_edge8_Node000001_Node000007"><a xlink:title=" ">
<path fill="none" stroke="#63b8ff" d="M596.92,-175.99C630.11,-166.6 669.02,-154.27 703,-140 723.21,-131.51 775.09,-102.14 805.61,-84.57"/>
<polygon fill="#63b8ff" stroke="#63b8ff" points="807.42,-87.56 814.33,-79.53 803.92,-81.5 807.42,-87.56"/>
</a>
</g>
</g>
<!-- Node8 -->
<g id="Node000008" class="node">
<title>Node8</title>
<g id="a_Node000008"><a xlink:href="gpio__task_8h.html" target="_top" xlink:title=" ">
<polygon fill="white" stroke="#666666" points="471,-140 339,-140 339,-121 471,-121 471,-140"/>
<text text-anchor="middle" x="405" y="-128" font-family="Helvetica,sans-Serif" font-size="10.00">../gpio_task/gpio_task.h</text>
</a>
</g>
</g>
<!-- Node1&#45;&gt;Node8 -->
<g id="edge10_Node000001_Node000008" class="edge">
<title>Node1&#45;&gt;Node8</title>
<g id="a_edge10_Node000001_Node000008"><a xlink:title=" ">
<path fill="none" stroke="#63b8ff" d="M484.87,-175.95C466.87,-165.93 445.4,-153.99 429.26,-145"/>
<polygon fill="#63b8ff" stroke="#63b8ff" points="430.88,-141.9 420.44,-140.09 427.47,-148.01 430.88,-141.9"/>
</a>
</g>
</g>
<!-- Node10 -->
<g id="Node000010" class="node">
<title>Node10</title>
<g id="a_Node000010"><a xlink:href="gpio__driver_8h.html" target="_top" xlink:title=" ">
<polygon fill="white" stroke="#666666" points="457,-85 353,-85 353,-55 457,-55 457,-85"/>
<text text-anchor="start" x="361" y="-73" font-family="Helvetica,sans-Serif" font-size="10.00">../gpio_driver/gpio</text>
<text text-anchor="middle" x="405" y="-62" font-family="Helvetica,sans-Serif" font-size="10.00">_driver.h</text>
</a>
</g>
</g>
<!-- Node1&#45;&gt;Node10 -->
<g id="edge17_Node000001_Node000010" class="edge">
<title>Node1&#45;&gt;Node10</title>
<g id="a_edge17_Node000001_Node000010"><a xlink:title=" ">
<path fill="none" stroke="#63b8ff" d="M512.59,-175.82C505.85,-159.77 494.71,-137.19 480,-121 469.14,-109.05 454.85,-98.61 441.66,-90.41"/>
<polygon fill="#63b8ff" stroke="#63b8ff" points="443.14,-87.21 432.76,-85.09 439.55,-93.22 443.14,-87.21"/>
</a>
</g>
</g>
<!-- Node13 -->
<g id="Node000013" class="node">
<title>Node13</title>
<g id="a_Node000013"><a xlink:href="rotary__encoder_8h.html" target="_top" xlink:title=" ">
<polygon fill="white" stroke="#666666" points="606.5,-85 475.5,-85 475.5,-55 606.5,-55 606.5,-85"/>
<text text-anchor="start" x="483.5" y="-73" font-family="Helvetica,sans-Serif" font-size="10.00">../rotary_encoder/rotary</text>
<text text-anchor="middle" x="541" y="-62" font-family="Helvetica,sans-Serif" font-size="10.00">_encoder.h</text>
</a>
</g>
</g>
<!-- Node1&#45;&gt;Node13 -->
<g id="edge18_Node000001_Node000013" class="edge">
<title>Node1&#45;&gt;Node13</title>
<g id="a_edge18_Node000001_Node000013"><a xlink:title=" ">
<path fill="none" stroke="#63b8ff" d="M523.33,-175.77C527.02,-153.89 532.97,-118.58 536.94,-95.09"/>
<polygon fill="#63b8ff" stroke="#63b8ff" points="540.39,-95.66 538.6,-85.21 533.49,-94.49 540.39,-95.66"/>
</a>
</g>
</g>
<!-- Node14 -->
<g id="Node000014" class="node">
<title>Node14</title>
<g id="a_Node000014"><a xlink:title=" ">
<polygon fill="#e0e0e0" stroke="#999999" points="938.5,-140 875.5,-140 875.5,-121 938.5,-121 938.5,-140"/>
<text text-anchor="middle" x="907" y="-128" font-family="Helvetica,sans-Serif" font-size="10.00">esp_log.h</text>
</a>
</g>
</g>
<!-- Node1&#45;&gt;Node14 -->
<g id="edge19_Node000001_Node000014" class="edge">
<title>Node1&#45;&gt;Node14</title>
<g id="a_edge19_Node000001_Node000014"><a xlink:title=" ">
<path fill="none" stroke="#63b8ff" d="M596.69,-184.38C664.79,-174.24 767.25,-158.34 865.09,-140.29"/>
<polygon fill="#63b8ff" stroke="#63b8ff" points="865.96,-143.69 875.15,-138.42 864.68,-136.8 865.96,-143.69"/>
</a>
</g>
</g>
<!-- Node15 -->
<g id="Node000015" class="node">
<title>Node15</title>
<g id="a_Node000015"><a xlink:href="config_8h.html" target="_top" xlink:title=" ">
<polygon fill="white" stroke="#666666" points="694,-140 598,-140 598,-121 694,-121 694,-140"/>
<text text-anchor="middle" x="646" y="-128" font-family="Helvetica,sans-Serif" font-size="10.00">../config/config.h</text>
</a>
</g>
</g>
<!-- Node1&#45;&gt;Node15 -->
<g id="edge20_Node000001_Node000015" class="edge">
<title>Node1&#45;&gt;Node15</title>
<g id="a_edge20_Node000001_Node000015"><a xlink:title=" ">
<path fill="none" stroke="#63b8ff" d="M558.49,-175.95C578.4,-165.84 602.17,-153.76 619.91,-144.75"/>
<polygon fill="#63b8ff" stroke="#63b8ff" points="621.75,-147.74 629.08,-140.09 618.58,-141.5 621.75,-147.74"/>
</a>
</g>
</g>
<!-- Node4&#45;&gt;Node2 -->
<g id="edge4_Node000004_Node000002" class="edge">
<title>Node4&#45;&gt;Node2</title>
<g id="a_edge4_Node000004_Node000002"><a xlink:title=" ">
<path fill="none" stroke="#63b8ff" d="M163,-120.87C163,-112.75 163,-100.31 163,-89.89"/>
<polygon fill="#63b8ff" stroke="#63b8ff" points="166.5,-89.67 163,-79.67 159.5,-89.67 166.5,-89.67"/>
</a>
</g>
</g>
<!-- Node4&#45;&gt;Node3 -->
<g id="edge5_Node000004_Node000003" class="edge">
<title>Node4&#45;&gt;Node3</title>
<g id="a_edge5_Node000004_Node000003"><a xlink:title=" ">
<path fill="none" stroke="#63b8ff" d="M145.7,-120.99C125.95,-111.29 93.45,-95.31 70.51,-84.03"/>
<polygon fill="#63b8ff" stroke="#63b8ff" points="71.84,-80.79 61.32,-79.52 68.75,-87.07 71.84,-80.79"/>
</a>
</g>
</g>
<!-- Node6 -->
<g id="Node000006" class="node">
<title>Node6</title>
<g id="a_Node000006"><a xlink:title=" ">
<polygon fill="#e0e0e0" stroke="#999999" points="891.5,-19 838.5,-19 838.5,0 891.5,0 891.5,-19"/>
<text text-anchor="middle" x="865" y="-7" font-family="Helvetica,sans-Serif" font-size="10.00">stdint.h</text>
</a>
</g>
</g>
<!-- Node5&#45;&gt;Node6 -->
<g id="edge7_Node000005_Node000006" class="edge">
<title>Node5&#45;&gt;Node6</title>
<g id="a_edge7_Node000005_Node000006"><a xlink:title=" ">
<path fill="none" stroke="#63b8ff" d="M834.27,-120.92C851.84,-114.21 872.52,-102.94 883,-85 893.34,-67.3 884.72,-43.93 876.21,-28.12"/>
<polygon fill="#63b8ff" stroke="#63b8ff" points="879.17,-26.24 871.1,-19.37 873.13,-29.77 879.17,-26.24"/>
</a>
</g>
</g>
<!-- Node7&#45;&gt;Node6 -->
<g id="edge9_Node000007_Node000006" class="edge">
<title>Node7&#45;&gt;Node6</title>
<g id="a_edge9_Node000007_Node000006"><a xlink:title=" ">
<path fill="none" stroke="#63b8ff" d="M834.31,-60.37C839.58,-51.81 847.79,-38.47 854.39,-27.74"/>
<polygon fill="#63b8ff" stroke="#63b8ff" points="857.41,-29.52 859.67,-19.17 851.44,-25.85 857.41,-29.52"/>
</a>
</g>
</g>
<!-- Node8&#45;&gt;Node2 -->
<g id="edge11_Node000008_Node000002" class="edge">
<title>Node8&#45;&gt;Node2</title>
<g id="a_edge11_Node000008_Node000002"><a xlink:title=" ">
<path fill="none" stroke="#63b8ff" d="M369.81,-120.99C327.07,-110.66 254.88,-93.21 208.1,-81.9"/>
<polygon fill="#63b8ff" stroke="#63b8ff" points="208.77,-78.46 198.23,-79.52 207.13,-85.27 208.77,-78.46"/>
</a>
</g>
</g>
<!-- Node9 -->
<g id="Node000009" class="node">
<title>Node9</title>
<g id="a_Node000009"><a xlink:title=" ">
<polygon fill="#e0e0e0" stroke="#999999" points="334.5,-79.5 237.5,-79.5 237.5,-60.5 334.5,-60.5 334.5,-79.5"/>
<text text-anchor="middle" x="286" y="-67.5" font-family="Helvetica,sans-Serif" font-size="10.00">freertos/queue.h</text>
</a>
</g>
</g>
<!-- Node8&#45;&gt;Node9 -->
<g id="edge12_Node000008_Node000009" class="edge">
<title>Node8&#45;&gt;Node9</title>
<g id="a_edge12_Node000008_Node000009"><a xlink:title=" ">
<path fill="none" stroke="#63b8ff" d="M387.7,-120.99C367.95,-111.29 335.45,-95.31 312.51,-84.03"/>
<polygon fill="#63b8ff" stroke="#63b8ff" points="313.84,-80.79 303.32,-79.52 310.75,-87.07 313.84,-80.79"/>
</a>
</g>
</g>
<!-- Node8&#45;&gt;Node10 -->
<g id="edge13_Node000008_Node000010" class="edge">
<title>Node8&#45;&gt;Node10</title>
<g id="a_edge13_Node000008_Node000010"><a xlink:title=" ">
<path fill="none" stroke="#63b8ff" d="M405,-120.87C405,-114.11 405,-104.35 405,-95.26"/>
<polygon fill="#63b8ff" stroke="#63b8ff" points="408.5,-95.11 405,-85.11 401.5,-95.11 408.5,-95.11"/>
</a>
</g>
</g>
<!-- Node8&#45;&gt;Node13 -->
<g id="edge16_Node000008_Node000013" class="edge">
<title>Node8&#45;&gt;Node13</title>
<g id="a_edge16_Node000008_Node000013"><a xlink:title=" ">
<path fill="none" stroke="#63b8ff" d="M424.78,-120.99C444.09,-112.68 474.1,-99.78 498.79,-89.16"/>
<polygon fill="#63b8ff" stroke="#63b8ff" points="500.5,-92.23 508.3,-85.06 497.73,-85.8 500.5,-92.23"/>
</a>
</g>
</g>
<!-- Node11 -->
<g id="Node000011" class="node">
<title>Node11</title>
<g id="a_Node000011"><a xlink:title=" ">
<polygon fill="#e0e0e0" stroke="#999999" points="444,-19 366,-19 366,0 444,0 444,-19"/>
<text text-anchor="middle" x="405" y="-7" font-family="Helvetica,sans-Serif" font-size="10.00">driver/gpio.h</text>
</a>
</g>
</g>
<!-- Node10&#45;&gt;Node11 -->
<g id="edge14_Node000010_Node000011" class="edge">
<title>Node10&#45;&gt;Node11</title>
<g id="a_edge14_Node000010_Node000011"><a xlink:title=" ">
<path fill="none" stroke="#63b8ff" d="M405,-54.84C405,-47.21 405,-37.7 405,-29.45"/>
<polygon fill="#63b8ff" stroke="#63b8ff" points="408.5,-29.27 405,-19.27 401.5,-29.27 408.5,-29.27"/>
</a>
</g>
</g>
<!-- Node12 -->
<g id="Node000012" class="node">
<title>Node12</title>
<g id="a_Node000012"><a xlink:title=" ">
<polygon fill="#e0e0e0" stroke="#999999" points="690.5,-19 629.5,-19 629.5,0 690.5,0 690.5,-19"/>
<text text-anchor="middle" x="660" y="-7" font-family="Helvetica,sans-Serif" font-size="10.00">esp_err.h</text>
</a>
</g>
</g>
<!-- Node10&#45;&gt;Node12 -->
<g id="edge15_Node000010_Node000012" class="edge">
<title>Node10&#45;&gt;Node12</title>
<g id="a_edge15_Node000010_Node000012"><a xlink:title=" ">
<path fill="none" stroke="#63b8ff" d="M457.22,-57.02C505.34,-45.98 575.76,-29.83 619.68,-19.75"/>
<polygon fill="#63b8ff" stroke="#63b8ff" points="620.48,-23.16 629.44,-17.51 618.91,-16.33 620.48,-23.16"/>
</a>
</g>
</g>
<!-- Node15&#45;&gt;Node2 -->
<g id="edge23_Node000015_Node000002" class="edge">
<title>Node15&#45;&gt;Node2</title>
<g id="a_edge23_Node000015_Node000002"><a xlink:title=" ">
<path fill="none" stroke="#63b8ff" d="M597.82,-126.04C519.81,-120.07 361.13,-106.36 228,-85 221.87,-84.02 215.44,-82.83 209.11,-81.56"/>
<polygon fill="#63b8ff" stroke="#63b8ff" points="209.81,-78.13 199.31,-79.53 208.39,-84.99 209.81,-78.13"/>
</a>
</g>
</g>
<!-- Node15&#45;&gt;Node7 -->
<g id="edge22_Node000015_Node000007" class="edge">
<title>Node15&#45;&gt;Node7</title>
<g id="a_edge22_Node000015_Node000007"><a xlink:title=" ">
<path fill="none" stroke="#63b8ff" d="M672.61,-120.99C704.19,-110.9 757.01,-94.01 792.42,-82.69"/>
<polygon fill="#63b8ff" stroke="#63b8ff" points="793.9,-85.9 802.36,-79.52 791.77,-79.23 793.9,-85.9"/>
</a>
</g>
</g>
<!-- Node15&#45;&gt;Node12 -->
<g id="edge21_Node000015_Node000012" class="edge">
<title>Node15&#45;&gt;Node12</title>
<g id="a_edge21_Node000015_Node000012"><a xlink:title=" ">
<path fill="none" stroke="#63b8ff" d="M684.42,-120.96C703.74,-114.52 725.45,-103.5 737,-85 744.06,-73.69 743.66,-66.55 737,-55 728.58,-40.41 713.35,-30.17 698.65,-23.23"/>
<polygon fill="#63b8ff" stroke="#63b8ff" points="699.71,-19.87 689.14,-19.13 696.93,-26.3 699.71,-19.87"/>
</a>
</g>
</g>
<!-- Node16 -->
<g id="Node000016" class="node">
<title>Node16</title>
<g id="a_Node000016"><a xlink:title=" ">
<polygon fill="#e0e0e0" stroke="#999999" points="727.5,-79.5 624.5,-79.5 624.5,-60.5 727.5,-60.5 727.5,-79.5"/>
<text text-anchor="middle" x="676" y="-67.5" font-family="Helvetica,sans-Serif" font-size="10.00">freertos/semphr.h</text>
</a>
</g>
</g>
<!-- Node15&#45;&gt;Node16 -->
<g id="edge24_Node000015_Node000016" class="edge">
<title>Node15&#45;&gt;Node16</title>
<g id="a_edge24_Node000015_Node000016"><a xlink:title=" ">
<path fill="none" stroke="#63b8ff" d="M650.43,-120.87C654.77,-112.4 661.52,-99.24 666.99,-88.57"/>
<polygon fill="#63b8ff" stroke="#63b8ff" points="670.11,-90.16 671.56,-79.67 663.88,-86.97 670.11,-90.16"/>
</a>
</g>
</g>
</g>
</svg>
