<?xml version="1.0" encoding="UTF-8" standalone="no"?>
<!DOCTYPE svg PUBLIC "-//W3C//DTD SVG 1.1//EN"
 "http://www.w3.org/Graphics/SVG/1.1/DTD/svg11.dtd">
<!-- Generated by graphviz version 2.43.0 (0)
 -->
<!-- Title: software/nixie_clock_esp32_project/components/clock/clock.h Pages: 1 -->
<svg width="1189pt" height="203pt"
 viewBox="0.00 0.00 1188.50 203.00" xmlns="http://www.w3.org/2000/svg" xmlns:xlink="http://www.w3.org/1999/xlink">
<g id="graph0" class="graph" transform="scale(1 1) rotate(0) translate(4 199)">
<title>software/nixie_clock_esp32_project/components/clock/clock.h</title>
<!-- Node1 -->
<g id="Node000001" class="node">
<title>Node1</title>
<g id="a_Node000001"><a xlink:title=" ">
<polygon fill="#999999" stroke="#666666" points="357,-195 204,-195 204,-154 357,-154 357,-195"/>
<text text-anchor="start" x="212" y="-183" font-family="Helvetica,sans-Serif" font-size="10.00">software/nixie_clock</text>
<text text-anchor="start" x="212" y="-172" font-family="Helvetica,sans-Serif" font-size="10.00">_esp32_project/components</text>
<text text-anchor="middle" x="280.5" y="-161" font-family="Helvetica,sans-Serif" font-size="10.00">/clock/clock.h</text>
</a>
</g>
</g>
<!-- Node2 -->
<g id="Node000002" class="node">
<title>Node2</title>
<g id="a_Node000002"><a xlink:href="clock_8c.html" target="_top" xlink:title=" ">
<polygon fill="white" stroke="#666666" points="214,-118 61,-118 61,-77 214,-77 214,-118"/>
<text text-anchor="start" x="69" y="-106" font-family="Helvetica,sans-Serif" font-size="10.00">software/nixie_clock</text>
<text text-anchor="start" x="69" y="-95" font-family="Helvetica,sans-Serif" font-size="10.00">_esp32_project/components</text>
<text text-anchor="middle" x="137.5" y="-84" font-family="Helvetica,sans-Serif" font-size="10.00">/clock/clock.c</text>
</a>
</g>
</g>
<!-- Node1&#45;&gt;Node2 -->
<g id="edge1_Node000001_Node000002" class="edge">
<title>Node1&#45;&gt;Node2</title>
<g id="a_edge1_Node000001_Node000002"><a xlink:title=" ">
<path fill="none" stroke="#63b8ff" d="M234.42,-149.33C215.21,-139.26 193.2,-127.71 175.01,-118.17"/>
<polygon fill="#63b8ff" stroke="#63b8ff" points="232.82,-152.45 243.3,-153.99 236.07,-146.25 232.82,-152.45"/>
</a>
</g>
</g>
<!-- Node3 -->
<g id="Node000003" class="node">
<title>Node3</title>
<g id="a_Node000003"><a xlink:href="clock__task_8c.html" target="_top" xlink:title=" ">
<polygon fill="white" stroke="#666666" points="153,-41 0,-41 0,0 153,0 153,-41"/>
<text text-anchor="start" x="8" y="-29" font-family="Helvetica,sans-Serif" font-size="10.00">software/nixie_clock</text>
<text text-anchor="start" x="8" y="-18" font-family="Helvetica,sans-Serif" font-size="10.00">_esp32_project/components</text>
<text text-anchor="middle" x="76.5" y="-7" font-family="Helvetica,sans-Serif" font-size="10.00">/clock_task/clock_task.c</text>
</a>
</g>
</g>
<!-- Node1&#45;&gt;Node3 -->
<g id="edge2_Node000001_Node000003" class="edge">
<title>Node1&#45;&gt;Node3</title>
<g id="a_edge2_Node000001_Node000003"><a xlink:title=" ">
<path fill="none" stroke="#63b8ff" d="M269.3,-144.6C259.73,-123.31 244.09,-95.05 222.5,-77 202.63,-60.39 177.27,-48.45 153.28,-40"/>
<polygon fill="#63b8ff" stroke="#63b8ff" points="266.1,-146.02 273.26,-153.82 272.53,-143.25 266.1,-146.02"/>
</a>
</g>
</g>
<!-- Node4 -->
<g id="Node000004" class="node">
<title>Node4</title>
<g id="a_Node000004"><a xlink:href="config_8h.html" target="_top" xlink:title=" ">
<polygon fill="white" stroke="#666666" points="580,-118 427,-118 427,-77 580,-77 580,-118"/>
<text text-anchor="start" x="435" y="-106" font-family="Helvetica,sans-Serif" font-size="10.00">software/nixie_clock</text>
<text text-anchor="start" x="435" y="-95" font-family="Helvetica,sans-Serif" font-size="10.00">_esp32_project/components</text>
<text text-anchor="middle" x="503.5" y="-84" font-family="Helvetica,sans-Serif" font-size="10.00">/config/config.h</text>
</a>
</g>
</g>
<!-- Node1&#45;&gt;Node4 -->
<g id="edge3_Node000001_Node000004" class="edge">
<title>Node1&#45;&gt;Node4</title>
<g id="a_edge3_Node000001_Node000004"><a xlink:title=" ">
<path fill="none" stroke="#63b8ff" d="M348.37,-150.67C379.36,-140.25 415.69,-128.03 445.39,-118.04"/>
<polygon fill="#63b8ff" stroke="#63b8ff" points="346.87,-147.49 338.51,-153.99 349.1,-154.12 346.87,-147.49"/>
</a>
</g>
</g>
<!-- Node6 -->
<g id="Node000006" class="node">
<title>Node6</title>
<g id="a_Node000006"><a xlink:href="ntp_8c.html" target="_top" xlink:title=" ">
<polygon fill="white" stroke="#666666" points="324,-41 171,-41 171,0 324,0 324,-41"/>
<text text-anchor="start" x="179" y="-29" font-family="Helvetica,sans-Serif" font-size="10.00">software/nixie_clock</text>
<text text-anchor="start" x="179" y="-18" font-family="Helvetica,sans-Serif" font-size="10.00">_esp32_project/components</text>
<text text-anchor="middle" x="247.5" y="-7" font-family="Helvetica,sans-Serif" font-size="10.00">/ntp/ntp.c</text>
</a>
</g>
</g>
<!-- Node1&#45;&gt;Node6 -->
<g id="edge11_Node000001_Node000006" class="edge">
<title>Node1&#45;&gt;Node6</title>
<g id="a_edge11_Node000001_Node000006"><a xlink:title=" ">
<path fill="none" stroke="#63b8ff" d="M274.09,-143.98C267.53,-113.76 257.52,-67.64 251.84,-41.47"/>
<polygon fill="#63b8ff" stroke="#63b8ff" points="270.71,-144.91 276.25,-153.94 277.55,-143.42 270.71,-144.91"/>
</a>
</g>
</g>
<!-- Node10 -->
<g id="Node000010" class="node">
<title>Node10</title>
<g id="a_Node000010"><a xlink:href="main_8c.html" target="_top" xlink:title=" ">
<polygon fill="white" stroke="#666666" points="1180.5,-35.5 1026.5,-35.5 1026.5,-5.5 1180.5,-5.5 1180.5,-35.5"/>
<text text-anchor="start" x="1034.5" y="-23.5" font-family="Helvetica,sans-Serif" font-size="10.00">software/nixie_clock</text>
<text text-anchor="middle" x="1103.5" y="-12.5" font-family="Helvetica,sans-Serif" font-size="10.00">_esp32_project/main/main.c</text>
</a>
</g>
</g>
<!-- Node1&#45;&gt;Node10 -->
<g id="edge12_Node000001_Node000010" class="edge">
<title>Node1&#45;&gt;Node10</title>
<g id="a_edge12_Node000001_Node000010"><a xlink:title=" ">
<path fill="none" stroke="#63b8ff" d="M367.2,-159.22C505.21,-136.18 783.21,-88.6 1017.5,-41 1025.75,-39.32 1034.43,-37.47 1042.96,-35.59"/>
<polygon fill="#63b8ff" stroke="#63b8ff" points="366.4,-155.8 357.11,-160.9 367.55,-162.71 366.4,-155.8"/>
</a>
</g>
</g>
<!-- Node4&#45;&gt;Node3 -->
<g id="edge4_Node000004_Node000003" class="edge">
<title>Node4&#45;&gt;Node3</title>
<g id="a_edge4_Node000004_Node000003"><a xlink:title=" ">
<path fill="none" stroke="#63b8ff" d="M416.84,-84.02C347.54,-73.66 248.01,-57.92 161.5,-41 158.83,-40.48 156.11,-39.93 153.36,-39.37"/>
<polygon fill="#63b8ff" stroke="#63b8ff" points="416.44,-87.5 426.84,-85.51 417.47,-80.57 416.44,-87.5"/>
</a>
</g>
</g>
<!-- Node5 -->
<g id="Node000005" class="node">
<title>Node5</title>
<g id="a_Node000005"><a xlink:href="config_8c.html" target="_top" xlink:title=" ">
<polygon fill="white" stroke="#666666" points="1008,-41 855,-41 855,0 1008,0 1008,-41"/>
<text text-anchor="start" x="863" y="-29" font-family="Helvetica,sans-Serif" font-size="10.00">software/nixie_clock</text>
<text text-anchor="start" x="863" y="-18" font-family="Helvetica,sans-Serif" font-size="10.00">_esp32_project/components</text>
<text text-anchor="middle" x="931.5" y="-7" font-family="Helvetica,sans-Serif" font-size="10.00">/config/config.c</text>
</a>
</g>
</g>
<!-- Node4&#45;&gt;Node5 -->
<g id="edge5_Node000004_Node000005" class="edge">
<title>Node4&#45;&gt;Node5</title>
<g id="a_edge5_Node000004_Node000005"><a xlink:title=" ">
<path fill="none" stroke="#63b8ff" d="M590.07,-84.09C659.59,-73.73 759.6,-57.98 846.5,-41 849.17,-40.48 851.89,-39.93 854.64,-39.37"/>
<polygon fill="#63b8ff" stroke="#63b8ff" points="589.42,-80.64 580.04,-85.57 590.45,-87.57 589.42,-80.64"/>
</a>
</g>
</g>
<!-- Node4&#45;&gt;Node6 -->
<g id="edge6_Node000004_Node000006" class="edge">
<title>Node4&#45;&gt;Node6</title>
<g id="a_edge6_Node000004_Node000006"><a xlink:title=" ">
<path fill="none" stroke="#63b8ff" d="M426.97,-74.08C391.1,-63.57 348.75,-51.16 314.2,-41.04"/>
<polygon fill="#63b8ff" stroke="#63b8ff" points="426.33,-77.54 436.91,-76.99 428.29,-70.82 426.33,-77.54"/>
</a>
</g>
</g>
<!-- Node7 -->
<g id="Node000007" class="node">
<title>Node7</title>
<g id="a_Node000007"><a xlink:href="pwm_8c.html" target="_top" xlink:title=" ">
<polygon fill="white" stroke="#666666" points="495,-41 342,-41 342,0 495,0 495,-41"/>
<text text-anchor="start" x="350" y="-29" font-family="Helvetica,sans-Serif" font-size="10.00">software/nixie_clock</text>
<text text-anchor="start" x="350" y="-18" font-family="Helvetica,sans-Serif" font-size="10.00">_esp32_project/components</text>
<text text-anchor="middle" x="418.5" y="-7" font-family="Helvetica,sans-Serif" font-size="10.00">/pwm/pwm.c</text>
</a>
</g>
</g>
<!-- Node4&#45;&gt;Node7 -->
<g id="edge7_Node000004_Node000007" class="edge">
<title>Node4&#45;&gt;Node7</title>
<g id="a_edge7_Node000004_Node000007"><a xlink:title=" ">
<path fill="none" stroke="#63b8ff" d="M473.55,-70.07C462.73,-60.52 450.72,-49.93 440.68,-41.07"/>
<polygon fill="#63b8ff" stroke="#63b8ff" points="471.35,-72.8 481.17,-76.79 475.98,-67.55 471.35,-72.8"/>
</a>
</g>
</g>
<!-- Node8 -->
<g id="Node000008" class="node">
<title>Node8</title>
<g id="a_Node000008"><a xlink:href="webserver_8c.html" target="_top" xlink:title=" ">
<polygon fill="white" stroke="#666666" points="666,-41 513,-41 513,0 666,0 666,-41"/>
<text text-anchor="start" x="521" y="-29" font-family="Helvetica,sans-Serif" font-size="10.00">software/nixie_clock</text>
<text text-anchor="start" x="521" y="-18" font-family="Helvetica,sans-Serif" font-size="10.00">_esp32_project/components</text>
<text text-anchor="middle" x="589.5" y="-7" font-family="Helvetica,sans-Serif" font-size="10.00">/webserver/webserver.c</text>
</a>
</g>
</g>
<!-- Node4&#45;&gt;Node8 -->
<g id="edge8_Node000004_Node000008" class="edge">
<title>Node4&#45;&gt;Node8</title>
<g id="a_edge8_Node000004_Node000008"><a xlink:title=" ">
<path fill="none" stroke="#63b8ff" d="M533.81,-70.07C544.75,-60.52 556.9,-49.93 567.06,-41.07"/>
<polygon fill="#63b8ff" stroke="#63b8ff" points="531.33,-67.58 526.1,-76.79 535.93,-72.86 531.33,-67.58"/>
</a>
</g>
</g>
<!-- Node9 -->
<g id="Node000009" class="node">
<title>Node9</title>
<g id="a_Node000009"><a xlink:href="wifi_8c.html" target="_top" xlink:title=" ">
<polygon fill="white" stroke="#666666" points="837,-41 684,-41 684,0 837,0 837,-41"/>
<text text-anchor="start" x="692" y="-29" font-family="Helvetica,sans-Serif" font-size="10.00">software/nixie_clock</text>
<text text-anchor="start" x="692" y="-18" font-family="Helvetica,sans-Serif" font-size="10.00">_esp32_project/components</text>
<text text-anchor="middle" x="760.5" y="-7" font-family="Helvetica,sans-Serif" font-size="10.00">/wifi/wifi.c</text>
</a>
</g>
</g>
<!-- Node4&#45;&gt;Node9 -->
<g id="edge9_Node000004_Node000009" class="edge">
<title>Node4&#45;&gt;Node9</title>
<g id="a_edge9_Node000004_Node000009"><a xlink:title=" ">
<path fill="none" stroke="#63b8ff" d="M580.33,-74.08C616.34,-63.57 658.85,-51.16 693.54,-41.04"/>
<polygon fill="#63b8ff" stroke="#63b8ff" points="578.97,-70.83 570.35,-76.99 580.93,-77.55 578.97,-70.83"/>
</a>
</g>
</g>
<!-- Node4&#45;&gt;Node10 -->
<g id="edge10_Node000004_Node000010" class="edge">
<title>Node4&#45;&gt;Node10</title>
<g id="a_edge10_Node000004_Node000010"><a xlink:title=" ">
<path fill="none" stroke="#63b8ff" d="M590.07,-90.22C692.56,-82.08 868.2,-65.9 1017.5,-41 1026.71,-39.46 1036.42,-37.55 1045.86,-35.53"/>
<polygon fill="#63b8ff" stroke="#63b8ff" points="589.77,-86.73 580.08,-91.01 590.32,-93.71 589.77,-86.73"/>
</a>
</g>
</g>
</g>
</svg>
