<?xml version="1.0" encoding="UTF-8" standalone="no"?>
<!DOCTYPE svg PUBLIC "-//W3C//DTD SVG 1.1//EN"
 "http://www.w3.org/Graphics/SVG/1.1/DTD/svg11.dtd">
<!-- Generated by graphviz version 2.43.0 (0)
 -->
<!-- Title: software/nixie_clock_esp32_project/components/clock_task/clock_task.c Pages: 1 -->
<svg width="1118pt" height="225pt"
 viewBox="0.00 0.00 1117.50 225.00" xmlns="http://www.w3.org/2000/svg" xmlns:xlink="http://www.w3.org/1999/xlink">
<g id="graph0" class="graph" transform="scale(1 1) rotate(0) translate(4 221)">
<title>software/nixie_clock_esp32_project/components/clock_task/clock_task.c</title>
<!-- Node1 -->
<g id="Node000001" class="node">
<title>Node1</title>
<g id="a_Node000001"><a xlink:title=" ">
<polygon fill="#999999" stroke="#666666" points="537.5,-217 384.5,-217 384.5,-176 537.5,-176 537.5,-217"/>
<text text-anchor="start" x="392.5" y="-205" font-family="Helvetica,sans-Serif" font-size="10.00">software/nixie_clock</text>
<text text-anchor="start" x="392.5" y="-194" font-family="Helvetica,sans-Serif" font-size="10.00">_esp32_project/components</text>
<text text-anchor="middle" x="461" y="-183" font-family="Helvetica,sans-Serif" font-size="10.00">/clock_task/clock_task.c</text>
</a>
</g>
</g>
<!-- Node2 -->
<g id="Node000002" class="node">
<title>Node2</title>
<g id="a_Node000002"><a xlink:title=" ">
<polygon fill="#e0e0e0" stroke="#999999" points="92,-140 0,-140 0,-121 92,-121 92,-140"/>
<text text-anchor="middle" x="46" y="-128" font-family="Helvetica,sans-Serif" font-size="10.00">esp_task_wdt.h</text>
</a>
</g>
</g>
<!-- Node1&#45;&gt;Node2 -->
<g id="edge1_Node000001_Node000002" class="edge">
<title>Node1&#45;&gt;Node2</title>
<g id="a_edge1_Node000001_Node000002"><a xlink:title=" ">
<path fill="none" stroke="#63b8ff" d="M384.45,-183.71C313.85,-172.83 205.82,-156.18 102.22,-140.19"/>
<polygon fill="#63b8ff" stroke="#63b8ff" points="102.63,-136.71 92.21,-138.64 101.56,-143.63 102.63,-136.71"/>
</a>
</g>
</g>
<!-- Node3 -->
<g id="Node000003" class="node">
<title>Node3</title>
<g id="a_Node000003"><a xlink:title=" ">
<polygon fill="#e0e0e0" stroke="#999999" points="173.5,-140 110.5,-140 110.5,-121 173.5,-121 173.5,-140"/>
<text text-anchor="middle" x="142" y="-128" font-family="Helvetica,sans-Serif" font-size="10.00">esp_log.h</text>
</a>
</g>
</g>
<!-- Node1&#45;&gt;Node3 -->
<g id="edge2_Node000001_Node000003" class="edge">
<title>Node1&#45;&gt;Node3</title>
<g id="a_edge2_Node000001_Node000003"><a xlink:title=" ">
<path fill="none" stroke="#63b8ff" d="M384.27,-180.52C330.6,-169.97 256.98,-155.37 183.73,-140.34"/>
<polygon fill="#63b8ff" stroke="#63b8ff" points="184.37,-136.9 173.87,-138.31 182.96,-143.75 184.37,-136.9"/>
</a>
</g>
</g>
<!-- Node4 -->
<g id="Node000004" class="node">
<title>Node4</title>
<g id="a_Node000004"><a xlink:title=" ">
<polygon fill="#e0e0e0" stroke="#999999" points="562.5,-79.5 449.5,-79.5 449.5,-60.5 562.5,-60.5 562.5,-79.5"/>
<text text-anchor="middle" x="506" y="-67.5" font-family="Helvetica,sans-Serif" font-size="10.00">freertos/FreeRTOS.h</text>
</a>
</g>
</g>
<!-- Node1&#45;&gt;Node4 -->
<g id="edge3_Node000001_Node000004" class="edge">
<title>Node1&#45;&gt;Node4</title>
<g id="a_edge3_Node000001_Node000004"><a xlink:title=" ">
<path fill="none" stroke="#63b8ff" d="M468.13,-175.77C476.73,-151.98 491.07,-112.3 499.42,-89.21"/>
<polygon fill="#63b8ff" stroke="#63b8ff" points="502.78,-90.21 502.89,-79.61 496.2,-87.83 502.78,-90.21"/>
</a>
</g>
</g>
<!-- Node5 -->
<g id="Node000005" class="node">
<title>Node5</title>
<g id="a_Node000005"><a xlink:title=" ">
<polygon fill="#e0e0e0" stroke="#999999" points="325,-79.5 237,-79.5 237,-60.5 325,-60.5 325,-79.5"/>
<text text-anchor="middle" x="281" y="-67.5" font-family="Helvetica,sans-Serif" font-size="10.00">freertos/task.h</text>
</a>
</g>
</g>
<!-- Node1&#45;&gt;Node5 -->
<g id="edge4_Node000001_Node000005" class="edge">
<title>Node1&#45;&gt;Node5</title>
<g id="a_edge4_Node000001_Node000005"><a xlink:title=" ">
<path fill="none" stroke="#63b8ff" d="M410.36,-175.87C389.45,-166.58 365.58,-154.35 346,-140 325.36,-124.87 305.81,-102.67 293.65,-87.56"/>
<polygon fill="#63b8ff" stroke="#63b8ff" points="296.32,-85.29 287.38,-79.6 290.81,-89.62 296.32,-85.29"/>
</a>
</g>
</g>
<!-- Node6 -->
<g id="Node000006" class="node">
<title>Node6</title>
<g id="a_Node000006"><a xlink:href="clock__task_8h.html" target="_top" xlink:title=" ">
<polygon fill="white" stroke="#666666" points="432.5,-140 355.5,-140 355.5,-121 432.5,-121 432.5,-140"/>
<text text-anchor="middle" x="394" y="-128" font-family="Helvetica,sans-Serif" font-size="10.00">clock_task.h</text>
</a>
</g>
</g>
<!-- Node1&#45;&gt;Node6 -->
<g id="edge5_Node000001_Node000006" class="edge">
<title>Node1&#45;&gt;Node6</title>
<g id="a_edge5_Node000001_Node000006"><a xlink:title=" ">
<path fill="none" stroke="#63b8ff" d="M440.53,-175.95C430.89,-166.74 419.54,-155.9 410.46,-147.23"/>
<polygon fill="#63b8ff" stroke="#63b8ff" points="412.82,-144.64 403.17,-140.26 407.98,-149.7 412.82,-144.64"/>
</a>
</g>
</g>
<!-- Node7 -->
<g id="Node000007" class="node">
<title>Node7</title>
<g id="a_Node000007"><a xlink:href="clock_8h.html" target="_top" xlink:title=" ">
<polygon fill="white" stroke="#666666" points="431.5,-79.5 342.5,-79.5 342.5,-60.5 431.5,-60.5 431.5,-79.5"/>
<text text-anchor="middle" x="387" y="-67.5" font-family="Helvetica,sans-Serif" font-size="10.00">../clock/clock.h</text>
</a>
</g>
</g>
<!-- Node1&#45;&gt;Node7 -->
<g id="edge12_Node000001_Node000007" class="edge">
<title>Node1&#45;&gt;Node7</title>
<g id="a_edge12_Node000001_Node000007"><a xlink:title=" ">
<path fill="none" stroke="#63b8ff" d="M458.79,-175.97C456.33,-160.22 451.24,-137.97 441,-121 432.69,-107.23 419.49,-94.91 408.22,-85.94"/>
<polygon fill="#63b8ff" stroke="#63b8ff" points="410.18,-83.03 400.1,-79.77 405.94,-88.61 410.18,-83.03"/>
</a>
</g>
</g>
<!-- Node9 -->
<g id="Node000009" class="node">
<title>Node9</title>
<g id="a_Node000009"><a xlink:href="display_8h.html" target="_top" xlink:title=" ">
<polygon fill="white" stroke="#666666" points="298.5,-140 191.5,-140 191.5,-121 298.5,-121 298.5,-140"/>
<text text-anchor="middle" x="245" y="-128" font-family="Helvetica,sans-Serif" font-size="10.00">../display/display.h</text>
</a>
</g>
</g>
<!-- Node1&#45;&gt;Node9 -->
<g id="edge10_Node000001_Node000009" class="edge">
<title>Node1&#45;&gt;Node9</title>
<g id="a_edge10_Node000001_Node000009"><a xlink:title=" ">
<path fill="none" stroke="#63b8ff" d="M395.02,-175.95C358.57,-165.15 314.56,-152.11 283.66,-142.95"/>
<polygon fill="#63b8ff" stroke="#63b8ff" points="284.3,-139.49 273.71,-140.01 282.31,-146.2 284.3,-139.49"/>
</a>
</g>
</g>
<!-- Node10 -->
<g id="Node000010" class="node">
<title>Node10</title>
<g id="a_Node000010"><a xlink:href="gpio__task_8h.html" target="_top" xlink:title=" ">
<polygon fill="white" stroke="#666666" points="855,-140 723,-140 723,-121 855,-121 855,-140"/>
<text text-anchor="middle" x="789" y="-128" font-family="Helvetica,sans-Serif" font-size="10.00">../gpio_task/gpio_task.h</text>
</a>
</g>
</g>
<!-- Node1&#45;&gt;Node10 -->
<g id="edge13_Node000001_Node000010" class="edge">
<title>Node1&#45;&gt;Node10</title>
<g id="a_edge13_Node000001_Node000010"><a xlink:title=" ">
<path fill="none" stroke="#63b8ff" d="M537.9,-180.49C598.56,-168.66 681.61,-152.45 735.29,-141.98"/>
<polygon fill="#63b8ff" stroke="#63b8ff" points="736.14,-145.38 745.29,-140.03 734.8,-138.51 736.14,-145.38"/>
</a>
</g>
</g>
<!-- Node12 -->
<g id="Node000012" class="node">
<title>Node12</title>
<g id="a_Node000012"><a xlink:href="gpio__driver_8h.html" target="_top" xlink:title=" ">
<polygon fill="white" stroke="#666666" points="960,-85 856,-85 856,-55 960,-55 960,-85"/>
<text text-anchor="start" x="864" y="-73" font-family="Helvetica,sans-Serif" font-size="10.00">../gpio_driver/gpio</text>
<text text-anchor="middle" x="908" y="-62" font-family="Helvetica,sans-Serif" font-size="10.00">_driver.h</text>
</a>
</g>
</g>
<!-- Node1&#45;&gt;Node12 -->
<g id="edge20_Node000001_Node000012" class="edge">
<title>Node1&#45;&gt;Node12</title>
<g id="a_edge20_Node000001_Node000012"><a xlink:title=" ">
<path fill="none" stroke="#63b8ff" d="M537.84,-192.52C639.36,-187.31 811.45,-173.68 864,-140 880.58,-129.37 892.11,-110.02 899.19,-94.51"/>
<polygon fill="#63b8ff" stroke="#63b8ff" points="902.54,-95.57 903.21,-85 896.09,-92.85 902.54,-95.57"/>
</a>
</g>
</g>
<!-- Node15 -->
<g id="Node000015" class="node">
<title>Node15</title>
<g id="a_Node000015"><a xlink:href="rotary__encoder_8h.html" target="_top" xlink:title=" ">
<polygon fill="white" stroke="#666666" points="1109.5,-85 978.5,-85 978.5,-55 1109.5,-55 1109.5,-85"/>
<text text-anchor="start" x="986.5" y="-73" font-family="Helvetica,sans-Serif" font-size="10.00">../rotary_encoder/rotary</text>
<text text-anchor="middle" x="1044" y="-62" font-family="Helvetica,sans-Serif" font-size="10.00">_encoder.h</text>
</a>
</g>
</g>
<!-- Node1&#45;&gt;Node15 -->
<g id="edge21_Node000001_Node000015" class="edge">
<title>Node1&#45;&gt;Node15</title>
<g id="a_edge21_Node000001_Node000015"><a xlink:title=" ">
<path fill="none" stroke="#63b8ff" d="M537.71,-192.07C624.02,-186.71 767.74,-173.24 887,-140 930.67,-127.83 977.92,-105.73 1009.06,-89.82"/>
<polygon fill="#63b8ff" stroke="#63b8ff" points="1010.91,-92.8 1018.18,-85.09 1007.69,-86.58 1010.91,-92.8"/>
</a>
</g>
</g>
<!-- Node16 -->
<g id="Node000016" class="node">
<title>Node16</title>
<g id="a_Node000016"><a xlink:href="config_8h.html" target="_top" xlink:title=" ">
<polygon fill="white" stroke="#666666" points="623,-140 527,-140 527,-121 623,-121 623,-140"/>
<text text-anchor="middle" x="575" y="-128" font-family="Helvetica,sans-Serif" font-size="10.00">../config/config.h</text>
</a>
</g>
</g>
<!-- Node1&#45;&gt;Node16 -->
<g id="edge22_Node000001_Node000016" class="edge">
<title>Node1&#45;&gt;Node16</title>
<g id="a_edge22_Node000001_Node000016"><a xlink:title=" ">
<path fill="none" stroke="#63b8ff" d="M495.82,-175.95C513.67,-165.93 534.95,-153.99 550.95,-145"/>
<polygon fill="#63b8ff" stroke="#63b8ff" points="552.69,-148.04 559.7,-140.09 549.26,-141.94 552.69,-148.04"/>
</a>
</g>
</g>
<!-- Node6&#45;&gt;Node4 -->
<g id="edge6_Node000006_Node000004" class="edge">
<title>Node6&#45;&gt;Node4</title>
<g id="a_edge6_Node000006_Node000004"><a xlink:title=" ">
<path fill="none" stroke="#63b8ff" d="M410.53,-120.87C428.97,-111.23 459.04,-95.53 480.51,-84.31"/>
<polygon fill="#63b8ff" stroke="#63b8ff" points="482.16,-87.4 489.41,-79.67 478.92,-81.19 482.16,-87.4"/>
</a>
</g>
</g>
<!-- Node6&#45;&gt;Node5 -->
<g id="edge7_Node000006_Node000005" class="edge">
<title>Node6&#45;&gt;Node5</title>
<g id="a_edge7_Node000006_Node000005"><a xlink:title=" ">
<path fill="none" stroke="#63b8ff" d="M377.33,-120.87C358.72,-111.23 328.38,-95.53 306.72,-84.31"/>
<polygon fill="#63b8ff" stroke="#63b8ff" points="308.23,-81.16 297.74,-79.67 305.01,-87.37 308.23,-81.16"/>
</a>
</g>
</g>
<!-- Node6&#45;&gt;Node7 -->
<g id="edge8_Node000006_Node000007" class="edge">
<title>Node6&#45;&gt;Node7</title>
<g id="a_edge8_Node000006_Node000007"><a xlink:title=" ">
<path fill="none" stroke="#63b8ff" d="M392.97,-120.87C392,-112.75 390.51,-100.31 389.26,-89.89"/>
<polygon fill="#63b8ff" stroke="#63b8ff" points="392.7,-89.18 388.04,-79.67 385.75,-90.01 392.7,-89.18"/>
</a>
</g>
</g>
<!-- Node8 -->
<g id="Node000008" class="node">
<title>Node8</title>
<g id="a_Node000008"><a xlink:title=" ">
<polygon fill="#e0e0e0" stroke="#999999" points="324.5,-19 271.5,-19 271.5,0 324.5,0 324.5,-19"/>
<text text-anchor="middle" x="298" y="-7" font-family="Helvetica,sans-Serif" font-size="10.00">stdint.h</text>
</a>
</g>
</g>
<!-- Node7&#45;&gt;Node8 -->
<g id="edge9_Node000007_Node000008" class="edge">
<title>Node7&#45;&gt;Node8</title>
<g id="a_edge9_Node000007_Node000008"><a xlink:title=" ">
<path fill="none" stroke="#63b8ff" d="M373.87,-60.37C359.67,-51.04 336.8,-36.01 319.88,-24.88"/>
<polygon fill="#63b8ff" stroke="#63b8ff" points="321.47,-21.74 311.19,-19.17 317.62,-27.58 321.47,-21.74"/>
</a>
</g>
</g>
<!-- Node9&#45;&gt;Node8 -->
<g id="edge11_Node000009_Node000008" class="edge">
<title>Node9&#45;&gt;Node8</title>
<g id="a_edge11_Node000009_Node000008"><a xlink:title=" ">
<path fill="none" stroke="#63b8ff" d="M239.22,-120.69C230.48,-106.16 216.12,-76.63 228,-55 235.77,-40.85 250.17,-30.56 263.89,-23.46"/>
<polygon fill="#63b8ff" stroke="#63b8ff" points="265.66,-26.49 273.19,-19.05 262.66,-20.17 265.66,-26.49"/>
</a>
</g>
</g>
<!-- Node10&#45;&gt;Node4 -->
<g id="edge14_Node000010_Node000004" class="edge">
<title>Node10&#45;&gt;Node4</title>
<g id="a_edge14_Node000010_Node000004"><a xlink:title=" ">
<path fill="none" stroke="#63b8ff" d="M746.36,-120.94C702.4,-112.08 631.87,-97.77 571,-85 565.91,-83.93 560.59,-82.8 555.29,-81.67"/>
<polygon fill="#63b8ff" stroke="#63b8ff" points="555.68,-78.18 545.17,-79.51 554.22,-85.02 555.68,-78.18"/>
</a>
</g>
</g>
<!-- Node11 -->
<g id="Node000011" class="node">
<title>Node11</title>
<g id="a_Node000011"><a xlink:title=" ">
<polygon fill="#e0e0e0" stroke="#999999" points="837.5,-79.5 740.5,-79.5 740.5,-60.5 837.5,-60.5 837.5,-79.5"/>
<text text-anchor="middle" x="789" y="-67.5" font-family="Helvetica,sans-Serif" font-size="10.00">freertos/queue.h</text>
</a>
</g>
</g>
<!-- Node10&#45;&gt;Node11 -->
<g id="edge15_Node000010_Node000011" class="edge">
<title>Node10&#45;&gt;Node11</title>
<g id="a_edge15_Node000010_Node000011"><a xlink:title=" ">
<path fill="none" stroke="#63b8ff" d="M789,-120.87C789,-112.75 789,-100.31 789,-89.89"/>
<polygon fill="#63b8ff" stroke="#63b8ff" points="792.5,-89.67 789,-79.67 785.5,-89.67 792.5,-89.67"/>
</a>
</g>
</g>
<!-- Node10&#45;&gt;Node12 -->
<g id="edge16_Node000010_Node000012" class="edge">
<title>Node10&#45;&gt;Node12</title>
<g id="a_edge16_Node000010_Node000012"><a xlink:title=" ">
<path fill="none" stroke="#63b8ff" d="M806.3,-120.99C822.92,-112.82 848.6,-100.2 869.99,-89.69"/>
<polygon fill="#63b8ff" stroke="#63b8ff" points="871.73,-92.73 879.16,-85.18 868.64,-86.45 871.73,-92.73"/>
</a>
</g>
</g>
<!-- Node10&#45;&gt;Node15 -->
<g id="edge19_Node000010_Node000015" class="edge">
<title>Node10&#45;&gt;Node15</title>
<g id="a_edge19_Node000010_Node000015"><a xlink:title=" ">
<path fill="none" stroke="#63b8ff" d="M826.08,-120.99C864.38,-112.21 925.11,-98.27 972.74,-87.35"/>
<polygon fill="#63b8ff" stroke="#63b8ff" points="973.73,-90.71 982.69,-85.06 972.16,-83.89 973.73,-90.71"/>
</a>
</g>
</g>
<!-- Node13 -->
<g id="Node000013" class="node">
<title>Node13</title>
<g id="a_Node000013"><a xlink:title=" ">
<polygon fill="#e0e0e0" stroke="#999999" points="947,-19 869,-19 869,0 947,0 947,-19"/>
<text text-anchor="middle" x="908" y="-7" font-family="Helvetica,sans-Serif" font-size="10.00">driver/gpio.h</text>
</a>
</g>
</g>
<!-- Node12&#45;&gt;Node13 -->
<g id="edge17_Node000012_Node000013" class="edge">
<title>Node12&#45;&gt;Node13</title>
<g id="a_edge17_Node000012_Node000013"><a xlink:title=" ">
<path fill="none" stroke="#63b8ff" d="M908,-54.84C908,-47.21 908,-37.7 908,-29.45"/>
<polygon fill="#63b8ff" stroke="#63b8ff" points="911.5,-29.27 908,-19.27 904.5,-29.27 911.5,-29.27"/>
</a>
</g>
</g>
<!-- Node14 -->
<g id="Node000014" class="node">
<title>Node14</title>
<g id="a_Node000014"><a xlink:title=" ">
<polygon fill="#e0e0e0" stroke="#999999" points="796.5,-19 735.5,-19 735.5,0 796.5,0 796.5,-19"/>
<text text-anchor="middle" x="766" y="-7" font-family="Helvetica,sans-Serif" font-size="10.00">esp_err.h</text>
</a>
</g>
</g>
<!-- Node12&#45;&gt;Node14 -->
<g id="edge18_Node000012_Node000014" class="edge">
<title>Node12&#45;&gt;Node14</title>
<g id="a_edge18_Node000012_Node000014"><a xlink:title=" ">
<path fill="none" stroke="#63b8ff" d="M873.99,-54.99C850.4,-45.27 819.26,-32.44 796.48,-23.06"/>
<polygon fill="#63b8ff" stroke="#63b8ff" points="797.55,-19.71 786.97,-19.14 794.88,-26.18 797.55,-19.71"/>
</a>
</g>
</g>
<!-- Node16&#45;&gt;Node4 -->
<g id="edge25_Node000016_Node000004" class="edge">
<title>Node16&#45;&gt;Node4</title>
<g id="a_edge25_Node000016_Node000004"><a xlink:title=" ">
<path fill="none" stroke="#63b8ff" d="M564.82,-120.87C554.12,-111.8 537.06,-97.34 524.07,-86.32"/>
<polygon fill="#63b8ff" stroke="#63b8ff" points="526.11,-83.46 516.22,-79.67 521.59,-88.8 526.11,-83.46"/>
</a>
</g>
</g>
<!-- Node16&#45;&gt;Node7 -->
<g id="edge24_Node000016_Node000007" class="edge">
<title>Node16&#45;&gt;Node7</title>
<g id="a_edge24_Node000016_Node000007"><a xlink:title=" ">
<path fill="none" stroke="#63b8ff" d="M547.66,-120.99C515.08,-110.86 460.49,-93.87 424.11,-82.55"/>
<polygon fill="#63b8ff" stroke="#63b8ff" points="424.96,-79.15 414.37,-79.52 422.88,-85.83 424.96,-79.15"/>
</a>
</g>
</g>
<!-- Node16&#45;&gt;Node14 -->
<g id="edge23_Node000016_Node000014" class="edge">
<title>Node16&#45;&gt;Node14</title>
<g id="a_edge23_Node000016_Node000014"><a xlink:title=" ">
<path fill="none" stroke="#63b8ff" d="M608.29,-120.96C632.72,-113.75 666.03,-101.87 692,-85 716.51,-69.08 739.34,-43.88 752.99,-27.27"/>
<polygon fill="#63b8ff" stroke="#63b8ff" points="756.06,-29.03 759.57,-19.04 750.59,-24.66 756.06,-29.03"/>
</a>
</g>
</g>
<!-- Node17 -->
<g id="Node000017" class="node">
<title>Node17</title>
<g id="a_Node000017"><a xlink:title=" ">
<polygon fill="#e0e0e0" stroke="#999999" points="683.5,-79.5 580.5,-79.5 580.5,-60.5 683.5,-60.5 683.5,-79.5"/>
<text text-anchor="middle" x="632" y="-67.5" font-family="Helvetica,sans-Serif" font-size="10.00">freertos/semphr.h</text>
</a>
</g>
</g>
<!-- Node16&#45;&gt;Node17 -->
<g id="edge26_Node000016_Node000017" class="edge">
<title>Node16&#45;&gt;Node17</title>
<g id="a_edge26_Node000016_Node000017"><a xlink:title=" ">
<path fill="none" stroke="#63b8ff" d="M583.41,-120.87C592.08,-111.97 605.8,-97.89 616.46,-86.95"/>
<polygon fill="#63b8ff" stroke="#63b8ff" points="619.08,-89.27 623.55,-79.67 614.07,-84.39 619.08,-89.27"/>
</a>
</g>
</g>
</g>
</svg>
