<?xml version="1.0" encoding="UTF-8" standalone="no"?>
<!DOCTYPE svg PUBLIC "-//W3C//DTD SVG 1.1//EN"
 "http://www.w3.org/Graphics/SVG/1.1/DTD/svg11.dtd">
<!-- Generated by graphviz version 2.43.0 (0)
 -->
<!-- Title: software/nixie_clock_esp32_project/components/clock/clock.h Pages: 1 -->
<svg width="840pt" height="214pt"
 viewBox="0.00 0.00 839.50 214.00" xmlns="http://www.w3.org/2000/svg" xmlns:xlink="http://www.w3.org/1999/xlink">
<g id="graph0" class="graph" transform="scale(1 1) rotate(0) translate(4 210)">
<title>software/nixie_clock_esp32_project/components/clock/clock.h</title>
<!-- Node1 -->
<g id="Node000001" class="node">
<title>Node1</title>
<g id="a_Node000001"><a xlink:title=" ">
<polygon fill="#999999" stroke="#666666" points="495,-206 342,-206 342,-165 495,-165 495,-206"/>
<text text-anchor="start" x="350" y="-194" font-family="Helvetica,sans-Serif" font-size="10.00">software/nixie_clock</text>
<text text-anchor="start" x="350" y="-183" font-family="Helvetica,sans-Serif" font-size="10.00">_esp32_project/components</text>
<text text-anchor="middle" x="418.5" y="-172" font-family="Helvetica,sans-Serif" font-size="10.00">/clock/clock.h</text>
</a>
</g>
</g>
<!-- Node2 -->
<g id="Node000002" class="node">
<title>Node2</title>
<g id="a_Node000002"><a xlink:href="clock_8c.html" target="_top" xlink:title=" ">
<polygon fill="white" stroke="#666666" points="247,-129 94,-129 94,-88 247,-88 247,-129"/>
<text text-anchor="start" x="102" y="-117" font-family="Helvetica,sans-Serif" font-size="10.00">software/nixie_clock</text>
<text text-anchor="start" x="102" y="-106" font-family="Helvetica,sans-Serif" font-size="10.00">_esp32_project/components</text>
<text text-anchor="middle" x="170.5" y="-95" font-family="Helvetica,sans-Serif" font-size="10.00">/clock/clock.c</text>
</a>
</g>
</g>
<!-- Node1&#45;&gt;Node2 -->
<g id="edge1_Node000001_Node000002" class="edge">
<title>Node1&#45;&gt;Node2</title>
<g id="a_edge1_Node000001_Node000002"><a xlink:title=" ">
<path fill="none" stroke="#63b8ff" d="M344.36,-162.08C309.61,-151.57 268.59,-139.16 235.12,-129.04"/>
<polygon fill="#63b8ff" stroke="#63b8ff" points="343.4,-165.45 353.99,-164.99 345.43,-158.75 343.4,-165.45"/>
</a>
</g>
</g>
<!-- Node3 -->
<g id="Node000003" class="node">
<title>Node3</title>
<g id="a_Node000003"><a xlink:href="config_8c.html" target="_top" xlink:title=" ">
<polygon fill="white" stroke="#666666" points="153,-46.5 0,-46.5 0,-5.5 153,-5.5 153,-46.5"/>
<text text-anchor="start" x="8" y="-34.5" font-family="Helvetica,sans-Serif" font-size="10.00">software/nixie_clock</text>
<text text-anchor="start" x="8" y="-23.5" font-family="Helvetica,sans-Serif" font-size="10.00">_esp32_project/components</text>
<text text-anchor="middle" x="76.5" y="-12.5" font-family="Helvetica,sans-Serif" font-size="10.00">/config/config.c</text>
</a>
</g>
</g>
<!-- Node1&#45;&gt;Node3 -->
<g id="edge2_Node000001_Node000003" class="edge">
<title>Node1&#45;&gt;Node3</title>
<g id="a_edge2_Node000001_Node000003"><a xlink:title=" ">
<path fill="none" stroke="#63b8ff" d="M350.03,-161.06C330.17,-152.58 309.11,-141.87 291.5,-129 271.92,-114.69 275.66,-101.48 255.5,-88 245.37,-81.23 186.76,-61.78 139.32,-46.65"/>
<polygon fill="#63b8ff" stroke="#63b8ff" points="348.78,-164.33 359.36,-164.91 351.46,-157.86 348.78,-164.33"/>
</a>
</g>
</g>
<!-- Node4 -->
<g id="Node000004" class="node">
<title>Node4</title>
<g id="a_Node000004"><a xlink:href="config_8h.html" target="_top" xlink:title=" ">
<polygon fill="white" stroke="#666666" points="495,-129 342,-129 342,-88 495,-88 495,-129"/>
<text text-anchor="start" x="350" y="-117" font-family="Helvetica,sans-Serif" font-size="10.00">software/nixie_clock</text>
<text text-anchor="start" x="350" y="-106" font-family="Helvetica,sans-Serif" font-size="10.00">_esp32_project/components</text>
<text text-anchor="middle" x="418.5" y="-95" font-family="Helvetica,sans-Serif" font-size="10.00">/config/config.h</text>
</a>
</g>
</g>
<!-- Node1&#45;&gt;Node4 -->
<g id="edge3_Node000001_Node000004" class="edge">
<title>Node1&#45;&gt;Node4</title>
<g id="a_edge3_Node000001_Node000004"><a xlink:title=" ">
<path fill="none" stroke="#63b8ff" d="M418.5,-154.69C418.5,-146.08 418.5,-136.9 418.5,-129.07"/>
<polygon fill="#63b8ff" stroke="#63b8ff" points="415,-154.79 418.5,-164.79 422,-154.79 415,-154.79"/>
</a>
</g>
</g>
<!-- Node5 -->
<g id="Node000005" class="node">
<title>Node5</title>
<g id="a_Node000005"><a xlink:href="service__manager_8c.html" target="_top" xlink:title=" ">
<polygon fill="white" stroke="#666666" points="324,-52 171,-52 171,0 324,0 324,-52"/>
<text text-anchor="start" x="179" y="-40" font-family="Helvetica,sans-Serif" font-size="10.00">software/nixie_clock</text>
<text text-anchor="start" x="179" y="-29" font-family="Helvetica,sans-Serif" font-size="10.00">_esp32_project/components</text>
<text text-anchor="start" x="179" y="-18" font-family="Helvetica,sans-Serif" font-size="10.00">/service_manager/service</text>
<text text-anchor="middle" x="247.5" y="-7" font-family="Helvetica,sans-Serif" font-size="10.00">_manager.c</text>
</a>
</g>
</g>
<!-- Node1&#45;&gt;Node5 -->
<g id="edge10_Node000001_Node000005" class="edge">
<title>Node1&#45;&gt;Node5</title>
<g id="a_edge10_Node000001_Node000005"><a xlink:title=" ">
<path fill="none" stroke="#63b8ff" d="M374.34,-159.6C360.32,-150.77 345.17,-140.22 332.5,-129 306.26,-105.78 281.22,-74.17 265.2,-52.33"/>
<polygon fill="#63b8ff" stroke="#63b8ff" points="372.55,-162.6 382.9,-164.86 376.22,-156.64 372.55,-162.6"/>
</a>
</g>
</g>
<!-- Node7 -->
<g id="Node000007" class="node">
<title>Node7</title>
<g id="a_Node000007"><a xlink:href="clock__task_8c.html" target="_top" xlink:title=" ">
<polygon fill="white" stroke="#666666" points="659.5,-46.5 513.5,-46.5 513.5,-5.5 659.5,-5.5 659.5,-46.5"/>
<text text-anchor="start" x="521.5" y="-34.5" font-family="Helvetica,sans-Serif" font-size="10.00">software/nixie_clock</text>
<text text-anchor="start" x="521.5" y="-23.5" font-family="Helvetica,sans-Serif" font-size="10.00">_esp32_project/main/clock</text>
<text text-anchor="middle" x="586.5" y="-12.5" font-family="Helvetica,sans-Serif" font-size="10.00">_task.c</text>
</a>
</g>
</g>
<!-- Node1&#45;&gt;Node7 -->
<g id="edge11_Node000001_Node000007" class="edge">
<title>Node1&#45;&gt;Node7</title>
<g id="a_edge11_Node000001_Node000007"><a xlink:title=" ">
<path fill="none" stroke="#63b8ff" d="M462.6,-159.37C476.35,-150.59 491.15,-140.13 503.5,-129 531.66,-103.64 558.2,-68.28 573.38,-46.55"/>
<polygon fill="#63b8ff" stroke="#63b8ff" points="460.38,-156.62 453.75,-164.88 464.08,-162.56 460.38,-156.62"/>
</a>
</g>
</g>
<!-- Node8 -->
<g id="Node000008" class="node">
<title>Node8</title>
<g id="a_Node000008"><a xlink:href="main_8c.html" target="_top" xlink:title=" ">
<polygon fill="white" stroke="#666666" points="831.5,-41 677.5,-41 677.5,-11 831.5,-11 831.5,-41"/>
<text text-anchor="start" x="685.5" y="-29" font-family="Helvetica,sans-Serif" font-size="10.00">software/nixie_clock</text>
<text text-anchor="middle" x="754.5" y="-18" font-family="Helvetica,sans-Serif" font-size="10.00">_esp32_project/main/main.c</text>
</a>
</g>
</g>
<!-- Node1&#45;&gt;Node8 -->
<g id="edge12_Node000001_Node000008" class="edge">
<title>Node1&#45;&gt;Node8</title>
<g id="a_edge12_Node000001_Node000008"><a xlink:title=" ">
<path fill="none" stroke="#63b8ff" d="M477.84,-160.78C497.21,-151.96 518.39,-141.11 536.5,-129 558.99,-113.96 558.28,-101.89 581.5,-88 603.23,-75.01 664.7,-54.62 708.17,-41.04"/>
<polygon fill="#63b8ff" stroke="#63b8ff" points="476.2,-157.68 468.5,-164.95 479.05,-164.07 476.2,-157.68"/>
</a>
</g>
</g>
<!-- Node9 -->
<g id="Node000009" class="node">
<title>Node9</title>
<g id="a_Node000009"><a xlink:href="ntp_8c.html" target="_top" xlink:title=" ">
<polygon fill="white" stroke="#666666" points="743,-129 590,-129 590,-88 743,-88 743,-129"/>
<text text-anchor="start" x="598" y="-117" font-family="Helvetica,sans-Serif" font-size="10.00">software/nixie_clock</text>
<text text-anchor="start" x="598" y="-106" font-family="Helvetica,sans-Serif" font-size="10.00">_esp32_project/components</text>
<text text-anchor="middle" x="666.5" y="-95" font-family="Helvetica,sans-Serif" font-size="10.00">/ntp/ntp.c</text>
</a>
</g>
</g>
<!-- Node1&#45;&gt;Node9 -->
<g id="edge9_Node000001_Node000009" class="edge">
<title>Node1&#45;&gt;Node9</title>
<g id="a_edge9_Node000001_Node000009"><a xlink:title=" ">
<path fill="none" stroke="#63b8ff" d="M492.64,-162.08C527.39,-151.57 568.41,-139.16 601.88,-129.04"/>
<polygon fill="#63b8ff" stroke="#63b8ff" points="491.57,-158.75 483.01,-164.99 493.6,-165.45 491.57,-158.75"/>
</a>
</g>
</g>
<!-- Node4&#45;&gt;Node3 -->
<g id="edge4_Node000004_Node000003" class="edge">
<title>Node4&#45;&gt;Node3</title>
<g id="a_edge4_Node000004_Node000003"><a xlink:title=" ">
<path fill="none" stroke="#63b8ff" d="M332.15,-90.5C282.1,-80.24 218,-66.39 161.5,-52 154.94,-50.33 148.13,-48.5 141.34,-46.6"/>
<polygon fill="#63b8ff" stroke="#63b8ff" points="331.47,-93.93 341.97,-92.5 332.87,-87.08 331.47,-93.93"/>
</a>
</g>
</g>
<!-- Node4&#45;&gt;Node5 -->
<g id="edge5_Node000004_Node000005" class="edge">
<title>Node4&#45;&gt;Node5</title>
<g id="a_edge5_Node000004_Node000005"><a xlink:title=" ">
<path fill="none" stroke="#63b8ff" d="M367.57,-83.53C346.54,-73.63 322.16,-62.14 300.88,-52.13"/>
<polygon fill="#63b8ff" stroke="#63b8ff" points="366.13,-86.71 376.67,-87.81 369.11,-80.38 366.13,-86.71"/>
</a>
</g>
</g>
<!-- Node6 -->
<g id="Node000006" class="node">
<title>Node6</title>
<g id="a_Node000006"><a xlink:href="webserver_8c.html" target="_top" xlink:title=" ">
<polygon fill="white" stroke="#666666" points="495,-46.5 342,-46.5 342,-5.5 495,-5.5 495,-46.5"/>
<text text-anchor="start" x="350" y="-34.5" font-family="Helvetica,sans-Serif" font-size="10.00">software/nixie_clock</text>
<text text-anchor="start" x="350" y="-23.5" font-family="Helvetica,sans-Serif" font-size="10.00">_esp32_project/components</text>
<text text-anchor="middle" x="418.5" y="-12.5" font-family="Helvetica,sans-Serif" font-size="10.00">/webserver/webserver.c</text>
</a>
</g>
</g>
<!-- Node4&#45;&gt;Node6 -->
<g id="edge6_Node000004_Node000006" class="edge">
<title>Node4&#45;&gt;Node6</title>
<g id="a_edge6_Node000004_Node000006"><a xlink:title=" ">
<path fill="none" stroke="#63b8ff" d="M418.5,-77.37C418.5,-67.1 418.5,-55.9 418.5,-46.67"/>
<polygon fill="#63b8ff" stroke="#63b8ff" points="415,-77.6 418.5,-87.6 422,-77.6 415,-77.6"/>
</a>
</g>
</g>
<!-- Node4&#45;&gt;Node7 -->
<g id="edge7_Node000004_Node000007" class="edge">
<title>Node4&#45;&gt;Node7</title>
<g id="a_edge7_Node000004_Node000007"><a xlink:title=" ">
<path fill="none" stroke="#63b8ff" d="M468.75,-83.42C493.27,-71.67 522.39,-57.72 545.54,-46.63"/>
<polygon fill="#63b8ff" stroke="#63b8ff" points="467.1,-80.33 459.6,-87.81 470.13,-86.64 467.1,-80.33"/>
</a>
</g>
</g>
<!-- Node4&#45;&gt;Node8 -->
<g id="edge8_Node000004_Node000008" class="edge">
<title>Node4&#45;&gt;Node8</title>
<g id="a_edge8_Node000004_Node000008"><a xlink:title=" ">
<path fill="none" stroke="#63b8ff" d="M504.91,-89.75C553.21,-79.47 614.41,-65.85 668.5,-52 681.45,-48.68 695.41,-44.77 708.23,-41.04"/>
<polygon fill="#63b8ff" stroke="#63b8ff" points="504.17,-86.33 495.12,-91.83 505.63,-93.18 504.17,-86.33"/>
</a>
</g>
</g>
</g>
</svg>
