<?xml version="1.0" encoding="UTF-8" standalone="no"?>
<!DOCTYPE svg PUBLIC "-//W3C//DTD SVG 1.1//EN"
 "http://www.w3.org/Graphics/SVG/1.1/DTD/svg11.dtd">
<!-- Generated by graphviz version 2.43.0 (0)
 -->
<!-- Title: software/nixie_clock_esp32_project/components/clock/clock.h Pages: 1 -->
<svg width="1189pt" height="203pt"
 viewBox="0.00 0.00 1189.00 203.00" xmlns="http://www.w3.org/2000/svg" xmlns:xlink="http://www.w3.org/1999/xlink">
<g id="graph0" class="graph" transform="scale(1 1) rotate(0) translate(4 199)">
<title>software/nixie_clock_esp32_project/components/clock/clock.h</title>
<!-- Node1 -->
<g id="Node000001" class="node">
<title>Node1</title>
<g id="a_Node000001"><a xlink:title=" ">
<polygon fill="#999999" stroke="#666666" points="443,-195 290,-195 290,-154 443,-154 443,-195"/>
<text text-anchor="start" x="298" y="-183" font-family="Helvetica,sans-Serif" font-size="10.00">software/nixie_clock</text>
<text text-anchor="start" x="298" y="-172" font-family="Helvetica,sans-Serif" font-size="10.00">_esp32_project/components</text>
<text text-anchor="middle" x="366.5" y="-161" font-family="Helvetica,sans-Serif" font-size="10.00">/clock/clock.h</text>
</a>
</g>
</g>
<!-- Node2 -->
<g id="Node000002" class="node">
<title>Node2</title>
<g id="a_Node000002"><a xlink:href="clock_8c.html" target="_top" xlink:title=" ">
<polygon fill="white" stroke="#666666" points="181,-118 28,-118 28,-77 181,-77 181,-118"/>
<text text-anchor="start" x="36" y="-106" font-family="Helvetica,sans-Serif" font-size="10.00">software/nixie_clock</text>
<text text-anchor="start" x="36" y="-95" font-family="Helvetica,sans-Serif" font-size="10.00">_esp32_project/components</text>
<text text-anchor="middle" x="104.5" y="-84" font-family="Helvetica,sans-Serif" font-size="10.00">/clock/clock.c</text>
</a>
</g>
</g>
<!-- Node1&#45;&gt;Node2 -->
<g id="edge1_Node000001_Node000002" class="edge">
<title>Node1&#45;&gt;Node2</title>
<g id="a_edge1_Node000001_Node000002"><a xlink:title=" ">
<path fill="none" stroke="#63b8ff" d="M288.65,-151.21C251.83,-140.68 208.28,-128.21 172.77,-118.04"/>
<polygon fill="#63b8ff" stroke="#63b8ff" points="287.77,-154.6 298.35,-153.99 289.7,-147.87 287.77,-154.6"/>
</a>
</g>
</g>
<!-- Node3 -->
<g id="Node000003" class="node">
<title>Node3</title>
<g id="a_Node000003"><a xlink:href="clock__task_8c.html" target="_top" xlink:title=" ">
<polygon fill="white" stroke="#666666" points="153,-41 0,-41 0,0 153,0 153,-41"/>
<text text-anchor="start" x="8" y="-29" font-family="Helvetica,sans-Serif" font-size="10.00">software/nixie_clock</text>
<text text-anchor="start" x="8" y="-18" font-family="Helvetica,sans-Serif" font-size="10.00">_esp32_project/components</text>
<text text-anchor="middle" x="76.5" y="-7" font-family="Helvetica,sans-Serif" font-size="10.00">/clock_task/clock_task.c</text>
</a>
</g>
</g>
<!-- Node1&#45;&gt;Node3 -->
<g id="edge2_Node000001_Node000003" class="edge">
<title>Node1&#45;&gt;Node3</title>
<g id="a_edge2_Node000001_Node000003"><a xlink:title=" ">
<path fill="none" stroke="#63b8ff" d="M292.36,-150.39C270.79,-141.93 247.86,-131.14 228.5,-118 207.69,-103.87 209.77,-91.89 189.5,-77 170.03,-62.7 146.32,-50.41 125.65,-41.05"/>
<polygon fill="#63b8ff" stroke="#63b8ff" points="291.23,-153.7 301.82,-153.99 293.72,-147.16 291.23,-153.7"/>
</a>
</g>
</g>
<!-- Node4 -->
<g id="Node000004" class="node">
<title>Node4</title>
<g id="a_Node000004"><a xlink:href="clock__task_8h.html" target="_top" xlink:title=" ">
<polygon fill="white" stroke="#666666" points="391,-118 238,-118 238,-77 391,-77 391,-118"/>
<text text-anchor="start" x="246" y="-106" font-family="Helvetica,sans-Serif" font-size="10.00">software/nixie_clock</text>
<text text-anchor="start" x="246" y="-95" font-family="Helvetica,sans-Serif" font-size="10.00">_esp32_project/components</text>
<text text-anchor="middle" x="314.5" y="-84" font-family="Helvetica,sans-Serif" font-size="10.00">/clock_task/clock_task.h</text>
</a>
</g>
</g>
<!-- Node1&#45;&gt;Node4 -->
<g id="edge3_Node000001_Node000004" class="edge">
<title>Node1&#45;&gt;Node4</title>
<g id="a_edge3_Node000001_Node000004"><a xlink:title=" ">
<path fill="none" stroke="#63b8ff" d="M347.01,-145.39C340.7,-136.3 333.85,-126.41 328.07,-118.07"/>
<polygon fill="#63b8ff" stroke="#63b8ff" points="344.26,-147.57 352.84,-153.79 350.02,-143.58 344.26,-147.57"/>
</a>
</g>
</g>
<!-- Node6 -->
<g id="Node000006" class="node">
<title>Node6</title>
<g id="a_Node000006"><a xlink:href="main_8c.html" target="_top" xlink:title=" ">
<polygon fill="white" stroke="#666666" points="496.5,-35.5 342.5,-35.5 342.5,-5.5 496.5,-5.5 496.5,-35.5"/>
<text text-anchor="start" x="350.5" y="-23.5" font-family="Helvetica,sans-Serif" font-size="10.00">software/nixie_clock</text>
<text text-anchor="middle" x="419.5" y="-12.5" font-family="Helvetica,sans-Serif" font-size="10.00">_esp32_project/main/main.c</text>
</a>
</g>
</g>
<!-- Node1&#45;&gt;Node6 -->
<g id="edge16_Node000001_Node000006" class="edge">
<title>Node1&#45;&gt;Node6</title>
<g id="a_edge16_Node000001_Node000006"><a xlink:title=" ">
<path fill="none" stroke="#63b8ff" d="M385.85,-145.08C390.9,-136.65 395.92,-127.21 399.5,-118 410.4,-89.93 415.77,-54.84 418.05,-35.66"/>
<polygon fill="#63b8ff" stroke="#63b8ff" points="382.75,-143.43 380.42,-153.77 388.69,-147.14 382.75,-143.43"/>
</a>
</g>
</g>
<!-- Node7 -->
<g id="Node000007" class="node">
<title>Node7</title>
<g id="a_Node000007"><a xlink:href="config_8h.html" target="_top" xlink:title=" ">
<polygon fill="white" stroke="#666666" points="634,-118 481,-118 481,-77 634,-77 634,-118"/>
<text text-anchor="start" x="489" y="-106" font-family="Helvetica,sans-Serif" font-size="10.00">software/nixie_clock</text>
<text text-anchor="start" x="489" y="-95" font-family="Helvetica,sans-Serif" font-size="10.00">_esp32_project/components</text>
<text text-anchor="middle" x="557.5" y="-84" font-family="Helvetica,sans-Serif" font-size="10.00">/config/config.h</text>
</a>
</g>
</g>
<!-- Node1&#45;&gt;Node7 -->
<g id="edge7_Node000001_Node000007" class="edge">
<title>Node1&#45;&gt;Node7</title>
<g id="a_edge7_Node000001_Node000007"><a xlink:title=" ">
<path fill="none" stroke="#63b8ff" d="M425.67,-150.27C451.98,-139.94 482.62,-127.9 507.73,-118.04"/>
<polygon fill="#63b8ff" stroke="#63b8ff" points="424.21,-147.08 416.18,-153.99 426.77,-153.59 424.21,-147.08"/>
</a>
</g>
</g>
<!-- Node9 -->
<g id="Node000009" class="node">
<title>Node9</title>
<g id="a_Node000009"><a xlink:href="ntp_8c.html" target="_top" xlink:title=" ">
<polygon fill="white" stroke="#666666" points="1181,-41 1028,-41 1028,0 1181,0 1181,-41"/>
<text text-anchor="start" x="1036" y="-29" font-family="Helvetica,sans-Serif" font-size="10.00">software/nixie_clock</text>
<text text-anchor="start" x="1036" y="-18" font-family="Helvetica,sans-Serif" font-size="10.00">_esp32_project/components</text>
<text text-anchor="middle" x="1104.5" y="-7" font-family="Helvetica,sans-Serif" font-size="10.00">/ntp/ntp.c</text>
</a>
</g>
</g>
<!-- Node1&#45;&gt;Node9 -->
<g id="edge15_Node000001_Node000009" class="edge">
<title>Node1&#45;&gt;Node9</title>
<g id="a_edge15_Node000001_Node000009"><a xlink:title=" ">
<path fill="none" stroke="#63b8ff" d="M452.96,-156.72C578.11,-132.25 816.97,-84.91 1019.5,-41 1022.16,-40.42 1024.87,-39.83 1027.61,-39.23"/>
<polygon fill="#63b8ff" stroke="#63b8ff" points="452.19,-153.3 443.04,-158.65 453.53,-160.17 452.19,-153.3"/>
</a>
</g>
</g>
<!-- Node4&#45;&gt;Node3 -->
<g id="edge4_Node000004_Node000003" class="edge">
<title>Node4&#45;&gt;Node3</title>
<g id="a_edge4_Node000004_Node000003"><a xlink:title=" ">
<path fill="none" stroke="#63b8ff" d="M242.93,-73.94C209.66,-63.46 170.49,-51.12 138.51,-41.04"/>
<polygon fill="#63b8ff" stroke="#63b8ff" points="242,-77.32 252.59,-76.99 244.1,-70.65 242,-77.32"/>
</a>
</g>
</g>
<!-- Node5 -->
<g id="Node000005" class="node">
<title>Node5</title>
<g id="a_Node000005"><a xlink:href="webserver_8c.html" target="_top" xlink:title=" ">
<polygon fill="white" stroke="#666666" points="324,-41 171,-41 171,0 324,0 324,-41"/>
<text text-anchor="start" x="179" y="-29" font-family="Helvetica,sans-Serif" font-size="10.00">software/nixie_clock</text>
<text text-anchor="start" x="179" y="-18" font-family="Helvetica,sans-Serif" font-size="10.00">_esp32_project/components</text>
<text text-anchor="middle" x="247.5" y="-7" font-family="Helvetica,sans-Serif" font-size="10.00">/webserver/webserver.c</text>
</a>
</g>
</g>
<!-- Node4&#45;&gt;Node5 -->
<g id="edge5_Node000004_Node000005" class="edge">
<title>Node4&#45;&gt;Node5</title>
<g id="a_edge5_Node000004_Node000005"><a xlink:title=" ">
<path fill="none" stroke="#63b8ff" d="M290.14,-69.23C281.81,-59.91 272.66,-49.67 264.99,-41.07"/>
<polygon fill="#63b8ff" stroke="#63b8ff" points="287.62,-71.67 296.9,-76.79 292.84,-67.01 287.62,-71.67"/>
</a>
</g>
</g>
<!-- Node4&#45;&gt;Node6 -->
<g id="edge6_Node000004_Node000006" class="edge">
<title>Node4&#45;&gt;Node6</title>
<g id="a_edge6_Node000004_Node000006"><a xlink:title=" ">
<path fill="none" stroke="#63b8ff" d="M350.18,-71.01C366.7,-59.22 385.69,-45.65 399.62,-35.7"/>
<polygon fill="#63b8ff" stroke="#63b8ff" points="347.92,-68.33 341.81,-76.99 351.99,-74.03 347.92,-68.33"/>
</a>
</g>
</g>
<!-- Node7&#45;&gt;Node3 -->
<g id="edge8_Node000007_Node000003" class="edge">
<title>Node7&#45;&gt;Node3</title>
<g id="a_edge8_Node000007_Node000003"><a xlink:title=" ">
<path fill="none" stroke="#63b8ff" d="M470.56,-85.21C372.44,-72.3 219.03,-51.61 161.5,-41 158.82,-40.51 156.1,-39.98 153.35,-39.44"/>
<polygon fill="#63b8ff" stroke="#63b8ff" points="470.39,-88.71 480.76,-86.55 471.3,-81.77 470.39,-88.71"/>
</a>
</g>
</g>
<!-- Node7&#45;&gt;Node5 -->
<g id="edge12_Node000007_Node000005" class="edge">
<title>Node7&#45;&gt;Node5</title>
<g id="a_edge12_Node000007_Node000005"><a xlink:title=" ">
<path fill="none" stroke="#63b8ff" d="M470.89,-75.55C424.77,-64.39 368.56,-50.79 324.05,-40.02"/>
<polygon fill="#63b8ff" stroke="#63b8ff" points="470.33,-79.01 480.87,-77.96 471.97,-72.21 470.33,-79.01"/>
</a>
</g>
</g>
<!-- Node7&#45;&gt;Node6 -->
<g id="edge14_Node000007_Node000006" class="edge">
<title>Node7&#45;&gt;Node6</title>
<g id="a_edge14_Node000007_Node000006"><a xlink:title=" ">
<path fill="none" stroke="#63b8ff" d="M512.68,-72.14C490.51,-60.09 464.52,-45.97 445.63,-35.7"/>
<polygon fill="#63b8ff" stroke="#63b8ff" points="511.14,-75.29 521.6,-76.99 514.49,-69.14 511.14,-75.29"/>
</a>
</g>
</g>
<!-- Node8 -->
<g id="Node000008" class="node">
<title>Node8</title>
<g id="a_Node000008"><a xlink:href="config_8c.html" target="_top" xlink:title=" ">
<polygon fill="white" stroke="#666666" points="668,-41 515,-41 515,0 668,0 668,-41"/>
<text text-anchor="start" x="523" y="-29" font-family="Helvetica,sans-Serif" font-size="10.00">software/nixie_clock</text>
<text text-anchor="start" x="523" y="-18" font-family="Helvetica,sans-Serif" font-size="10.00">_esp32_project/components</text>
<text text-anchor="middle" x="591.5" y="-7" font-family="Helvetica,sans-Serif" font-size="10.00">/config/config.c</text>
</a>
</g>
</g>
<!-- Node7&#45;&gt;Node8 -->
<g id="edge9_Node000007_Node000008" class="edge">
<title>Node7&#45;&gt;Node8</title>
<g id="a_edge9_Node000007_Node000008"><a xlink:title=" ">
<path fill="none" stroke="#63b8ff" d="M570.63,-67.55C574.64,-58.69 578.96,-49.15 582.63,-41.07"/>
<polygon fill="#63b8ff" stroke="#63b8ff" points="567.37,-66.24 566.43,-76.79 573.75,-69.13 567.37,-66.24"/>
</a>
</g>
</g>
<!-- Node7&#45;&gt;Node9 -->
<g id="edge10_Node000007_Node000009" class="edge">
<title>Node7&#45;&gt;Node9</title>
<g id="a_edge10_Node000007_Node000009"><a xlink:title=" ">
<path fill="none" stroke="#63b8ff" d="M644.52,-88.82C737.7,-79.95 889.67,-63.63 1019.5,-41 1022.18,-40.53 1024.91,-40.03 1027.66,-39.51"/>
<polygon fill="#63b8ff" stroke="#63b8ff" points="643.92,-85.36 634.3,-89.79 644.58,-92.33 643.92,-85.36"/>
</a>
</g>
</g>
<!-- Node10 -->
<g id="Node000010" class="node">
<title>Node10</title>
<g id="a_Node000010"><a xlink:href="pwm_8c.html" target="_top" xlink:title=" ">
<polygon fill="white" stroke="#666666" points="839,-41 686,-41 686,0 839,0 839,-41"/>
<text text-anchor="start" x="694" y="-29" font-family="Helvetica,sans-Serif" font-size="10.00">software/nixie_clock</text>
<text text-anchor="start" x="694" y="-18" font-family="Helvetica,sans-Serif" font-size="10.00">_esp32_project/components</text>
<text text-anchor="middle" x="762.5" y="-7" font-family="Helvetica,sans-Serif" font-size="10.00">/pwm/pwm.c</text>
</a>
</g>
</g>
<!-- Node7&#45;&gt;Node10 -->
<g id="edge11_Node000007_Node000010" class="edge">
<title>Node7&#45;&gt;Node10</title>
<g id="a_edge11_Node000007_Node000010"><a xlink:title=" ">
<path fill="none" stroke="#63b8ff" d="M620.26,-73.54C648.67,-63.15 681.89,-50.99 709.09,-41.04"/>
<polygon fill="#63b8ff" stroke="#63b8ff" points="619.01,-70.27 610.83,-76.99 621.42,-76.84 619.01,-70.27"/>
</a>
</g>
</g>
<!-- Node11 -->
<g id="Node000011" class="node">
<title>Node11</title>
<g id="a_Node000011"><a xlink:href="wifi_8c.html" target="_top" xlink:title=" ">
<polygon fill="white" stroke="#666666" points="1010,-41 857,-41 857,0 1010,0 1010,-41"/>
<text text-anchor="start" x="865" y="-29" font-family="Helvetica,sans-Serif" font-size="10.00">software/nixie_clock</text>
<text text-anchor="start" x="865" y="-18" font-family="Helvetica,sans-Serif" font-size="10.00">_esp32_project/components</text>
<text text-anchor="middle" x="933.5" y="-7" font-family="Helvetica,sans-Serif" font-size="10.00">/wifi/wifi.c</text>
</a>
</g>
</g>
<!-- Node7&#45;&gt;Node11 -->
<g id="edge13_Node000007_Node000011" class="edge">
<title>Node7&#45;&gt;Node11</title>
<g id="a_edge13_Node000007_Node000011"><a xlink:title=" ">
<path fill="none" stroke="#63b8ff" d="M644.09,-80.85C702.05,-70.17 779.98,-55.39 848.5,-41 851.17,-40.44 853.88,-39.86 856.62,-39.27"/>
<polygon fill="#63b8ff" stroke="#63b8ff" points="643.44,-77.41 634.24,-82.67 644.71,-84.3 643.44,-77.41"/>
</a>
</g>
</g>
</g>
</svg>
