<?xml version="1.0" encoding="UTF-8" standalone="no"?>
<!DOCTYPE svg PUBLIC "-//W3C//DTD SVG 1.1//EN"
 "http://www.w3.org/Graphics/SVG/1.1/DTD/svg11.dtd">
<!-- Generated by graphviz version 2.43.0 (0)
 -->
<!-- Title: software/nixie_clock_esp32_project/main/clock_task.h Pages: 1 -->
<svg width="840pt" height="137pt"
 viewBox="0.00 0.00 839.50 137.00" xmlns="http://www.w3.org/2000/svg" xmlns:xlink="http://www.w3.org/1999/xlink">
<g id="graph0" class="graph" transform="scale(1 1) rotate(0) translate(4 133)">
<title>software/nixie_clock_esp32_project/main/clock_task.h</title>
<!-- Node1 -->
<g id="Node000001" class="node">
<title>Node1</title>
<g id="a_Node000001"><a xlink:title=" ">
<polygon fill="#999999" stroke="#666666" points="491.5,-129 345.5,-129 345.5,-88 491.5,-88 491.5,-129"/>
<text text-anchor="start" x="353.5" y="-117" font-family="Helvetica,sans-Serif" font-size="10.00">software/nixie_clock</text>
<text text-anchor="start" x="353.5" y="-106" font-family="Helvetica,sans-Serif" font-size="10.00">_esp32_project/main/clock</text>
<text text-anchor="middle" x="418.5" y="-95" font-family="Helvetica,sans-Serif" font-size="10.00">_task.h</text>
</a>
</g>
</g>
<!-- Node2 -->
<g id="Node000002" class="node">
<title>Node2</title>
<g id="a_Node000002"><a xlink:href="config_8c.html" target="_top" xlink:title=" ">
<polygon fill="white" stroke="#666666" points="153,-46.5 0,-46.5 0,-5.5 153,-5.5 153,-46.5"/>
<text text-anchor="start" x="8" y="-34.5" font-family="Helvetica,sans-Serif" font-size="10.00">software/nixie_clock</text>
<text text-anchor="start" x="8" y="-23.5" font-family="Helvetica,sans-Serif" font-size="10.00">_esp32_project/components</text>
<text text-anchor="middle" x="76.5" y="-12.5" font-family="Helvetica,sans-Serif" font-size="10.00">/config/config.c</text>
</a>
</g>
</g>
<!-- Node1&#45;&gt;Node2 -->
<g id="edge1_Node000001_Node000002" class="edge">
<title>Node1&#45;&gt;Node2</title>
<g id="a_edge1_Node000001_Node000002"><a xlink:title=" ">
<path fill="none" stroke="#63b8ff" d="M335.44,-91.17C284.93,-80.85 219.25,-66.71 161.5,-52 154.94,-50.33 148.13,-48.5 141.34,-46.6"/>
<polygon fill="#63b8ff" stroke="#63b8ff" points="334.83,-94.62 345.33,-93.19 336.23,-87.76 334.83,-94.62"/>
</a>
</g>
</g>
<!-- Node3 -->
<g id="Node000003" class="node">
<title>Node3</title>
<g id="a_Node000003"><a xlink:href="ntp_8c.html" target="_top" xlink:title=" ">
<polygon fill="white" stroke="#666666" points="324,-46.5 171,-46.5 171,-5.5 324,-5.5 324,-46.5"/>
<text text-anchor="start" x="179" y="-34.5" font-family="Helvetica,sans-Serif" font-size="10.00">software/nixie_clock</text>
<text text-anchor="start" x="179" y="-23.5" font-family="Helvetica,sans-Serif" font-size="10.00">_esp32_project/components</text>
<text text-anchor="middle" x="247.5" y="-12.5" font-family="Helvetica,sans-Serif" font-size="10.00">/ntp/ntp.c</text>
</a>
</g>
</g>
<!-- Node1&#45;&gt;Node3 -->
<g id="edge2_Node000001_Node000003" class="edge">
<title>Node1&#45;&gt;Node3</title>
<g id="a_edge2_Node000001_Node000003"><a xlink:title=" ">
<path fill="none" stroke="#63b8ff" d="M367.36,-83.42C342.4,-71.67 312.76,-57.72 289.2,-46.63"/>
<polygon fill="#63b8ff" stroke="#63b8ff" points="366.13,-86.71 376.67,-87.81 369.11,-80.38 366.13,-86.71"/>
</a>
</g>
</g>
<!-- Node4 -->
<g id="Node000004" class="node">
<title>Node4</title>
<g id="a_Node000004"><a xlink:href="service__manager_8c.html" target="_top" xlink:title=" ">
<polygon fill="white" stroke="#666666" points="495,-52 342,-52 342,0 495,0 495,-52"/>
<text text-anchor="start" x="350" y="-40" font-family="Helvetica,sans-Serif" font-size="10.00">software/nixie_clock</text>
<text text-anchor="start" x="350" y="-29" font-family="Helvetica,sans-Serif" font-size="10.00">_esp32_project/components</text>
<text text-anchor="start" x="350" y="-18" font-family="Helvetica,sans-Serif" font-size="10.00">/service_manager/service</text>
<text text-anchor="middle" x="418.5" y="-7" font-family="Helvetica,sans-Serif" font-size="10.00">_manager.c</text>
</a>
</g>
</g>
<!-- Node1&#45;&gt;Node4 -->
<g id="edge3_Node000001_Node000004" class="edge">
<title>Node1&#45;&gt;Node4</title>
<g id="a_edge3_Node000001_Node000004"><a xlink:title=" ">
<path fill="none" stroke="#63b8ff" d="M418.5,-77.49C418.5,-69.15 418.5,-60.19 418.5,-52.16"/>
<polygon fill="#63b8ff" stroke="#63b8ff" points="415,-77.6 418.5,-87.6 422,-77.6 415,-77.6"/>
</a>
</g>
</g>
<!-- Node5 -->
<g id="Node000005" class="node">
<title>Node5</title>
<g id="a_Node000005"><a xlink:href="clock__task_8c.html" target="_top" xlink:title=" ">
<polygon fill="white" stroke="#666666" points="659.5,-46.5 513.5,-46.5 513.5,-5.5 659.5,-5.5 659.5,-46.5"/>
<text text-anchor="start" x="521.5" y="-34.5" font-family="Helvetica,sans-Serif" font-size="10.00">software/nixie_clock</text>
<text text-anchor="start" x="521.5" y="-23.5" font-family="Helvetica,sans-Serif" font-size="10.00">_esp32_project/main/clock</text>
<text text-anchor="middle" x="586.5" y="-12.5" font-family="Helvetica,sans-Serif" font-size="10.00">_task.c</text>
</a>
</g>
</g>
<!-- Node1&#45;&gt;Node5 -->
<g id="edge4_Node000001_Node000005" class="edge">
<title>Node1&#45;&gt;Node5</title>
<g id="a_edge4_Node000001_Node000005"><a xlink:title=" ">
<path fill="none" stroke="#63b8ff" d="M468.75,-83.42C493.27,-71.67 522.39,-57.72 545.54,-46.63"/>
<polygon fill="#63b8ff" stroke="#63b8ff" points="467.1,-80.33 459.6,-87.81 470.13,-86.64 467.1,-80.33"/>
</a>
</g>
</g>
<!-- Node6 -->
<g id="Node000006" class="node">
<title>Node6</title>
<g id="a_Node000006"><a xlink:href="main_8c.html" target="_top" xlink:title=" ">
<polygon fill="white" stroke="#666666" points="831.5,-41 677.5,-41 677.5,-11 831.5,-11 831.5,-41"/>
<text text-anchor="start" x="685.5" y="-29" font-family="Helvetica,sans-Serif" font-size="10.00">software/nixie_clock</text>
<text text-anchor="middle" x="754.5" y="-18" font-family="Helvetica,sans-Serif" font-size="10.00">_esp32_project/main/main.c</text>
</a>
</g>
</g>
<!-- Node1&#45;&gt;Node6 -->
<g id="edge5_Node000001_Node000006" class="edge">
<title>Node1&#45;&gt;Node6</title>
<g id="a_edge5_Node000001_Node000006"><a xlink:title=" ">
<path fill="none" stroke="#63b8ff" d="M501.43,-90.49C550.25,-80.13 613.1,-66.19 668.5,-52 681.45,-48.68 695.41,-44.77 708.23,-41.04"/>
<polygon fill="#63b8ff" stroke="#63b8ff" points="500.6,-87.09 491.54,-92.58 502.05,-93.94 500.6,-87.09"/>
</a>
</g>
</g>
</g>
</svg>
