<?xml version="1.0" encoding="UTF-8" standalone="no"?>
<!DOCTYPE svg PUBLIC "-//W3C//DTD SVG 1.1//EN"
 "http://www.w3.org/Graphics/SVG/1.1/DTD/svg11.dtd">
<!-- Generated by graphviz version 2.43.0 (0)
 -->
<!-- Title: software/nixie_clock_esp32_project/components/clock_task/clock_task.c Pages: 1 -->
<svg width="1053pt" height="225pt"
 viewBox="0.00 0.00 1052.50 225.00" xmlns="http://www.w3.org/2000/svg" xmlns:xlink="http://www.w3.org/1999/xlink">
<g id="graph0" class="graph" transform="scale(1 1) rotate(0) translate(4 221)">
<title>software/nixie_clock_esp32_project/components/clock_task/clock_task.c</title>
<!-- Node1 -->
<g id="Node000001" class="node">
<title>Node1</title>
<g id="a_Node000001"><a xlink:title=" ">
<polygon fill="#999999" stroke="#666666" points="506.5,-217 353.5,-217 353.5,-176 506.5,-176 506.5,-217"/>
<text text-anchor="start" x="361.5" y="-205" font-family="Helvetica,sans-Serif" font-size="10.00">software/nixie_clock</text>
<text text-anchor="start" x="361.5" y="-194" font-family="Helvetica,sans-Serif" font-size="10.00">_esp32_project/components</text>
<text text-anchor="middle" x="430" y="-183" font-family="Helvetica,sans-Serif" font-size="10.00">/clock_task/clock_task.c</text>
</a>
</g>
</g>
<!-- Node2 -->
<g id="Node000002" class="node">
<title>Node2</title>
<g id="a_Node000002"><a xlink:title=" ">
<polygon fill="#e0e0e0" stroke="#999999" points="92,-140 0,-140 0,-121 92,-121 92,-140"/>
<text text-anchor="middle" x="46" y="-128" font-family="Helvetica,sans-Serif" font-size="10.00">esp_task_wdt.h</text>
</a>
</g>
</g>
<!-- Node1&#45;&gt;Node2 -->
<g id="edge1_Node000001_Node000002" class="edge">
<title>Node1&#45;&gt;Node2</title>
<g id="a_edge1_Node000001_Node000002"><a xlink:title=" ">
<path fill="none" stroke="#63b8ff" d="M353.21,-182.7C279.15,-170.36 168.79,-151.96 102.46,-140.91"/>
<polygon fill="#63b8ff" stroke="#63b8ff" points="102.65,-137.39 92.21,-139.2 101.5,-144.3 102.65,-137.39"/>
</a>
</g>
</g>
<!-- Node3 -->
<g id="Node000003" class="node">
<title>Node3</title>
<g id="a_Node000003"><a xlink:title=" ">
<polygon fill="#e0e0e0" stroke="#999999" points="173.5,-140 110.5,-140 110.5,-121 173.5,-121 173.5,-140"/>
<text text-anchor="middle" x="142" y="-128" font-family="Helvetica,sans-Serif" font-size="10.00">esp_log.h</text>
</a>
</g>
</g>
<!-- Node1&#45;&gt;Node3 -->
<g id="edge2_Node000001_Node000003" class="edge">
<title>Node1&#45;&gt;Node3</title>
<g id="a_edge2_Node000001_Node000003"><a xlink:title=" ">
<path fill="none" stroke="#63b8ff" d="M353.2,-178.43C298.78,-166.34 227.86,-150.58 183.63,-140.75"/>
<polygon fill="#63b8ff" stroke="#63b8ff" points="184.32,-137.32 173.8,-138.57 182.8,-144.15 184.32,-137.32"/>
</a>
</g>
</g>
<!-- Node4 -->
<g id="Node000004" class="node">
<title>Node4</title>
<g id="a_Node000004"><a xlink:title=" ">
<polygon fill="#e0e0e0" stroke="#999999" points="325.5,-79.5 212.5,-79.5 212.5,-60.5 325.5,-60.5 325.5,-79.5"/>
<text text-anchor="middle" x="269" y="-67.5" font-family="Helvetica,sans-Serif" font-size="10.00">freertos/FreeRTOS.h</text>
</a>
</g>
</g>
<!-- Node1&#45;&gt;Node4 -->
<g id="edge3_Node000001_Node000004" class="edge">
<title>Node1&#45;&gt;Node4</title>
<g id="a_edge3_Node000001_Node000004"><a xlink:title=" ">
<path fill="none" stroke="#63b8ff" d="M403.08,-175.97C388.71,-165.45 370.78,-152.16 355,-140 331.5,-121.89 304.93,-100.42 287.63,-86.29"/>
<polygon fill="#63b8ff" stroke="#63b8ff" points="289.44,-83.26 279.49,-79.63 285.01,-88.67 289.44,-83.26"/>
</a>
</g>
</g>
<!-- Node5 -->
<g id="Node000005" class="node">
<title>Node5</title>
<g id="a_Node000005"><a xlink:title=" ">
<polygon fill="#e0e0e0" stroke="#999999" points="194,-79.5 106,-79.5 106,-60.5 194,-60.5 194,-79.5"/>
<text text-anchor="middle" x="150" y="-67.5" font-family="Helvetica,sans-Serif" font-size="10.00">freertos/task.h</text>
</a>
</g>
</g>
<!-- Node1&#45;&gt;Node5 -->
<g id="edge4_Node000001_Node000005" class="edge">
<title>Node1&#45;&gt;Node5</title>
<g id="a_edge4_Node000001_Node000005"><a xlink:title=" ">
<path fill="none" stroke="#63b8ff" d="M353.41,-184.85C312.21,-176.79 261.67,-163.03 221,-140 197.28,-126.56 175.69,-103.29 162.71,-87.52"/>
<polygon fill="#63b8ff" stroke="#63b8ff" points="165.39,-85.28 156.42,-79.65 159.92,-89.65 165.39,-85.28"/>
</a>
</g>
</g>
<!-- Node6 -->
<g id="Node000006" class="node">
<title>Node6</title>
<g id="a_Node000006"><a xlink:href="clock__task_8h.html" target="_top" xlink:title=" ">
<polygon fill="white" stroke="#666666" points="307.5,-140 230.5,-140 230.5,-121 307.5,-121 307.5,-140"/>
<text text-anchor="middle" x="269" y="-128" font-family="Helvetica,sans-Serif" font-size="10.00">clock_task.h</text>
</a>
</g>
</g>
<!-- Node1&#45;&gt;Node6 -->
<g id="edge5_Node000001_Node000006" class="edge">
<title>Node1&#45;&gt;Node6</title>
<g id="a_edge5_Node000001_Node000006"><a xlink:title=" ">
<path fill="none" stroke="#63b8ff" d="M380.82,-175.95C354.56,-165.51 323.03,-152.98 300.16,-143.88"/>
<polygon fill="#63b8ff" stroke="#63b8ff" points="301.2,-140.53 290.61,-140.09 298.61,-147.04 301.2,-140.53"/>
</a>
</g>
</g>
<!-- Node7 -->
<g id="Node000007" class="node">
<title>Node7</title>
<g id="a_Node000007"><a xlink:href="display_8h.html" target="_top" xlink:title=" ">
<polygon fill="white" stroke="#666666" points="1044.5,-140 937.5,-140 937.5,-121 1044.5,-121 1044.5,-140"/>
<text text-anchor="middle" x="991" y="-128" font-family="Helvetica,sans-Serif" font-size="10.00">../display/display.h</text>
</a>
</g>
</g>
<!-- Node1&#45;&gt;Node7 -->
<g id="edge8_Node000001_Node000007" class="edge">
<title>Node1&#45;&gt;Node7</title>
<g id="a_edge8_Node000001_Node000007"><a xlink:title=" ">
<path fill="none" stroke="#63b8ff" d="M506.54,-186.77C618.11,-174.04 823.4,-150.62 927.25,-138.77"/>
<polygon fill="#63b8ff" stroke="#63b8ff" points="927.74,-142.24 937.28,-137.63 926.95,-135.28 927.74,-142.24"/>
</a>
</g>
</g>
<!-- Node9 -->
<g id="Node000009" class="node">
<title>Node9</title>
<g id="a_Node000009"><a xlink:href="clock_8h.html" target="_top" xlink:title=" ">
<polygon fill="white" stroke="#666666" points="979.5,-79.5 890.5,-79.5 890.5,-60.5 979.5,-60.5 979.5,-79.5"/>
<text text-anchor="middle" x="935" y="-67.5" font-family="Helvetica,sans-Serif" font-size="10.00">../clock/clock.h</text>
</a>
</g>
</g>
<!-- Node1&#45;&gt;Node9 -->
<g id="edge10_Node000001_Node000009" class="edge">
<title>Node1&#45;&gt;Node9</title>
<g id="a_edge10_Node000001_Node000009"><a xlink:title=" ">
<path fill="none" stroke="#63b8ff" d="M506.66,-196.03C591,-194.16 729.16,-183.75 839,-140 870.13,-127.6 900.61,-102.95 918.6,-86.72"/>
<polygon fill="#63b8ff" stroke="#63b8ff" points="921.41,-88.88 926.37,-79.52 916.66,-83.74 921.41,-88.88"/>
</a>
</g>
</g>
<!-- Node10 -->
<g id="Node000010" class="node">
<title>Node10</title>
<g id="a_Node000010"><a xlink:href="gpio__task_8h.html" target="_top" xlink:title=" ">
<polygon fill="white" stroke="#666666" points="496,-140 364,-140 364,-121 496,-121 496,-140"/>
<text text-anchor="middle" x="430" y="-128" font-family="Helvetica,sans-Serif" font-size="10.00">../gpio_task/gpio_task.h</text>
</a>
</g>
</g>
<!-- Node1&#45;&gt;Node10 -->
<g id="edge12_Node000001_Node000010" class="edge">
<title>Node1&#45;&gt;Node10</title>
<g id="a_edge12_Node000001_Node000010"><a xlink:title=" ">
<path fill="none" stroke="#63b8ff" d="M430,-175.95C430,-167.85 430,-158.5 430,-150.47"/>
<polygon fill="#63b8ff" stroke="#63b8ff" points="433.5,-150.26 430,-140.26 426.5,-150.26 433.5,-150.26"/>
</a>
</g>
</g>
<!-- Node12 -->
<g id="Node000012" class="node">
<title>Node12</title>
<g id="a_Node000012"><a xlink:href="gpio__driver_8h.html" target="_top" xlink:title=" ">
<polygon fill="white" stroke="#666666" points="563,-85 459,-85 459,-55 563,-55 563,-85"/>
<text text-anchor="start" x="467" y="-73" font-family="Helvetica,sans-Serif" font-size="10.00">../gpio_driver/gpio</text>
<text text-anchor="middle" x="511" y="-62" font-family="Helvetica,sans-Serif" font-size="10.00">_driver.h</text>
</a>
</g>
</g>
<!-- Node1&#45;&gt;Node12 -->
<g id="edge19_Node000001_Node000012" class="edge">
<title>Node1&#45;&gt;Node12</title>
<g id="a_edge19_Node000001_Node000012"><a xlink:title=" ">
<path fill="none" stroke="#63b8ff" d="M468.83,-175.84C482.58,-166.85 496.69,-154.84 505,-140 512.51,-126.59 514.01,-109.37 513.64,-95.48"/>
<polygon fill="#63b8ff" stroke="#63b8ff" points="517.11,-94.97 513.02,-85.2 510.13,-95.4 517.11,-94.97"/>
</a>
</g>
</g>
<!-- Node15 -->
<g id="Node000015" class="node">
<title>Node15</title>
<g id="a_Node000015"><a xlink:href="rotary__encoder_8h.html" target="_top" xlink:title=" ">
<polygon fill="white" stroke="#666666" points="712.5,-85 581.5,-85 581.5,-55 712.5,-55 712.5,-85"/>
<text text-anchor="start" x="589.5" y="-73" font-family="Helvetica,sans-Serif" font-size="10.00">../rotary_encoder/rotary</text>
<text text-anchor="middle" x="647" y="-62" font-family="Helvetica,sans-Serif" font-size="10.00">_encoder.h</text>
</a>
</g>
</g>
<!-- Node1&#45;&gt;Node15 -->
<g id="edge20_Node000001_Node000015" class="edge">
<title>Node1&#45;&gt;Node15</title>
<g id="a_edge20_Node000001_Node000015"><a xlink:title=" ">
<path fill="none" stroke="#63b8ff" d="M464.38,-175.77C505.38,-152.25 573.42,-113.21 613.86,-90.01"/>
<polygon fill="#63b8ff" stroke="#63b8ff" points="615.61,-93.04 622.54,-85.03 612.13,-86.97 615.61,-93.04"/>
</a>
</g>
</g>
<!-- Node16 -->
<g id="Node000016" class="node">
<title>Node16</title>
<g id="a_Node000016"><a xlink:href="config_8h.html" target="_top" xlink:title=" ">
<polygon fill="white" stroke="#666666" points="830,-140 734,-140 734,-121 830,-121 830,-140"/>
<text text-anchor="middle" x="782" y="-128" font-family="Helvetica,sans-Serif" font-size="10.00">../config/config.h</text>
</a>
</g>
</g>
<!-- Node1&#45;&gt;Node16 -->
<g id="edge21_Node000001_Node000016" class="edge">
<title>Node1&#45;&gt;Node16</title>
<g id="a_edge21_Node000001_Node000016"><a xlink:title=" ">
<path fill="none" stroke="#63b8ff" d="M506.81,-181.53C572.59,-169.57 665.82,-152.62 725.1,-141.85"/>
<polygon fill="#63b8ff" stroke="#63b8ff" points="725.82,-145.27 735.04,-140.04 724.57,-138.38 725.82,-145.27"/>
</a>
</g>
</g>
<!-- Node6&#45;&gt;Node4 -->
<g id="edge6_Node000006_Node000004" class="edge">
<title>Node6&#45;&gt;Node4</title>
<g id="a_edge6_Node000006_Node000004"><a xlink:title=" ">
<path fill="none" stroke="#63b8ff" d="M269,-120.87C269,-112.75 269,-100.31 269,-89.89"/>
<polygon fill="#63b8ff" stroke="#63b8ff" points="272.5,-89.67 269,-79.67 265.5,-89.67 272.5,-89.67"/>
</a>
</g>
</g>
<!-- Node6&#45;&gt;Node5 -->
<g id="edge7_Node000006_Node000005" class="edge">
<title>Node6&#45;&gt;Node5</title>
<g id="a_edge7_Node000006_Node000005"><a xlink:title=" ">
<path fill="none" stroke="#63b8ff" d="M251.7,-120.99C231.95,-111.29 199.45,-95.31 176.51,-84.03"/>
<polygon fill="#63b8ff" stroke="#63b8ff" points="177.84,-80.79 167.32,-79.52 174.75,-87.07 177.84,-80.79"/>
</a>
</g>
</g>
<!-- Node8 -->
<g id="Node000008" class="node">
<title>Node8</title>
<g id="a_Node000008"><a xlink:title=" ">
<polygon fill="#e0e0e0" stroke="#999999" points="997.5,-19 944.5,-19 944.5,0 997.5,0 997.5,-19"/>
<text text-anchor="middle" x="971" y="-7" font-family="Helvetica,sans-Serif" font-size="10.00">stdint.h</text>
</a>
</g>
</g>
<!-- Node7&#45;&gt;Node8 -->
<g id="edge9_Node000007_Node000008" class="edge">
<title>Node7&#45;&gt;Node8</title>
<g id="a_edge9_Node000007_Node000008"><a xlink:title=" ">
<path fill="none" stroke="#63b8ff" d="M991.77,-120.67C992.77,-106.6 993.86,-78.31 989,-55 987.09,-45.82 983.38,-36.12 979.82,-28.12"/>
<polygon fill="#63b8ff" stroke="#63b8ff" points="982.98,-26.62 975.55,-19.07 976.66,-29.61 982.98,-26.62"/>
</a>
</g>
</g>
<!-- Node9&#45;&gt;Node8 -->
<g id="edge11_Node000009_Node000008" class="edge">
<title>Node9&#45;&gt;Node8</title>
<g id="a_edge11_Node000009_Node000008"><a xlink:title=" ">
<path fill="none" stroke="#63b8ff" d="M940.31,-60.37C945.58,-51.81 953.79,-38.47 960.39,-27.74"/>
<polygon fill="#63b8ff" stroke="#63b8ff" points="963.41,-29.52 965.67,-19.17 957.44,-25.85 963.41,-29.52"/>
</a>
</g>
</g>
<!-- Node10&#45;&gt;Node4 -->
<g id="edge13_Node000010_Node000004" class="edge">
<title>Node10&#45;&gt;Node4</title>
<g id="a_edge13_Node000010_Node000004"><a xlink:title=" ">
<path fill="none" stroke="#63b8ff" d="M406.59,-120.99C379.05,-110.99 333.13,-94.3 301.99,-82.99"/>
<polygon fill="#63b8ff" stroke="#63b8ff" points="303.03,-79.64 292.44,-79.52 300.64,-86.22 303.03,-79.64"/>
</a>
</g>
</g>
<!-- Node11 -->
<g id="Node000011" class="node">
<title>Node11</title>
<g id="a_Node000011"><a xlink:title=" ">
<polygon fill="#e0e0e0" stroke="#999999" points="440.5,-79.5 343.5,-79.5 343.5,-60.5 440.5,-60.5 440.5,-79.5"/>
<text text-anchor="middle" x="392" y="-67.5" font-family="Helvetica,sans-Serif" font-size="10.00">freertos/queue.h</text>
</a>
</g>
</g>
<!-- Node10&#45;&gt;Node11 -->
<g id="edge14_Node000010_Node000011" class="edge">
<title>Node10&#45;&gt;Node11</title>
<g id="a_edge14_Node000010_Node000011"><a xlink:title=" ">
<path fill="none" stroke="#63b8ff" d="M424.39,-120.87C418.84,-112.31 410.17,-98.97 403.2,-88.24"/>
<polygon fill="#63b8ff" stroke="#63b8ff" points="406.01,-86.15 397.63,-79.67 400.14,-89.96 406.01,-86.15"/>
</a>
</g>
</g>
<!-- Node10&#45;&gt;Node12 -->
<g id="edge15_Node000010_Node000012" class="edge">
<title>Node10&#45;&gt;Node12</title>
<g id="a_edge15_Node000010_Node000012"><a xlink:title=" ">
<path fill="none" stroke="#63b8ff" d="M441.95,-120.87C452.74,-113.08 469.02,-101.32 483.07,-91.17"/>
<polygon fill="#63b8ff" stroke="#63b8ff" points="485.4,-93.81 491.46,-85.11 481.3,-88.13 485.4,-93.81"/>
</a>
</g>
</g>
<!-- Node10&#45;&gt;Node15 -->
<g id="edge18_Node000010_Node000015" class="edge">
<title>Node10&#45;&gt;Node15</title>
<g id="a_edge18_Node000010_Node000015"><a xlink:title=" ">
<path fill="none" stroke="#63b8ff" d="M461.55,-120.99C493.81,-112.3 544.75,-98.57 585.08,-87.69"/>
<polygon fill="#63b8ff" stroke="#63b8ff" points="586.09,-91.05 594.83,-85.06 584.26,-84.29 586.09,-91.05"/>
</a>
</g>
</g>
<!-- Node13 -->
<g id="Node000013" class="node">
<title>Node13</title>
<g id="a_Node000013"><a xlink:title=" ">
<polygon fill="#e0e0e0" stroke="#999999" points="550,-19 472,-19 472,0 550,0 550,-19"/>
<text text-anchor="middle" x="511" y="-7" font-family="Helvetica,sans-Serif" font-size="10.00">driver/gpio.h</text>
</a>
</g>
</g>
<!-- Node12&#45;&gt;Node13 -->
<g id="edge16_Node000012_Node000013" class="edge">
<title>Node12&#45;&gt;Node13</title>
<g id="a_edge16_Node000012_Node000013"><a xlink:title=" ">
<path fill="none" stroke="#63b8ff" d="M511,-54.84C511,-47.21 511,-37.7 511,-29.45"/>
<polygon fill="#63b8ff" stroke="#63b8ff" points="514.5,-29.27 511,-19.27 507.5,-29.27 514.5,-29.27"/>
</a>
</g>
</g>
<!-- Node14 -->
<g id="Node000014" class="node">
<title>Node14</title>
<g id="a_Node000014"><a xlink:title=" ">
<polygon fill="#e0e0e0" stroke="#999999" points="796.5,-19 735.5,-19 735.5,0 796.5,0 796.5,-19"/>
<text text-anchor="middle" x="766" y="-7" font-family="Helvetica,sans-Serif" font-size="10.00">esp_err.h</text>
</a>
</g>
</g>
<!-- Node12&#45;&gt;Node14 -->
<g id="edge17_Node000012_Node000014" class="edge">
<title>Node12&#45;&gt;Node14</title>
<g id="a_edge17_Node000012_Node000014"><a xlink:title=" ">
<path fill="none" stroke="#63b8ff" d="M563.22,-57.02C611.34,-45.98 681.76,-29.83 725.68,-19.75"/>
<polygon fill="#63b8ff" stroke="#63b8ff" points="726.48,-23.16 735.44,-17.51 724.91,-16.33 726.48,-23.16"/>
</a>
</g>
</g>
<!-- Node16&#45;&gt;Node4 -->
<g id="edge24_Node000016_Node000004" class="edge">
<title>Node16&#45;&gt;Node4</title>
<g id="a_edge24_Node000016_Node000004"><a xlink:title=" ">
<path fill="none" stroke="#63b8ff" d="M733.71,-126.5C651.35,-120.99 478.59,-107.68 334,-85 327.79,-84.03 321.28,-82.83 314.88,-81.56"/>
<polygon fill="#63b8ff" stroke="#63b8ff" points="315.47,-78.11 304.96,-79.51 314.05,-84.96 315.47,-78.11"/>
</a>
</g>
</g>
<!-- Node16&#45;&gt;Node9 -->
<g id="edge23_Node000016_Node000009" class="edge">
<title>Node16&#45;&gt;Node9</title>
<g id="a_edge23_Node000016_Node000009"><a xlink:title=" ">
<path fill="none" stroke="#63b8ff" d="M804.25,-120.99C830.31,-111.03 873.68,-94.45 903.27,-83.13"/>
<polygon fill="#63b8ff" stroke="#63b8ff" points="904.64,-86.36 912.73,-79.52 902.14,-79.82 904.64,-86.36"/>
</a>
</g>
</g>
<!-- Node16&#45;&gt;Node14 -->
<g id="edge22_Node000016_Node000014" class="edge">
<title>Node16&#45;&gt;Node14</title>
<g id="a_edge22_Node000016_Node000014"><a xlink:title=" ">
<path fill="none" stroke="#63b8ff" d="M802.2,-120.91C816.47,-113.64 834.51,-101.71 843,-85 849.04,-73.11 849.66,-66.55 843,-55 834.58,-40.41 819.35,-30.17 804.65,-23.23"/>
<polygon fill="#63b8ff" stroke="#63b8ff" points="805.71,-19.87 795.14,-19.13 802.93,-26.3 805.71,-19.87"/>
</a>
</g>
</g>
<!-- Node17 -->
<g id="Node000017" class="node">
<title>Node17</title>
<g id="a_Node000017"><a xlink:title=" ">
<polygon fill="#e0e0e0" stroke="#999999" points="833.5,-79.5 730.5,-79.5 730.5,-60.5 833.5,-60.5 833.5,-79.5"/>
<text text-anchor="middle" x="782" y="-67.5" font-family="Helvetica,sans-Serif" font-size="10.00">freertos/semphr.h</text>
</a>
</g>
</g>
<!-- Node16&#45;&gt;Node17 -->
<g id="edge25_Node000016_Node000017" class="edge">
<title>Node16&#45;&gt;Node17</title>
<g id="a_edge25_Node000016_Node000017"><a xlink:title=" ">
<path fill="none" stroke="#63b8ff" d="M782,-120.87C782,-112.75 782,-100.31 782,-89.89"/>
<polygon fill="#63b8ff" stroke="#63b8ff" points="785.5,-89.67 782,-79.67 778.5,-89.67 785.5,-89.67"/>
</a>
</g>
</g>
</g>
</svg>
