<?xml version="1.0" encoding="UTF-8" standalone="no"?>
<!DOCTYPE svg PUBLIC "-//W3C//DTD SVG 1.1//EN"
 "http://www.w3.org/Graphics/SVG/1.1/DTD/svg11.dtd">
<!-- Generated by graphviz version 2.43.0 (0)
 -->
<!-- Title: software/nixie_clock_esp32_project/components/clock_task/clock_task.h Pages: 1 -->
<svg width="676pt" height="126pt"
 viewBox="0.00 0.00 675.50 126.00" xmlns="http://www.w3.org/2000/svg" xmlns:xlink="http://www.w3.org/1999/xlink">
<g id="graph0" class="graph" transform="scale(1 1) rotate(0) translate(4 122)">
<title>software/nixie_clock_esp32_project/components/clock_task/clock_task.h</title>
<!-- Node1 -->
<g id="Node000001" class="node">
<title>Node1</title>
<g id="a_Node000001"><a xlink:title=" ">
<polygon fill="#999999" stroke="#666666" points="409,-118 256,-118 256,-77 409,-77 409,-118"/>
<text text-anchor="start" x="264" y="-106" font-family="Helvetica,sans-Serif" font-size="10.00">software/nixie_clock</text>
<text text-anchor="start" x="264" y="-95" font-family="Helvetica,sans-Serif" font-size="10.00">_esp32_project/components</text>
<text text-anchor="middle" x="332.5" y="-84" font-family="Helvetica,sans-Serif" font-size="10.00">/clock_task/clock_task.h</text>
</a>
</g>
</g>
<!-- Node2 -->
<g id="Node000002" class="node">
<title>Node2</title>
<g id="a_Node000002"><a xlink:href="clock__task_8c.html" target="_top" xlink:title=" ">
<polygon fill="white" stroke="#666666" points="153,-41 0,-41 0,0 153,0 153,-41"/>
<text text-anchor="start" x="8" y="-29" font-family="Helvetica,sans-Serif" font-size="10.00">software/nixie_clock</text>
<text text-anchor="start" x="8" y="-18" font-family="Helvetica,sans-Serif" font-size="10.00">_esp32_project/components</text>
<text text-anchor="middle" x="76.5" y="-7" font-family="Helvetica,sans-Serif" font-size="10.00">/clock_task/clock_task.c</text>
</a>
</g>
</g>
<!-- Node1&#45;&gt;Node2 -->
<g id="edge1_Node000001_Node000002" class="edge">
<title>Node1&#45;&gt;Node2</title>
<g id="a_edge1_Node000001_Node000002"><a xlink:title=" ">
<path fill="none" stroke="#63b8ff" d="M255.97,-74.08C220.1,-63.57 177.75,-51.16 143.2,-41.04"/>
<polygon fill="#63b8ff" stroke="#63b8ff" points="255.33,-77.54 265.91,-76.99 257.29,-70.82 255.33,-77.54"/>
</a>
</g>
</g>
<!-- Node3 -->
<g id="Node000003" class="node">
<title>Node3</title>
<g id="a_Node000003"><a xlink:href="config_8c.html" target="_top" xlink:title=" ">
<polygon fill="white" stroke="#666666" points="324,-41 171,-41 171,0 324,0 324,-41"/>
<text text-anchor="start" x="179" y="-29" font-family="Helvetica,sans-Serif" font-size="10.00">software/nixie_clock</text>
<text text-anchor="start" x="179" y="-18" font-family="Helvetica,sans-Serif" font-size="10.00">_esp32_project/components</text>
<text text-anchor="middle" x="247.5" y="-7" font-family="Helvetica,sans-Serif" font-size="10.00">/config/config.c</text>
</a>
</g>
</g>
<!-- Node1&#45;&gt;Node3 -->
<g id="edge2_Node000001_Node000003" class="edge">
<title>Node1&#45;&gt;Node3</title>
<g id="a_edge2_Node000001_Node000003"><a xlink:title=" ">
<path fill="none" stroke="#63b8ff" d="M302.55,-70.07C291.73,-60.52 279.72,-49.93 269.68,-41.07"/>
<polygon fill="#63b8ff" stroke="#63b8ff" points="300.35,-72.8 310.17,-76.79 304.98,-67.55 300.35,-72.8"/>
</a>
</g>
</g>
<!-- Node4 -->
<g id="Node000004" class="node">
<title>Node4</title>
<g id="a_Node000004"><a xlink:href="ntp_8c.html" target="_top" xlink:title=" ">
<polygon fill="white" stroke="#666666" points="495,-41 342,-41 342,0 495,0 495,-41"/>
<text text-anchor="start" x="350" y="-29" font-family="Helvetica,sans-Serif" font-size="10.00">software/nixie_clock</text>
<text text-anchor="start" x="350" y="-18" font-family="Helvetica,sans-Serif" font-size="10.00">_esp32_project/components</text>
<text text-anchor="middle" x="418.5" y="-7" font-family="Helvetica,sans-Serif" font-size="10.00">/ntp/ntp.c</text>
</a>
</g>
</g>
<!-- Node1&#45;&gt;Node4 -->
<g id="edge3_Node000001_Node000004" class="edge">
<title>Node1&#45;&gt;Node4</title>
<g id="a_edge3_Node000001_Node000004"><a xlink:title=" ">
<path fill="none" stroke="#63b8ff" d="M362.81,-70.07C373.75,-60.52 385.9,-49.93 396.06,-41.07"/>
<polygon fill="#63b8ff" stroke="#63b8ff" points="360.33,-67.58 355.1,-76.79 364.93,-72.86 360.33,-67.58"/>
</a>
</g>
</g>
<!-- Node5 -->
<g id="Node000005" class="node">
<title>Node5</title>
<g id="a_Node000005"><a xlink:href="main_8c.html" target="_top" xlink:title=" ">
<polygon fill="white" stroke="#666666" points="667.5,-35.5 513.5,-35.5 513.5,-5.5 667.5,-5.5 667.5,-35.5"/>
<text text-anchor="start" x="521.5" y="-23.5" font-family="Helvetica,sans-Serif" font-size="10.00">software/nixie_clock</text>
<text text-anchor="middle" x="590.5" y="-12.5" font-family="Helvetica,sans-Serif" font-size="10.00">_esp32_project/main/main.c</text>
</a>
</g>
</g>
<!-- Node1&#45;&gt;Node5 -->
<g id="edge4_Node000001_Node000005" class="edge">
<title>Node1&#45;&gt;Node5</title>
<g id="a_edge4_Node000001_Node000005"><a xlink:title=" ">
<path fill="none" stroke="#63b8ff" d="M409.48,-74.12C452.49,-61.62 504.76,-46.42 542.06,-35.58"/>
<polygon fill="#63b8ff" stroke="#63b8ff" points="408.24,-70.84 399.61,-76.99 410.19,-77.56 408.24,-70.84"/>
</a>
</g>
</g>
</g>
</svg>
