<?xml version="1.0" encoding="UTF-8" standalone="no"?>
<!DOCTYPE svg PUBLIC "-//W3C//DTD SVG 1.1//EN"
 "http://www.w3.org/Graphics/SVG/1.1/DTD/svg11.dtd">
<!-- Generated by graphviz version 2.43.0 (0)
 -->
<!-- Title: software/nixie_clock_esp32_project/components/config/config.h Pages: 1 -->
<svg width="1182pt" height="126pt"
 viewBox="0.00 0.00 1181.50 126.00" xmlns="http://www.w3.org/2000/svg" xmlns:xlink="http://www.w3.org/1999/xlink">
<g id="graph0" class="graph" transform="scale(1 1) rotate(0) translate(4 122)">
<title>software/nixie_clock_esp32_project/components/config/config.h</title>
<!-- Node1 -->
<g id="Node000001" class="node">
<title>Node1</title>
<g id="a_Node000001"><a xlink:title=" ">
<polygon fill="#999999" stroke="#666666" points="666,-118 513,-118 513,-77 666,-77 666,-118"/>
<text text-anchor="start" x="521" y="-106" font-family="Helvetica,sans-Serif" font-size="10.00">software/nixie_clock</text>
<text text-anchor="start" x="521" y="-95" font-family="Helvetica,sans-Serif" font-size="10.00">_esp32_project/components</text>
<text text-anchor="middle" x="589.5" y="-84" font-family="Helvetica,sans-Serif" font-size="10.00">/config/config.h</text>
</a>
</g>
</g>
<!-- Node2 -->
<g id="Node000002" class="node">
<title>Node2</title>
<g id="a_Node000002"><a xlink:href="config_8c.html" target="_top" xlink:title=" ">
<polygon fill="white" stroke="#666666" points="153,-41 0,-41 0,0 153,0 153,-41"/>
<text text-anchor="start" x="8" y="-29" font-family="Helvetica,sans-Serif" font-size="10.00">software/nixie_clock</text>
<text text-anchor="start" x="8" y="-18" font-family="Helvetica,sans-Serif" font-size="10.00">_esp32_project/components</text>
<text text-anchor="middle" x="76.5" y="-7" font-family="Helvetica,sans-Serif" font-size="10.00">/config/config.c</text>
</a>
</g>
</g>
<!-- Node1&#45;&gt;Node2 -->
<g id="edge1_Node000001_Node000002" class="edge">
<title>Node1&#45;&gt;Node2</title>
<g id="a_edge1_Node000001_Node000002"><a xlink:title=" ">
<path fill="none" stroke="#63b8ff" d="M502.55,-87.72C415.81,-78.37 278.91,-62.03 161.5,-41 158.82,-40.52 156.09,-40.01 153.34,-39.48"/>
<polygon fill="#63b8ff" stroke="#63b8ff" points="502.3,-91.21 512.62,-88.79 503.05,-84.25 502.3,-91.21"/>
</a>
</g>
</g>
<!-- Node3 -->
<g id="Node000003" class="node">
<title>Node3</title>
<g id="a_Node000003"><a xlink:href="ntp_8c.html" target="_top" xlink:title=" ">
<polygon fill="white" stroke="#666666" points="324,-41 171,-41 171,0 324,0 324,-41"/>
<text text-anchor="start" x="179" y="-29" font-family="Helvetica,sans-Serif" font-size="10.00">software/nixie_clock</text>
<text text-anchor="start" x="179" y="-18" font-family="Helvetica,sans-Serif" font-size="10.00">_esp32_project/components</text>
<text text-anchor="middle" x="247.5" y="-7" font-family="Helvetica,sans-Serif" font-size="10.00">/ntp/ntp.c</text>
</a>
</g>
</g>
<!-- Node1&#45;&gt;Node3 -->
<g id="edge2_Node000001_Node000003" class="edge">
<title>Node1&#45;&gt;Node3</title>
<g id="a_edge2_Node000001_Node000003"><a xlink:title=" ">
<path fill="none" stroke="#63b8ff" d="M503.19,-78.15C453.28,-67.47 389.31,-53.65 332.5,-41 329.84,-40.41 327.13,-39.8 324.4,-39.19"/>
<polygon fill="#63b8ff" stroke="#63b8ff" points="502.46,-81.57 512.97,-80.24 503.93,-74.73 502.46,-81.57"/>
</a>
</g>
</g>
<!-- Node4 -->
<g id="Node000004" class="node">
<title>Node4</title>
<g id="a_Node000004"><a xlink:href="pwm_8c.html" target="_top" xlink:title=" ">
<polygon fill="white" stroke="#666666" points="495,-41 342,-41 342,0 495,0 495,-41"/>
<text text-anchor="start" x="350" y="-29" font-family="Helvetica,sans-Serif" font-size="10.00">software/nixie_clock</text>
<text text-anchor="start" x="350" y="-18" font-family="Helvetica,sans-Serif" font-size="10.00">_esp32_project/components</text>
<text text-anchor="middle" x="418.5" y="-7" font-family="Helvetica,sans-Serif" font-size="10.00">/pwm/pwm.c</text>
</a>
</g>
</g>
<!-- Node1&#45;&gt;Node4 -->
<g id="edge3_Node000001_Node000004" class="edge">
<title>Node1&#45;&gt;Node4</title>
<g id="a_edge3_Node000001_Node000004"><a xlink:title=" ">
<path fill="none" stroke="#63b8ff" d="M535.6,-72.86C512.25,-62.62 485.25,-50.77 463.06,-41.04"/>
<polygon fill="#63b8ff" stroke="#63b8ff" points="534.45,-76.18 545.02,-76.99 537.27,-69.77 534.45,-76.18"/>
</a>
</g>
</g>
<!-- Node5 -->
<g id="Node000005" class="node">
<title>Node5</title>
<g id="a_Node000005"><a xlink:href="webserver_8c.html" target="_top" xlink:title=" ">
<polygon fill="white" stroke="#666666" points="666,-41 513,-41 513,0 666,0 666,-41"/>
<text text-anchor="start" x="521" y="-29" font-family="Helvetica,sans-Serif" font-size="10.00">software/nixie_clock</text>
<text text-anchor="start" x="521" y="-18" font-family="Helvetica,sans-Serif" font-size="10.00">_esp32_project/components</text>
<text text-anchor="middle" x="589.5" y="-7" font-family="Helvetica,sans-Serif" font-size="10.00">/webserver/webserver.c</text>
</a>
</g>
</g>
<!-- Node1&#45;&gt;Node5 -->
<g id="edge4_Node000001_Node000005" class="edge">
<title>Node1&#45;&gt;Node5</title>
<g id="a_edge4_Node000001_Node000005"><a xlink:title=" ">
<path fill="none" stroke="#63b8ff" d="M589.5,-66.69C589.5,-58.08 589.5,-48.9 589.5,-41.07"/>
<polygon fill="#63b8ff" stroke="#63b8ff" points="586,-66.79 589.5,-76.79 593,-66.79 586,-66.79"/>
</a>
</g>
</g>
<!-- Node6 -->
<g id="Node000006" class="node">
<title>Node6</title>
<g id="a_Node000006"><a xlink:href="wifi_8c.html" target="_top" xlink:title=" ">
<polygon fill="white" stroke="#666666" points="837,-41 684,-41 684,0 837,0 837,-41"/>
<text text-anchor="start" x="692" y="-29" font-family="Helvetica,sans-Serif" font-size="10.00">software/nixie_clock</text>
<text text-anchor="start" x="692" y="-18" font-family="Helvetica,sans-Serif" font-size="10.00">_esp32_project/components</text>
<text text-anchor="middle" x="760.5" y="-7" font-family="Helvetica,sans-Serif" font-size="10.00">/wifi/wifi.c</text>
</a>
</g>
</g>
<!-- Node1&#45;&gt;Node6 -->
<g id="edge5_Node000001_Node000006" class="edge">
<title>Node1&#45;&gt;Node6</title>
<g id="a_edge5_Node000001_Node000006"><a xlink:title=" ">
<path fill="none" stroke="#63b8ff" d="M643.4,-72.86C666.75,-62.62 693.75,-50.77 715.94,-41.04"/>
<polygon fill="#63b8ff" stroke="#63b8ff" points="641.73,-69.77 633.98,-76.99 644.55,-76.18 641.73,-69.77"/>
</a>
</g>
</g>
<!-- Node7 -->
<g id="Node000007" class="node">
<title>Node7</title>
<g id="a_Node000007"><a xlink:href="clock__task_8c.html" target="_top" xlink:title=" ">
<polygon fill="white" stroke="#666666" points="1001.5,-41 855.5,-41 855.5,0 1001.5,0 1001.5,-41"/>
<text text-anchor="start" x="863.5" y="-29" font-family="Helvetica,sans-Serif" font-size="10.00">software/nixie_clock</text>
<text text-anchor="start" x="863.5" y="-18" font-family="Helvetica,sans-Serif" font-size="10.00">_esp32_project/main/clock</text>
<text text-anchor="middle" x="928.5" y="-7" font-family="Helvetica,sans-Serif" font-size="10.00">_task.c</text>
</a>
</g>
</g>
<!-- Node1&#45;&gt;Node7 -->
<g id="edge6_Node000001_Node000007" class="edge">
<title>Node1&#45;&gt;Node7</title>
<g id="a_edge6_Node000001_Node000007"><a xlink:title=" ">
<path fill="none" stroke="#63b8ff" d="M675.85,-78.32C725.77,-67.69 789.74,-53.88 846.5,-41 849.35,-40.35 852.26,-39.69 855.2,-39.01"/>
<polygon fill="#63b8ff" stroke="#63b8ff" points="675.11,-74.9 666.06,-80.4 676.57,-81.75 675.11,-74.9"/>
</a>
</g>
</g>
<!-- Node8 -->
<g id="Node000008" class="node">
<title>Node8</title>
<g id="a_Node000008"><a xlink:href="main_8c.html" target="_top" xlink:title=" ">
<polygon fill="white" stroke="#666666" points="1173.5,-35.5 1019.5,-35.5 1019.5,-5.5 1173.5,-5.5 1173.5,-35.5"/>
<text text-anchor="start" x="1027.5" y="-23.5" font-family="Helvetica,sans-Serif" font-size="10.00">software/nixie_clock</text>
<text text-anchor="middle" x="1096.5" y="-12.5" font-family="Helvetica,sans-Serif" font-size="10.00">_esp32_project/main/main.c</text>
</a>
</g>
</g>
<!-- Node1&#45;&gt;Node8 -->
<g id="edge7_Node000001_Node000008" class="edge">
<title>Node1&#45;&gt;Node8</title>
<g id="a_edge7_Node000001_Node000008"><a xlink:title=" ">
<path fill="none" stroke="#63b8ff" d="M676.43,-87.4C761.81,-77.91 895.61,-61.55 1010.5,-41 1019.39,-39.41 1028.75,-37.52 1037.89,-35.54"/>
<polygon fill="#63b8ff" stroke="#63b8ff" points="675.82,-83.95 666.26,-88.53 676.59,-90.91 675.82,-83.95"/>
</a>
</g>
</g>
</g>
</svg>
