<?xml version="1.0" encoding="UTF-8" standalone="no"?>
<!DOCTYPE svg PUBLIC "-//W3C//DTD SVG 1.1//EN"
 "http://www.w3.org/Graphics/SVG/1.1/DTD/svg11.dtd">
<!-- Generated by graphviz version 2.43.0 (0)
 -->
<!-- Title: software/nixie_clock_esp32_project/components/config/config.c Pages: 1 -->
<svg width="543pt" height="225pt"
 viewBox="0.00 0.00 543.00 225.00" xmlns="http://www.w3.org/2000/svg" xmlns:xlink="http://www.w3.org/1999/xlink">
<g id="graph0" class="graph" transform="scale(1 1) rotate(0) translate(4 221)">
<title>software/nixie_clock_esp32_project/components/config/config.c</title>
<!-- Node1 -->
<g id="Node000001" class="node">
<title>Node1</title>
<g id="a_Node000001"><a xlink:title=" ">
<polygon fill="#999999" stroke="#666666" points="277,-217 124,-217 124,-176 277,-176 277,-217"/>
<text text-anchor="start" x="132" y="-205" font-family="Helvetica,sans-Serif" font-size="10.00">software/nixie_clock</text>
<text text-anchor="start" x="132" y="-194" font-family="Helvetica,sans-Serif" font-size="10.00">_esp32_project/components</text>
<text text-anchor="middle" x="200.5" y="-183" font-family="Helvetica,sans-Serif" font-size="10.00">/config/config.c</text>
</a>
</g>
</g>
<!-- Node2 -->
<g id="Node000002" class="node">
<title>Node2</title>
<g id="a_Node000002"><a xlink:title=" ">
<polygon fill="#e0e0e0" stroke="#999999" points="61,-74 0,-74 0,-55 61,-55 61,-74"/>
<text text-anchor="middle" x="30.5" y="-62" font-family="Helvetica,sans-Serif" font-size="10.00">esp_err.h</text>
</a>
</g>
</g>
<!-- Node1&#45;&gt;Node2 -->
<g id="edge1_Node000001_Node000002" class="edge">
<title>Node1&#45;&gt;Node2</title>
<g id="a_edge1_Node000001_Node000002"><a xlink:title=" ">
<path fill="none" stroke="#63b8ff" d="M123.87,-179.96C99.32,-171.67 73.78,-159.06 55.5,-140 40.92,-124.8 34.83,-100.84 32.3,-84.21"/>
<polygon fill="#63b8ff" stroke="#63b8ff" points="35.75,-83.57 31.05,-74.07 28.8,-84.42 35.75,-83.57"/>
</a>
</g>
</g>
<!-- Node3 -->
<g id="Node000003" class="node">
<title>Node3</title>
<g id="a_Node000003"><a xlink:title=" ">
<polygon fill="#e0e0e0" stroke="#999999" points="128,-134.5 65,-134.5 65,-115.5 128,-115.5 128,-134.5"/>
<text text-anchor="middle" x="96.5" y="-122.5" font-family="Helvetica,sans-Serif" font-size="10.00">esp_log.h</text>
</a>
</g>
</g>
<!-- Node1&#45;&gt;Node3 -->
<g id="edge2_Node000001_Node000003" class="edge">
<title>Node1&#45;&gt;Node3</title>
<g id="a_edge2_Node000001_Node000003"><a xlink:title=" ">
<path fill="none" stroke="#63b8ff" d="M171.25,-175.96C154.18,-164.54 133.02,-150.41 117.58,-140.09"/>
<polygon fill="#63b8ff" stroke="#63b8ff" points="119.48,-137.15 109.22,-134.5 115.59,-142.97 119.48,-137.15"/>
</a>
</g>
</g>
<!-- Node4 -->
<g id="Node000004" class="node">
<title>Node4</title>
<g id="a_Node000004"><a xlink:href="config_8h.html" target="_top" xlink:title=" ">
<polygon fill="white" stroke="#666666" points="262,-134.5 207,-134.5 207,-115.5 262,-115.5 262,-134.5"/>
<text text-anchor="middle" x="234.5" y="-122.5" font-family="Helvetica,sans-Serif" font-size="10.00">config.h</text>
</a>
</g>
</g>
<!-- Node1&#45;&gt;Node4 -->
<g id="edge3_Node000001_Node000004" class="edge">
<title>Node1&#45;&gt;Node4</title>
<g id="a_edge3_Node000001_Node000004"><a xlink:title=" ">
<path fill="none" stroke="#63b8ff" d="M210.15,-175.77C215.05,-165.76 220.95,-153.7 225.72,-143.95"/>
<polygon fill="#63b8ff" stroke="#63b8ff" points="228.93,-145.34 230.19,-134.82 222.65,-142.26 228.93,-145.34"/>
</a>
</g>
</g>
<!-- Node9 -->
<g id="Node000009" class="node">
<title>Node9</title>
<g id="a_Node000009"><a xlink:href="nvs_8h.html" target="_top" xlink:title=" ">
<polygon fill="white" stroke="#666666" points="189,-134.5 146,-134.5 146,-115.5 189,-115.5 189,-134.5"/>
<text text-anchor="middle" x="167.5" y="-122.5" font-family="Helvetica,sans-Serif" font-size="10.00">nvs.h</text>
</a>
</g>
</g>
<!-- Node1&#45;&gt;Node9 -->
<g id="edge9_Node000001_Node000009" class="edge">
<title>Node1&#45;&gt;Node9</title>
<g id="a_edge9_Node000001_Node000009"><a xlink:title=" ">
<path fill="none" stroke="#63b8ff" d="M191.13,-175.77C186.38,-165.76 180.65,-153.7 176.02,-143.95"/>
<polygon fill="#63b8ff" stroke="#63b8ff" points="179.14,-142.35 171.69,-134.82 172.82,-145.35 179.14,-142.35"/>
</a>
</g>
</g>
<!-- Node10 -->
<g id="Node000010" class="node">
<title>Node10</title>
<g id="a_Node000010"><a xlink:href="event__bus_8h.html" target="_top" xlink:title=" ">
<polygon fill="white" stroke="#666666" points="402,-140 295,-140 295,-110 402,-110 402,-140"/>
<text text-anchor="start" x="303" y="-128" font-family="Helvetica,sans-Serif" font-size="10.00">../event_bus/event</text>
<text text-anchor="middle" x="348.5" y="-117" font-family="Helvetica,sans-Serif" font-size="10.00">_bus.h</text>
</a>
</g>
</g>
<!-- Node1&#45;&gt;Node10 -->
<g id="edge11_Node000001_Node000010" class="edge">
<title>Node1&#45;&gt;Node10</title>
<g id="a_edge11_Node000001_Node000010"><a xlink:title=" ">
<path fill="none" stroke="#63b8ff" d="M242.12,-175.96C263.18,-166.07 288.59,-154.13 309.3,-144.41"/>
<polygon fill="#63b8ff" stroke="#63b8ff" points="310.88,-147.53 318.45,-140.11 307.91,-141.2 310.88,-147.53"/>
</a>
</g>
</g>
<!-- Node12 -->
<g id="Node000012" class="node">
<title>Node12</title>
<g id="a_Node000012"><a xlink:title=" ">
<polygon fill="#e0e0e0" stroke="#999999" points="491,-134.5 420,-134.5 420,-115.5 491,-115.5 491,-134.5"/>
<text text-anchor="middle" x="455.5" y="-122.5" font-family="Helvetica,sans-Serif" font-size="10.00">nvs_flash.h</text>
</a>
</g>
</g>
<!-- Node1&#45;&gt;Node12 -->
<g id="edge14_Node000001_Node000012" class="edge">
<title>Node1&#45;&gt;Node12</title>
<g id="a_edge14_Node000001_Node000012"><a xlink:title=" ">
<path fill="none" stroke="#63b8ff" d="M277.43,-176.27C317.53,-165.99 367.3,-152.83 411.5,-140 414.24,-139.2 417.07,-138.36 419.92,-137.49"/>
<polygon fill="#63b8ff" stroke="#63b8ff" points="421,-140.82 429.51,-134.51 418.92,-134.14 421,-140.82"/>
</a>
</g>
</g>
<!-- Node4&#45;&gt;Node2 -->
<g id="edge4_Node000004_Node000002" class="edge">
<title>Node4&#45;&gt;Node2</title>
<g id="a_edge4_Node000004_Node000002"><a xlink:title=" ">
<path fill="none" stroke="#63b8ff" d="M213.11,-115.49C208.03,-113.58 202.6,-111.64 197.5,-110 154.92,-96.31 105.3,-83.47 71.28,-75.14"/>
<polygon fill="#63b8ff" stroke="#63b8ff" points="71.79,-71.66 61.24,-72.7 70.13,-78.46 71.79,-71.66"/>
</a>
</g>
</g>
<!-- Node5 -->
<g id="Node000005" class="node">
<title>Node5</title>
<g id="a_Node000005"><a xlink:href="clock_8h.html" target="_top" xlink:title=" ">
<polygon fill="white" stroke="#666666" points="168,-74 79,-74 79,-55 168,-55 168,-74"/>
<text text-anchor="middle" x="123.5" y="-62" font-family="Helvetica,sans-Serif" font-size="10.00">../clock/clock.h</text>
</a>
</g>
</g>
<!-- Node4&#45;&gt;Node5 -->
<g id="edge5_Node000004_Node000005" class="edge">
<title>Node4&#45;&gt;Node5</title>
<g id="a_edge5_Node000004_Node000005"><a xlink:title=" ">
<path fill="none" stroke="#63b8ff" d="M218.12,-115.37C199.92,-105.78 170.3,-90.17 149.05,-78.97"/>
<polygon fill="#63b8ff" stroke="#63b8ff" points="150.42,-75.73 139.95,-74.17 147.16,-81.93 150.42,-75.73"/>
</a>
</g>
</g>
<!-- Node7 -->
<g id="Node000007" class="node">
<title>Node7</title>
<g id="a_Node000007"><a xlink:title=" ">
<polygon fill="#e0e0e0" stroke="#999999" points="420,-74 307,-74 307,-55 420,-55 420,-74"/>
<text text-anchor="middle" x="363.5" y="-62" font-family="Helvetica,sans-Serif" font-size="10.00">freertos/FreeRTOS.h</text>
</a>
</g>
</g>
<!-- Node4&#45;&gt;Node7 -->
<g id="edge7_Node000004_Node000007" class="edge">
<title>Node4&#45;&gt;Node7</title>
<g id="a_edge7_Node000004_Node000007"><a xlink:title=" ">
<path fill="none" stroke="#63b8ff" d="M253.26,-115.49C274.85,-105.7 310.53,-89.52 335.43,-78.23"/>
<polygon fill="#63b8ff" stroke="#63b8ff" points="337.06,-81.33 344.72,-74.02 334.17,-74.96 337.06,-81.33"/>
</a>
</g>
</g>
<!-- Node8 -->
<g id="Node000008" class="node">
<title>Node8</title>
<g id="a_Node000008"><a xlink:title=" ">
<polygon fill="#e0e0e0" stroke="#999999" points="289,-74 186,-74 186,-55 289,-55 289,-74"/>
<text text-anchor="middle" x="237.5" y="-62" font-family="Helvetica,sans-Serif" font-size="10.00">freertos/semphr.h</text>
</a>
</g>
</g>
<!-- Node4&#45;&gt;Node8 -->
<g id="edge8_Node000004_Node000008" class="edge">
<title>Node4&#45;&gt;Node8</title>
<g id="a_edge8_Node000004_Node000008"><a xlink:title=" ">
<path fill="none" stroke="#63b8ff" d="M234.94,-115.37C235.36,-107.25 236,-94.81 236.53,-84.39"/>
<polygon fill="#63b8ff" stroke="#63b8ff" points="240.04,-84.33 237.06,-74.17 233.05,-83.97 240.04,-84.33"/>
</a>
</g>
</g>
<!-- Node6 -->
<g id="Node000006" class="node">
<title>Node6</title>
<g id="a_Node000006"><a xlink:title=" ">
<polygon fill="#e0e0e0" stroke="#999999" points="150,-19 97,-19 97,0 150,0 150,-19"/>
<text text-anchor="middle" x="123.5" y="-7" font-family="Helvetica,sans-Serif" font-size="10.00">stdint.h</text>
</a>
</g>
</g>
<!-- Node5&#45;&gt;Node6 -->
<g id="edge6_Node000005_Node000006" class="edge">
<title>Node5&#45;&gt;Node6</title>
<g id="a_edge6_Node000005_Node000006"><a xlink:title=" ">
<path fill="none" stroke="#63b8ff" d="M123.5,-54.75C123.5,-47.8 123.5,-37.85 123.5,-29.13"/>
<polygon fill="#63b8ff" stroke="#63b8ff" points="127,-29.09 123.5,-19.09 120,-29.09 127,-29.09"/>
</a>
</g>
</g>
<!-- Node9&#45;&gt;Node2 -->
<g id="edge10_Node000009_Node000002" class="edge">
<title>Node9&#45;&gt;Node2</title>
<g id="a_edge10_Node000009_Node000002"><a xlink:title=" ">
<path fill="none" stroke="#63b8ff" d="M148.85,-115.48C144.79,-113.65 140.51,-111.75 136.5,-110 111.07,-98.92 82.01,-86.76 60.75,-77.95"/>
<polygon fill="#63b8ff" stroke="#63b8ff" points="61.87,-74.62 51.29,-74.03 59.19,-81.09 61.87,-74.62"/>
</a>
</g>
</g>
<!-- Node10&#45;&gt;Node7 -->
<g id="edge12_Node000010_Node000007" class="edge">
<title>Node10&#45;&gt;Node7</title>
<g id="a_edge12_Node000010_Node000007"><a xlink:title=" ">
<path fill="none" stroke="#63b8ff" d="M352.13,-109.84C354.11,-102.13 356.58,-92.49 358.71,-84.17"/>
<polygon fill="#63b8ff" stroke="#63b8ff" points="362.16,-84.82 361.25,-74.27 355.38,-83.08 362.16,-84.82"/>
</a>
</g>
</g>
<!-- Node11 -->
<g id="Node000011" class="node">
<title>Node11</title>
<g id="a_Node000011"><a xlink:title=" ">
<polygon fill="#e0e0e0" stroke="#999999" points="535,-74 438,-74 438,-55 535,-55 535,-74"/>
<text text-anchor="middle" x="486.5" y="-62" font-family="Helvetica,sans-Serif" font-size="10.00">freertos/queue.h</text>
</a>
</g>
</g>
<!-- Node10&#45;&gt;Node11 -->
<g id="edge13_Node000010_Node000011" class="edge">
<title>Node10&#45;&gt;Node11</title>
<g id="a_edge13_Node000010_Node000011"><a xlink:title=" ">
<path fill="none" stroke="#63b8ff" d="M381.55,-109.99C404.48,-100.27 434.74,-87.44 456.88,-78.06"/>
<polygon fill="#63b8ff" stroke="#63b8ff" points="458.28,-81.26 466.12,-74.14 455.55,-74.82 458.28,-81.26"/>
</a>
</g>
</g>
</g>
</svg>
