<?xml version="1.0" encoding="UTF-8" standalone="no"?>
<!DOCTYPE svg PUBLIC "-//W3C//DTD SVG 1.1//EN"
 "http://www.w3.org/Graphics/SVG/1.1/DTD/svg11.dtd">
<!-- Generated by graphviz version 2.43.0 (0)
 -->
<!-- Title: software/nixie_clock_esp32_project/components/config/config.c Pages: 1 -->
<svg width="912pt" height="225pt"
 viewBox="0.00 0.00 912.45 225.00" xmlns="http://www.w3.org/2000/svg" xmlns:xlink="http://www.w3.org/1999/xlink">
<g id="graph0" class="graph" transform="scale(1 1) rotate(0) translate(4 221)">
<title>software/nixie_clock_esp32_project/components/config/config.c</title>
<!-- Node1 -->
<g id="Node000001" class="node">
<title>Node1</title>
<g id="a_Node000001"><a xlink:title=" ">
<polygon fill="#999999" stroke="#666666" points="416.95,-217 263.95,-217 263.95,-176 416.95,-176 416.95,-217"/>
<text text-anchor="start" x="271.95" y="-205" font-family="Helvetica,sans-Serif" font-size="10.00">software/nixie_clock</text>
<text text-anchor="start" x="271.95" y="-194" font-family="Helvetica,sans-Serif" font-size="10.00">_esp32_project/components</text>
<text text-anchor="middle" x="340.45" y="-183" font-family="Helvetica,sans-Serif" font-size="10.00">/config/config.c</text>
</a>
</g>
</g>
<!-- Node2 -->
<g id="Node000002" class="node">
<title>Node2</title>
<g id="a_Node000002"><a xlink:title=" ">
<polygon fill="#e0e0e0" stroke="#999999" points="61.95,-74 0.95,-74 0.95,-55 61.95,-55 61.95,-74"/>
<text text-anchor="middle" x="31.45" y="-62" font-family="Helvetica,sans-Serif" font-size="10.00">esp_err.h</text>
</a>
</g>
</g>
<!-- Node1&#45;&gt;Node2 -->
<g id="edge1_Node000001_Node000002" class="edge">
<title>Node1&#45;&gt;Node2</title>
<g id="a_edge1_Node000001_Node000002"><a xlink:title=" ">
<path fill="none" stroke="#63b8ff" d="M263.63,-193.82C175.44,-190.08 38.75,-178.12 6.45,-140 -7.54,-123.49 5.4,-98.84 17.28,-82.47"/>
<polygon fill="#63b8ff" stroke="#63b8ff" points="20.22,-84.38 23.58,-74.34 14.69,-80.09 20.22,-84.38"/>
</a>
</g>
</g>
<!-- Node3 -->
<g id="Node000003" class="node">
<title>Node3</title>
<g id="a_Node000003"><a xlink:title=" ">
<polygon fill="#e0e0e0" stroke="#999999" points="607.95,-134.5 544.95,-134.5 544.95,-115.5 607.95,-115.5 607.95,-134.5"/>
<text text-anchor="middle" x="576.45" y="-122.5" font-family="Helvetica,sans-Serif" font-size="10.00">esp_log.h</text>
</a>
</g>
</g>
<!-- Node1&#45;&gt;Node3 -->
<g id="edge2_Node000001_Node000003" class="edge">
<title>Node1&#45;&gt;Node3</title>
<g id="a_edge2_Node000001_Node000003"><a xlink:title=" ">
<path fill="none" stroke="#63b8ff" d="M412.49,-175.96C449.39,-165.7 494.97,-152.66 535.45,-140 537.61,-139.32 539.82,-138.62 542.06,-137.89"/>
<polygon fill="#63b8ff" stroke="#63b8ff" points="543.42,-141.12 551.8,-134.65 541.21,-134.48 543.42,-141.12"/>
</a>
</g>
</g>
<!-- Node4 -->
<g id="Node000004" class="node">
<title>Node4</title>
<g id="a_Node000004"><a xlink:href="config_8h.html" target="_top" xlink:title=" ">
<polygon fill="white" stroke="#666666" points="260.95,-134.5 205.95,-134.5 205.95,-115.5 260.95,-115.5 260.95,-134.5"/>
<text text-anchor="middle" x="233.45" y="-122.5" font-family="Helvetica,sans-Serif" font-size="10.00">config.h</text>
</a>
</g>
</g>
<!-- Node1&#45;&gt;Node4 -->
<g id="edge3_Node000001_Node000004" class="edge">
<title>Node1&#45;&gt;Node4</title>
<g id="a_edge3_Node000001_Node000004"><a xlink:title=" ">
<path fill="none" stroke="#63b8ff" d="M310.36,-175.96C292.79,-164.54 271.03,-150.41 255.14,-140.09"/>
<polygon fill="#63b8ff" stroke="#63b8ff" points="256.83,-137.02 246.54,-134.5 253.02,-142.89 256.83,-137.02"/>
</a>
</g>
</g>
<!-- Node5 -->
<g id="Node000005" class="node">
<title>Node5</title>
<g id="a_Node000005"><a xlink:href="clock_8h.html" target="_top" xlink:title=" ">
<polygon fill="white" stroke="#666666" points="168.95,-74 79.95,-74 79.95,-55 168.95,-55 168.95,-74"/>
<text text-anchor="middle" x="124.45" y="-62" font-family="Helvetica,sans-Serif" font-size="10.00">../clock/clock.h</text>
</a>
</g>
</g>
<!-- Node1&#45;&gt;Node5 -->
<g id="edge18_Node000001_Node000005" class="edge">
<title>Node1&#45;&gt;Node5</title>
<g id="a_edge18_Node000001_Node000005"><a xlink:title=" ">
<path fill="none" stroke="#63b8ff" d="M271.91,-175.93C246.99,-167.09 219.34,-155.17 196.45,-140 172.41,-124.07 150.24,-98.88 137.03,-82.27"/>
<polygon fill="#63b8ff" stroke="#63b8ff" points="139.55,-79.8 130.66,-74.04 134.01,-84.09 139.55,-79.8"/>
</a>
</g>
</g>
<!-- Node9 -->
<g id="Node000009" class="node">
<title>Node9</title>
<g id="a_Node000009"><a xlink:href="nvs_8h.html" target="_top" xlink:title=" ">
<polygon fill="white" stroke="#666666" points="58.95,-134.5 15.95,-134.5 15.95,-115.5 58.95,-115.5 58.95,-134.5"/>
<text text-anchor="middle" x="37.45" y="-122.5" font-family="Helvetica,sans-Serif" font-size="10.00">nvs.h</text>
</a>
</g>
</g>
<!-- Node1&#45;&gt;Node9 -->
<g id="edge9_Node000001_Node000009" class="edge">
<title>Node1&#45;&gt;Node9</title>
<g id="a_edge9_Node000001_Node000009"><a xlink:title=" ">
<path fill="none" stroke="#63b8ff" d="M263.95,-184.57C208.79,-175.57 132.99,-160.87 68.45,-140 67.01,-139.53 65.55,-139.02 64.08,-138.48"/>
<polygon fill="#63b8ff" stroke="#63b8ff" points="65.14,-135.13 54.56,-134.55 62.47,-141.6 65.14,-135.13"/>
</a>
</g>
</g>
<!-- Node10 -->
<g id="Node000010" class="node">
<title>Node10</title>
<g id="a_Node000010"><a xlink:href="wifi_8h.html" target="_top" xlink:title=" ">
<polygon fill="white" stroke="#666666" points="149.45,-134.5 77.45,-134.5 77.45,-115.5 149.45,-115.5 149.45,-134.5"/>
<text text-anchor="middle" x="113.45" y="-122.5" font-family="Helvetica,sans-Serif" font-size="10.00">../wifi/wifi.h</text>
</a>
</g>
</g>
<!-- Node1&#45;&gt;Node10 -->
<g id="edge11_Node000001_Node000010" class="edge">
<title>Node1&#45;&gt;Node10</title>
<g id="a_edge11_Node000001_Node000010"><a xlink:title=" ">
<path fill="none" stroke="#63b8ff" d="M276.61,-175.96C236.03,-163.53 184.9,-147.88 150.8,-137.44"/>
<polygon fill="#63b8ff" stroke="#63b8ff" points="151.81,-134.08 141.22,-134.5 149.76,-140.78 151.81,-134.08"/>
</a>
</g>
</g>
<!-- Node11 -->
<g id="Node000011" class="node">
<title>Node11</title>
<g id="a_Node000011"><a xlink:href="esp__stub_8h.html" target="_top" xlink:title=" ">
<polygon fill="white" stroke="#666666" points="740.95,-134.5 625.95,-134.5 625.95,-115.5 740.95,-115.5 740.95,-134.5"/>
<text text-anchor="middle" x="683.45" y="-122.5" font-family="Helvetica,sans-Serif" font-size="10.00">../../main/esp_stub.h</text>
</a>
</g>
</g>
<!-- Node1&#45;&gt;Node11 -->
<g id="edge13_Node000001_Node000011" class="edge">
<title>Node1&#45;&gt;Node11</title>
<g id="a_edge13_Node000001_Node000011"><a xlink:title=" ">
<path fill="none" stroke="#63b8ff" d="M417.22,-180.36C472.84,-169.33 549.84,-153.94 617.45,-140 622.76,-138.91 628.3,-137.75 633.82,-136.59"/>
<polygon fill="#63b8ff" stroke="#63b8ff" points="634.61,-140 643.68,-134.51 633.17,-133.15 634.61,-140"/>
</a>
</g>
</g>
<!-- Node12 -->
<g id="Node000012" class="node">
<title>Node12</title>
<g id="a_Node000012"><a xlink:href="clock__task_8h.html" target="_top" xlink:title=" ">
<polygon fill="white" stroke="#666666" points="401.95,-134.5 278.95,-134.5 278.95,-115.5 401.95,-115.5 401.95,-134.5"/>
<text text-anchor="middle" x="340.45" y="-122.5" font-family="Helvetica,sans-Serif" font-size="10.00">../../main/clock_task.h</text>
</a>
</g>
</g>
<!-- Node1&#45;&gt;Node12 -->
<g id="edge14_Node000001_Node000012" class="edge">
<title>Node1&#45;&gt;Node12</title>
<g id="a_edge14_Node000001_Node000012"><a xlink:title=" ">
<path fill="none" stroke="#63b8ff" d="M340.45,-175.77C340.45,-166.08 340.45,-154.46 340.45,-144.88"/>
<polygon fill="#63b8ff" stroke="#63b8ff" points="343.95,-144.82 340.45,-134.82 336.95,-144.82 343.95,-144.82"/>
</a>
</g>
</g>
<!-- Node14 -->
<g id="Node000014" class="node">
<title>Node14</title>
<g id="a_Node000014"><a xlink:href="ntp_8h.html" target="_top" xlink:title=" ">
<polygon fill="white" stroke="#666666" points="799.95,-134.5 758.95,-134.5 758.95,-115.5 799.95,-115.5 799.95,-134.5"/>
<text text-anchor="middle" x="779.45" y="-122.5" font-family="Helvetica,sans-Serif" font-size="10.00">ntp.h</text>
</a>
</g>
</g>
<!-- Node1&#45;&gt;Node14 -->
<g id="edge17_Node000001_Node000014" class="edge">
<title>Node1&#45;&gt;Node14</title>
<g id="a_edge17_Node000001_Node000014"><a xlink:title=" ">
<path fill="none" stroke="#63b8ff" d="M417.16,-192.32C500.69,-187.2 637.47,-173.98 750.45,-140 751.71,-139.62 752.99,-139.19 754.27,-138.72"/>
<polygon fill="#63b8ff" stroke="#63b8ff" points="756.03,-141.78 763.86,-134.64 753.29,-135.34 756.03,-141.78"/>
</a>
</g>
</g>
<!-- Node15 -->
<g id="Node000015" class="node">
<title>Node15</title>
<g id="a_Node000015"><a xlink:href="pwm_8h.html" target="_top" xlink:title=" ">
<polygon fill="white" stroke="#666666" points="904.45,-134.5 818.45,-134.5 818.45,-115.5 904.45,-115.5 904.45,-134.5"/>
<text text-anchor="middle" x="861.45" y="-122.5" font-family="Helvetica,sans-Serif" font-size="10.00">../pwm/pwm.h</text>
</a>
</g>
</g>
<!-- Node1&#45;&gt;Node15 -->
<g id="edge19_Node000001_Node000015" class="edge">
<title>Node1&#45;&gt;Node15</title>
<g id="a_edge19_Node000001_Node000015"><a xlink:title=" ">
<path fill="none" stroke="#63b8ff" d="M417.34,-189.85C510.67,-182.2 672.58,-166.38 809.45,-140 813.85,-139.15 818.44,-138.13 822.97,-137.03"/>
<polygon fill="#63b8ff" stroke="#63b8ff" points="823.92,-140.4 832.74,-134.53 822.19,-133.62 823.92,-140.4"/>
</a>
</g>
</g>
<!-- Node16 -->
<g id="Node000016" class="node">
<title>Node16</title>
<g id="a_Node000016"><a xlink:href="event__bus_8h.html" target="_top" xlink:title=" ">
<polygon fill="white" stroke="#666666" points="526.95,-140 419.95,-140 419.95,-110 526.95,-110 526.95,-140"/>
<text text-anchor="start" x="427.95" y="-128" font-family="Helvetica,sans-Serif" font-size="10.00">../event_bus/event</text>
<text text-anchor="middle" x="473.45" y="-117" font-family="Helvetica,sans-Serif" font-size="10.00">_bus.h</text>
</a>
</g>
</g>
<!-- Node1&#45;&gt;Node16 -->
<g id="edge20_Node000001_Node000016" class="edge">
<title>Node1&#45;&gt;Node16</title>
<g id="a_edge20_Node000001_Node000016"><a xlink:title=" ">
<path fill="none" stroke="#63b8ff" d="M377.85,-175.96C396.52,-166.2 418.99,-154.46 437.46,-144.81"/>
<polygon fill="#63b8ff" stroke="#63b8ff" points="439.2,-147.85 446.44,-140.11 435.96,-141.64 439.2,-147.85"/>
</a>
</g>
</g>
<!-- Node4&#45;&gt;Node2 -->
<g id="edge4_Node000004_Node000002" class="edge">
<title>Node4&#45;&gt;Node2</title>
<g id="a_edge4_Node000004_Node000002"><a xlink:title=" ">
<path fill="none" stroke="#63b8ff" d="M205.79,-115.99C170.82,-105.86 110.42,-88.37 70.7,-76.87"/>
<polygon fill="#63b8ff" stroke="#63b8ff" points="71.65,-73.5 61.07,-74.08 69.7,-80.22 71.65,-73.5"/>
</a>
</g>
</g>
<!-- Node4&#45;&gt;Node5 -->
<g id="edge5_Node000004_Node000005" class="edge">
<title>Node4&#45;&gt;Node5</title>
<g id="a_edge5_Node000004_Node000005"><a xlink:title=" ">
<path fill="none" stroke="#63b8ff" d="M217.37,-115.37C199.49,-105.78 170.41,-90.17 149.54,-78.97"/>
<polygon fill="#63b8ff" stroke="#63b8ff" points="151.06,-75.81 140.6,-74.17 147.75,-81.98 151.06,-75.81"/>
</a>
</g>
</g>
<!-- Node7 -->
<g id="Node000007" class="node">
<title>Node7</title>
<g id="a_Node000007"><a xlink:title=" ">
<polygon fill="#e0e0e0" stroke="#999999" points="420.95,-74 307.95,-74 307.95,-55 420.95,-55 420.95,-74"/>
<text text-anchor="middle" x="364.45" y="-62" font-family="Helvetica,sans-Serif" font-size="10.00">freertos/FreeRTOS.h</text>
</a>
</g>
</g>
<!-- Node4&#45;&gt;Node7 -->
<g id="edge7_Node000004_Node000007" class="edge">
<title>Node4&#45;&gt;Node7</title>
<g id="a_edge7_Node000004_Node000007"><a xlink:title=" ">
<path fill="none" stroke="#63b8ff" d="M252.5,-115.49C274.42,-105.7 310.66,-89.52 335.95,-78.23"/>
<polygon fill="#63b8ff" stroke="#63b8ff" points="337.67,-81.29 345.38,-74.02 334.82,-74.9 337.67,-81.29"/>
</a>
</g>
</g>
<!-- Node8 -->
<g id="Node000008" class="node">
<title>Node8</title>
<g id="a_Node000008"><a xlink:title=" ">
<polygon fill="#e0e0e0" stroke="#999999" points="289.95,-74 186.95,-74 186.95,-55 289.95,-55 289.95,-74"/>
<text text-anchor="middle" x="238.45" y="-62" font-family="Helvetica,sans-Serif" font-size="10.00">freertos/semphr.h</text>
</a>
</g>
</g>
<!-- Node4&#45;&gt;Node8 -->
<g id="edge8_Node000004_Node000008" class="edge">
<title>Node4&#45;&gt;Node8</title>
<g id="a_edge8_Node000004_Node000008"><a xlink:title=" ">
<path fill="none" stroke="#63b8ff" d="M234.19,-115.37C234.88,-107.25 235.94,-94.81 236.84,-84.39"/>
<polygon fill="#63b8ff" stroke="#63b8ff" points="240.34,-84.43 237.71,-74.17 233.37,-83.83 240.34,-84.43"/>
</a>
</g>
</g>
<!-- Node6 -->
<g id="Node000006" class="node">
<title>Node6</title>
<g id="a_Node000006"><a xlink:title=" ">
<polygon fill="#e0e0e0" stroke="#999999" points="150.95,-19 97.95,-19 97.95,0 150.95,0 150.95,-19"/>
<text text-anchor="middle" x="124.45" y="-7" font-family="Helvetica,sans-Serif" font-size="10.00">stdint.h</text>
</a>
</g>
</g>
<!-- Node5&#45;&gt;Node6 -->
<g id="edge6_Node000005_Node000006" class="edge">
<title>Node5&#45;&gt;Node6</title>
<g id="a_edge6_Node000005_Node000006"><a xlink:title=" ">
<path fill="none" stroke="#63b8ff" d="M124.45,-54.75C124.45,-47.8 124.45,-37.85 124.45,-29.13"/>
<polygon fill="#63b8ff" stroke="#63b8ff" points="127.95,-29.09 124.45,-19.09 120.95,-29.09 127.95,-29.09"/>
</a>
</g>
</g>
<!-- Node9&#45;&gt;Node2 -->
<g id="edge10_Node000009_Node000002" class="edge">
<title>Node9&#45;&gt;Node2</title>
<g id="a_edge10_Node000009_Node000002"><a xlink:title=" ">
<path fill="none" stroke="#63b8ff" d="M36.56,-115.37C35.73,-107.25 34.46,-94.81 33.39,-84.39"/>
<polygon fill="#63b8ff" stroke="#63b8ff" points="36.84,-83.76 32.34,-74.17 29.88,-84.47 36.84,-83.76"/>
</a>
</g>
</g>
<!-- Node10&#45;&gt;Node2 -->
<g id="edge12_Node000010_Node000002" class="edge">
<title>Node10&#45;&gt;Node2</title>
<g id="a_edge12_Node000010_Node000002"><a xlink:title=" ">
<path fill="none" stroke="#63b8ff" d="M101.35,-115.37C88.39,-106.12 67.59,-91.28 52.05,-80.19"/>
<polygon fill="#63b8ff" stroke="#63b8ff" points="53.77,-77.13 43.6,-74.17 49.71,-82.82 53.77,-77.13"/>
</a>
</g>
</g>
<!-- Node12&#45;&gt;Node7 -->
<g id="edge15_Node000012_Node000007" class="edge">
<title>Node12&#45;&gt;Node7</title>
<g id="a_edge15_Node000012_Node000007"><a xlink:title=" ">
<path fill="none" stroke="#63b8ff" d="M343.99,-115.37C347.39,-107.07 352.64,-94.28 356.97,-83.72"/>
<polygon fill="#63b8ff" stroke="#63b8ff" points="360.34,-84.75 360.89,-74.17 353.86,-82.09 360.34,-84.75"/>
</a>
</g>
</g>
<!-- Node13 -->
<g id="Node000013" class="node">
<title>Node13</title>
<g id="a_Node000013"><a xlink:title=" ">
<polygon fill="#e0e0e0" stroke="#999999" points="527.45,-74 439.45,-74 439.45,-55 527.45,-55 527.45,-74"/>
<text text-anchor="middle" x="483.45" y="-62" font-family="Helvetica,sans-Serif" font-size="10.00">freertos/task.h</text>
</a>
</g>
</g>
<!-- Node12&#45;&gt;Node13 -->
<g id="edge16_Node000012_Node000013" class="edge">
<title>Node12&#45;&gt;Node13</title>
<g id="a_edge16_Node000012_Node000013"><a xlink:title=" ">
<path fill="none" stroke="#63b8ff" d="M361.24,-115.49C385.39,-105.62 425.43,-89.23 453.06,-77.93"/>
<polygon fill="#63b8ff" stroke="#63b8ff" points="454.7,-81.04 462.63,-74.02 452.05,-74.56 454.7,-81.04"/>
</a>
</g>
</g>
<!-- Node16&#45;&gt;Node7 -->
<g id="edge21_Node000016_Node000007" class="edge">
<title>Node16&#45;&gt;Node7</title>
<g id="a_edge21_Node000016_Node000007"><a xlink:title=" ">
<path fill="none" stroke="#63b8ff" d="M447.34,-109.99C429.8,-100.58 406.83,-88.24 389.51,-78.95"/>
<polygon fill="#63b8ff" stroke="#63b8ff" points="391.01,-75.78 380.55,-74.14 387.7,-81.95 391.01,-75.78"/>
</a>
</g>
</g>
<!-- Node17 -->
<g id="Node000017" class="node">
<title>Node17</title>
<g id="a_Node000017"><a xlink:title=" ">
<polygon fill="#e0e0e0" stroke="#999999" points="641.95,-74 544.95,-74 544.95,-55 641.95,-55 641.95,-74"/>
<text text-anchor="middle" x="593.45" y="-62" font-family="Helvetica,sans-Serif" font-size="10.00">freertos/queue.h</text>
</a>
</g>
</g>
<!-- Node16&#45;&gt;Node17 -->
<g id="edge22_Node000016_Node000017" class="edge">
<title>Node16&#45;&gt;Node17</title>
<g id="a_edge22_Node000016_Node000017"><a xlink:title=" ">
<path fill="none" stroke="#63b8ff" d="M502.19,-109.99C521.77,-100.45 547.5,-87.9 566.65,-78.57"/>
<polygon fill="#63b8ff" stroke="#63b8ff" points="568.27,-81.67 575.73,-74.14 565.21,-75.38 568.27,-81.67"/>
</a>
</g>
</g>
</g>
</svg>
