<?xml version="1.0" encoding="UTF-8" standalone="no"?>
<!DOCTYPE svg PUBLIC "-//W3C//DTD SVG 1.1//EN"
 "http://www.w3.org/Graphics/SVG/1.1/DTD/svg11.dtd">
<!-- Generated by graphviz version 2.43.0 (0)
 -->
<!-- Title: software/nixie_clock_esp32_project/components/config/config.c Pages: 1 -->
<svg width="543pt" height="225pt"
 viewBox="0.00 0.00 543.00 225.00" xmlns="http://www.w3.org/2000/svg" xmlns:xlink="http://www.w3.org/1999/xlink">
<g id="graph0" class="graph" transform="scale(1 1) rotate(0) translate(4 221)">
<title>software/nixie_clock_esp32_project/components/config/config.c</title>
<!-- Node1 -->
<g id="Node000001" class="node">
<title>Node1</title>
<g id="a_Node000001"><a xlink:title=" ">
<polygon fill="#999999" stroke="#666666" points="238,-217 85,-217 85,-176 238,-176 238,-217"/>
<text text-anchor="start" x="93" y="-205" font-family="Helvetica,sans-Serif" font-size="10.00">software/nixie_clock</text>
<text text-anchor="start" x="93" y="-194" font-family="Helvetica,sans-Serif" font-size="10.00">_esp32_project/components</text>
<text text-anchor="middle" x="161.5" y="-183" font-family="Helvetica,sans-Serif" font-size="10.00">/config/config.c</text>
</a>
</g>
</g>
<!-- Node2 -->
<g id="Node000002" class="node">
<title>Node2</title>
<g id="a_Node000002"><a xlink:title=" ">
<polygon fill="#e0e0e0" stroke="#999999" points="61,-74 0,-74 0,-55 61,-55 61,-74"/>
<text text-anchor="middle" x="30.5" y="-62" font-family="Helvetica,sans-Serif" font-size="10.00">esp_err.h</text>
</a>
</g>
</g>
<!-- Node1&#45;&gt;Node2 -->
<g id="edge1_Node000001_Node000002" class="edge">
<title>Node1&#45;&gt;Node2</title>
<g id="a_edge1_Node000001_Node000002"><a xlink:title=" ">
<path fill="none" stroke="#63b8ff" d="M98.83,-175.87C80.64,-167.43 62.26,-155.77 49.5,-140 36.68,-124.15 32.39,-100.69 31.02,-84.35"/>
<polygon fill="#63b8ff" stroke="#63b8ff" points="34.51,-84.14 30.47,-74.35 27.53,-84.53 34.51,-84.14"/>
</a>
</g>
</g>
<!-- Node3 -->
<g id="Node000003" class="node">
<title>Node3</title>
<g id="a_Node000003"><a xlink:title=" ">
<polygon fill="#e0e0e0" stroke="#999999" points="122,-134.5 59,-134.5 59,-115.5 122,-115.5 122,-134.5"/>
<text text-anchor="middle" x="90.5" y="-122.5" font-family="Helvetica,sans-Serif" font-size="10.00">esp_log.h</text>
</a>
</g>
</g>
<!-- Node1&#45;&gt;Node3 -->
<g id="edge2_Node000001_Node000003" class="edge">
<title>Node1&#45;&gt;Node3</title>
<g id="a_edge2_Node000001_Node000003"><a xlink:title=" ">
<path fill="none" stroke="#63b8ff" d="M141.34,-175.77C130.37,-165.02 116.97,-151.91 106.68,-141.84"/>
<polygon fill="#63b8ff" stroke="#63b8ff" points="109.1,-139.31 99.51,-134.82 104.21,-144.32 109.1,-139.31"/>
</a>
</g>
</g>
<!-- Node4 -->
<g id="Node000004" class="node">
<title>Node4</title>
<g id="a_Node000004"><a xlink:href="config_8h.html" target="_top" xlink:title=" ">
<polygon fill="white" stroke="#666666" points="256,-134.5 201,-134.5 201,-115.5 256,-115.5 256,-134.5"/>
<text text-anchor="middle" x="228.5" y="-122.5" font-family="Helvetica,sans-Serif" font-size="10.00">config.h</text>
</a>
</g>
</g>
<!-- Node1&#45;&gt;Node4 -->
<g id="edge3_Node000001_Node000004" class="edge">
<title>Node1&#45;&gt;Node4</title>
<g id="a_edge3_Node000001_Node000004"><a xlink:title=" ">
<path fill="none" stroke="#63b8ff" d="M180.52,-175.77C190.78,-165.13 203.28,-152.16 212.95,-142.13"/>
<polygon fill="#63b8ff" stroke="#63b8ff" points="215.58,-144.45 220,-134.82 210.54,-139.59 215.58,-144.45"/>
</a>
</g>
</g>
<!-- Node9 -->
<g id="Node000009" class="node">
<title>Node9</title>
<g id="a_Node000009"><a xlink:href="nvs_8h.html" target="_top" xlink:title=" ">
<polygon fill="white" stroke="#666666" points="183,-134.5 140,-134.5 140,-115.5 183,-115.5 183,-134.5"/>
<text text-anchor="middle" x="161.5" y="-122.5" font-family="Helvetica,sans-Serif" font-size="10.00">nvs.h</text>
</a>
</g>
</g>
<!-- Node1&#45;&gt;Node9 -->
<g id="edge9_Node000001_Node000009" class="edge">
<title>Node1&#45;&gt;Node9</title>
<g id="a_edge9_Node000001_Node000009"><a xlink:title=" ">
<path fill="none" stroke="#63b8ff" d="M161.5,-175.77C161.5,-166.08 161.5,-154.46 161.5,-144.88"/>
<polygon fill="#63b8ff" stroke="#63b8ff" points="165,-144.82 161.5,-134.82 158,-144.82 165,-144.82"/>
</a>
</g>
</g>
<!-- Node10 -->
<g id="Node000010" class="node">
<title>Node10</title>
<g id="a_Node000010"><a xlink:href="event__bus_8h.html" target="_top" xlink:title=" ">
<polygon fill="white" stroke="#666666" points="417,-140 310,-140 310,-110 417,-110 417,-140"/>
<text text-anchor="start" x="318" y="-128" font-family="Helvetica,sans-Serif" font-size="10.00">../event_bus/event</text>
<text text-anchor="middle" x="363.5" y="-117" font-family="Helvetica,sans-Serif" font-size="10.00">_bus.h</text>
</a>
</g>
</g>
<!-- Node1&#45;&gt;Node10 -->
<g id="edge11_Node000001_Node000010" class="edge">
<title>Node1&#45;&gt;Node10</title>
<g id="a_edge11_Node000001_Node000010"><a xlink:title=" ">
<path fill="none" stroke="#63b8ff" d="M218.31,-175.96C248.19,-165.68 284.49,-153.18 313.33,-143.26"/>
<polygon fill="#63b8ff" stroke="#63b8ff" points="314.48,-146.57 322.8,-140 312.2,-139.95 314.48,-146.57"/>
</a>
</g>
</g>
<!-- Node4&#45;&gt;Node2 -->
<g id="edge4_Node000004_Node000002" class="edge">
<title>Node4&#45;&gt;Node2</title>
<g id="a_edge4_Node000004_Node000002"><a xlink:title=" ">
<path fill="none" stroke="#63b8ff" d="M206.71,-115.37C201.74,-113.51 196.46,-111.62 191.5,-110 150.95,-96.76 103.85,-84.04 71.11,-75.62"/>
<polygon fill="#63b8ff" stroke="#63b8ff" points="71.57,-72.12 61.02,-73.04 69.84,-78.91 71.57,-72.12"/>
</a>
</g>
</g>
<!-- Node5 -->
<g id="Node000005" class="node">
<title>Node5</title>
<g id="a_Node000005"><a xlink:href="clock_8h.html" target="_top" xlink:title=" ">
<polygon fill="white" stroke="#666666" points="168,-74 79,-74 79,-55 168,-55 168,-74"/>
<text text-anchor="middle" x="123.5" y="-62" font-family="Helvetica,sans-Serif" font-size="10.00">../clock/clock.h</text>
</a>
</g>
</g>
<!-- Node4&#45;&gt;Node5 -->
<g id="edge5_Node000004_Node000005" class="edge">
<title>Node4&#45;&gt;Node5</title>
<g id="a_edge5_Node000004_Node000005"><a xlink:title=" ">
<path fill="none" stroke="#63b8ff" d="M213.01,-115.37C195.87,-105.82 168.03,-90.31 147.94,-79.12"/>
<polygon fill="#63b8ff" stroke="#63b8ff" points="149.5,-75.98 139.06,-74.17 146.09,-82.09 149.5,-75.98"/>
</a>
</g>
</g>
<!-- Node7 -->
<g id="Node000007" class="node">
<title>Node7</title>
<g id="a_Node000007"><a xlink:title=" ">
<polygon fill="#e0e0e0" stroke="#999999" points="420,-74 307,-74 307,-55 420,-55 420,-74"/>
<text text-anchor="middle" x="363.5" y="-62" font-family="Helvetica,sans-Serif" font-size="10.00">freertos/FreeRTOS.h</text>
</a>
</g>
</g>
<!-- Node4&#45;&gt;Node7 -->
<g id="edge7_Node000004_Node000007" class="edge">
<title>Node4&#45;&gt;Node7</title>
<g id="a_edge7_Node000004_Node000007"><a xlink:title=" ">
<path fill="none" stroke="#63b8ff" d="M248.13,-115.49C270.83,-105.66 308.4,-89.38 334.47,-78.08"/>
<polygon fill="#63b8ff" stroke="#63b8ff" points="336.06,-81.2 343.85,-74.02 333.28,-74.78 336.06,-81.2"/>
</a>
</g>
</g>
<!-- Node8 -->
<g id="Node000008" class="node">
<title>Node8</title>
<g id="a_Node000008"><a xlink:title=" ">
<polygon fill="#e0e0e0" stroke="#999999" points="289,-74 186,-74 186,-55 289,-55 289,-74"/>
<text text-anchor="middle" x="237.5" y="-62" font-family="Helvetica,sans-Serif" font-size="10.00">freertos/semphr.h</text>
</a>
</g>
</g>
<!-- Node4&#45;&gt;Node8 -->
<g id="edge8_Node000004_Node000008" class="edge">
<title>Node4&#45;&gt;Node8</title>
<g id="a_edge8_Node000004_Node000008"><a xlink:title=" ">
<path fill="none" stroke="#63b8ff" d="M229.83,-115.37C231.09,-107.16 233.03,-94.54 234.65,-84.05"/>
<polygon fill="#63b8ff" stroke="#63b8ff" points="238.11,-84.58 236.17,-74.17 231.19,-83.52 238.11,-84.58"/>
</a>
</g>
</g>
<!-- Node6 -->
<g id="Node000006" class="node">
<title>Node6</title>
<g id="a_Node000006"><a xlink:title=" ">
<polygon fill="#e0e0e0" stroke="#999999" points="150,-19 97,-19 97,0 150,0 150,-19"/>
<text text-anchor="middle" x="123.5" y="-7" font-family="Helvetica,sans-Serif" font-size="10.00">stdint.h</text>
</a>
</g>
</g>
<!-- Node5&#45;&gt;Node6 -->
<g id="edge6_Node000005_Node000006" class="edge">
<title>Node5&#45;&gt;Node6</title>
<g id="a_edge6_Node000005_Node000006"><a xlink:title=" ">
<path fill="none" stroke="#63b8ff" d="M123.5,-54.75C123.5,-47.8 123.5,-37.85 123.5,-29.13"/>
<polygon fill="#63b8ff" stroke="#63b8ff" points="127,-29.09 123.5,-19.09 120,-29.09 127,-29.09"/>
</a>
</g>
</g>
<!-- Node9&#45;&gt;Node2 -->
<g id="edge10_Node000009_Node000002" class="edge">
<title>Node9&#45;&gt;Node2</title>
<g id="a_edge10_Node000009_Node000002"><a xlink:title=" ">
<path fill="none" stroke="#63b8ff" d="M142.49,-115.39C138.53,-113.61 134.38,-111.74 130.5,-110 106.51,-99.24 79.24,-87.12 59.24,-78.24"/>
<polygon fill="#63b8ff" stroke="#63b8ff" points="60.62,-75.02 50.06,-74.17 57.78,-81.42 60.62,-75.02"/>
</a>
</g>
</g>
<!-- Node10&#45;&gt;Node7 -->
<g id="edge12_Node000010_Node000007" class="edge">
<title>Node10&#45;&gt;Node7</title>
<g id="a_edge12_Node000010_Node000007"><a xlink:title=" ">
<path fill="none" stroke="#63b8ff" d="M363.5,-109.84C363.5,-102.21 363.5,-92.7 363.5,-84.45"/>
<polygon fill="#63b8ff" stroke="#63b8ff" points="367,-84.27 363.5,-74.27 360,-84.27 367,-84.27"/>
</a>
</g>
</g>
<!-- Node11 -->
<g id="Node000011" class="node">
<title>Node11</title>
<g id="a_Node000011"><a xlink:title=" ">
<polygon fill="#e0e0e0" stroke="#999999" points="535,-74 438,-74 438,-55 535,-55 535,-74"/>
<text text-anchor="middle" x="486.5" y="-62" font-family="Helvetica,sans-Serif" font-size="10.00">freertos/queue.h</text>
</a>
</g>
</g>
<!-- Node10&#45;&gt;Node11 -->
<g id="edge13_Node000010_Node000011" class="edge">
<title>Node10&#45;&gt;Node11</title>
<g id="a_edge13_Node000010_Node000011"><a xlink:title=" ">
<path fill="none" stroke="#63b8ff" d="M392.96,-109.99C413.12,-100.4 439.64,-87.79 459.3,-78.44"/>
<polygon fill="#63b8ff" stroke="#63b8ff" points="460.81,-81.6 468.34,-74.14 457.8,-75.27 460.81,-81.6"/>
</a>
</g>
</g>
</g>
</svg>
