<?xml version="1.0" encoding="UTF-8" standalone="no"?>
<!DOCTYPE svg PUBLIC "-//W3C//DTD SVG 1.1//EN"
 "http://www.w3.org/Graphics/SVG/1.1/DTD/svg11.dtd">
<!-- Generated by graphviz version 2.43.0 (0)
 -->
<!-- Title: software/nixie_clock_esp32_project/components/config Pages: 1 -->
<svg width="426pt" height="133pt"
 viewBox="0.00 0.00 425.50 133.00" xmlns="http://www.w3.org/2000/svg" xmlns:xlink="http://www.w3.org/1999/xlink">
<g id="graph0" class="graph" transform="scale(1 1) rotate(0) translate(4 129)">
<title>software/nixie_clock_esp32_project/components/config</title>
<g id="clust1" class="cluster">
<title>clusterdir_b181baf956279f894a730e459ce47bc5</title>
<g id="a_clust1"><a xlink:href="dir_b181baf956279f894a730e459ce47bc5.html" target="_top" xlink:title="components">
<polygon fill="#edf0f7" stroke="#7f7f7f" stroke-dasharray="5,2" points="8,-8 8,-117 366,-117 366,-8 8,-8"/>
<text text-anchor="middle" x="187" y="-105" font-family="Helvetica,sans-Serif" font-size="10.00">components</text>
</a>
</g>
</g>
<!-- dir_27a09bb4329d836898ad2e41b0fca487 -->
<g id="node1" class="node">
<title>dir_27a09bb4329d836898ad2e41b0fca487</title>
<g id="a_node1"><a xlink:href="dir_27a09bb4329d836898ad2e41b0fca487.html" target="_top" xlink:title="wifi">
<polygon fill="#a2b4d6" stroke="#404040" points="50,-35 16,-35 16,-16 50,-16 50,-35"/>
<text text-anchor="middle" x="33" y="-23" font-family="Helvetica,sans-Serif" font-size="10.00">wifi</text>
</a>
</g>
</g>
<!-- dir_3df67f4185c8cd9c27353f35f3bf503b -->
<g id="node2" class="node">
<title>dir_3df67f4185c8cd9c27353f35f3bf503b</title>
<g id="a_node2"><a xlink:href="dir_3df67f4185c8cd9c27353f35f3bf503b.html" target="_top" xlink:title="event_bus">
<polygon fill="#a2b4d6" stroke="#404040" points="135.5,-35 68.5,-35 68.5,-16 135.5,-16 135.5,-35"/>
<text text-anchor="middle" x="102" y="-23" font-family="Helvetica,sans-Serif" font-size="10.00">event_bus</text>
</a>
</g>
</g>
<!-- dir_8938040af9d266be553d1135477b804d -->
<g id="node3" class="node">
<title>dir_8938040af9d266be553d1135477b804d</title>
<g id="a_node3"><a xlink:href="dir_8938040af9d266be553d1135477b804d.html" target="_top" xlink:title="ntp">
<polygon fill="#a2b4d6" stroke="#404040" points="186,-35 154,-35 154,-16 186,-16 186,-35"/>
<text text-anchor="middle" x="170" y="-23" font-family="Helvetica,sans-Serif" font-size="10.00">ntp</text>
</a>
</g>
</g>
<!-- dir_a13c4c485bb1701984d244429ad4ded1 -->
<g id="node4" class="node">
<title>dir_a13c4c485bb1701984d244429ad4ded1</title>
<g id="a_node4"><a xlink:href="dir_a13c4c485bb1701984d244429ad4ded1.html" target="_top" xlink:title="clock">
<polygon fill="#a2b4d6" stroke="#404040" points="246,-35 204,-35 204,-16 246,-16 246,-35"/>
<text text-anchor="middle" x="225" y="-23" font-family="Helvetica,sans-Serif" font-size="10.00">clock</text>
</a>
</g>
</g>
<!-- dir_af00538107c5bb6312b4379f7c6a7915 -->
<g id="node5" class="node">
<title>dir_af00538107c5bb6312b4379f7c6a7915</title>
<g id="a_node5"><a xlink:href="dir_af00538107c5bb6312b4379f7c6a7915.html" target="_top" xlink:title="pwm">
<polygon fill="#a2b4d6" stroke="#404040" points="305.5,-35 264.5,-35 264.5,-16 305.5,-16 305.5,-35"/>
<text text-anchor="middle" x="285" y="-23" font-family="Helvetica,sans-Serif" font-size="10.00">pwm</text>
</a>
</g>
</g>
<!-- dir_d593a792f6d68ad3cd00089cda4c9fbf -->
<g id="node6" class="node">
<title>dir_d593a792f6d68ad3cd00089cda4c9fbf</title>
<g id="a_node6"><a xlink:href="dir_d593a792f6d68ad3cd00089cda4c9fbf.html" target="_top" xlink:title="nvs">
<polygon fill="#a2b4d6" stroke="#404040" points="358,-35 324,-35 324,-16 358,-16 358,-35"/>
<text text-anchor="middle" x="341" y="-23" font-family="Helvetica,sans-Serif" font-size="10.00">nvs</text>
</a>
</g>
</g>
<!-- dir_6591a8ca0b1ec78afa747e232353e174 -->
<g id="node7" class="node">
<title>dir_6591a8ca0b1ec78afa747e232353e174</title>
<g id="a_node7"><a xlink:href="dir_6591a8ca0b1ec78afa747e232353e174.html" target="_top" xlink:title="config">
<polygon fill="#edf0f7" stroke="#404040" stroke-width="2" points="248,-90 202,-90 202,-71 248,-71 248,-90"/>
<text text-anchor="middle" x="225" y="-78" font-family="Helvetica,sans-Serif" font-size="10.00">config</text>
</a>
</g>
</g>
<!-- dir_6591a8ca0b1ec78afa747e232353e174&#45;&gt;dir_27a09bb4329d836898ad2e41b0fca487 -->
<g id="edge1" class="edge">
<title>dir_6591a8ca0b1ec78afa747e232353e174&#45;&gt;dir_27a09bb4329d836898ad2e41b0fca487</title>
<g id="a_edge1"><a xlink:href="dir_000002_000017.html" target="_top">
<path fill="none" stroke="#63b8ff" d="M201.96,-73.61C169.99,-65.36 110.41,-49.73 60,-35 59.9,-34.97 59.8,-34.94 59.7,-34.91"/>
<polygon fill="#63b8ff" stroke="#63b8ff" points="60.69,-31.56 50.11,-32 58.66,-38.25 60.69,-31.56"/>
</a>
</g>
<g id="a_edge1&#45;headlabel"><a xlink:href="dir_000002_000017.html" target="_top" xlink:title="1">
<text text-anchor="middle" x="64.96" y="-27.38" font-family="Helvetica,sans-Serif" font-size="10.00" fill="#63b8ff">1</text>
</a>
</g>
</g>
<!-- dir_6591a8ca0b1ec78afa747e232353e174&#45;&gt;dir_3df67f4185c8cd9c27353f35f3bf503b -->
<g id="edge2" class="edge">
<title>dir_6591a8ca0b1ec78afa747e232353e174&#45;&gt;dir_3df67f4185c8cd9c27353f35f3bf503b</title>
<g id="a_edge2"><a xlink:href="dir_000002_000005.html" target="_top">
<path fill="none" stroke="#63b8ff" d="M205.24,-70.98C185.27,-62.38 154.2,-48.99 131.35,-39.15"/>
<polygon fill="#63b8ff" stroke="#63b8ff" points="132.69,-35.91 122.12,-35.17 129.92,-42.34 132.69,-35.91"/>
</a>
</g>
<g id="a_edge2&#45;headlabel"><a xlink:href="dir_000002_000005.html" target="_top" xlink:title="1">
<text text-anchor="middle" x="137.12" y="-32.23" font-family="Helvetica,sans-Serif" font-size="10.00" fill="#63b8ff">1</text>
</a>
</g>
</g>
<!-- dir_6591a8ca0b1ec78afa747e232353e174&#45;&gt;dir_8938040af9d266be553d1135477b804d -->
<g id="edge3" class="edge">
<title>dir_6591a8ca0b1ec78afa747e232353e174&#45;&gt;dir_8938040af9d266be553d1135477b804d</title>
<g id="a_edge3"><a xlink:href="dir_000002_000010.html" target="_top">
<path fill="none" stroke="#63b8ff" d="M215.92,-70.75C207.91,-63.03 196.04,-51.6 186.38,-42.28"/>
<polygon fill="#63b8ff" stroke="#63b8ff" points="188.54,-39.51 178.91,-35.09 183.69,-44.55 188.54,-39.51"/>
</a>
</g>
<g id="a_edge3&#45;headlabel"><a xlink:href="dir_000002_000010.html" target="_top" xlink:title="1">
<text text-anchor="middle" x="193.1" y="-37.46" font-family="Helvetica,sans-Serif" font-size="10.00" fill="#63b8ff">1</text>
</a>
</g>
</g>
<!-- dir_6591a8ca0b1ec78afa747e232353e174&#45;&gt;dir_a13c4c485bb1701984d244429ad4ded1 -->
<g id="edge5" class="edge">
<title>dir_6591a8ca0b1ec78afa747e232353e174&#45;&gt;dir_a13c4c485bb1701984d244429ad4ded1</title>
<g id="a_edge5"><a xlink:href="dir_000002_000000.html" target="_top">
<path fill="none" stroke="#63b8ff" d="M225,-70.75C225,-63.8 225,-53.85 225,-45.13"/>
<polygon fill="#63b8ff" stroke="#63b8ff" points="228.5,-45.09 225,-35.09 221.5,-45.09 228.5,-45.09"/>
</a>
</g>
<g id="a_edge5&#45;headlabel"><a xlink:href="dir_000002_000000.html" target="_top" xlink:title="2">
<text text-anchor="middle" x="231.34" y="-46.18" font-family="Helvetica,sans-Serif" font-size="10.00" fill="#63b8ff">2</text>
</a>
</g>
</g>
<!-- dir_6591a8ca0b1ec78afa747e232353e174&#45;&gt;dir_af00538107c5bb6312b4379f7c6a7915 -->
<g id="edge6" class="edge">
<title>dir_6591a8ca0b1ec78afa747e232353e174&#45;&gt;dir_af00538107c5bb6312b4379f7c6a7915</title>
<g id="a_edge6"><a xlink:href="dir_000002_000012.html" target="_top">
<path fill="none" stroke="#63b8ff" d="M234.64,-70.98C243.51,-63.15 256.87,-51.34 267.61,-41.86"/>
<polygon fill="#63b8ff" stroke="#63b8ff" points="270.01,-44.41 275.18,-35.17 265.37,-39.17 270.01,-44.41"/>
</a>
</g>
<g id="a_edge6&#45;headlabel"><a xlink:href="dir_000002_000012.html" target="_top" xlink:title="1">
<text text-anchor="middle" x="269.19" y="-46.42" font-family="Helvetica,sans-Serif" font-size="10.00" fill="#63b8ff">1</text>
</a>
</g>
</g>
<!-- dir_6591a8ca0b1ec78afa747e232353e174&#45;&gt;dir_d593a792f6d68ad3cd00089cda4c9fbf -->
<g id="edge7" class="edge">
<title>dir_6591a8ca0b1ec78afa747e232353e174&#45;&gt;dir_d593a792f6d68ad3cd00089cda4c9fbf</title>
<g id="a_edge7"><a xlink:href="dir_000002_000011.html" target="_top">
<path fill="none" stroke="#63b8ff" d="M243.64,-70.98C262.85,-62.2 292.98,-48.44 314.64,-38.54"/>
<polygon fill="#63b8ff" stroke="#63b8ff" points="316.28,-41.64 323.92,-34.3 313.37,-35.28 316.28,-41.64"/>
</a>
</g>
<g id="a_edge7&#45;headlabel"><a xlink:href="dir_000002_000011.html" target="_top" xlink:title="1">
<text text-anchor="middle" x="314.19" y="-43.22" font-family="Helvetica,sans-Serif" font-size="10.00" fill="#63b8ff">1</text>
</a>
</g>
</g>
<!-- dir_9893f083cf503bf028f3909b7ee1aca3 -->
<g id="node8" class="node">
<title>dir_9893f083cf503bf028f3909b7ee1aca3</title>
<g id="a_node8"><a xlink:href="dir_9893f083cf503bf028f3909b7ee1aca3.html" target="_top" xlink:title="main">
<polygon fill="#edf0f7" stroke="#7f7f7f" points="417.5,-35 376.5,-35 376.5,-16 417.5,-16 417.5,-35"/>
<text text-anchor="middle" x="397" y="-23" font-family="Helvetica,sans-Serif" font-size="10.00">main</text>
</a>
</g>
</g>
<!-- dir_6591a8ca0b1ec78afa747e232353e174&#45;&gt;dir_9893f083cf503bf028f3909b7ee1aca3 -->
<g id="edge4" class="edge">
<title>dir_6591a8ca0b1ec78afa747e232353e174&#45;&gt;dir_9893f083cf503bf028f3909b7ee1aca3</title>
<g id="a_edge4"><a xlink:href="dir_000002_000008.html" target="_top">
<path fill="none" stroke="#63b8ff" d="M248.12,-72.46C274.9,-64.29 320.61,-50.32 366.82,-35.98"/>
<polygon fill="#63b8ff" stroke="#63b8ff" points="367.86,-39.32 376.37,-33.01 365.78,-32.64 367.86,-39.32"/>
</a>
</g>
<g id="a_edge4&#45;headlabel"><a xlink:href="dir_000002_000008.html" target="_top" xlink:title="2">
<text text-anchor="middle" x="365.27" y="-40.6" font-family="Helvetica,sans-Serif" font-size="10.00" fill="#63b8ff">2</text>
</a>
</g>
</g>
</g>
</svg>
