<?xml version="1.0" encoding="UTF-8" standalone="no"?>
<!DOCTYPE svg PUBLIC "-//W3C//DTD SVG 1.1//EN"
 "http://www.w3.org/Graphics/SVG/1.1/DTD/svg11.dtd">
<!-- Generated by graphviz version 2.43.0 (0)
 -->
<!-- Title: software/nixie_clock_esp32_project/components Pages: 1 -->
<svg width="504pt" height="259pt"
 viewBox="0.00 0.00 504.00 259.00" xmlns="http://www.w3.org/2000/svg" xmlns:xlink="http://www.w3.org/1999/xlink">
<g id="graph0" class="graph" transform="scale(1 1) rotate(0) translate(4 255)">
<title>software/nixie_clock_esp32_project/components</title>
<g id="clust1" class="cluster">
<title>clusterdir_4e80761515fcd0d8a8682b4ebda49685</title>
<g id="a_clust1"><a xlink:href="dir_4e80761515fcd0d8a8682b4ebda49685.html" target="_top" xlink:title="nixie_clock_esp32_project">
<polygon fill="#edf0f7" stroke="#7f7f7f" stroke-dasharray="5,2" points="8,-8 8,-243 488,-243 488,-8 8,-8"/>
<text text-anchor="middle" x="248" y="-231" font-family="Helvetica,sans-Serif" font-size="10.00">nixie_clock_esp32_project</text>
</a>
</g>
</g>
<g id="clust2" class="cluster">
<title>clusterdir_b181baf956279f894a730e459ce47bc5</title>
<g id="a_clust2"><a xlink:href="dir_b181baf956279f894a730e459ce47bc5.html" target="_top">
<polygon fill="#edf0f7" stroke="#404040" stroke-width="2" points="16,-16 16,-216 480,-216 480,-16 16,-16"/>
</a>
</g>
</g>
<!-- dir_b181baf956279f894a730e459ce47bc5 -->
<g id="node1" class="node">
<title>dir_b181baf956279f894a730e459ce47bc5</title>
<text text-anchor="middle" x="401" y="-196" font-family="Helvetica,sans-Serif" font-size="10.00">components</text>
</g>
<!-- dir_a13c4c485bb1701984d244429ad4ded1 -->
<g id="node2" class="node">
<title>dir_a13c4c485bb1701984d244429ad4ded1</title>
<g id="a_node2"><a xlink:href="dir_a13c4c485bb1701984d244429ad4ded1.html" target="_top" xlink:title="clock">
<polygon fill="#a2b4d6" stroke="#404040" points="472,-43 430,-43 430,-24 472,-24 472,-43"/>
<text text-anchor="middle" x="451" y="-31" font-family="Helvetica,sans-Serif" font-size="10.00">clock</text>
</a>
</g>
</g>
<!-- dir_2f8bb0b9567c99dc8a53f1db54ef1a1c -->
<g id="node3" class="node">
<title>dir_2f8bb0b9567c99dc8a53f1db54ef1a1c</title>
<g id="a_node3"><a xlink:href="dir_2f8bb0b9567c99dc8a53f1db54ef1a1c.html" target="_top" xlink:title="clock_task">
<polygon fill="#a2b4d6" stroke="#404040" points="214,-153 146,-153 146,-134 214,-134 214,-153"/>
<text text-anchor="middle" x="180" y="-141" font-family="Helvetica,sans-Serif" font-size="10.00">clock_task</text>
</a>
</g>
</g>
<!-- dir_2f8bb0b9567c99dc8a53f1db54ef1a1c&#45;&gt;dir_a13c4c485bb1701984d244429ad4ded1 -->
<g id="edge4" class="edge">
<title>dir_2f8bb0b9567c99dc8a53f1db54ef1a1c&#45;&gt;dir_a13c4c485bb1701984d244429ad4ded1</title>
<g id="a_edge4"><a xlink:href="dir_000001_000000.html" target="_top">
<path fill="none" stroke="#63b8ff" d="M212.6,-133.95C241.92,-125.89 285.95,-112.84 323,-98 333.21,-93.91 390.69,-65.02 425.06,-47.65"/>
<polygon fill="#63b8ff" stroke="#63b8ff" points="426.74,-50.72 434.08,-43.08 423.58,-44.47 426.74,-50.72"/>
</a>
</g>
<g id="a_edge4&#45;headlabel"><a xlink:href="dir_000001_000000.html" target="_top" xlink:title="1">
<text text-anchor="middle" x="424.81" y="-52.38" font-family="Helvetica,sans-Serif" font-size="10.00" fill="#63b8ff">1</text>
</a>
</g>
</g>
<!-- dir_6591a8ca0b1ec78afa747e232353e174 -->
<g id="node4" class="node">
<title>dir_6591a8ca0b1ec78afa747e232353e174</title>
<g id="a_node4"><a xlink:href="dir_6591a8ca0b1ec78afa747e232353e174.html" target="_top" xlink:title="config">
<polygon fill="#a2b4d6" stroke="#404040" points="418,-98 372,-98 372,-79 418,-79 418,-98"/>
<text text-anchor="middle" x="395" y="-86" font-family="Helvetica,sans-Serif" font-size="10.00">config</text>
</a>
</g>
</g>
<!-- dir_2f8bb0b9567c99dc8a53f1db54ef1a1c&#45;&gt;dir_6591a8ca0b1ec78afa747e232353e174 -->
<g id="edge3" class="edge">
<title>dir_2f8bb0b9567c99dc8a53f1db54ef1a1c&#45;&gt;dir_6591a8ca0b1ec78afa747e232353e174</title>
<g id="a_edge3"><a xlink:href="dir_000001_000003.html" target="_top">
<path fill="none" stroke="#63b8ff" d="M209.43,-133.98C249.37,-123.57 320.19,-106.15 361.92,-96.48"/>
<polygon fill="#63b8ff" stroke="#63b8ff" points="362.9,-99.85 371.87,-94.2 361.34,-93.03 362.9,-99.85"/>
</a>
</g>
<g id="a_edge3&#45;headlabel"><a xlink:href="dir_000001_000003.html" target="_top" xlink:title="1">
<text text-anchor="middle" x="360.04" y="-100.92" font-family="Helvetica,sans-Serif" font-size="10.00" fill="#63b8ff">1</text>
</a>
</g>
</g>
<!-- dir_25afab11bb9cc6587024a85a8f095e2f -->
<g id="node6" class="node">
<title>dir_25afab11bb9cc6587024a85a8f095e2f</title>
<g id="a_node6"><a xlink:href="dir_25afab11bb9cc6587024a85a8f095e2f.html" target="_top" xlink:title="display">
<polygon fill="#a2b4d6" stroke="#404040" points="228,-98 176,-98 176,-79 228,-79 228,-98"/>
<text text-anchor="middle" x="202" y="-86" font-family="Helvetica,sans-Serif" font-size="10.00">display</text>
</a>
</g>
</g>
<!-- dir_2f8bb0b9567c99dc8a53f1db54ef1a1c&#45;&gt;dir_25afab11bb9cc6587024a85a8f095e2f -->
<g id="edge1" class="edge">
<title>dir_2f8bb0b9567c99dc8a53f1db54ef1a1c&#45;&gt;dir_25afab11bb9cc6587024a85a8f095e2f</title>
<g id="a_edge1"><a xlink:href="dir_000001_000005.html" target="_top">
<path fill="none" stroke="#63b8ff" d="M183.63,-133.75C186.58,-126.65 190.83,-116.4 194.51,-107.56"/>
<polygon fill="#63b8ff" stroke="#63b8ff" points="197.83,-108.67 198.43,-98.09 191.37,-105.98 197.83,-108.67"/>
</a>
</g>
<g id="a_edge1&#45;headlabel"><a xlink:href="dir_000001_000005.html" target="_top" xlink:title="1">
<text text-anchor="middle" x="199.08" y="-110.58" font-family="Helvetica,sans-Serif" font-size="10.00" fill="#63b8ff">1</text>
</a>
</g>
</g>
<!-- dir_c8df9a83da56af1891de301214a2e601 -->
<g id="node8" class="node">
<title>dir_c8df9a83da56af1891de301214a2e601</title>
<g id="a_node8"><a xlink:href="dir_c8df9a83da56af1891de301214a2e601.html" target="_top" xlink:title="gpio_driver">
<polygon fill="#a2b4d6" stroke="#404040" points="203.5,-43 132.5,-43 132.5,-24 203.5,-24 203.5,-43"/>
<text text-anchor="middle" x="168" y="-31" font-family="Helvetica,sans-Serif" font-size="10.00">gpio_driver</text>
</a>
</g>
</g>
<!-- dir_2f8bb0b9567c99dc8a53f1db54ef1a1c&#45;&gt;dir_c8df9a83da56af1891de301214a2e601 -->
<g id="edge5" class="edge">
<title>dir_2f8bb0b9567c99dc8a53f1db54ef1a1c&#45;&gt;dir_c8df9a83da56af1891de301214a2e601</title>
<g id="a_edge5"><a xlink:href="dir_000001_000007.html" target="_top">
<path fill="none" stroke="#63b8ff" d="M176.66,-133.8C173.45,-124.94 168.82,-110.75 167,-98 164.87,-83.13 165.29,-66.09 166.15,-53.41"/>
<polygon fill="#63b8ff" stroke="#63b8ff" points="169.66,-53.44 167,-43.18 162.69,-52.86 169.66,-53.44"/>
</a>
</g>
<g id="a_edge5&#45;headlabel"><a xlink:href="dir_000001_000007.html" target="_top" xlink:title="1">
<text text-anchor="middle" x="172.19" y="-54.76" font-family="Helvetica,sans-Serif" font-size="10.00" fill="#63b8ff">1</text>
</a>
</g>
</g>
<!-- dir_6378bc349134a8014a09749f3432f8e2 -->
<g id="node9" class="node">
<title>dir_6378bc349134a8014a09749f3432f8e2</title>
<g id="a_node9"><a xlink:href="dir_6378bc349134a8014a09749f3432f8e2.html" target="_top" xlink:title="gpio_task">
<polygon fill="#a2b4d6" stroke="#404040" points="138,-98 74,-98 74,-79 138,-79 138,-98"/>
<text text-anchor="middle" x="106" y="-86" font-family="Helvetica,sans-Serif" font-size="10.00">gpio_task</text>
</a>
</g>
</g>
<!-- dir_2f8bb0b9567c99dc8a53f1db54ef1a1c&#45;&gt;dir_6378bc349134a8014a09749f3432f8e2 -->
<g id="edge2" class="edge">
<title>dir_2f8bb0b9567c99dc8a53f1db54ef1a1c&#45;&gt;dir_6378bc349134a8014a09749f3432f8e2</title>
<g id="a_edge2"><a xlink:href="dir_000001_000008.html" target="_top">
<path fill="none" stroke="#63b8ff" d="M168.11,-133.98C156.85,-125.92 139.71,-113.65 126.29,-104.03"/>
<polygon fill="#63b8ff" stroke="#63b8ff" points="128.27,-101.15 118.11,-98.17 124.2,-106.84 128.27,-101.15"/>
</a>
</g>
<g id="a_edge2&#45;headlabel"><a xlink:href="dir_000001_000008.html" target="_top" xlink:title="1">
<text text-anchor="middle" x="132.85" y="-98.43" font-family="Helvetica,sans-Serif" font-size="10.00" fill="#63b8ff">1</text>
</a>
</g>
</g>
<!-- dir_ee50860190fe62f2e35dcf8898f9d9d7 -->
<g id="node14" class="node">
<title>dir_ee50860190fe62f2e35dcf8898f9d9d7</title>
<g id="a_node14"><a xlink:href="dir_ee50860190fe62f2e35dcf8898f9d9d7.html" target="_top" xlink:title="rotary_encoder">
<polygon fill="#a2b4d6" stroke="#404040" points="114,-43 24,-43 24,-24 114,-24 114,-43"/>
<text text-anchor="middle" x="69" y="-31" font-family="Helvetica,sans-Serif" font-size="10.00">rotary_encoder</text>
</a>
</g>
</g>
<!-- dir_2f8bb0b9567c99dc8a53f1db54ef1a1c&#45;&gt;dir_ee50860190fe62f2e35dcf8898f9d9d7 -->
<g id="edge6" class="edge">
<title>dir_2f8bb0b9567c99dc8a53f1db54ef1a1c&#45;&gt;dir_ee50860190fe62f2e35dcf8898f9d9d7</title>
<g id="a_edge6"><a xlink:href="dir_000001_000015.html" target="_top">
<path fill="none" stroke="#63b8ff" d="M145.97,-139.47C119.03,-135.07 83.03,-124.31 65,-98 56.03,-84.91 58.38,-66.53 62.18,-52.9"/>
<polygon fill="#63b8ff" stroke="#63b8ff" points="65.57,-53.79 65.34,-43.19 58.92,-51.62 65.57,-53.79"/>
</a>
</g>
<g id="a_edge6&#45;headlabel"><a xlink:href="dir_000001_000015.html" target="_top" xlink:title="1">
<text text-anchor="middle" x="67.16" y="-55.58" font-family="Helvetica,sans-Serif" font-size="10.00" fill="#63b8ff">1</text>
</a>
</g>
</g>
<!-- dir_6591a8ca0b1ec78afa747e232353e174&#45;&gt;dir_a13c4c485bb1701984d244429ad4ded1 -->
<g id="edge9" class="edge">
<title>dir_6591a8ca0b1ec78afa747e232353e174&#45;&gt;dir_a13c4c485bb1701984d244429ad4ded1</title>
<g id="a_edge9"><a xlink:href="dir_000003_000000.html" target="_top">
<path fill="none" stroke="#63b8ff" d="M404,-78.98C412.19,-71.23 424.51,-59.58 434.47,-50.14"/>
<polygon fill="#63b8ff" stroke="#63b8ff" points="436.98,-52.59 441.84,-43.17 432.17,-47.5 436.98,-52.59"/>
</a>
</g>
<g id="a_edge9&#45;headlabel"><a xlink:href="dir_000003_000000.html" target="_top" xlink:title="1">
<text text-anchor="middle" x="436.32" y="-54.62" font-family="Helvetica,sans-Serif" font-size="10.00" fill="#63b8ff">1</text>
</a>
</g>
</g>
<!-- dir_6591a8ca0b1ec78afa747e232353e174&#45;&gt;dir_2f8bb0b9567c99dc8a53f1db54ef1a1c -->
<g id="edge7" class="edge">
<title>dir_6591a8ca0b1ec78afa747e232353e174&#45;&gt;dir_2f8bb0b9567c99dc8a53f1db54ef1a1c</title>
<g id="a_edge7"><a xlink:href="dir_000003_000001.html" target="_top">
<path fill="none" stroke="#63b8ff" d="M371.98,-96.34C336.66,-105.66 268.94,-122.4 224.03,-132.96"/>
<polygon fill="#63b8ff" stroke="#63b8ff" points="223.2,-129.56 214.26,-135.24 224.79,-136.38 223.2,-129.56"/>
</a>
</g>
<g id="a_edge7&#45;headlabel"><a xlink:href="dir_000003_000001.html" target="_top" xlink:title="1">
<text text-anchor="middle" x="226.06" y="-123.48" font-family="Helvetica,sans-Serif" font-size="10.00" fill="#63b8ff">1</text>
</a>
</g>
</g>
<!-- dir_3df67f4185c8cd9c27353f35f3bf503b -->
<g id="node7" class="node">
<title>dir_3df67f4185c8cd9c27353f35f3bf503b</title>
<g id="a_node7"><a xlink:href="dir_3df67f4185c8cd9c27353f35f3bf503b.html" target="_top" xlink:title="event_bus">
<polygon fill="#a2b4d6" stroke="#404040" points="359.5,-43 292.5,-43 292.5,-24 359.5,-24 359.5,-43"/>
<text text-anchor="middle" x="326" y="-31" font-family="Helvetica,sans-Serif" font-size="10.00">event_bus</text>
</a>
</g>
</g>
<!-- dir_6591a8ca0b1ec78afa747e232353e174&#45;&gt;dir_3df67f4185c8cd9c27353f35f3bf503b -->
<g id="edge8" class="edge">
<title>dir_6591a8ca0b1ec78afa747e232353e174&#45;&gt;dir_3df67f4185c8cd9c27353f35f3bf503b</title>
<g id="a_edge8"><a xlink:href="dir_000003_000006.html" target="_top">
<path fill="none" stroke="#63b8ff" d="M383.91,-78.98C373.51,-71 357.74,-58.88 345.28,-49.31"/>
<polygon fill="#63b8ff" stroke="#63b8ff" points="347.35,-46.49 337.29,-43.17 343.09,-52.04 347.35,-46.49"/>
</a>
</g>
<g id="a_edge8&#45;headlabel"><a xlink:href="dir_000003_000006.html" target="_top" xlink:title="1">
<text text-anchor="middle" x="351.93" y="-43.92" font-family="Helvetica,sans-Serif" font-size="10.00" fill="#63b8ff">1</text>
</a>
</g>
</g>
<!-- dir_d593a792f6d68ad3cd00089cda4c9fbf -->
<g id="node12" class="node">
<title>dir_d593a792f6d68ad3cd00089cda4c9fbf</title>
<g id="a_node12"><a xlink:href="dir_d593a792f6d68ad3cd00089cda4c9fbf.html" target="_top" xlink:title="nvs">
<polygon fill="#a2b4d6" stroke="#404040" points="412,-43 378,-43 378,-24 412,-24 412,-43"/>
<text text-anchor="middle" x="395" y="-31" font-family="Helvetica,sans-Serif" font-size="10.00">nvs</text>
</a>
</g>
</g>
<!-- dir_6591a8ca0b1ec78afa747e232353e174&#45;&gt;dir_d593a792f6d68ad3cd00089cda4c9fbf -->
<g id="edge10" class="edge">
<title>dir_6591a8ca0b1ec78afa747e232353e174&#45;&gt;dir_d593a792f6d68ad3cd00089cda4c9fbf</title>
<g id="a_edge10"><a xlink:href="dir_000003_000013.html" target="_top">
<path fill="none" stroke="#63b8ff" d="M395,-78.75C395,-71.8 395,-61.85 395,-53.13"/>
<polygon fill="#63b8ff" stroke="#63b8ff" points="398.5,-53.09 395,-43.09 391.5,-53.09 398.5,-53.09"/>
</a>
</g>
<g id="a_edge10&#45;headlabel"><a xlink:href="dir_000003_000013.html" target="_top" xlink:title="1">
<text text-anchor="middle" x="401.34" y="-54.18" font-family="Helvetica,sans-Serif" font-size="10.00" fill="#63b8ff">1</text>
</a>
</g>
</g>
<!-- dir_bfdcce58a23cc395bda28f665cadf99d -->
<g id="node5" class="node">
<title>dir_bfdcce58a23cc395bda28f665cadf99d</title>
<g id="a_node5"><a xlink:href="dir_bfdcce58a23cc395bda28f665cadf99d.html" target="_top" xlink:title="dispatcher">
<polygon fill="#a2b4d6" stroke="#404040" points="314,-98 246,-98 246,-79 314,-79 314,-98"/>
<text text-anchor="middle" x="280" y="-86" font-family="Helvetica,sans-Serif" font-size="10.00">dispatcher</text>
</a>
</g>
</g>
<!-- dir_bfdcce58a23cc395bda28f665cadf99d&#45;&gt;dir_3df67f4185c8cd9c27353f35f3bf503b -->
<g id="edge11" class="edge">
<title>dir_bfdcce58a23cc395bda28f665cadf99d&#45;&gt;dir_3df67f4185c8cd9c27353f35f3bf503b</title>
<g id="a_edge11"><a xlink:href="dir_000004_000006.html" target="_top">
<path fill="none" stroke="#63b8ff" d="M287.6,-78.75C294.16,-71.18 303.82,-60.05 311.81,-50.84"/>
<polygon fill="#63b8ff" stroke="#63b8ff" points="314.63,-52.94 318.55,-43.09 309.35,-48.35 314.63,-52.94"/>
</a>
</g>
<g id="a_edge11&#45;headlabel"><a xlink:href="dir_000004_000006.html" target="_top" xlink:title="2">
<text text-anchor="middle" x="314.42" y="-55.01" font-family="Helvetica,sans-Serif" font-size="10.00" fill="#63b8ff">2</text>
</a>
</g>
</g>
<!-- dir_fb7d8fb2e7a81481fd306fa505fa505b -->
<g id="node10" class="node">
<title>dir_fb7d8fb2e7a81481fd306fa505fa505b</title>
<g id="a_node10"><a xlink:href="dir_fb7d8fb2e7a81481fd306fa505fa505b.html" target="_top" xlink:title="hv5622">
<polygon fill="#a2b4d6" stroke="#404040" points="274.5,-43 221.5,-43 221.5,-24 274.5,-24 274.5,-43"/>
<text text-anchor="middle" x="248" y="-31" font-family="Helvetica,sans-Serif" font-size="10.00">hv5622</text>
</a>
</g>
</g>
<!-- dir_25afab11bb9cc6587024a85a8f095e2f&#45;&gt;dir_fb7d8fb2e7a81481fd306fa505fa505b -->
<g id="edge12" class="edge">
<title>dir_25afab11bb9cc6587024a85a8f095e2f&#45;&gt;dir_fb7d8fb2e7a81481fd306fa505fa505b</title>
<g id="a_edge12"><a xlink:href="dir_000005_000009.html" target="_top">
<path fill="none" stroke="#63b8ff" d="M209.6,-78.75C216.16,-71.18 225.82,-60.05 233.81,-50.84"/>
<polygon fill="#63b8ff" stroke="#63b8ff" points="236.63,-52.94 240.55,-43.09 231.35,-48.35 236.63,-52.94"/>
</a>
</g>
<g id="a_edge12&#45;headlabel"><a xlink:href="dir_000005_000009.html" target="_top" xlink:title="1">
<text text-anchor="middle" x="236.42" y="-55.01" font-family="Helvetica,sans-Serif" font-size="10.00" fill="#63b8ff">1</text>
</a>
</g>
</g>
<!-- dir_6378bc349134a8014a09749f3432f8e2&#45;&gt;dir_3df67f4185c8cd9c27353f35f3bf503b -->
<g id="edge13" class="edge">
<title>dir_6378bc349134a8014a09749f3432f8e2&#45;&gt;dir_3df67f4185c8cd9c27353f35f3bf503b</title>
<g id="a_edge13"><a xlink:href="dir_000008_000006.html" target="_top">
<path fill="none" stroke="#63b8ff" d="M138.46,-79.68C176.64,-70.48 240.16,-55.18 282.56,-44.97"/>
<polygon fill="#63b8ff" stroke="#63b8ff" points="283.42,-48.36 292.32,-42.61 281.78,-41.55 283.42,-48.36"/>
</a>
</g>
<g id="a_edge13&#45;headlabel"><a xlink:href="dir_000008_000006.html" target="_top" xlink:title="1">
<text text-anchor="middle" x="280.59" y="-49.46" font-family="Helvetica,sans-Serif" font-size="10.00" fill="#63b8ff">1</text>
</a>
</g>
</g>
<!-- dir_6378bc349134a8014a09749f3432f8e2&#45;&gt;dir_c8df9a83da56af1891de301214a2e601 -->
<g id="edge14" class="edge">
<title>dir_6378bc349134a8014a09749f3432f8e2&#45;&gt;dir_c8df9a83da56af1891de301214a2e601</title>
<g id="a_edge14"><a xlink:href="dir_000008_000007.html" target="_top">
<path fill="none" stroke="#63b8ff" d="M115.96,-78.98C125.13,-71.15 138.94,-59.34 150.03,-49.86"/>
<polygon fill="#63b8ff" stroke="#63b8ff" points="152.53,-52.33 157.86,-43.17 147.98,-47.01 152.53,-52.33"/>
</a>
</g>
<g id="a_edge14&#45;headlabel"><a xlink:href="dir_000008_000007.html" target="_top" xlink:title="2">
<text text-anchor="middle" x="151.64" y="-54.32" font-family="Helvetica,sans-Serif" font-size="10.00" fill="#63b8ff">2</text>
</a>
</g>
</g>
<!-- dir_6378bc349134a8014a09749f3432f8e2&#45;&gt;dir_ee50860190fe62f2e35dcf8898f9d9d7 -->
<g id="edge15" class="edge">
<title>dir_6378bc349134a8014a09749f3432f8e2&#45;&gt;dir_ee50860190fe62f2e35dcf8898f9d9d7</title>
<g id="a_edge15"><a xlink:href="dir_000008_000015.html" target="_top">
<path fill="none" stroke="#63b8ff" d="M99.89,-78.75C94.72,-71.34 87.15,-60.5 80.81,-51.41"/>
<polygon fill="#63b8ff" stroke="#63b8ff" points="83.59,-49.29 75,-43.09 77.85,-53.29 83.59,-49.29"/>
</a>
</g>
<g id="a_edge15&#45;headlabel"><a xlink:href="dir_000008_000015.html" target="_top" xlink:title="2">
<text text-anchor="middle" x="87.98" y="-48.11" font-family="Helvetica,sans-Serif" font-size="10.00" fill="#63b8ff">2</text>
</a>
</g>
</g>
<!-- dir_8938040af9d266be553d1135477b804d -->
<g id="node11" class="node">
<title>dir_8938040af9d266be553d1135477b804d</title>
<g id="a_node11"><a xlink:href="dir_8938040af9d266be553d1135477b804d.html" target="_top" xlink:title="ntp">
<polygon fill="#a2b4d6" stroke="#404040" points="281,-208 249,-208 249,-189 281,-189 281,-208"/>
<text text-anchor="middle" x="265" y="-196" font-family="Helvetica,sans-Serif" font-size="10.00">ntp</text>
</a>
</g>
</g>
<!-- dir_8938040af9d266be553d1135477b804d&#45;&gt;dir_a13c4c485bb1701984d244429ad4ded1 -->
<g id="edge19" class="edge">
<title>dir_8938040af9d266be553d1135477b804d&#45;&gt;dir_a13c4c485bb1701984d244429ad4ded1</title>
<g id="a_edge19"><a xlink:href="dir_000012_000000.html" target="_top">
<path fill="none" stroke="#63b8ff" d="M281.01,-196.36C323.67,-192.96 438.41,-181.29 461,-153 483.99,-124.2 470.06,-77.95 459.52,-52.59"/>
<polygon fill="#63b8ff" stroke="#63b8ff" points="462.57,-50.84 455.32,-43.11 456.17,-53.67 462.57,-50.84"/>
</a>
</g>
<g id="a_edge19&#45;headlabel"><a xlink:href="dir_000012_000000.html" target="_top" xlink:title="1">
<text text-anchor="middle" x="466.62" y="-50.48" font-family="Helvetica,sans-Serif" font-size="10.00" fill="#63b8ff">1</text>
</a>
</g>
</g>
<!-- dir_8938040af9d266be553d1135477b804d&#45;&gt;dir_2f8bb0b9567c99dc8a53f1db54ef1a1c -->
<g id="edge16" class="edge">
<title>dir_8938040af9d266be553d1135477b804d&#45;&gt;dir_2f8bb0b9567c99dc8a53f1db54ef1a1c</title>
<g id="a_edge16"><a xlink:href="dir_000012_000001.html" target="_top">
<path fill="none" stroke="#63b8ff" d="M251.34,-188.98C238.16,-180.77 217.97,-168.18 202.43,-158.49"/>
<polygon fill="#63b8ff" stroke="#63b8ff" points="204.24,-155.49 193.91,-153.17 200.54,-161.43 204.24,-155.49"/>
</a>
</g>
<g id="a_edge16&#45;headlabel"><a xlink:href="dir_000012_000001.html" target="_top" xlink:title="1">
<text text-anchor="middle" x="208.8" y="-152.48" font-family="Helvetica,sans-Serif" font-size="10.00" fill="#63b8ff">1</text>
</a>
</g>
</g>
<!-- dir_8938040af9d266be553d1135477b804d&#45;&gt;dir_6591a8ca0b1ec78afa747e232353e174 -->
<g id="edge18" class="edge">
<title>dir_8938040af9d266be553d1135477b804d&#45;&gt;dir_6591a8ca0b1ec78afa747e232353e174</title>
<g id="a_edge18"><a xlink:href="dir_000012_000003.html" target="_top">
<path fill="none" stroke="#63b8ff" d="M281.02,-196.94C308.12,-195.04 362.63,-186.96 389,-153 398.66,-140.56 399.44,-122.35 398.22,-108.62"/>
<polygon fill="#63b8ff" stroke="#63b8ff" points="401.65,-107.82 396.88,-98.36 394.71,-108.73 401.65,-107.82"/>
</a>
</g>
<g id="a_edge18&#45;headlabel"><a xlink:href="dir_000012_000003.html" target="_top" xlink:title="1">
<text text-anchor="middle" x="404.93" y="-108.52" font-family="Helvetica,sans-Serif" font-size="10.00" fill="#63b8ff">1</text>
</a>
</g>
</g>
<!-- dir_8938040af9d266be553d1135477b804d&#45;&gt;dir_3df67f4185c8cd9c27353f35f3bf503b -->
<g id="edge17" class="edge">
<title>dir_8938040af9d266be553d1135477b804d&#45;&gt;dir_3df67f4185c8cd9c27353f35f3bf503b</title>
<g id="a_edge17"><a xlink:href="dir_000012_000006.html" target="_top">
<path fill="none" stroke="#63b8ff" d="M257.32,-188.7C247.11,-175.86 231.6,-151.64 243,-134 264.17,-101.26 301.06,-130.23 323,-98 331.83,-85.03 331.78,-66.88 329.98,-53.3"/>
<polygon fill="#63b8ff" stroke="#63b8ff" points="333.39,-52.44 328.23,-43.19 326.49,-53.64 333.39,-52.44"/>
</a>
</g>
<g id="a_edge17&#45;headlabel"><a xlink:href="dir_000012_000006.html" target="_top" xlink:title="1">
<text text-anchor="middle" x="336.8" y="-53" font-family="Helvetica,sans-Serif" font-size="10.00" fill="#63b8ff">1</text>
</a>
</g>
</g>
<!-- dir_af00538107c5bb6312b4379f7c6a7915 -->
<g id="node13" class="node">
<title>dir_af00538107c5bb6312b4379f7c6a7915</title>
<g id="a_node13"><a xlink:href="dir_af00538107c5bb6312b4379f7c6a7915.html" target="_top" xlink:title="pwm">
<polygon fill="#a2b4d6" stroke="#404040" points="379.5,-153 338.5,-153 338.5,-134 379.5,-134 379.5,-153"/>
<text text-anchor="middle" x="359" y="-141" font-family="Helvetica,sans-Serif" font-size="10.00">pwm</text>
</a>
</g>
</g>
<!-- dir_af00538107c5bb6312b4379f7c6a7915&#45;&gt;dir_6591a8ca0b1ec78afa747e232353e174 -->
<g id="edge20" class="edge">
<title>dir_af00538107c5bb6312b4379f7c6a7915&#45;&gt;dir_6591a8ca0b1ec78afa747e232353e174</title>
<g id="a_edge20"><a xlink:href="dir_000014_000003.html" target="_top">
<path fill="none" stroke="#63b8ff" d="M364.94,-133.75C369.98,-126.34 377.34,-115.5 383.51,-106.41"/>
<polygon fill="#63b8ff" stroke="#63b8ff" points="386.44,-108.33 389.17,-98.09 380.65,-104.39 386.44,-108.33"/>
</a>
</g>
<g id="a_edge20&#45;headlabel"><a xlink:href="dir_000014_000003.html" target="_top" xlink:title="1">
<text text-anchor="middle" x="386.77" y="-110.4" font-family="Helvetica,sans-Serif" font-size="10.00" fill="#63b8ff">1</text>
</a>
</g>
</g>
<!-- dir_e358256436063faffb66e4cd4d1bf7a0 -->
<g id="node15" class="node">
<title>dir_e358256436063faffb66e4cd4d1bf7a0</title>
<g id="a_node15"><a xlink:href="dir_e358256436063faffb66e4cd4d1bf7a0.html" target="_top" xlink:title="uart">
<polygon fill="#a2b4d6" stroke="#404040" points="162,-208 126,-208 126,-189 162,-189 162,-208"/>
<text text-anchor="middle" x="144" y="-196" font-family="Helvetica,sans-Serif" font-size="10.00">uart</text>
</a>
</g>
</g>
<!-- dir_54c3fa7b37971d51e57fc618a8a47b11 -->
<g id="node16" class="node">
<title>dir_54c3fa7b37971d51e57fc618a8a47b11</title>
<g id="a_node16"><a xlink:href="dir_54c3fa7b37971d51e57fc618a8a47b11.html" target="_top" xlink:title="webserver">
<polygon fill="#a2b4d6" stroke="#404040" points="320,-153 252,-153 252,-134 320,-134 320,-153"/>
<text text-anchor="middle" x="286" y="-141" font-family="Helvetica,sans-Serif" font-size="10.00">webserver</text>
</a>
</g>
</g>
<!-- dir_54c3fa7b37971d51e57fc618a8a47b11&#45;&gt;dir_6591a8ca0b1ec78afa747e232353e174 -->
<g id="edge21" class="edge">
<title>dir_54c3fa7b37971d51e57fc618a8a47b11&#45;&gt;dir_6591a8ca0b1ec78afa747e232353e174</title>
<g id="a_edge21"><a xlink:href="dir_000018_000003.html" target="_top">
<path fill="none" stroke="#63b8ff" d="M303.51,-133.98C320.97,-125.5 348.01,-112.35 368.17,-102.54"/>
<polygon fill="#63b8ff" stroke="#63b8ff" points="369.71,-105.69 377.17,-98.17 366.64,-99.4 369.71,-105.69"/>
</a>
</g>
<g id="a_edge21&#45;headlabel"><a xlink:href="dir_000018_000003.html" target="_top" xlink:title="1">
<text text-anchor="middle" x="367.71" y="-107.32" font-family="Helvetica,sans-Serif" font-size="10.00" fill="#63b8ff">1</text>
</a>
</g>
</g>
<!-- dir_27a09bb4329d836898ad2e41b0fca487 -->
<g id="node17" class="node">
<title>dir_27a09bb4329d836898ad2e41b0fca487</title>
<g id="a_node17"><a xlink:href="dir_27a09bb4329d836898ad2e41b0fca487.html" target="_top" xlink:title="wifi">
<polygon fill="#a2b4d6" stroke="#404040" points="452,-153 418,-153 418,-134 452,-134 452,-153"/>
<text text-anchor="middle" x="435" y="-141" font-family="Helvetica,sans-Serif" font-size="10.00">wifi</text>
</a>
</g>
</g>
<!-- dir_27a09bb4329d836898ad2e41b0fca487&#45;&gt;dir_6591a8ca0b1ec78afa747e232353e174 -->
<g id="edge22" class="edge">
<title>dir_27a09bb4329d836898ad2e41b0fca487&#45;&gt;dir_6591a8ca0b1ec78afa747e232353e174</title>
<g id="a_edge22"><a xlink:href="dir_000019_000003.html" target="_top">
<path fill="none" stroke="#63b8ff" d="M428.39,-133.75C422.74,-126.26 414.46,-115.28 407.55,-106.13"/>
<polygon fill="#63b8ff" stroke="#63b8ff" points="410.3,-103.96 401.48,-98.09 404.71,-108.18 410.3,-103.96"/>
</a>
</g>
<g id="a_edge22&#45;headlabel"><a xlink:href="dir_000019_000003.html" target="_top" xlink:title="1">
<text text-anchor="middle" x="414.73" y="-102.62" font-family="Helvetica,sans-Serif" font-size="10.00" fill="#63b8ff">1</text>
</a>
</g>
</g>
</g>
</svg>
