<?xml version="1.0" encoding="UTF-8" standalone="no"?>
<!DOCTYPE svg PUBLIC "-//W3C//DTD SVG 1.1//EN"
 "http://www.w3.org/Graphics/SVG/1.1/DTD/svg11.dtd">
<!-- Generated by graphviz version 2.43.0 (0)
 -->
<!-- Title: software/nixie_clock_esp32_project/components Pages: 1 -->
<svg width="704pt" height="251pt"
 viewBox="0.00 0.00 704.00 251.00" xmlns="http://www.w3.org/2000/svg" xmlns:xlink="http://www.w3.org/1999/xlink">
<g id="graph0" class="graph" transform="scale(1 1) rotate(0) translate(4 247)">
<title>software/nixie_clock_esp32_project/components</title>
<g id="clust1" class="cluster">
<title>clusterdir_4e80761515fcd0d8a8682b4ebda49685</title>
<g id="a_clust1"><a xlink:href="dir_4e80761515fcd0d8a8682b4ebda49685.html" target="_top" xlink:title="nixie_clock_esp32_project">
<polygon fill="#edf0f7" stroke="#7f7f7f" stroke-dasharray="5,2" points="8,-8 8,-235 688,-235 688,-8 8,-8"/>
<text text-anchor="middle" x="348" y="-223" font-family="Helvetica,sans-Serif" font-size="10.00">nixie_clock_esp32_project</text>
</a>
</g>
</g>
<g id="clust2" class="cluster">
<title>clusterdir_b181baf956279f894a730e459ce47bc5</title>
<g id="a_clust2"><a xlink:href="dir_b181baf956279f894a730e459ce47bc5.html" target="_top">
<polygon fill="#edf0f7" stroke="#404040" stroke-width="2" points="16,-63 16,-208 680,-208 680,-63 16,-63"/>
</a>
</g>
</g>
<!-- dir_9893f083cf503bf028f3909b7ee1aca3 -->
<g id="node1" class="node">
<title>dir_9893f083cf503bf028f3909b7ee1aca3</title>
<g id="a_node1"><a xlink:href="dir_9893f083cf503bf028f3909b7ee1aca3.html" target="_top" xlink:title="main">
<polygon fill="#a2b4d6" stroke="#404040" points="425.5,-35 384.5,-35 384.5,-16 425.5,-16 425.5,-35"/>
<text text-anchor="middle" x="405" y="-23" font-family="Helvetica,sans-Serif" font-size="10.00">main</text>
</a>
</g>
</g>
<!-- dir_b181baf956279f894a730e459ce47bc5 -->
<g id="node2" class="node">
<title>dir_b181baf956279f894a730e459ce47bc5</title>
<text text-anchor="middle" x="633" y="-188" font-family="Helvetica,sans-Serif" font-size="10.00">components</text>
</g>
<!-- dir_a13c4c485bb1701984d244429ad4ded1 -->
<g id="node3" class="node">
<title>dir_a13c4c485bb1701984d244429ad4ded1</title>
<g id="a_node3"><a xlink:href="dir_a13c4c485bb1701984d244429ad4ded1.html" target="_top" xlink:title="clock">
<polygon fill="#a2b4d6" stroke="#404040" points="283,-90 241,-90 241,-71 283,-71 283,-90"/>
<text text-anchor="middle" x="262" y="-78" font-family="Helvetica,sans-Serif" font-size="10.00">clock</text>
</a>
</g>
</g>
<!-- dir_6591a8ca0b1ec78afa747e232353e174 -->
<g id="node4" class="node">
<title>dir_6591a8ca0b1ec78afa747e232353e174</title>
<g id="a_node4"><a xlink:href="dir_6591a8ca0b1ec78afa747e232353e174.html" target="_top" xlink:title="config">
<polygon fill="#a2b4d6" stroke="#404040" points="349,-145 303,-145 303,-126 349,-126 349,-145"/>
<text text-anchor="middle" x="326" y="-133" font-family="Helvetica,sans-Serif" font-size="10.00">config</text>
</a>
</g>
</g>
<!-- dir_6591a8ca0b1ec78afa747e232353e174&#45;&gt;dir_9893f083cf503bf028f3909b7ee1aca3 -->
<g id="edge2" class="edge">
<title>dir_6591a8ca0b1ec78afa747e232353e174&#45;&gt;dir_9893f083cf503bf028f3909b7ee1aca3</title>
<g id="a_edge2"><a xlink:href="dir_000002_000008.html" target="_top">
<path fill="none" stroke="#63b8ff" d="M330.59,-125.75C338.04,-111.87 353.6,-84.22 370,-63 375.59,-55.77 382.42,-48.39 388.55,-42.17"/>
<polygon fill="#63b8ff" stroke="#63b8ff" points="391.14,-44.53 395.81,-35.02 386.23,-39.54 391.14,-44.53"/>
</a>
</g>
<g id="a_edge2&#45;headlabel"><a xlink:href="dir_000002_000008.html" target="_top" xlink:title="2">
<text text-anchor="middle" x="390.58" y="-46.58" font-family="Helvetica,sans-Serif" font-size="10.00" fill="#63b8ff">2</text>
</a>
</g>
</g>
<!-- dir_6591a8ca0b1ec78afa747e232353e174&#45;&gt;dir_a13c4c485bb1701984d244429ad4ded1 -->
<g id="edge3" class="edge">
<title>dir_6591a8ca0b1ec78afa747e232353e174&#45;&gt;dir_a13c4c485bb1701984d244429ad4ded1</title>
<g id="a_edge3"><a xlink:href="dir_000002_000000.html" target="_top">
<path fill="none" stroke="#63b8ff" d="M315.72,-125.98C306.16,-118.07 291.72,-106.11 280.22,-96.58"/>
<polygon fill="#63b8ff" stroke="#63b8ff" points="282.4,-93.85 272.47,-90.17 277.94,-99.24 282.4,-93.85"/>
</a>
</g>
<g id="a_edge3&#45;headlabel"><a xlink:href="dir_000002_000000.html" target="_top" xlink:title="1">
<text text-anchor="middle" x="286.98" y="-91.46" font-family="Helvetica,sans-Serif" font-size="10.00" fill="#63b8ff">1</text>
</a>
</g>
</g>
<!-- dir_3df67f4185c8cd9c27353f35f3bf503b -->
<g id="node7" class="node">
<title>dir_3df67f4185c8cd9c27353f35f3bf503b</title>
<g id="a_node7"><a xlink:href="dir_3df67f4185c8cd9c27353f35f3bf503b.html" target="_top" xlink:title="event_bus">
<polygon fill="#a2b4d6" stroke="#404040" points="220.5,-90 153.5,-90 153.5,-71 220.5,-71 220.5,-90"/>
<text text-anchor="middle" x="187" y="-78" font-family="Helvetica,sans-Serif" font-size="10.00">event_bus</text>
</a>
</g>
</g>
<!-- dir_6591a8ca0b1ec78afa747e232353e174&#45;&gt;dir_3df67f4185c8cd9c27353f35f3bf503b -->
<g id="edge1" class="edge">
<title>dir_6591a8ca0b1ec78afa747e232353e174&#45;&gt;dir_3df67f4185c8cd9c27353f35f3bf503b</title>
<g id="a_edge1"><a xlink:href="dir_000002_000005.html" target="_top">
<path fill="none" stroke="#63b8ff" d="M303.67,-125.98C280.8,-117.27 245.04,-103.63 219.14,-93.75"/>
<polygon fill="#63b8ff" stroke="#63b8ff" points="220.33,-90.46 209.74,-90.17 217.84,-97 220.33,-90.46"/>
</a>
</g>
<g id="a_edge1&#45;headlabel"><a xlink:href="dir_000002_000005.html" target="_top" xlink:title="1">
<text text-anchor="middle" x="224.7" y="-86.59" font-family="Helvetica,sans-Serif" font-size="10.00" fill="#63b8ff">1</text>
</a>
</g>
</g>
<!-- dir_d593a792f6d68ad3cd00089cda4c9fbf -->
<g id="node11" class="node">
<title>dir_d593a792f6d68ad3cd00089cda4c9fbf</title>
<g id="a_node11"><a xlink:href="dir_d593a792f6d68ad3cd00089cda4c9fbf.html" target="_top" xlink:title="nvs">
<polygon fill="#a2b4d6" stroke="#404040" points="336,-90 302,-90 302,-71 336,-71 336,-90"/>
<text text-anchor="middle" x="319" y="-78" font-family="Helvetica,sans-Serif" font-size="10.00">nvs</text>
</a>
</g>
</g>
<!-- dir_6591a8ca0b1ec78afa747e232353e174&#45;&gt;dir_d593a792f6d68ad3cd00089cda4c9fbf -->
<g id="edge4" class="edge">
<title>dir_6591a8ca0b1ec78afa747e232353e174&#45;&gt;dir_d593a792f6d68ad3cd00089cda4c9fbf</title>
<g id="a_edge4"><a xlink:href="dir_000002_000011.html" target="_top">
<path fill="none" stroke="#63b8ff" d="M324.84,-125.75C323.93,-118.8 322.61,-108.85 321.46,-100.13"/>
<polygon fill="#63b8ff" stroke="#63b8ff" points="324.91,-99.54 320.13,-90.09 317.97,-100.46 324.91,-99.54"/>
</a>
</g>
<g id="a_edge4&#45;headlabel"><a xlink:href="dir_000002_000011.html" target="_top" xlink:title="1">
<text text-anchor="middle" x="328.2" y="-100.24" font-family="Helvetica,sans-Serif" font-size="10.00" fill="#63b8ff">1</text>
</a>
</g>
</g>
<!-- dir_bfdcce58a23cc395bda28f665cadf99d -->
<g id="node5" class="node">
<title>dir_bfdcce58a23cc395bda28f665cadf99d</title>
<g id="a_node5"><a xlink:href="dir_bfdcce58a23cc395bda28f665cadf99d.html" target="_top" xlink:title="dispatcher">
<polygon fill="#a2b4d6" stroke="#404040" points="168,-145 100,-145 100,-126 168,-126 168,-145"/>
<text text-anchor="middle" x="134" y="-133" font-family="Helvetica,sans-Serif" font-size="10.00">dispatcher</text>
</a>
</g>
</g>
<!-- dir_bfdcce58a23cc395bda28f665cadf99d&#45;&gt;dir_3df67f4185c8cd9c27353f35f3bf503b -->
<g id="edge5" class="edge">
<title>dir_bfdcce58a23cc395bda28f665cadf99d&#45;&gt;dir_3df67f4185c8cd9c27353f35f3bf503b</title>
<g id="a_edge5"><a xlink:href="dir_000003_000005.html" target="_top">
<path fill="none" stroke="#63b8ff" d="M142.75,-125.75C150.47,-118.03 161.9,-106.6 171.22,-97.28"/>
<polygon fill="#63b8ff" stroke="#63b8ff" points="173.81,-99.64 178.41,-90.09 168.86,-94.69 173.81,-99.64"/>
</a>
</g>
<g id="a_edge5&#45;headlabel"><a xlink:href="dir_000003_000005.html" target="_top" xlink:title="2">
<text text-anchor="middle" x="173.28" y="-101.68" font-family="Helvetica,sans-Serif" font-size="10.00" fill="#63b8ff">2</text>
</a>
</g>
</g>
<!-- dir_25afab11bb9cc6587024a85a8f095e2f -->
<g id="node6" class="node">
<title>dir_25afab11bb9cc6587024a85a8f095e2f</title>
<g id="a_node6"><a xlink:href="dir_25afab11bb9cc6587024a85a8f095e2f.html" target="_top" xlink:title="display">
<polygon fill="#a2b4d6" stroke="#404040" points="76,-200 24,-200 24,-181 76,-181 76,-200"/>
<text text-anchor="middle" x="50" y="-188" font-family="Helvetica,sans-Serif" font-size="10.00">display</text>
</a>
</g>
</g>
<!-- dir_fb7d8fb2e7a81481fd306fa505fa505b -->
<g id="node9" class="node">
<title>dir_fb7d8fb2e7a81481fd306fa505fa505b</title>
<g id="a_node9"><a xlink:href="dir_fb7d8fb2e7a81481fd306fa505fa505b.html" target="_top" xlink:title="hv5622">
<polygon fill="#a2b4d6" stroke="#404040" points="77.5,-145 24.5,-145 24.5,-126 77.5,-126 77.5,-145"/>
<text text-anchor="middle" x="51" y="-133" font-family="Helvetica,sans-Serif" font-size="10.00">hv5622</text>
</a>
</g>
</g>
<!-- dir_25afab11bb9cc6587024a85a8f095e2f&#45;&gt;dir_fb7d8fb2e7a81481fd306fa505fa505b -->
<g id="edge6" class="edge">
<title>dir_25afab11bb9cc6587024a85a8f095e2f&#45;&gt;dir_fb7d8fb2e7a81481fd306fa505fa505b</title>
<g id="a_edge6"><a xlink:href="dir_000004_000007.html" target="_top">
<path fill="none" stroke="#63b8ff" d="M50.17,-180.75C50.3,-173.8 50.48,-163.85 50.65,-155.13"/>
<polygon fill="#63b8ff" stroke="#63b8ff" points="54.15,-155.15 50.84,-145.09 47.15,-155.02 54.15,-155.15"/>
</a>
</g>
<g id="a_edge6&#45;headlabel"><a xlink:href="dir_000004_000007.html" target="_top" xlink:title="1">
<text text-anchor="middle" x="56.92" y="-156.3" font-family="Helvetica,sans-Serif" font-size="10.00" fill="#63b8ff">1</text>
</a>
</g>
</g>
<!-- dir_c8df9a83da56af1891de301214a2e601 -->
<g id="node8" class="node">
<title>dir_c8df9a83da56af1891de301214a2e601</title>
<g id="a_node8"><a xlink:href="dir_c8df9a83da56af1891de301214a2e601.html" target="_top" xlink:title="gpio_driver">
<polygon fill="#a2b4d6" stroke="#404040" points="215.5,-200 144.5,-200 144.5,-181 215.5,-181 215.5,-200"/>
<text text-anchor="middle" x="180" y="-188" font-family="Helvetica,sans-Serif" font-size="10.00">gpio_driver</text>
</a>
</g>
</g>
<!-- dir_c8df9a83da56af1891de301214a2e601&#45;&gt;dir_9893f083cf503bf028f3909b7ee1aca3 -->
<g id="edge7" class="edge">
<title>dir_c8df9a83da56af1891de301214a2e601&#45;&gt;dir_9893f083cf503bf028f3909b7ee1aca3</title>
<g id="a_edge7"><a xlink:href="dir_000006_000008.html" target="_top">
<path fill="none" stroke="#63b8ff" d="M215.83,-182.57C271.79,-171.6 374.2,-150.86 380,-145 393.71,-131.14 400.67,-75.21 403.47,-45.41"/>
<polygon fill="#63b8ff" stroke="#63b8ff" points="406.99,-45.35 404.37,-35.08 400.02,-44.74 406.99,-45.35"/>
</a>
</g>
<g id="a_edge7&#45;headlabel"><a xlink:href="dir_000006_000008.html" target="_top" xlink:title="1">
<text text-anchor="middle" x="409.51" y="-46.68" font-family="Helvetica,sans-Serif" font-size="10.00" fill="#63b8ff">1</text>
</a>
</g>
</g>
<!-- dir_8938040af9d266be553d1135477b804d -->
<g id="node10" class="node">
<title>dir_8938040af9d266be553d1135477b804d</title>
<g id="a_node10"><a xlink:href="dir_8938040af9d266be553d1135477b804d.html" target="_top" xlink:title="ntp">
<polygon fill="#a2b4d6" stroke="#404040" points="126,-200 94,-200 94,-181 126,-181 126,-200"/>
<text text-anchor="middle" x="110" y="-188" font-family="Helvetica,sans-Serif" font-size="10.00">ntp</text>
</a>
</g>
</g>
<!-- dir_8938040af9d266be553d1135477b804d&#45;&gt;dir_9893f083cf503bf028f3909b7ee1aca3 -->
<g id="edge10" class="edge">
<title>dir_8938040af9d266be553d1135477b804d&#45;&gt;dir_9893f083cf503bf028f3909b7ee1aca3</title>
<g id="a_edge10"><a xlink:href="dir_000010_000008.html" target="_top">
<path fill="none" stroke="#63b8ff" d="M126.02,-183.61C128.98,-182.65 132.06,-181.73 135,-181 232.42,-156.76 279.72,-207.86 358,-145 366.18,-138.43 388.03,-76.57 398.81,-44.93"/>
<polygon fill="#63b8ff" stroke="#63b8ff" points="402.23,-45.74 402.12,-35.15 395.6,-43.5 402.23,-45.74"/>
</a>
</g>
<g id="a_edge10&#45;headlabel"><a xlink:href="dir_000010_000008.html" target="_top" xlink:title="2">
<text text-anchor="middle" x="403.77" y="-47.56" font-family="Helvetica,sans-Serif" font-size="10.00" fill="#63b8ff">2</text>
</a>
</g>
</g>
<!-- dir_8938040af9d266be553d1135477b804d&#45;&gt;dir_a13c4c485bb1701984d244429ad4ded1 -->
<g id="edge11" class="edge">
<title>dir_8938040af9d266be553d1135477b804d&#45;&gt;dir_a13c4c485bb1701984d244429ad4ded1</title>
<g id="a_edge11"><a xlink:href="dir_000010_000000.html" target="_top">
<path fill="none" stroke="#63b8ff" d="M126.2,-181.04C141.92,-172.59 166.24,-158.9 186,-145 207.36,-129.98 230.13,-110.43 245.11,-97.01"/>
<polygon fill="#63b8ff" stroke="#63b8ff" points="247.51,-99.56 252.58,-90.26 242.81,-94.37 247.51,-99.56"/>
</a>
</g>
<g id="a_edge11&#45;headlabel"><a xlink:href="dir_000010_000000.html" target="_top" xlink:title="1">
<text text-anchor="middle" x="246.75" y="-101.58" font-family="Helvetica,sans-Serif" font-size="10.00" fill="#63b8ff">1</text>
</a>
</g>
</g>
<!-- dir_8938040af9d266be553d1135477b804d&#45;&gt;dir_6591a8ca0b1ec78afa747e232353e174 -->
<g id="edge9" class="edge">
<title>dir_8938040af9d266be553d1135477b804d&#45;&gt;dir_6591a8ca0b1ec78afa747e232353e174</title>
<g id="a_edge9"><a xlink:href="dir_000010_000002.html" target="_top">
<path fill="none" stroke="#63b8ff" d="M126.06,-183.78C129.02,-182.8 132.09,-181.83 135,-181 189.76,-165.35 254.51,-151.15 292.81,-143.19"/>
<polygon fill="#63b8ff" stroke="#63b8ff" points="293.79,-146.56 302.88,-141.12 292.38,-139.71 293.79,-146.56"/>
</a>
</g>
<g id="a_edge9&#45;headlabel"><a xlink:href="dir_000010_000002.html" target="_top" xlink:title="1">
<text text-anchor="middle" x="290.84" y="-147.57" font-family="Helvetica,sans-Serif" font-size="10.00" fill="#63b8ff">1</text>
</a>
</g>
</g>
<!-- dir_8938040af9d266be553d1135477b804d&#45;&gt;dir_3df67f4185c8cd9c27353f35f3bf503b -->
<g id="edge8" class="edge">
<title>dir_8938040af9d266be553d1135477b804d&#45;&gt;dir_3df67f4185c8cd9c27353f35f3bf503b</title>
<g id="a_edge8"><a xlink:href="dir_000010_000005.html" target="_top">
<path fill="none" stroke="#63b8ff" d="M126.11,-183.35C141.78,-176.49 164.94,-163.81 177,-145 185.57,-131.64 187.7,-113.53 187.91,-100.07"/>
<polygon fill="#63b8ff" stroke="#63b8ff" points="191.41,-100 187.73,-90.06 184.41,-100.13 191.41,-100"/>
</a>
</g>
<g id="a_edge8&#45;headlabel"><a xlink:href="dir_000010_000005.html" target="_top" xlink:title="1">
<text text-anchor="middle" x="194.31" y="-101.04" font-family="Helvetica,sans-Serif" font-size="10.00" fill="#63b8ff">1</text>
</a>
</g>
</g>
<!-- dir_d593a792f6d68ad3cd00089cda4c9fbf&#45;&gt;dir_9893f083cf503bf028f3909b7ee1aca3 -->
<g id="edge12" class="edge">
<title>dir_d593a792f6d68ad3cd00089cda4c9fbf&#45;&gt;dir_9893f083cf503bf028f3909b7ee1aca3</title>
<g id="a_edge12"><a xlink:href="dir_000011_000008.html" target="_top">
<path fill="none" stroke="#63b8ff" d="M329.45,-70.78C332.74,-68.17 336.45,-65.37 340,-63 352.4,-54.72 366.8,-46.5 378.89,-39.96"/>
<polygon fill="#63b8ff" stroke="#63b8ff" points="380.83,-42.9 388.01,-35.11 377.54,-36.72 380.83,-42.9"/>
</a>
</g>
<g id="a_edge12&#45;headlabel"><a xlink:href="dir_000011_000008.html" target="_top" xlink:title="1">
<text text-anchor="middle" x="378.99" y="-44.59" font-family="Helvetica,sans-Serif" font-size="10.00" fill="#63b8ff">1</text>
</a>
</g>
</g>
<!-- dir_af00538107c5bb6312b4379f7c6a7915 -->
<g id="node12" class="node">
<title>dir_af00538107c5bb6312b4379f7c6a7915</title>
<g id="a_node12"><a xlink:href="dir_af00538107c5bb6312b4379f7c6a7915.html" target="_top" xlink:title="pwm">
<polygon fill="#a2b4d6" stroke="#404040" points="383.5,-200 342.5,-200 342.5,-181 383.5,-181 383.5,-200"/>
<text text-anchor="middle" x="363" y="-188" font-family="Helvetica,sans-Serif" font-size="10.00">pwm</text>
</a>
</g>
</g>
<!-- dir_af00538107c5bb6312b4379f7c6a7915&#45;&gt;dir_9893f083cf503bf028f3909b7ee1aca3 -->
<g id="edge14" class="edge">
<title>dir_af00538107c5bb6312b4379f7c6a7915&#45;&gt;dir_9893f083cf503bf028f3909b7ee1aca3</title>
<g id="a_edge14"><a xlink:href="dir_000012_000008.html" target="_top">
<path fill="none" stroke="#63b8ff" d="M373.29,-180.81C382.18,-172.61 394.44,-159.44 400,-145 412.79,-111.81 410.6,-69.46 407.82,-45.42"/>
<polygon fill="#63b8ff" stroke="#63b8ff" points="411.25,-44.67 406.47,-35.21 404.31,-45.58 411.25,-44.67"/>
</a>
</g>
<g id="a_edge14&#45;headlabel"><a xlink:href="dir_000012_000008.html" target="_top" xlink:title="1">
<text text-anchor="middle" x="414.53" y="-45.36" font-family="Helvetica,sans-Serif" font-size="10.00" fill="#63b8ff">1</text>
</a>
</g>
</g>
<!-- dir_af00538107c5bb6312b4379f7c6a7915&#45;&gt;dir_6591a8ca0b1ec78afa747e232353e174 -->
<g id="edge13" class="edge">
<title>dir_af00538107c5bb6312b4379f7c6a7915&#45;&gt;dir_6591a8ca0b1ec78afa747e232353e174</title>
<g id="a_edge13"><a xlink:href="dir_000012_000002.html" target="_top">
<path fill="none" stroke="#63b8ff" d="M356.89,-180.75C351.72,-173.34 344.15,-162.5 337.81,-153.41"/>
<polygon fill="#63b8ff" stroke="#63b8ff" points="340.59,-151.29 332,-145.09 334.85,-155.29 340.59,-151.29"/>
</a>
</g>
<g id="a_edge13&#45;headlabel"><a xlink:href="dir_000012_000002.html" target="_top" xlink:title="1">
<text text-anchor="middle" x="344.98" y="-150.11" font-family="Helvetica,sans-Serif" font-size="10.00" fill="#63b8ff">1</text>
</a>
</g>
</g>
<!-- dir_ee50860190fe62f2e35dcf8898f9d9d7 -->
<g id="node13" class="node">
<title>dir_ee50860190fe62f2e35dcf8898f9d9d7</title>
<g id="a_node13"><a xlink:href="dir_ee50860190fe62f2e35dcf8898f9d9d7.html" target="_top" xlink:title="rotary_encoder">
<polygon fill="#a2b4d6" stroke="#404040" points="324,-200 234,-200 234,-181 324,-181 324,-200"/>
<text text-anchor="middle" x="279" y="-188" font-family="Helvetica,sans-Serif" font-size="10.00">rotary_encoder</text>
</a>
</g>
</g>
<!-- dir_e358256436063faffb66e4cd4d1bf7a0 -->
<g id="node14" class="node">
<title>dir_e358256436063faffb66e4cd4d1bf7a0</title>
<g id="a_node14"><a xlink:href="dir_e358256436063faffb66e4cd4d1bf7a0.html" target="_top" xlink:title="uart">
<polygon fill="#a2b4d6" stroke="#404040" points="576,-200 540,-200 540,-181 576,-181 576,-200"/>
<text text-anchor="middle" x="558" y="-188" font-family="Helvetica,sans-Serif" font-size="10.00">uart</text>
</a>
</g>
</g>
<!-- dir_e358256436063faffb66e4cd4d1bf7a0&#45;&gt;dir_9893f083cf503bf028f3909b7ee1aca3 -->
<g id="edge15" class="edge">
<title>dir_e358256436063faffb66e4cd4d1bf7a0&#45;&gt;dir_9893f083cf503bf028f3909b7ee1aca3</title>
<g id="a_edge15"><a xlink:href="dir_000015_000008.html" target="_top">
<path fill="none" stroke="#63b8ff" d="M550.03,-180.87C531.06,-160.36 481.69,-107.08 440,-63 433.64,-56.27 426.58,-48.89 420.47,-42.54"/>
<polygon fill="#63b8ff" stroke="#63b8ff" points="422.84,-39.95 413.38,-35.17 417.79,-44.8 422.84,-39.95"/>
</a>
</g>
<g id="a_edge15&#45;headlabel"><a xlink:href="dir_000015_000008.html" target="_top" xlink:title="1">
<text text-anchor="middle" x="427.37" y="-38.07" font-family="Helvetica,sans-Serif" font-size="10.00" fill="#63b8ff">1</text>
</a>
</g>
</g>
<!-- dir_54c3fa7b37971d51e57fc618a8a47b11 -->
<g id="node15" class="node">
<title>dir_54c3fa7b37971d51e57fc618a8a47b11</title>
<g id="a_node15"><a xlink:href="dir_54c3fa7b37971d51e57fc618a8a47b11.html" target="_top" xlink:title="webserver">
<polygon fill="#a2b4d6" stroke="#404040" points="470,-200 402,-200 402,-181 470,-181 470,-200"/>
<text text-anchor="middle" x="436" y="-188" font-family="Helvetica,sans-Serif" font-size="10.00">webserver</text>
</a>
</g>
</g>
<!-- dir_54c3fa7b37971d51e57fc618a8a47b11&#45;&gt;dir_9893f083cf503bf028f3909b7ee1aca3 -->
<g id="edge17" class="edge">
<title>dir_54c3fa7b37971d51e57fc618a8a47b11&#45;&gt;dir_9893f083cf503bf028f3909b7ee1aca3</title>
<g id="a_edge17"><a xlink:href="dir_000016_000008.html" target="_top">
<path fill="none" stroke="#63b8ff" d="M435.69,-180.76C434.77,-160 431.4,-106.24 420,-63 418.38,-56.87 415.98,-50.41 413.56,-44.65"/>
<polygon fill="#63b8ff" stroke="#63b8ff" points="416.65,-42.98 409.38,-35.27 410.26,-45.83 416.65,-42.98"/>
</a>
</g>
<g id="a_edge17&#45;headlabel"><a xlink:href="dir_000016_000008.html" target="_top" xlink:title="1">
<text text-anchor="middle" x="420.71" y="-42.6" font-family="Helvetica,sans-Serif" font-size="10.00" fill="#63b8ff">1</text>
</a>
</g>
</g>
<!-- dir_54c3fa7b37971d51e57fc618a8a47b11&#45;&gt;dir_6591a8ca0b1ec78afa747e232353e174 -->
<g id="edge16" class="edge">
<title>dir_54c3fa7b37971d51e57fc618a8a47b11&#45;&gt;dir_6591a8ca0b1ec78afa747e232353e174</title>
<g id="a_edge16"><a xlink:href="dir_000016_000002.html" target="_top">
<path fill="none" stroke="#63b8ff" d="M418.33,-180.98C400.71,-172.5 373.42,-159.35 353.07,-149.54"/>
<polygon fill="#63b8ff" stroke="#63b8ff" points="354.52,-146.36 343.99,-145.17 351.48,-152.66 354.52,-146.36"/>
</a>
</g>
<g id="a_edge16&#45;headlabel"><a xlink:href="dir_000016_000002.html" target="_top" xlink:title="1">
<text text-anchor="middle" x="358.99" y="-142.86" font-family="Helvetica,sans-Serif" font-size="10.00" fill="#63b8ff">1</text>
</a>
</g>
</g>
<!-- dir_27a09bb4329d836898ad2e41b0fca487 -->
<g id="node16" class="node">
<title>dir_27a09bb4329d836898ad2e41b0fca487</title>
<g id="a_node16"><a xlink:href="dir_27a09bb4329d836898ad2e41b0fca487.html" target="_top" xlink:title="wifi">
<polygon fill="#a2b4d6" stroke="#404040" points="522,-200 488,-200 488,-181 522,-181 522,-200"/>
<text text-anchor="middle" x="505" y="-188" font-family="Helvetica,sans-Serif" font-size="10.00">wifi</text>
</a>
</g>
</g>
<!-- dir_27a09bb4329d836898ad2e41b0fca487&#45;&gt;dir_9893f083cf503bf028f3909b7ee1aca3 -->
<g id="edge19" class="edge">
<title>dir_27a09bb4329d836898ad2e41b0fca487&#45;&gt;dir_9893f083cf503bf028f3909b7ee1aca3</title>
<g id="a_edge19"><a xlink:href="dir_000017_000008.html" target="_top">
<path fill="none" stroke="#63b8ff" d="M499.62,-180.74C483.75,-154.87 436.89,-78.48 415.66,-43.88"/>
<polygon fill="#63b8ff" stroke="#63b8ff" points="418.62,-42 410.4,-35.31 412.65,-45.66 418.62,-42"/>
</a>
</g>
<g id="a_edge19&#45;headlabel"><a xlink:href="dir_000017_000008.html" target="_top" xlink:title="1">
<text text-anchor="middle" x="422.92" y="-41.08" font-family="Helvetica,sans-Serif" font-size="10.00" fill="#63b8ff">1</text>
</a>
</g>
</g>
<!-- dir_27a09bb4329d836898ad2e41b0fca487&#45;&gt;dir_6591a8ca0b1ec78afa747e232353e174 -->
<g id="edge18" class="edge">
<title>dir_27a09bb4329d836898ad2e41b0fca487&#45;&gt;dir_6591a8ca0b1ec78afa747e232353e174</title>
<g id="a_edge18"><a xlink:href="dir_000017_000002.html" target="_top">
<path fill="none" stroke="#63b8ff" d="M487.97,-183.83C484.98,-182.87 481.91,-181.89 479,-181 426.47,-164.91 410.56,-162.04 358.95,-146.76"/>
<polygon fill="#63b8ff" stroke="#63b8ff" points="359.84,-143.37 349.26,-143.87 357.84,-150.08 359.84,-143.37"/>
</a>
</g>
<g id="a_edge18&#45;headlabel"><a xlink:href="dir_000017_000002.html" target="_top" xlink:title="1">
<text text-anchor="middle" x="364.1" y="-139.18" font-family="Helvetica,sans-Serif" font-size="10.00" fill="#63b8ff">1</text>
</a>
</g>
</g>
</g>
</svg>
