<?xml version="1.0" encoding="UTF-8" standalone="no"?>
<!DOCTYPE svg PUBLIC "-//W3C//DTD SVG 1.1//EN"
 "http://www.w3.org/Graphics/SVG/1.1/DTD/svg11.dtd">
<!-- Generated by graphviz version 2.43.0 (0)
 -->
<!-- Title: software/nixie_clock_esp32_project/components Pages: 1 -->
<svg width="592pt" height="259pt"
 viewBox="0.00 0.00 592.00 259.00" xmlns="http://www.w3.org/2000/svg" xmlns:xlink="http://www.w3.org/1999/xlink">
<g id="graph0" class="graph" transform="scale(1 1) rotate(0) translate(4 255)">
<title>software/nixie_clock_esp32_project/components</title>
<g id="clust1" class="cluster">
<title>clusterdir_4e80761515fcd0d8a8682b4ebda49685</title>
<g id="a_clust1"><a xlink:href="dir_4e80761515fcd0d8a8682b4ebda49685.html" target="_top" xlink:title="nixie_clock_esp32_project">
<polygon fill="#edf0f7" stroke="#7f7f7f" stroke-dasharray="5,2" points="8,-8 8,-243 576,-243 576,-8 8,-8"/>
<text text-anchor="middle" x="292" y="-231" font-family="Helvetica,sans-Serif" font-size="10.00">nixie_clock_esp32_project</text>
</a>
</g>
</g>
<g id="clust2" class="cluster">
<title>clusterdir_b181baf956279f894a730e459ce47bc5</title>
<g id="a_clust2"><a xlink:href="dir_b181baf956279f894a730e459ce47bc5.html" target="_top">
<polygon fill="#edf0f7" stroke="#404040" stroke-width="2" points="16,-16 16,-216 518,-216 518,-16 16,-16"/>
</a>
</g>
</g>
<!-- dir_9893f083cf503bf028f3909b7ee1aca3 -->
<g id="node1" class="node">
<title>dir_9893f083cf503bf028f3909b7ee1aca3</title>
<g id="a_node1"><a xlink:href="dir_9893f083cf503bf028f3909b7ee1aca3.html" target="_top" xlink:title="main">
<polygon fill="#a2b4d6" stroke="#404040" points="567.5,-43 526.5,-43 526.5,-24 567.5,-24 567.5,-43"/>
<text text-anchor="middle" x="547" y="-31" font-family="Helvetica,sans-Serif" font-size="10.00">main</text>
</a>
</g>
</g>
<!-- dir_b181baf956279f894a730e459ce47bc5 -->
<g id="node2" class="node">
<title>dir_b181baf956279f894a730e459ce47bc5</title>
<text text-anchor="middle" x="471" y="-196" font-family="Helvetica,sans-Serif" font-size="10.00">components</text>
</g>
<!-- dir_a13c4c485bb1701984d244429ad4ded1 -->
<g id="node3" class="node">
<title>dir_a13c4c485bb1701984d244429ad4ded1</title>
<g id="a_node3"><a xlink:href="dir_a13c4c485bb1701984d244429ad4ded1.html" target="_top" xlink:title="clock">
<polygon fill="#a2b4d6" stroke="#404040" points="329,-43 287,-43 287,-24 329,-24 329,-43"/>
<text text-anchor="middle" x="308" y="-31" font-family="Helvetica,sans-Serif" font-size="10.00">clock</text>
</a>
</g>
</g>
<!-- dir_6591a8ca0b1ec78afa747e232353e174 -->
<g id="node4" class="node">
<title>dir_6591a8ca0b1ec78afa747e232353e174</title>
<g id="a_node4"><a xlink:href="dir_6591a8ca0b1ec78afa747e232353e174.html" target="_top" xlink:title="config">
<polygon fill="#a2b4d6" stroke="#404040" points="382,-153 336,-153 336,-134 382,-134 382,-153"/>
<text text-anchor="middle" x="359" y="-141" font-family="Helvetica,sans-Serif" font-size="10.00">config</text>
</a>
</g>
</g>
<!-- dir_6591a8ca0b1ec78afa747e232353e174&#45;&gt;dir_9893f083cf503bf028f3909b7ee1aca3 -->
<g id="edge4" class="edge">
<title>dir_6591a8ca0b1ec78afa747e232353e174&#45;&gt;dir_9893f083cf503bf028f3909b7ee1aca3</title>
<g id="a_edge4"><a xlink:href="dir_000002_000008.html" target="_top">
<path fill="none" stroke="#63b8ff" d="M382.16,-135.13C421.14,-122.7 495.78,-98.85 497,-98 514.22,-86.02 528.38,-66.38 537.18,-52.11"/>
<polygon fill="#63b8ff" stroke="#63b8ff" points="540.34,-53.64 542.39,-43.24 534.3,-50.09 540.34,-53.64"/>
</a>
</g>
<g id="a_edge4&#45;headlabel"><a xlink:href="dir_000002_000008.html" target="_top" xlink:title="2">
<text text-anchor="middle" x="540.96" y="-55.68" font-family="Helvetica,sans-Serif" font-size="10.00" fill="#63b8ff">2</text>
</a>
</g>
</g>
<!-- dir_6591a8ca0b1ec78afa747e232353e174&#45;&gt;dir_a13c4c485bb1701984d244429ad4ded1 -->
<g id="edge5" class="edge">
<title>dir_6591a8ca0b1ec78afa747e232353e174&#45;&gt;dir_a13c4c485bb1701984d244429ad4ded1</title>
<g id="a_edge5"><a xlink:href="dir_000002_000000.html" target="_top">
<path fill="none" stroke="#63b8ff" d="M335.84,-135.9C317.9,-129.44 294.25,-117.63 283,-98 274.38,-82.97 283.77,-64.39 293.4,-51.22"/>
<polygon fill="#63b8ff" stroke="#63b8ff" points="296.4,-53.08 299.89,-43.07 290.92,-48.71 296.4,-53.08"/>
</a>
</g>
<g id="a_edge5&#45;headlabel"><a xlink:href="dir_000002_000000.html" target="_top" xlink:title="2">
<text text-anchor="middle" x="296.38" y="-55.16" font-family="Helvetica,sans-Serif" font-size="10.00" fill="#63b8ff">2</text>
</a>
</g>
</g>
<!-- dir_3df67f4185c8cd9c27353f35f3bf503b -->
<g id="node7" class="node">
<title>dir_3df67f4185c8cd9c27353f35f3bf503b</title>
<g id="a_node7"><a xlink:href="dir_3df67f4185c8cd9c27353f35f3bf503b.html" target="_top" xlink:title="event_bus">
<polygon fill="#a2b4d6" stroke="#404040" points="268.5,-43 201.5,-43 201.5,-24 268.5,-24 268.5,-43"/>
<text text-anchor="middle" x="235" y="-31" font-family="Helvetica,sans-Serif" font-size="10.00">event_bus</text>
</a>
</g>
</g>
<!-- dir_6591a8ca0b1ec78afa747e232353e174&#45;&gt;dir_3df67f4185c8cd9c27353f35f3bf503b -->
<g id="edge2" class="edge">
<title>dir_6591a8ca0b1ec78afa747e232353e174&#45;&gt;dir_3df67f4185c8cd9c27353f35f3bf503b</title>
<g id="a_edge2"><a xlink:href="dir_000002_000005.html" target="_top">
<path fill="none" stroke="#63b8ff" d="M335.96,-134.14C317.84,-126.72 292.79,-114.5 275,-98 261.15,-85.15 250.15,-66.48 243.22,-52.71"/>
<polygon fill="#63b8ff" stroke="#63b8ff" points="246.2,-50.82 238.74,-43.31 239.89,-53.84 246.2,-50.82"/>
</a>
</g>
<g id="a_edge2&#45;headlabel"><a xlink:href="dir_000002_000005.html" target="_top" xlink:title="1">
<text text-anchor="middle" x="250.31" y="-50.35" font-family="Helvetica,sans-Serif" font-size="10.00" fill="#63b8ff">1</text>
</a>
</g>
</g>
<!-- dir_8938040af9d266be553d1135477b804d -->
<g id="node10" class="node">
<title>dir_8938040af9d266be553d1135477b804d</title>
<g id="a_node10"><a xlink:href="dir_8938040af9d266be553d1135477b804d.html" target="_top" xlink:title="ntp">
<polygon fill="#a2b4d6" stroke="#404040" points="324,-98 292,-98 292,-79 324,-79 324,-98"/>
<text text-anchor="middle" x="308" y="-86" font-family="Helvetica,sans-Serif" font-size="10.00">ntp</text>
</a>
</g>
</g>
<!-- dir_6591a8ca0b1ec78afa747e232353e174&#45;&gt;dir_8938040af9d266be553d1135477b804d -->
<g id="edge3" class="edge">
<title>dir_6591a8ca0b1ec78afa747e232353e174&#45;&gt;dir_8938040af9d266be553d1135477b804d</title>
<g id="a_edge3"><a xlink:href="dir_000002_000010.html" target="_top">
<path fill="none" stroke="#63b8ff" d="M345.69,-133.98C336.79,-126.46 325.62,-115.26 317.56,-105.99"/>
<polygon fill="#63b8ff" stroke="#63b8ff" points="320.22,-103.71 311.19,-98.17 314.8,-108.13 320.22,-103.71"/>
</a>
</g>
<g id="a_edge3&#45;headlabel"><a xlink:href="dir_000002_000010.html" target="_top" xlink:title="1">
<text text-anchor="middle" x="324.7" y="-102.21" font-family="Helvetica,sans-Serif" font-size="10.00" fill="#63b8ff">1</text>
</a>
</g>
</g>
<!-- dir_d593a792f6d68ad3cd00089cda4c9fbf -->
<g id="node11" class="node">
<title>dir_d593a792f6d68ad3cd00089cda4c9fbf</title>
<g id="a_node11"><a xlink:href="dir_d593a792f6d68ad3cd00089cda4c9fbf.html" target="_top" xlink:title="nvs">
<polygon fill="#a2b4d6" stroke="#404040" points="428,-98 394,-98 394,-79 428,-79 428,-98"/>
<text text-anchor="middle" x="411" y="-86" font-family="Helvetica,sans-Serif" font-size="10.00">nvs</text>
</a>
</g>
</g>
<!-- dir_6591a8ca0b1ec78afa747e232353e174&#45;&gt;dir_d593a792f6d68ad3cd00089cda4c9fbf -->
<g id="edge7" class="edge">
<title>dir_6591a8ca0b1ec78afa747e232353e174&#45;&gt;dir_d593a792f6d68ad3cd00089cda4c9fbf</title>
<g id="a_edge7"><a xlink:href="dir_000002_000011.html" target="_top">
<path fill="none" stroke="#63b8ff" d="M367.59,-133.75C375.16,-126.03 386.38,-114.6 395.51,-105.28"/>
<polygon fill="#63b8ff" stroke="#63b8ff" points="398.07,-107.68 402.57,-98.09 393.07,-102.78 398.07,-107.68"/>
</a>
</g>
<g id="a_edge7&#45;headlabel"><a xlink:href="dir_000002_000011.html" target="_top" xlink:title="1">
<text text-anchor="middle" x="397.58" y="-109.73" font-family="Helvetica,sans-Serif" font-size="10.00" fill="#63b8ff">1</text>
</a>
</g>
</g>
<!-- dir_af00538107c5bb6312b4379f7c6a7915 -->
<g id="node12" class="node">
<title>dir_af00538107c5bb6312b4379f7c6a7915</title>
<g id="a_node12"><a xlink:href="dir_af00538107c5bb6312b4379f7c6a7915.html" target="_top" xlink:title="pwm">
<polygon fill="#a2b4d6" stroke="#404040" points="487.5,-98 446.5,-98 446.5,-79 487.5,-79 487.5,-98"/>
<text text-anchor="middle" x="467" y="-86" font-family="Helvetica,sans-Serif" font-size="10.00">pwm</text>
</a>
</g>
</g>
<!-- dir_6591a8ca0b1ec78afa747e232353e174&#45;&gt;dir_af00538107c5bb6312b4379f7c6a7915 -->
<g id="edge6" class="edge">
<title>dir_6591a8ca0b1ec78afa747e232353e174&#45;&gt;dir_af00538107c5bb6312b4379f7c6a7915</title>
<g id="a_edge6"><a xlink:href="dir_000002_000012.html" target="_top">
<path fill="none" stroke="#63b8ff" d="M371.24,-133.98C387.26,-125.17 415.28,-111.31 436.98,-101.41"/>
<polygon fill="#63b8ff" stroke="#63b8ff" points="438.45,-104.59 446.15,-97.3 435.59,-98.2 438.45,-104.59"/>
</a>
</g>
<g id="a_edge6&#45;headlabel"><a xlink:href="dir_000002_000012.html" target="_top" xlink:title="1">
<text text-anchor="middle" x="436.34" y="-106.15" font-family="Helvetica,sans-Serif" font-size="10.00" fill="#63b8ff">1</text>
</a>
</g>
</g>
<!-- dir_27a09bb4329d836898ad2e41b0fca487 -->
<g id="node16" class="node">
<title>dir_27a09bb4329d836898ad2e41b0fca487</title>
<g id="a_node16"><a xlink:href="dir_27a09bb4329d836898ad2e41b0fca487.html" target="_top" xlink:title="wifi">
<polygon fill="#a2b4d6" stroke="#404040" points="376,-98 342,-98 342,-79 376,-79 376,-98"/>
<text text-anchor="middle" x="359" y="-86" font-family="Helvetica,sans-Serif" font-size="10.00">wifi</text>
</a>
</g>
</g>
<!-- dir_6591a8ca0b1ec78afa747e232353e174&#45;&gt;dir_27a09bb4329d836898ad2e41b0fca487 -->
<g id="edge1" class="edge">
<title>dir_6591a8ca0b1ec78afa747e232353e174&#45;&gt;dir_27a09bb4329d836898ad2e41b0fca487</title>
<g id="a_edge1"><a xlink:href="dir_000002_000017.html" target="_top">
<path fill="none" stroke="#63b8ff" d="M353.83,-133.75C352.34,-126.8 351.9,-116.85 352.52,-108.13"/>
<polygon fill="#63b8ff" stroke="#63b8ff" points="356.01,-108.47 353.87,-98.09 349.07,-107.53 356.01,-108.47"/>
</a>
</g>
<g id="a_edge1&#45;headlabel"><a xlink:href="dir_000002_000017.html" target="_top" xlink:title="1">
<text text-anchor="middle" x="358.34" y="-109.91" font-family="Helvetica,sans-Serif" font-size="10.00" fill="#63b8ff">1</text>
</a>
</g>
</g>
<!-- dir_bfdcce58a23cc395bda28f665cadf99d -->
<g id="node5" class="node">
<title>dir_bfdcce58a23cc395bda28f665cadf99d</title>
<g id="a_node5"><a xlink:href="dir_bfdcce58a23cc395bda28f665cadf99d.html" target="_top" xlink:title="dispatcher">
<polygon fill="#a2b4d6" stroke="#404040" points="234,-98 166,-98 166,-79 234,-79 234,-98"/>
<text text-anchor="middle" x="200" y="-86" font-family="Helvetica,sans-Serif" font-size="10.00">dispatcher</text>
</a>
</g>
</g>
<!-- dir_bfdcce58a23cc395bda28f665cadf99d&#45;&gt;dir_3df67f4185c8cd9c27353f35f3bf503b -->
<g id="edge8" class="edge">
<title>dir_bfdcce58a23cc395bda28f665cadf99d&#45;&gt;dir_3df67f4185c8cd9c27353f35f3bf503b</title>
<g id="a_edge8"><a xlink:href="dir_000003_000005.html" target="_top">
<path fill="none" stroke="#63b8ff" d="M205.78,-78.75C210.62,-71.42 217.68,-60.73 223.64,-51.7"/>
<polygon fill="#63b8ff" stroke="#63b8ff" points="226.74,-53.36 229.33,-43.09 220.9,-49.5 226.74,-53.36"/>
</a>
</g>
<g id="a_edge8&#45;headlabel"><a xlink:href="dir_000003_000005.html" target="_top" xlink:title="2">
<text text-anchor="middle" x="227.13" y="-55.43" font-family="Helvetica,sans-Serif" font-size="10.00" fill="#63b8ff">2</text>
</a>
</g>
</g>
<!-- dir_25afab11bb9cc6587024a85a8f095e2f -->
<g id="node6" class="node">
<title>dir_25afab11bb9cc6587024a85a8f095e2f</title>
<g id="a_node6"><a xlink:href="dir_25afab11bb9cc6587024a85a8f095e2f.html" target="_top" xlink:title="display">
<polygon fill="#a2b4d6" stroke="#404040" points="76,-208 24,-208 24,-189 76,-189 76,-208"/>
<text text-anchor="middle" x="50" y="-196" font-family="Helvetica,sans-Serif" font-size="10.00">display</text>
</a>
</g>
</g>
<!-- dir_fb7d8fb2e7a81481fd306fa505fa505b -->
<g id="node9" class="node">
<title>dir_fb7d8fb2e7a81481fd306fa505fa505b</title>
<g id="a_node9"><a xlink:href="dir_fb7d8fb2e7a81481fd306fa505fa505b.html" target="_top" xlink:title="hv5622">
<polygon fill="#a2b4d6" stroke="#404040" points="77.5,-153 24.5,-153 24.5,-134 77.5,-134 77.5,-153"/>
<text text-anchor="middle" x="51" y="-141" font-family="Helvetica,sans-Serif" font-size="10.00">hv5622</text>
</a>
</g>
</g>
<!-- dir_25afab11bb9cc6587024a85a8f095e2f&#45;&gt;dir_fb7d8fb2e7a81481fd306fa505fa505b -->
<g id="edge9" class="edge">
<title>dir_25afab11bb9cc6587024a85a8f095e2f&#45;&gt;dir_fb7d8fb2e7a81481fd306fa505fa505b</title>
<g id="a_edge9"><a xlink:href="dir_000004_000007.html" target="_top">
<path fill="none" stroke="#63b8ff" d="M50.17,-188.75C50.3,-181.8 50.48,-171.85 50.65,-163.13"/>
<polygon fill="#63b8ff" stroke="#63b8ff" points="54.15,-163.15 50.84,-153.09 47.15,-163.02 54.15,-163.15"/>
</a>
</g>
<g id="a_edge9&#45;headlabel"><a xlink:href="dir_000004_000007.html" target="_top" xlink:title="1">
<text text-anchor="middle" x="56.92" y="-164.3" font-family="Helvetica,sans-Serif" font-size="10.00" fill="#63b8ff">1</text>
</a>
</g>
</g>
<!-- dir_c8df9a83da56af1891de301214a2e601 -->
<g id="node8" class="node">
<title>dir_c8df9a83da56af1891de301214a2e601</title>
<g id="a_node8"><a xlink:href="dir_c8df9a83da56af1891de301214a2e601.html" target="_top" xlink:title="gpio_driver">
<polygon fill="#a2b4d6" stroke="#404040" points="165.5,-208 94.5,-208 94.5,-189 165.5,-189 165.5,-208"/>
<text text-anchor="middle" x="130" y="-196" font-family="Helvetica,sans-Serif" font-size="10.00">gpio_driver</text>
</a>
</g>
</g>
<!-- dir_c8df9a83da56af1891de301214a2e601&#45;&gt;dir_9893f083cf503bf028f3909b7ee1aca3 -->
<g id="edge10" class="edge">
<title>dir_c8df9a83da56af1891de301214a2e601&#45;&gt;dir_9893f083cf503bf028f3909b7ee1aca3</title>
<g id="a_edge10"><a xlink:href="dir_000006_000008.html" target="_top">
<path fill="none" stroke="#63b8ff" d="M165.85,-190.66C168.94,-190.09 172.03,-189.53 175,-189 270.82,-171.97 297.95,-181.52 391,-153 447.09,-135.8 467.77,-137.66 511,-98 524.69,-85.44 534.51,-66.43 540.4,-52.49"/>
<polygon fill="#63b8ff" stroke="#63b8ff" points="543.73,-53.59 544.14,-43 537.21,-51.02 543.73,-53.59"/>
</a>
</g>
<g id="a_edge10&#45;headlabel"><a xlink:href="dir_000006_000008.html" target="_top" xlink:title="1">
<text text-anchor="middle" x="545.05" y="-55.47" font-family="Helvetica,sans-Serif" font-size="10.00" fill="#63b8ff">1</text>
</a>
</g>
</g>
<!-- dir_8938040af9d266be553d1135477b804d&#45;&gt;dir_9893f083cf503bf028f3909b7ee1aca3 -->
<g id="edge13" class="edge">
<title>dir_8938040af9d266be553d1135477b804d&#45;&gt;dir_9893f083cf503bf028f3909b7ee1aca3</title>
<g id="a_edge13"><a xlink:href="dir_000010_000008.html" target="_top">
<path fill="none" stroke="#63b8ff" d="M324.04,-81.68C327,-80.71 330.07,-79.77 333,-79 412.45,-58.04 437.38,-64.26 516.42,-44.34"/>
<polygon fill="#63b8ff" stroke="#63b8ff" points="517.53,-47.67 526.33,-41.78 515.77,-40.89 517.53,-47.67"/>
</a>
</g>
<g id="a_edge13&#45;headlabel"><a xlink:href="dir_000010_000008.html" target="_top" xlink:title="2">
<text text-anchor="middle" x="514.76" y="-48.82" font-family="Helvetica,sans-Serif" font-size="10.00" fill="#63b8ff">2</text>
</a>
</g>
</g>
<!-- dir_8938040af9d266be553d1135477b804d&#45;&gt;dir_a13c4c485bb1701984d244429ad4ded1 -->
<g id="edge14" class="edge">
<title>dir_8938040af9d266be553d1135477b804d&#45;&gt;dir_a13c4c485bb1701984d244429ad4ded1</title>
<g id="a_edge14"><a xlink:href="dir_000010_000000.html" target="_top">
<path fill="none" stroke="#63b8ff" d="M308,-78.75C308,-71.8 308,-61.85 308,-53.13"/>
<polygon fill="#63b8ff" stroke="#63b8ff" points="311.5,-53.09 308,-43.09 304.5,-53.09 311.5,-53.09"/>
</a>
</g>
<g id="a_edge14&#45;headlabel"><a xlink:href="dir_000010_000000.html" target="_top" xlink:title="1">
<text text-anchor="middle" x="314.34" y="-54.18" font-family="Helvetica,sans-Serif" font-size="10.00" fill="#63b8ff">1</text>
</a>
</g>
</g>
<!-- dir_8938040af9d266be553d1135477b804d&#45;&gt;dir_6591a8ca0b1ec78afa747e232353e174 -->
<g id="edge12" class="edge">
<title>dir_8938040af9d266be553d1135477b804d&#45;&gt;dir_6591a8ca0b1ec78afa747e232353e174</title>
<g id="a_edge12"><a xlink:href="dir_000010_000002.html" target="_top">
<path fill="none" stroke="#63b8ff" d="M321.4,-98.09C330.27,-105.6 341.36,-116.72 349.39,-125.96"/>
<polygon fill="#63b8ff" stroke="#63b8ff" points="346.71,-128.21 355.74,-133.75 352.14,-123.79 346.71,-128.21"/>
</a>
</g>
<g id="a_edge12&#45;headlabel"><a xlink:href="dir_000010_000002.html" target="_top" xlink:title="1">
<text text-anchor="middle" x="342.24" y="-124.72" font-family="Helvetica,sans-Serif" font-size="10.00" fill="#63b8ff">1</text>
</a>
</g>
</g>
<!-- dir_8938040af9d266be553d1135477b804d&#45;&gt;dir_3df67f4185c8cd9c27353f35f3bf503b -->
<g id="edge11" class="edge">
<title>dir_8938040af9d266be553d1135477b804d&#45;&gt;dir_3df67f4185c8cd9c27353f35f3bf503b</title>
<g id="a_edge11"><a xlink:href="dir_000010_000005.html" target="_top">
<path fill="none" stroke="#63b8ff" d="M296.27,-78.98C285.27,-71 268.58,-58.88 255.4,-49.31"/>
<polygon fill="#63b8ff" stroke="#63b8ff" points="257.09,-46.21 246.94,-43.17 252.98,-51.88 257.09,-46.21"/>
</a>
</g>
<g id="a_edge11&#45;headlabel"><a xlink:href="dir_000010_000005.html" target="_top" xlink:title="1">
<text text-anchor="middle" x="261.67" y="-43.53" font-family="Helvetica,sans-Serif" font-size="10.00" fill="#63b8ff">1</text>
</a>
</g>
</g>
<!-- dir_d593a792f6d68ad3cd00089cda4c9fbf&#45;&gt;dir_9893f083cf503bf028f3909b7ee1aca3 -->
<g id="edge15" class="edge">
<title>dir_d593a792f6d68ad3cd00089cda4c9fbf&#45;&gt;dir_9893f083cf503bf028f3909b7ee1aca3</title>
<g id="a_edge15"><a xlink:href="dir_000011_000008.html" target="_top">
<path fill="none" stroke="#63b8ff" d="M428.22,-80.79C450.5,-72.1 489.68,-56.84 516.92,-46.22"/>
<polygon fill="#63b8ff" stroke="#63b8ff" points="518.32,-49.43 526.37,-42.54 515.78,-42.91 518.32,-49.43"/>
</a>
</g>
<g id="a_edge15&#45;headlabel"><a xlink:href="dir_000011_000008.html" target="_top" xlink:title="1">
<text text-anchor="middle" x="516" y="-50.88" font-family="Helvetica,sans-Serif" font-size="10.00" fill="#63b8ff">1</text>
</a>
</g>
</g>
<!-- dir_af00538107c5bb6312b4379f7c6a7915&#45;&gt;dir_9893f083cf503bf028f3909b7ee1aca3 -->
<g id="edge17" class="edge">
<title>dir_af00538107c5bb6312b4379f7c6a7915&#45;&gt;dir_9893f083cf503bf028f3909b7ee1aca3</title>
<g id="a_edge17"><a xlink:href="dir_000012_000008.html" target="_top">
<path fill="none" stroke="#63b8ff" d="M479.85,-78.98C492.14,-70.84 510.91,-58.41 525.48,-48.76"/>
<polygon fill="#63b8ff" stroke="#63b8ff" points="527.51,-51.61 533.91,-43.17 523.64,-45.78 527.51,-51.61"/>
</a>
</g>
<g id="a_edge17&#45;headlabel"><a xlink:href="dir_000012_000008.html" target="_top" xlink:title="1">
<text text-anchor="middle" x="526.08" y="-53.46" font-family="Helvetica,sans-Serif" font-size="10.00" fill="#63b8ff">1</text>
</a>
</g>
</g>
<!-- dir_af00538107c5bb6312b4379f7c6a7915&#45;&gt;dir_6591a8ca0b1ec78afa747e232353e174 -->
<g id="edge16" class="edge">
<title>dir_af00538107c5bb6312b4379f7c6a7915&#45;&gt;dir_6591a8ca0b1ec78afa747e232353e174</title>
<g id="a_edge16"><a xlink:href="dir_000012_000002.html" target="_top">
<path fill="none" stroke="#63b8ff" d="M454.48,-98.17C438.85,-106.75 412.12,-119.99 390.81,-129.77"/>
<polygon fill="#63b8ff" stroke="#63b8ff" points="389.14,-126.68 381.47,-133.98 392.02,-133.06 389.14,-126.68"/>
</a>
</g>
<g id="a_edge16&#45;headlabel"><a xlink:href="dir_000012_000002.html" target="_top" xlink:title="1">
<text text-anchor="middle" x="391.25" y="-120.11" font-family="Helvetica,sans-Serif" font-size="10.00" fill="#63b8ff">1</text>
</a>
</g>
</g>
<!-- dir_ee50860190fe62f2e35dcf8898f9d9d7 -->
<g id="node13" class="node">
<title>dir_ee50860190fe62f2e35dcf8898f9d9d7</title>
<g id="a_node13"><a xlink:href="dir_ee50860190fe62f2e35dcf8898f9d9d7.html" target="_top" xlink:title="rotary_encoder">
<polygon fill="#a2b4d6" stroke="#404040" points="274,-208 184,-208 184,-189 274,-189 274,-208"/>
<text text-anchor="middle" x="229" y="-196" font-family="Helvetica,sans-Serif" font-size="10.00">rotary_encoder</text>
</a>
</g>
</g>
<!-- dir_e358256436063faffb66e4cd4d1bf7a0 -->
<g id="node14" class="node">
<title>dir_e358256436063faffb66e4cd4d1bf7a0</title>
<g id="a_node14"><a xlink:href="dir_e358256436063faffb66e4cd4d1bf7a0.html" target="_top" xlink:title="uart">
<polygon fill="#a2b4d6" stroke="#404040" points="414,-208 378,-208 378,-189 414,-189 414,-208"/>
<text text-anchor="middle" x="396" y="-196" font-family="Helvetica,sans-Serif" font-size="10.00">uart</text>
</a>
</g>
</g>
<!-- dir_e358256436063faffb66e4cd4d1bf7a0&#45;&gt;dir_9893f083cf503bf028f3909b7ee1aca3 -->
<g id="edge18" class="edge">
<title>dir_e358256436063faffb66e4cd4d1bf7a0&#45;&gt;dir_9893f083cf503bf028f3909b7ee1aca3</title>
<g id="a_edge18"><a xlink:href="dir_000015_000008.html" target="_top">
<path fill="none" stroke="#63b8ff" d="M414.06,-191.96C417.36,-190.96 420.78,-189.94 424,-189 480.72,-172.42 516.32,-200.11 552,-153 574.19,-123.7 563.01,-77.65 554.2,-52.45"/>
<polygon fill="#63b8ff" stroke="#63b8ff" points="557.46,-51.17 550.67,-43.04 550.9,-53.63 557.46,-51.17"/>
</a>
</g>
<g id="a_edge18&#45;headlabel"><a xlink:href="dir_000015_000008.html" target="_top" xlink:title="1">
<text text-anchor="middle" x="561.38" y="-51.05" font-family="Helvetica,sans-Serif" font-size="10.00" fill="#63b8ff">1</text>
</a>
</g>
</g>
<!-- dir_54c3fa7b37971d51e57fc618a8a47b11 -->
<g id="node15" class="node">
<title>dir_54c3fa7b37971d51e57fc618a8a47b11</title>
<g id="a_node15"><a xlink:href="dir_54c3fa7b37971d51e57fc618a8a47b11.html" target="_top" xlink:title="webserver">
<polygon fill="#a2b4d6" stroke="#404040" points="360,-208 292,-208 292,-189 360,-189 360,-208"/>
<text text-anchor="middle" x="326" y="-196" font-family="Helvetica,sans-Serif" font-size="10.00">webserver</text>
</a>
</g>
</g>
<!-- dir_54c3fa7b37971d51e57fc618a8a47b11&#45;&gt;dir_9893f083cf503bf028f3909b7ee1aca3 -->
<g id="edge20" class="edge">
<title>dir_54c3fa7b37971d51e57fc618a8a47b11&#45;&gt;dir_9893f083cf503bf028f3909b7ee1aca3</title>
<g id="a_edge20"><a xlink:href="dir_000016_000008.html" target="_top">
<path fill="none" stroke="#63b8ff" d="M360.34,-190.61C418.19,-178.92 529.08,-156.19 532,-153 557.02,-125.7 554.44,-78.83 550.58,-52.97"/>
<polygon fill="#63b8ff" stroke="#63b8ff" points="554.01,-52.27 548.87,-43 547.11,-53.45 554.01,-52.27"/>
</a>
</g>
<g id="a_edge20&#45;headlabel"><a xlink:href="dir_000016_000008.html" target="_top" xlink:title="1">
<text text-anchor="middle" x="557.42" y="-52.83" font-family="Helvetica,sans-Serif" font-size="10.00" fill="#63b8ff">1</text>
</a>
</g>
</g>
<!-- dir_54c3fa7b37971d51e57fc618a8a47b11&#45;&gt;dir_6591a8ca0b1ec78afa747e232353e174 -->
<g id="edge19" class="edge">
<title>dir_54c3fa7b37971d51e57fc618a8a47b11&#45;&gt;dir_6591a8ca0b1ec78afa747e232353e174</title>
<g id="a_edge19"><a xlink:href="dir_000016_000002.html" target="_top">
<path fill="none" stroke="#63b8ff" d="M331.45,-188.75C336.01,-181.42 342.67,-170.73 348.29,-161.7"/>
<polygon fill="#63b8ff" stroke="#63b8ff" points="351.34,-163.43 353.65,-153.09 345.4,-159.73 351.34,-163.43"/>
</a>
</g>
<g id="a_edge19&#45;headlabel"><a xlink:href="dir_000016_000002.html" target="_top" xlink:title="1">
<text text-anchor="middle" x="351.85" y="-165.48" font-family="Helvetica,sans-Serif" font-size="10.00" fill="#63b8ff">1</text>
</a>
</g>
</g>
<!-- dir_27a09bb4329d836898ad2e41b0fca487&#45;&gt;dir_9893f083cf503bf028f3909b7ee1aca3 -->
<g id="edge22" class="edge">
<title>dir_27a09bb4329d836898ad2e41b0fca487&#45;&gt;dir_9893f083cf503bf028f3909b7ee1aca3</title>
<g id="a_edge22"><a xlink:href="dir_000017_000008.html" target="_top">
<path fill="none" stroke="#63b8ff" d="M376.02,-81.78C379,-80.82 382.08,-79.86 385,-79 442.21,-62.15 459.87,-61.2 516.47,-44.59"/>
<polygon fill="#63b8ff" stroke="#63b8ff" points="517.71,-47.87 526.3,-41.66 515.72,-41.16 517.71,-47.87"/>
</a>
</g>
<g id="a_edge22&#45;headlabel"><a xlink:href="dir_000017_000008.html" target="_top" xlink:title="1">
<text text-anchor="middle" x="515.08" y="-49.12" font-family="Helvetica,sans-Serif" font-size="10.00" fill="#63b8ff">1</text>
</a>
</g>
</g>
<!-- dir_27a09bb4329d836898ad2e41b0fca487&#45;&gt;dir_6591a8ca0b1ec78afa747e232353e174 -->
<g id="edge21" class="edge">
<title>dir_27a09bb4329d836898ad2e41b0fca487&#45;&gt;dir_6591a8ca0b1ec78afa747e232353e174</title>
<g id="a_edge21"><a xlink:href="dir_000017_000002.html" target="_top">
<path fill="none" stroke="#63b8ff" d="M364.13,-98.09C365.64,-104.99 366.09,-114.93 365.49,-123.66"/>
<polygon fill="#63b8ff" stroke="#63b8ff" points="362,-123.38 364.17,-133.75 368.94,-124.29 362,-123.38"/>
</a>
</g>
<g id="a_edge21&#45;headlabel"><a xlink:href="dir_000017_000002.html" target="_top" xlink:title="1">
<text text-anchor="middle" x="359.65" y="-116.94" font-family="Helvetica,sans-Serif" font-size="10.00" fill="#63b8ff">1</text>
</a>
</g>
</g>
</g>
</svg>
