<?xml version="1.0" encoding="UTF-8" standalone="no"?>
<!DOCTYPE svg PUBLIC "-//W3C//DTD SVG 1.1//EN"
 "http://www.w3.org/Graphics/SVG/1.1/DTD/svg11.dtd">
<!-- Generated by graphviz version 2.43.0 (0)
 -->
<!-- Title: software/nixie_clock_esp32_project/components Pages: 1 -->
<svg width="506pt" height="259pt"
 viewBox="0.00 0.00 506.00 259.00" xmlns="http://www.w3.org/2000/svg" xmlns:xlink="http://www.w3.org/1999/xlink">
<g id="graph0" class="graph" transform="scale(1 1) rotate(0) translate(4 255)">
<title>software/nixie_clock_esp32_project/components</title>
<g id="clust1" class="cluster">
<title>clusterdir_4e80761515fcd0d8a8682b4ebda49685</title>
<g id="a_clust1"><a xlink:href="dir_4e80761515fcd0d8a8682b4ebda49685.html" target="_top" xlink:title="nixie_clock_esp32_project">
<polygon fill="#edf0f7" stroke="#7f7f7f" stroke-dasharray="5,2" points="8,-8 8,-243 490,-243 490,-8 8,-8"/>
<text text-anchor="middle" x="249" y="-231" font-family="Helvetica,sans-Serif" font-size="10.00">nixie_clock_esp32_project</text>
</a>
</g>
</g>
<g id="clust2" class="cluster">
<title>clusterdir_b181baf956279f894a730e459ce47bc5</title>
<g id="a_clust2"><a xlink:href="dir_b181baf956279f894a730e459ce47bc5.html" target="_top">
<polygon fill="#edf0f7" stroke="#404040" stroke-width="2" points="16,-16 16,-216 482,-216 482,-16 16,-16"/>
</a>
</g>
</g>
<!-- dir_b181baf956279f894a730e459ce47bc5 -->
<g id="node1" class="node">
<title>dir_b181baf956279f894a730e459ce47bc5</title>
<text text-anchor="middle" x="428" y="-196" font-family="Helvetica,sans-Serif" font-size="10.00">components</text>
</g>
<!-- dir_a13c4c485bb1701984d244429ad4ded1 -->
<g id="node2" class="node">
<title>dir_a13c4c485bb1701984d244429ad4ded1</title>
<g id="a_node2"><a xlink:href="dir_a13c4c485bb1701984d244429ad4ded1.html" target="_top" xlink:title="clock">
<polygon fill="#a2b4d6" stroke="#404040" points="336,-43 294,-43 294,-24 336,-24 336,-43"/>
<text text-anchor="middle" x="315" y="-31" font-family="Helvetica,sans-Serif" font-size="10.00">clock</text>
</a>
</g>
</g>
<!-- dir_2f8bb0b9567c99dc8a53f1db54ef1a1c -->
<g id="node3" class="node">
<title>dir_2f8bb0b9567c99dc8a53f1db54ef1a1c</title>
<g id="a_node3"><a xlink:href="dir_2f8bb0b9567c99dc8a53f1db54ef1a1c.html" target="_top" xlink:title="clock_task">
<polygon fill="#a2b4d6" stroke="#404040" points="220,-153 152,-153 152,-134 220,-134 220,-153"/>
<text text-anchor="middle" x="186" y="-141" font-family="Helvetica,sans-Serif" font-size="10.00">clock_task</text>
</a>
</g>
</g>
<!-- dir_2f8bb0b9567c99dc8a53f1db54ef1a1c&#45;&gt;dir_a13c4c485bb1701984d244429ad4ded1 -->
<g id="edge4" class="edge">
<title>dir_2f8bb0b9567c99dc8a53f1db54ef1a1c&#45;&gt;dir_a13c4c485bb1701984d244429ad4ded1</title>
<g id="a_edge4"><a xlink:href="dir_000001_000000.html" target="_top">
<path fill="none" stroke="#63b8ff" d="M193.84,-133.86C207.64,-118.76 235.82,-88.27 247,-79 260.76,-67.58 277.57,-56.56 291.03,-48.34"/>
<polygon fill="#63b8ff" stroke="#63b8ff" points="292.95,-51.27 299.73,-43.13 289.36,-45.27 292.95,-51.27"/>
</a>
</g>
<g id="a_edge4&#45;headlabel"><a xlink:href="dir_000001_000000.html" target="_top" xlink:title="2">
<text text-anchor="middle" x="291.33" y="-53.06" font-family="Helvetica,sans-Serif" font-size="10.00" fill="#63b8ff">2</text>
</a>
</g>
</g>
<!-- dir_6591a8ca0b1ec78afa747e232353e174 -->
<g id="node4" class="node">
<title>dir_6591a8ca0b1ec78afa747e232353e174</title>
<g id="a_node4"><a xlink:href="dir_6591a8ca0b1ec78afa747e232353e174.html" target="_top" xlink:title="config">
<polygon fill="#a2b4d6" stroke="#404040" points="302,-98 256,-98 256,-79 302,-79 302,-98"/>
<text text-anchor="middle" x="279" y="-86" font-family="Helvetica,sans-Serif" font-size="10.00">config</text>
</a>
</g>
</g>
<!-- dir_2f8bb0b9567c99dc8a53f1db54ef1a1c&#45;&gt;dir_6591a8ca0b1ec78afa747e232353e174 -->
<g id="edge3" class="edge">
<title>dir_2f8bb0b9567c99dc8a53f1db54ef1a1c&#45;&gt;dir_6591a8ca0b1ec78afa747e232353e174</title>
<g id="a_edge3"><a xlink:href="dir_000001_000003.html" target="_top">
<path fill="none" stroke="#63b8ff" d="M200.94,-133.98C215.5,-125.69 237.87,-112.94 254.93,-103.22"/>
<polygon fill="#63b8ff" stroke="#63b8ff" points="256.83,-106.16 263.79,-98.17 253.36,-100.08 256.83,-106.16"/>
</a>
</g>
<g id="a_edge3&#45;headlabel"><a xlink:href="dir_000001_000003.html" target="_top" xlink:title="1">
<text text-anchor="middle" x="255.11" y="-107.91" font-family="Helvetica,sans-Serif" font-size="10.00" fill="#63b8ff">1</text>
</a>
</g>
</g>
<!-- dir_25afab11bb9cc6587024a85a8f095e2f -->
<g id="node6" class="node">
<title>dir_25afab11bb9cc6587024a85a8f095e2f</title>
<g id="a_node6"><a xlink:href="dir_25afab11bb9cc6587024a85a8f095e2f.html" target="_top" xlink:title="display">
<polygon fill="#a2b4d6" stroke="#404040" points="86,-98 34,-98 34,-79 86,-79 86,-98"/>
<text text-anchor="middle" x="60" y="-86" font-family="Helvetica,sans-Serif" font-size="10.00">display</text>
</a>
</g>
</g>
<!-- dir_2f8bb0b9567c99dc8a53f1db54ef1a1c&#45;&gt;dir_25afab11bb9cc6587024a85a8f095e2f -->
<g id="edge1" class="edge">
<title>dir_2f8bb0b9567c99dc8a53f1db54ef1a1c&#45;&gt;dir_25afab11bb9cc6587024a85a8f095e2f</title>
<g id="a_edge1"><a xlink:href="dir_000001_000005.html" target="_top">
<path fill="none" stroke="#63b8ff" d="M165.76,-133.98C145.3,-125.38 113.47,-111.99 90.07,-102.15"/>
<polygon fill="#63b8ff" stroke="#63b8ff" points="91.19,-98.82 80.61,-98.17 88.47,-105.27 91.19,-98.82"/>
</a>
</g>
<g id="a_edge1&#45;headlabel"><a xlink:href="dir_000001_000005.html" target="_top" xlink:title="1">
<text text-anchor="middle" x="95.6" y="-95.1" font-family="Helvetica,sans-Serif" font-size="10.00" fill="#63b8ff">1</text>
</a>
</g>
</g>
<!-- dir_c8df9a83da56af1891de301214a2e601 -->
<g id="node8" class="node">
<title>dir_c8df9a83da56af1891de301214a2e601</title>
<g id="a_node8"><a xlink:href="dir_c8df9a83da56af1891de301214a2e601.html" target="_top" xlink:title="gpio_driver">
<polygon fill="#a2b4d6" stroke="#404040" points="275.5,-43 204.5,-43 204.5,-24 275.5,-24 275.5,-43"/>
<text text-anchor="middle" x="240" y="-31" font-family="Helvetica,sans-Serif" font-size="10.00">gpio_driver</text>
</a>
</g>
</g>
<!-- dir_2f8bb0b9567c99dc8a53f1db54ef1a1c&#45;&gt;dir_c8df9a83da56af1891de301214a2e601 -->
<g id="edge5" class="edge">
<title>dir_2f8bb0b9567c99dc8a53f1db54ef1a1c&#45;&gt;dir_c8df9a83da56af1891de301214a2e601</title>
<g id="a_edge5"><a xlink:href="dir_000001_000007.html" target="_top">
<path fill="none" stroke="#63b8ff" d="M173.41,-133.9C157.18,-121.71 132.47,-98.71 145,-79 156.07,-61.59 175.94,-50.88 194.65,-44.34"/>
<polygon fill="#63b8ff" stroke="#63b8ff" points="195.81,-47.65 204.28,-41.29 193.69,-40.97 195.81,-47.65"/>
</a>
</g>
<g id="a_edge5&#45;headlabel"><a xlink:href="dir_000001_000007.html" target="_top" xlink:title="1">
<text text-anchor="middle" x="193.24" y="-48.94" font-family="Helvetica,sans-Serif" font-size="10.00" fill="#63b8ff">1</text>
</a>
</g>
</g>
<!-- dir_6378bc349134a8014a09749f3432f8e2 -->
<g id="node9" class="node">
<title>dir_6378bc349134a8014a09749f3432f8e2</title>
<g id="a_node9"><a xlink:href="dir_6378bc349134a8014a09749f3432f8e2.html" target="_top" xlink:title="gpio_task">
<polygon fill="#a2b4d6" stroke="#404040" points="218,-98 154,-98 154,-79 218,-79 218,-98"/>
<text text-anchor="middle" x="186" y="-86" font-family="Helvetica,sans-Serif" font-size="10.00">gpio_task</text>
</a>
</g>
</g>
<!-- dir_2f8bb0b9567c99dc8a53f1db54ef1a1c&#45;&gt;dir_6378bc349134a8014a09749f3432f8e2 -->
<g id="edge2" class="edge">
<title>dir_2f8bb0b9567c99dc8a53f1db54ef1a1c&#45;&gt;dir_6378bc349134a8014a09749f3432f8e2</title>
<g id="a_edge2"><a xlink:href="dir_000001_000008.html" target="_top">
<path fill="none" stroke="#63b8ff" d="M186,-133.75C186,-126.8 186,-116.85 186,-108.13"/>
<polygon fill="#63b8ff" stroke="#63b8ff" points="189.5,-108.09 186,-98.09 182.5,-108.09 189.5,-108.09"/>
</a>
</g>
<g id="a_edge2&#45;headlabel"><a xlink:href="dir_000001_000008.html" target="_top" xlink:title="1">
<text text-anchor="middle" x="192.34" y="-109.18" font-family="Helvetica,sans-Serif" font-size="10.00" fill="#63b8ff">1</text>
</a>
</g>
</g>
<!-- dir_ee50860190fe62f2e35dcf8898f9d9d7 -->
<g id="node14" class="node">
<title>dir_ee50860190fe62f2e35dcf8898f9d9d7</title>
<g id="a_node14"><a xlink:href="dir_ee50860190fe62f2e35dcf8898f9d9d7.html" target="_top" xlink:title="rotary_encoder">
<polygon fill="#a2b4d6" stroke="#404040" points="186,-43 96,-43 96,-24 186,-24 186,-43"/>
<text text-anchor="middle" x="141" y="-31" font-family="Helvetica,sans-Serif" font-size="10.00">rotary_encoder</text>
</a>
</g>
</g>
<!-- dir_2f8bb0b9567c99dc8a53f1db54ef1a1c&#45;&gt;dir_ee50860190fe62f2e35dcf8898f9d9d7 -->
<g id="edge6" class="edge">
<title>dir_2f8bb0b9567c99dc8a53f1db54ef1a1c&#45;&gt;dir_ee50860190fe62f2e35dcf8898f9d9d7</title>
<g id="a_edge6"><a xlink:href="dir_000001_000015.html" target="_top">
<path fill="none" stroke="#63b8ff" d="M168.23,-133.96C154.99,-126.51 137.88,-114.33 130,-98 123.09,-83.69 127.24,-65.71 132.29,-52.54"/>
<polygon fill="#63b8ff" stroke="#63b8ff" points="135.59,-53.74 136.35,-43.17 129.17,-50.96 135.59,-53.74"/>
</a>
</g>
<g id="a_edge6&#45;headlabel"><a xlink:href="dir_000001_000015.html" target="_top" xlink:title="1">
<text text-anchor="middle" x="136.77" y="-55.67" font-family="Helvetica,sans-Serif" font-size="10.00" fill="#63b8ff">1</text>
</a>
</g>
</g>
<!-- dir_6591a8ca0b1ec78afa747e232353e174&#45;&gt;dir_a13c4c485bb1701984d244429ad4ded1 -->
<g id="edge8" class="edge">
<title>dir_6591a8ca0b1ec78afa747e232353e174&#45;&gt;dir_a13c4c485bb1701984d244429ad4ded1</title>
<g id="a_edge8"><a xlink:href="dir_000003_000000.html" target="_top">
<path fill="none" stroke="#63b8ff" d="M284.94,-78.75C289.98,-71.34 297.34,-60.5 303.51,-51.41"/>
<polygon fill="#63b8ff" stroke="#63b8ff" points="306.44,-53.33 309.17,-43.09 300.65,-49.39 306.44,-53.33"/>
</a>
</g>
<g id="a_edge8&#45;headlabel"><a xlink:href="dir_000003_000000.html" target="_top" xlink:title="1">
<text text-anchor="middle" x="306.77" y="-55.4" font-family="Helvetica,sans-Serif" font-size="10.00" fill="#63b8ff">1</text>
</a>
</g>
</g>
<!-- dir_3df67f4185c8cd9c27353f35f3bf503b -->
<g id="node7" class="node">
<title>dir_3df67f4185c8cd9c27353f35f3bf503b</title>
<g id="a_node7"><a xlink:href="dir_3df67f4185c8cd9c27353f35f3bf503b.html" target="_top" xlink:title="event_bus">
<polygon fill="#a2b4d6" stroke="#404040" points="473.5,-43 406.5,-43 406.5,-24 473.5,-24 473.5,-43"/>
<text text-anchor="middle" x="440" y="-31" font-family="Helvetica,sans-Serif" font-size="10.00">event_bus</text>
</a>
</g>
</g>
<!-- dir_6591a8ca0b1ec78afa747e232353e174&#45;&gt;dir_3df67f4185c8cd9c27353f35f3bf503b -->
<g id="edge7" class="edge">
<title>dir_6591a8ca0b1ec78afa747e232353e174&#45;&gt;dir_3df67f4185c8cd9c27353f35f3bf503b</title>
<g id="a_edge7"><a xlink:href="dir_000003_000006.html" target="_top">
<path fill="none" stroke="#63b8ff" d="M302.07,-79.91C328.82,-71.1 373.24,-56.48 404.42,-46.21"/>
<polygon fill="#63b8ff" stroke="#63b8ff" points="405.64,-49.5 414.04,-43.05 403.45,-42.85 405.64,-49.5"/>
</a>
</g>
<g id="a_edge7&#45;headlabel"><a xlink:href="dir_000003_000006.html" target="_top" xlink:title="1">
<text text-anchor="middle" x="403.11" y="-50.82" font-family="Helvetica,sans-Serif" font-size="10.00" fill="#63b8ff">1</text>
</a>
</g>
</g>
<!-- dir_d593a792f6d68ad3cd00089cda4c9fbf -->
<g id="node12" class="node">
<title>dir_d593a792f6d68ad3cd00089cda4c9fbf</title>
<g id="a_node12"><a xlink:href="dir_d593a792f6d68ad3cd00089cda4c9fbf.html" target="_top" xlink:title="nvs">
<polygon fill="#a2b4d6" stroke="#404040" points="388,-43 354,-43 354,-24 388,-24 388,-43"/>
<text text-anchor="middle" x="371" y="-31" font-family="Helvetica,sans-Serif" font-size="10.00">nvs</text>
</a>
</g>
</g>
<!-- dir_6591a8ca0b1ec78afa747e232353e174&#45;&gt;dir_d593a792f6d68ad3cd00089cda4c9fbf -->
<g id="edge9" class="edge">
<title>dir_6591a8ca0b1ec78afa747e232353e174&#45;&gt;dir_d593a792f6d68ad3cd00089cda4c9fbf</title>
<g id="a_edge9"><a xlink:href="dir_000003_000013.html" target="_top">
<path fill="none" stroke="#63b8ff" d="M293.78,-78.98C308.18,-70.69 330.31,-57.94 347.19,-48.22"/>
<polygon fill="#63b8ff" stroke="#63b8ff" points="349.03,-51.19 355.95,-43.17 345.54,-45.13 349.03,-51.19"/>
</a>
</g>
<g id="a_edge9&#45;headlabel"><a xlink:href="dir_000003_000013.html" target="_top" xlink:title="1">
<text text-anchor="middle" x="347.33" y="-52.95" font-family="Helvetica,sans-Serif" font-size="10.00" fill="#63b8ff">1</text>
</a>
</g>
</g>
<!-- dir_4b8e3d6e776ac08673ce436ae24ce3ad -->
<g id="node5" class="node">
<title>dir_4b8e3d6e776ac08673ce436ae24ce3ad</title>
<g id="a_node5"><a xlink:href="dir_4b8e3d6e776ac08673ce436ae24ce3ad.html" target="_top" xlink:title="dispatcher_task">
<polygon fill="#a2b4d6" stroke="#404040" points="434,-98 340,-98 340,-79 434,-79 434,-98"/>
<text text-anchor="middle" x="387" y="-86" font-family="Helvetica,sans-Serif" font-size="10.00">dispatcher_task</text>
</a>
</g>
</g>
<!-- dir_4b8e3d6e776ac08673ce436ae24ce3ad&#45;&gt;dir_3df67f4185c8cd9c27353f35f3bf503b -->
<g id="edge10" class="edge">
<title>dir_4b8e3d6e776ac08673ce436ae24ce3ad&#45;&gt;dir_3df67f4185c8cd9c27353f35f3bf503b</title>
<g id="a_edge10"><a xlink:href="dir_000004_000006.html" target="_top">
<path fill="none" stroke="#63b8ff" d="M395.75,-78.75C403.47,-71.03 414.9,-59.6 424.22,-50.28"/>
<polygon fill="#63b8ff" stroke="#63b8ff" points="426.81,-52.64 431.41,-43.09 421.86,-47.69 426.81,-52.64"/>
</a>
</g>
<g id="a_edge10&#45;headlabel"><a xlink:href="dir_000004_000006.html" target="_top" xlink:title="2">
<text text-anchor="middle" x="426.28" y="-54.68" font-family="Helvetica,sans-Serif" font-size="10.00" fill="#63b8ff">2</text>
</a>
</g>
</g>
<!-- dir_fb7d8fb2e7a81481fd306fa505fa505b -->
<g id="node10" class="node">
<title>dir_fb7d8fb2e7a81481fd306fa505fa505b</title>
<g id="a_node10"><a xlink:href="dir_fb7d8fb2e7a81481fd306fa505fa505b.html" target="_top" xlink:title="hv5622">
<polygon fill="#a2b4d6" stroke="#404040" points="77.5,-43 24.5,-43 24.5,-24 77.5,-24 77.5,-43"/>
<text text-anchor="middle" x="51" y="-31" font-family="Helvetica,sans-Serif" font-size="10.00">hv5622</text>
</a>
</g>
</g>
<!-- dir_25afab11bb9cc6587024a85a8f095e2f&#45;&gt;dir_fb7d8fb2e7a81481fd306fa505fa505b -->
<g id="edge11" class="edge">
<title>dir_25afab11bb9cc6587024a85a8f095e2f&#45;&gt;dir_fb7d8fb2e7a81481fd306fa505fa505b</title>
<g id="a_edge11"><a xlink:href="dir_000005_000009.html" target="_top">
<path fill="none" stroke="#63b8ff" d="M58.51,-78.75C57.33,-71.8 55.64,-61.85 54.16,-53.13"/>
<polygon fill="#63b8ff" stroke="#63b8ff" points="57.58,-52.36 52.46,-43.09 50.68,-53.53 57.58,-52.36"/>
</a>
</g>
<g id="a_edge11&#45;headlabel"><a xlink:href="dir_000005_000009.html" target="_top" xlink:title="1">
<text text-anchor="middle" x="60.98" y="-52.93" font-family="Helvetica,sans-Serif" font-size="10.00" fill="#63b8ff">1</text>
</a>
</g>
</g>
<!-- dir_6378bc349134a8014a09749f3432f8e2&#45;&gt;dir_3df67f4185c8cd9c27353f35f3bf503b -->
<g id="edge12" class="edge">
<title>dir_6378bc349134a8014a09749f3432f8e2&#45;&gt;dir_3df67f4185c8cd9c27353f35f3bf503b</title>
<g id="a_edge12"><a xlink:href="dir_000008_000006.html" target="_top">
<path fill="none" stroke="#63b8ff" d="M218.17,-80.79C263.38,-71.35 345.84,-54.15 396.49,-43.58"/>
<polygon fill="#63b8ff" stroke="#63b8ff" points="397.41,-46.96 406.48,-41.49 395.98,-40.11 397.41,-46.96"/>
</a>
</g>
<g id="a_edge12&#45;headlabel"><a xlink:href="dir_000008_000006.html" target="_top" xlink:title="1">
<text text-anchor="middle" x="394.47" y="-47.98" font-family="Helvetica,sans-Serif" font-size="10.00" fill="#63b8ff">1</text>
</a>
</g>
</g>
<!-- dir_6378bc349134a8014a09749f3432f8e2&#45;&gt;dir_c8df9a83da56af1891de301214a2e601 -->
<g id="edge13" class="edge">
<title>dir_6378bc349134a8014a09749f3432f8e2&#45;&gt;dir_c8df9a83da56af1891de301214a2e601</title>
<g id="a_edge13"><a xlink:href="dir_000008_000007.html" target="_top">
<path fill="none" stroke="#63b8ff" d="M194.92,-78.75C202.78,-71.03 214.43,-59.6 223.92,-50.28"/>
<polygon fill="#63b8ff" stroke="#63b8ff" points="226.56,-52.59 231.25,-43.09 221.66,-47.6 226.56,-52.59"/>
</a>
</g>
<g id="a_edge13&#45;headlabel"><a xlink:href="dir_000008_000007.html" target="_top" xlink:title="2">
<text text-anchor="middle" x="225.99" y="-54.64" font-family="Helvetica,sans-Serif" font-size="10.00" fill="#63b8ff">2</text>
</a>
</g>
</g>
<!-- dir_6378bc349134a8014a09749f3432f8e2&#45;&gt;dir_ee50860190fe62f2e35dcf8898f9d9d7 -->
<g id="edge14" class="edge">
<title>dir_6378bc349134a8014a09749f3432f8e2&#45;&gt;dir_ee50860190fe62f2e35dcf8898f9d9d7</title>
<g id="a_edge14"><a xlink:href="dir_000008_000015.html" target="_top">
<path fill="none" stroke="#63b8ff" d="M178.57,-78.75C172.15,-71.18 162.69,-60.05 154.88,-50.84"/>
<polygon fill="#63b8ff" stroke="#63b8ff" points="157.43,-48.45 148.29,-43.09 152.1,-52.98 157.43,-48.45"/>
</a>
</g>
<g id="a_edge14&#45;headlabel"><a xlink:href="dir_000008_000015.html" target="_top" xlink:title="2">
<text text-anchor="middle" x="161.92" y="-46.85" font-family="Helvetica,sans-Serif" font-size="10.00" fill="#63b8ff">2</text>
</a>
</g>
</g>
<!-- dir_8938040af9d266be553d1135477b804d -->
<g id="node11" class="node">
<title>dir_8938040af9d266be553d1135477b804d</title>
<g id="a_node11"><a xlink:href="dir_8938040af9d266be553d1135477b804d.html" target="_top" xlink:title="ntp">
<polygon fill="#a2b4d6" stroke="#404040" points="402,-153 370,-153 370,-134 402,-134 402,-153"/>
<text text-anchor="middle" x="386" y="-141" font-family="Helvetica,sans-Serif" font-size="10.00">ntp</text>
</a>
</g>
</g>
<!-- dir_8938040af9d266be553d1135477b804d&#45;&gt;dir_a13c4c485bb1701984d244429ad4ded1 -->
<g id="edge17" class="edge">
<title>dir_8938040af9d266be553d1135477b804d&#45;&gt;dir_a13c4c485bb1701984d244429ad4ded1</title>
<g id="a_edge17"><a xlink:href="dir_000012_000000.html" target="_top">
<path fill="none" stroke="#63b8ff" d="M370.62,-133.91C358.1,-126.13 340.92,-113.52 331,-98 322.39,-84.53 318.41,-66.7 316.57,-53.36"/>
<polygon fill="#63b8ff" stroke="#63b8ff" points="320.05,-52.96 315.48,-43.41 313.09,-53.73 320.05,-52.96"/>
</a>
</g>
<g id="a_edge17&#45;headlabel"><a xlink:href="dir_000012_000000.html" target="_top" xlink:title="1">
<text text-anchor="middle" x="323.27" y="-53.73" font-family="Helvetica,sans-Serif" font-size="10.00" fill="#63b8ff">1</text>
</a>
</g>
</g>
<!-- dir_8938040af9d266be553d1135477b804d&#45;&gt;dir_6591a8ca0b1ec78afa747e232353e174 -->
<g id="edge16" class="edge">
<title>dir_8938040af9d266be553d1135477b804d&#45;&gt;dir_6591a8ca0b1ec78afa747e232353e174</title>
<g id="a_edge16"><a xlink:href="dir_000012_000003.html" target="_top">
<path fill="none" stroke="#63b8ff" d="M369.75,-134.45C352.69,-126 325.6,-112.58 305.45,-102.6"/>
<polygon fill="#63b8ff" stroke="#63b8ff" points="306.99,-99.46 296.47,-98.15 303.88,-105.73 306.99,-99.46"/>
</a>
</g>
<g id="a_edge16&#45;headlabel"><a xlink:href="dir_000012_000003.html" target="_top" xlink:title="1">
<text text-anchor="middle" x="311.47" y="-96.01" font-family="Helvetica,sans-Serif" font-size="10.00" fill="#63b8ff">1</text>
</a>
</g>
</g>
<!-- dir_8938040af9d266be553d1135477b804d&#45;&gt;dir_3df67f4185c8cd9c27353f35f3bf503b -->
<g id="edge15" class="edge">
<title>dir_8938040af9d266be553d1135477b804d&#45;&gt;dir_3df67f4185c8cd9c27353f35f3bf503b</title>
<g id="a_edge15"><a xlink:href="dir_000012_000006.html" target="_top">
<path fill="none" stroke="#63b8ff" d="M402.17,-135.07C415.86,-127.79 434.58,-115.26 443,-98 449.81,-84.05 448.23,-66.27 445.43,-53.07"/>
<polygon fill="#63b8ff" stroke="#63b8ff" points="448.79,-52.08 442.94,-43.25 442,-53.8 448.79,-52.08"/>
</a>
</g>
<g id="a_edge15&#45;headlabel"><a xlink:href="dir_000012_000006.html" target="_top" xlink:title="1">
<text text-anchor="middle" x="452.42" y="-52.37" font-family="Helvetica,sans-Serif" font-size="10.00" fill="#63b8ff">1</text>
</a>
</g>
</g>
<!-- dir_af00538107c5bb6312b4379f7c6a7915 -->
<g id="node13" class="node">
<title>dir_af00538107c5bb6312b4379f7c6a7915</title>
<g id="a_node13"><a xlink:href="dir_af00538107c5bb6312b4379f7c6a7915.html" target="_top" xlink:title="pwm">
<polygon fill="#a2b4d6" stroke="#404040" points="299.5,-153 258.5,-153 258.5,-134 299.5,-134 299.5,-153"/>
<text text-anchor="middle" x="279" y="-141" font-family="Helvetica,sans-Serif" font-size="10.00">pwm</text>
</a>
</g>
</g>
<!-- dir_af00538107c5bb6312b4379f7c6a7915&#45;&gt;dir_6591a8ca0b1ec78afa747e232353e174 -->
<g id="edge18" class="edge">
<title>dir_af00538107c5bb6312b4379f7c6a7915&#45;&gt;dir_6591a8ca0b1ec78afa747e232353e174</title>
<g id="a_edge18"><a xlink:href="dir_000014_000003.html" target="_top">
<path fill="none" stroke="#63b8ff" d="M279,-133.75C279,-126.8 279,-116.85 279,-108.13"/>
<polygon fill="#63b8ff" stroke="#63b8ff" points="282.5,-108.09 279,-98.09 275.5,-108.09 282.5,-108.09"/>
</a>
</g>
<g id="a_edge18&#45;headlabel"><a xlink:href="dir_000014_000003.html" target="_top" xlink:title="1">
<text text-anchor="middle" x="285.34" y="-109.18" font-family="Helvetica,sans-Serif" font-size="10.00" fill="#63b8ff">1</text>
</a>
</g>
</g>
<!-- dir_e358256436063faffb66e4cd4d1bf7a0 -->
<g id="node15" class="node">
<title>dir_e358256436063faffb66e4cd4d1bf7a0</title>
<g id="a_node15"><a xlink:href="dir_e358256436063faffb66e4cd4d1bf7a0.html" target="_top" xlink:title="uart">
<polygon fill="#a2b4d6" stroke="#404040" points="358,-208 322,-208 322,-189 358,-189 358,-208"/>
<text text-anchor="middle" x="340" y="-196" font-family="Helvetica,sans-Serif" font-size="10.00">uart</text>
</a>
</g>
</g>
<!-- dir_54c3fa7b37971d51e57fc618a8a47b11 -->
<g id="node16" class="node">
<title>dir_54c3fa7b37971d51e57fc618a8a47b11</title>
<g id="a_node16"><a xlink:href="dir_54c3fa7b37971d51e57fc618a8a47b11.html" target="_top" xlink:title="webserver">
<polygon fill="#a2b4d6" stroke="#404040" points="279,-208 211,-208 211,-189 279,-189 279,-208"/>
<text text-anchor="middle" x="245" y="-196" font-family="Helvetica,sans-Serif" font-size="10.00">webserver</text>
</a>
</g>
</g>
<!-- dir_54c3fa7b37971d51e57fc618a8a47b11&#45;&gt;dir_2f8bb0b9567c99dc8a53f1db54ef1a1c -->
<g id="edge20" class="edge">
<title>dir_54c3fa7b37971d51e57fc618a8a47b11&#45;&gt;dir_2f8bb0b9567c99dc8a53f1db54ef1a1c</title>
<g id="a_edge20"><a xlink:href="dir_000018_000001.html" target="_top">
<path fill="none" stroke="#63b8ff" d="M235.52,-188.98C226.8,-181.15 213.66,-169.34 203.1,-159.86"/>
<polygon fill="#63b8ff" stroke="#63b8ff" points="205.43,-157.25 195.65,-153.17 200.75,-162.46 205.43,-157.25"/>
</a>
</g>
<g id="a_edge20&#45;headlabel"><a xlink:href="dir_000018_000001.html" target="_top" xlink:title="1">
<text text-anchor="middle" x="210" y="-155.04" font-family="Helvetica,sans-Serif" font-size="10.00" fill="#63b8ff">1</text>
</a>
</g>
</g>
<!-- dir_54c3fa7b37971d51e57fc618a8a47b11&#45;&gt;dir_6591a8ca0b1ec78afa747e232353e174 -->
<g id="edge22" class="edge">
<title>dir_54c3fa7b37971d51e57fc618a8a47b11&#45;&gt;dir_6591a8ca0b1ec78afa747e232353e174</title>
<g id="a_edge22"><a xlink:href="dir_000018_000003.html" target="_top">
<path fill="none" stroke="#63b8ff" d="M244.34,-188.6C243.72,-176.05 243.66,-152.63 250,-134 253.41,-123.98 259.59,-114 265.38,-106.03"/>
<polygon fill="#63b8ff" stroke="#63b8ff" points="268.23,-108.06 271.57,-98.01 262.69,-103.79 268.23,-108.06"/>
</a>
</g>
<g id="a_edge22&#45;headlabel"><a xlink:href="dir_000018_000003.html" target="_top" xlink:title="1">
<text text-anchor="middle" x="268.29" y="-110.14" font-family="Helvetica,sans-Serif" font-size="10.00" fill="#63b8ff">1</text>
</a>
</g>
</g>
<!-- dir_54c3fa7b37971d51e57fc618a8a47b11&#45;&gt;dir_3df67f4185c8cd9c27353f35f3bf503b -->
<g id="edge21" class="edge">
<title>dir_54c3fa7b37971d51e57fc618a8a47b11&#45;&gt;dir_3df67f4185c8cd9c27353f35f3bf503b</title>
<g id="a_edge21"><a xlink:href="dir_000018_000006.html" target="_top">
<path fill="none" stroke="#63b8ff" d="M279.35,-191.15C321.45,-182.88 389.82,-167.74 411,-153 435.6,-135.88 440.9,-126.55 450,-98 454.71,-83.21 451.35,-65.75 447.3,-52.89"/>
<polygon fill="#63b8ff" stroke="#63b8ff" points="450.55,-51.57 443.9,-43.32 443.95,-53.92 450.55,-51.57"/>
</a>
</g>
<g id="a_edge21&#45;headlabel"><a xlink:href="dir_000018_000006.html" target="_top" xlink:title="1">
<text text-anchor="middle" x="454.43" y="-51.5" font-family="Helvetica,sans-Serif" font-size="10.00" fill="#63b8ff">1</text>
</a>
</g>
</g>
<!-- dir_27a09bb4329d836898ad2e41b0fca487 -->
<g id="node17" class="node">
<title>dir_27a09bb4329d836898ad2e41b0fca487</title>
<g id="a_node17"><a xlink:href="dir_27a09bb4329d836898ad2e41b0fca487.html" target="_top" xlink:title="wifi">
<polygon fill="#a2b4d6" stroke="#404040" points="352,-153 318,-153 318,-134 352,-134 352,-153"/>
<text text-anchor="middle" x="335" y="-141" font-family="Helvetica,sans-Serif" font-size="10.00">wifi</text>
</a>
</g>
</g>
<!-- dir_54c3fa7b37971d51e57fc618a8a47b11&#45;&gt;dir_27a09bb4329d836898ad2e41b0fca487 -->
<g id="edge19" class="edge">
<title>dir_54c3fa7b37971d51e57fc618a8a47b11&#45;&gt;dir_27a09bb4329d836898ad2e41b0fca487</title>
<g id="a_edge19"><a xlink:href="dir_000018_000019.html" target="_top">
<path fill="none" stroke="#63b8ff" d="M259.46,-188.98C273.42,-180.77 294.79,-168.18 311.25,-158.49"/>
<polygon fill="#63b8ff" stroke="#63b8ff" points="313.44,-161.26 320.28,-153.17 309.88,-155.23 313.44,-161.26"/>
</a>
</g>
<g id="a_edge19&#45;headlabel"><a xlink:href="dir_000018_000019.html" target="_top" xlink:title="1">
<text text-anchor="middle" x="311.78" y="-163.03" font-family="Helvetica,sans-Serif" font-size="10.00" fill="#63b8ff">1</text>
</a>
</g>
</g>
<!-- dir_27a09bb4329d836898ad2e41b0fca487&#45;&gt;dir_6591a8ca0b1ec78afa747e232353e174 -->
<g id="edge23" class="edge">
<title>dir_27a09bb4329d836898ad2e41b0fca487&#45;&gt;dir_6591a8ca0b1ec78afa747e232353e174</title>
<g id="a_edge23"><a xlink:href="dir_000019_000003.html" target="_top">
<path fill="none" stroke="#63b8ff" d="M326,-133.98C317.81,-126.23 305.49,-114.58 295.53,-105.14"/>
<polygon fill="#63b8ff" stroke="#63b8ff" points="297.83,-102.5 288.16,-98.17 293.02,-107.59 297.83,-102.5"/>
</a>
</g>
<g id="a_edge23&#45;headlabel"><a xlink:href="dir_000019_000003.html" target="_top" xlink:title="1">
<text text-anchor="middle" x="302.39" y="-100.41" font-family="Helvetica,sans-Serif" font-size="10.00" fill="#63b8ff">1</text>
</a>
</g>
</g>
</g>
</svg>
