<?xml version="1.0" encoding="UTF-8" standalone="no"?>
<!DOCTYPE svg PUBLIC "-//W3C//DTD SVG 1.1//EN"
 "http://www.w3.org/Graphics/SVG/1.1/DTD/svg11.dtd">
<!-- Generated by graphviz version 2.43.0 (0)
 -->
<!-- Title: software/nixie_clock_esp32_project/components Pages: 1 -->
<svg width="522pt" height="204pt"
 viewBox="0.00 0.00 522.00 204.00" xmlns="http://www.w3.org/2000/svg" xmlns:xlink="http://www.w3.org/1999/xlink">
<g id="graph0" class="graph" transform="scale(1 1) rotate(0) translate(4 200)">
<title>software/nixie_clock_esp32_project/components</title>
<g id="clust1" class="cluster">
<title>clusterdir_4e80761515fcd0d8a8682b4ebda49685</title>
<g id="a_clust1"><a xlink:href="dir_4e80761515fcd0d8a8682b4ebda49685.html" target="_top" xlink:title="nixie_clock_esp32_project">
<polygon fill="#edf0f7" stroke="#7f7f7f" stroke-dasharray="5,2" points="8,-8 8,-188 506,-188 506,-8 8,-8"/>
<text text-anchor="middle" x="257" y="-176" font-family="Helvetica,sans-Serif" font-size="10.00">nixie_clock_esp32_project</text>
</a>
</g>
</g>
<g id="clust2" class="cluster">
<title>clusterdir_b181baf956279f894a730e459ce47bc5</title>
<g id="a_clust2"><a xlink:href="dir_b181baf956279f894a730e459ce47bc5.html" target="_top">
<polygon fill="#edf0f7" stroke="#404040" stroke-width="2" points="16,-16 16,-161 498,-161 498,-16 16,-16"/>
</a>
</g>
</g>
<!-- dir_b181baf956279f894a730e459ce47bc5 -->
<g id="node1" class="node">
<title>dir_b181baf956279f894a730e459ce47bc5</title>
<text text-anchor="middle" x="451" y="-141" font-family="Helvetica,sans-Serif" font-size="10.00">components</text>
</g>
<!-- dir_a13c4c485bb1701984d244429ad4ded1 -->
<g id="node2" class="node">
<title>dir_a13c4c485bb1701984d244429ad4ded1</title>
<g id="a_node2"><a xlink:href="dir_a13c4c485bb1701984d244429ad4ded1.html" target="_top" xlink:title="clock">
<polygon fill="#a2b4d6" stroke="#404040" points="132,-43 90,-43 90,-24 132,-24 132,-43"/>
<text text-anchor="middle" x="111" y="-31" font-family="Helvetica,sans-Serif" font-size="10.00">clock</text>
</a>
</g>
</g>
<!-- dir_2f8bb0b9567c99dc8a53f1db54ef1a1c -->
<g id="node3" class="node">
<title>dir_2f8bb0b9567c99dc8a53f1db54ef1a1c</title>
<g id="a_node3"><a xlink:href="dir_2f8bb0b9567c99dc8a53f1db54ef1a1c.html" target="_top" xlink:title="clock_task">
<polygon fill="#a2b4d6" stroke="#404040" points="394,-153 326,-153 326,-134 394,-134 394,-153"/>
<text text-anchor="middle" x="360" y="-141" font-family="Helvetica,sans-Serif" font-size="10.00">clock_task</text>
</a>
</g>
</g>
<!-- dir_2f8bb0b9567c99dc8a53f1db54ef1a1c&#45;&gt;dir_a13c4c485bb1701984d244429ad4ded1 -->
<g id="edge4" class="edge">
<title>dir_2f8bb0b9567c99dc8a53f1db54ef1a1c&#45;&gt;dir_a13c4c485bb1701984d244429ad4ded1</title>
<g id="a_edge4"><a xlink:href="dir_000001_000000.html" target="_top">
<path fill="none" stroke="#63b8ff" d="M325.86,-135.39C271.33,-123.95 169.95,-102.3 163,-98 153.18,-91.93 134.97,-68.12 122.91,-51.44"/>
<polygon fill="#63b8ff" stroke="#63b8ff" points="125.6,-49.18 116.94,-43.07 119.9,-53.25 125.6,-49.18"/>
</a>
</g>
<g id="a_edge4&#45;headlabel"><a xlink:href="dir_000001_000000.html" target="_top" xlink:title="1">
<text text-anchor="middle" x="130" y="-47.96" font-family="Helvetica,sans-Serif" font-size="10.00" fill="#63b8ff">1</text>
</a>
</g>
</g>
<!-- dir_6591a8ca0b1ec78afa747e232353e174 -->
<g id="node4" class="node">
<title>dir_6591a8ca0b1ec78afa747e232353e174</title>
<g id="a_node4"><a xlink:href="dir_6591a8ca0b1ec78afa747e232353e174.html" target="_top" xlink:title="config">
<polygon fill="#a2b4d6" stroke="#404040" points="134,-98 88,-98 88,-79 134,-79 134,-98"/>
<text text-anchor="middle" x="111" y="-86" font-family="Helvetica,sans-Serif" font-size="10.00">config</text>
</a>
</g>
</g>
<!-- dir_2f8bb0b9567c99dc8a53f1db54ef1a1c&#45;&gt;dir_6591a8ca0b1ec78afa747e232353e174 -->
<g id="edge3" class="edge">
<title>dir_2f8bb0b9567c99dc8a53f1db54ef1a1c&#45;&gt;dir_6591a8ca0b1ec78afa747e232353e174</title>
<g id="a_edge3"><a xlink:href="dir_000001_000003.html" target="_top">
<path fill="none" stroke="#63b8ff" d="M325.81,-135.53C283.87,-126.93 210.63,-111.77 148,-98 146.73,-97.72 145.44,-97.44 144.14,-97.14"/>
<polygon fill="#63b8ff" stroke="#63b8ff" points="144.6,-93.66 134.08,-94.87 143.06,-100.49 144.6,-93.66"/>
</a>
</g>
<g id="a_edge3&#45;headlabel"><a xlink:href="dir_000001_000003.html" target="_top" xlink:title="1">
<text text-anchor="middle" x="148.73" y="-89.18" font-family="Helvetica,sans-Serif" font-size="10.00" fill="#63b8ff">1</text>
</a>
</g>
</g>
<!-- dir_25afab11bb9cc6587024a85a8f095e2f -->
<g id="node6" class="node">
<title>dir_25afab11bb9cc6587024a85a8f095e2f</title>
<g id="a_node6"><a xlink:href="dir_25afab11bb9cc6587024a85a8f095e2f.html" target="_top" xlink:title="display">
<polygon fill="#a2b4d6" stroke="#404040" points="465,-98 413,-98 413,-79 465,-79 465,-98"/>
<text text-anchor="middle" x="439" y="-86" font-family="Helvetica,sans-Serif" font-size="10.00">display</text>
</a>
</g>
</g>
<!-- dir_2f8bb0b9567c99dc8a53f1db54ef1a1c&#45;&gt;dir_25afab11bb9cc6587024a85a8f095e2f -->
<g id="edge1" class="edge">
<title>dir_2f8bb0b9567c99dc8a53f1db54ef1a1c&#45;&gt;dir_25afab11bb9cc6587024a85a8f095e2f</title>
<g id="a_edge1"><a xlink:href="dir_000001_000005.html" target="_top">
<path fill="none" stroke="#63b8ff" d="M372.69,-133.98C384.83,-125.84 403.36,-113.41 417.75,-103.76"/>
<polygon fill="#63b8ff" stroke="#63b8ff" points="419.72,-106.65 426.08,-98.17 415.82,-100.84 419.72,-106.65"/>
</a>
</g>
<g id="a_edge1&#45;headlabel"><a xlink:href="dir_000001_000005.html" target="_top" xlink:title="1">
<text text-anchor="middle" x="418.32" y="-108.51" font-family="Helvetica,sans-Serif" font-size="10.00" fill="#63b8ff">1</text>
</a>
</g>
</g>
<!-- dir_c8df9a83da56af1891de301214a2e601 -->
<g id="node8" class="node">
<title>dir_c8df9a83da56af1891de301214a2e601</title>
<g id="a_node8"><a xlink:href="dir_c8df9a83da56af1891de301214a2e601.html" target="_top" xlink:title="gpio_driver">
<polygon fill="#a2b4d6" stroke="#404040" points="415.5,-43 344.5,-43 344.5,-24 415.5,-24 415.5,-43"/>
<text text-anchor="middle" x="380" y="-31" font-family="Helvetica,sans-Serif" font-size="10.00">gpio_driver</text>
</a>
</g>
</g>
<!-- dir_2f8bb0b9567c99dc8a53f1db54ef1a1c&#45;&gt;dir_c8df9a83da56af1891de301214a2e601 -->
<g id="edge5" class="edge">
<title>dir_2f8bb0b9567c99dc8a53f1db54ef1a1c&#45;&gt;dir_c8df9a83da56af1891de301214a2e601</title>
<g id="a_edge5"><a xlink:href="dir_000001_000007.html" target="_top">
<path fill="none" stroke="#63b8ff" d="M361.64,-133.66C364.88,-116.17 372.17,-76.8 376.52,-53.27"/>
<polygon fill="#63b8ff" stroke="#63b8ff" points="380.02,-53.63 378.4,-43.16 373.13,-52.35 380.02,-53.63"/>
</a>
</g>
<g id="a_edge5&#45;headlabel"><a xlink:href="dir_000001_000007.html" target="_top" xlink:title="1">
<text text-anchor="middle" x="382.15" y="-55.18" font-family="Helvetica,sans-Serif" font-size="10.00" fill="#63b8ff">1</text>
</a>
</g>
</g>
<!-- dir_6378bc349134a8014a09749f3432f8e2 -->
<g id="node9" class="node">
<title>dir_6378bc349134a8014a09749f3432f8e2</title>
<g id="a_node9"><a xlink:href="dir_6378bc349134a8014a09749f3432f8e2.html" target="_top" xlink:title="gpio_task">
<polygon fill="#a2b4d6" stroke="#404040" points="328,-98 264,-98 264,-79 328,-79 328,-98"/>
<text text-anchor="middle" x="296" y="-86" font-family="Helvetica,sans-Serif" font-size="10.00">gpio_task</text>
</a>
</g>
</g>
<!-- dir_2f8bb0b9567c99dc8a53f1db54ef1a1c&#45;&gt;dir_6378bc349134a8014a09749f3432f8e2 -->
<g id="edge2" class="edge">
<title>dir_2f8bb0b9567c99dc8a53f1db54ef1a1c&#45;&gt;dir_6378bc349134a8014a09749f3432f8e2</title>
<g id="a_edge2"><a xlink:href="dir_000001_000008.html" target="_top">
<path fill="none" stroke="#63b8ff" d="M349.72,-133.98C340.16,-126.07 325.72,-114.11 314.22,-104.58"/>
<polygon fill="#63b8ff" stroke="#63b8ff" points="316.4,-101.85 306.47,-98.17 311.94,-107.24 316.4,-101.85"/>
</a>
</g>
<g id="a_edge2&#45;headlabel"><a xlink:href="dir_000001_000008.html" target="_top" xlink:title="1">
<text text-anchor="middle" x="320.98" y="-99.46" font-family="Helvetica,sans-Serif" font-size="10.00" fill="#63b8ff">1</text>
</a>
</g>
</g>
<!-- dir_ee50860190fe62f2e35dcf8898f9d9d7 -->
<g id="node14" class="node">
<title>dir_ee50860190fe62f2e35dcf8898f9d9d7</title>
<g id="a_node14"><a xlink:href="dir_ee50860190fe62f2e35dcf8898f9d9d7.html" target="_top" xlink:title="rotary_encoder">
<polygon fill="#a2b4d6" stroke="#404040" points="326,-43 236,-43 236,-24 326,-24 326,-43"/>
<text text-anchor="middle" x="281" y="-31" font-family="Helvetica,sans-Serif" font-size="10.00">rotary_encoder</text>
</a>
</g>
</g>
<!-- dir_2f8bb0b9567c99dc8a53f1db54ef1a1c&#45;&gt;dir_ee50860190fe62f2e35dcf8898f9d9d7 -->
<g id="edge6" class="edge">
<title>dir_2f8bb0b9567c99dc8a53f1db54ef1a1c&#45;&gt;dir_ee50860190fe62f2e35dcf8898f9d9d7</title>
<g id="a_edge6"><a xlink:href="dir_000001_000015.html" target="_top">
<path fill="none" stroke="#63b8ff" d="M358.47,-133.99C355.83,-121.11 349.46,-96.33 337,-79 328.36,-66.99 315.63,-56.52 304.49,-48.76"/>
<polygon fill="#63b8ff" stroke="#63b8ff" points="306.28,-45.74 296.01,-43.13 302.41,-51.58 306.28,-45.74"/>
</a>
</g>
<g id="a_edge6&#45;headlabel"><a xlink:href="dir_000001_000015.html" target="_top" xlink:title="1">
<text text-anchor="middle" x="310.84" y="-42.86" font-family="Helvetica,sans-Serif" font-size="10.00" fill="#63b8ff">1</text>
</a>
</g>
</g>
<!-- dir_6591a8ca0b1ec78afa747e232353e174&#45;&gt;dir_a13c4c485bb1701984d244429ad4ded1 -->
<g id="edge8" class="edge">
<title>dir_6591a8ca0b1ec78afa747e232353e174&#45;&gt;dir_a13c4c485bb1701984d244429ad4ded1</title>
<g id="a_edge8"><a xlink:href="dir_000003_000000.html" target="_top">
<path fill="none" stroke="#63b8ff" d="M111,-78.75C111,-71.8 111,-61.85 111,-53.13"/>
<polygon fill="#63b8ff" stroke="#63b8ff" points="114.5,-53.09 111,-43.09 107.5,-53.09 114.5,-53.09"/>
</a>
</g>
<g id="a_edge8&#45;headlabel"><a xlink:href="dir_000003_000000.html" target="_top" xlink:title="1">
<text text-anchor="middle" x="117.34" y="-54.18" font-family="Helvetica,sans-Serif" font-size="10.00" fill="#63b8ff">1</text>
</a>
</g>
</g>
<!-- dir_3df67f4185c8cd9c27353f35f3bf503b -->
<g id="node7" class="node">
<title>dir_3df67f4185c8cd9c27353f35f3bf503b</title>
<g id="a_node7"><a xlink:href="dir_3df67f4185c8cd9c27353f35f3bf503b.html" target="_top" xlink:title="event_bus">
<polygon fill="#a2b4d6" stroke="#404040" points="217.5,-43 150.5,-43 150.5,-24 217.5,-24 217.5,-43"/>
<text text-anchor="middle" x="184" y="-31" font-family="Helvetica,sans-Serif" font-size="10.00">event_bus</text>
</a>
</g>
</g>
<!-- dir_6591a8ca0b1ec78afa747e232353e174&#45;&gt;dir_3df67f4185c8cd9c27353f35f3bf503b -->
<g id="edge7" class="edge">
<title>dir_6591a8ca0b1ec78afa747e232353e174&#45;&gt;dir_3df67f4185c8cd9c27353f35f3bf503b</title>
<g id="a_edge7"><a xlink:href="dir_000003_000006.html" target="_top">
<path fill="none" stroke="#63b8ff" d="M122.73,-78.98C133.73,-71 150.42,-58.88 163.6,-49.31"/>
<polygon fill="#63b8ff" stroke="#63b8ff" points="166.02,-51.88 172.06,-43.17 161.91,-46.21 166.02,-51.88"/>
</a>
</g>
<g id="a_edge7&#45;headlabel"><a xlink:href="dir_000003_000006.html" target="_top" xlink:title="1">
<text text-anchor="middle" x="164.78" y="-53.79" font-family="Helvetica,sans-Serif" font-size="10.00" fill="#63b8ff">1</text>
</a>
</g>
</g>
<!-- dir_d593a792f6d68ad3cd00089cda4c9fbf -->
<g id="node12" class="node">
<title>dir_d593a792f6d68ad3cd00089cda4c9fbf</title>
<g id="a_node12"><a xlink:href="dir_d593a792f6d68ad3cd00089cda4c9fbf.html" target="_top" xlink:title="nvs">
<polygon fill="#a2b4d6" stroke="#404040" points="72,-43 38,-43 38,-24 72,-24 72,-43"/>
<text text-anchor="middle" x="55" y="-31" font-family="Helvetica,sans-Serif" font-size="10.00">nvs</text>
</a>
</g>
</g>
<!-- dir_6591a8ca0b1ec78afa747e232353e174&#45;&gt;dir_d593a792f6d68ad3cd00089cda4c9fbf -->
<g id="edge9" class="edge">
<title>dir_6591a8ca0b1ec78afa747e232353e174&#45;&gt;dir_d593a792f6d68ad3cd00089cda4c9fbf</title>
<g id="a_edge9"><a xlink:href="dir_000003_000013.html" target="_top">
<path fill="none" stroke="#63b8ff" d="M102,-78.98C93.81,-71.23 81.49,-59.58 71.53,-50.14"/>
<polygon fill="#63b8ff" stroke="#63b8ff" points="73.83,-47.5 64.16,-43.17 69.02,-52.59 73.83,-47.5"/>
</a>
</g>
<g id="a_edge9&#45;headlabel"><a xlink:href="dir_000003_000013.html" target="_top" xlink:title="1">
<text text-anchor="middle" x="78.39" y="-45.41" font-family="Helvetica,sans-Serif" font-size="10.00" fill="#63b8ff">1</text>
</a>
</g>
</g>
<!-- dir_bfdcce58a23cc395bda28f665cadf99d -->
<g id="node5" class="node">
<title>dir_bfdcce58a23cc395bda28f665cadf99d</title>
<g id="a_node5"><a xlink:href="dir_bfdcce58a23cc395bda28f665cadf99d.html" target="_top" xlink:title="dispatcher">
<polygon fill="#a2b4d6" stroke="#404040" points="240,-98 172,-98 172,-79 240,-79 240,-98"/>
<text text-anchor="middle" x="206" y="-86" font-family="Helvetica,sans-Serif" font-size="10.00">dispatcher</text>
</a>
</g>
</g>
<!-- dir_bfdcce58a23cc395bda28f665cadf99d&#45;&gt;dir_3df67f4185c8cd9c27353f35f3bf503b -->
<g id="edge10" class="edge">
<title>dir_bfdcce58a23cc395bda28f665cadf99d&#45;&gt;dir_3df67f4185c8cd9c27353f35f3bf503b</title>
<g id="a_edge10"><a xlink:href="dir_000004_000006.html" target="_top">
<path fill="none" stroke="#63b8ff" d="M202.37,-78.75C199.42,-71.65 195.17,-61.4 191.49,-52.56"/>
<polygon fill="#63b8ff" stroke="#63b8ff" points="194.63,-50.98 187.57,-43.09 188.17,-53.67 194.63,-50.98"/>
</a>
</g>
<g id="a_edge10&#45;headlabel"><a xlink:href="dir_000004_000006.html" target="_top" xlink:title="2">
<text text-anchor="middle" x="198.63" y="-50.71" font-family="Helvetica,sans-Serif" font-size="10.00" fill="#63b8ff">2</text>
</a>
</g>
</g>
<!-- dir_fb7d8fb2e7a81481fd306fa505fa505b -->
<g id="node10" class="node">
<title>dir_fb7d8fb2e7a81481fd306fa505fa505b</title>
<g id="a_node10"><a xlink:href="dir_fb7d8fb2e7a81481fd306fa505fa505b.html" target="_top" xlink:title="hv5622">
<polygon fill="#a2b4d6" stroke="#404040" points="486.5,-43 433.5,-43 433.5,-24 486.5,-24 486.5,-43"/>
<text text-anchor="middle" x="460" y="-31" font-family="Helvetica,sans-Serif" font-size="10.00">hv5622</text>
</a>
</g>
</g>
<!-- dir_25afab11bb9cc6587024a85a8f095e2f&#45;&gt;dir_fb7d8fb2e7a81481fd306fa505fa505b -->
<g id="edge11" class="edge">
<title>dir_25afab11bb9cc6587024a85a8f095e2f&#45;&gt;dir_fb7d8fb2e7a81481fd306fa505fa505b</title>
<g id="a_edge11"><a xlink:href="dir_000005_000009.html" target="_top">
<path fill="none" stroke="#63b8ff" d="M442.47,-78.75C445.28,-71.65 449.34,-61.4 452.85,-52.56"/>
<polygon fill="#63b8ff" stroke="#63b8ff" points="456.17,-53.68 456.6,-43.09 449.66,-51.1 456.17,-53.68"/>
</a>
</g>
<g id="a_edge11&#45;headlabel"><a xlink:href="dir_000005_000009.html" target="_top" xlink:title="1">
<text text-anchor="middle" x="457.48" y="-55.56" font-family="Helvetica,sans-Serif" font-size="10.00" fill="#63b8ff">1</text>
</a>
</g>
</g>
<!-- dir_6378bc349134a8014a09749f3432f8e2&#45;&gt;dir_3df67f4185c8cd9c27353f35f3bf503b -->
<g id="edge12" class="edge">
<title>dir_6378bc349134a8014a09749f3432f8e2&#45;&gt;dir_3df67f4185c8cd9c27353f35f3bf503b</title>
<g id="a_edge12"><a xlink:href="dir_000008_000006.html" target="_top">
<path fill="none" stroke="#63b8ff" d="M278.01,-78.98C260.07,-70.5 232.28,-57.35 211.57,-47.54"/>
<polygon fill="#63b8ff" stroke="#63b8ff" points="212.86,-44.28 202.32,-43.17 209.86,-50.61 212.86,-44.28"/>
</a>
</g>
<g id="a_edge12&#45;headlabel"><a xlink:href="dir_000008_000006.html" target="_top" xlink:title="1">
<text text-anchor="middle" x="217.32" y="-40.76" font-family="Helvetica,sans-Serif" font-size="10.00" fill="#63b8ff">1</text>
</a>
</g>
</g>
<!-- dir_6378bc349134a8014a09749f3432f8e2&#45;&gt;dir_c8df9a83da56af1891de301214a2e601 -->
<g id="edge13" class="edge">
<title>dir_6378bc349134a8014a09749f3432f8e2&#45;&gt;dir_c8df9a83da56af1891de301214a2e601</title>
<g id="a_edge13"><a xlink:href="dir_000008_000007.html" target="_top">
<path fill="none" stroke="#63b8ff" d="M309.5,-78.98C322.4,-70.84 342.1,-58.41 357.4,-48.76"/>
<polygon fill="#63b8ff" stroke="#63b8ff" points="359.67,-51.47 366.26,-43.17 355.93,-45.55 359.67,-51.47"/>
</a>
</g>
<g id="a_edge13&#45;headlabel"><a xlink:href="dir_000008_000007.html" target="_top" xlink:title="2">
<text text-anchor="middle" x="358.14" y="-53.29" font-family="Helvetica,sans-Serif" font-size="10.00" fill="#63b8ff">2</text>
</a>
</g>
</g>
<!-- dir_6378bc349134a8014a09749f3432f8e2&#45;&gt;dir_ee50860190fe62f2e35dcf8898f9d9d7 -->
<g id="edge14" class="edge">
<title>dir_6378bc349134a8014a09749f3432f8e2&#45;&gt;dir_ee50860190fe62f2e35dcf8898f9d9d7</title>
<g id="a_edge14"><a xlink:href="dir_000008_000015.html" target="_top">
<path fill="none" stroke="#63b8ff" d="M293.52,-78.75C291.54,-71.72 288.68,-61.62 286.19,-52.84"/>
<polygon fill="#63b8ff" stroke="#63b8ff" points="289.52,-51.76 283.43,-43.09 282.79,-53.66 289.52,-51.76"/>
</a>
</g>
<g id="a_edge14&#45;headlabel"><a xlink:href="dir_000008_000015.html" target="_top" xlink:title="2">
<text text-anchor="middle" x="293.23" y="-51.94" font-family="Helvetica,sans-Serif" font-size="10.00" fill="#63b8ff">2</text>
</a>
</g>
</g>
<!-- dir_8938040af9d266be553d1135477b804d -->
<g id="node11" class="node">
<title>dir_8938040af9d266be553d1135477b804d</title>
<g id="a_node11"><a xlink:href="dir_8938040af9d266be553d1135477b804d.html" target="_top" xlink:title="ntp">
<polygon fill="#a2b4d6" stroke="#404040" points="56,-153 24,-153 24,-134 56,-134 56,-153"/>
<text text-anchor="middle" x="40" y="-141" font-family="Helvetica,sans-Serif" font-size="10.00">ntp</text>
</a>
</g>
</g>
<!-- dir_8938040af9d266be553d1135477b804d&#45;&gt;dir_a13c4c485bb1701984d244429ad4ded1 -->
<g id="edge17" class="edge">
<title>dir_8938040af9d266be553d1135477b804d&#45;&gt;dir_a13c4c485bb1701984d244429ad4ded1</title>
<g id="a_edge17"><a xlink:href="dir_000012_000000.html" target="_top">
<path fill="none" stroke="#63b8ff" d="M41.42,-133.65C43.8,-120.76 49.52,-96.47 61,-79 68.5,-67.58 79.66,-57.27 89.53,-49.45"/>
<polygon fill="#63b8ff" stroke="#63b8ff" points="91.87,-52.07 97.75,-43.26 87.66,-46.48 91.87,-52.07"/>
</a>
</g>
<g id="a_edge17&#45;headlabel"><a xlink:href="dir_000012_000000.html" target="_top" xlink:title="1">
<text text-anchor="middle" x="90.71" y="-54" font-family="Helvetica,sans-Serif" font-size="10.00" fill="#63b8ff">1</text>
</a>
</g>
</g>
<!-- dir_8938040af9d266be553d1135477b804d&#45;&gt;dir_6591a8ca0b1ec78afa747e232353e174 -->
<g id="edge16" class="edge">
<title>dir_8938040af9d266be553d1135477b804d&#45;&gt;dir_6591a8ca0b1ec78afa747e232353e174</title>
<g id="a_edge16"><a xlink:href="dir_000012_000003.html" target="_top">
<path fill="none" stroke="#63b8ff" d="M51.41,-133.98C62.11,-126 78.34,-113.88 91.16,-104.31"/>
<polygon fill="#63b8ff" stroke="#63b8ff" points="93.47,-106.96 99.39,-98.17 89.28,-101.35 93.47,-106.96"/>
</a>
</g>
<g id="a_edge16&#45;headlabel"><a xlink:href="dir_000012_000003.html" target="_top" xlink:title="1">
<text text-anchor="middle" x="92.28" y="-108.88" font-family="Helvetica,sans-Serif" font-size="10.00" fill="#63b8ff">1</text>
</a>
</g>
</g>
<!-- dir_8938040af9d266be553d1135477b804d&#45;&gt;dir_3df67f4185c8cd9c27353f35f3bf503b -->
<g id="edge15" class="edge">
<title>dir_8938040af9d266be553d1135477b804d&#45;&gt;dir_3df67f4185c8cd9c27353f35f3bf503b</title>
<g id="a_edge15"><a xlink:href="dir_000012_000006.html" target="_top">
<path fill="none" stroke="#63b8ff" d="M43.24,-133.94C48.7,-120.54 60.95,-94.52 79,-79 96.67,-63.8 120.3,-53.17 140.66,-46.12"/>
<polygon fill="#63b8ff" stroke="#63b8ff" points="141.94,-49.38 150.36,-42.94 139.76,-42.73 141.94,-49.38"/>
</a>
</g>
<g id="a_edge15&#45;headlabel"><a xlink:href="dir_000012_000006.html" target="_top" xlink:title="1">
<text text-anchor="middle" x="139.41" y="-50.7" font-family="Helvetica,sans-Serif" font-size="10.00" fill="#63b8ff">1</text>
</a>
</g>
</g>
<!-- dir_af00538107c5bb6312b4379f7c6a7915 -->
<g id="node13" class="node">
<title>dir_af00538107c5bb6312b4379f7c6a7915</title>
<g id="a_node13"><a xlink:href="dir_af00538107c5bb6312b4379f7c6a7915.html" target="_top" xlink:title="pwm">
<polygon fill="#a2b4d6" stroke="#404040" points="255.5,-153 214.5,-153 214.5,-134 255.5,-134 255.5,-153"/>
<text text-anchor="middle" x="235" y="-141" font-family="Helvetica,sans-Serif" font-size="10.00">pwm</text>
</a>
</g>
</g>
<!-- dir_af00538107c5bb6312b4379f7c6a7915&#45;&gt;dir_6591a8ca0b1ec78afa747e232353e174 -->
<g id="edge18" class="edge">
<title>dir_af00538107c5bb6312b4379f7c6a7915&#45;&gt;dir_6591a8ca0b1ec78afa747e232353e174</title>
<g id="a_edge18"><a xlink:href="dir_000014_000003.html" target="_top">
<path fill="none" stroke="#63b8ff" d="M215.08,-133.98C194.95,-125.38 163.62,-111.99 140.59,-102.15"/>
<polygon fill="#63b8ff" stroke="#63b8ff" points="141.86,-98.88 131.29,-98.17 139.1,-105.32 141.86,-98.88"/>
</a>
</g>
<g id="a_edge18&#45;headlabel"><a xlink:href="dir_000014_000003.html" target="_top" xlink:title="1">
<text text-anchor="middle" x="146.28" y="-95.18" font-family="Helvetica,sans-Serif" font-size="10.00" fill="#63b8ff">1</text>
</a>
</g>
</g>
<!-- dir_e358256436063faffb66e4cd4d1bf7a0 -->
<g id="node15" class="node">
<title>dir_e358256436063faffb66e4cd4d1bf7a0</title>
<g id="a_node15"><a xlink:href="dir_e358256436063faffb66e4cd4d1bf7a0.html" target="_top" xlink:title="uart">
<polygon fill="#a2b4d6" stroke="#404040" points="196,-153 160,-153 160,-134 196,-134 196,-153"/>
<text text-anchor="middle" x="178" y="-141" font-family="Helvetica,sans-Serif" font-size="10.00">uart</text>
</a>
</g>
</g>
<!-- dir_54c3fa7b37971d51e57fc618a8a47b11 -->
<g id="node16" class="node">
<title>dir_54c3fa7b37971d51e57fc618a8a47b11</title>
<g id="a_node16"><a xlink:href="dir_54c3fa7b37971d51e57fc618a8a47b11.html" target="_top" xlink:title="webserver">
<polygon fill="#a2b4d6" stroke="#404040" points="142,-153 74,-153 74,-134 142,-134 142,-153"/>
<text text-anchor="middle" x="108" y="-141" font-family="Helvetica,sans-Serif" font-size="10.00">webserver</text>
</a>
</g>
</g>
<!-- dir_54c3fa7b37971d51e57fc618a8a47b11&#45;&gt;dir_6591a8ca0b1ec78afa747e232353e174 -->
<g id="edge19" class="edge">
<title>dir_54c3fa7b37971d51e57fc618a8a47b11&#45;&gt;dir_6591a8ca0b1ec78afa747e232353e174</title>
<g id="a_edge19"><a xlink:href="dir_000018_000003.html" target="_top">
<path fill="none" stroke="#63b8ff" d="M108.5,-133.75C108.89,-126.8 109.45,-116.85 109.95,-108.13"/>
<polygon fill="#63b8ff" stroke="#63b8ff" points="113.44,-108.27 110.51,-98.09 106.45,-107.88 113.44,-108.27"/>
</a>
</g>
<g id="a_edge19&#45;headlabel"><a xlink:href="dir_000018_000003.html" target="_top" xlink:title="1">
<text text-anchor="middle" x="116.07" y="-109.52" font-family="Helvetica,sans-Serif" font-size="10.00" fill="#63b8ff">1</text>
</a>
</g>
</g>
<!-- dir_27a09bb4329d836898ad2e41b0fca487 -->
<g id="node17" class="node">
<title>dir_27a09bb4329d836898ad2e41b0fca487</title>
<g id="a_node17"><a xlink:href="dir_27a09bb4329d836898ad2e41b0fca487.html" target="_top" xlink:title="wifi">
<polygon fill="#a2b4d6" stroke="#404040" points="308,-153 274,-153 274,-134 308,-134 308,-153"/>
<text text-anchor="middle" x="291" y="-141" font-family="Helvetica,sans-Serif" font-size="10.00">wifi</text>
</a>
</g>
</g>
<!-- dir_27a09bb4329d836898ad2e41b0fca487&#45;&gt;dir_6591a8ca0b1ec78afa747e232353e174 -->
<g id="edge20" class="edge">
<title>dir_27a09bb4329d836898ad2e41b0fca487&#45;&gt;dir_6591a8ca0b1ec78afa747e232353e174</title>
<g id="a_edge20"><a xlink:href="dir_000019_000003.html" target="_top">
<path fill="none" stroke="#63b8ff" d="M273.96,-136.84C270.98,-135.87 267.9,-134.89 265,-134 223.42,-121.2 175.2,-107.44 143.95,-98.66"/>
<polygon fill="#63b8ff" stroke="#63b8ff" points="144.61,-95.21 134.03,-95.89 142.72,-101.95 144.61,-95.21"/>
</a>
</g>
<g id="a_edge20&#45;headlabel"><a xlink:href="dir_000019_000003.html" target="_top" xlink:title="1">
<text text-anchor="middle" x="148.83" y="-90.95" font-family="Helvetica,sans-Serif" font-size="10.00" fill="#63b8ff">1</text>
</a>
</g>
</g>
</g>
</svg>
