<?xml version="1.0" encoding="UTF-8" standalone="no"?>
<!DOCTYPE svg PUBLIC "-//W3C//DTD SVG 1.1//EN"
 "http://www.w3.org/Graphics/SVG/1.1/DTD/svg11.dtd">
<!-- Generated by graphviz version 2.43.0 (0)
 -->
<!-- Title: software/nixie_clock_esp32_project/components Pages: 1 -->
<svg width="522pt" height="204pt"
 viewBox="0.00 0.00 522.00 204.00" xmlns="http://www.w3.org/2000/svg" xmlns:xlink="http://www.w3.org/1999/xlink">
<g id="graph0" class="graph" transform="scale(1 1) rotate(0) translate(4 200)">
<title>software/nixie_clock_esp32_project/components</title>
<g id="clust1" class="cluster">
<title>clusterdir_4e80761515fcd0d8a8682b4ebda49685</title>
<g id="a_clust1"><a xlink:href="dir_4e80761515fcd0d8a8682b4ebda49685.html" target="_top" xlink:title="nixie_clock_esp32_project">
<polygon fill="#edf0f7" stroke="#7f7f7f" stroke-dasharray="5,2" points="8,-8 8,-188 506,-188 506,-8 8,-8"/>
<text text-anchor="middle" x="257" y="-176" font-family="Helvetica,sans-Serif" font-size="10.00">nixie_clock_esp32_project</text>
</a>
</g>
</g>
<g id="clust2" class="cluster">
<title>clusterdir_b181baf956279f894a730e459ce47bc5</title>
<g id="a_clust2"><a xlink:href="dir_b181baf956279f894a730e459ce47bc5.html" target="_top">
<polygon fill="#edf0f7" stroke="#404040" stroke-width="2" points="16,-16 16,-161 498,-161 498,-16 16,-16"/>
</a>
</g>
</g>
<!-- dir_b181baf956279f894a730e459ce47bc5 -->
<g id="node1" class="node">
<title>dir_b181baf956279f894a730e459ce47bc5</title>
<text text-anchor="middle" x="451" y="-141" font-family="Helvetica,sans-Serif" font-size="10.00">components</text>
</g>
<!-- dir_a13c4c485bb1701984d244429ad4ded1 -->
<g id="node2" class="node">
<title>dir_a13c4c485bb1701984d244429ad4ded1</title>
<g id="a_node2"><a xlink:href="dir_a13c4c485bb1701984d244429ad4ded1.html" target="_top" xlink:title="clock">
<polygon fill="#a2b4d6" stroke="#404040" points="128,-43 86,-43 86,-24 128,-24 128,-43"/>
<text text-anchor="middle" x="107" y="-31" font-family="Helvetica,sans-Serif" font-size="10.00">clock</text>
</a>
</g>
</g>
<!-- dir_2f8bb0b9567c99dc8a53f1db54ef1a1c -->
<g id="node3" class="node">
<title>dir_2f8bb0b9567c99dc8a53f1db54ef1a1c</title>
<g id="a_node3"><a xlink:href="dir_2f8bb0b9567c99dc8a53f1db54ef1a1c.html" target="_top" xlink:title="clock_task">
<polygon fill="#a2b4d6" stroke="#404040" points="394,-153 326,-153 326,-134 394,-134 394,-153"/>
<text text-anchor="middle" x="360" y="-141" font-family="Helvetica,sans-Serif" font-size="10.00">clock_task</text>
</a>
</g>
</g>
<!-- dir_2f8bb0b9567c99dc8a53f1db54ef1a1c&#45;&gt;dir_a13c4c485bb1701984d244429ad4ded1 -->
<g id="edge4" class="edge">
<title>dir_2f8bb0b9567c99dc8a53f1db54ef1a1c&#45;&gt;dir_a13c4c485bb1701984d244429ad4ded1</title>
<g id="a_edge4"><a xlink:href="dir_000001_000000.html" target="_top">
<path fill="none" stroke="#63b8ff" d="M325.71,-135.61C269.73,-124.27 164.17,-102.49 157,-98 147.37,-91.96 129.9,-68.14 118.38,-51.46"/>
<polygon fill="#63b8ff" stroke="#63b8ff" points="121.2,-49.37 112.67,-43.08 115.41,-53.32 121.2,-49.37"/>
</a>
</g>
<g id="a_edge4&#45;headlabel"><a xlink:href="dir_000001_000000.html" target="_top" xlink:title="1">
<text text-anchor="middle" x="125.57" y="-48.25" font-family="Helvetica,sans-Serif" font-size="10.00" fill="#63b8ff">1</text>
</a>
</g>
</g>
<!-- dir_6591a8ca0b1ec78afa747e232353e174 -->
<g id="node4" class="node">
<title>dir_6591a8ca0b1ec78afa747e232353e174</title>
<g id="a_node4"><a xlink:href="dir_6591a8ca0b1ec78afa747e232353e174.html" target="_top" xlink:title="config">
<polygon fill="#a2b4d6" stroke="#404040" points="128,-98 82,-98 82,-79 128,-79 128,-98"/>
<text text-anchor="middle" x="105" y="-86" font-family="Helvetica,sans-Serif" font-size="10.00">config</text>
</a>
</g>
</g>
<!-- dir_2f8bb0b9567c99dc8a53f1db54ef1a1c&#45;&gt;dir_6591a8ca0b1ec78afa747e232353e174 -->
<g id="edge3" class="edge">
<title>dir_2f8bb0b9567c99dc8a53f1db54ef1a1c&#45;&gt;dir_6591a8ca0b1ec78afa747e232353e174</title>
<g id="a_edge3"><a xlink:href="dir_000001_000003.html" target="_top">
<path fill="none" stroke="#63b8ff" d="M325.78,-135.62C273.63,-125.12 176.64,-105.51 142,-98 140.73,-97.72 139.44,-97.44 138.14,-97.15"/>
<polygon fill="#63b8ff" stroke="#63b8ff" points="138.6,-93.67 128.07,-94.89 137.06,-100.5 138.6,-93.67"/>
</a>
</g>
<g id="a_edge3&#45;headlabel"><a xlink:href="dir_000001_000003.html" target="_top" xlink:title="1">
<text text-anchor="middle" x="142.73" y="-89.19" font-family="Helvetica,sans-Serif" font-size="10.00" fill="#63b8ff">1</text>
</a>
</g>
</g>
<!-- dir_25afab11bb9cc6587024a85a8f095e2f -->
<g id="node6" class="node">
<title>dir_25afab11bb9cc6587024a85a8f095e2f</title>
<g id="a_node6"><a xlink:href="dir_25afab11bb9cc6587024a85a8f095e2f.html" target="_top" xlink:title="display">
<polygon fill="#a2b4d6" stroke="#404040" points="469,-98 417,-98 417,-79 469,-79 469,-98"/>
<text text-anchor="middle" x="443" y="-86" font-family="Helvetica,sans-Serif" font-size="10.00">display</text>
</a>
</g>
</g>
<!-- dir_2f8bb0b9567c99dc8a53f1db54ef1a1c&#45;&gt;dir_25afab11bb9cc6587024a85a8f095e2f -->
<g id="edge1" class="edge">
<title>dir_2f8bb0b9567c99dc8a53f1db54ef1a1c&#45;&gt;dir_25afab11bb9cc6587024a85a8f095e2f</title>
<g id="a_edge1"><a xlink:href="dir_000001_000005.html" target="_top">
<path fill="none" stroke="#63b8ff" d="M373.34,-133.98C386.09,-125.84 405.55,-113.41 420.67,-103.76"/>
<polygon fill="#63b8ff" stroke="#63b8ff" points="422.88,-106.5 429.42,-98.17 419.11,-100.6 422.88,-106.5"/>
</a>
</g>
<g id="a_edge1&#45;headlabel"><a xlink:href="dir_000001_000005.html" target="_top" xlink:title="1">
<text text-anchor="middle" x="421.38" y="-108.33" font-family="Helvetica,sans-Serif" font-size="10.00" fill="#63b8ff">1</text>
</a>
</g>
</g>
<!-- dir_c8df9a83da56af1891de301214a2e601 -->
<g id="node8" class="node">
<title>dir_c8df9a83da56af1891de301214a2e601</title>
<g id="a_node8"><a xlink:href="dir_c8df9a83da56af1891de301214a2e601.html" target="_top" xlink:title="gpio_driver">
<polygon fill="#a2b4d6" stroke="#404040" points="416.5,-43 345.5,-43 345.5,-24 416.5,-24 416.5,-43"/>
<text text-anchor="middle" x="381" y="-31" font-family="Helvetica,sans-Serif" font-size="10.00">gpio_driver</text>
</a>
</g>
</g>
<!-- dir_2f8bb0b9567c99dc8a53f1db54ef1a1c&#45;&gt;dir_c8df9a83da56af1891de301214a2e601 -->
<g id="edge5" class="edge">
<title>dir_2f8bb0b9567c99dc8a53f1db54ef1a1c&#45;&gt;dir_c8df9a83da56af1891de301214a2e601</title>
<g id="a_edge5"><a xlink:href="dir_000001_000007.html" target="_top">
<path fill="none" stroke="#63b8ff" d="M361.72,-133.66C365.12,-116.17 372.77,-76.8 377.35,-53.27"/>
<polygon fill="#63b8ff" stroke="#63b8ff" points="380.84,-53.64 379.32,-43.16 373.97,-52.31 380.84,-53.64"/>
</a>
</g>
<g id="a_edge5&#45;headlabel"><a xlink:href="dir_000001_000007.html" target="_top" xlink:title="1">
<text text-anchor="middle" x="382.94" y="-55.21" font-family="Helvetica,sans-Serif" font-size="10.00" fill="#63b8ff">1</text>
</a>
</g>
</g>
<!-- dir_6378bc349134a8014a09749f3432f8e2 -->
<g id="node9" class="node">
<title>dir_6378bc349134a8014a09749f3432f8e2</title>
<g id="a_node9"><a xlink:href="dir_6378bc349134a8014a09749f3432f8e2.html" target="_top" xlink:title="gpio_task">
<polygon fill="#a2b4d6" stroke="#404040" points="342,-98 278,-98 278,-79 342,-79 342,-98"/>
<text text-anchor="middle" x="310" y="-86" font-family="Helvetica,sans-Serif" font-size="10.00">gpio_task</text>
</a>
</g>
</g>
<!-- dir_2f8bb0b9567c99dc8a53f1db54ef1a1c&#45;&gt;dir_6378bc349134a8014a09749f3432f8e2 -->
<g id="edge2" class="edge">
<title>dir_2f8bb0b9567c99dc8a53f1db54ef1a1c&#45;&gt;dir_6378bc349134a8014a09749f3432f8e2</title>
<g id="a_edge2"><a xlink:href="dir_000001_000008.html" target="_top">
<path fill="none" stroke="#63b8ff" d="M351.74,-133.75C344.54,-126.11 333.89,-114.82 325.15,-105.56"/>
<polygon fill="#63b8ff" stroke="#63b8ff" points="327.51,-102.96 318.1,-98.09 322.42,-107.76 327.51,-102.96"/>
</a>
</g>
<g id="a_edge2&#45;headlabel"><a xlink:href="dir_000001_000008.html" target="_top" xlink:title="1">
<text text-anchor="middle" x="332.04" y="-101.13" font-family="Helvetica,sans-Serif" font-size="10.00" fill="#63b8ff">1</text>
</a>
</g>
</g>
<!-- dir_ee50860190fe62f2e35dcf8898f9d9d7 -->
<g id="node14" class="node">
<title>dir_ee50860190fe62f2e35dcf8898f9d9d7</title>
<g id="a_node14"><a xlink:href="dir_ee50860190fe62f2e35dcf8898f9d9d7.html" target="_top" xlink:title="rotary_encoder">
<polygon fill="#a2b4d6" stroke="#404040" points="327,-43 237,-43 237,-24 327,-24 327,-43"/>
<text text-anchor="middle" x="282" y="-31" font-family="Helvetica,sans-Serif" font-size="10.00">rotary_encoder</text>
</a>
</g>
</g>
<!-- dir_2f8bb0b9567c99dc8a53f1db54ef1a1c&#45;&gt;dir_ee50860190fe62f2e35dcf8898f9d9d7 -->
<g id="edge6" class="edge">
<title>dir_2f8bb0b9567c99dc8a53f1db54ef1a1c&#45;&gt;dir_ee50860190fe62f2e35dcf8898f9d9d7</title>
<g id="a_edge6"><a xlink:href="dir_000001_000015.html" target="_top">
<path fill="none" stroke="#63b8ff" d="M360.92,-133.93C361.87,-120.96 361.93,-96.07 351,-79 342.2,-65.25 327.45,-54.89 313.85,-47.65"/>
<polygon fill="#63b8ff" stroke="#63b8ff" points="315.22,-44.42 304.7,-43.12 312.12,-50.69 315.22,-44.42"/>
</a>
</g>
<g id="a_edge6&#45;headlabel"><a xlink:href="dir_000001_000015.html" target="_top" xlink:title="1">
<text text-anchor="middle" x="319.7" y="-40.97" font-family="Helvetica,sans-Serif" font-size="10.00" fill="#63b8ff">1</text>
</a>
</g>
</g>
<!-- dir_6591a8ca0b1ec78afa747e232353e174&#45;&gt;dir_a13c4c485bb1701984d244429ad4ded1 -->
<g id="edge8" class="edge">
<title>dir_6591a8ca0b1ec78afa747e232353e174&#45;&gt;dir_a13c4c485bb1701984d244429ad4ded1</title>
<g id="a_edge8"><a xlink:href="dir_000003_000000.html" target="_top">
<path fill="none" stroke="#63b8ff" d="M105.33,-78.75C105.59,-71.8 105.97,-61.85 106.3,-53.13"/>
<polygon fill="#63b8ff" stroke="#63b8ff" points="109.8,-53.21 106.68,-43.09 102.8,-52.95 109.8,-53.21"/>
</a>
</g>
<g id="a_edge8&#45;headlabel"><a xlink:href="dir_000003_000000.html" target="_top" xlink:title="1">
<text text-anchor="middle" x="112.5" y="-54.41" font-family="Helvetica,sans-Serif" font-size="10.00" fill="#63b8ff">1</text>
</a>
</g>
</g>
<!-- dir_3df67f4185c8cd9c27353f35f3bf503b -->
<g id="node7" class="node">
<title>dir_3df67f4185c8cd9c27353f35f3bf503b</title>
<g id="a_node7"><a xlink:href="dir_3df67f4185c8cd9c27353f35f3bf503b.html" target="_top" xlink:title="event_bus">
<polygon fill="#a2b4d6" stroke="#404040" points="216.5,-43 149.5,-43 149.5,-24 216.5,-24 216.5,-43"/>
<text text-anchor="middle" x="183" y="-31" font-family="Helvetica,sans-Serif" font-size="10.00">event_bus</text>
</a>
</g>
</g>
<!-- dir_6591a8ca0b1ec78afa747e232353e174&#45;&gt;dir_3df67f4185c8cd9c27353f35f3bf503b -->
<g id="edge7" class="edge">
<title>dir_6591a8ca0b1ec78afa747e232353e174&#45;&gt;dir_3df67f4185c8cd9c27353f35f3bf503b</title>
<g id="a_edge7"><a xlink:href="dir_000003_000006.html" target="_top">
<path fill="none" stroke="#63b8ff" d="M117.53,-78.98C129.4,-70.92 147.46,-58.65 161.61,-49.03"/>
<polygon fill="#63b8ff" stroke="#63b8ff" points="163.94,-51.69 170.24,-43.17 160,-45.9 163.94,-51.69"/>
</a>
</g>
<g id="a_edge7&#45;headlabel"><a xlink:href="dir_000003_000006.html" target="_top" xlink:title="1">
<text text-anchor="middle" x="162.56" y="-53.55" font-family="Helvetica,sans-Serif" font-size="10.00" fill="#63b8ff">1</text>
</a>
</g>
</g>
<!-- dir_d593a792f6d68ad3cd00089cda4c9fbf -->
<g id="node12" class="node">
<title>dir_d593a792f6d68ad3cd00089cda4c9fbf</title>
<g id="a_node12"><a xlink:href="dir_d593a792f6d68ad3cd00089cda4c9fbf.html" target="_top" xlink:title="nvs">
<polygon fill="#a2b4d6" stroke="#404040" points="68,-43 34,-43 34,-24 68,-24 68,-43"/>
<text text-anchor="middle" x="51" y="-31" font-family="Helvetica,sans-Serif" font-size="10.00">nvs</text>
</a>
</g>
</g>
<!-- dir_6591a8ca0b1ec78afa747e232353e174&#45;&gt;dir_d593a792f6d68ad3cd00089cda4c9fbf -->
<g id="edge9" class="edge">
<title>dir_6591a8ca0b1ec78afa747e232353e174&#45;&gt;dir_d593a792f6d68ad3cd00089cda4c9fbf</title>
<g id="a_edge9"><a xlink:href="dir_000003_000013.html" target="_top">
<path fill="none" stroke="#63b8ff" d="M96.08,-78.75C88.22,-71.03 76.57,-59.6 67.08,-50.28"/>
<polygon fill="#63b8ff" stroke="#63b8ff" points="69.34,-47.6 59.75,-43.09 64.44,-52.59 69.34,-47.6"/>
</a>
</g>
<g id="a_edge9&#45;headlabel"><a xlink:href="dir_000003_000013.html" target="_top" xlink:title="1">
<text text-anchor="middle" x="73.89" y="-45.59" font-family="Helvetica,sans-Serif" font-size="10.00" fill="#63b8ff">1</text>
</a>
</g>
</g>
<!-- dir_4b8e3d6e776ac08673ce436ae24ce3ad -->
<g id="node5" class="node">
<title>dir_4b8e3d6e776ac08673ce436ae24ce3ad</title>
<g id="a_node5"><a xlink:href="dir_4b8e3d6e776ac08673ce436ae24ce3ad.html" target="_top" xlink:title="dispatcher_task">
<polygon fill="#a2b4d6" stroke="#404040" points="260,-98 166,-98 166,-79 260,-79 260,-98"/>
<text text-anchor="middle" x="213" y="-86" font-family="Helvetica,sans-Serif" font-size="10.00">dispatcher_task</text>
</a>
</g>
</g>
<!-- dir_4b8e3d6e776ac08673ce436ae24ce3ad&#45;&gt;dir_3df67f4185c8cd9c27353f35f3bf503b -->
<g id="edge10" class="edge">
<title>dir_4b8e3d6e776ac08673ce436ae24ce3ad&#45;&gt;dir_3df67f4185c8cd9c27353f35f3bf503b</title>
<g id="a_edge10"><a xlink:href="dir_000004_000006.html" target="_top">
<path fill="none" stroke="#63b8ff" d="M208.05,-78.75C203.94,-71.49 197.97,-60.95 192.9,-51.98"/>
<polygon fill="#63b8ff" stroke="#63b8ff" points="195.83,-50.07 187.86,-43.09 189.74,-53.52 195.83,-50.07"/>
</a>
</g>
<g id="a_edge10&#45;headlabel"><a xlink:href="dir_000004_000006.html" target="_top" xlink:title="2">
<text text-anchor="middle" x="200.08" y="-49.3" font-family="Helvetica,sans-Serif" font-size="10.00" fill="#63b8ff">2</text>
</a>
</g>
</g>
<!-- dir_fb7d8fb2e7a81481fd306fa505fa505b -->
<g id="node10" class="node">
<title>dir_fb7d8fb2e7a81481fd306fa505fa505b</title>
<g id="a_node10"><a xlink:href="dir_fb7d8fb2e7a81481fd306fa505fa505b.html" target="_top" xlink:title="hv5622">
<polygon fill="#a2b4d6" stroke="#404040" points="487.5,-43 434.5,-43 434.5,-24 487.5,-24 487.5,-43"/>
<text text-anchor="middle" x="461" y="-31" font-family="Helvetica,sans-Serif" font-size="10.00">hv5622</text>
</a>
</g>
</g>
<!-- dir_25afab11bb9cc6587024a85a8f095e2f&#45;&gt;dir_fb7d8fb2e7a81481fd306fa505fa505b -->
<g id="edge11" class="edge">
<title>dir_25afab11bb9cc6587024a85a8f095e2f&#45;&gt;dir_fb7d8fb2e7a81481fd306fa505fa505b</title>
<g id="a_edge11"><a xlink:href="dir_000005_000009.html" target="_top">
<path fill="none" stroke="#63b8ff" d="M445.97,-78.75C448.36,-71.72 451.79,-61.62 454.77,-52.84"/>
<polygon fill="#63b8ff" stroke="#63b8ff" points="458.18,-53.68 458.08,-43.09 451.55,-51.43 458.18,-53.68"/>
</a>
</g>
<g id="a_edge11&#45;headlabel"><a xlink:href="dir_000005_000009.html" target="_top" xlink:title="1">
<text text-anchor="middle" x="459.71" y="-55.5" font-family="Helvetica,sans-Serif" font-size="10.00" fill="#63b8ff">1</text>
</a>
</g>
</g>
<!-- dir_6378bc349134a8014a09749f3432f8e2&#45;&gt;dir_3df67f4185c8cd9c27353f35f3bf503b -->
<g id="edge12" class="edge">
<title>dir_6378bc349134a8014a09749f3432f8e2&#45;&gt;dir_3df67f4185c8cd9c27353f35f3bf503b</title>
<g id="a_edge12"><a xlink:href="dir_000008_000006.html" target="_top">
<path fill="none" stroke="#63b8ff" d="M289.6,-78.98C268.98,-70.38 236.89,-56.99 213.31,-47.15"/>
<polygon fill="#63b8ff" stroke="#63b8ff" points="214.35,-43.79 203.78,-43.17 211.66,-50.25 214.35,-43.79"/>
</a>
</g>
<g id="a_edge12&#45;headlabel"><a xlink:href="dir_000008_000006.html" target="_top" xlink:title="1">
<text text-anchor="middle" x="218.76" y="-40.06" font-family="Helvetica,sans-Serif" font-size="10.00" fill="#63b8ff">1</text>
</a>
</g>
</g>
<!-- dir_6378bc349134a8014a09749f3432f8e2&#45;&gt;dir_c8df9a83da56af1891de301214a2e601 -->
<g id="edge13" class="edge">
<title>dir_6378bc349134a8014a09749f3432f8e2&#45;&gt;dir_c8df9a83da56af1891de301214a2e601</title>
<g id="a_edge13"><a xlink:href="dir_000008_000007.html" target="_top">
<path fill="none" stroke="#63b8ff" d="M321.41,-78.98C332.11,-71 348.34,-58.88 361.16,-49.31"/>
<polygon fill="#63b8ff" stroke="#63b8ff" points="363.47,-51.96 369.39,-43.17 359.28,-46.35 363.47,-51.96"/>
</a>
</g>
<g id="a_edge13&#45;headlabel"><a xlink:href="dir_000008_000007.html" target="_top" xlink:title="2">
<text text-anchor="middle" x="362.28" y="-53.88" font-family="Helvetica,sans-Serif" font-size="10.00" fill="#63b8ff">2</text>
</a>
</g>
</g>
<!-- dir_6378bc349134a8014a09749f3432f8e2&#45;&gt;dir_ee50860190fe62f2e35dcf8898f9d9d7 -->
<g id="edge14" class="edge">
<title>dir_6378bc349134a8014a09749f3432f8e2&#45;&gt;dir_ee50860190fe62f2e35dcf8898f9d9d7</title>
<g id="a_edge14"><a xlink:href="dir_000008_000015.html" target="_top">
<path fill="none" stroke="#63b8ff" d="M305.38,-78.75C301.54,-71.49 295.98,-60.95 291.24,-51.98"/>
<polygon fill="#63b8ff" stroke="#63b8ff" points="294.3,-50.3 286.54,-43.09 288.11,-53.57 294.3,-50.3"/>
</a>
</g>
<g id="a_edge14&#45;headlabel"><a xlink:href="dir_000008_000015.html" target="_top" xlink:title="2">
<text text-anchor="middle" x="298.49" y="-49.65" font-family="Helvetica,sans-Serif" font-size="10.00" fill="#63b8ff">2</text>
</a>
</g>
</g>
<!-- dir_8938040af9d266be553d1135477b804d -->
<g id="node11" class="node">
<title>dir_8938040af9d266be553d1135477b804d</title>
<g id="a_node11"><a xlink:href="dir_8938040af9d266be553d1135477b804d.html" target="_top" xlink:title="ntp">
<polygon fill="#a2b4d6" stroke="#404040" points="56,-153 24,-153 24,-134 56,-134 56,-153"/>
<text text-anchor="middle" x="40" y="-141" font-family="Helvetica,sans-Serif" font-size="10.00">ntp</text>
</a>
</g>
</g>
<!-- dir_8938040af9d266be553d1135477b804d&#45;&gt;dir_a13c4c485bb1701984d244429ad4ded1 -->
<g id="edge17" class="edge">
<title>dir_8938040af9d266be553d1135477b804d&#45;&gt;dir_a13c4c485bb1701984d244429ad4ded1</title>
<g id="a_edge17"><a xlink:href="dir_000012_000000.html" target="_top">
<path fill="none" stroke="#63b8ff" d="M40.75,-133.66C42.19,-120.78 46.22,-96.49 57,-79 64.17,-67.37 75.3,-57.04 85.24,-49.26"/>
<polygon fill="#63b8ff" stroke="#63b8ff" points="87.58,-51.88 93.54,-43.12 83.42,-46.26 87.58,-51.88"/>
</a>
</g>
<g id="a_edge17&#45;headlabel"><a xlink:href="dir_000012_000000.html" target="_top" xlink:title="1">
<text text-anchor="middle" x="86.38" y="-53.8" font-family="Helvetica,sans-Serif" font-size="10.00" fill="#63b8ff">1</text>
</a>
</g>
</g>
<!-- dir_8938040af9d266be553d1135477b804d&#45;&gt;dir_6591a8ca0b1ec78afa747e232353e174 -->
<g id="edge16" class="edge">
<title>dir_8938040af9d266be553d1135477b804d&#45;&gt;dir_6591a8ca0b1ec78afa747e232353e174</title>
<g id="a_edge16"><a xlink:href="dir_000012_000003.html" target="_top">
<path fill="none" stroke="#63b8ff" d="M50.44,-133.98C60.15,-126.07 74.82,-114.11 86.5,-104.58"/>
<polygon fill="#63b8ff" stroke="#63b8ff" points="88.83,-107.2 94.37,-98.17 84.4,-101.78 88.83,-107.2"/>
</a>
</g>
<g id="a_edge16&#45;headlabel"><a xlink:href="dir_000012_000003.html" target="_top" xlink:title="1">
<text text-anchor="middle" x="87.84" y="-109.17" font-family="Helvetica,sans-Serif" font-size="10.00" fill="#63b8ff">1</text>
</a>
</g>
</g>
<!-- dir_8938040af9d266be553d1135477b804d&#45;&gt;dir_3df67f4185c8cd9c27353f35f3bf503b -->
<g id="edge15" class="edge">
<title>dir_8938040af9d266be553d1135477b804d&#45;&gt;dir_3df67f4185c8cd9c27353f35f3bf503b</title>
<g id="a_edge15"><a xlink:href="dir_000012_000006.html" target="_top">
<path fill="none" stroke="#63b8ff" d="M42.35,-133.91C46.44,-120.46 56.09,-94.38 73,-79 91.64,-62.05 117.56,-51.14 139.57,-44.37"/>
<polygon fill="#63b8ff" stroke="#63b8ff" points="140.72,-47.68 149.36,-41.54 138.78,-40.95 140.72,-47.68"/>
</a>
</g>
<g id="a_edge15&#45;headlabel"><a xlink:href="dir_000012_000006.html" target="_top" xlink:title="1">
<text text-anchor="middle" x="138.06" y="-48.9" font-family="Helvetica,sans-Serif" font-size="10.00" fill="#63b8ff">1</text>
</a>
</g>
</g>
<!-- dir_af00538107c5bb6312b4379f7c6a7915 -->
<g id="node13" class="node">
<title>dir_af00538107c5bb6312b4379f7c6a7915</title>
<g id="a_node13"><a xlink:href="dir_af00538107c5bb6312b4379f7c6a7915.html" target="_top" xlink:title="pwm">
<polygon fill="#a2b4d6" stroke="#404040" points="255.5,-153 214.5,-153 214.5,-134 255.5,-134 255.5,-153"/>
<text text-anchor="middle" x="235" y="-141" font-family="Helvetica,sans-Serif" font-size="10.00">pwm</text>
</a>
</g>
</g>
<!-- dir_af00538107c5bb6312b4379f7c6a7915&#45;&gt;dir_6591a8ca0b1ec78afa747e232353e174 -->
<g id="edge18" class="edge">
<title>dir_af00538107c5bb6312b4379f7c6a7915&#45;&gt;dir_6591a8ca0b1ec78afa747e232353e174</title>
<g id="a_edge18"><a xlink:href="dir_000014_000003.html" target="_top">
<path fill="none" stroke="#63b8ff" d="M214.4,-134.1C193.13,-125.43 159.71,-111.81 135.41,-101.9"/>
<polygon fill="#63b8ff" stroke="#63b8ff" points="136.51,-98.57 125.93,-98.03 133.87,-105.05 136.51,-98.57"/>
</a>
</g>
<g id="a_edge18&#45;headlabel"><a xlink:href="dir_000014_000003.html" target="_top" xlink:title="1">
<text text-anchor="middle" x="140.91" y="-94.8" font-family="Helvetica,sans-Serif" font-size="10.00" fill="#63b8ff">1</text>
</a>
</g>
</g>
<!-- dir_e358256436063faffb66e4cd4d1bf7a0 -->
<g id="node15" class="node">
<title>dir_e358256436063faffb66e4cd4d1bf7a0</title>
<g id="a_node15"><a xlink:href="dir_e358256436063faffb66e4cd4d1bf7a0.html" target="_top" xlink:title="uart">
<polygon fill="#a2b4d6" stroke="#404040" points="196,-153 160,-153 160,-134 196,-134 196,-153"/>
<text text-anchor="middle" x="178" y="-141" font-family="Helvetica,sans-Serif" font-size="10.00">uart</text>
</a>
</g>
</g>
<!-- dir_54c3fa7b37971d51e57fc618a8a47b11 -->
<g id="node16" class="node">
<title>dir_54c3fa7b37971d51e57fc618a8a47b11</title>
<g id="a_node16"><a xlink:href="dir_54c3fa7b37971d51e57fc618a8a47b11.html" target="_top" xlink:title="webserver">
<polygon fill="#a2b4d6" stroke="#404040" points="142,-153 74,-153 74,-134 142,-134 142,-153"/>
<text text-anchor="middle" x="108" y="-141" font-family="Helvetica,sans-Serif" font-size="10.00">webserver</text>
</a>
</g>
</g>
<!-- dir_54c3fa7b37971d51e57fc618a8a47b11&#45;&gt;dir_6591a8ca0b1ec78afa747e232353e174 -->
<g id="edge19" class="edge">
<title>dir_54c3fa7b37971d51e57fc618a8a47b11&#45;&gt;dir_6591a8ca0b1ec78afa747e232353e174</title>
<g id="a_edge19"><a xlink:href="dir_000018_000003.html" target="_top">
<path fill="none" stroke="#63b8ff" d="M107.5,-133.75C107.11,-126.8 106.55,-116.85 106.05,-108.13"/>
<polygon fill="#63b8ff" stroke="#63b8ff" points="109.55,-107.88 105.49,-98.09 102.56,-108.27 109.55,-107.88"/>
</a>
</g>
<g id="a_edge19&#45;headlabel"><a xlink:href="dir_000018_000003.html" target="_top" xlink:title="1">
<text text-anchor="middle" x="112.58" y="-108.8" font-family="Helvetica,sans-Serif" font-size="10.00" fill="#63b8ff">1</text>
</a>
</g>
</g>
<!-- dir_27a09bb4329d836898ad2e41b0fca487 -->
<g id="node17" class="node">
<title>dir_27a09bb4329d836898ad2e41b0fca487</title>
<g id="a_node17"><a xlink:href="dir_27a09bb4329d836898ad2e41b0fca487.html" target="_top" xlink:title="wifi">
<polygon fill="#a2b4d6" stroke="#404040" points="308,-153 274,-153 274,-134 308,-134 308,-153"/>
<text text-anchor="middle" x="291" y="-141" font-family="Helvetica,sans-Serif" font-size="10.00">wifi</text>
</a>
</g>
</g>
<!-- dir_27a09bb4329d836898ad2e41b0fca487&#45;&gt;dir_6591a8ca0b1ec78afa747e232353e174 -->
<g id="edge20" class="edge">
<title>dir_27a09bb4329d836898ad2e41b0fca487&#45;&gt;dir_6591a8ca0b1ec78afa747e232353e174</title>
<g id="a_edge20"><a xlink:href="dir_000019_000003.html" target="_top">
<path fill="none" stroke="#63b8ff" d="M273.97,-136.81C270.99,-135.85 267.91,-134.88 265,-134 221.3,-120.79 170.44,-106.89 138,-98.22"/>
<polygon fill="#63b8ff" stroke="#63b8ff" points="138.71,-94.78 128.15,-95.59 136.91,-101.55 138.71,-94.78"/>
</a>
</g>
<g id="a_edge20&#45;headlabel"><a xlink:href="dir_000019_000003.html" target="_top" xlink:title="1">
<text text-anchor="middle" x="142.91" y="-90.47" font-family="Helvetica,sans-Serif" font-size="10.00" fill="#63b8ff">1</text>
</a>
</g>
</g>
</g>
</svg>
