<?xml version="1.0" encoding="UTF-8" standalone="no"?>
<!DOCTYPE svg PUBLIC "-//W3C//DTD SVG 1.1//EN"
 "http://www.w3.org/Graphics/SVG/1.1/DTD/svg11.dtd">
<!-- Generated by graphviz version 2.43.0 (0)
 -->
<!-- Title: software/nixie_clock_esp32_project/components Pages: 1 -->
<svg width="592pt" height="314pt"
 viewBox="0.00 0.00 592.00 314.00" xmlns="http://www.w3.org/2000/svg" xmlns:xlink="http://www.w3.org/1999/xlink">
<g id="graph0" class="graph" transform="scale(1 1) rotate(0) translate(4 310)">
<title>software/nixie_clock_esp32_project/components</title>
<g id="clust1" class="cluster">
<title>clusterdir_4e80761515fcd0d8a8682b4ebda49685</title>
<g id="a_clust1"><a xlink:href="dir_4e80761515fcd0d8a8682b4ebda49685.html" target="_top" xlink:title="nixie_clock_esp32_project">
<polygon fill="#edf0f7" stroke="#7f7f7f" stroke-dasharray="5,2" points="8,-8 8,-298 576,-298 576,-8 8,-8"/>
<text text-anchor="middle" x="292" y="-286" font-family="Helvetica,sans-Serif" font-size="10.00">nixie_clock_esp32_project</text>
</a>
</g>
</g>
<g id="clust2" class="cluster">
<title>clusterdir_b181baf956279f894a730e459ce47bc5</title>
<g id="a_clust2"><a xlink:href="dir_b181baf956279f894a730e459ce47bc5.html" target="_top">
<polygon fill="#edf0f7" stroke="#404040" stroke-width="2" points="16,-16 16,-271 518,-271 518,-16 16,-16"/>
</a>
</g>
</g>
<!-- dir_9893f083cf503bf028f3909b7ee1aca3 -->
<g id="node1" class="node">
<title>dir_9893f083cf503bf028f3909b7ee1aca3</title>
<g id="a_node1"><a xlink:href="dir_9893f083cf503bf028f3909b7ee1aca3.html" target="_top" xlink:title="main">
<polygon fill="#a2b4d6" stroke="#404040" points="567.5,-43 526.5,-43 526.5,-24 567.5,-24 567.5,-43"/>
<text text-anchor="middle" x="547" y="-31" font-family="Helvetica,sans-Serif" font-size="10.00">main</text>
</a>
</g>
</g>
<!-- dir_b181baf956279f894a730e459ce47bc5 -->
<g id="node2" class="node">
<title>dir_b181baf956279f894a730e459ce47bc5</title>
<text text-anchor="middle" x="471" y="-251" font-family="Helvetica,sans-Serif" font-size="10.00">components</text>
</g>
<!-- dir_a13c4c485bb1701984d244429ad4ded1 -->
<g id="node3" class="node">
<title>dir_a13c4c485bb1701984d244429ad4ded1</title>
<g id="a_node3"><a xlink:href="dir_a13c4c485bb1701984d244429ad4ded1.html" target="_top" xlink:title="clock">
<polygon fill="#a2b4d6" stroke="#404040" points="274,-43 232,-43 232,-24 274,-24 274,-43"/>
<text text-anchor="middle" x="253" y="-31" font-family="Helvetica,sans-Serif" font-size="10.00">clock</text>
</a>
</g>
</g>
<!-- dir_6591a8ca0b1ec78afa747e232353e174 -->
<g id="node4" class="node">
<title>dir_6591a8ca0b1ec78afa747e232353e174</title>
<g id="a_node4"><a xlink:href="dir_6591a8ca0b1ec78afa747e232353e174.html" target="_top" xlink:title="config">
<polygon fill="#a2b4d6" stroke="#404040" points="353,-153 307,-153 307,-134 353,-134 353,-153"/>
<text text-anchor="middle" x="330" y="-141" font-family="Helvetica,sans-Serif" font-size="10.00">config</text>
</a>
</g>
</g>
<!-- dir_6591a8ca0b1ec78afa747e232353e174&#45;&gt;dir_9893f083cf503bf028f3909b7ee1aca3 -->
<g id="edge3" class="edge">
<title>dir_6591a8ca0b1ec78afa747e232353e174&#45;&gt;dir_9893f083cf503bf028f3909b7ee1aca3</title>
<g id="a_edge3"><a xlink:href="dir_000002_000006.html" target="_top">
<path fill="none" stroke="#63b8ff" d="M353.26,-135.15C354.53,-134.76 355.78,-134.38 357,-134 410.22,-117.64 428.52,-125.38 477,-98 488.66,-91.41 513.93,-67.4 530.69,-50.86"/>
<polygon fill="#63b8ff" stroke="#63b8ff" points="533.52,-52.99 538.15,-43.46 528.59,-48.02 533.52,-52.99"/>
</a>
</g>
<g id="a_edge3&#45;headlabel"><a xlink:href="dir_000002_000006.html" target="_top" xlink:title="2">
<text text-anchor="middle" x="532.97" y="-55.04" font-family="Helvetica,sans-Serif" font-size="10.00" fill="#63b8ff">2</text>
</a>
</g>
</g>
<!-- dir_6591a8ca0b1ec78afa747e232353e174&#45;&gt;dir_a13c4c485bb1701984d244429ad4ded1 -->
<g id="edge4" class="edge">
<title>dir_6591a8ca0b1ec78afa747e232353e174&#45;&gt;dir_a13c4c485bb1701984d244429ad4ded1</title>
<g id="a_edge4"><a xlink:href="dir_000002_000000.html" target="_top">
<path fill="none" stroke="#63b8ff" d="M308.66,-133.97C293.42,-126.72 273.78,-114.81 263,-98 254.43,-84.64 252.3,-66.53 252.09,-53.07"/>
<polygon fill="#63b8ff" stroke="#63b8ff" points="255.59,-53.13 252.27,-43.06 248.59,-53 255.59,-53.13"/>
</a>
</g>
<g id="a_edge4&#45;headlabel"><a xlink:href="dir_000002_000000.html" target="_top" xlink:title="2">
<text text-anchor="middle" x="258.36" y="-54.27" font-family="Helvetica,sans-Serif" font-size="10.00" fill="#63b8ff">2</text>
</a>
</g>
</g>
<!-- dir_8938040af9d266be553d1135477b804d -->
<g id="node8" class="node">
<title>dir_8938040af9d266be553d1135477b804d</title>
<g id="a_node8"><a xlink:href="dir_8938040af9d266be553d1135477b804d.html" target="_top" xlink:title="ntp">
<polygon fill="#a2b4d6" stroke="#404040" points="304,-98 272,-98 272,-79 304,-79 304,-98"/>
<text text-anchor="middle" x="288" y="-86" font-family="Helvetica,sans-Serif" font-size="10.00">ntp</text>
</a>
</g>
</g>
<!-- dir_6591a8ca0b1ec78afa747e232353e174&#45;&gt;dir_8938040af9d266be553d1135477b804d -->
<g id="edge2" class="edge">
<title>dir_6591a8ca0b1ec78afa747e232353e174&#45;&gt;dir_8938040af9d266be553d1135477b804d</title>
<g id="a_edge2"><a xlink:href="dir_000002_000008.html" target="_top">
<path fill="none" stroke="#63b8ff" d="M323.06,-133.75C317.13,-126.26 308.43,-115.28 301.18,-106.13"/>
<polygon fill="#63b8ff" stroke="#63b8ff" points="303.76,-103.75 294.81,-98.09 298.27,-108.1 303.76,-103.75"/>
</a>
</g>
<g id="a_edge2&#45;headlabel"><a xlink:href="dir_000002_000008.html" target="_top" xlink:title="1">
<text text-anchor="middle" x="308.22" y="-102.31" font-family="Helvetica,sans-Serif" font-size="10.00" fill="#63b8ff">1</text>
</a>
</g>
</g>
<!-- dir_d593a792f6d68ad3cd00089cda4c9fbf -->
<g id="node9" class="node">
<title>dir_d593a792f6d68ad3cd00089cda4c9fbf</title>
<g id="a_node9"><a xlink:href="dir_d593a792f6d68ad3cd00089cda4c9fbf.html" target="_top" xlink:title="nvs">
<polygon fill="#a2b4d6" stroke="#404040" points="468,-98 434,-98 434,-79 468,-79 468,-98"/>
<text text-anchor="middle" x="451" y="-86" font-family="Helvetica,sans-Serif" font-size="10.00">nvs</text>
</a>
</g>
</g>
<!-- dir_6591a8ca0b1ec78afa747e232353e174&#45;&gt;dir_d593a792f6d68ad3cd00089cda4c9fbf -->
<g id="edge6" class="edge">
<title>dir_6591a8ca0b1ec78afa747e232353e174&#45;&gt;dir_d593a792f6d68ad3cd00089cda4c9fbf</title>
<g id="a_edge6"><a xlink:href="dir_000002_000009.html" target="_top">
<path fill="none" stroke="#63b8ff" d="M349.44,-133.98C369.81,-125.06 401.93,-110.99 424.59,-101.07"/>
<polygon fill="#63b8ff" stroke="#63b8ff" points="426.2,-104.18 433.95,-96.97 423.39,-97.77 426.2,-104.18"/>
</a>
</g>
<g id="a_edge6&#45;headlabel"><a xlink:href="dir_000002_000009.html" target="_top" xlink:title="1">
<text text-anchor="middle" x="424.05" y="-105.73" font-family="Helvetica,sans-Serif" font-size="10.00" fill="#63b8ff">1</text>
</a>
</g>
</g>
<!-- dir_af00538107c5bb6312b4379f7c6a7915 -->
<g id="node10" class="node">
<title>dir_af00538107c5bb6312b4379f7c6a7915</title>
<g id="a_node10"><a xlink:href="dir_af00538107c5bb6312b4379f7c6a7915.html" target="_top" xlink:title="pwm">
<polygon fill="#a2b4d6" stroke="#404040" points="363.5,-98 322.5,-98 322.5,-79 363.5,-79 363.5,-98"/>
<text text-anchor="middle" x="343" y="-86" font-family="Helvetica,sans-Serif" font-size="10.00">pwm</text>
</a>
</g>
</g>
<!-- dir_6591a8ca0b1ec78afa747e232353e174&#45;&gt;dir_af00538107c5bb6312b4379f7c6a7915 -->
<g id="edge5" class="edge">
<title>dir_6591a8ca0b1ec78afa747e232353e174&#45;&gt;dir_af00538107c5bb6312b4379f7c6a7915</title>
<g id="a_edge5"><a xlink:href="dir_000002_000010.html" target="_top">
<path fill="none" stroke="#63b8ff" d="M332.15,-133.75C333.87,-126.72 336.35,-116.62 338.5,-107.84"/>
<polygon fill="#63b8ff" stroke="#63b8ff" points="341.91,-108.63 340.89,-98.09 335.11,-106.97 341.91,-108.63"/>
</a>
</g>
<g id="a_edge5&#45;headlabel"><a xlink:href="dir_000002_000010.html" target="_top" xlink:title="1">
<text text-anchor="middle" x="343.81" y="-110.3" font-family="Helvetica,sans-Serif" font-size="10.00" fill="#63b8ff">1</text>
</a>
</g>
</g>
<!-- dir_27a09bb4329d836898ad2e41b0fca487 -->
<g id="node15" class="node">
<title>dir_27a09bb4329d836898ad2e41b0fca487</title>
<g id="a_node15"><a xlink:href="dir_27a09bb4329d836898ad2e41b0fca487.html" target="_top" xlink:title="wifi">
<polygon fill="#a2b4d6" stroke="#404040" points="416,-98 382,-98 382,-79 416,-79 416,-98"/>
<text text-anchor="middle" x="399" y="-86" font-family="Helvetica,sans-Serif" font-size="10.00">wifi</text>
</a>
</g>
</g>
<!-- dir_6591a8ca0b1ec78afa747e232353e174&#45;&gt;dir_27a09bb4329d836898ad2e41b0fca487 -->
<g id="edge1" class="edge">
<title>dir_6591a8ca0b1ec78afa747e232353e174&#45;&gt;dir_27a09bb4329d836898ad2e41b0fca487</title>
<g id="a_edge1"><a xlink:href="dir_000002_000016.html" target="_top">
<path fill="none" stroke="#63b8ff" d="M341.09,-133.98C351.49,-126 367.26,-113.88 379.72,-104.31"/>
<polygon fill="#63b8ff" stroke="#63b8ff" points="381.91,-107.04 387.71,-98.17 377.65,-101.49 381.91,-107.04"/>
</a>
</g>
<g id="a_edge1&#45;headlabel"><a xlink:href="dir_000002_000016.html" target="_top" xlink:title="1">
<text text-anchor="middle" x="380.79" y="-108.98" font-family="Helvetica,sans-Serif" font-size="10.00" fill="#63b8ff">1</text>
</a>
</g>
</g>
<!-- dir_25afab11bb9cc6587024a85a8f095e2f -->
<g id="node5" class="node">
<title>dir_25afab11bb9cc6587024a85a8f095e2f</title>
<g id="a_node5"><a xlink:href="dir_25afab11bb9cc6587024a85a8f095e2f.html" target="_top" xlink:title="display">
<polygon fill="#a2b4d6" stroke="#404040" points="162,-263 110,-263 110,-244 162,-244 162,-263"/>
<text text-anchor="middle" x="136" y="-251" font-family="Helvetica,sans-Serif" font-size="10.00">display</text>
</a>
</g>
</g>
<!-- dir_fb7d8fb2e7a81481fd306fa505fa505b -->
<g id="node7" class="node">
<title>dir_fb7d8fb2e7a81481fd306fa505fa505b</title>
<g id="a_node7"><a xlink:href="dir_fb7d8fb2e7a81481fd306fa505fa505b.html" target="_top" xlink:title="hv5622">
<polygon fill="#a2b4d6" stroke="#404040" points="451.5,-208 398.5,-208 398.5,-189 451.5,-189 451.5,-208"/>
<text text-anchor="middle" x="425" y="-196" font-family="Helvetica,sans-Serif" font-size="10.00">hv5622</text>
</a>
</g>
</g>
<!-- dir_25afab11bb9cc6587024a85a8f095e2f&#45;&gt;dir_fb7d8fb2e7a81481fd306fa505fa505b -->
<g id="edge7" class="edge">
<title>dir_25afab11bb9cc6587024a85a8f095e2f&#45;&gt;dir_fb7d8fb2e7a81481fd306fa505fa505b</title>
<g id="a_edge7"><a xlink:href="dir_000003_000005.html" target="_top">
<path fill="none" stroke="#63b8ff" d="M162.33,-245.88C165.25,-245.21 168.18,-244.57 171,-244 264.55,-224.98 291.61,-227.46 388.39,-208.2"/>
<polygon fill="#63b8ff" stroke="#63b8ff" points="389.18,-211.61 398.29,-206.21 387.8,-204.75 389.18,-211.61"/>
</a>
</g>
<g id="a_edge7&#45;headlabel"><a xlink:href="dir_000003_000005.html" target="_top" xlink:title="1">
<text text-anchor="middle" x="386.22" y="-212.61" font-family="Helvetica,sans-Serif" font-size="10.00" fill="#63b8ff">1</text>
</a>
</g>
</g>
<!-- dir_c8df9a83da56af1891de301214a2e601 -->
<g id="node6" class="node">
<title>dir_c8df9a83da56af1891de301214a2e601</title>
<g id="a_node6"><a xlink:href="dir_c8df9a83da56af1891de301214a2e601.html" target="_top" xlink:title="gpio_driver">
<polygon fill="#a2b4d6" stroke="#404040" points="359.5,-263 288.5,-263 288.5,-244 359.5,-244 359.5,-263"/>
<text text-anchor="middle" x="324" y="-251" font-family="Helvetica,sans-Serif" font-size="10.00">gpio_driver</text>
</a>
</g>
</g>
<!-- dir_c8df9a83da56af1891de301214a2e601&#45;&gt;dir_9893f083cf503bf028f3909b7ee1aca3 -->
<g id="edge8" class="edge">
<title>dir_c8df9a83da56af1891de301214a2e601&#45;&gt;dir_9893f083cf503bf028f3909b7ee1aca3</title>
<g id="a_edge8"><a xlink:href="dir_000004_000006.html" target="_top">
<path fill="none" stroke="#63b8ff" d="M359.62,-245.44C418.3,-233.73 529.13,-211.25 532,-208 551.89,-185.46 549.93,-93.27 548.07,-53.22"/>
<polygon fill="#63b8ff" stroke="#63b8ff" points="551.56,-53.01 547.55,-43.2 544.57,-53.37 551.56,-53.01"/>
</a>
</g>
<g id="a_edge8&#45;headlabel"><a xlink:href="dir_000004_000006.html" target="_top" xlink:title="1">
<text text-anchor="middle" x="554.58" y="-53.95" font-family="Helvetica,sans-Serif" font-size="10.00" fill="#63b8ff">1</text>
</a>
</g>
</g>
<!-- dir_8938040af9d266be553d1135477b804d&#45;&gt;dir_9893f083cf503bf028f3909b7ee1aca3 -->
<g id="edge9" class="edge">
<title>dir_8938040af9d266be553d1135477b804d&#45;&gt;dir_9893f083cf503bf028f3909b7ee1aca3</title>
<g id="a_edge9"><a xlink:href="dir_000008_000006.html" target="_top">
<path fill="none" stroke="#63b8ff" d="M304.12,-81.83C307.37,-80.8 310.77,-79.8 314,-79 401.85,-57.16 429.18,-65.52 516.54,-44.25"/>
<polygon fill="#63b8ff" stroke="#63b8ff" points="517.49,-47.62 526.34,-41.8 515.79,-40.83 517.49,-47.62"/>
</a>
</g>
<g id="a_edge9&#45;headlabel"><a xlink:href="dir_000008_000006.html" target="_top" xlink:title="2">
<text text-anchor="middle" x="514.69" y="-48.75" font-family="Helvetica,sans-Serif" font-size="10.00" fill="#63b8ff">2</text>
</a>
</g>
</g>
<!-- dir_8938040af9d266be553d1135477b804d&#45;&gt;dir_a13c4c485bb1701984d244429ad4ded1 -->
<g id="edge10" class="edge">
<title>dir_8938040af9d266be553d1135477b804d&#45;&gt;dir_a13c4c485bb1701984d244429ad4ded1</title>
<g id="a_edge10"><a xlink:href="dir_000008_000000.html" target="_top">
<path fill="none" stroke="#63b8ff" d="M282.22,-78.75C277.38,-71.42 270.32,-60.73 264.36,-51.7"/>
<polygon fill="#63b8ff" stroke="#63b8ff" points="267.1,-49.5 258.67,-43.09 261.26,-53.36 267.1,-49.5"/>
</a>
</g>
<g id="a_edge10&#45;headlabel"><a xlink:href="dir_000008_000000.html" target="_top" xlink:title="1">
<text text-anchor="middle" x="271.45" y="-48.44" font-family="Helvetica,sans-Serif" font-size="10.00" fill="#63b8ff">1</text>
</a>
</g>
</g>
<!-- dir_d593a792f6d68ad3cd00089cda4c9fbf&#45;&gt;dir_9893f083cf503bf028f3909b7ee1aca3 -->
<g id="edge11" class="edge">
<title>dir_d593a792f6d68ad3cd00089cda4c9fbf&#45;&gt;dir_9893f083cf503bf028f3909b7ee1aca3</title>
<g id="a_edge11"><a xlink:href="dir_000009_000006.html" target="_top">
<path fill="none" stroke="#63b8ff" d="M466.42,-78.98C481.45,-70.69 504.54,-57.94 522.16,-48.22"/>
<polygon fill="#63b8ff" stroke="#63b8ff" points="524.23,-51.07 531.3,-43.17 520.85,-44.94 524.23,-51.07"/>
</a>
</g>
<g id="a_edge11&#45;headlabel"><a xlink:href="dir_000009_000006.html" target="_top" xlink:title="1">
<text text-anchor="middle" x="522.46" y="-52.79" font-family="Helvetica,sans-Serif" font-size="10.00" fill="#63b8ff">1</text>
</a>
</g>
</g>
<!-- dir_af00538107c5bb6312b4379f7c6a7915&#45;&gt;dir_9893f083cf503bf028f3909b7ee1aca3 -->
<g id="edge12" class="edge">
<title>dir_af00538107c5bb6312b4379f7c6a7915&#45;&gt;dir_9893f083cf503bf028f3909b7ee1aca3</title>
<g id="a_edge12"><a xlink:href="dir_000010_000006.html" target="_top">
<path fill="none" stroke="#63b8ff" d="M363.63,-81.54C366.76,-80.67 369.96,-79.8 373,-79 435.68,-62.56 454.73,-62 516.46,-44.53"/>
<polygon fill="#63b8ff" stroke="#63b8ff" points="517.66,-47.82 526.31,-41.7 515.73,-41.09 517.66,-47.82"/>
</a>
</g>
<g id="a_edge12&#45;headlabel"><a xlink:href="dir_000010_000006.html" target="_top" xlink:title="1">
<text text-anchor="middle" x="514.99" y="-49.04" font-family="Helvetica,sans-Serif" font-size="10.00" fill="#63b8ff">1</text>
</a>
</g>
</g>
<!-- dir_ee50860190fe62f2e35dcf8898f9d9d7 -->
<g id="node11" class="node">
<title>dir_ee50860190fe62f2e35dcf8898f9d9d7</title>
<g id="a_node11"><a xlink:href="dir_ee50860190fe62f2e35dcf8898f9d9d7.html" target="_top" xlink:title="rotary_encoder">
<polygon fill="#a2b4d6" stroke="#404040" points="270,-263 180,-263 180,-244 270,-244 270,-263"/>
<text text-anchor="middle" x="225" y="-251" font-family="Helvetica,sans-Serif" font-size="10.00">rotary_encoder</text>
</a>
</g>
</g>
<!-- dir_ec6cb34ec652cff6437f903aefeae430 -->
<g id="node12" class="node">
<title>dir_ec6cb34ec652cff6437f903aefeae430</title>
<g id="a_node12"><a xlink:href="dir_ec6cb34ec652cff6437f903aefeae430.html" target="_top" xlink:title="service_manager">
<polygon fill="#a2b4d6" stroke="#404040" points="380.5,-208 279.5,-208 279.5,-189 380.5,-189 380.5,-208"/>
<text text-anchor="middle" x="330" y="-196" font-family="Helvetica,sans-Serif" font-size="10.00">service_manager</text>
</a>
</g>
</g>
<!-- dir_ec6cb34ec652cff6437f903aefeae430&#45;&gt;dir_9893f083cf503bf028f3909b7ee1aca3 -->
<g id="edge16" class="edge">
<title>dir_ec6cb34ec652cff6437f903aefeae430&#45;&gt;dir_9893f083cf503bf028f3909b7ee1aca3</title>
<g id="a_edge16"><a xlink:href="dir_000012_000006.html" target="_top">
<path fill="none" stroke="#63b8ff" d="M347.86,-188.99C379.22,-173.54 445.36,-138.71 493,-98 509.27,-84.1 524.76,-65.07 534.95,-51.47"/>
<polygon fill="#63b8ff" stroke="#63b8ff" points="538.02,-53.2 541.09,-43.06 532.37,-49.07 538.02,-53.2"/>
</a>
</g>
<g id="a_edge16&#45;headlabel"><a xlink:href="dir_000012_000006.html" target="_top" xlink:title="2">
<text text-anchor="middle" x="538.19" y="-55.28" font-family="Helvetica,sans-Serif" font-size="10.00" fill="#63b8ff">2</text>
</a>
</g>
</g>
<!-- dir_ec6cb34ec652cff6437f903aefeae430&#45;&gt;dir_a13c4c485bb1701984d244429ad4ded1 -->
<g id="edge17" class="edge">
<title>dir_ec6cb34ec652cff6437f903aefeae430&#45;&gt;dir_a13c4c485bb1701984d244429ad4ded1</title>
<g id="a_edge17"><a xlink:href="dir_000012_000000.html" target="_top">
<path fill="none" stroke="#63b8ff" d="M319.1,-188.81C300.43,-173.1 263.16,-137.87 251,-98 246.57,-83.48 247.48,-66.21 249.27,-53.35"/>
<polygon fill="#63b8ff" stroke="#63b8ff" points="252.75,-53.81 250.96,-43.36 245.84,-52.64 252.75,-53.81"/>
</a>
</g>
<g id="a_edge17&#45;headlabel"><a xlink:href="dir_000012_000000.html" target="_top" xlink:title="1">
<text text-anchor="middle" x="254.95" y="-55.32" font-family="Helvetica,sans-Serif" font-size="10.00" fill="#63b8ff">1</text>
</a>
</g>
</g>
<!-- dir_ec6cb34ec652cff6437f903aefeae430&#45;&gt;dir_6591a8ca0b1ec78afa747e232353e174 -->
<g id="edge14" class="edge">
<title>dir_ec6cb34ec652cff6437f903aefeae430&#45;&gt;dir_6591a8ca0b1ec78afa747e232353e174</title>
<g id="a_edge14"><a xlink:href="dir_000012_000002.html" target="_top">
<path fill="none" stroke="#63b8ff" d="M330,-188.75C330,-181.8 330,-171.85 330,-163.13"/>
<polygon fill="#63b8ff" stroke="#63b8ff" points="333.5,-163.09 330,-153.09 326.5,-163.09 333.5,-163.09"/>
</a>
</g>
<g id="a_edge14&#45;headlabel"><a xlink:href="dir_000012_000002.html" target="_top" xlink:title="1">
<text text-anchor="middle" x="336.34" y="-164.18" font-family="Helvetica,sans-Serif" font-size="10.00" fill="#63b8ff">1</text>
</a>
</g>
</g>
<!-- dir_ec6cb34ec652cff6437f903aefeae430&#45;&gt;dir_8938040af9d266be553d1135477b804d -->
<g id="edge15" class="edge">
<title>dir_ec6cb34ec652cff6437f903aefeae430&#45;&gt;dir_8938040af9d266be553d1135477b804d</title>
<g id="a_edge15"><a xlink:href="dir_000012_000008.html" target="_top">
<path fill="none" stroke="#63b8ff" d="M321.75,-188.72C314.29,-180.25 303.64,-166.73 298,-153 292.1,-138.63 289.66,-121.11 288.66,-108.11"/>
<polygon fill="#63b8ff" stroke="#63b8ff" points="292.15,-107.85 288.1,-98.05 285.16,-108.23 292.15,-107.85"/>
</a>
</g>
<g id="a_edge15&#45;headlabel"><a xlink:href="dir_000012_000008.html" target="_top" xlink:title="1">
<text text-anchor="middle" x="295.18" y="-108.78" font-family="Helvetica,sans-Serif" font-size="10.00" fill="#63b8ff">1</text>
</a>
</g>
</g>
<!-- dir_ec6cb34ec652cff6437f903aefeae430&#45;&gt;dir_d593a792f6d68ad3cd00089cda4c9fbf -->
<g id="edge19" class="edge">
<title>dir_ec6cb34ec652cff6437f903aefeae430&#45;&gt;dir_d593a792f6d68ad3cd00089cda4c9fbf</title>
<g id="a_edge19"><a xlink:href="dir_000012_000009.html" target="_top">
<path fill="none" stroke="#63b8ff" d="M339.9,-188.66C360.48,-170.3 408.07,-127.81 433.78,-104.87"/>
<polygon fill="#63b8ff" stroke="#63b8ff" points="436.17,-107.43 441.3,-98.16 431.51,-102.21 436.17,-107.43"/>
</a>
</g>
<g id="a_edge19&#45;headlabel"><a xlink:href="dir_000012_000009.html" target="_top" xlink:title="1">
<text text-anchor="middle" x="435.38" y="-109.44" font-family="Helvetica,sans-Serif" font-size="10.00" fill="#63b8ff">1</text>
</a>
</g>
</g>
<!-- dir_ec6cb34ec652cff6437f903aefeae430&#45;&gt;dir_af00538107c5bb6312b4379f7c6a7915 -->
<g id="edge18" class="edge">
<title>dir_ec6cb34ec652cff6437f903aefeae430&#45;&gt;dir_af00538107c5bb6312b4379f7c6a7915</title>
<g id="a_edge18"><a xlink:href="dir_000012_000010.html" target="_top">
<path fill="none" stroke="#63b8ff" d="M338.75,-188.9C346.56,-180.56 357.45,-167.13 362,-153 367.01,-137.46 360.63,-119.65 353.95,-106.85"/>
<polygon fill="#63b8ff" stroke="#63b8ff" points="356.98,-105.1 348.97,-98.16 350.91,-108.58 356.98,-105.1"/>
</a>
</g>
<g id="a_edge18&#45;headlabel"><a xlink:href="dir_000012_000010.html" target="_top" xlink:title="1">
<text text-anchor="middle" x="361.23" y="-104.3" font-family="Helvetica,sans-Serif" font-size="10.00" fill="#63b8ff">1</text>
</a>
</g>
</g>
<!-- dir_ec6cb34ec652cff6437f903aefeae430&#45;&gt;dir_27a09bb4329d836898ad2e41b0fca487 -->
<g id="edge13" class="edge">
<title>dir_ec6cb34ec652cff6437f903aefeae430&#45;&gt;dir_27a09bb4329d836898ad2e41b0fca487</title>
<g id="a_edge13"><a xlink:href="dir_000012_000016.html" target="_top">
<path fill="none" stroke="#63b8ff" d="M338.29,-188.77C346.24,-180.12 358.3,-166.28 367,-153 376.61,-138.34 385.41,-120.4 391.34,-107.33"/>
<polygon fill="#63b8ff" stroke="#63b8ff" points="394.59,-108.61 395.43,-98.05 388.19,-105.79 394.59,-108.61"/>
</a>
</g>
<g id="a_edge13&#45;headlabel"><a xlink:href="dir_000012_000016.html" target="_top" xlink:title="1">
<text text-anchor="middle" x="395.74" y="-110.55" font-family="Helvetica,sans-Serif" font-size="10.00" fill="#63b8ff">1</text>
</a>
</g>
</g>
<!-- dir_e358256436063faffb66e4cd4d1bf7a0 -->
<g id="node13" class="node">
<title>dir_e358256436063faffb66e4cd4d1bf7a0</title>
<g id="a_node13"><a xlink:href="dir_e358256436063faffb66e4cd4d1bf7a0.html" target="_top" xlink:title="uart">
<polygon fill="#a2b4d6" stroke="#404040" points="414,-263 378,-263 378,-244 414,-244 414,-263"/>
<text text-anchor="middle" x="396" y="-251" font-family="Helvetica,sans-Serif" font-size="10.00">uart</text>
</a>
</g>
</g>
<!-- dir_e358256436063faffb66e4cd4d1bf7a0&#45;&gt;dir_9893f083cf503bf028f3909b7ee1aca3 -->
<g id="edge20" class="edge">
<title>dir_e358256436063faffb66e4cd4d1bf7a0&#45;&gt;dir_9893f083cf503bf028f3909b7ee1aca3</title>
<g id="a_edge20"><a xlink:href="dir_000014_000006.html" target="_top">
<path fill="none" stroke="#63b8ff" d="M414.06,-246.96C417.36,-245.96 420.78,-244.94 424,-244 480.72,-227.42 516.32,-255.11 552,-208 586.97,-161.83 566.61,-87.19 554.29,-52.86"/>
<polygon fill="#63b8ff" stroke="#63b8ff" points="557.46,-51.33 550.66,-43.21 550.91,-53.8 557.46,-51.33"/>
</a>
</g>
<g id="a_edge20&#45;headlabel"><a xlink:href="dir_000014_000006.html" target="_top" xlink:title="1">
<text text-anchor="middle" x="561.38" y="-51.19" font-family="Helvetica,sans-Serif" font-size="10.00" fill="#63b8ff">1</text>
</a>
</g>
</g>
<!-- dir_54c3fa7b37971d51e57fc618a8a47b11 -->
<g id="node14" class="node">
<title>dir_54c3fa7b37971d51e57fc618a8a47b11</title>
<g id="a_node14"><a xlink:href="dir_54c3fa7b37971d51e57fc618a8a47b11.html" target="_top" xlink:title="webserver">
<polygon fill="#a2b4d6" stroke="#404040" points="92,-263 24,-263 24,-244 92,-244 92,-263"/>
<text text-anchor="middle" x="58" y="-251" font-family="Helvetica,sans-Serif" font-size="10.00">webserver</text>
</a>
</g>
</g>
<!-- dir_54c3fa7b37971d51e57fc618a8a47b11&#45;&gt;dir_9893f083cf503bf028f3909b7ee1aca3 -->
<g id="edge22" class="edge">
<title>dir_54c3fa7b37971d51e57fc618a8a47b11&#45;&gt;dir_9893f083cf503bf028f3909b7ee1aca3</title>
<g id="a_edge22"><a xlink:href="dir_000015_000006.html" target="_top">
<path fill="none" stroke="#63b8ff" d="M92.22,-245.43C95.18,-244.91 98.14,-244.42 101,-244 180.53,-232.19 394.88,-253.74 461,-208 514.64,-170.9 536.37,-90.39 543.75,-53.57"/>
<polygon fill="#63b8ff" stroke="#63b8ff" points="547.28,-53.73 545.66,-43.26 540.4,-52.45 547.28,-53.73"/>
</a>
</g>
<g id="a_edge22&#45;headlabel"><a xlink:href="dir_000015_000006.html" target="_top" xlink:title="1">
<text text-anchor="middle" x="549.41" y="-55.28" font-family="Helvetica,sans-Serif" font-size="10.00" fill="#63b8ff">1</text>
</a>
</g>
</g>
<!-- dir_54c3fa7b37971d51e57fc618a8a47b11&#45;&gt;dir_6591a8ca0b1ec78afa747e232353e174 -->
<g id="edge21" class="edge">
<title>dir_54c3fa7b37971d51e57fc618a8a47b11&#45;&gt;dir_6591a8ca0b1ec78afa747e232353e174</title>
<g id="a_edge21"><a xlink:href="dir_000015_000002.html" target="_top">
<path fill="none" stroke="#63b8ff" d="M79.8,-243.84C127.96,-224.72 243.57,-178.82 299.14,-156.75"/>
<polygon fill="#63b8ff" stroke="#63b8ff" points="300.47,-159.99 308.47,-153.05 297.89,-153.48 300.47,-159.99"/>
</a>
</g>
<g id="a_edge21&#45;headlabel"><a xlink:href="dir_000015_000002.html" target="_top" xlink:title="1">
<text text-anchor="middle" x="298.18" y="-161.46" font-family="Helvetica,sans-Serif" font-size="10.00" fill="#63b8ff">1</text>
</a>
</g>
</g>
<!-- dir_54c3fa7b37971d51e57fc618a8a47b11&#45;&gt;dir_ec6cb34ec652cff6437f903aefeae430 -->
<g id="edge23" class="edge">
<title>dir_54c3fa7b37971d51e57fc618a8a47b11&#45;&gt;dir_ec6cb34ec652cff6437f903aefeae430</title>
<g id="a_edge23"><a xlink:href="dir_000015_000012.html" target="_top">
<path fill="none" stroke="#63b8ff" d="M92.27,-245.72C95.22,-245.13 98.16,-244.56 101,-244 160.8,-232.28 229.41,-218.96 275.82,-209.98"/>
<polygon fill="#63b8ff" stroke="#63b8ff" points="276.51,-213.41 285.66,-208.07 275.18,-206.54 276.51,-213.41"/>
</a>
</g>
<g id="a_edge23&#45;headlabel"><a xlink:href="dir_000015_000012.html" target="_top" xlink:title="1">
<text text-anchor="middle" x="273.52" y="-214.38" font-family="Helvetica,sans-Serif" font-size="10.00" fill="#63b8ff">1</text>
</a>
</g>
</g>
<!-- dir_27a09bb4329d836898ad2e41b0fca487&#45;&gt;dir_9893f083cf503bf028f3909b7ee1aca3 -->
<g id="edge24" class="edge">
<title>dir_27a09bb4329d836898ad2e41b0fca487&#45;&gt;dir_9893f083cf503bf028f3909b7ee1aca3</title>
<g id="a_edge24"><a xlink:href="dir_000016_000006.html" target="_top">
<path fill="none" stroke="#63b8ff" d="M416.27,-81.32C440.79,-72.53 486.1,-56.31 516.39,-45.46"/>
<polygon fill="#63b8ff" stroke="#63b8ff" points="517.81,-48.67 526.04,-42.01 515.45,-42.08 517.81,-48.67"/>
</a>
</g>
<g id="a_edge24&#45;headlabel"><a xlink:href="dir_000016_000006.html" target="_top" xlink:title="1">
<text text-anchor="middle" x="515.38" y="-50.06" font-family="Helvetica,sans-Serif" font-size="10.00" fill="#63b8ff">1</text>
</a>
</g>
</g>
</g>
</svg>
