<?xml version="1.0" encoding="UTF-8" standalone="no"?>
<!DOCTYPE svg PUBLIC "-//W3C//DTD SVG 1.1//EN"
 "http://www.w3.org/Graphics/SVG/1.1/DTD/svg11.dtd">
<!-- Generated by graphviz version 2.43.0 (0)
 -->
<!-- Title: software/nixie_clock_esp32_project/components Pages: 1 -->
<svg width="504pt" height="259pt"
 viewBox="0.00 0.00 504.00 259.00" xmlns="http://www.w3.org/2000/svg" xmlns:xlink="http://www.w3.org/1999/xlink">
<g id="graph0" class="graph" transform="scale(1 1) rotate(0) translate(4 255)">
<title>software/nixie_clock_esp32_project/components</title>
<g id="clust1" class="cluster">
<title>clusterdir_4e80761515fcd0d8a8682b4ebda49685</title>
<g id="a_clust1"><a xlink:href="dir_4e80761515fcd0d8a8682b4ebda49685.html" target="_top" xlink:title="nixie_clock_esp32_project">
<polygon fill="#edf0f7" stroke="#7f7f7f" stroke-dasharray="5,2" points="8,-8 8,-243 488,-243 488,-8 8,-8"/>
<text text-anchor="middle" x="248" y="-231" font-family="Helvetica,sans-Serif" font-size="10.00">nixie_clock_esp32_project</text>
</a>
</g>
</g>
<g id="clust2" class="cluster">
<title>clusterdir_b181baf956279f894a730e459ce47bc5</title>
<g id="a_clust2"><a xlink:href="dir_b181baf956279f894a730e459ce47bc5.html" target="_top">
<polygon fill="#edf0f7" stroke="#404040" stroke-width="2" points="16,-16 16,-216 480,-216 480,-16 16,-16"/>
</a>
</g>
</g>
<!-- dir_b181baf956279f894a730e459ce47bc5 -->
<g id="node1" class="node">
<title>dir_b181baf956279f894a730e459ce47bc5</title>
<text text-anchor="middle" x="376" y="-196" font-family="Helvetica,sans-Serif" font-size="10.00">components</text>
</g>
<!-- dir_a13c4c485bb1701984d244429ad4ded1 -->
<g id="node2" class="node">
<title>dir_a13c4c485bb1701984d244429ad4ded1</title>
<g id="a_node2"><a xlink:href="dir_a13c4c485bb1701984d244429ad4ded1.html" target="_top" xlink:title="clock">
<polygon fill="#a2b4d6" stroke="#404040" points="118,-43 76,-43 76,-24 118,-24 118,-43"/>
<text text-anchor="middle" x="97" y="-31" font-family="Helvetica,sans-Serif" font-size="10.00">clock</text>
</a>
</g>
</g>
<!-- dir_2f8bb0b9567c99dc8a53f1db54ef1a1c -->
<g id="node3" class="node">
<title>dir_2f8bb0b9567c99dc8a53f1db54ef1a1c</title>
<g id="a_node3"><a xlink:href="dir_2f8bb0b9567c99dc8a53f1db54ef1a1c.html" target="_top" xlink:title="clock_task">
<polygon fill="#a2b4d6" stroke="#404040" points="380,-153 312,-153 312,-134 380,-134 380,-153"/>
<text text-anchor="middle" x="346" y="-141" font-family="Helvetica,sans-Serif" font-size="10.00">clock_task</text>
</a>
</g>
</g>
<!-- dir_2f8bb0b9567c99dc8a53f1db54ef1a1c&#45;&gt;dir_a13c4c485bb1701984d244429ad4ded1 -->
<g id="edge4" class="edge">
<title>dir_2f8bb0b9567c99dc8a53f1db54ef1a1c&#45;&gt;dir_a13c4c485bb1701984d244429ad4ded1</title>
<g id="a_edge4"><a xlink:href="dir_000001_000000.html" target="_top">
<path fill="none" stroke="#63b8ff" d="M311.83,-137.75C276.61,-131.91 220.81,-119.94 177,-98 152.38,-85.67 128.2,-64.95 112.98,-50.54"/>
<polygon fill="#63b8ff" stroke="#63b8ff" points="115.11,-47.73 105.5,-43.28 110.24,-52.75 115.11,-47.73"/>
</a>
</g>
<g id="a_edge4&#45;headlabel"><a xlink:href="dir_000001_000000.html" target="_top" xlink:title="1">
<text text-anchor="middle" x="119.67" y="-45.7" font-family="Helvetica,sans-Serif" font-size="10.00" fill="#63b8ff">1</text>
</a>
</g>
</g>
<!-- dir_6591a8ca0b1ec78afa747e232353e174 -->
<g id="node4" class="node">
<title>dir_6591a8ca0b1ec78afa747e232353e174</title>
<g id="a_node4"><a xlink:href="dir_6591a8ca0b1ec78afa747e232353e174.html" target="_top" xlink:title="config">
<polygon fill="#a2b4d6" stroke="#404040" points="88,-98 42,-98 42,-79 88,-79 88,-98"/>
<text text-anchor="middle" x="65" y="-86" font-family="Helvetica,sans-Serif" font-size="10.00">config</text>
</a>
</g>
</g>
<!-- dir_2f8bb0b9567c99dc8a53f1db54ef1a1c&#45;&gt;dir_6591a8ca0b1ec78afa747e232353e174 -->
<g id="edge3" class="edge">
<title>dir_2f8bb0b9567c99dc8a53f1db54ef1a1c&#45;&gt;dir_6591a8ca0b1ec78afa747e232353e174</title>
<g id="a_edge3"><a xlink:href="dir_000001_000003.html" target="_top">
<path fill="none" stroke="#63b8ff" d="M311.82,-136.05C257.52,-125.81 152.2,-105.95 98.39,-95.8"/>
<polygon fill="#63b8ff" stroke="#63b8ff" points="98.82,-92.32 88.35,-93.9 97.53,-99.2 98.82,-92.32"/>
</a>
</g>
<g id="a_edge3&#45;headlabel"><a xlink:href="dir_000001_000003.html" target="_top" xlink:title="1">
<text text-anchor="middle" x="102.88" y="-87.69" font-family="Helvetica,sans-Serif" font-size="10.00" fill="#63b8ff">1</text>
</a>
</g>
</g>
<!-- dir_25afab11bb9cc6587024a85a8f095e2f -->
<g id="node6" class="node">
<title>dir_25afab11bb9cc6587024a85a8f095e2f</title>
<g id="a_node6"><a xlink:href="dir_25afab11bb9cc6587024a85a8f095e2f.html" target="_top" xlink:title="display">
<polygon fill="#a2b4d6" stroke="#404040" points="350,-98 298,-98 298,-79 350,-79 350,-98"/>
<text text-anchor="middle" x="324" y="-86" font-family="Helvetica,sans-Serif" font-size="10.00">display</text>
</a>
</g>
</g>
<!-- dir_2f8bb0b9567c99dc8a53f1db54ef1a1c&#45;&gt;dir_25afab11bb9cc6587024a85a8f095e2f -->
<g id="edge1" class="edge">
<title>dir_2f8bb0b9567c99dc8a53f1db54ef1a1c&#45;&gt;dir_25afab11bb9cc6587024a85a8f095e2f</title>
<g id="a_edge1"><a xlink:href="dir_000001_000005.html" target="_top">
<path fill="none" stroke="#63b8ff" d="M342.37,-133.75C339.42,-126.65 335.17,-116.4 331.49,-107.56"/>
<polygon fill="#63b8ff" stroke="#63b8ff" points="334.63,-105.98 327.57,-98.09 328.17,-108.67 334.63,-105.98"/>
</a>
</g>
<g id="a_edge1&#45;headlabel"><a xlink:href="dir_000001_000005.html" target="_top" xlink:title="1">
<text text-anchor="middle" x="338.63" y="-105.71" font-family="Helvetica,sans-Serif" font-size="10.00" fill="#63b8ff">1</text>
</a>
</g>
</g>
<!-- dir_c8df9a83da56af1891de301214a2e601 -->
<g id="node8" class="node">
<title>dir_c8df9a83da56af1891de301214a2e601</title>
<g id="a_node8"><a xlink:href="dir_c8df9a83da56af1891de301214a2e601.html" target="_top" xlink:title="gpio_driver">
<polygon fill="#a2b4d6" stroke="#404040" points="363.5,-43 292.5,-43 292.5,-24 363.5,-24 363.5,-43"/>
<text text-anchor="middle" x="328" y="-31" font-family="Helvetica,sans-Serif" font-size="10.00">gpio_driver</text>
</a>
</g>
</g>
<!-- dir_2f8bb0b9567c99dc8a53f1db54ef1a1c&#45;&gt;dir_c8df9a83da56af1891de301214a2e601 -->
<g id="edge5" class="edge">
<title>dir_2f8bb0b9567c99dc8a53f1db54ef1a1c&#45;&gt;dir_c8df9a83da56af1891de301214a2e601</title>
<g id="a_edge5"><a xlink:href="dir_000001_000007.html" target="_top">
<path fill="none" stroke="#63b8ff" d="M350.56,-133.73C356.37,-121.35 365,-98.11 359,-79 355.77,-68.71 349.22,-58.72 342.97,-50.82"/>
<polygon fill="#63b8ff" stroke="#63b8ff" points="345.61,-48.52 336.48,-43.15 340.27,-53.04 345.61,-48.52"/>
</a>
</g>
<g id="a_edge5&#45;headlabel"><a xlink:href="dir_000001_000007.html" target="_top" xlink:title="1">
<text text-anchor="middle" x="350.1" y="-46.93" font-family="Helvetica,sans-Serif" font-size="10.00" fill="#63b8ff">1</text>
</a>
</g>
</g>
<!-- dir_6378bc349134a8014a09749f3432f8e2 -->
<g id="node9" class="node">
<title>dir_6378bc349134a8014a09749f3432f8e2</title>
<g id="a_node9"><a xlink:href="dir_6378bc349134a8014a09749f3432f8e2.html" target="_top" xlink:title="gpio_task">
<polygon fill="#a2b4d6" stroke="#404040" points="452,-98 388,-98 388,-79 452,-79 452,-98"/>
<text text-anchor="middle" x="420" y="-86" font-family="Helvetica,sans-Serif" font-size="10.00">gpio_task</text>
</a>
</g>
</g>
<!-- dir_2f8bb0b9567c99dc8a53f1db54ef1a1c&#45;&gt;dir_6378bc349134a8014a09749f3432f8e2 -->
<g id="edge2" class="edge">
<title>dir_2f8bb0b9567c99dc8a53f1db54ef1a1c&#45;&gt;dir_6378bc349134a8014a09749f3432f8e2</title>
<g id="a_edge2"><a xlink:href="dir_000001_000008.html" target="_top">
<path fill="none" stroke="#63b8ff" d="M357.89,-133.98C369.15,-125.92 386.29,-113.65 399.71,-104.03"/>
<polygon fill="#63b8ff" stroke="#63b8ff" points="401.8,-106.84 407.89,-98.17 397.73,-101.15 401.8,-106.84"/>
</a>
</g>
<g id="a_edge2&#45;headlabel"><a xlink:href="dir_000001_000008.html" target="_top" xlink:title="1">
<text text-anchor="middle" x="400.53" y="-108.74" font-family="Helvetica,sans-Serif" font-size="10.00" fill="#63b8ff">1</text>
</a>
</g>
</g>
<!-- dir_ee50860190fe62f2e35dcf8898f9d9d7 -->
<g id="node14" class="node">
<title>dir_ee50860190fe62f2e35dcf8898f9d9d7</title>
<g id="a_node14"><a xlink:href="dir_ee50860190fe62f2e35dcf8898f9d9d7.html" target="_top" xlink:title="rotary_encoder">
<polygon fill="#a2b4d6" stroke="#404040" points="472,-43 382,-43 382,-24 472,-24 472,-43"/>
<text text-anchor="middle" x="427" y="-31" font-family="Helvetica,sans-Serif" font-size="10.00">rotary_encoder</text>
</a>
</g>
</g>
<!-- dir_2f8bb0b9567c99dc8a53f1db54ef1a1c&#45;&gt;dir_ee50860190fe62f2e35dcf8898f9d9d7 -->
<g id="edge6" class="edge">
<title>dir_2f8bb0b9567c99dc8a53f1db54ef1a1c&#45;&gt;dir_ee50860190fe62f2e35dcf8898f9d9d7</title>
<g id="a_edge6"><a xlink:href="dir_000001_000015.html" target="_top">
<path fill="none" stroke="#63b8ff" d="M380.03,-139.47C406.97,-135.07 442.97,-124.31 461,-98 471.64,-82.48 458.02,-63.27 444.99,-50.06"/>
<polygon fill="#63b8ff" stroke="#63b8ff" points="447.25,-47.38 437.57,-43.06 442.44,-52.47 447.25,-47.38"/>
</a>
</g>
<g id="a_edge6&#45;headlabel"><a xlink:href="dir_000001_000015.html" target="_top" xlink:title="1">
<text text-anchor="middle" x="451.81" y="-45.28" font-family="Helvetica,sans-Serif" font-size="10.00" fill="#63b8ff">1</text>
</a>
</g>
</g>
<!-- dir_6591a8ca0b1ec78afa747e232353e174&#45;&gt;dir_a13c4c485bb1701984d244429ad4ded1 -->
<g id="edge8" class="edge">
<title>dir_6591a8ca0b1ec78afa747e232353e174&#45;&gt;dir_a13c4c485bb1701984d244429ad4ded1</title>
<g id="a_edge8"><a xlink:href="dir_000003_000000.html" target="_top">
<path fill="none" stroke="#63b8ff" d="M70.28,-78.75C74.71,-71.42 81.16,-60.73 86.62,-51.7"/>
<polygon fill="#63b8ff" stroke="#63b8ff" points="89.64,-53.46 91.81,-43.09 83.65,-49.84 89.64,-53.46"/>
</a>
</g>
<g id="a_edge8&#45;headlabel"><a xlink:href="dir_000003_000000.html" target="_top" xlink:title="1">
<text text-anchor="middle" x="90.21" y="-55.5" font-family="Helvetica,sans-Serif" font-size="10.00" fill="#63b8ff">1</text>
</a>
</g>
</g>
<!-- dir_3df67f4185c8cd9c27353f35f3bf503b -->
<g id="node7" class="node">
<title>dir_3df67f4185c8cd9c27353f35f3bf503b</title>
<g id="a_node7"><a xlink:href="dir_3df67f4185c8cd9c27353f35f3bf503b.html" target="_top" xlink:title="event_bus">
<polygon fill="#a2b4d6" stroke="#404040" points="203.5,-43 136.5,-43 136.5,-24 203.5,-24 203.5,-43"/>
<text text-anchor="middle" x="170" y="-31" font-family="Helvetica,sans-Serif" font-size="10.00">event_bus</text>
</a>
</g>
</g>
<!-- dir_6591a8ca0b1ec78afa747e232353e174&#45;&gt;dir_3df67f4185c8cd9c27353f35f3bf503b -->
<g id="edge7" class="edge">
<title>dir_6591a8ca0b1ec78afa747e232353e174&#45;&gt;dir_3df67f4185c8cd9c27353f35f3bf503b</title>
<g id="a_edge7"><a xlink:href="dir_000003_000006.html" target="_top">
<path fill="none" stroke="#63b8ff" d="M81.87,-78.98C98.61,-70.54 124.5,-57.47 143.89,-47.68"/>
<polygon fill="#63b8ff" stroke="#63b8ff" points="145.47,-50.8 152.82,-43.17 142.32,-44.55 145.47,-50.8"/>
</a>
</g>
<g id="a_edge7&#45;headlabel"><a xlink:href="dir_000003_000006.html" target="_top" xlink:title="1">
<text text-anchor="middle" x="143.54" y="-52.46" font-family="Helvetica,sans-Serif" font-size="10.00" fill="#63b8ff">1</text>
</a>
</g>
</g>
<!-- dir_d593a792f6d68ad3cd00089cda4c9fbf -->
<g id="node12" class="node">
<title>dir_d593a792f6d68ad3cd00089cda4c9fbf</title>
<g id="a_node12"><a xlink:href="dir_d593a792f6d68ad3cd00089cda4c9fbf.html" target="_top" xlink:title="nvs">
<polygon fill="#a2b4d6" stroke="#404040" points="58,-43 24,-43 24,-24 58,-24 58,-43"/>
<text text-anchor="middle" x="41" y="-31" font-family="Helvetica,sans-Serif" font-size="10.00">nvs</text>
</a>
</g>
</g>
<!-- dir_6591a8ca0b1ec78afa747e232353e174&#45;&gt;dir_d593a792f6d68ad3cd00089cda4c9fbf -->
<g id="edge9" class="edge">
<title>dir_6591a8ca0b1ec78afa747e232353e174&#45;&gt;dir_d593a792f6d68ad3cd00089cda4c9fbf</title>
<g id="a_edge9"><a xlink:href="dir_000003_000013.html" target="_top">
<path fill="none" stroke="#63b8ff" d="M61.04,-78.75C57.79,-71.57 53.08,-61.18 49.05,-52.27"/>
<polygon fill="#63b8ff" stroke="#63b8ff" points="52.2,-50.75 44.89,-43.09 45.83,-53.64 52.2,-50.75"/>
</a>
</g>
<g id="a_edge9&#45;headlabel"><a xlink:href="dir_000003_000013.html" target="_top" xlink:title="1">
<text text-anchor="middle" x="56.27" y="-50.36" font-family="Helvetica,sans-Serif" font-size="10.00" fill="#63b8ff">1</text>
</a>
</g>
</g>
<!-- dir_4b8e3d6e776ac08673ce436ae24ce3ad -->
<g id="node5" class="node">
<title>dir_4b8e3d6e776ac08673ce436ae24ce3ad</title>
<g id="a_node5"><a xlink:href="dir_4b8e3d6e776ac08673ce436ae24ce3ad.html" target="_top" xlink:title="dispatcher_task">
<polygon fill="#a2b4d6" stroke="#404040" points="280,-98 186,-98 186,-79 280,-79 280,-98"/>
<text text-anchor="middle" x="233" y="-86" font-family="Helvetica,sans-Serif" font-size="10.00">dispatcher_task</text>
</a>
</g>
</g>
<!-- dir_4b8e3d6e776ac08673ce436ae24ce3ad&#45;&gt;dir_3df67f4185c8cd9c27353f35f3bf503b -->
<g id="edge10" class="edge">
<title>dir_4b8e3d6e776ac08673ce436ae24ce3ad&#45;&gt;dir_3df67f4185c8cd9c27353f35f3bf503b</title>
<g id="a_edge10"><a xlink:href="dir_000004_000006.html" target="_top">
<path fill="none" stroke="#63b8ff" d="M222.88,-78.98C213.56,-71.15 199.53,-59.34 188.26,-49.86"/>
<polygon fill="#63b8ff" stroke="#63b8ff" points="190.21,-46.93 180.31,-43.17 185.71,-52.29 190.21,-46.93"/>
</a>
</g>
<g id="a_edge10&#45;headlabel"><a xlink:href="dir_000004_000006.html" target="_top" xlink:title="2">
<text text-anchor="middle" x="194.79" y="-44.57" font-family="Helvetica,sans-Serif" font-size="10.00" fill="#63b8ff">2</text>
</a>
</g>
</g>
<!-- dir_fb7d8fb2e7a81481fd306fa505fa505b -->
<g id="node10" class="node">
<title>dir_fb7d8fb2e7a81481fd306fa505fa505b</title>
<g id="a_node10"><a xlink:href="dir_fb7d8fb2e7a81481fd306fa505fa505b.html" target="_top" xlink:title="hv5622">
<polygon fill="#a2b4d6" stroke="#404040" points="274.5,-43 221.5,-43 221.5,-24 274.5,-24 274.5,-43"/>
<text text-anchor="middle" x="248" y="-31" font-family="Helvetica,sans-Serif" font-size="10.00">hv5622</text>
</a>
</g>
</g>
<!-- dir_25afab11bb9cc6587024a85a8f095e2f&#45;&gt;dir_fb7d8fb2e7a81481fd306fa505fa505b -->
<g id="edge11" class="edge">
<title>dir_25afab11bb9cc6587024a85a8f095e2f&#45;&gt;dir_fb7d8fb2e7a81481fd306fa505fa505b</title>
<g id="a_edge11"><a xlink:href="dir_000005_000009.html" target="_top">
<path fill="none" stroke="#63b8ff" d="M311.79,-78.98C300.22,-70.92 282.62,-58.65 268.84,-49.03"/>
<polygon fill="#63b8ff" stroke="#63b8ff" points="270.64,-46.02 260.43,-43.17 266.63,-51.76 270.64,-46.02"/>
</a>
</g>
<g id="a_edge11&#45;headlabel"><a xlink:href="dir_000005_000009.html" target="_top" xlink:title="1">
<text text-anchor="middle" x="275.21" y="-43.25" font-family="Helvetica,sans-Serif" font-size="10.00" fill="#63b8ff">1</text>
</a>
</g>
</g>
<!-- dir_6378bc349134a8014a09749f3432f8e2&#45;&gt;dir_3df67f4185c8cd9c27353f35f3bf503b -->
<g id="edge12" class="edge">
<title>dir_6378bc349134a8014a09749f3432f8e2&#45;&gt;dir_3df67f4185c8cd9c27353f35f3bf503b</title>
<g id="a_edge12"><a xlink:href="dir_000008_000006.html" target="_top">
<path fill="none" stroke="#63b8ff" d="M387.83,-80.68C343.41,-71.26 263.17,-54.25 213.46,-43.71"/>
<polygon fill="#63b8ff" stroke="#63b8ff" points="214.15,-40.28 203.64,-41.63 212.7,-47.13 214.15,-40.28"/>
</a>
</g>
<g id="a_edge12&#45;headlabel"><a xlink:href="dir_000008_000006.html" target="_top" xlink:title="1">
<text text-anchor="middle" x="218.26" y="-35.75" font-family="Helvetica,sans-Serif" font-size="10.00" fill="#63b8ff">1</text>
</a>
</g>
</g>
<!-- dir_6378bc349134a8014a09749f3432f8e2&#45;&gt;dir_c8df9a83da56af1891de301214a2e601 -->
<g id="edge13" class="edge">
<title>dir_6378bc349134a8014a09749f3432f8e2&#45;&gt;dir_c8df9a83da56af1891de301214a2e601</title>
<g id="a_edge13"><a xlink:href="dir_000008_000007.html" target="_top">
<path fill="none" stroke="#63b8ff" d="M405.22,-78.98C390.82,-70.69 368.69,-57.94 351.81,-48.22"/>
<polygon fill="#63b8ff" stroke="#63b8ff" points="353.46,-45.13 343.05,-43.17 349.97,-51.19 353.46,-45.13"/>
</a>
</g>
<g id="a_edge13&#45;headlabel"><a xlink:href="dir_000008_000007.html" target="_top" xlink:title="2">
<text text-anchor="middle" x="357.99" y="-41.96" font-family="Helvetica,sans-Serif" font-size="10.00" fill="#63b8ff">2</text>
</a>
</g>
</g>
<!-- dir_6378bc349134a8014a09749f3432f8e2&#45;&gt;dir_ee50860190fe62f2e35dcf8898f9d9d7 -->
<g id="edge14" class="edge">
<title>dir_6378bc349134a8014a09749f3432f8e2&#45;&gt;dir_ee50860190fe62f2e35dcf8898f9d9d7</title>
<g id="a_edge14"><a xlink:href="dir_000008_000015.html" target="_top">
<path fill="none" stroke="#63b8ff" d="M421.16,-78.75C422.07,-71.8 423.39,-61.85 424.54,-53.13"/>
<polygon fill="#63b8ff" stroke="#63b8ff" points="428.03,-53.46 425.87,-43.09 421.09,-52.54 428.03,-53.46"/>
</a>
</g>
<g id="a_edge14&#45;headlabel"><a xlink:href="dir_000008_000015.html" target="_top" xlink:title="2">
<text text-anchor="middle" x="430.37" y="-54.9" font-family="Helvetica,sans-Serif" font-size="10.00" fill="#63b8ff">2</text>
</a>
</g>
</g>
<!-- dir_8938040af9d266be553d1135477b804d -->
<g id="node11" class="node">
<title>dir_8938040af9d266be553d1135477b804d</title>
<g id="a_node11"><a xlink:href="dir_8938040af9d266be553d1135477b804d.html" target="_top" xlink:title="ntp">
<polygon fill="#a2b4d6" stroke="#404040" points="188,-153 156,-153 156,-134 188,-134 188,-153"/>
<text text-anchor="middle" x="172" y="-141" font-family="Helvetica,sans-Serif" font-size="10.00">ntp</text>
</a>
</g>
</g>
<!-- dir_8938040af9d266be553d1135477b804d&#45;&gt;dir_a13c4c485bb1701984d244429ad4ded1 -->
<g id="edge17" class="edge">
<title>dir_8938040af9d266be553d1135477b804d&#45;&gt;dir_a13c4c485bb1701984d244429ad4ded1</title>
<g id="a_edge17"><a xlink:href="dir_000012_000000.html" target="_top">
<path fill="none" stroke="#63b8ff" d="M164.48,-133.9C156.95,-125.12 145.18,-110.98 136,-98 125.4,-83.02 114.58,-65.14 107.03,-52.18"/>
<polygon fill="#63b8ff" stroke="#63b8ff" points="109.97,-50.28 101.95,-43.36 103.9,-53.77 109.97,-50.28"/>
</a>
</g>
<g id="a_edge17&#45;headlabel"><a xlink:href="dir_000012_000000.html" target="_top" xlink:title="1">
<text text-anchor="middle" x="114.23" y="-49.48" font-family="Helvetica,sans-Serif" font-size="10.00" fill="#63b8ff">1</text>
</a>
</g>
</g>
<!-- dir_8938040af9d266be553d1135477b804d&#45;&gt;dir_6591a8ca0b1ec78afa747e232353e174 -->
<g id="edge16" class="edge">
<title>dir_8938040af9d266be553d1135477b804d&#45;&gt;dir_6591a8ca0b1ec78afa747e232353e174</title>
<g id="a_edge16"><a xlink:href="dir_000012_000003.html" target="_top">
<path fill="none" stroke="#63b8ff" d="M155.75,-134.45C138.69,-126 111.6,-112.58 91.45,-102.6"/>
<polygon fill="#63b8ff" stroke="#63b8ff" points="92.99,-99.46 82.47,-98.15 89.88,-105.73 92.99,-99.46"/>
</a>
</g>
<g id="a_edge16&#45;headlabel"><a xlink:href="dir_000012_000003.html" target="_top" xlink:title="1">
<text text-anchor="middle" x="97.47" y="-96.01" font-family="Helvetica,sans-Serif" font-size="10.00" fill="#63b8ff">1</text>
</a>
</g>
</g>
<!-- dir_8938040af9d266be553d1135477b804d&#45;&gt;dir_3df67f4185c8cd9c27353f35f3bf503b -->
<g id="edge15" class="edge">
<title>dir_8938040af9d266be553d1135477b804d&#45;&gt;dir_3df67f4185c8cd9c27353f35f3bf503b</title>
<g id="a_edge15"><a xlink:href="dir_000012_000006.html" target="_top">
<path fill="none" stroke="#63b8ff" d="M163.79,-133.8C156.46,-125.38 146.25,-111.9 142,-98 137.01,-81.68 146.11,-63.98 155.24,-51.43"/>
<polygon fill="#63b8ff" stroke="#63b8ff" points="158.22,-53.3 161.69,-43.29 152.74,-48.95 158.22,-53.3"/>
</a>
</g>
<g id="a_edge15&#45;headlabel"><a xlink:href="dir_000012_000006.html" target="_top" xlink:title="1">
<text text-anchor="middle" x="158.22" y="-55.38" font-family="Helvetica,sans-Serif" font-size="10.00" fill="#63b8ff">1</text>
</a>
</g>
</g>
<!-- dir_af00538107c5bb6312b4379f7c6a7915 -->
<g id="node13" class="node">
<title>dir_af00538107c5bb6312b4379f7c6a7915</title>
<g id="a_node13"><a xlink:href="dir_af00538107c5bb6312b4379f7c6a7915.html" target="_top" xlink:title="pwm">
<polygon fill="#a2b4d6" stroke="#404040" points="137.5,-153 96.5,-153 96.5,-134 137.5,-134 137.5,-153"/>
<text text-anchor="middle" x="117" y="-141" font-family="Helvetica,sans-Serif" font-size="10.00">pwm</text>
</a>
</g>
</g>
<!-- dir_af00538107c5bb6312b4379f7c6a7915&#45;&gt;dir_6591a8ca0b1ec78afa747e232353e174 -->
<g id="edge18" class="edge">
<title>dir_af00538107c5bb6312b4379f7c6a7915&#45;&gt;dir_6591a8ca0b1ec78afa747e232353e174</title>
<g id="a_edge18"><a xlink:href="dir_000014_000003.html" target="_top">
<path fill="none" stroke="#63b8ff" d="M108.41,-133.75C100.84,-126.03 89.62,-114.6 80.49,-105.28"/>
<polygon fill="#63b8ff" stroke="#63b8ff" points="82.93,-102.78 73.43,-98.09 77.93,-107.68 82.93,-102.78"/>
</a>
</g>
<g id="a_edge18&#45;headlabel"><a xlink:href="dir_000014_000003.html" target="_top" xlink:title="1">
<text text-anchor="middle" x="87.47" y="-100.85" font-family="Helvetica,sans-Serif" font-size="10.00" fill="#63b8ff">1</text>
</a>
</g>
</g>
<!-- dir_e358256436063faffb66e4cd4d1bf7a0 -->
<g id="node15" class="node">
<title>dir_e358256436063faffb66e4cd4d1bf7a0</title>
<g id="a_node15"><a xlink:href="dir_e358256436063faffb66e4cd4d1bf7a0.html" target="_top" xlink:title="uart">
<polygon fill="#a2b4d6" stroke="#404040" points="262,-208 226,-208 226,-189 262,-189 262,-208"/>
<text text-anchor="middle" x="244" y="-196" font-family="Helvetica,sans-Serif" font-size="10.00">uart</text>
</a>
</g>
</g>
<!-- dir_54c3fa7b37971d51e57fc618a8a47b11 -->
<g id="node16" class="node">
<title>dir_54c3fa7b37971d51e57fc618a8a47b11</title>
<g id="a_node16"><a xlink:href="dir_54c3fa7b37971d51e57fc618a8a47b11.html" target="_top" xlink:title="webserver">
<polygon fill="#a2b4d6" stroke="#404040" points="95,-208 27,-208 27,-189 95,-189 95,-208"/>
<text text-anchor="middle" x="61" y="-196" font-family="Helvetica,sans-Serif" font-size="10.00">webserver</text>
</a>
</g>
</g>
<!-- dir_54c3fa7b37971d51e57fc618a8a47b11&#45;&gt;dir_6591a8ca0b1ec78afa747e232353e174 -->
<g id="edge21" class="edge">
<title>dir_54c3fa7b37971d51e57fc618a8a47b11&#45;&gt;dir_6591a8ca0b1ec78afa747e232353e174</title>
<g id="a_edge21"><a xlink:href="dir_000018_000003.html" target="_top">
<path fill="none" stroke="#63b8ff" d="M53.17,-188.65C43.46,-176.55 28.87,-154.05 35,-134 38.09,-123.9 44.32,-114.02 50.31,-106.15"/>
<polygon fill="#63b8ff" stroke="#63b8ff" points="53.18,-108.16 56.79,-98.2 47.76,-103.74 53.18,-108.16"/>
</a>
</g>
<g id="a_edge21&#45;headlabel"><a xlink:href="dir_000018_000003.html" target="_top" xlink:title="1">
<text text-anchor="middle" x="53.11" y="-110.24" font-family="Helvetica,sans-Serif" font-size="10.00" fill="#63b8ff">1</text>
</a>
</g>
</g>
<!-- dir_54c3fa7b37971d51e57fc618a8a47b11&#45;&gt;dir_3df67f4185c8cd9c27353f35f3bf503b -->
<g id="edge20" class="edge">
<title>dir_54c3fa7b37971d51e57fc618a8a47b11&#45;&gt;dir_3df67f4185c8cd9c27353f35f3bf503b</title>
<g id="a_edge20"><a xlink:href="dir_000018_000006.html" target="_top">
<path fill="none" stroke="#63b8ff" d="M95.1,-196.92C127.26,-194.34 173.89,-184.88 197,-153 212.27,-131.94 184.9,-122.78 177,-98 172.41,-83.6 170.72,-66.53 170.15,-53.72"/>
<polygon fill="#63b8ff" stroke="#63b8ff" points="173.64,-53.26 169.88,-43.35 166.64,-53.44 173.64,-53.26"/>
</a>
</g>
<g id="a_edge20&#45;headlabel"><a xlink:href="dir_000018_000006.html" target="_top" xlink:title="1">
<text text-anchor="middle" x="176.57" y="-54.28" font-family="Helvetica,sans-Serif" font-size="10.00" fill="#63b8ff">1</text>
</a>
</g>
</g>
<!-- dir_27a09bb4329d836898ad2e41b0fca487 -->
<g id="node17" class="node">
<title>dir_27a09bb4329d836898ad2e41b0fca487</title>
<g id="a_node17"><a xlink:href="dir_27a09bb4329d836898ad2e41b0fca487.html" target="_top" xlink:title="wifi">
<polygon fill="#a2b4d6" stroke="#404040" points="78,-153 44,-153 44,-134 78,-134 78,-153"/>
<text text-anchor="middle" x="61" y="-141" font-family="Helvetica,sans-Serif" font-size="10.00">wifi</text>
</a>
</g>
</g>
<!-- dir_54c3fa7b37971d51e57fc618a8a47b11&#45;&gt;dir_27a09bb4329d836898ad2e41b0fca487 -->
<g id="edge19" class="edge">
<title>dir_54c3fa7b37971d51e57fc618a8a47b11&#45;&gt;dir_27a09bb4329d836898ad2e41b0fca487</title>
<g id="a_edge19"><a xlink:href="dir_000018_000019.html" target="_top">
<path fill="none" stroke="#63b8ff" d="M61,-188.75C61,-181.8 61,-171.85 61,-163.13"/>
<polygon fill="#63b8ff" stroke="#63b8ff" points="64.5,-163.09 61,-153.09 57.5,-163.09 64.5,-163.09"/>
</a>
</g>
<g id="a_edge19&#45;headlabel"><a xlink:href="dir_000018_000019.html" target="_top" xlink:title="1">
<text text-anchor="middle" x="67.34" y="-164.18" font-family="Helvetica,sans-Serif" font-size="10.00" fill="#63b8ff">1</text>
</a>
</g>
</g>
<!-- dir_27a09bb4329d836898ad2e41b0fca487&#45;&gt;dir_6591a8ca0b1ec78afa747e232353e174 -->
<g id="edge22" class="edge">
<title>dir_27a09bb4329d836898ad2e41b0fca487&#45;&gt;dir_6591a8ca0b1ec78afa747e232353e174</title>
<g id="a_edge22"><a xlink:href="dir_000019_000003.html" target="_top">
<path fill="none" stroke="#63b8ff" d="M61.66,-133.75C62.18,-126.8 62.94,-116.85 63.59,-108.13"/>
<polygon fill="#63b8ff" stroke="#63b8ff" points="67.09,-108.32 64.35,-98.09 60.11,-107.8 67.09,-108.32"/>
</a>
</g>
<g id="a_edge22&#45;headlabel"><a xlink:href="dir_000019_000003.html" target="_top" xlink:title="1">
<text text-anchor="middle" x="69.65" y="-109.62" font-family="Helvetica,sans-Serif" font-size="10.00" fill="#63b8ff">1</text>
</a>
</g>
</g>
</g>
</svg>
