<?xml version="1.0" encoding="UTF-8" standalone="no"?>
<!DOCTYPE svg PUBLIC "-//W3C//DTD SVG 1.1//EN"
 "http://www.w3.org/Graphics/SVG/1.1/DTD/svg11.dtd">
<!-- Generated by graphviz version 2.43.0 (0)
 -->
<!-- Title: software/nixie_clock_esp32_project/components Pages: 1 -->
<svg width="644pt" height="251pt"
 viewBox="0.00 0.00 644.00 251.00" xmlns="http://www.w3.org/2000/svg" xmlns:xlink="http://www.w3.org/1999/xlink">
<g id="graph0" class="graph" transform="scale(1 1) rotate(0) translate(4 247)">
<title>software/nixie_clock_esp32_project/components</title>
<g id="clust1" class="cluster">
<title>clusterdir_4e80761515fcd0d8a8682b4ebda49685</title>
<g id="a_clust1"><a xlink:href="dir_4e80761515fcd0d8a8682b4ebda49685.html" target="_top" xlink:title="nixie_clock_esp32_project">
<polygon fill="#edf0f7" stroke="#7f7f7f" stroke-dasharray="5,2" points="8,-8 8,-235 628,-235 628,-8 8,-8"/>
<text text-anchor="middle" x="318" y="-223" font-family="Helvetica,sans-Serif" font-size="10.00">nixie_clock_esp32_project</text>
</a>
</g>
</g>
<g id="clust2" class="cluster">
<title>clusterdir_b181baf956279f894a730e459ce47bc5</title>
<g id="a_clust2"><a xlink:href="dir_b181baf956279f894a730e459ce47bc5.html" target="_top">
<polygon fill="#edf0f7" stroke="#404040" stroke-width="2" points="16,-63 16,-208 620,-208 620,-63 16,-63"/>
</a>
</g>
</g>
<!-- dir_9893f083cf503bf028f3909b7ee1aca3 -->
<g id="node1" class="node">
<title>dir_9893f083cf503bf028f3909b7ee1aca3</title>
<g id="a_node1"><a xlink:href="dir_9893f083cf503bf028f3909b7ee1aca3.html" target="_top" xlink:title="main">
<polygon fill="#a2b4d6" stroke="#404040" points="410.5,-35 369.5,-35 369.5,-16 410.5,-16 410.5,-35"/>
<text text-anchor="middle" x="390" y="-23" font-family="Helvetica,sans-Serif" font-size="10.00">main</text>
</a>
</g>
</g>
<!-- dir_b181baf956279f894a730e459ce47bc5 -->
<g id="node2" class="node">
<title>dir_b181baf956279f894a730e459ce47bc5</title>
<text text-anchor="middle" x="573" y="-188" font-family="Helvetica,sans-Serif" font-size="10.00">components</text>
</g>
<!-- dir_a13c4c485bb1701984d244429ad4ded1 -->
<g id="node3" class="node">
<title>dir_a13c4c485bb1701984d244429ad4ded1</title>
<g id="a_node3"><a xlink:href="dir_a13c4c485bb1701984d244429ad4ded1.html" target="_top" xlink:title="clock">
<polygon fill="#a2b4d6" stroke="#404040" points="229,-90 187,-90 187,-71 229,-71 229,-90"/>
<text text-anchor="middle" x="208" y="-78" font-family="Helvetica,sans-Serif" font-size="10.00">clock</text>
</a>
</g>
</g>
<!-- dir_6591a8ca0b1ec78afa747e232353e174 -->
<g id="node4" class="node">
<title>dir_6591a8ca0b1ec78afa747e232353e174</title>
<g id="a_node4"><a xlink:href="dir_6591a8ca0b1ec78afa747e232353e174.html" target="_top" xlink:title="config">
<polygon fill="#a2b4d6" stroke="#404040" points="343,-145 297,-145 297,-126 343,-126 343,-145"/>
<text text-anchor="middle" x="320" y="-133" font-family="Helvetica,sans-Serif" font-size="10.00">config</text>
</a>
</g>
</g>
<!-- dir_6591a8ca0b1ec78afa747e232353e174&#45;&gt;dir_9893f083cf503bf028f3909b7ee1aca3 -->
<g id="edge2" class="edge">
<title>dir_6591a8ca0b1ec78afa747e232353e174&#45;&gt;dir_9893f083cf503bf028f3909b7ee1aca3</title>
<g id="a_edge2"><a xlink:href="dir_000002_000008.html" target="_top">
<path fill="none" stroke="#63b8ff" d="M326.06,-125.69C332.18,-116.75 341.86,-102.49 350,-90 360.09,-74.52 371.28,-56.7 379.25,-43.88"/>
<polygon fill="#63b8ff" stroke="#63b8ff" points="382.35,-45.52 384.65,-35.18 376.4,-41.83 382.35,-45.52"/>
</a>
</g>
<g id="a_edge2&#45;headlabel"><a xlink:href="dir_000002_000008.html" target="_top" xlink:title="2">
<text text-anchor="middle" x="382.87" y="-47.58" font-family="Helvetica,sans-Serif" font-size="10.00" fill="#63b8ff">2</text>
</a>
</g>
</g>
<!-- dir_6591a8ca0b1ec78afa747e232353e174&#45;&gt;dir_a13c4c485bb1701984d244429ad4ded1 -->
<g id="edge3" class="edge">
<title>dir_6591a8ca0b1ec78afa747e232353e174&#45;&gt;dir_a13c4c485bb1701984d244429ad4ded1</title>
<g id="a_edge3"><a xlink:href="dir_000002_000000.html" target="_top">
<path fill="none" stroke="#63b8ff" d="M302.01,-125.98C284.07,-117.5 256.28,-104.35 235.57,-94.54"/>
<polygon fill="#63b8ff" stroke="#63b8ff" points="236.86,-91.28 226.32,-90.17 233.86,-97.61 236.86,-91.28"/>
</a>
</g>
<g id="a_edge3&#45;headlabel"><a xlink:href="dir_000002_000000.html" target="_top" xlink:title="1">
<text text-anchor="middle" x="241.32" y="-87.76" font-family="Helvetica,sans-Serif" font-size="10.00" fill="#63b8ff">1</text>
</a>
</g>
</g>
<!-- dir_3df67f4185c8cd9c27353f35f3bf503b -->
<g id="node7" class="node">
<title>dir_3df67f4185c8cd9c27353f35f3bf503b</title>
<g id="a_node7"><a xlink:href="dir_3df67f4185c8cd9c27353f35f3bf503b.html" target="_top" xlink:title="event_bus">
<polygon fill="#a2b4d6" stroke="#404040" points="168.5,-90 101.5,-90 101.5,-71 168.5,-71 168.5,-90"/>
<text text-anchor="middle" x="135" y="-78" font-family="Helvetica,sans-Serif" font-size="10.00">event_bus</text>
</a>
</g>
</g>
<!-- dir_6591a8ca0b1ec78afa747e232353e174&#45;&gt;dir_3df67f4185c8cd9c27353f35f3bf503b -->
<g id="edge1" class="edge">
<title>dir_6591a8ca0b1ec78afa747e232353e174&#45;&gt;dir_3df67f4185c8cd9c27353f35f3bf503b</title>
<g id="a_edge1"><a xlink:href="dir_000002_000005.html" target="_top">
<path fill="none" stroke="#63b8ff" d="M296.94,-127.89C266.4,-119.14 212.05,-103.57 174.8,-92.9"/>
<polygon fill="#63b8ff" stroke="#63b8ff" points="175.36,-89.42 164.78,-90.03 173.43,-96.15 175.36,-89.42"/>
</a>
</g>
<g id="a_edge1&#45;headlabel"><a xlink:href="dir_000002_000005.html" target="_top" xlink:title="1">
<text text-anchor="middle" x="179.6" y="-85.18" font-family="Helvetica,sans-Serif" font-size="10.00" fill="#63b8ff">1</text>
</a>
</g>
</g>
<!-- dir_d593a792f6d68ad3cd00089cda4c9fbf -->
<g id="node11" class="node">
<title>dir_d593a792f6d68ad3cd00089cda4c9fbf</title>
<g id="a_node11"><a xlink:href="dir_d593a792f6d68ad3cd00089cda4c9fbf.html" target="_top" xlink:title="nvs">
<polygon fill="#a2b4d6" stroke="#404040" points="281,-90 247,-90 247,-71 281,-71 281,-90"/>
<text text-anchor="middle" x="264" y="-78" font-family="Helvetica,sans-Serif" font-size="10.00">nvs</text>
</a>
</g>
</g>
<!-- dir_6591a8ca0b1ec78afa747e232353e174&#45;&gt;dir_d593a792f6d68ad3cd00089cda4c9fbf -->
<g id="edge5" class="edge">
<title>dir_6591a8ca0b1ec78afa747e232353e174&#45;&gt;dir_d593a792f6d68ad3cd00089cda4c9fbf</title>
<g id="a_edge5"><a xlink:href="dir_000002_000011.html" target="_top">
<path fill="none" stroke="#63b8ff" d="M311,-125.98C302.81,-118.23 290.49,-106.58 280.53,-97.14"/>
<polygon fill="#63b8ff" stroke="#63b8ff" points="282.83,-94.5 273.16,-90.17 278.02,-99.59 282.83,-94.5"/>
</a>
</g>
<g id="a_edge5&#45;headlabel"><a xlink:href="dir_000002_000011.html" target="_top" xlink:title="1">
<text text-anchor="middle" x="287.39" y="-92.41" font-family="Helvetica,sans-Serif" font-size="10.00" fill="#63b8ff">1</text>
</a>
</g>
</g>
<!-- dir_af00538107c5bb6312b4379f7c6a7915 -->
<g id="node12" class="node">
<title>dir_af00538107c5bb6312b4379f7c6a7915</title>
<g id="a_node12"><a xlink:href="dir_af00538107c5bb6312b4379f7c6a7915.html" target="_top" xlink:title="pwm">
<polygon fill="#a2b4d6" stroke="#404040" points="340.5,-90 299.5,-90 299.5,-71 340.5,-71 340.5,-90"/>
<text text-anchor="middle" x="320" y="-78" font-family="Helvetica,sans-Serif" font-size="10.00">pwm</text>
</a>
</g>
</g>
<!-- dir_6591a8ca0b1ec78afa747e232353e174&#45;&gt;dir_af00538107c5bb6312b4379f7c6a7915 -->
<g id="edge4" class="edge">
<title>dir_6591a8ca0b1ec78afa747e232353e174&#45;&gt;dir_af00538107c5bb6312b4379f7c6a7915</title>
<g id="a_edge4"><a xlink:href="dir_000002_000012.html" target="_top">
<path fill="none" stroke="#63b8ff" d="M314.83,-125.75C313.34,-118.8 312.9,-108.85 313.52,-100.13"/>
<polygon fill="#63b8ff" stroke="#63b8ff" points="317.01,-100.47 314.87,-90.09 310.07,-99.53 317.01,-100.47"/>
</a>
</g>
<g id="a_edge4&#45;headlabel"><a xlink:href="dir_000002_000012.html" target="_top" xlink:title="1">
<text text-anchor="middle" x="319.34" y="-101.91" font-family="Helvetica,sans-Serif" font-size="10.00" fill="#63b8ff">1</text>
</a>
</g>
</g>
<!-- dir_bfdcce58a23cc395bda28f665cadf99d -->
<g id="node5" class="node">
<title>dir_bfdcce58a23cc395bda28f665cadf99d</title>
<g id="a_node5"><a xlink:href="dir_bfdcce58a23cc395bda28f665cadf99d.html" target="_top" xlink:title="dispatcher">
<polygon fill="#a2b4d6" stroke="#404040" points="189,-145 121,-145 121,-126 189,-126 189,-145"/>
<text text-anchor="middle" x="155" y="-133" font-family="Helvetica,sans-Serif" font-size="10.00">dispatcher</text>
</a>
</g>
</g>
<!-- dir_bfdcce58a23cc395bda28f665cadf99d&#45;&gt;dir_3df67f4185c8cd9c27353f35f3bf503b -->
<g id="edge6" class="edge">
<title>dir_bfdcce58a23cc395bda28f665cadf99d&#45;&gt;dir_3df67f4185c8cd9c27353f35f3bf503b</title>
<g id="a_edge6"><a xlink:href="dir_000003_000005.html" target="_top">
<path fill="none" stroke="#63b8ff" d="M151.7,-125.75C149.02,-118.65 145.15,-108.4 141.81,-99.56"/>
<polygon fill="#63b8ff" stroke="#63b8ff" points="145.05,-98.21 138.24,-90.09 138.5,-100.68 145.05,-98.21"/>
</a>
</g>
<g id="a_edge6&#45;headlabel"><a xlink:href="dir_000003_000005.html" target="_top" xlink:title="2">
<text text-anchor="middle" x="148.97" y="-98.07" font-family="Helvetica,sans-Serif" font-size="10.00" fill="#63b8ff">2</text>
</a>
</g>
</g>
<!-- dir_25afab11bb9cc6587024a85a8f095e2f -->
<g id="node6" class="node">
<title>dir_25afab11bb9cc6587024a85a8f095e2f</title>
<g id="a_node6"><a xlink:href="dir_25afab11bb9cc6587024a85a8f095e2f.html" target="_top" xlink:title="display">
<polygon fill="#a2b4d6" stroke="#404040" points="76,-200 24,-200 24,-181 76,-181 76,-200"/>
<text text-anchor="middle" x="50" y="-188" font-family="Helvetica,sans-Serif" font-size="10.00">display</text>
</a>
</g>
</g>
<!-- dir_fb7d8fb2e7a81481fd306fa505fa505b -->
<g id="node9" class="node">
<title>dir_fb7d8fb2e7a81481fd306fa505fa505b</title>
<g id="a_node9"><a xlink:href="dir_fb7d8fb2e7a81481fd306fa505fa505b.html" target="_top" xlink:title="hv5622">
<polygon fill="#a2b4d6" stroke="#404040" points="77.5,-145 24.5,-145 24.5,-126 77.5,-126 77.5,-145"/>
<text text-anchor="middle" x="51" y="-133" font-family="Helvetica,sans-Serif" font-size="10.00">hv5622</text>
</a>
</g>
</g>
<!-- dir_25afab11bb9cc6587024a85a8f095e2f&#45;&gt;dir_fb7d8fb2e7a81481fd306fa505fa505b -->
<g id="edge7" class="edge">
<title>dir_25afab11bb9cc6587024a85a8f095e2f&#45;&gt;dir_fb7d8fb2e7a81481fd306fa505fa505b</title>
<g id="a_edge7"><a xlink:href="dir_000004_000007.html" target="_top">
<path fill="none" stroke="#63b8ff" d="M50.17,-180.75C50.3,-173.8 50.48,-163.85 50.65,-155.13"/>
<polygon fill="#63b8ff" stroke="#63b8ff" points="54.15,-155.15 50.84,-145.09 47.15,-155.02 54.15,-155.15"/>
</a>
</g>
<g id="a_edge7&#45;headlabel"><a xlink:href="dir_000004_000007.html" target="_top" xlink:title="1">
<text text-anchor="middle" x="56.92" y="-156.3" font-family="Helvetica,sans-Serif" font-size="10.00" fill="#63b8ff">1</text>
</a>
</g>
</g>
<!-- dir_c8df9a83da56af1891de301214a2e601 -->
<g id="node8" class="node">
<title>dir_c8df9a83da56af1891de301214a2e601</title>
<g id="a_node8"><a xlink:href="dir_c8df9a83da56af1891de301214a2e601.html" target="_top" xlink:title="gpio_driver">
<polygon fill="#a2b4d6" stroke="#404040" points="215.5,-200 144.5,-200 144.5,-181 215.5,-181 215.5,-200"/>
<text text-anchor="middle" x="180" y="-188" font-family="Helvetica,sans-Serif" font-size="10.00">gpio_driver</text>
</a>
</g>
</g>
<!-- dir_c8df9a83da56af1891de301214a2e601&#45;&gt;dir_9893f083cf503bf028f3909b7ee1aca3 -->
<g id="edge8" class="edge">
<title>dir_c8df9a83da56af1891de301214a2e601&#45;&gt;dir_9893f083cf503bf028f3909b7ee1aca3</title>
<g id="a_edge8"><a xlink:href="dir_000006_000008.html" target="_top">
<path fill="none" stroke="#63b8ff" d="M215.59,-182.35C273.56,-170.62 382.25,-148.27 385,-145 408.56,-117 401.82,-70.78 395.5,-45.12"/>
<polygon fill="#63b8ff" stroke="#63b8ff" points="398.8,-43.94 392.81,-35.2 392.05,-45.77 398.8,-43.94"/>
</a>
</g>
<g id="a_edge8&#45;headlabel"><a xlink:href="dir_000006_000008.html" target="_top" xlink:title="1">
<text text-anchor="middle" x="402.48" y="-44.17" font-family="Helvetica,sans-Serif" font-size="10.00" fill="#63b8ff">1</text>
</a>
</g>
</g>
<!-- dir_8938040af9d266be553d1135477b804d -->
<g id="node10" class="node">
<title>dir_8938040af9d266be553d1135477b804d</title>
<g id="a_node10"><a xlink:href="dir_8938040af9d266be553d1135477b804d.html" target="_top" xlink:title="ntp">
<polygon fill="#a2b4d6" stroke="#404040" points="126,-200 94,-200 94,-181 126,-181 126,-200"/>
<text text-anchor="middle" x="110" y="-188" font-family="Helvetica,sans-Serif" font-size="10.00">ntp</text>
</a>
</g>
</g>
<!-- dir_8938040af9d266be553d1135477b804d&#45;&gt;dir_9893f083cf503bf028f3909b7ee1aca3 -->
<g id="edge11" class="edge">
<title>dir_8938040af9d266be553d1135477b804d&#45;&gt;dir_9893f083cf503bf028f3909b7ee1aca3</title>
<g id="a_edge11"><a xlink:href="dir_000010_000008.html" target="_top">
<path fill="none" stroke="#63b8ff" d="M126.02,-183.62C128.98,-182.66 132.07,-181.74 135,-181 229.82,-157.19 278.02,-208.91 352,-145 381.2,-119.78 388.15,-72.08 389.69,-45.54"/>
<polygon fill="#63b8ff" stroke="#63b8ff" points="393.19,-45.41 390.07,-35.29 386.2,-45.15 393.19,-45.41"/>
</a>
</g>
<g id="a_edge11&#45;headlabel"><a xlink:href="dir_000010_000008.html" target="_top" xlink:title="2">
<text text-anchor="middle" x="395.9" y="-46.61" font-family="Helvetica,sans-Serif" font-size="10.00" fill="#63b8ff">2</text>
</a>
</g>
</g>
<!-- dir_8938040af9d266be553d1135477b804d&#45;&gt;dir_a13c4c485bb1701984d244429ad4ded1 -->
<g id="edge12" class="edge">
<title>dir_8938040af9d266be553d1135477b804d&#45;&gt;dir_a13c4c485bb1701984d244429ad4ded1</title>
<g id="a_edge12"><a xlink:href="dir_000010_000000.html" target="_top">
<path fill="none" stroke="#63b8ff" d="M126.26,-183.36C149.11,-174.4 188.93,-157.46 198,-145 207.34,-132.17 209.39,-114 209.37,-100.39"/>
<polygon fill="#63b8ff" stroke="#63b8ff" points="212.86,-100.09 208.97,-90.23 205.86,-100.36 212.86,-100.09"/>
</a>
</g>
<g id="a_edge12&#45;headlabel"><a xlink:href="dir_000010_000000.html" target="_top" xlink:title="1">
<text text-anchor="middle" x="215.83" y="-101.07" font-family="Helvetica,sans-Serif" font-size="10.00" fill="#63b8ff">1</text>
</a>
</g>
</g>
<!-- dir_8938040af9d266be553d1135477b804d&#45;&gt;dir_6591a8ca0b1ec78afa747e232353e174 -->
<g id="edge10" class="edge">
<title>dir_8938040af9d266be553d1135477b804d&#45;&gt;dir_6591a8ca0b1ec78afa747e232353e174</title>
<g id="a_edge10"><a xlink:href="dir_000010_000002.html" target="_top">
<path fill="none" stroke="#63b8ff" d="M126.07,-183.79C129.02,-182.81 132.09,-181.84 135,-181 187.64,-165.75 249.75,-151.58 286.95,-143.49"/>
<polygon fill="#63b8ff" stroke="#63b8ff" points="287.71,-146.91 296.75,-141.38 286.23,-140.06 287.71,-146.91"/>
</a>
</g>
<g id="a_edge10&#45;headlabel"><a xlink:href="dir_000010_000002.html" target="_top" xlink:title="1">
<text text-anchor="middle" x="284.8" y="-147.94" font-family="Helvetica,sans-Serif" font-size="10.00" fill="#63b8ff">1</text>
</a>
</g>
</g>
<!-- dir_8938040af9d266be553d1135477b804d&#45;&gt;dir_3df67f4185c8cd9c27353f35f3bf503b -->
<g id="edge9" class="edge">
<title>dir_8938040af9d266be553d1135477b804d&#45;&gt;dir_3df67f4185c8cd9c27353f35f3bf503b</title>
<g id="a_edge9"><a xlink:href="dir_000010_000005.html" target="_top">
<path fill="none" stroke="#63b8ff" d="M109.07,-180.7C108.02,-168.28 107.06,-145 112,-126 114.46,-116.55 119.19,-106.82 123.72,-98.88"/>
<polygon fill="#63b8ff" stroke="#63b8ff" points="126.78,-100.59 128.99,-90.22 120.8,-96.95 126.78,-100.59"/>
</a>
</g>
<g id="a_edge9&#45;headlabel"><a xlink:href="dir_000010_000005.html" target="_top" xlink:title="1">
<text text-anchor="middle" x="127.34" y="-102.63" font-family="Helvetica,sans-Serif" font-size="10.00" fill="#63b8ff">1</text>
</a>
</g>
</g>
<!-- dir_d593a792f6d68ad3cd00089cda4c9fbf&#45;&gt;dir_9893f083cf503bf028f3909b7ee1aca3 -->
<g id="edge13" class="edge">
<title>dir_d593a792f6d68ad3cd00089cda4c9fbf&#45;&gt;dir_9893f083cf503bf028f3909b7ee1aca3</title>
<g id="a_edge13"><a xlink:href="dir_000011_000008.html" target="_top">
<path fill="none" stroke="#63b8ff" d="M276.38,-70.88C280.59,-68.16 285.4,-65.27 290,-63 312.55,-51.89 339.37,-42.28 359.55,-35.72"/>
<polygon fill="#63b8ff" stroke="#63b8ff" points="360.7,-39.03 369.16,-32.66 358.57,-32.36 360.7,-39.03"/>
</a>
</g>
<g id="a_edge13&#45;headlabel"><a xlink:href="dir_000011_000008.html" target="_top" xlink:title="1">
<text text-anchor="middle" x="358.13" y="-40.32" font-family="Helvetica,sans-Serif" font-size="10.00" fill="#63b8ff">1</text>
</a>
</g>
</g>
<!-- dir_af00538107c5bb6312b4379f7c6a7915&#45;&gt;dir_9893f083cf503bf028f3909b7ee1aca3 -->
<g id="edge15" class="edge">
<title>dir_af00538107c5bb6312b4379f7c6a7915&#45;&gt;dir_9893f083cf503bf028f3909b7ee1aca3</title>
<g id="a_edge15"><a xlink:href="dir_000012_000008.html" target="_top">
<path fill="none" stroke="#63b8ff" d="M331.25,-70.98C341.8,-63 357.8,-50.88 370.44,-41.31"/>
<polygon fill="#63b8ff" stroke="#63b8ff" points="372.69,-44 378.55,-35.17 368.46,-38.42 372.69,-44"/>
</a>
</g>
<g id="a_edge15&#45;headlabel"><a xlink:href="dir_000012_000008.html" target="_top" xlink:title="1">
<text text-anchor="middle" x="371.54" y="-45.93" font-family="Helvetica,sans-Serif" font-size="10.00" fill="#63b8ff">1</text>
</a>
</g>
</g>
<!-- dir_af00538107c5bb6312b4379f7c6a7915&#45;&gt;dir_6591a8ca0b1ec78afa747e232353e174 -->
<g id="edge14" class="edge">
<title>dir_af00538107c5bb6312b4379f7c6a7915&#45;&gt;dir_6591a8ca0b1ec78afa747e232353e174</title>
<g id="a_edge14"><a xlink:href="dir_000012_000002.html" target="_top">
<path fill="none" stroke="#63b8ff" d="M325.13,-90.09C326.64,-96.99 327.09,-106.93 326.49,-115.66"/>
<polygon fill="#63b8ff" stroke="#63b8ff" points="323,-115.38 325.17,-125.75 329.94,-116.29 323,-115.38"/>
</a>
</g>
<g id="a_edge14&#45;headlabel"><a xlink:href="dir_000012_000002.html" target="_top" xlink:title="1">
<text text-anchor="middle" x="320.65" y="-108.94" font-family="Helvetica,sans-Serif" font-size="10.00" fill="#63b8ff">1</text>
</a>
</g>
</g>
<!-- dir_ee50860190fe62f2e35dcf8898f9d9d7 -->
<g id="node13" class="node">
<title>dir_ee50860190fe62f2e35dcf8898f9d9d7</title>
<g id="a_node13"><a xlink:href="dir_ee50860190fe62f2e35dcf8898f9d9d7.html" target="_top" xlink:title="rotary_encoder">
<polygon fill="#a2b4d6" stroke="#404040" points="324,-200 234,-200 234,-181 324,-181 324,-200"/>
<text text-anchor="middle" x="279" y="-188" font-family="Helvetica,sans-Serif" font-size="10.00">rotary_encoder</text>
</a>
</g>
</g>
<!-- dir_e358256436063faffb66e4cd4d1bf7a0 -->
<g id="node14" class="node">
<title>dir_e358256436063faffb66e4cd4d1bf7a0</title>
<g id="a_node14"><a xlink:href="dir_e358256436063faffb66e4cd4d1bf7a0.html" target="_top" xlink:title="uart">
<polygon fill="#a2b4d6" stroke="#404040" points="516,-200 480,-200 480,-181 516,-181 516,-200"/>
<text text-anchor="middle" x="498" y="-188" font-family="Helvetica,sans-Serif" font-size="10.00">uart</text>
</a>
</g>
</g>
<!-- dir_e358256436063faffb66e4cd4d1bf7a0&#45;&gt;dir_9893f083cf503bf028f3909b7ee1aca3 -->
<g id="edge16" class="edge">
<title>dir_e358256436063faffb66e4cd4d1bf7a0&#45;&gt;dir_9893f083cf503bf028f3909b7ee1aca3</title>
<g id="a_edge16"><a xlink:href="dir_000015_000008.html" target="_top">
<path fill="none" stroke="#63b8ff" d="M493.39,-180.92C482.07,-160.06 451.56,-105.31 421,-63 416.05,-56.14 410.13,-48.97 404.81,-42.82"/>
<polygon fill="#63b8ff" stroke="#63b8ff" points="407.3,-40.35 398.05,-35.18 402.06,-44.99 407.3,-40.35"/>
</a>
</g>
<g id="a_edge16&#45;headlabel"><a xlink:href="dir_000015_000008.html" target="_top" xlink:title="1">
<text text-anchor="middle" x="411.81" y="-38.66" font-family="Helvetica,sans-Serif" font-size="10.00" fill="#63b8ff">1</text>
</a>
</g>
</g>
<!-- dir_54c3fa7b37971d51e57fc618a8a47b11 -->
<g id="node15" class="node">
<title>dir_54c3fa7b37971d51e57fc618a8a47b11</title>
<g id="a_node15"><a xlink:href="dir_54c3fa7b37971d51e57fc618a8a47b11.html" target="_top" xlink:title="webserver">
<polygon fill="#a2b4d6" stroke="#404040" points="410,-200 342,-200 342,-181 410,-181 410,-200"/>
<text text-anchor="middle" x="376" y="-188" font-family="Helvetica,sans-Serif" font-size="10.00">webserver</text>
</a>
</g>
</g>
<!-- dir_54c3fa7b37971d51e57fc618a8a47b11&#45;&gt;dir_9893f083cf503bf028f3909b7ee1aca3 -->
<g id="edge18" class="edge">
<title>dir_54c3fa7b37971d51e57fc618a8a47b11&#45;&gt;dir_9893f083cf503bf028f3909b7ee1aca3</title>
<g id="a_edge18"><a xlink:href="dir_000016_000008.html" target="_top">
<path fill="none" stroke="#63b8ff" d="M383.94,-180.75C391.03,-172.3 400.9,-158.79 405,-145 415.38,-110.06 412.06,-98.75 405,-63 403.77,-56.78 401.47,-50.29 399.04,-44.54"/>
<polygon fill="#63b8ff" stroke="#63b8ff" points="402.09,-42.8 394.71,-35.2 395.74,-45.74 402.09,-42.8"/>
</a>
</g>
<g id="a_edge18&#45;headlabel"><a xlink:href="dir_000016_000008.html" target="_top" xlink:title="1">
<text text-anchor="middle" x="406.18" y="-42.37" font-family="Helvetica,sans-Serif" font-size="10.00" fill="#63b8ff">1</text>
</a>
</g>
</g>
<!-- dir_54c3fa7b37971d51e57fc618a8a47b11&#45;&gt;dir_6591a8ca0b1ec78afa747e232353e174 -->
<g id="edge17" class="edge">
<title>dir_54c3fa7b37971d51e57fc618a8a47b11&#45;&gt;dir_6591a8ca0b1ec78afa747e232353e174</title>
<g id="a_edge17"><a xlink:href="dir_000016_000002.html" target="_top">
<path fill="none" stroke="#63b8ff" d="M367,-180.98C358.81,-173.23 346.49,-161.58 336.53,-152.14"/>
<polygon fill="#63b8ff" stroke="#63b8ff" points="338.83,-149.5 329.16,-145.17 334.02,-154.59 338.83,-149.5"/>
</a>
</g>
<g id="a_edge17&#45;headlabel"><a xlink:href="dir_000016_000002.html" target="_top" xlink:title="1">
<text text-anchor="middle" x="343.39" y="-147.41" font-family="Helvetica,sans-Serif" font-size="10.00" fill="#63b8ff">1</text>
</a>
</g>
</g>
<!-- dir_27a09bb4329d836898ad2e41b0fca487 -->
<g id="node16" class="node">
<title>dir_27a09bb4329d836898ad2e41b0fca487</title>
<g id="a_node16"><a xlink:href="dir_27a09bb4329d836898ad2e41b0fca487.html" target="_top" xlink:title="wifi">
<polygon fill="#a2b4d6" stroke="#404040" points="462,-200 428,-200 428,-181 462,-181 462,-200"/>
<text text-anchor="middle" x="445" y="-188" font-family="Helvetica,sans-Serif" font-size="10.00">wifi</text>
</a>
</g>
</g>
<!-- dir_27a09bb4329d836898ad2e41b0fca487&#45;&gt;dir_9893f083cf503bf028f3909b7ee1aca3 -->
<g id="edge20" class="edge">
<title>dir_27a09bb4329d836898ad2e41b0fca487&#45;&gt;dir_9893f083cf503bf028f3909b7ee1aca3</title>
<g id="a_edge20"><a xlink:href="dir_000017_000008.html" target="_top">
<path fill="none" stroke="#63b8ff" d="M443.64,-180.94C440.16,-160.12 429.89,-105.46 412,-63 409.21,-56.38 405.37,-49.53 401.68,-43.57"/>
<polygon fill="#63b8ff" stroke="#63b8ff" points="404.56,-41.59 396.17,-35.12 398.7,-45.41 404.56,-41.59"/>
</a>
</g>
<g id="a_edge20&#45;headlabel"><a xlink:href="dir_000017_000008.html" target="_top" xlink:title="1">
<text text-anchor="middle" x="408.9" y="-40.55" font-family="Helvetica,sans-Serif" font-size="10.00" fill="#63b8ff">1</text>
</a>
</g>
</g>
<!-- dir_27a09bb4329d836898ad2e41b0fca487&#45;&gt;dir_6591a8ca0b1ec78afa747e232353e174 -->
<g id="edge19" class="edge">
<title>dir_27a09bb4329d836898ad2e41b0fca487&#45;&gt;dir_6591a8ca0b1ec78afa747e232353e174</title>
<g id="a_edge19"><a xlink:href="dir_000017_000002.html" target="_top">
<path fill="none" stroke="#63b8ff" d="M427.88,-182.24C407.78,-173.72 374.1,-159.44 349.71,-149.1"/>
<polygon fill="#63b8ff" stroke="#63b8ff" points="350.79,-145.75 340.22,-145.07 348.06,-152.2 350.79,-145.75"/>
</a>
</g>
<g id="a_edge19&#45;headlabel"><a xlink:href="dir_000017_000002.html" target="_top" xlink:title="1">
<text text-anchor="middle" x="355.21" y="-142.04" font-family="Helvetica,sans-Serif" font-size="10.00" fill="#63b8ff">1</text>
</a>
</g>
</g>
</g>
</svg>
