<?xml version="1.0" encoding="UTF-8" standalone="no"?>
<!DOCTYPE svg PUBLIC "-//W3C//DTD SVG 1.1//EN"
 "http://www.w3.org/Graphics/SVG/1.1/DTD/svg11.dtd">
<!-- Generated by graphviz version 2.43.0 (0)
 -->
<!-- Title: software/nixie_clock_esp32_project/main/esp_stub.h Pages: 1 -->
<svg width="2026pt" height="137pt"
 viewBox="0.00 0.00 2025.50 137.00" xmlns="http://www.w3.org/2000/svg" xmlns:xlink="http://www.w3.org/1999/xlink">
<g id="graph0" class="graph" transform="scale(1 1) rotate(0) translate(4 133)">
<title>software/nixie_clock_esp32_project/main/esp_stub.h</title>
<!-- Node1 -->
<g id="Node000001" class="node">
<title>Node1</title>
<g id="a_Node000001"><a xlink:title=" ">
<polygon fill="#999999" stroke="#666666" points="1085.5,-129 947.5,-129 947.5,-88 1085.5,-88 1085.5,-129"/>
<text text-anchor="start" x="955.5" y="-117" font-family="Helvetica,sans-Serif" font-size="10.00">software/nixie_clock</text>
<text text-anchor="start" x="955.5" y="-106" font-family="Helvetica,sans-Serif" font-size="10.00">_esp32_project/main/esp</text>
<text text-anchor="middle" x="1016.5" y="-95" font-family="Helvetica,sans-Serif" font-size="10.00">_stub.h</text>
</a>
</g>
</g>
<!-- Node2 -->
<g id="Node000002" class="node">
<title>Node2</title>
<g id="a_Node000002"><a xlink:href="config_8c.html" target="_top" xlink:title=" ">
<polygon fill="white" stroke="#666666" points="153,-46.5 0,-46.5 0,-5.5 153,-5.5 153,-46.5"/>
<text text-anchor="start" x="8" y="-34.5" font-family="Helvetica,sans-Serif" font-size="10.00">software/nixie_clock</text>
<text text-anchor="start" x="8" y="-23.5" font-family="Helvetica,sans-Serif" font-size="10.00">_esp32_project/components</text>
<text text-anchor="middle" x="76.5" y="-12.5" font-family="Helvetica,sans-Serif" font-size="10.00">/config/config.c</text>
</a>
</g>
</g>
<!-- Node1&#45;&gt;Node2 -->
<g id="edge1_Node000001_Node000002" class="edge">
<title>Node1&#45;&gt;Node2</title>
<g id="a_edge1_Node000001_Node000002"><a xlink:title=" ">
<path fill="none" stroke="#63b8ff" d="M937.29,-108.17C785.52,-108.19 443.74,-102.03 161.5,-52 153.47,-50.58 145.13,-48.67 136.94,-46.54"/>
<polygon fill="#63b8ff" stroke="#63b8ff" points="937.45,-111.67 947.45,-108.16 937.44,-104.67 937.45,-111.67"/>
</a>
</g>
</g>
<!-- Node3 -->
<g id="Node000003" class="node">
<title>Node3</title>
<g id="a_Node000003"><a xlink:href="gpio__driver_8c.html" target="_top" xlink:title=" ">
<polygon fill="white" stroke="#666666" points="324,-46.5 171,-46.5 171,-5.5 324,-5.5 324,-46.5"/>
<text text-anchor="start" x="179" y="-34.5" font-family="Helvetica,sans-Serif" font-size="10.00">software/nixie_clock</text>
<text text-anchor="start" x="179" y="-23.5" font-family="Helvetica,sans-Serif" font-size="10.00">_esp32_project/components</text>
<text text-anchor="middle" x="247.5" y="-12.5" font-family="Helvetica,sans-Serif" font-size="10.00">/gpio_driver/gpio_driver.c</text>
</a>
</g>
</g>
<!-- Node1&#45;&gt;Node3 -->
<g id="edge2_Node000001_Node000003" class="edge">
<title>Node1&#45;&gt;Node3</title>
<g id="a_edge2_Node000001_Node000003"><a xlink:title=" ">
<path fill="none" stroke="#63b8ff" d="M937.33,-106.33C809.2,-103.26 548.91,-92.17 332.5,-52 324.64,-50.54 316.46,-48.64 308.42,-46.54"/>
<polygon fill="#63b8ff" stroke="#63b8ff" points="937.36,-109.83 947.44,-106.56 937.52,-102.83 937.36,-109.83"/>
</a>
</g>
</g>
<!-- Node4 -->
<g id="Node000004" class="node">
<title>Node4</title>
<g id="a_Node000004"><a xlink:href="ntp_8c.html" target="_top" xlink:title=" ">
<polygon fill="white" stroke="#666666" points="495,-46.5 342,-46.5 342,-5.5 495,-5.5 495,-46.5"/>
<text text-anchor="start" x="350" y="-34.5" font-family="Helvetica,sans-Serif" font-size="10.00">software/nixie_clock</text>
<text text-anchor="start" x="350" y="-23.5" font-family="Helvetica,sans-Serif" font-size="10.00">_esp32_project/components</text>
<text text-anchor="middle" x="418.5" y="-12.5" font-family="Helvetica,sans-Serif" font-size="10.00">/ntp/ntp.c</text>
</a>
</g>
</g>
<!-- Node1&#45;&gt;Node4 -->
<g id="edge3_Node000001_Node000004" class="edge">
<title>Node1&#45;&gt;Node4</title>
<g id="a_edge3_Node000001_Node000004"><a xlink:title=" ">
<path fill="none" stroke="#63b8ff" d="M937.29,-103.32C835.94,-96.97 655.32,-82.29 503.5,-52 495.96,-50.5 488.12,-48.62 480.39,-46.59"/>
<polygon fill="#63b8ff" stroke="#63b8ff" points="937.26,-106.83 947.45,-103.95 937.69,-99.84 937.26,-106.83"/>
</a>
</g>
</g>
<!-- Node5 -->
<g id="Node000005" class="node">
<title>Node5</title>
<g id="a_Node000005"><a xlink:href="nvs_8c.html" target="_top" xlink:title=" ">
<polygon fill="white" stroke="#666666" points="666,-46.5 513,-46.5 513,-5.5 666,-5.5 666,-46.5"/>
<text text-anchor="start" x="521" y="-34.5" font-family="Helvetica,sans-Serif" font-size="10.00">software/nixie_clock</text>
<text text-anchor="start" x="521" y="-23.5" font-family="Helvetica,sans-Serif" font-size="10.00">_esp32_project/components</text>
<text text-anchor="middle" x="589.5" y="-12.5" font-family="Helvetica,sans-Serif" font-size="10.00">/nvs/nvs.c</text>
</a>
</g>
</g>
<!-- Node1&#45;&gt;Node5 -->
<g id="edge4_Node000001_Node000005" class="edge">
<title>Node1&#45;&gt;Node5</title>
<g id="a_edge4_Node000001_Node000005"><a xlink:title=" ">
<path fill="none" stroke="#63b8ff" d="M937.21,-97.5C867.54,-88.03 763.67,-72.27 674.5,-52 667.45,-50.4 660.12,-48.54 652.86,-46.58"/>
<polygon fill="#63b8ff" stroke="#63b8ff" points="936.85,-100.98 947.23,-98.85 937.79,-94.05 936.85,-100.98"/>
</a>
</g>
</g>
<!-- Node6 -->
<g id="Node000006" class="node">
<title>Node6</title>
<g id="a_Node000006"><a xlink:href="pwm_8c.html" target="_top" xlink:title=" ">
<polygon fill="white" stroke="#666666" points="837,-46.5 684,-46.5 684,-5.5 837,-5.5 837,-46.5"/>
<text text-anchor="start" x="692" y="-34.5" font-family="Helvetica,sans-Serif" font-size="10.00">software/nixie_clock</text>
<text text-anchor="start" x="692" y="-23.5" font-family="Helvetica,sans-Serif" font-size="10.00">_esp32_project/components</text>
<text text-anchor="middle" x="760.5" y="-12.5" font-family="Helvetica,sans-Serif" font-size="10.00">/pwm/pwm.c</text>
</a>
</g>
</g>
<!-- Node1&#45;&gt;Node6 -->
<g id="edge5_Node000001_Node000006" class="edge">
<title>Node1&#45;&gt;Node6</title>
<g id="a_edge5_Node000001_Node000006"><a xlink:title=" ">
<path fill="none" stroke="#63b8ff" d="M944.63,-84.9C906.24,-72.83 859.44,-58.11 822.63,-46.54"/>
<polygon fill="#63b8ff" stroke="#63b8ff" points="943.61,-88.25 954.2,-87.91 945.71,-81.57 943.61,-88.25"/>
</a>
</g>
</g>
<!-- Node7 -->
<g id="Node000007" class="node">
<title>Node7</title>
<g id="a_Node000007"><a xlink:href="service__manager_8c.html" target="_top" xlink:title=" ">
<polygon fill="white" stroke="#666666" points="1008,-52 855,-52 855,0 1008,0 1008,-52"/>
<text text-anchor="start" x="863" y="-40" font-family="Helvetica,sans-Serif" font-size="10.00">software/nixie_clock</text>
<text text-anchor="start" x="863" y="-29" font-family="Helvetica,sans-Serif" font-size="10.00">_esp32_project/components</text>
<text text-anchor="start" x="863" y="-18" font-family="Helvetica,sans-Serif" font-size="10.00">/service_manager/service</text>
<text text-anchor="middle" x="931.5" y="-7" font-family="Helvetica,sans-Serif" font-size="10.00">_manager.c</text>
</a>
</g>
</g>
<!-- Node1&#45;&gt;Node7 -->
<g id="edge6_Node000001_Node000007" class="edge">
<title>Node1&#45;&gt;Node7</title>
<g id="a_edge6_Node000001_Node000007"><a xlink:title=" ">
<path fill="none" stroke="#63b8ff" d="M988.01,-80.52C978.34,-71.36 967.58,-61.17 958.06,-52.16"/>
<polygon fill="#63b8ff" stroke="#63b8ff" points="985.82,-83.27 995.49,-87.6 990.63,-78.18 985.82,-83.27"/>
</a>
</g>
</g>
<!-- Node8 -->
<g id="Node000008" class="node">
<title>Node8</title>
<g id="a_Node000008"><a xlink:href="uart_8c.html" target="_top" xlink:title=" ">
<polygon fill="white" stroke="#666666" points="1179,-46.5 1026,-46.5 1026,-5.5 1179,-5.5 1179,-46.5"/>
<text text-anchor="start" x="1034" y="-34.5" font-family="Helvetica,sans-Serif" font-size="10.00">software/nixie_clock</text>
<text text-anchor="start" x="1034" y="-23.5" font-family="Helvetica,sans-Serif" font-size="10.00">_esp32_project/components</text>
<text text-anchor="middle" x="1102.5" y="-12.5" font-family="Helvetica,sans-Serif" font-size="10.00">/uart/uart.c</text>
</a>
</g>
</g>
<!-- Node1&#45;&gt;Node8 -->
<g id="edge7_Node000001_Node000008" class="edge">
<title>Node1&#45;&gt;Node8</title>
<g id="a_edge7_Node000001_Node000008"><a xlink:title=" ">
<path fill="none" stroke="#63b8ff" d="M1045.27,-80.57C1057.12,-69.48 1070.59,-56.87 1081.49,-46.67"/>
<polygon fill="#63b8ff" stroke="#63b8ff" points="1042.67,-78.21 1037.76,-87.6 1047.45,-83.32 1042.67,-78.21"/>
</a>
</g>
</g>
<!-- Node9 -->
<g id="Node000009" class="node">
<title>Node9</title>
<g id="a_Node000009"><a xlink:href="webserver_8c.html" target="_top" xlink:title=" ">
<polygon fill="white" stroke="#666666" points="1350,-46.5 1197,-46.5 1197,-5.5 1350,-5.5 1350,-46.5"/>
<text text-anchor="start" x="1205" y="-34.5" font-family="Helvetica,sans-Serif" font-size="10.00">software/nixie_clock</text>
<text text-anchor="start" x="1205" y="-23.5" font-family="Helvetica,sans-Serif" font-size="10.00">_esp32_project/components</text>
<text text-anchor="middle" x="1273.5" y="-12.5" font-family="Helvetica,sans-Serif" font-size="10.00">/webserver/webserver.c</text>
</a>
</g>
</g>
<!-- Node1&#45;&gt;Node9 -->
<g id="edge8_Node000001_Node000009" class="edge">
<title>Node1&#45;&gt;Node9</title>
<g id="a_edge8_Node000001_Node000009"><a xlink:title=" ">
<path fill="none" stroke="#63b8ff" d="M1088.65,-84.9C1127.19,-72.83 1174.17,-58.11 1211.12,-46.54"/>
<polygon fill="#63b8ff" stroke="#63b8ff" points="1087.54,-81.58 1079.04,-87.91 1089.63,-88.26 1087.54,-81.58"/>
</a>
</g>
</g>
<!-- Node10 -->
<g id="Node000010" class="node">
<title>Node10</title>
<g id="a_Node000010"><a xlink:href="wifi_8c.html" target="_top" xlink:title=" ">
<polygon fill="white" stroke="#666666" points="1521,-46.5 1368,-46.5 1368,-5.5 1521,-5.5 1521,-46.5"/>
<text text-anchor="start" x="1376" y="-34.5" font-family="Helvetica,sans-Serif" font-size="10.00">software/nixie_clock</text>
<text text-anchor="start" x="1376" y="-23.5" font-family="Helvetica,sans-Serif" font-size="10.00">_esp32_project/components</text>
<text text-anchor="middle" x="1444.5" y="-12.5" font-family="Helvetica,sans-Serif" font-size="10.00">/wifi/wifi.c</text>
</a>
</g>
</g>
<!-- Node1&#45;&gt;Node10 -->
<g id="edge9_Node000001_Node000010" class="edge">
<title>Node1&#45;&gt;Node10</title>
<g id="a_edge9_Node000001_Node000010"><a xlink:title=" ">
<path fill="none" stroke="#63b8ff" d="M1095.7,-97.56C1165.57,-88.11 1269.93,-72.33 1359.5,-52 1366.55,-50.4 1373.88,-48.54 1381.14,-46.58"/>
<polygon fill="#63b8ff" stroke="#63b8ff" points="1095.09,-94.11 1085.65,-98.91 1096.02,-101.05 1095.09,-94.11"/>
</a>
</g>
</g>
<!-- Node11 -->
<g id="Node000011" class="node">
<title>Node11</title>
<g id="a_Node000011"><a xlink:href="clock__task_8c.html" target="_top" xlink:title=" ">
<polygon fill="white" stroke="#666666" points="1685.5,-46.5 1539.5,-46.5 1539.5,-5.5 1685.5,-5.5 1685.5,-46.5"/>
<text text-anchor="start" x="1547.5" y="-34.5" font-family="Helvetica,sans-Serif" font-size="10.00">software/nixie_clock</text>
<text text-anchor="start" x="1547.5" y="-23.5" font-family="Helvetica,sans-Serif" font-size="10.00">_esp32_project/main/clock</text>
<text text-anchor="middle" x="1612.5" y="-12.5" font-family="Helvetica,sans-Serif" font-size="10.00">_task.c</text>
</a>
</g>
</g>
<!-- Node1&#45;&gt;Node11 -->
<g id="edge10_Node000001_Node000011" class="edge">
<title>Node1&#45;&gt;Node11</title>
<g id="a_edge10_Node000001_Node000011"><a xlink:title=" ">
<path fill="none" stroke="#63b8ff" d="M1095.91,-103.57C1197.51,-97.49 1378.54,-83.08 1530.5,-52 1537.79,-50.51 1545.36,-48.65 1552.82,-46.61"/>
<polygon fill="#63b8ff" stroke="#63b8ff" points="1095.5,-100.09 1085.73,-104.17 1095.91,-107.08 1095.5,-100.09"/>
</a>
</g>
</g>
<!-- Node12 -->
<g id="Node000012" class="node">
<title>Node12</title>
<g id="a_Node000012"><a xlink:href="gpio__task_8c.html" target="_top" xlink:title=" ">
<polygon fill="white" stroke="#666666" points="1845.5,-46.5 1703.5,-46.5 1703.5,-5.5 1845.5,-5.5 1845.5,-46.5"/>
<text text-anchor="start" x="1711.5" y="-34.5" font-family="Helvetica,sans-Serif" font-size="10.00">software/nixie_clock</text>
<text text-anchor="start" x="1711.5" y="-23.5" font-family="Helvetica,sans-Serif" font-size="10.00">_esp32_project/main/gpio</text>
<text text-anchor="middle" x="1774.5" y="-12.5" font-family="Helvetica,sans-Serif" font-size="10.00">_task.c</text>
</a>
</g>
</g>
<!-- Node1&#45;&gt;Node12 -->
<g id="edge11_Node000001_Node000012" class="edge">
<title>Node1&#45;&gt;Node12</title>
<g id="a_edge11_Node000001_Node000012"><a xlink:title=" ">
<path fill="none" stroke="#63b8ff" d="M1095.56,-106.67C1222.85,-104.09 1480.61,-93.64 1694.5,-52 1701.93,-50.55 1709.64,-48.66 1717.21,-46.57"/>
<polygon fill="#63b8ff" stroke="#63b8ff" points="1095.44,-103.18 1085.51,-106.87 1095.58,-110.18 1095.44,-103.18"/>
</a>
</g>
</g>
<!-- Node13 -->
<g id="Node000013" class="node">
<title>Node13</title>
<g id="a_Node000013"><a xlink:href="main_8c.html" target="_top" xlink:title=" ">
<polygon fill="white" stroke="#666666" points="2017.5,-41 1863.5,-41 1863.5,-11 2017.5,-11 2017.5,-41"/>
<text text-anchor="start" x="1871.5" y="-29" font-family="Helvetica,sans-Serif" font-size="10.00">software/nixie_clock</text>
<text text-anchor="middle" x="1940.5" y="-18" font-family="Helvetica,sans-Serif" font-size="10.00">_esp32_project/main/main.c</text>
</a>
</g>
</g>
<!-- Node1&#45;&gt;Node13 -->
<g id="edge12_Node000001_Node000013" class="edge">
<title>Node1&#45;&gt;Node13</title>
<g id="a_edge12_Node000001_Node000013"><a xlink:title=" ">
<path fill="none" stroke="#63b8ff" d="M1095.54,-107.94C1244.98,-107.53 1578.68,-100.63 1854.5,-52 1869.2,-49.41 1884.97,-45.24 1898.94,-41.05"/>
<polygon fill="#63b8ff" stroke="#63b8ff" points="1095.53,-104.44 1085.54,-107.96 1095.54,-111.44 1095.53,-104.44"/>
</a>
</g>
</g>
</g>
</svg>
