<?xml version="1.0" encoding="UTF-8" standalone="no"?>
<!DOCTYPE svg PUBLIC "-//W3C//DTD SVG 1.1//EN"
 "http://www.w3.org/Graphics/SVG/1.1/DTD/svg11.dtd">
<!-- Generated by graphviz version 2.43.0 (0)
 -->
<!-- Title: software/nixie_clock_esp32_project/components/event_bus/event_bus.c Pages: 1 -->
<svg width="240pt" height="159pt"
 viewBox="0.00 0.00 240.00 159.00" xmlns="http://www.w3.org/2000/svg" xmlns:xlink="http://www.w3.org/1999/xlink">
<g id="graph0" class="graph" transform="scale(1 1) rotate(0) translate(4 155)">
<title>software/nixie_clock_esp32_project/components/event_bus/event_bus.c</title>
<!-- Node1 -->
<g id="Node000001" class="node">
<title>Node1</title>
<g id="a_Node000001"><a xlink:title=" ">
<polygon fill="#999999" stroke="#666666" points="197,-151 44,-151 44,-110 197,-110 197,-151"/>
<text text-anchor="start" x="52" y="-139" font-family="Helvetica,sans-Serif" font-size="10.00">software/nixie_clock</text>
<text text-anchor="start" x="52" y="-128" font-family="Helvetica,sans-Serif" font-size="10.00">_esp32_project/components</text>
<text text-anchor="middle" x="120.5" y="-117" font-family="Helvetica,sans-Serif" font-size="10.00">/event_bus/event_bus.c</text>
</a>
</g>
</g>
<!-- Node2 -->
<g id="Node000002" class="node">
<title>Node2</title>
<g id="a_Node000002"><a xlink:href="event__bus_8h.html" target="_top" xlink:title=" ">
<polygon fill="white" stroke="#666666" points="158.5,-74 82.5,-74 82.5,-55 158.5,-55 158.5,-74"/>
<text text-anchor="middle" x="120.5" y="-62" font-family="Helvetica,sans-Serif" font-size="10.00">event_bus.h</text>
</a>
</g>
</g>
<!-- Node1&#45;&gt;Node2 -->
<g id="edge1_Node000001_Node000002" class="edge">
<title>Node1&#45;&gt;Node2</title>
<g id="a_edge1_Node000001_Node000002"><a xlink:title=" ">
<path fill="none" stroke="#63b8ff" d="M120.5,-109.95C120.5,-101.85 120.5,-92.5 120.5,-84.47"/>
<polygon fill="#63b8ff" stroke="#63b8ff" points="124,-84.26 120.5,-74.26 117,-84.26 124,-84.26"/>
</a>
</g>
</g>
<!-- Node3 -->
<g id="Node000003" class="node">
<title>Node3</title>
<g id="a_Node000003"><a xlink:title=" ">
<polygon fill="#e0e0e0" stroke="#999999" points="113,-19 0,-19 0,0 113,0 113,-19"/>
<text text-anchor="middle" x="56.5" y="-7" font-family="Helvetica,sans-Serif" font-size="10.00">freertos/FreeRTOS.h</text>
</a>
</g>
</g>
<!-- Node1&#45;&gt;Node3 -->
<g id="edge4_Node000001_Node000003" class="edge">
<title>Node1&#45;&gt;Node3</title>
<g id="a_edge4_Node000001_Node000003"><a xlink:title=" ">
<path fill="none" stroke="#63b8ff" d="M100.04,-109.76C90.76,-99.81 80.35,-87.09 73.5,-74 66.13,-59.92 61.75,-42.38 59.29,-29.3"/>
<polygon fill="#63b8ff" stroke="#63b8ff" points="62.69,-28.44 57.59,-19.15 55.79,-29.6 62.69,-28.44"/>
</a>
</g>
</g>
<!-- Node4 -->
<g id="Node000004" class="node">
<title>Node4</title>
<g id="a_Node000004"><a xlink:title=" ">
<polygon fill="#e0e0e0" stroke="#999999" points="232,-19 135,-19 135,0 232,0 232,-19"/>
<text text-anchor="middle" x="183.5" y="-7" font-family="Helvetica,sans-Serif" font-size="10.00">freertos/queue.h</text>
</a>
</g>
</g>
<!-- Node1&#45;&gt;Node4 -->
<g id="edge5_Node000001_Node000004" class="edge">
<title>Node1&#45;&gt;Node4</title>
<g id="a_edge5_Node000001_Node000004"><a xlink:title=" ">
<path fill="none" stroke="#63b8ff" d="M141.05,-109.8C150.35,-99.86 160.75,-87.14 167.5,-74 174.73,-59.92 178.83,-42.38 181.07,-29.3"/>
<polygon fill="#63b8ff" stroke="#63b8ff" points="184.57,-29.56 182.58,-19.15 177.64,-28.53 184.57,-29.56"/>
</a>
</g>
</g>
<!-- Node2&#45;&gt;Node3 -->
<g id="edge2_Node000002_Node000003" class="edge">
<title>Node2&#45;&gt;Node3</title>
<g id="a_edge2_Node000002_Node000003"><a xlink:title=" ">
<path fill="none" stroke="#63b8ff" d="M110.22,-54.98C100.66,-47.07 86.22,-35.11 74.72,-25.58"/>
<polygon fill="#63b8ff" stroke="#63b8ff" points="76.9,-22.85 66.97,-19.17 72.44,-28.24 76.9,-22.85"/>
</a>
</g>
</g>
<!-- Node2&#45;&gt;Node4 -->
<g id="edge3_Node000002_Node000004" class="edge">
<title>Node2&#45;&gt;Node4</title>
<g id="a_edge3_Node000002_Node000004"><a xlink:title=" ">
<path fill="none" stroke="#63b8ff" d="M130.62,-54.98C139.94,-47.15 153.97,-35.34 165.24,-25.86"/>
<polygon fill="#63b8ff" stroke="#63b8ff" points="167.79,-28.29 173.19,-19.17 163.29,-22.93 167.79,-28.29"/>
</a>
</g>
</g>
</g>
</svg>
