<?xml version="1.0" encoding="UTF-8" standalone="no"?>
<!DOCTYPE svg PUBLIC "-//W3C//DTD SVG 1.1//EN"
 "http://www.w3.org/Graphics/SVG/1.1/DTD/svg11.dtd">
<!-- Generated by graphviz version 2.43.0 (0)
 -->
<!-- Title: software/nixie_clock_esp32_project/components/event_bus/event_bus.h Pages: 1 -->
<svg width="1126pt" height="203pt"
 viewBox="0.00 0.00 1126.00 203.00" xmlns="http://www.w3.org/2000/svg" xmlns:xlink="http://www.w3.org/1999/xlink">
<g id="graph0" class="graph" transform="scale(1 1) rotate(0) translate(4 199)">
<title>software/nixie_clock_esp32_project/components/event_bus/event_bus.h</title>
<!-- Node1 -->
<g id="Node000001" class="node">
<title>Node1</title>
<g id="a_Node000001"><a xlink:title=" ">
<polygon fill="#999999" stroke="#666666" points="552,-195 399,-195 399,-154 552,-154 552,-195"/>
<text text-anchor="start" x="407" y="-183" font-family="Helvetica,sans-Serif" font-size="10.00">software/nixie_clock</text>
<text text-anchor="start" x="407" y="-172" font-family="Helvetica,sans-Serif" font-size="10.00">_esp32_project/components</text>
<text text-anchor="middle" x="475.5" y="-161" font-family="Helvetica,sans-Serif" font-size="10.00">/event_bus/event_bus.h</text>
</a>
</g>
</g>
<!-- Node2 -->
<g id="Node000002" class="node">
<title>Node2</title>
<g id="a_Node000002"><a xlink:href="config_8c.html" target="_top" xlink:title=" ">
<polygon fill="white" stroke="#666666" points="153,-118 0,-118 0,-77 153,-77 153,-118"/>
<text text-anchor="start" x="8" y="-106" font-family="Helvetica,sans-Serif" font-size="10.00">software/nixie_clock</text>
<text text-anchor="start" x="8" y="-95" font-family="Helvetica,sans-Serif" font-size="10.00">_esp32_project/components</text>
<text text-anchor="middle" x="76.5" y="-84" font-family="Helvetica,sans-Serif" font-size="10.00">/config/config.c</text>
</a>
</g>
</g>
<!-- Node1&#45;&gt;Node2 -->
<g id="edge1_Node000001_Node000002" class="edge">
<title>Node1&#45;&gt;Node2</title>
<g id="a_edge1_Node000001_Node000002"><a xlink:title=" ">
<path fill="none" stroke="#63b8ff" d="M388.69,-158.64C326.91,-147.87 241.98,-132.69 167.5,-118 162.9,-117.09 158.18,-116.14 153.42,-115.17"/>
<polygon fill="#63b8ff" stroke="#63b8ff" points="388.34,-162.13 398.79,-160.4 389.54,-155.24 388.34,-162.13"/>
</a>
</g>
</g>
<!-- Node3 -->
<g id="Node000003" class="node">
<title>Node3</title>
<g id="a_Node000003"><a xlink:href="dispatcher__task_8c.html" target="_top" xlink:title=" ">
<polygon fill="white" stroke="#666666" points="301,-41 116,-41 116,0 301,0 301,-41"/>
<text text-anchor="start" x="124" y="-29" font-family="Helvetica,sans-Serif" font-size="10.00">software/nixie_clock</text>
<text text-anchor="start" x="124" y="-18" font-family="Helvetica,sans-Serif" font-size="10.00">_esp32_project/components</text>
<text text-anchor="middle" x="208.5" y="-7" font-family="Helvetica,sans-Serif" font-size="10.00">/dispatcher_task/dispatcher_task.c</text>
</a>
</g>
</g>
<!-- Node1&#45;&gt;Node3 -->
<g id="edge2_Node000001_Node000003" class="edge">
<title>Node1&#45;&gt;Node3</title>
<g id="a_edge2_Node000001_Node000003"><a xlink:title=" ">
<path fill="none" stroke="#63b8ff" d="M388.53,-167.71C317.11,-160.93 224.02,-146.74 200.5,-118 182.93,-96.53 191.33,-62.65 199.53,-41.27"/>
<polygon fill="#63b8ff" stroke="#63b8ff" points="388.62,-171.24 398.9,-168.66 389.26,-164.27 388.62,-171.24"/>
</a>
</g>
</g>
<!-- Node4 -->
<g id="Node000004" class="node">
<title>Node4</title>
<g id="a_Node000004"><a xlink:href="dispatcher__task_8h.html" target="_top" xlink:title=" ">
<polygon fill="white" stroke="#666666" points="395.5,-118 209.5,-118 209.5,-77 395.5,-77 395.5,-118"/>
<text text-anchor="start" x="217.5" y="-106" font-family="Helvetica,sans-Serif" font-size="10.00">software/nixie_clock</text>
<text text-anchor="start" x="217.5" y="-95" font-family="Helvetica,sans-Serif" font-size="10.00">_esp32_project/components</text>
<text text-anchor="middle" x="302.5" y="-84" font-family="Helvetica,sans-Serif" font-size="10.00">/dispatcher_task/dispatcher_task.h</text>
</a>
</g>
</g>
<!-- Node1&#45;&gt;Node4 -->
<g id="edge3_Node000001_Node000004" class="edge">
<title>Node1&#45;&gt;Node4</title>
<g id="a_edge3_Node000001_Node000004"><a xlink:title=" ">
<path fill="none" stroke="#63b8ff" d="M421.28,-150C397.59,-139.72 370.13,-127.82 347.58,-118.04"/>
<polygon fill="#63b8ff" stroke="#63b8ff" points="419.93,-153.22 430.5,-153.99 422.72,-146.8 419.93,-153.22"/>
</a>
</g>
</g>
<!-- Node5 -->
<g id="Node000005" class="node">
<title>Node5</title>
<g id="a_Node000005"><a xlink:href="main_8c.html" target="_top" xlink:title=" ">
<polygon fill="white" stroke="#666666" points="486.5,-35.5 332.5,-35.5 332.5,-5.5 486.5,-5.5 486.5,-35.5"/>
<text text-anchor="start" x="340.5" y="-23.5" font-family="Helvetica,sans-Serif" font-size="10.00">software/nixie_clock</text>
<text text-anchor="middle" x="409.5" y="-12.5" font-family="Helvetica,sans-Serif" font-size="10.00">_esp32_project/main/main.c</text>
</a>
</g>
</g>
<!-- Node1&#45;&gt;Node5 -->
<g id="edge10_Node000001_Node000005" class="edge">
<title>Node1&#45;&gt;Node5</title>
<g id="a_edge10_Node000001_Node000005"><a xlink:title=" ">
<path fill="none" stroke="#63b8ff" d="M457.79,-145.11C452.83,-136.57 447.66,-127.05 443.5,-118 430.44,-89.59 419.27,-54.64 413.56,-35.56"/>
<polygon fill="#63b8ff" stroke="#63b8ff" points="454.92,-147.13 463.03,-153.93 460.93,-143.55 454.92,-147.13"/>
</a>
</g>
</g>
<!-- Node6 -->
<g id="Node000006" class="node">
<title>Node6</title>
<g id="a_Node000006"><a xlink:href="event__bus_8c.html" target="_top" xlink:title=" ">
<polygon fill="white" stroke="#666666" points="605,-118 452,-118 452,-77 605,-77 605,-118"/>
<text text-anchor="start" x="460" y="-106" font-family="Helvetica,sans-Serif" font-size="10.00">software/nixie_clock</text>
<text text-anchor="start" x="460" y="-95" font-family="Helvetica,sans-Serif" font-size="10.00">_esp32_project/components</text>
<text text-anchor="middle" x="528.5" y="-84" font-family="Helvetica,sans-Serif" font-size="10.00">/event_bus/event_bus.c</text>
</a>
</g>
</g>
<!-- Node1&#45;&gt;Node6 -->
<g id="edge6_Node000001_Node000006" class="edge">
<title>Node1&#45;&gt;Node6</title>
<g id="a_edge6_Node000001_Node000006"><a xlink:title=" ">
<path fill="none" stroke="#63b8ff" d="M495.36,-145.39C501.79,-136.3 508.78,-126.41 514.67,-118.07"/>
<polygon fill="#63b8ff" stroke="#63b8ff" points="492.34,-143.61 489.43,-153.79 498.05,-147.65 492.34,-143.61"/>
</a>
</g>
</g>
<!-- Node7 -->
<g id="Node000007" class="node">
<title>Node7</title>
<g id="a_Node000007"><a xlink:href="gpio__task_8c.html" target="_top" xlink:title=" ">
<polygon fill="white" stroke="#666666" points="776,-118 623,-118 623,-77 776,-77 776,-118"/>
<text text-anchor="start" x="631" y="-106" font-family="Helvetica,sans-Serif" font-size="10.00">software/nixie_clock</text>
<text text-anchor="start" x="631" y="-95" font-family="Helvetica,sans-Serif" font-size="10.00">_esp32_project/components</text>
<text text-anchor="middle" x="699.5" y="-84" font-family="Helvetica,sans-Serif" font-size="10.00">/gpio_task/gpio_task.c</text>
</a>
</g>
</g>
<!-- Node1&#45;&gt;Node7 -->
<g id="edge7_Node000001_Node000007" class="edge">
<title>Node1&#45;&gt;Node7</title>
<g id="a_edge7_Node000001_Node000007"><a xlink:title=" ">
<path fill="none" stroke="#63b8ff" d="M543.27,-150.81C574.48,-140.36 611.16,-128.08 641.13,-118.04"/>
<polygon fill="#63b8ff" stroke="#63b8ff" points="542.14,-147.5 533.77,-153.99 544.36,-154.13 542.14,-147.5"/>
</a>
</g>
</g>
<!-- Node8 -->
<g id="Node000008" class="node">
<title>Node8</title>
<g id="a_Node000008"><a xlink:href="ntp_8c.html" target="_top" xlink:title=" ">
<polygon fill="white" stroke="#666666" points="947,-118 794,-118 794,-77 947,-77 947,-118"/>
<text text-anchor="start" x="802" y="-106" font-family="Helvetica,sans-Serif" font-size="10.00">software/nixie_clock</text>
<text text-anchor="start" x="802" y="-95" font-family="Helvetica,sans-Serif" font-size="10.00">_esp32_project/components</text>
<text text-anchor="middle" x="870.5" y="-84" font-family="Helvetica,sans-Serif" font-size="10.00">/ntp/ntp.c</text>
</a>
</g>
</g>
<!-- Node1&#45;&gt;Node8 -->
<g id="edge8_Node000001_Node000008" class="edge">
<title>Node1&#45;&gt;Node8</title>
<g id="a_edge8_Node000001_Node000008"><a xlink:title=" ">
<path fill="none" stroke="#63b8ff" d="M562.31,-159.11C624.58,-148.51 710.4,-133.33 785.5,-118 788.17,-117.46 790.89,-116.89 793.63,-116.31"/>
<polygon fill="#63b8ff" stroke="#63b8ff" points="561.41,-155.72 552.13,-160.84 562.58,-162.62 561.41,-155.72"/>
</a>
</g>
</g>
<!-- Node9 -->
<g id="Node000009" class="node">
<title>Node9</title>
<g id="a_Node000009"><a xlink:href="webserver_8c.html" target="_top" xlink:title=" ">
<polygon fill="white" stroke="#666666" points="1118,-118 965,-118 965,-77 1118,-77 1118,-118"/>
<text text-anchor="start" x="973" y="-106" font-family="Helvetica,sans-Serif" font-size="10.00">software/nixie_clock</text>
<text text-anchor="start" x="973" y="-95" font-family="Helvetica,sans-Serif" font-size="10.00">_esp32_project/components</text>
<text text-anchor="middle" x="1041.5" y="-84" font-family="Helvetica,sans-Serif" font-size="10.00">/webserver/webserver.c</text>
</a>
</g>
</g>
<!-- Node1&#45;&gt;Node9 -->
<g id="edge9_Node000001_Node000009" class="edge">
<title>Node1&#45;&gt;Node9</title>
<g id="a_edge9_Node000001_Node000009"><a xlink:title=" ">
<path fill="none" stroke="#63b8ff" d="M562.11,-166.41C658.73,-157.84 819.47,-141.55 956.5,-118 959.19,-117.54 961.91,-117.05 964.67,-116.53"/>
<polygon fill="#63b8ff" stroke="#63b8ff" points="561.75,-162.93 552.1,-167.3 562.37,-169.91 561.75,-162.93"/>
</a>
</g>
</g>
<!-- Node4&#45;&gt;Node3 -->
<g id="edge4_Node000004_Node000003" class="edge">
<title>Node4&#45;&gt;Node3</title>
<g id="a_edge4_Node000004_Node000003"><a xlink:title=" ">
<path fill="none" stroke="#63b8ff" d="M269.72,-70.35C257.67,-60.73 244.24,-50.01 233.03,-41.07"/>
<polygon fill="#63b8ff" stroke="#63b8ff" points="267.8,-73.29 277.8,-76.79 272.17,-67.82 267.8,-73.29"/>
</a>
</g>
</g>
<!-- Node4&#45;&gt;Node5 -->
<g id="edge5_Node000004_Node000005" class="edge">
<title>Node4&#45;&gt;Node5</title>
<g id="a_edge5_Node000004_Node000005"><a xlink:title=" ">
<path fill="none" stroke="#63b8ff" d="M338.86,-71.01C355.69,-59.22 375.05,-45.65 389.24,-35.7"/>
<polygon fill="#63b8ff" stroke="#63b8ff" points="336.51,-68.38 330.33,-76.99 340.53,-74.12 336.51,-68.38"/>
</a>
</g>
</g>
</g>
</svg>
