<?xml version="1.0" encoding="UTF-8" standalone="no"?>
<!DOCTYPE svg PUBLIC "-//W3C//DTD SVG 1.1//EN"
 "http://www.w3.org/Graphics/SVG/1.1/DTD/svg11.dtd">
<!-- Generated by graphviz version 2.43.0 (0)
 -->
<!-- Title: software/nixie_clock_esp32_project/components/event_bus/event_bus.h Pages: 1 -->
<svg width="923pt" height="203pt"
 viewBox="0.00 0.00 923.00 203.00" xmlns="http://www.w3.org/2000/svg" xmlns:xlink="http://www.w3.org/1999/xlink">
<g id="graph0" class="graph" transform="scale(1 1) rotate(0) translate(4 199)">
<title>software/nixie_clock_esp32_project/components/event_bus/event_bus.h</title>
<!-- Node1 -->
<g id="Node000001" class="node">
<title>Node1</title>
<g id="a_Node000001"><a xlink:title=" ">
<polygon fill="#999999" stroke="#666666" points="468,-195 315,-195 315,-154 468,-154 468,-195"/>
<text text-anchor="start" x="323" y="-183" font-family="Helvetica,sans-Serif" font-size="10.00">software/nixie_clock</text>
<text text-anchor="start" x="323" y="-172" font-family="Helvetica,sans-Serif" font-size="10.00">_esp32_project/components</text>
<text text-anchor="middle" x="391.5" y="-161" font-family="Helvetica,sans-Serif" font-size="10.00">/event_bus/event_bus.h</text>
</a>
</g>
</g>
<!-- Node2 -->
<g id="Node000002" class="node">
<title>Node2</title>
<g id="a_Node000002"><a xlink:href="config_8c.html" target="_top" xlink:title=" ">
<polygon fill="white" stroke="#666666" points="153,-118 0,-118 0,-77 153,-77 153,-118"/>
<text text-anchor="start" x="8" y="-106" font-family="Helvetica,sans-Serif" font-size="10.00">software/nixie_clock</text>
<text text-anchor="start" x="8" y="-95" font-family="Helvetica,sans-Serif" font-size="10.00">_esp32_project/components</text>
<text text-anchor="middle" x="76.5" y="-84" font-family="Helvetica,sans-Serif" font-size="10.00">/config/config.c</text>
</a>
</g>
</g>
<!-- Node1&#45;&gt;Node2 -->
<g id="edge1_Node000001_Node000002" class="edge">
<title>Node1&#45;&gt;Node2</title>
<g id="a_edge1_Node000001_Node000002"><a xlink:title=" ">
<path fill="none" stroke="#63b8ff" d="M304.89,-152.88C257.4,-141.57 199.06,-127.68 153.23,-116.77"/>
<polygon fill="#63b8ff" stroke="#63b8ff" points="304.31,-156.34 314.85,-155.25 305.93,-149.53 304.31,-156.34"/>
</a>
</g>
</g>
<!-- Node3 -->
<g id="Node000003" class="node">
<title>Node3</title>
<g id="a_Node000003"><a xlink:href="dispatcher_8c.html" target="_top" xlink:title=" ">
<polygon fill="white" stroke="#666666" points="277,-41 124,-41 124,0 277,0 277,-41"/>
<text text-anchor="start" x="132" y="-29" font-family="Helvetica,sans-Serif" font-size="10.00">software/nixie_clock</text>
<text text-anchor="start" x="132" y="-18" font-family="Helvetica,sans-Serif" font-size="10.00">_esp32_project/components</text>
<text text-anchor="middle" x="200.5" y="-7" font-family="Helvetica,sans-Serif" font-size="10.00">/dispatcher/dispatcher.c</text>
</a>
</g>
</g>
<!-- Node1&#45;&gt;Node3 -->
<g id="edge2_Node000001_Node000003" class="edge">
<title>Node1&#45;&gt;Node3</title>
<g id="a_edge2_Node000001_Node000003"><a xlink:title=" ">
<path fill="none" stroke="#63b8ff" d="M304.81,-158.76C260.7,-149.31 213.66,-135.52 200.5,-118 183.9,-95.89 188.7,-62.2 194.21,-41.03"/>
<polygon fill="#63b8ff" stroke="#63b8ff" points="304.25,-162.22 314.75,-160.83 305.67,-155.37 304.25,-162.22"/>
</a>
</g>
</g>
<!-- Node4 -->
<g id="Node000004" class="node">
<title>Node4</title>
<g id="a_Node000004"><a xlink:href="dispatcher_8h.html" target="_top" xlink:title=" ">
<polygon fill="white" stroke="#666666" points="363,-118 210,-118 210,-77 363,-77 363,-118"/>
<text text-anchor="start" x="218" y="-106" font-family="Helvetica,sans-Serif" font-size="10.00">software/nixie_clock</text>
<text text-anchor="start" x="218" y="-95" font-family="Helvetica,sans-Serif" font-size="10.00">_esp32_project/components</text>
<text text-anchor="middle" x="286.5" y="-84" font-family="Helvetica,sans-Serif" font-size="10.00">/dispatcher/dispatcher.h</text>
</a>
</g>
</g>
<!-- Node1&#45;&gt;Node4 -->
<g id="edge3_Node000001_Node000004" class="edge">
<title>Node1&#45;&gt;Node4</title>
<g id="a_edge3_Node000001_Node000004"><a xlink:title=" ">
<path fill="none" stroke="#63b8ff" d="M355.93,-148.09C342.25,-138.32 326.85,-127.32 314.04,-118.17"/>
<polygon fill="#63b8ff" stroke="#63b8ff" points="354.01,-151.03 364.19,-153.99 358.08,-145.33 354.01,-151.03"/>
</a>
</g>
</g>
<!-- Node5 -->
<g id="Node000005" class="node">
<title>Node5</title>
<g id="a_Node000005"><a xlink:href="main_8c.html" target="_top" xlink:title=" ">
<polygon fill="white" stroke="#666666" points="458.5,-35.5 304.5,-35.5 304.5,-5.5 458.5,-5.5 458.5,-35.5"/>
<text text-anchor="start" x="312.5" y="-23.5" font-family="Helvetica,sans-Serif" font-size="10.00">software/nixie_clock</text>
<text text-anchor="middle" x="381.5" y="-12.5" font-family="Helvetica,sans-Serif" font-size="10.00">_esp32_project/main/main.c</text>
</a>
</g>
</g>
<!-- Node1&#45;&gt;Node5 -->
<g id="edge9_Node000001_Node000005" class="edge">
<title>Node1&#45;&gt;Node5</title>
<g id="a_edge9_Node000001_Node000005"><a xlink:title=" ">
<path fill="none" stroke="#63b8ff" d="M389.53,-143.63C387.39,-110.98 384.04,-60.05 382.43,-35.57"/>
<polygon fill="#63b8ff" stroke="#63b8ff" points="386.06,-144.19 390.21,-153.94 393.05,-143.73 386.06,-144.19"/>
</a>
</g>
</g>
<!-- Node6 -->
<g id="Node000006" class="node">
<title>Node6</title>
<g id="a_Node000006"><a xlink:href="event__bus_8c.html" target="_top" xlink:title=" ">
<polygon fill="white" stroke="#666666" points="573,-118 420,-118 420,-77 573,-77 573,-118"/>
<text text-anchor="start" x="428" y="-106" font-family="Helvetica,sans-Serif" font-size="10.00">software/nixie_clock</text>
<text text-anchor="start" x="428" y="-95" font-family="Helvetica,sans-Serif" font-size="10.00">_esp32_project/components</text>
<text text-anchor="middle" x="496.5" y="-84" font-family="Helvetica,sans-Serif" font-size="10.00">/event_bus/event_bus.c</text>
</a>
</g>
</g>
<!-- Node1&#45;&gt;Node6 -->
<g id="edge6_Node000001_Node000006" class="edge">
<title>Node1&#45;&gt;Node6</title>
<g id="a_edge6_Node000001_Node000006"><a xlink:title=" ">
<path fill="none" stroke="#63b8ff" d="M427.07,-148.09C440.75,-138.32 456.15,-127.32 468.96,-118.17"/>
<polygon fill="#63b8ff" stroke="#63b8ff" points="424.92,-145.33 418.81,-153.99 428.99,-151.03 424.92,-145.33"/>
</a>
</g>
</g>
<!-- Node7 -->
<g id="Node000007" class="node">
<title>Node7</title>
<g id="a_Node000007"><a xlink:href="gpio__task_8c.html" target="_top" xlink:title=" ">
<polygon fill="white" stroke="#666666" points="744,-118 591,-118 591,-77 744,-77 744,-118"/>
<text text-anchor="start" x="599" y="-106" font-family="Helvetica,sans-Serif" font-size="10.00">software/nixie_clock</text>
<text text-anchor="start" x="599" y="-95" font-family="Helvetica,sans-Serif" font-size="10.00">_esp32_project/components</text>
<text text-anchor="middle" x="667.5" y="-84" font-family="Helvetica,sans-Serif" font-size="10.00">/gpio_task/gpio_task.c</text>
</a>
</g>
</g>
<!-- Node1&#45;&gt;Node7 -->
<g id="edge7_Node000001_Node000007" class="edge">
<title>Node1&#45;&gt;Node7</title>
<g id="a_edge7_Node000001_Node000007"><a xlink:title=" ">
<path fill="none" stroke="#63b8ff" d="M473.02,-151.35C511.9,-140.78 558.02,-128.25 595.59,-118.04"/>
<polygon fill="#63b8ff" stroke="#63b8ff" points="472.03,-147.99 463.3,-153.99 473.86,-154.75 472.03,-147.99"/>
</a>
</g>
</g>
<!-- Node8 -->
<g id="Node000008" class="node">
<title>Node8</title>
<g id="a_Node000008"><a xlink:href="ntp_8c.html" target="_top" xlink:title=" ">
<polygon fill="white" stroke="#666666" points="915,-118 762,-118 762,-77 915,-77 915,-118"/>
<text text-anchor="start" x="770" y="-106" font-family="Helvetica,sans-Serif" font-size="10.00">software/nixie_clock</text>
<text text-anchor="start" x="770" y="-95" font-family="Helvetica,sans-Serif" font-size="10.00">_esp32_project/components</text>
<text text-anchor="middle" x="838.5" y="-84" font-family="Helvetica,sans-Serif" font-size="10.00">/ntp/ntp.c</text>
</a>
</g>
</g>
<!-- Node1&#45;&gt;Node8 -->
<g id="edge8_Node000001_Node000008" class="edge">
<title>Node1&#45;&gt;Node8</title>
<g id="a_edge8_Node000001_Node000008"><a xlink:title=" ">
<path fill="none" stroke="#63b8ff" d="M478.19,-162.03C551.72,-151.87 659.86,-135.9 753.5,-118 756.18,-117.49 758.9,-116.95 761.64,-116.4"/>
<polygon fill="#63b8ff" stroke="#63b8ff" points="477.48,-158.6 468.05,-163.43 478.43,-165.53 477.48,-158.6"/>
</a>
</g>
</g>
<!-- Node4&#45;&gt;Node3 -->
<g id="edge4_Node000004_Node000003" class="edge">
<title>Node4&#45;&gt;Node3</title>
<g id="a_edge4_Node000004_Node000003"><a xlink:title=" ">
<path fill="none" stroke="#63b8ff" d="M256.19,-70.07C245.25,-60.52 233.1,-49.93 222.94,-41.07"/>
<polygon fill="#63b8ff" stroke="#63b8ff" points="254.07,-72.86 263.9,-76.79 258.67,-67.58 254.07,-72.86"/>
</a>
</g>
</g>
<!-- Node4&#45;&gt;Node5 -->
<g id="edge5_Node000004_Node000005" class="edge">
<title>Node4&#45;&gt;Node5</title>
<g id="a_edge5_Node000004_Node000005"><a xlink:title=" ">
<path fill="none" stroke="#63b8ff" d="M319.44,-70.5C334.26,-58.79 351.18,-45.44 363.61,-35.63"/>
<polygon fill="#63b8ff" stroke="#63b8ff" points="317.14,-67.85 311.46,-76.79 321.48,-73.35 317.14,-67.85"/>
</a>
</g>
</g>
</g>
</svg>
