<?xml version="1.0" encoding="UTF-8" standalone="no"?>
<!DOCTYPE svg PUBLIC "-//W3C//DTD SVG 1.1//EN"
 "http://www.w3.org/Graphics/SVG/1.1/DTD/svg11.dtd">
<!-- Generated by graphviz version 2.43.0 (0)
 -->
<!-- Title: software/nixie_clock_esp32_project/components/event_bus/event_bus.h Pages: 1 -->
<svg width="752pt" height="203pt"
 viewBox="0.00 0.00 752.00 203.00" xmlns="http://www.w3.org/2000/svg" xmlns:xlink="http://www.w3.org/1999/xlink">
<g id="graph0" class="graph" transform="scale(1 1) rotate(0) translate(4 199)">
<title>software/nixie_clock_esp32_project/components/event_bus/event_bus.h</title>
<!-- Node1 -->
<g id="Node000001" class="node">
<title>Node1</title>
<g id="a_Node000001"><a xlink:title=" ">
<polygon fill="#999999" stroke="#666666" points="415,-195 262,-195 262,-154 415,-154 415,-195"/>
<text text-anchor="start" x="270" y="-183" font-family="Helvetica,sans-Serif" font-size="10.00">software/nixie_clock</text>
<text text-anchor="start" x="270" y="-172" font-family="Helvetica,sans-Serif" font-size="10.00">_esp32_project/components</text>
<text text-anchor="middle" x="338.5" y="-161" font-family="Helvetica,sans-Serif" font-size="10.00">/event_bus/event_bus.h</text>
</a>
</g>
</g>
<!-- Node2 -->
<g id="Node000002" class="node">
<title>Node2</title>
<g id="a_Node000002"><a xlink:href="config_8c.html" target="_top" xlink:title=" ">
<polygon fill="white" stroke="#666666" points="153,-118 0,-118 0,-77 153,-77 153,-118"/>
<text text-anchor="start" x="8" y="-106" font-family="Helvetica,sans-Serif" font-size="10.00">software/nixie_clock</text>
<text text-anchor="start" x="8" y="-95" font-family="Helvetica,sans-Serif" font-size="10.00">_esp32_project/components</text>
<text text-anchor="middle" x="76.5" y="-84" font-family="Helvetica,sans-Serif" font-size="10.00">/config/config.c</text>
</a>
</g>
</g>
<!-- Node1&#45;&gt;Node2 -->
<g id="edge1_Node000001_Node000002" class="edge">
<title>Node1&#45;&gt;Node2</title>
<g id="a_edge1_Node000001_Node000002"><a xlink:title=" ">
<path fill="none" stroke="#63b8ff" d="M260.65,-151.21C223.83,-140.68 180.28,-128.21 144.77,-118.04"/>
<polygon fill="#63b8ff" stroke="#63b8ff" points="259.77,-154.6 270.35,-153.99 261.7,-147.87 259.77,-154.6"/>
</a>
</g>
</g>
<!-- Node3 -->
<g id="Node000003" class="node">
<title>Node3</title>
<g id="a_Node000003"><a xlink:href="dispatcher_8c.html" target="_top" xlink:title=" ">
<polygon fill="white" stroke="#666666" points="277,-41 124,-41 124,0 277,0 277,-41"/>
<text text-anchor="start" x="132" y="-29" font-family="Helvetica,sans-Serif" font-size="10.00">software/nixie_clock</text>
<text text-anchor="start" x="132" y="-18" font-family="Helvetica,sans-Serif" font-size="10.00">_esp32_project/components</text>
<text text-anchor="middle" x="200.5" y="-7" font-family="Helvetica,sans-Serif" font-size="10.00">/dispatcher/dispatcher.c</text>
</a>
</g>
</g>
<!-- Node1&#45;&gt;Node3 -->
<g id="edge2_Node000001_Node000003" class="edge">
<title>Node1&#45;&gt;Node3</title>
<g id="a_edge2_Node000001_Node000003"><a xlink:title=" ">
<path fill="none" stroke="#63b8ff" d="M252.48,-156.63C232.12,-148.41 212.79,-136.18 200.5,-118 185.12,-95.23 189.44,-62.03 194.54,-41.11"/>
<polygon fill="#63b8ff" stroke="#63b8ff" points="251.28,-159.92 261.88,-160.14 253.73,-153.36 251.28,-159.92"/>
</a>
</g>
</g>
<!-- Node4 -->
<g id="Node000004" class="node">
<title>Node4</title>
<g id="a_Node000004"><a xlink:href="dispatcher_8h.html" target="_top" xlink:title=" ">
<polygon fill="white" stroke="#666666" points="363,-118 210,-118 210,-77 363,-77 363,-118"/>
<text text-anchor="start" x="218" y="-106" font-family="Helvetica,sans-Serif" font-size="10.00">software/nixie_clock</text>
<text text-anchor="start" x="218" y="-95" font-family="Helvetica,sans-Serif" font-size="10.00">_esp32_project/components</text>
<text text-anchor="middle" x="286.5" y="-84" font-family="Helvetica,sans-Serif" font-size="10.00">/dispatcher/dispatcher.h</text>
</a>
</g>
</g>
<!-- Node1&#45;&gt;Node4 -->
<g id="edge3_Node000001_Node000004" class="edge">
<title>Node1&#45;&gt;Node4</title>
<g id="a_edge3_Node000001_Node000004"><a xlink:title=" ">
<path fill="none" stroke="#63b8ff" d="M319.01,-145.39C312.7,-136.3 305.85,-126.41 300.07,-118.07"/>
<polygon fill="#63b8ff" stroke="#63b8ff" points="316.26,-147.57 324.84,-153.79 322.02,-143.58 316.26,-147.57"/>
</a>
</g>
</g>
<!-- Node5 -->
<g id="Node000005" class="node">
<title>Node5</title>
<g id="a_Node000005"><a xlink:href="main_8c.html" target="_top" xlink:title=" ">
<polygon fill="white" stroke="#666666" points="458.5,-35.5 304.5,-35.5 304.5,-5.5 458.5,-5.5 458.5,-35.5"/>
<text text-anchor="start" x="312.5" y="-23.5" font-family="Helvetica,sans-Serif" font-size="10.00">software/nixie_clock</text>
<text text-anchor="middle" x="381.5" y="-12.5" font-family="Helvetica,sans-Serif" font-size="10.00">_esp32_project/main/main.c</text>
</a>
</g>
</g>
<!-- Node1&#45;&gt;Node5 -->
<g id="edge8_Node000001_Node000005" class="edge">
<title>Node1&#45;&gt;Node5</title>
<g id="a_edge8_Node000001_Node000005"><a xlink:title=" ">
<path fill="none" stroke="#63b8ff" d="M359.26,-145.18C364.43,-136.81 369.38,-127.37 372.5,-118 381.85,-89.9 382.6,-54.83 382.15,-35.65"/>
<polygon fill="#63b8ff" stroke="#63b8ff" points="356.18,-143.5 353.64,-153.79 362.04,-147.33 356.18,-143.5"/>
</a>
</g>
</g>
<!-- Node6 -->
<g id="Node000006" class="node">
<title>Node6</title>
<g id="a_Node000006"><a xlink:href="event__bus_8c.html" target="_top" xlink:title=" ">
<polygon fill="white" stroke="#666666" points="573,-118 420,-118 420,-77 573,-77 573,-118"/>
<text text-anchor="start" x="428" y="-106" font-family="Helvetica,sans-Serif" font-size="10.00">software/nixie_clock</text>
<text text-anchor="start" x="428" y="-95" font-family="Helvetica,sans-Serif" font-size="10.00">_esp32_project/components</text>
<text text-anchor="middle" x="496.5" y="-84" font-family="Helvetica,sans-Serif" font-size="10.00">/event_bus/event_bus.c</text>
</a>
</g>
</g>
<!-- Node1&#45;&gt;Node6 -->
<g id="edge6_Node000001_Node000006" class="edge">
<title>Node1&#45;&gt;Node6</title>
<g id="a_edge6_Node000001_Node000006"><a xlink:title=" ">
<path fill="none" stroke="#63b8ff" d="M388.88,-149.59C410.32,-139.41 435.01,-127.69 455.33,-118.04"/>
<polygon fill="#63b8ff" stroke="#63b8ff" points="387.13,-146.54 379.6,-153.99 390.13,-152.86 387.13,-146.54"/>
</a>
</g>
</g>
<!-- Node7 -->
<g id="Node000007" class="node">
<title>Node7</title>
<g id="a_Node000007"><a xlink:href="ntp_8c.html" target="_top" xlink:title=" ">
<polygon fill="white" stroke="#666666" points="744,-118 591,-118 591,-77 744,-77 744,-118"/>
<text text-anchor="start" x="599" y="-106" font-family="Helvetica,sans-Serif" font-size="10.00">software/nixie_clock</text>
<text text-anchor="start" x="599" y="-95" font-family="Helvetica,sans-Serif" font-size="10.00">_esp32_project/components</text>
<text text-anchor="middle" x="667.5" y="-84" font-family="Helvetica,sans-Serif" font-size="10.00">/ntp/ntp.c</text>
</a>
</g>
</g>
<!-- Node1&#45;&gt;Node7 -->
<g id="edge7_Node000001_Node000007" class="edge">
<title>Node1&#45;&gt;Node7</title>
<g id="a_edge7_Node000001_Node000007"><a xlink:title=" ">
<path fill="none" stroke="#63b8ff" d="M424.93,-153.88C471.6,-143.28 530.21,-129.95 582.5,-118 585.16,-117.39 587.86,-116.78 590.59,-116.15"/>
<polygon fill="#63b8ff" stroke="#63b8ff" points="424.14,-150.47 415.16,-156.1 425.69,-157.3 424.14,-150.47"/>
</a>
</g>
</g>
<!-- Node4&#45;&gt;Node3 -->
<g id="edge4_Node000004_Node000003" class="edge">
<title>Node4&#45;&gt;Node3</title>
<g id="a_edge4_Node000004_Node000003"><a xlink:title=" ">
<path fill="none" stroke="#63b8ff" d="M256.19,-70.07C245.25,-60.52 233.1,-49.93 222.94,-41.07"/>
<polygon fill="#63b8ff" stroke="#63b8ff" points="254.07,-72.86 263.9,-76.79 258.67,-67.58 254.07,-72.86"/>
</a>
</g>
</g>
<!-- Node4&#45;&gt;Node5 -->
<g id="edge5_Node000004_Node000005" class="edge">
<title>Node4&#45;&gt;Node5</title>
<g id="a_edge5_Node000004_Node000005"><a xlink:title=" ">
<path fill="none" stroke="#63b8ff" d="M319.44,-70.5C334.26,-58.79 351.18,-45.44 363.61,-35.63"/>
<polygon fill="#63b8ff" stroke="#63b8ff" points="317.14,-67.85 311.46,-76.79 321.48,-73.35 317.14,-67.85"/>
</a>
</g>
</g>
</g>
</svg>
