<?xml version="1.0" encoding="UTF-8" standalone="no"?>
<!DOCTYPE svg PUBLIC "-//W3C//DTD SVG 1.1//EN"
 "http://www.w3.org/Graphics/SVG/1.1/DTD/svg11.dtd">
<!-- Generated by graphviz version 2.43.0 (0)
 -->
<!-- Title: software/nixie_clock_esp32_project/components/event_bus/event_bus.h Pages: 1 -->
<svg width="955pt" height="203pt"
 viewBox="0.00 0.00 955.00 203.00" xmlns="http://www.w3.org/2000/svg" xmlns:xlink="http://www.w3.org/1999/xlink">
<g id="graph0" class="graph" transform="scale(1 1) rotate(0) translate(4 199)">
<title>software/nixie_clock_esp32_project/components/event_bus/event_bus.h</title>
<!-- Node1 -->
<g id="Node000001" class="node">
<title>Node1</title>
<g id="a_Node000001"><a xlink:title=" ">
<polygon fill="#999999" stroke="#666666" points="500,-195 347,-195 347,-154 500,-154 500,-195"/>
<text text-anchor="start" x="355" y="-183" font-family="Helvetica,sans-Serif" font-size="10.00">software/nixie_clock</text>
<text text-anchor="start" x="355" y="-172" font-family="Helvetica,sans-Serif" font-size="10.00">_esp32_project/components</text>
<text text-anchor="middle" x="423.5" y="-161" font-family="Helvetica,sans-Serif" font-size="10.00">/event_bus/event_bus.h</text>
</a>
</g>
</g>
<!-- Node2 -->
<g id="Node000002" class="node">
<title>Node2</title>
<g id="a_Node000002"><a xlink:href="config_8c.html" target="_top" xlink:title=" ">
<polygon fill="white" stroke="#666666" points="153,-118 0,-118 0,-77 153,-77 153,-118"/>
<text text-anchor="start" x="8" y="-106" font-family="Helvetica,sans-Serif" font-size="10.00">software/nixie_clock</text>
<text text-anchor="start" x="8" y="-95" font-family="Helvetica,sans-Serif" font-size="10.00">_esp32_project/components</text>
<text text-anchor="middle" x="76.5" y="-84" font-family="Helvetica,sans-Serif" font-size="10.00">/config/config.c</text>
</a>
</g>
</g>
<!-- Node1&#45;&gt;Node2 -->
<g id="edge1_Node000001_Node000002" class="edge">
<title>Node1&#45;&gt;Node2</title>
<g id="a_edge1_Node000001_Node000002"><a xlink:title=" ">
<path fill="none" stroke="#63b8ff" d="M336.94,-154.79C280.51,-142.59 207.53,-126.82 153.18,-115.07"/>
<polygon fill="#63b8ff" stroke="#63b8ff" points="336.41,-158.26 346.92,-156.95 337.88,-151.41 336.41,-158.26"/>
</a>
</g>
</g>
<!-- Node3 -->
<g id="Node000003" class="node">
<title>Node3</title>
<g id="a_Node000003"><a xlink:href="dispatcher__task_8c.html" target="_top" xlink:title=" ">
<polygon fill="white" stroke="#666666" points="301,-41 116,-41 116,0 301,0 301,-41"/>
<text text-anchor="start" x="124" y="-29" font-family="Helvetica,sans-Serif" font-size="10.00">software/nixie_clock</text>
<text text-anchor="start" x="124" y="-18" font-family="Helvetica,sans-Serif" font-size="10.00">_esp32_project/components</text>
<text text-anchor="middle" x="208.5" y="-7" font-family="Helvetica,sans-Serif" font-size="10.00">/dispatcher_task/dispatcher_task.c</text>
</a>
</g>
</g>
<!-- Node1&#45;&gt;Node3 -->
<g id="edge2_Node000001_Node000003" class="edge">
<title>Node1&#45;&gt;Node3</title>
<g id="a_edge2_Node000001_Node000003"><a xlink:title=" ">
<path fill="none" stroke="#63b8ff" d="M336.59,-162.94C281.5,-154.25 217.53,-139.79 200.5,-118 183.42,-96.15 191.68,-62.37 199.71,-41.13"/>
<polygon fill="#63b8ff" stroke="#63b8ff" points="336.34,-166.44 346.76,-164.49 337.4,-159.52 336.34,-166.44"/>
</a>
</g>
</g>
<!-- Node4 -->
<g id="Node000004" class="node">
<title>Node4</title>
<g id="a_Node000004"><a xlink:href="dispatcher__task_8h.html" target="_top" xlink:title=" ">
<polygon fill="white" stroke="#666666" points="395.5,-118 209.5,-118 209.5,-77 395.5,-77 395.5,-118"/>
<text text-anchor="start" x="217.5" y="-106" font-family="Helvetica,sans-Serif" font-size="10.00">software/nixie_clock</text>
<text text-anchor="start" x="217.5" y="-95" font-family="Helvetica,sans-Serif" font-size="10.00">_esp32_project/components</text>
<text text-anchor="middle" x="302.5" y="-84" font-family="Helvetica,sans-Serif" font-size="10.00">/dispatcher_task/dispatcher_task.h</text>
</a>
</g>
</g>
<!-- Node1&#45;&gt;Node4 -->
<g id="edge3_Node000001_Node000004" class="edge">
<title>Node1&#45;&gt;Node4</title>
<g id="a_edge3_Node000001_Node000004"><a xlink:title=" ">
<path fill="none" stroke="#63b8ff" d="M383.4,-148.64C367.42,-138.74 349.28,-127.5 334.24,-118.17"/>
<polygon fill="#63b8ff" stroke="#63b8ff" points="381.68,-151.7 392.02,-153.99 385.37,-145.75 381.68,-151.7"/>
</a>
</g>
</g>
<!-- Node5 -->
<g id="Node000005" class="node">
<title>Node5</title>
<g id="a_Node000005"><a xlink:href="main_8c.html" target="_top" xlink:title=" ">
<polygon fill="white" stroke="#666666" points="486.5,-35.5 332.5,-35.5 332.5,-5.5 486.5,-5.5 486.5,-35.5"/>
<text text-anchor="start" x="340.5" y="-23.5" font-family="Helvetica,sans-Serif" font-size="10.00">software/nixie_clock</text>
<text text-anchor="middle" x="409.5" y="-12.5" font-family="Helvetica,sans-Serif" font-size="10.00">_esp32_project/main/main.c</text>
</a>
</g>
</g>
<!-- Node1&#45;&gt;Node5 -->
<g id="edge9_Node000001_Node000005" class="edge">
<title>Node1&#45;&gt;Node5</title>
<g id="a_edge9_Node000001_Node000005"><a xlink:title=" ">
<path fill="none" stroke="#63b8ff" d="M420.75,-143.63C417.74,-110.98 413.05,-60.05 410.8,-35.57"/>
<polygon fill="#63b8ff" stroke="#63b8ff" points="417.3,-144.3 421.7,-153.94 424.27,-143.66 417.3,-144.3"/>
</a>
</g>
</g>
<!-- Node6 -->
<g id="Node000006" class="node">
<title>Node6</title>
<g id="a_Node000006"><a xlink:href="event__bus_8c.html" target="_top" xlink:title=" ">
<polygon fill="white" stroke="#666666" points="605,-118 452,-118 452,-77 605,-77 605,-118"/>
<text text-anchor="start" x="460" y="-106" font-family="Helvetica,sans-Serif" font-size="10.00">software/nixie_clock</text>
<text text-anchor="start" x="460" y="-95" font-family="Helvetica,sans-Serif" font-size="10.00">_esp32_project/components</text>
<text text-anchor="middle" x="528.5" y="-84" font-family="Helvetica,sans-Serif" font-size="10.00">/event_bus/event_bus.c</text>
</a>
</g>
</g>
<!-- Node1&#45;&gt;Node6 -->
<g id="edge6_Node000001_Node000006" class="edge">
<title>Node1&#45;&gt;Node6</title>
<g id="a_edge6_Node000001_Node000006"><a xlink:title=" ">
<path fill="none" stroke="#63b8ff" d="M459.07,-148.09C472.75,-138.32 488.15,-127.32 500.96,-118.17"/>
<polygon fill="#63b8ff" stroke="#63b8ff" points="456.92,-145.33 450.81,-153.99 460.99,-151.03 456.92,-145.33"/>
</a>
</g>
</g>
<!-- Node7 -->
<g id="Node000007" class="node">
<title>Node7</title>
<g id="a_Node000007"><a xlink:href="gpio__task_8c.html" target="_top" xlink:title=" ">
<polygon fill="white" stroke="#666666" points="776,-118 623,-118 623,-77 776,-77 776,-118"/>
<text text-anchor="start" x="631" y="-106" font-family="Helvetica,sans-Serif" font-size="10.00">software/nixie_clock</text>
<text text-anchor="start" x="631" y="-95" font-family="Helvetica,sans-Serif" font-size="10.00">_esp32_project/components</text>
<text text-anchor="middle" x="699.5" y="-84" font-family="Helvetica,sans-Serif" font-size="10.00">/gpio_task/gpio_task.c</text>
</a>
</g>
</g>
<!-- Node1&#45;&gt;Node7 -->
<g id="edge7_Node000001_Node000007" class="edge">
<title>Node1&#45;&gt;Node7</title>
<g id="a_edge7_Node000001_Node000007"><a xlink:title=" ">
<path fill="none" stroke="#63b8ff" d="M505.02,-151.35C543.9,-140.78 590.02,-128.25 627.59,-118.04"/>
<polygon fill="#63b8ff" stroke="#63b8ff" points="504.03,-147.99 495.3,-153.99 505.86,-154.75 504.03,-147.99"/>
</a>
</g>
</g>
<!-- Node8 -->
<g id="Node000008" class="node">
<title>Node8</title>
<g id="a_Node000008"><a xlink:href="ntp_8c.html" target="_top" xlink:title=" ">
<polygon fill="white" stroke="#666666" points="947,-118 794,-118 794,-77 947,-77 947,-118"/>
<text text-anchor="start" x="802" y="-106" font-family="Helvetica,sans-Serif" font-size="10.00">software/nixie_clock</text>
<text text-anchor="start" x="802" y="-95" font-family="Helvetica,sans-Serif" font-size="10.00">_esp32_project/components</text>
<text text-anchor="middle" x="870.5" y="-84" font-family="Helvetica,sans-Serif" font-size="10.00">/ntp/ntp.c</text>
</a>
</g>
</g>
<!-- Node1&#45;&gt;Node8 -->
<g id="edge8_Node000001_Node000008" class="edge">
<title>Node1&#45;&gt;Node8</title>
<g id="a_edge8_Node000001_Node000008"><a xlink:title=" ">
<path fill="none" stroke="#63b8ff" d="M510.19,-162.03C583.72,-151.87 691.86,-135.9 785.5,-118 788.18,-117.49 790.9,-116.95 793.64,-116.4"/>
<polygon fill="#63b8ff" stroke="#63b8ff" points="509.48,-158.6 500.05,-163.43 510.43,-165.53 509.48,-158.6"/>
</a>
</g>
</g>
<!-- Node4&#45;&gt;Node3 -->
<g id="edge4_Node000004_Node000003" class="edge">
<title>Node4&#45;&gt;Node3</title>
<g id="a_edge4_Node000004_Node000003"><a xlink:title=" ">
<path fill="none" stroke="#63b8ff" d="M269.72,-70.35C257.67,-60.73 244.24,-50.01 233.03,-41.07"/>
<polygon fill="#63b8ff" stroke="#63b8ff" points="267.8,-73.29 277.8,-76.79 272.17,-67.82 267.8,-73.29"/>
</a>
</g>
</g>
<!-- Node4&#45;&gt;Node5 -->
<g id="edge5_Node000004_Node000005" class="edge">
<title>Node4&#45;&gt;Node5</title>
<g id="a_edge5_Node000004_Node000005"><a xlink:title=" ">
<path fill="none" stroke="#63b8ff" d="M338.86,-71.01C355.69,-59.22 375.05,-45.65 389.24,-35.7"/>
<polygon fill="#63b8ff" stroke="#63b8ff" points="336.51,-68.38 330.33,-76.99 340.53,-74.12 336.51,-68.38"/>
</a>
</g>
</g>
</g>
</svg>
