<?xml version="1.0" encoding="UTF-8" standalone="no"?>
<!DOCTYPE svg PUBLIC "-//W3C//DTD SVG 1.1//EN"
 "http://www.w3.org/Graphics/SVG/1.1/DTD/svg11.dtd">
<!-- Generated by graphviz version 2.43.0 (0)
 -->
<!-- Title: software/nixie_clock_esp32_project/components/gpio_task/gpio_task.c Pages: 1 -->
<svg width="665pt" height="236pt"
 viewBox="0.00 0.00 665.00 236.00" xmlns="http://www.w3.org/2000/svg" xmlns:xlink="http://www.w3.org/1999/xlink">
<g id="graph0" class="graph" transform="scale(1 1) rotate(0) translate(4 232)">
<title>software/nixie_clock_esp32_project/components/gpio_task/gpio_task.c</title>
<!-- Node1 -->
<g id="Node000001" class="node">
<title>Node1</title>
<g id="a_Node000001"><a xlink:title=" ">
<polygon fill="#999999" stroke="#666666" points="407,-228 254,-228 254,-187 407,-187 407,-228"/>
<text text-anchor="start" x="262" y="-216" font-family="Helvetica,sans-Serif" font-size="10.00">software/nixie_clock</text>
<text text-anchor="start" x="262" y="-205" font-family="Helvetica,sans-Serif" font-size="10.00">_esp32_project/components</text>
<text text-anchor="middle" x="330.5" y="-194" font-family="Helvetica,sans-Serif" font-size="10.00">/gpio_task/gpio_task.c</text>
</a>
</g>
</g>
<!-- Node2 -->
<g id="Node000002" class="node">
<title>Node2</title>
<g id="a_Node000002"><a xlink:title=" ">
<polygon fill="#e0e0e0" stroke="#999999" points="113,-79.5 0,-79.5 0,-60.5 113,-60.5 113,-79.5"/>
<text text-anchor="middle" x="56.5" y="-67.5" font-family="Helvetica,sans-Serif" font-size="10.00">freertos/FreeRTOS.h</text>
</a>
</g>
</g>
<!-- Node1&#45;&gt;Node2 -->
<g id="edge1_Node000001_Node000002" class="edge">
<title>Node1&#45;&gt;Node2</title>
<g id="a_edge1_Node000001_Node000002"><a xlink:title=" ">
<path fill="none" stroke="#63b8ff" d="M253.81,-198.81C188.19,-190.65 100.48,-175.51 75.5,-151 59.3,-135.1 55.89,-108.09 55.64,-89.91"/>
<polygon fill="#63b8ff" stroke="#63b8ff" points="59.14,-89.96 55.8,-79.9 52.14,-89.84 59.14,-89.96"/>
</a>
</g>
</g>
<!-- Node3 -->
<g id="Node000003" class="node">
<title>Node3</title>
<g id="a_Node000003"><a xlink:title=" ">
<polygon fill="#e0e0e0" stroke="#999999" points="465.5,-145.5 377.5,-145.5 377.5,-126.5 465.5,-126.5 465.5,-145.5"/>
<text text-anchor="middle" x="421.5" y="-133.5" font-family="Helvetica,sans-Serif" font-size="10.00">freertos/task.h</text>
</a>
</g>
</g>
<!-- Node1&#45;&gt;Node3 -->
<g id="edge2_Node000001_Node000003" class="edge">
<title>Node1&#45;&gt;Node3</title>
<g id="a_edge2_Node000001_Node000003"><a xlink:title=" ">
<path fill="none" stroke="#63b8ff" d="M356.33,-186.77C370.82,-175.71 388.59,-162.13 401.92,-151.96"/>
<polygon fill="#63b8ff" stroke="#63b8ff" points="404.13,-154.67 409.95,-145.82 399.88,-149.11 404.13,-154.67"/>
</a>
</g>
</g>
<!-- Node4 -->
<g id="Node000004" class="node">
<title>Node4</title>
<g id="a_Node000004"><a xlink:title=" ">
<polygon fill="#e0e0e0" stroke="#999999" points="575.5,-145.5 483.5,-145.5 483.5,-126.5 575.5,-126.5 575.5,-145.5"/>
<text text-anchor="middle" x="529.5" y="-133.5" font-family="Helvetica,sans-Serif" font-size="10.00">esp_task_wdt.h</text>
</a>
</g>
</g>
<!-- Node1&#45;&gt;Node4 -->
<g id="edge3_Node000001_Node000004" class="edge">
<title>Node1&#45;&gt;Node4</title>
<g id="a_edge3_Node000001_Node000004"><a xlink:title=" ">
<path fill="none" stroke="#63b8ff" d="M386.46,-186.96C421.58,-174.69 465.71,-159.28 495.6,-148.84"/>
<polygon fill="#63b8ff" stroke="#63b8ff" points="496.86,-152.11 505.15,-145.5 494.56,-145.5 496.86,-152.11"/>
</a>
</g>
</g>
<!-- Node5 -->
<g id="Node000005" class="node">
<title>Node5</title>
<g id="a_Node000005"><a xlink:title=" ">
<polygon fill="#e0e0e0" stroke="#999999" points="657,-145.5 594,-145.5 594,-126.5 657,-126.5 657,-145.5"/>
<text text-anchor="middle" x="625.5" y="-133.5" font-family="Helvetica,sans-Serif" font-size="10.00">esp_log.h</text>
</a>
</g>
</g>
<!-- Node1&#45;&gt;Node5 -->
<g id="edge4_Node000001_Node000005" class="edge">
<title>Node1&#45;&gt;Node5</title>
<g id="a_edge4_Node000001_Node000005"><a xlink:title=" ">
<path fill="none" stroke="#63b8ff" d="M407.19,-192.11C457.88,-182.02 525.59,-167.44 584.5,-151 586.97,-150.31 589.51,-149.56 592.06,-148.77"/>
<polygon fill="#63b8ff" stroke="#63b8ff" points="593.36,-152.02 601.8,-145.61 591.2,-145.36 593.36,-152.02"/>
</a>
</g>
</g>
<!-- Node6 -->
<g id="Node000006" class="node">
<title>Node6</title>
<g id="a_Node000006"><a xlink:href="gpio__task_8h.html" target="_top" xlink:title=" ">
<polygon fill="white" stroke="#666666" points="283,-145.5 210,-145.5 210,-126.5 283,-126.5 283,-145.5"/>
<text text-anchor="middle" x="246.5" y="-133.5" font-family="Helvetica,sans-Serif" font-size="10.00">gpio_task.h</text>
</a>
</g>
</g>
<!-- Node1&#45;&gt;Node6 -->
<g id="edge5_Node000001_Node000006" class="edge">
<title>Node1&#45;&gt;Node6</title>
<g id="a_edge5_Node000001_Node000006"><a xlink:title=" ">
<path fill="none" stroke="#63b8ff" d="M306.65,-186.77C293.41,-175.81 277.19,-162.39 264.93,-152.25"/>
<polygon fill="#63b8ff" stroke="#63b8ff" points="267.1,-149.5 257.16,-145.82 262.63,-154.89 267.1,-149.5"/>
</a>
</g>
</g>
<!-- Node8 -->
<g id="Node000008" class="node">
<title>Node8</title>
<g id="a_Node000008"><a xlink:href="gpio__driver_8h.html" target="_top" xlink:title=" ">
<polygon fill="white" stroke="#666666" points="350.5,-85 246.5,-85 246.5,-55 350.5,-55 350.5,-85"/>
<text text-anchor="start" x="254.5" y="-73" font-family="Helvetica,sans-Serif" font-size="10.00">../gpio_driver/gpio</text>
<text text-anchor="middle" x="298.5" y="-62" font-family="Helvetica,sans-Serif" font-size="10.00">_driver.h</text>
</a>
</g>
</g>
<!-- Node1&#45;&gt;Node8 -->
<g id="edge12_Node000001_Node000008" class="edge">
<title>Node1&#45;&gt;Node8</title>
<g id="a_edge12_Node000001_Node000008"><a xlink:title=" ">
<path fill="none" stroke="#63b8ff" d="M325.85,-186.8C320.12,-162.54 310.39,-121.36 304.22,-95.2"/>
<polygon fill="#63b8ff" stroke="#63b8ff" points="307.59,-94.26 301.88,-85.33 300.78,-95.87 307.59,-94.26"/>
</a>
</g>
</g>
<!-- Node11 -->
<g id="Node000011" class="node">
<title>Node11</title>
<g id="a_Node000011"><a xlink:href="rotary__encoder_8h.html" target="_top" xlink:title=" ">
<polygon fill="white" stroke="#666666" points="500,-85 369,-85 369,-55 500,-55 500,-85"/>
<text text-anchor="start" x="377" y="-73" font-family="Helvetica,sans-Serif" font-size="10.00">../rotary_encoder/rotary</text>
<text text-anchor="middle" x="434.5" y="-62" font-family="Helvetica,sans-Serif" font-size="10.00">_encoder.h</text>
</a>
</g>
</g>
<!-- Node1&#45;&gt;Node11 -->
<g id="edge13_Node000001_Node000011" class="edge">
<title>Node1&#45;&gt;Node11</title>
<g id="a_edge13_Node000001_Node000011"><a xlink:title=" ">
<path fill="none" stroke="#63b8ff" d="M336.05,-187C341.95,-168.61 352.66,-140.98 368.5,-121 377.61,-109.51 389.94,-99.24 401.47,-91.04"/>
<polygon fill="#63b8ff" stroke="#63b8ff" points="403.78,-93.71 410.07,-85.19 399.84,-87.92 403.78,-93.71"/>
</a>
</g>
</g>
<!-- Node12 -->
<g id="Node000012" class="node">
<title>Node12</title>
<g id="a_Node000012"><a xlink:href="event__bus_8h.html" target="_top" xlink:title=" ">
<polygon fill="white" stroke="#666666" points="192,-151 85,-151 85,-121 192,-121 192,-151"/>
<text text-anchor="start" x="93" y="-139" font-family="Helvetica,sans-Serif" font-size="10.00">../event_bus/event</text>
<text text-anchor="middle" x="138.5" y="-128" font-family="Helvetica,sans-Serif" font-size="10.00">_bus.h</text>
</a>
</g>
</g>
<!-- Node1&#45;&gt;Node12 -->
<g id="edge14_Node000001_Node000012" class="edge">
<title>Node1&#45;&gt;Node12</title>
<g id="a_edge14_Node000001_Node000012"><a xlink:title=" ">
<path fill="none" stroke="#63b8ff" d="M276.51,-186.96C248.35,-176.76 214.2,-164.4 186.91,-154.52"/>
<polygon fill="#63b8ff" stroke="#63b8ff" points="187.78,-151.12 177.19,-151 185.4,-157.7 187.78,-151.12"/>
</a>
</g>
</g>
<!-- Node6&#45;&gt;Node2 -->
<g id="edge6_Node000006_Node000002" class="edge">
<title>Node6&#45;&gt;Node2</title>
<g id="a_edge6_Node000006_Node000002"><a xlink:title=" ">
<path fill="none" stroke="#63b8ff" d="M220.88,-126.37C187.49,-115.12 128.99,-95.42 91.53,-82.8"/>
<polygon fill="#63b8ff" stroke="#63b8ff" points="92.62,-79.47 82.02,-79.6 90.38,-86.11 92.62,-79.47"/>
</a>
</g>
</g>
<!-- Node7 -->
<g id="Node000007" class="node">
<title>Node7</title>
<g id="a_Node000007"><a xlink:title=" ">
<polygon fill="#e0e0e0" stroke="#999999" points="228,-79.5 131,-79.5 131,-60.5 228,-60.5 228,-79.5"/>
<text text-anchor="middle" x="179.5" y="-67.5" font-family="Helvetica,sans-Serif" font-size="10.00">freertos/queue.h</text>
</a>
</g>
</g>
<!-- Node6&#45;&gt;Node7 -->
<g id="edge7_Node000006_Node000007" class="edge">
<title>Node6&#45;&gt;Node7</title>
<g id="a_edge7_Node000006_Node000007"><a xlink:title=" ">
<path fill="none" stroke="#63b8ff" d="M237.46,-126.37C226.93,-116.31 209.31,-99.48 196.26,-87.01"/>
<polygon fill="#63b8ff" stroke="#63b8ff" points="198.47,-84.28 188.82,-79.91 193.64,-89.34 198.47,-84.28"/>
</a>
</g>
</g>
<!-- Node6&#45;&gt;Node8 -->
<g id="edge8_Node000006_Node000008" class="edge">
<title>Node6&#45;&gt;Node8</title>
<g id="a_edge8_Node000006_Node000008"><a xlink:title=" ">
<path fill="none" stroke="#63b8ff" d="M253.51,-126.37C260.38,-117.91 271.14,-104.67 280.42,-93.25"/>
<polygon fill="#63b8ff" stroke="#63b8ff" points="283.24,-95.33 286.83,-85.36 277.81,-90.91 283.24,-95.33"/>
</a>
</g>
</g>
<!-- Node6&#45;&gt;Node11 -->
<g id="edge11_Node000006_Node000011" class="edge">
<title>Node6&#45;&gt;Node11</title>
<g id="a_edge11_Node000006_Node000011"><a xlink:title=" ">
<path fill="none" stroke="#63b8ff" d="M271.85,-126.37C300.25,-116.7 347.04,-100.77 383.15,-88.48"/>
<polygon fill="#63b8ff" stroke="#63b8ff" points="384.7,-91.65 393.04,-85.12 382.44,-85.03 384.7,-91.65"/>
</a>
</g>
</g>
<!-- Node9 -->
<g id="Node000009" class="node">
<title>Node9</title>
<g id="a_Node000009"><a xlink:title=" ">
<polygon fill="#e0e0e0" stroke="#999999" points="293.5,-19 215.5,-19 215.5,0 293.5,0 293.5,-19"/>
<text text-anchor="middle" x="254.5" y="-7" font-family="Helvetica,sans-Serif" font-size="10.00">driver/gpio.h</text>
</a>
</g>
</g>
<!-- Node8&#45;&gt;Node9 -->
<g id="edge9_Node000008_Node000009" class="edge">
<title>Node8&#45;&gt;Node9</title>
<g id="a_edge9_Node000008_Node000009"><a xlink:title=" ">
<path fill="none" stroke="#63b8ff" d="M287.85,-54.84C281.66,-46.61 273.81,-36.18 267.29,-27.51"/>
<polygon fill="#63b8ff" stroke="#63b8ff" points="269.9,-25.15 261.09,-19.27 264.31,-29.36 269.9,-25.15"/>
</a>
</g>
</g>
<!-- Node10 -->
<g id="Node000010" class="node">
<title>Node10</title>
<g id="a_Node000010"><a xlink:title=" ">
<polygon fill="#e0e0e0" stroke="#999999" points="373,-19 312,-19 312,0 373,0 373,-19"/>
<text text-anchor="middle" x="342.5" y="-7" font-family="Helvetica,sans-Serif" font-size="10.00">esp_err.h</text>
</a>
</g>
</g>
<!-- Node8&#45;&gt;Node10 -->
<g id="edge10_Node000008_Node000010" class="edge">
<title>Node8&#45;&gt;Node10</title>
<g id="a_edge10_Node000008_Node000010"><a xlink:title=" ">
<path fill="none" stroke="#63b8ff" d="M309.15,-54.84C315.34,-46.61 323.19,-36.18 329.71,-27.51"/>
<polygon fill="#63b8ff" stroke="#63b8ff" points="332.69,-29.36 335.91,-19.27 327.1,-25.15 332.69,-29.36"/>
</a>
</g>
</g>
<!-- Node12&#45;&gt;Node2 -->
<g id="edge15_Node000012_Node000002" class="edge">
<title>Node12&#45;&gt;Node2</title>
<g id="a_edge15_Node000012_Node000002"><a xlink:title=" ">
<path fill="none" stroke="#63b8ff" d="M120.3,-120.8C107.14,-110.53 89.39,-96.67 75.95,-86.18"/>
<polygon fill="#63b8ff" stroke="#63b8ff" points="77.87,-83.24 67.83,-79.84 73.56,-88.76 77.87,-83.24"/>
</a>
</g>
</g>
<!-- Node12&#45;&gt;Node7 -->
<g id="edge16_Node000012_Node000007" class="edge">
<title>Node12&#45;&gt;Node7</title>
<g id="a_edge16_Node000012_Node000007"><a xlink:title=" ">
<path fill="none" stroke="#63b8ff" d="M147.6,-120.8C153.74,-111.21 161.88,-98.5 168.4,-88.32"/>
<polygon fill="#63b8ff" stroke="#63b8ff" points="171.39,-90.15 173.83,-79.84 165.49,-86.38 171.39,-90.15"/>
</a>
</g>
</g>
</g>
</svg>
