<?xml version="1.0" encoding="UTF-8" standalone="no"?>
<!DOCTYPE svg PUBLIC "-//W3C//DTD SVG 1.1//EN"
 "http://www.w3.org/Graphics/SVG/1.1/DTD/svg11.dtd">
<!-- Generated by graphviz version 2.43.0 (0)
 -->
<!-- Title: software/nixie_clock_esp32_project/main/gpio_task.c Pages: 1 -->
<svg width="742pt" height="225pt"
 viewBox="0.00 0.00 742.00 225.00" xmlns="http://www.w3.org/2000/svg" xmlns:xlink="http://www.w3.org/1999/xlink">
<g id="graph0" class="graph" transform="scale(1 1) rotate(0) translate(4 221)">
<title>software/nixie_clock_esp32_project/main/gpio_task.c</title>
<!-- Node1 -->
<g id="Node000001" class="node">
<title>Node1</title>
<g id="a_Node000001"><a xlink:title=" ">
<polygon fill="#999999" stroke="#666666" points="431.5,-217 289.5,-217 289.5,-176 431.5,-176 431.5,-217"/>
<text text-anchor="start" x="297.5" y="-205" font-family="Helvetica,sans-Serif" font-size="10.00">software/nixie_clock</text>
<text text-anchor="start" x="297.5" y="-194" font-family="Helvetica,sans-Serif" font-size="10.00">_esp32_project/main/gpio</text>
<text text-anchor="middle" x="360.5" y="-183" font-family="Helvetica,sans-Serif" font-size="10.00">_task.c</text>
</a>
</g>
</g>
<!-- Node2 -->
<g id="Node000002" class="node">
<title>Node2</title>
<g id="a_Node000002"><a xlink:title=" ">
<polygon fill="#e0e0e0" stroke="#999999" points="113,-74 0,-74 0,-55 113,-55 113,-74"/>
<text text-anchor="middle" x="56.5" y="-62" font-family="Helvetica,sans-Serif" font-size="10.00">freertos/FreeRTOS.h</text>
</a>
</g>
</g>
<!-- Node1&#45;&gt;Node2 -->
<g id="edge1_Node000001_Node000002" class="edge">
<title>Node1&#45;&gt;Node2</title>
<g id="a_edge1_Node000001_Node000002"><a xlink:title=" ">
<path fill="none" stroke="#63b8ff" d="M289.49,-178.98C254.38,-169.62 211.85,-156.47 175.5,-140 138.46,-123.22 99.15,-96.66 76.27,-80.21"/>
<polygon fill="#63b8ff" stroke="#63b8ff" points="78.21,-77.29 68.06,-74.23 74.09,-82.95 78.21,-77.29"/>
</a>
</g>
</g>
<!-- Node3 -->
<g id="Node000003" class="node">
<title>Node3</title>
<g id="a_Node000003"><a xlink:title=" ">
<polygon fill="#e0e0e0" stroke="#999999" points="440.5,-134.5 352.5,-134.5 352.5,-115.5 440.5,-115.5 440.5,-134.5"/>
<text text-anchor="middle" x="396.5" y="-122.5" font-family="Helvetica,sans-Serif" font-size="10.00">freertos/task.h</text>
</a>
</g>
</g>
<!-- Node1&#45;&gt;Node3 -->
<g id="edge2_Node000001_Node000003" class="edge">
<title>Node1&#45;&gt;Node3</title>
<g id="a_edge2_Node000001_Node000003"><a xlink:title=" ">
<path fill="none" stroke="#63b8ff" d="M370.72,-175.77C375.9,-165.76 382.15,-153.7 387.2,-143.95"/>
<polygon fill="#63b8ff" stroke="#63b8ff" points="390.44,-145.31 391.93,-134.82 384.22,-142.09 390.44,-145.31"/>
</a>
</g>
</g>
<!-- Node4 -->
<g id="Node000004" class="node">
<title>Node4</title>
<g id="a_Node000004"><a xlink:href="gpio__task_8h.html" target="_top" xlink:title=" ">
<polygon fill="white" stroke="#666666" points="258,-134.5 185,-134.5 185,-115.5 258,-115.5 258,-134.5"/>
<text text-anchor="middle" x="221.5" y="-122.5" font-family="Helvetica,sans-Serif" font-size="10.00">gpio_task.h</text>
</a>
</g>
</g>
<!-- Node1&#45;&gt;Node4 -->
<g id="edge3_Node000001_Node000004" class="edge">
<title>Node1&#45;&gt;Node4</title>
<g id="a_edge3_Node000001_Node000004"><a xlink:title=" ">
<path fill="none" stroke="#63b8ff" d="M321.41,-175.96C297.84,-164.17 268.46,-149.48 247.68,-139.09"/>
<polygon fill="#63b8ff" stroke="#63b8ff" points="249.02,-135.85 238.51,-134.5 245.89,-142.11 249.02,-135.85"/>
</a>
</g>
</g>
<!-- Node6 -->
<g id="Node000006" class="node">
<title>Node6</title>
<g id="a_Node000006"><a xlink:href="gpio__driver_8h.html" target="_top" xlink:title=" ">
<polygon fill="white" stroke="#666666" points="326.5,-74 246.5,-74 246.5,-55 326.5,-55 326.5,-74"/>
<text text-anchor="middle" x="286.5" y="-62" font-family="Helvetica,sans-Serif" font-size="10.00">gpio_driver.h</text>
</a>
</g>
</g>
<!-- Node1&#45;&gt;Node6 -->
<g id="edge10_Node000001_Node000006" class="edge">
<title>Node1&#45;&gt;Node6</title>
<g id="a_edge10_Node000001_Node000006"><a xlink:title=" ">
<path fill="none" stroke="#63b8ff" d="M349.26,-175.76C334.83,-150.41 310.03,-106.84 296.32,-82.76"/>
<polygon fill="#63b8ff" stroke="#63b8ff" points="299.33,-80.97 291.35,-74.01 293.25,-84.43 299.33,-80.97"/>
</a>
</g>
</g>
<!-- Node9 -->
<g id="Node000009" class="node">
<title>Node9</title>
<g id="a_Node000009"><a xlink:href="rotary__encoder_8h.html" target="_top" xlink:title=" ">
<polygon fill="white" stroke="#666666" points="442.5,-74 344.5,-74 344.5,-55 442.5,-55 442.5,-74"/>
<text text-anchor="middle" x="393.5" y="-62" font-family="Helvetica,sans-Serif" font-size="10.00">rotary_encoder.h</text>
</a>
</g>
</g>
<!-- Node1&#45;&gt;Node9 -->
<g id="edge11_Node000001_Node000009" class="edge">
<title>Node1&#45;&gt;Node9</title>
<g id="a_edge11_Node000001_Node000009"><a xlink:title=" ">
<path fill="none" stroke="#63b8ff" d="M350.01,-175.72C342.05,-157.89 333.96,-131.26 343.5,-110 349,-97.74 359.73,-87.48 369.85,-79.91"/>
<polygon fill="#63b8ff" stroke="#63b8ff" points="371.85,-82.78 378.07,-74.2 367.86,-77.03 371.85,-82.78"/>
</a>
</g>
</g>
<!-- Node10 -->
<g id="Node000010" class="node">
<title>Node10</title>
<g id="a_Node000010"><a xlink:title=" ">
<polygon fill="#e0e0e0" stroke="#999999" points="522,-134.5 459,-134.5 459,-115.5 522,-115.5 522,-134.5"/>
<text text-anchor="middle" x="490.5" y="-122.5" font-family="Helvetica,sans-Serif" font-size="10.00">esp_log.h</text>
</a>
</g>
</g>
<!-- Node1&#45;&gt;Node10 -->
<g id="edge12_Node000001_Node000010" class="edge">
<title>Node1&#45;&gt;Node10</title>
<g id="a_edge12_Node000001_Node000010"><a xlink:title=" ">
<path fill="none" stroke="#63b8ff" d="M397.06,-175.96C419,-164.22 446.33,-149.61 465.75,-139.23"/>
<polygon fill="#63b8ff" stroke="#63b8ff" points="467.43,-142.3 474.59,-134.5 464.13,-136.13 467.43,-142.3"/>
</a>
</g>
</g>
<!-- Node11 -->
<g id="Node000011" class="node">
<title>Node11</title>
<g id="a_Node000011"><a xlink:href="esp__stub_8h.html" target="_top" xlink:title=" ">
<polygon fill="white" stroke="#666666" points="609,-134.5 540,-134.5 540,-115.5 609,-115.5 609,-134.5"/>
<text text-anchor="middle" x="574.5" y="-122.5" font-family="Helvetica,sans-Serif" font-size="10.00">esp_stub.h</text>
</a>
</g>
</g>
<!-- Node1&#45;&gt;Node11 -->
<g id="edge13_Node000001_Node000011" class="edge">
<title>Node1&#45;&gt;Node11</title>
<g id="a_edge13_Node000001_Node000011"><a xlink:title=" ">
<path fill="none" stroke="#63b8ff" d="M420.65,-175.99C453.42,-165.36 494.69,-151.96 531.5,-140 533.77,-139.26 536.1,-138.5 538.46,-137.74"/>
<polygon fill="#63b8ff" stroke="#63b8ff" points="539.7,-141.02 548.12,-134.59 537.53,-134.36 539.7,-141.02"/>
</a>
</g>
</g>
<!-- Node12 -->
<g id="Node000012" class="node">
<title>Node12</title>
<g id="a_Node000012"><a xlink:title=" ">
<polygon fill="#e0e0e0" stroke="#999999" points="734,-140 627,-140 627,-110 734,-110 734,-140"/>
<text text-anchor="start" x="635" y="-128" font-family="Helvetica,sans-Serif" font-size="10.00">../event_bus/event</text>
<text text-anchor="middle" x="680.5" y="-117" font-family="Helvetica,sans-Serif" font-size="10.00">_bus.h</text>
</a>
</g>
</g>
<!-- Node1&#45;&gt;Node12 -->
<g id="edge14_Node000001_Node000012" class="edge">
<title>Node1&#45;&gt;Node12</title>
<g id="a_edge14_Node000001_Node000012"><a xlink:title=" ">
<path fill="none" stroke="#63b8ff" d="M431.72,-180.38C481.12,-169.85 548.72,-155.34 616.71,-140.38"/>
<polygon fill="#63b8ff" stroke="#63b8ff" points="617.73,-143.74 626.74,-138.17 616.22,-136.91 617.73,-143.74"/>
</a>
</g>
</g>
<!-- Node4&#45;&gt;Node2 -->
<g id="edge4_Node000004_Node000002" class="edge">
<title>Node4&#45;&gt;Node2</title>
<g id="a_edge4_Node000004_Node000002"><a xlink:title=" ">
<path fill="none" stroke="#63b8ff" d="M197.51,-115.49C169.28,-105.49 122.22,-88.8 90.31,-77.49"/>
<polygon fill="#63b8ff" stroke="#63b8ff" points="91.12,-74.06 80.52,-74.02 88.78,-80.66 91.12,-74.06"/>
</a>
</g>
</g>
<!-- Node5 -->
<g id="Node000005" class="node">
<title>Node5</title>
<g id="a_Node000005"><a xlink:title=" ">
<polygon fill="#e0e0e0" stroke="#999999" points="228,-74 131,-74 131,-55 228,-55 228,-74"/>
<text text-anchor="middle" x="179.5" y="-62" font-family="Helvetica,sans-Serif" font-size="10.00">freertos/queue.h</text>
</a>
</g>
</g>
<!-- Node4&#45;&gt;Node5 -->
<g id="edge5_Node000004_Node000005" class="edge">
<title>Node4&#45;&gt;Node5</title>
<g id="a_edge5_Node000004_Node000005"><a xlink:title=" ">
<path fill="none" stroke="#63b8ff" d="M215.3,-115.37C209.1,-106.73 199.39,-93.2 191.64,-82.42"/>
<polygon fill="#63b8ff" stroke="#63b8ff" points="194.4,-80.25 185.72,-74.17 188.71,-84.33 194.4,-80.25"/>
</a>
</g>
</g>
<!-- Node4&#45;&gt;Node6 -->
<g id="edge6_Node000004_Node000006" class="edge">
<title>Node4&#45;&gt;Node6</title>
<g id="a_edge6_Node000004_Node000006"><a xlink:title=" ">
<path fill="none" stroke="#63b8ff" d="M231.09,-115.37C241.08,-106.38 256.93,-92.11 269.13,-81.14"/>
<polygon fill="#63b8ff" stroke="#63b8ff" points="271.78,-83.46 276.87,-74.17 267.1,-78.26 271.78,-83.46"/>
</a>
</g>
</g>
<!-- Node4&#45;&gt;Node9 -->
<g id="edge9_Node000004_Node000009" class="edge">
<title>Node4&#45;&gt;Node9</title>
<g id="a_edge9_Node000004_Node000009"><a xlink:title=" ">
<path fill="none" stroke="#63b8ff" d="M246.51,-115.49C276.06,-105.44 325.41,-88.66 358.69,-77.34"/>
<polygon fill="#63b8ff" stroke="#63b8ff" points="360.12,-80.55 368.46,-74.02 357.87,-73.92 360.12,-80.55"/>
</a>
</g>
</g>
<!-- Node7 -->
<g id="Node000007" class="node">
<title>Node7</title>
<g id="a_Node000007"><a xlink:title=" ">
<polygon fill="#e0e0e0" stroke="#999999" points="281.5,-19 203.5,-19 203.5,0 281.5,0 281.5,-19"/>
<text text-anchor="middle" x="242.5" y="-7" font-family="Helvetica,sans-Serif" font-size="10.00">driver/gpio.h</text>
</a>
</g>
</g>
<!-- Node6&#45;&gt;Node7 -->
<g id="edge7_Node000006_Node000007" class="edge">
<title>Node6&#45;&gt;Node7</title>
<g id="a_edge7_Node000006_Node000007"><a xlink:title=" ">
<path fill="none" stroke="#63b8ff" d="M279.23,-54.75C272.96,-47.18 263.71,-36.05 256.07,-26.84"/>
<polygon fill="#63b8ff" stroke="#63b8ff" points="258.71,-24.55 249.63,-19.09 253.33,-29.02 258.71,-24.55"/>
</a>
</g>
</g>
<!-- Node8 -->
<g id="Node000008" class="node">
<title>Node8</title>
<g id="a_Node000008"><a xlink:title=" ">
<polygon fill="#e0e0e0" stroke="#999999" points="361,-19 300,-19 300,0 361,0 361,-19"/>
<text text-anchor="middle" x="330.5" y="-7" font-family="Helvetica,sans-Serif" font-size="10.00">esp_err.h</text>
</a>
</g>
</g>
<!-- Node6&#45;&gt;Node8 -->
<g id="edge8_Node000006_Node000008" class="edge">
<title>Node6&#45;&gt;Node8</title>
<g id="a_edge8_Node000006_Node000008"><a xlink:title=" ">
<path fill="none" stroke="#63b8ff" d="M293.77,-54.75C300.04,-47.18 309.29,-36.05 316.93,-26.84"/>
<polygon fill="#63b8ff" stroke="#63b8ff" points="319.67,-29.02 323.37,-19.09 314.29,-24.55 319.67,-29.02"/>
</a>
</g>
</g>
</g>
</svg>
