<?xml version="1.0" encoding="UTF-8" standalone="no"?>
<!DOCTYPE svg PUBLIC "-//W3C//DTD SVG 1.1//EN"
 "http://www.w3.org/Graphics/SVG/1.1/DTD/svg11.dtd">
<!-- Generated by graphviz version 2.43.0 (0)
 -->
<!-- Title: software/nixie_clock_esp32_project/components/gpio_driver/gpio_driver.h Pages: 1 -->
<svg width="523pt" height="203pt"
 viewBox="0.00 0.00 523.00 203.00" xmlns="http://www.w3.org/2000/svg" xmlns:xlink="http://www.w3.org/1999/xlink">
<g id="graph0" class="graph" transform="scale(1 1) rotate(0) translate(4 199)">
<title>software/nixie_clock_esp32_project/components/gpio_driver/gpio_driver.h</title>
<!-- Node1 -->
<g id="Node000001" class="node">
<title>Node1</title>
<g id="a_Node000001"><a xlink:title=" ">
<polygon fill="#999999" stroke="#666666" points="324,-195 171,-195 171,-154 324,-154 324,-195"/>
<text text-anchor="start" x="179" y="-183" font-family="Helvetica,sans-Serif" font-size="10.00">software/nixie_clock</text>
<text text-anchor="start" x="179" y="-172" font-family="Helvetica,sans-Serif" font-size="10.00">_esp32_project/components</text>
<text text-anchor="middle" x="247.5" y="-161" font-family="Helvetica,sans-Serif" font-size="10.00">/gpio_driver/gpio_driver.h</text>
</a>
</g>
</g>
<!-- Node2 -->
<g id="Node000002" class="node">
<title>Node2</title>
<g id="a_Node000002"><a xlink:href="clock__task_8c.html" target="_top" xlink:title=" ">
<polygon fill="white" stroke="#666666" points="153,-41 0,-41 0,0 153,0 153,-41"/>
<text text-anchor="start" x="8" y="-29" font-family="Helvetica,sans-Serif" font-size="10.00">software/nixie_clock</text>
<text text-anchor="start" x="8" y="-18" font-family="Helvetica,sans-Serif" font-size="10.00">_esp32_project/components</text>
<text text-anchor="middle" x="76.5" y="-7" font-family="Helvetica,sans-Serif" font-size="10.00">/clock_task/clock_task.c</text>
</a>
</g>
</g>
<!-- Node1&#45;&gt;Node2 -->
<g id="edge1_Node000001_Node000002" class="edge">
<title>Node1&#45;&gt;Node2</title>
<g id="a_edge1_Node000001_Node000002"><a xlink:title=" ">
<path fill="none" stroke="#63b8ff" d="M161.05,-166.42C129.19,-159.13 96.12,-145 76.5,-118 60.35,-95.77 64.89,-62.42 70.24,-41.32"/>
<polygon fill="#63b8ff" stroke="#63b8ff" points="160.37,-169.86 170.88,-168.48 161.8,-163.01 160.37,-169.86"/>
</a>
</g>
</g>
<!-- Node3 -->
<g id="Node000003" class="node">
<title>Node3</title>
<g id="a_Node000003"><a xlink:href="gpio__driver_8c.html" target="_top" xlink:title=" ">
<polygon fill="white" stroke="#666666" points="239,-118 86,-118 86,-77 239,-77 239,-118"/>
<text text-anchor="start" x="94" y="-106" font-family="Helvetica,sans-Serif" font-size="10.00">software/nixie_clock</text>
<text text-anchor="start" x="94" y="-95" font-family="Helvetica,sans-Serif" font-size="10.00">_esp32_project/components</text>
<text text-anchor="middle" x="162.5" y="-84" font-family="Helvetica,sans-Serif" font-size="10.00">/gpio_driver/gpio_driver.c</text>
</a>
</g>
</g>
<!-- Node1&#45;&gt;Node3 -->
<g id="edge2_Node000001_Node000003" class="edge">
<title>Node1&#45;&gt;Node3</title>
<g id="a_edge2_Node000001_Node000003"><a xlink:title=" ">
<path fill="none" stroke="#63b8ff" d="M217.55,-147.07C206.73,-137.52 194.72,-126.93 184.68,-118.07"/>
<polygon fill="#63b8ff" stroke="#63b8ff" points="215.35,-149.8 225.17,-153.79 219.98,-144.55 215.35,-149.8"/>
</a>
</g>
</g>
<!-- Node4 -->
<g id="Node000004" class="node">
<title>Node4</title>
<g id="a_Node000004"><a xlink:href="gpio__task_8c.html" target="_top" xlink:title=" ">
<polygon fill="white" stroke="#666666" points="515,-41 362,-41 362,0 515,0 515,-41"/>
<text text-anchor="start" x="370" y="-29" font-family="Helvetica,sans-Serif" font-size="10.00">software/nixie_clock</text>
<text text-anchor="start" x="370" y="-18" font-family="Helvetica,sans-Serif" font-size="10.00">_esp32_project/components</text>
<text text-anchor="middle" x="438.5" y="-7" font-family="Helvetica,sans-Serif" font-size="10.00">/gpio_task/gpio_task.c</text>
</a>
</g>
</g>
<!-- Node1&#45;&gt;Node4 -->
<g id="edge3_Node000001_Node000004" class="edge">
<title>Node1&#45;&gt;Node4</title>
<g id="a_edge3_Node000001_Node000004"><a xlink:title=" ">
<path fill="none" stroke="#63b8ff" d="M334.28,-163.88C365.23,-156.18 397.78,-142.44 419.5,-118 438.33,-96.81 440.73,-62.53 440.09,-41.04"/>
<polygon fill="#63b8ff" stroke="#63b8ff" points="333.27,-160.53 324.3,-166.18 334.83,-167.35 333.27,-160.53"/>
</a>
</g>
</g>
<!-- Node5 -->
<g id="Node000005" class="node">
<title>Node5</title>
<g id="a_Node000005"><a xlink:href="gpio__task_8h.html" target="_top" xlink:title=" ">
<polygon fill="white" stroke="#666666" points="410,-118 257,-118 257,-77 410,-77 410,-118"/>
<text text-anchor="start" x="265" y="-106" font-family="Helvetica,sans-Serif" font-size="10.00">software/nixie_clock</text>
<text text-anchor="start" x="265" y="-95" font-family="Helvetica,sans-Serif" font-size="10.00">_esp32_project/components</text>
<text text-anchor="middle" x="333.5" y="-84" font-family="Helvetica,sans-Serif" font-size="10.00">/gpio_task/gpio_task.h</text>
</a>
</g>
</g>
<!-- Node1&#45;&gt;Node5 -->
<g id="edge4_Node000001_Node000005" class="edge">
<title>Node1&#45;&gt;Node5</title>
<g id="a_edge4_Node000001_Node000005"><a xlink:title=" ">
<path fill="none" stroke="#63b8ff" d="M277.81,-147.07C288.75,-137.52 300.9,-126.93 311.06,-118.07"/>
<polygon fill="#63b8ff" stroke="#63b8ff" points="275.33,-144.58 270.1,-153.79 279.93,-149.86 275.33,-144.58"/>
</a>
</g>
</g>
<!-- Node5&#45;&gt;Node2 -->
<g id="edge5_Node000005_Node000002" class="edge">
<title>Node5&#45;&gt;Node2</title>
<g id="a_edge5_Node000005_Node000002"><a xlink:title=" ">
<path fill="none" stroke="#63b8ff" d="M256.67,-74.08C220.66,-63.57 178.15,-51.16 143.46,-41.04"/>
<polygon fill="#63b8ff" stroke="#63b8ff" points="256.07,-77.55 266.65,-76.99 258.03,-70.83 256.07,-77.55"/>
</a>
</g>
</g>
<!-- Node5&#45;&gt;Node4 -->
<g id="edge6_Node000005_Node000004" class="edge">
<title>Node5&#45;&gt;Node4</title>
<g id="a_edge6_Node000005_Node000004"><a xlink:title=" ">
<path fill="none" stroke="#63b8ff" d="M369.07,-71.09C382.75,-61.32 398.15,-50.32 410.96,-41.17"/>
<polygon fill="#63b8ff" stroke="#63b8ff" points="366.92,-68.33 360.81,-76.99 370.99,-74.03 366.92,-68.33"/>
</a>
</g>
</g>
<!-- Node6 -->
<g id="Node000006" class="node">
<title>Node6</title>
<g id="a_Node000006"><a xlink:href="main_8c.html" target="_top" xlink:title=" ">
<polygon fill="white" stroke="#666666" points="343.5,-35.5 189.5,-35.5 189.5,-5.5 343.5,-5.5 343.5,-35.5"/>
<text text-anchor="start" x="197.5" y="-23.5" font-family="Helvetica,sans-Serif" font-size="10.00">software/nixie_clock</text>
<text text-anchor="middle" x="266.5" y="-12.5" font-family="Helvetica,sans-Serif" font-size="10.00">_esp32_project/main/main.c</text>
</a>
</g>
</g>
<!-- Node5&#45;&gt;Node6 -->
<g id="edge7_Node000005_Node000006" class="edge">
<title>Node5&#45;&gt;Node6</title>
<g id="a_edge7_Node000005_Node000006"><a xlink:title=" ">
<path fill="none" stroke="#63b8ff" d="M309.15,-69.24C299.05,-57.94 287.76,-45.3 279.33,-35.86"/>
<polygon fill="#63b8ff" stroke="#63b8ff" points="306.62,-71.67 315.9,-76.79 311.84,-67.01 306.62,-71.67"/>
</a>
</g>
</g>
</g>
</svg>
