<?xml version="1.0" encoding="UTF-8" standalone="no"?>
<!DOCTYPE svg PUBLIC "-//W3C//DTD SVG 1.1//EN"
 "http://www.w3.org/Graphics/SVG/1.1/DTD/svg11.dtd">
<!-- Generated by graphviz version 2.43.0 (0)
 -->
<!-- Title: software/nixie_clock_esp32_project/main/gpio_task.h Pages: 1 -->
<svg width="451pt" height="159pt"
 viewBox="0.00 0.00 450.50 159.00" xmlns="http://www.w3.org/2000/svg" xmlns:xlink="http://www.w3.org/1999/xlink">
<g id="graph0" class="graph" transform="scale(1 1) rotate(0) translate(4 155)">
<title>software/nixie_clock_esp32_project/main/gpio_task.h</title>
<!-- Node1 -->
<g id="Node000001" class="node">
<title>Node1</title>
<g id="a_Node000001"><a xlink:title=" ">
<polygon fill="#999999" stroke="#666666" points="303.5,-151 161.5,-151 161.5,-110 303.5,-110 303.5,-151"/>
<text text-anchor="start" x="169.5" y="-139" font-family="Helvetica,sans-Serif" font-size="10.00">software/nixie_clock</text>
<text text-anchor="start" x="169.5" y="-128" font-family="Helvetica,sans-Serif" font-size="10.00">_esp32_project/main/gpio</text>
<text text-anchor="middle" x="232.5" y="-117" font-family="Helvetica,sans-Serif" font-size="10.00">_task.h</text>
</a>
</g>
</g>
<!-- Node2 -->
<g id="Node000002" class="node">
<title>Node2</title>
<g id="a_Node000002"><a xlink:title=" ">
<polygon fill="#e0e0e0" stroke="#999999" points="113,-74 0,-74 0,-55 113,-55 113,-74"/>
<text text-anchor="middle" x="56.5" y="-62" font-family="Helvetica,sans-Serif" font-size="10.00">freertos/FreeRTOS.h</text>
</a>
</g>
</g>
<!-- Node1&#45;&gt;Node2 -->
<g id="edge1_Node000001_Node000002" class="edge">
<title>Node1&#45;&gt;Node2</title>
<g id="a_edge1_Node000001_Node000002"><a xlink:title=" ">
<path fill="none" stroke="#63b8ff" d="M178.74,-109.95C149.64,-99.37 114.64,-86.64 89.55,-77.52"/>
<polygon fill="#63b8ff" stroke="#63b8ff" points="90.72,-74.22 80.13,-74.09 88.33,-80.8 90.72,-74.22"/>
</a>
</g>
</g>
<!-- Node3 -->
<g id="Node000003" class="node">
<title>Node3</title>
<g id="a_Node000003"><a xlink:title=" ">
<polygon fill="#e0e0e0" stroke="#999999" points="228,-74 131,-74 131,-55 228,-55 228,-74"/>
<text text-anchor="middle" x="179.5" y="-62" font-family="Helvetica,sans-Serif" font-size="10.00">freertos/queue.h</text>
</a>
</g>
</g>
<!-- Node1&#45;&gt;Node3 -->
<g id="edge2_Node000001_Node000003" class="edge">
<title>Node1&#45;&gt;Node3</title>
<g id="a_edge2_Node000001_Node000003"><a xlink:title=" ">
<path fill="none" stroke="#63b8ff" d="M216.31,-109.95C208.91,-101.02 200.25,-90.55 193.18,-82.02"/>
<polygon fill="#63b8ff" stroke="#63b8ff" points="195.83,-79.73 186.75,-74.26 190.44,-84.19 195.83,-79.73"/>
</a>
</g>
</g>
<!-- Node4 -->
<g id="Node000004" class="node">
<title>Node4</title>
<g id="a_Node000004"><a xlink:href="gpio__driver_8h.html" target="_top" xlink:title=" ">
<polygon fill="white" stroke="#666666" points="326.5,-74 246.5,-74 246.5,-55 326.5,-55 326.5,-74"/>
<text text-anchor="middle" x="286.5" y="-62" font-family="Helvetica,sans-Serif" font-size="10.00">gpio_driver.h</text>
</a>
</g>
</g>
<!-- Node1&#45;&gt;Node4 -->
<g id="edge3_Node000001_Node000004" class="edge">
<title>Node1&#45;&gt;Node4</title>
<g id="a_edge3_Node000001_Node000004"><a xlink:title=" ">
<path fill="none" stroke="#63b8ff" d="M249,-109.95C256.53,-101.02 265.36,-90.55 272.56,-82.02"/>
<polygon fill="#63b8ff" stroke="#63b8ff" points="275.33,-84.16 279.11,-74.26 269.98,-79.65 275.33,-84.16"/>
</a>
</g>
</g>
<!-- Node7 -->
<g id="Node000007" class="node">
<title>Node7</title>
<g id="a_Node000007"><a xlink:href="rotary__encoder_8h.html" target="_top" xlink:title=" ">
<polygon fill="white" stroke="#666666" points="442.5,-74 344.5,-74 344.5,-55 442.5,-55 442.5,-74"/>
<text text-anchor="middle" x="393.5" y="-62" font-family="Helvetica,sans-Serif" font-size="10.00">rotary_encoder.h</text>
</a>
</g>
</g>
<!-- Node1&#45;&gt;Node7 -->
<g id="edge6_Node000001_Node000007" class="edge">
<title>Node1&#45;&gt;Node7</title>
<g id="a_edge6_Node000001_Node000007"><a xlink:title=" ">
<path fill="none" stroke="#63b8ff" d="M281.68,-109.95C307.94,-99.51 339.47,-86.98 362.34,-77.88"/>
<polygon fill="#63b8ff" stroke="#63b8ff" points="363.89,-81.04 371.89,-74.09 361.3,-74.53 363.89,-81.04"/>
</a>
</g>
</g>
<!-- Node5 -->
<g id="Node000005" class="node">
<title>Node5</title>
<g id="a_Node000005"><a xlink:title=" ">
<polygon fill="#e0e0e0" stroke="#999999" points="281.5,-19 203.5,-19 203.5,0 281.5,0 281.5,-19"/>
<text text-anchor="middle" x="242.5" y="-7" font-family="Helvetica,sans-Serif" font-size="10.00">driver/gpio.h</text>
</a>
</g>
</g>
<!-- Node4&#45;&gt;Node5 -->
<g id="edge4_Node000004_Node000005" class="edge">
<title>Node4&#45;&gt;Node5</title>
<g id="a_edge4_Node000004_Node000005"><a xlink:title=" ">
<path fill="none" stroke="#63b8ff" d="M279.23,-54.75C272.96,-47.18 263.71,-36.05 256.07,-26.84"/>
<polygon fill="#63b8ff" stroke="#63b8ff" points="258.71,-24.55 249.63,-19.09 253.33,-29.02 258.71,-24.55"/>
</a>
</g>
</g>
<!-- Node6 -->
<g id="Node000006" class="node">
<title>Node6</title>
<g id="a_Node000006"><a xlink:title=" ">
<polygon fill="#e0e0e0" stroke="#999999" points="361,-19 300,-19 300,0 361,0 361,-19"/>
<text text-anchor="middle" x="330.5" y="-7" font-family="Helvetica,sans-Serif" font-size="10.00">esp_err.h</text>
</a>
</g>
</g>
<!-- Node4&#45;&gt;Node6 -->
<g id="edge5_Node000004_Node000006" class="edge">
<title>Node4&#45;&gt;Node6</title>
<g id="a_edge5_Node000004_Node000006"><a xlink:title=" ">
<path fill="none" stroke="#63b8ff" d="M293.77,-54.75C300.04,-47.18 309.29,-36.05 316.93,-26.84"/>
<polygon fill="#63b8ff" stroke="#63b8ff" points="319.67,-29.02 323.37,-19.09 314.29,-24.55 319.67,-29.02"/>
</a>
</g>
</g>
</g>
</svg>
