<?xml version="1.0" encoding="UTF-8" standalone="no"?>
<!DOCTYPE svg PUBLIC "-//W3C//DTD SVG 1.1//EN"
 "http://www.w3.org/Graphics/SVG/1.1/DTD/svg11.dtd">
<!-- Generated by graphviz version 2.43.0 (0)
 -->
<!-- Title: software/nixie_clock_esp32_project/components/gpio_task/gpio_task.c Pages: 1 -->
<svg width="555pt" height="236pt"
 viewBox="0.00 0.00 555.00 236.00" xmlns="http://www.w3.org/2000/svg" xmlns:xlink="http://www.w3.org/1999/xlink">
<g id="graph0" class="graph" transform="scale(1 1) rotate(0) translate(4 232)">
<title>software/nixie_clock_esp32_project/components/gpio_task/gpio_task.c</title>
<!-- Node1 -->
<g id="Node000001" class="node">
<title>Node1</title>
<g id="a_Node000001"><a xlink:title=" ">
<polygon fill="#999999" stroke="#666666" points="388,-228 235,-228 235,-187 388,-187 388,-228"/>
<text text-anchor="start" x="243" y="-216" font-family="Helvetica,sans-Serif" font-size="10.00">software/nixie_clock</text>
<text text-anchor="start" x="243" y="-205" font-family="Helvetica,sans-Serif" font-size="10.00">_esp32_project/components</text>
<text text-anchor="middle" x="311.5" y="-194" font-family="Helvetica,sans-Serif" font-size="10.00">/gpio_task/gpio_task.c</text>
</a>
</g>
</g>
<!-- Node2 -->
<g id="Node000002" class="node">
<title>Node2</title>
<g id="a_Node000002"><a xlink:title=" ">
<polygon fill="#e0e0e0" stroke="#999999" points="113,-79.5 0,-79.5 0,-60.5 113,-60.5 113,-79.5"/>
<text text-anchor="middle" x="56.5" y="-67.5" font-family="Helvetica,sans-Serif" font-size="10.00">freertos/FreeRTOS.h</text>
</a>
</g>
</g>
<!-- Node1&#45;&gt;Node2 -->
<g id="edge1_Node000001_Node000002" class="edge">
<title>Node1&#45;&gt;Node2</title>
<g id="a_edge1_Node000001_Node000002"><a xlink:title=" ">
<path fill="none" stroke="#63b8ff" d="M234.82,-197.26C174.77,-188.47 97.81,-173.26 75.5,-151 59.51,-135.04 56.03,-108.24 55.7,-90.11"/>
<polygon fill="#63b8ff" stroke="#63b8ff" points="59.2,-89.91 55.83,-79.87 52.2,-89.82 59.2,-89.91"/>
</a>
</g>
</g>
<!-- Node3 -->
<g id="Node000003" class="node">
<title>Node3</title>
<g id="a_Node000003"><a xlink:title=" ">
<polygon fill="#e0e0e0" stroke="#999999" points="465.5,-145.5 377.5,-145.5 377.5,-126.5 465.5,-126.5 465.5,-145.5"/>
<text text-anchor="middle" x="421.5" y="-133.5" font-family="Helvetica,sans-Serif" font-size="10.00">freertos/task.h</text>
</a>
</g>
</g>
<!-- Node1&#45;&gt;Node3 -->
<g id="edge2_Node000001_Node000003" class="edge">
<title>Node1&#45;&gt;Node3</title>
<g id="a_edge2_Node000001_Node000003"><a xlink:title=" ">
<path fill="none" stroke="#63b8ff" d="M342.43,-186.96C360.49,-175.54 382.87,-161.41 399.2,-151.09"/>
<polygon fill="#63b8ff" stroke="#63b8ff" points="401.46,-153.8 408.04,-145.5 397.72,-147.89 401.46,-153.8"/>
</a>
</g>
</g>
<!-- Node4 -->
<g id="Node000004" class="node">
<title>Node4</title>
<g id="a_Node000004"><a xlink:href="gpio__task_8h.html" target="_top" xlink:title=" ">
<polygon fill="white" stroke="#666666" points="283,-145.5 210,-145.5 210,-126.5 283,-126.5 283,-145.5"/>
<text text-anchor="middle" x="246.5" y="-133.5" font-family="Helvetica,sans-Serif" font-size="10.00">gpio_task.h</text>
</a>
</g>
</g>
<!-- Node1&#45;&gt;Node4 -->
<g id="edge3_Node000001_Node000004" class="edge">
<title>Node1&#45;&gt;Node4</title>
<g id="a_edge3_Node000001_Node000004"><a xlink:title=" ">
<path fill="none" stroke="#63b8ff" d="M293.05,-186.77C283.1,-176.13 270.97,-163.16 261.59,-153.13"/>
<polygon fill="#63b8ff" stroke="#63b8ff" points="264.14,-150.73 254.75,-145.82 259.02,-155.51 264.14,-150.73"/>
</a>
</g>
</g>
<!-- Node6 -->
<g id="Node000006" class="node">
<title>Node6</title>
<g id="a_Node000006"><a xlink:href="gpio__driver_8h.html" target="_top" xlink:title=" ">
<polygon fill="white" stroke="#666666" points="350.5,-85 246.5,-85 246.5,-55 350.5,-55 350.5,-85"/>
<text text-anchor="start" x="254.5" y="-73" font-family="Helvetica,sans-Serif" font-size="10.00">../gpio_driver/gpio</text>
<text text-anchor="middle" x="298.5" y="-62" font-family="Helvetica,sans-Serif" font-size="10.00">_driver.h</text>
</a>
</g>
</g>
<!-- Node1&#45;&gt;Node6 -->
<g id="edge10_Node000001_Node000006" class="edge">
<title>Node1&#45;&gt;Node6</title>
<g id="a_edge10_Node000001_Node000006"><a xlink:title=" ">
<path fill="none" stroke="#63b8ff" d="M309.61,-186.8C307.29,-162.65 303.37,-121.72 300.86,-95.55"/>
<polygon fill="#63b8ff" stroke="#63b8ff" points="304.31,-94.95 299.87,-85.33 297.35,-95.62 304.31,-94.95"/>
</a>
</g>
</g>
<!-- Node9 -->
<g id="Node000009" class="node">
<title>Node9</title>
<g id="a_Node000009"><a xlink:href="rotary__encoder_8h.html" target="_top" xlink:title=" ">
<polygon fill="white" stroke="#666666" points="500,-85 369,-85 369,-55 500,-55 500,-85"/>
<text text-anchor="start" x="377" y="-73" font-family="Helvetica,sans-Serif" font-size="10.00">../rotary_encoder/rotary</text>
<text text-anchor="middle" x="434.5" y="-62" font-family="Helvetica,sans-Serif" font-size="10.00">_encoder.h</text>
</a>
</g>
</g>
<!-- Node1&#45;&gt;Node9 -->
<g id="edge11_Node000001_Node000009" class="edge">
<title>Node1&#45;&gt;Node9</title>
<g id="a_edge11_Node000001_Node000009"><a xlink:title=" ">
<path fill="none" stroke="#63b8ff" d="M322.07,-186.83C332.43,-168.58 349.42,-141.26 368.5,-121 378.97,-109.88 392.11,-99.38 403.91,-90.9"/>
<polygon fill="#63b8ff" stroke="#63b8ff" points="406.01,-93.7 412.2,-85.1 402,-87.96 406.01,-93.7"/>
</a>
</g>
</g>
<!-- Node10 -->
<g id="Node000010" class="node">
<title>Node10</title>
<g id="a_Node000010"><a xlink:title=" ">
<polygon fill="#e0e0e0" stroke="#999999" points="547,-145.5 484,-145.5 484,-126.5 547,-126.5 547,-145.5"/>
<text text-anchor="middle" x="515.5" y="-133.5" font-family="Helvetica,sans-Serif" font-size="10.00">esp_log.h</text>
</a>
</g>
</g>
<!-- Node1&#45;&gt;Node10 -->
<g id="edge12_Node000001_Node000010" class="edge">
<title>Node1&#45;&gt;Node10</title>
<g id="a_edge12_Node000001_Node000010"><a xlink:title=" ">
<path fill="none" stroke="#63b8ff" d="M368.83,-186.99C400.08,-176.36 439.41,-162.96 474.5,-151 476.58,-150.29 478.72,-149.56 480.88,-148.82"/>
<polygon fill="#63b8ff" stroke="#63b8ff" points="482.02,-152.13 490.35,-145.59 479.75,-145.51 482.02,-152.13"/>
</a>
</g>
</g>
<!-- Node11 -->
<g id="Node000011" class="node">
<title>Node11</title>
<g id="a_Node000011"><a xlink:href="event__bus_8h.html" target="_top" xlink:title=" ">
<polygon fill="white" stroke="#666666" points="192,-151 85,-151 85,-121 192,-121 192,-151"/>
<text text-anchor="start" x="93" y="-139" font-family="Helvetica,sans-Serif" font-size="10.00">../event_bus/event</text>
<text text-anchor="middle" x="138.5" y="-128" font-family="Helvetica,sans-Serif" font-size="10.00">_bus.h</text>
</a>
</g>
</g>
<!-- Node1&#45;&gt;Node11 -->
<g id="edge13_Node000001_Node000011" class="edge">
<title>Node1&#45;&gt;Node11</title>
<g id="a_edge13_Node000001_Node000011"><a xlink:title=" ">
<path fill="none" stroke="#63b8ff" d="M262.85,-186.96C237.7,-176.85 207.24,-164.62 182.76,-154.78"/>
<polygon fill="#63b8ff" stroke="#63b8ff" points="183.94,-151.48 173.36,-151 181.33,-157.98 183.94,-151.48"/>
</a>
</g>
</g>
<!-- Node4&#45;&gt;Node2 -->
<g id="edge4_Node000004_Node000002" class="edge">
<title>Node4&#45;&gt;Node2</title>
<g id="a_edge4_Node000004_Node000002"><a xlink:title=" ">
<path fill="none" stroke="#63b8ff" d="M220.88,-126.37C187.49,-115.12 128.99,-95.42 91.53,-82.8"/>
<polygon fill="#63b8ff" stroke="#63b8ff" points="92.62,-79.47 82.02,-79.6 90.38,-86.11 92.62,-79.47"/>
</a>
</g>
</g>
<!-- Node5 -->
<g id="Node000005" class="node">
<title>Node5</title>
<g id="a_Node000005"><a xlink:title=" ">
<polygon fill="#e0e0e0" stroke="#999999" points="228,-79.5 131,-79.5 131,-60.5 228,-60.5 228,-79.5"/>
<text text-anchor="middle" x="179.5" y="-67.5" font-family="Helvetica,sans-Serif" font-size="10.00">freertos/queue.h</text>
</a>
</g>
</g>
<!-- Node4&#45;&gt;Node5 -->
<g id="edge5_Node000004_Node000005" class="edge">
<title>Node4&#45;&gt;Node5</title>
<g id="a_edge5_Node000004_Node000005"><a xlink:title=" ">
<path fill="none" stroke="#63b8ff" d="M237.46,-126.37C226.93,-116.31 209.31,-99.48 196.26,-87.01"/>
<polygon fill="#63b8ff" stroke="#63b8ff" points="198.47,-84.28 188.82,-79.91 193.64,-89.34 198.47,-84.28"/>
</a>
</g>
</g>
<!-- Node4&#45;&gt;Node6 -->
<g id="edge6_Node000004_Node000006" class="edge">
<title>Node4&#45;&gt;Node6</title>
<g id="a_edge6_Node000004_Node000006"><a xlink:title=" ">
<path fill="none" stroke="#63b8ff" d="M253.51,-126.37C260.38,-117.91 271.14,-104.67 280.42,-93.25"/>
<polygon fill="#63b8ff" stroke="#63b8ff" points="283.24,-95.33 286.83,-85.36 277.81,-90.91 283.24,-95.33"/>
</a>
</g>
</g>
<!-- Node4&#45;&gt;Node9 -->
<g id="edge9_Node000004_Node000009" class="edge">
<title>Node4&#45;&gt;Node9</title>
<g id="a_edge9_Node000004_Node000009"><a xlink:title=" ">
<path fill="none" stroke="#63b8ff" d="M271.85,-126.37C300.25,-116.7 347.04,-100.77 383.15,-88.48"/>
<polygon fill="#63b8ff" stroke="#63b8ff" points="384.7,-91.65 393.04,-85.12 382.44,-85.03 384.7,-91.65"/>
</a>
</g>
</g>
<!-- Node7 -->
<g id="Node000007" class="node">
<title>Node7</title>
<g id="a_Node000007"><a xlink:title=" ">
<polygon fill="#e0e0e0" stroke="#999999" points="293.5,-19 215.5,-19 215.5,0 293.5,0 293.5,-19"/>
<text text-anchor="middle" x="254.5" y="-7" font-family="Helvetica,sans-Serif" font-size="10.00">driver/gpio.h</text>
</a>
</g>
</g>
<!-- Node6&#45;&gt;Node7 -->
<g id="edge7_Node000006_Node000007" class="edge">
<title>Node6&#45;&gt;Node7</title>
<g id="a_edge7_Node000006_Node000007"><a xlink:title=" ">
<path fill="none" stroke="#63b8ff" d="M287.85,-54.84C281.66,-46.61 273.81,-36.18 267.29,-27.51"/>
<polygon fill="#63b8ff" stroke="#63b8ff" points="269.9,-25.15 261.09,-19.27 264.31,-29.36 269.9,-25.15"/>
</a>
</g>
</g>
<!-- Node8 -->
<g id="Node000008" class="node">
<title>Node8</title>
<g id="a_Node000008"><a xlink:title=" ">
<polygon fill="#e0e0e0" stroke="#999999" points="373,-19 312,-19 312,0 373,0 373,-19"/>
<text text-anchor="middle" x="342.5" y="-7" font-family="Helvetica,sans-Serif" font-size="10.00">esp_err.h</text>
</a>
</g>
</g>
<!-- Node6&#45;&gt;Node8 -->
<g id="edge8_Node000006_Node000008" class="edge">
<title>Node6&#45;&gt;Node8</title>
<g id="a_edge8_Node000006_Node000008"><a xlink:title=" ">
<path fill="none" stroke="#63b8ff" d="M309.15,-54.84C315.34,-46.61 323.19,-36.18 329.71,-27.51"/>
<polygon fill="#63b8ff" stroke="#63b8ff" points="332.69,-29.36 335.91,-19.27 327.1,-25.15 332.69,-29.36"/>
</a>
</g>
</g>
<!-- Node11&#45;&gt;Node2 -->
<g id="edge14_Node000011_Node000002" class="edge">
<title>Node11&#45;&gt;Node2</title>
<g id="a_edge14_Node000011_Node000002"><a xlink:title=" ">
<path fill="none" stroke="#63b8ff" d="M120.3,-120.8C107.14,-110.53 89.39,-96.67 75.95,-86.18"/>
<polygon fill="#63b8ff" stroke="#63b8ff" points="77.87,-83.24 67.83,-79.84 73.56,-88.76 77.87,-83.24"/>
</a>
</g>
</g>
<!-- Node11&#45;&gt;Node5 -->
<g id="edge15_Node000011_Node000005" class="edge">
<title>Node11&#45;&gt;Node5</title>
<g id="a_edge15_Node000011_Node000005"><a xlink:title=" ">
<path fill="none" stroke="#63b8ff" d="M147.6,-120.8C153.74,-111.21 161.88,-98.5 168.4,-88.32"/>
<polygon fill="#63b8ff" stroke="#63b8ff" points="171.39,-90.15 173.83,-79.84 165.49,-86.38 171.39,-90.15"/>
</a>
</g>
</g>
</g>
</svg>
