<?xml version="1.0" encoding="UTF-8" standalone="no"?>
<!DOCTYPE svg PUBLIC "-//W3C//DTD SVG 1.1//EN"
 "http://www.w3.org/Graphics/SVG/1.1/DTD/svg11.dtd">
<!-- Generated by graphviz version 2.43.0 (0)
 -->
<!-- Title: software/nixie_clock_esp32_project/components/gpio_driver/gpio_driver.h Pages: 1 -->
<svg width="526pt" height="203pt"
 viewBox="0.00 0.00 525.50 203.00" xmlns="http://www.w3.org/2000/svg" xmlns:xlink="http://www.w3.org/1999/xlink">
<g id="graph0" class="graph" transform="scale(1 1) rotate(0) translate(4 199)">
<title>software/nixie_clock_esp32_project/components/gpio_driver/gpio_driver.h</title>
<!-- Node1 -->
<g id="Node000001" class="node">
<title>Node1</title>
<g id="a_Node000001"><a xlink:title=" ">
<polygon fill="#999999" stroke="#666666" points="307,-195 154,-195 154,-154 307,-154 307,-195"/>
<text text-anchor="start" x="162" y="-183" font-family="Helvetica,sans-Serif" font-size="10.00">software/nixie_clock</text>
<text text-anchor="start" x="162" y="-172" font-family="Helvetica,sans-Serif" font-size="10.00">_esp32_project/components</text>
<text text-anchor="middle" x="230.5" y="-161" font-family="Helvetica,sans-Serif" font-size="10.00">/gpio_driver/gpio_driver.h</text>
</a>
</g>
</g>
<!-- Node2 -->
<g id="Node000002" class="node">
<title>Node2</title>
<g id="a_Node000002"><a xlink:href="gpio__driver_8c.html" target="_top" xlink:title=" ">
<polygon fill="white" stroke="#666666" points="153,-118 0,-118 0,-77 153,-77 153,-118"/>
<text text-anchor="start" x="8" y="-106" font-family="Helvetica,sans-Serif" font-size="10.00">software/nixie_clock</text>
<text text-anchor="start" x="8" y="-95" font-family="Helvetica,sans-Serif" font-size="10.00">_esp32_project/components</text>
<text text-anchor="middle" x="76.5" y="-84" font-family="Helvetica,sans-Serif" font-size="10.00">/gpio_driver/gpio_driver.c</text>
</a>
</g>
</g>
<!-- Node1&#45;&gt;Node2 -->
<g id="edge1_Node000001_Node000002" class="edge">
<title>Node1&#45;&gt;Node2</title>
<g id="a_edge1_Node000001_Node000002"><a xlink:title=" ">
<path fill="none" stroke="#63b8ff" d="M181.4,-149.59C160.5,-139.41 136.43,-127.69 116.63,-118.04"/>
<polygon fill="#63b8ff" stroke="#63b8ff" points="179.92,-152.76 190.44,-153.99 182.98,-146.47 179.92,-152.76"/>
</a>
</g>
</g>
<!-- Node3 -->
<g id="Node000003" class="node">
<title>Node3</title>
<g id="a_Node000003"><a xlink:href="clock__task_8c.html" target="_top" xlink:title=" ">
<polygon fill="white" stroke="#666666" points="185.5,-41 39.5,-41 39.5,0 185.5,0 185.5,-41"/>
<text text-anchor="start" x="47.5" y="-29" font-family="Helvetica,sans-Serif" font-size="10.00">software/nixie_clock</text>
<text text-anchor="start" x="47.5" y="-18" font-family="Helvetica,sans-Serif" font-size="10.00">_esp32_project/main/clock</text>
<text text-anchor="middle" x="112.5" y="-7" font-family="Helvetica,sans-Serif" font-size="10.00">_task.c</text>
</a>
</g>
</g>
<!-- Node1&#45;&gt;Node3 -->
<g id="edge2_Node000001_Node000003" class="edge">
<title>Node1&#45;&gt;Node3</title>
<g id="a_edge2_Node000001_Node000003"><a xlink:title=" ">
<path fill="none" stroke="#63b8ff" d="M211.53,-145.39C198.07,-125.83 179.29,-99.36 161.5,-77 151.74,-64.73 140.15,-51.55 130.7,-41.11"/>
<polygon fill="#63b8ff" stroke="#63b8ff" points="208.79,-147.57 217.32,-153.85 214.56,-143.62 208.79,-147.57"/>
</a>
</g>
</g>
<!-- Node4 -->
<g id="Node000004" class="node">
<title>Node4</title>
<g id="a_Node000004"><a xlink:href="gpio__task_8c.html" target="_top" xlink:title=" ">
<polygon fill="white" stroke="#666666" points="517.5,-41 375.5,-41 375.5,0 517.5,0 517.5,-41"/>
<text text-anchor="start" x="383.5" y="-29" font-family="Helvetica,sans-Serif" font-size="10.00">software/nixie_clock</text>
<text text-anchor="start" x="383.5" y="-18" font-family="Helvetica,sans-Serif" font-size="10.00">_esp32_project/main/gpio</text>
<text text-anchor="middle" x="446.5" y="-7" font-family="Helvetica,sans-Serif" font-size="10.00">_task.c</text>
</a>
</g>
</g>
<!-- Node1&#45;&gt;Node4 -->
<g id="edge3_Node000001_Node000004" class="edge">
<title>Node1&#45;&gt;Node4</title>
<g id="a_edge3_Node000001_Node000004"><a xlink:title=" ">
<path fill="none" stroke="#63b8ff" d="M300.83,-150.08C321.07,-141.63 342.52,-130.92 360.5,-118 390.57,-96.39 417.6,-62.55 433.02,-41.22"/>
<polygon fill="#63b8ff" stroke="#63b8ff" points="299.28,-146.93 291.32,-153.92 301.9,-153.42 299.28,-146.93"/>
</a>
</g>
</g>
<!-- Node5 -->
<g id="Node000005" class="node">
<title>Node5</title>
<g id="a_Node000005"><a xlink:href="gpio__task_8h.html" target="_top" xlink:title=" ">
<polygon fill="white" stroke="#666666" points="351.5,-118 209.5,-118 209.5,-77 351.5,-77 351.5,-118"/>
<text text-anchor="start" x="217.5" y="-106" font-family="Helvetica,sans-Serif" font-size="10.00">software/nixie_clock</text>
<text text-anchor="start" x="217.5" y="-95" font-family="Helvetica,sans-Serif" font-size="10.00">_esp32_project/main/gpio</text>
<text text-anchor="middle" x="280.5" y="-84" font-family="Helvetica,sans-Serif" font-size="10.00">_task.h</text>
</a>
</g>
</g>
<!-- Node1&#45;&gt;Node5 -->
<g id="edge4_Node000001_Node000005" class="edge">
<title>Node1&#45;&gt;Node5</title>
<g id="a_edge4_Node000001_Node000005"><a xlink:title=" ">
<path fill="none" stroke="#63b8ff" d="M249.24,-145.39C255.3,-136.3 261.89,-126.41 267.45,-118.07"/>
<polygon fill="#63b8ff" stroke="#63b8ff" points="246.27,-143.53 243.64,-153.79 252.1,-147.42 246.27,-143.53"/>
</a>
</g>
</g>
<!-- Node5&#45;&gt;Node3 -->
<g id="edge5_Node000005_Node000003" class="edge">
<title>Node5&#45;&gt;Node3</title>
<g id="a_edge5_Node000005_Node000003"><a xlink:title=" ">
<path fill="none" stroke="#63b8ff" d="M227.54,-72.86C204.61,-62.62 178.07,-50.77 156.27,-41.04"/>
<polygon fill="#63b8ff" stroke="#63b8ff" points="226.24,-76.11 236.8,-76.99 229.09,-69.72 226.24,-76.11"/>
</a>
</g>
</g>
<!-- Node5&#45;&gt;Node4 -->
<g id="edge6_Node000005_Node000004" class="edge">
<title>Node5&#45;&gt;Node4</title>
<g id="a_edge6_Node000005_Node000004"><a xlink:title=" ">
<path fill="none" stroke="#63b8ff" d="M332.83,-72.86C355.49,-62.62 381.71,-50.77 403.25,-41.04"/>
<polygon fill="#63b8ff" stroke="#63b8ff" points="331.35,-69.68 323.68,-76.99 334.24,-76.06 331.35,-69.68"/>
</a>
</g>
</g>
<!-- Node6 -->
<g id="Node000006" class="node">
<title>Node6</title>
<g id="a_Node000006"><a xlink:href="main_8c.html" target="_top" xlink:title=" ">
<polygon fill="white" stroke="#666666" points="357.5,-35.5 203.5,-35.5 203.5,-5.5 357.5,-5.5 357.5,-35.5"/>
<text text-anchor="start" x="211.5" y="-23.5" font-family="Helvetica,sans-Serif" font-size="10.00">software/nixie_clock</text>
<text text-anchor="middle" x="280.5" y="-12.5" font-family="Helvetica,sans-Serif" font-size="10.00">_esp32_project/main/main.c</text>
</a>
</g>
</g>
<!-- Node5&#45;&gt;Node6 -->
<g id="edge7_Node000005_Node000006" class="edge">
<title>Node5&#45;&gt;Node6</title>
<g id="a_edge7_Node000005_Node000006"><a xlink:title=" ">
<path fill="none" stroke="#63b8ff" d="M280.5,-66.61C280.5,-56.01 280.5,-44.57 280.5,-35.86"/>
<polygon fill="#63b8ff" stroke="#63b8ff" points="277,-66.79 280.5,-76.79 284,-66.79 277,-66.79"/>
</a>
</g>
</g>
</g>
</svg>
