<?xml version="1.0" encoding="UTF-8" standalone="no"?>
<!DOCTYPE svg PUBLIC "-//W3C//DTD SVG 1.1//EN"
 "http://www.w3.org/Graphics/SVG/1.1/DTD/svg11.dtd">
<!-- Generated by graphviz version 2.43.0 (0)
 -->
<!-- Title: software/nixie_clock_esp32_project/main/main.c Pages: 1 -->
<svg width="1744pt" height="225pt"
 viewBox="0.00 0.00 1744.00 225.00" xmlns="http://www.w3.org/2000/svg" xmlns:xlink="http://www.w3.org/1999/xlink">
<g id="graph0" class="graph" transform="scale(1 1) rotate(0) translate(4 221)">
<title>software/nixie_clock_esp32_project/main/main.c</title>
<!-- Node1 -->
<g id="Node000001" class="node">
<title>Node1</title>
<g id="a_Node000001"><a xlink:title=" ">
<polygon fill="#999999" stroke="#666666" points="1047.5,-217 893.5,-217 893.5,-187 1047.5,-187 1047.5,-217"/>
<text text-anchor="start" x="901.5" y="-205" font-family="Helvetica,sans-Serif" font-size="10.00">software/nixie_clock</text>
<text text-anchor="middle" x="970.5" y="-194" font-family="Helvetica,sans-Serif" font-size="10.00">_esp32_project/main/main.c</text>
</a>
</g>
</g>
<!-- Node2 -->
<g id="Node000002" class="node">
<title>Node2</title>
<g id="a_Node000002"><a xlink:title=" ">
<polygon fill="#e0e0e0" stroke="#999999" points="53,-145.5 0,-145.5 0,-126.5 53,-126.5 53,-145.5"/>
<text text-anchor="middle" x="26.5" y="-133.5" font-family="Helvetica,sans-Serif" font-size="10.00">string.h</text>
</a>
</g>
</g>
<!-- Node1&#45;&gt;Node2 -->
<g id="edge1_Node000001_Node000002" class="edge">
<title>Node1&#45;&gt;Node2</title>
<g id="a_edge1_Node000001_Node000002"><a xlink:title=" ">
<path fill="none" stroke="#63b8ff" d="M893.32,-199.44C704.78,-195.18 224.7,-181.59 67.5,-151 64.25,-150.37 60.91,-149.54 57.6,-148.6"/>
<polygon fill="#63b8ff" stroke="#63b8ff" points="58.49,-145.21 47.9,-145.54 56.39,-151.89 58.49,-145.21"/>
</a>
</g>
</g>
<!-- Node3 -->
<g id="Node000003" class="node">
<title>Node3</title>
<g id="a_Node000003"><a xlink:title=" ">
<polygon fill="#e0e0e0" stroke="#999999" points="154.5,-19 76.5,-19 76.5,0 154.5,0 154.5,-19"/>
<text text-anchor="middle" x="115.5" y="-7" font-family="Helvetica,sans-Serif" font-size="10.00">driver/gpio.h</text>
</a>
</g>
</g>
<!-- Node1&#45;&gt;Node3 -->
<g id="edge2_Node000001_Node000003" class="edge">
<title>Node1&#45;&gt;Node3</title>
<g id="a_edge2_Node000001_Node000003"><a xlink:title=" ">
<path fill="none" stroke="#63b8ff" d="M893.17,-199.6C773.6,-196.38 537.02,-185.77 339.5,-151 230.97,-131.89 167.25,-172.68 100.5,-85 88.06,-68.66 96.3,-44.64 104.66,-28.32"/>
<polygon fill="#63b8ff" stroke="#63b8ff" points="107.88,-29.74 109.71,-19.3 101.77,-26.32 107.88,-29.74"/>
</a>
</g>
</g>
<!-- Node4 -->
<g id="Node000004" class="node">
<title>Node4</title>
<g id="a_Node000004"><a xlink:href="gpio__task_8h.html" target="_top" xlink:title=" ">
<polygon fill="white" stroke="#666666" points="494,-145.5 421,-145.5 421,-126.5 494,-126.5 494,-145.5"/>
<text text-anchor="middle" x="457.5" y="-133.5" font-family="Helvetica,sans-Serif" font-size="10.00">gpio_task.h</text>
</a>
</g>
</g>
<!-- Node1&#45;&gt;Node4 -->
<g id="edge3_Node000001_Node000004" class="edge">
<title>Node1&#45;&gt;Node4</title>
<g id="a_edge3_Node000001_Node000004"><a xlink:title=" ">
<path fill="none" stroke="#63b8ff" d="M893.19,-194.19C804.76,-185.96 655.76,-170.71 528.5,-151 520.64,-149.78 512.33,-148.31 504.27,-146.79"/>
<polygon fill="#63b8ff" stroke="#63b8ff" points="504.73,-143.31 494.25,-144.84 503.4,-150.18 504.73,-143.31"/>
</a>
</g>
</g>
<!-- Node10 -->
<g id="Node000010" class="node">
<title>Node10</title>
<g id="a_Node000010"><a xlink:href="clock__task_8h.html" target="_top" xlink:title=" ">
<polygon fill="white" stroke="#666666" points="806,-145.5 729,-145.5 729,-126.5 806,-126.5 806,-145.5"/>
<text text-anchor="middle" x="767.5" y="-133.5" font-family="Helvetica,sans-Serif" font-size="10.00">clock_task.h</text>
</a>
</g>
</g>
<!-- Node1&#45;&gt;Node10 -->
<g id="edge10_Node000001_Node000010" class="edge">
<title>Node1&#45;&gt;Node10</title>
<g id="a_edge10_Node000001_Node000010"><a xlink:title=" ">
<path fill="none" stroke="#63b8ff" d="M925.95,-186.95C889.41,-175.43 838.31,-159.32 804.12,-148.54"/>
<polygon fill="#63b8ff" stroke="#63b8ff" points="805.11,-145.19 794.52,-145.52 803,-151.86 805.11,-145.19"/>
</a>
</g>
</g>
<!-- Node12 -->
<g id="Node000012" class="node">
<title>Node12</title>
<g id="a_Node000012"><a xlink:href="ntp_8h.html" target="_top" xlink:title=" ">
<polygon fill="white" stroke="#666666" points="1116,-145.5 1075,-145.5 1075,-126.5 1116,-126.5 1116,-145.5"/>
<text text-anchor="middle" x="1095.5" y="-133.5" font-family="Helvetica,sans-Serif" font-size="10.00">ntp.h</text>
</a>
</g>
</g>
<!-- Node1&#45;&gt;Node12 -->
<g id="edge13_Node000001_Node000012" class="edge">
<title>Node1&#45;&gt;Node12</title>
<g id="a_edge13_Node000001_Node000012"><a xlink:title=" ">
<path fill="none" stroke="#63b8ff" d="M997.93,-186.95C1019.37,-175.98 1048.95,-160.83 1069.9,-150.11"/>
<polygon fill="#63b8ff" stroke="#63b8ff" points="1071.56,-153.19 1078.86,-145.52 1068.37,-146.96 1071.56,-153.19"/>
</a>
</g>
</g>
<!-- Node13 -->
<g id="Node000013" class="node">
<title>Node13</title>
<g id="a_Node000013"><a xlink:title=" ">
<polygon fill="#e0e0e0" stroke="#999999" points="1197,-145.5 1134,-145.5 1134,-126.5 1197,-126.5 1197,-145.5"/>
<text text-anchor="middle" x="1165.5" y="-133.5" font-family="Helvetica,sans-Serif" font-size="10.00">esp_log.h</text>
</a>
</g>
</g>
<!-- Node1&#45;&gt;Node13 -->
<g id="edge14_Node000001_Node000013" class="edge">
<title>Node1&#45;&gt;Node13</title>
<g id="a_edge14_Node000001_Node000013"><a xlink:title=" ">
<path fill="none" stroke="#63b8ff" d="M1014.37,-186.95C1045.21,-177.03 1087.43,-163.35 1124.5,-151 1126.73,-150.26 1129.02,-149.49 1131.33,-148.71"/>
<polygon fill="#63b8ff" stroke="#63b8ff" points="1132.46,-152.02 1140.8,-145.5 1130.21,-145.4 1132.46,-152.02"/>
</a>
</g>
</g>
<!-- Node14 -->
<g id="Node000014" class="node">
<title>Node14</title>
<g id="a_Node000014"><a xlink:href="esp__stub_8h.html" target="_top" xlink:title=" ">
<polygon fill="white" stroke="#666666" points="1284,-145.5 1215,-145.5 1215,-126.5 1284,-126.5 1284,-145.5"/>
<text text-anchor="middle" x="1249.5" y="-133.5" font-family="Helvetica,sans-Serif" font-size="10.00">esp_stub.h</text>
</a>
</g>
</g>
<!-- Node1&#45;&gt;Node14 -->
<g id="edge15_Node000001_Node000014" class="edge">
<title>Node1&#45;&gt;Node14</title>
<g id="a_edge15_Node000001_Node000014"><a xlink:title=" ">
<path fill="none" stroke="#63b8ff" d="M1045.56,-186.99C1091.92,-177.85 1152.48,-165.04 1205.5,-151 1208.33,-150.25 1211.25,-149.43 1214.18,-148.57"/>
<polygon fill="#63b8ff" stroke="#63b8ff" points="1215.48,-151.83 1224.03,-145.57 1213.45,-145.14 1215.48,-151.83"/>
</a>
</g>
</g>
<!-- Node15 -->
<g id="Node000015" class="node">
<title>Node15</title>
<g id="a_Node000015"><a xlink:href="uart_8h.html" target="_top" xlink:title=" ">
<polygon fill="white" stroke="#666666" points="1410.5,-151 1302.5,-151 1302.5,-121 1410.5,-121 1410.5,-151"/>
<text text-anchor="start" x="1310.5" y="-139" font-family="Helvetica,sans-Serif" font-size="10.00">../components/uart</text>
<text text-anchor="middle" x="1356.5" y="-128" font-family="Helvetica,sans-Serif" font-size="10.00">/uart.h</text>
</a>
</g>
</g>
<!-- Node1&#45;&gt;Node15 -->
<g id="edge16_Node000001_Node000015" class="edge">
<title>Node1&#45;&gt;Node15</title>
<g id="a_edge16_Node000001_Node000015"><a xlink:title=" ">
<path fill="none" stroke="#63b8ff" d="M1047.82,-190.35C1113.19,-181.02 1209.22,-166.56 1292.5,-151 1292.6,-150.98 1292.7,-150.96 1292.8,-150.94"/>
<polygon fill="#63b8ff" stroke="#63b8ff" points="1293.28,-154.42 1302.43,-149.07 1291.94,-147.55 1293.28,-154.42"/>
</a>
</g>
</g>
<!-- Node17 -->
<g id="Node000017" class="node">
<title>Node17</title>
<g id="a_Node000017"><a xlink:href="hv5622_8h.html" target="_top" xlink:title=" ">
<polygon fill="white" stroke="#666666" points="1249,-85 1124,-85 1124,-55 1249,-55 1249,-85"/>
<text text-anchor="start" x="1132" y="-73" font-family="Helvetica,sans-Serif" font-size="10.00">../components/hv5622</text>
<text text-anchor="middle" x="1186.5" y="-62" font-family="Helvetica,sans-Serif" font-size="10.00">/hv5622.h</text>
</a>
</g>
</g>
<!-- Node1&#45;&gt;Node17 -->
<g id="edge18_Node000001_Node000017" class="edge">
<title>Node1&#45;&gt;Node17</title>
<g id="a_edge18_Node000001_Node000017"><a xlink:title=" ">
<path fill="none" stroke="#63b8ff" d="M977.98,-186.74C988.06,-168.87 1007.63,-138.48 1032.5,-121 1047.42,-110.51 1086.8,-97.8 1122,-87.82"/>
<polygon fill="#63b8ff" stroke="#63b8ff" points="1123.11,-91.15 1131.8,-85.09 1121.22,-84.41 1123.11,-91.15"/>
</a>
</g>
</g>
<!-- Node19 -->
<g id="Node000019" class="node">
<title>Node19</title>
<g id="a_Node000019"><a xlink:href="display_8h.html" target="_top" xlink:title=" ">
<polygon fill="white" stroke="#666666" points="1391.5,-85 1267.5,-85 1267.5,-55 1391.5,-55 1391.5,-85"/>
<text text-anchor="start" x="1275.5" y="-73" font-family="Helvetica,sans-Serif" font-size="10.00">../components/display</text>
<text text-anchor="middle" x="1329.5" y="-62" font-family="Helvetica,sans-Serif" font-size="10.00">/display.h</text>
</a>
</g>
</g>
<!-- Node1&#45;&gt;Node19 -->
<g id="edge20_Node000001_Node000019" class="edge">
<title>Node1&#45;&gt;Node19</title>
<g id="a_edge20_Node000001_Node000019"><a xlink:title=" ">
<path fill="none" stroke="#63b8ff" d="M988.64,-186.84C1001.12,-176.97 1018.01,-163.41 1032.5,-151 1047.55,-138.11 1047.75,-129.83 1065.5,-121 1143.23,-82.33 1172.22,-101.29 1257.5,-85 1257.6,-84.98 1257.7,-84.96 1257.81,-84.94"/>
<polygon fill="#63b8ff" stroke="#63b8ff" points="1258.29,-88.41 1267.45,-83.09 1256.97,-81.54 1258.29,-88.41"/>
</a>
</g>
</g>
<!-- Node20 -->
<g id="Node000020" class="node">
<title>Node20</title>
<g id="a_Node000020"><a xlink:href="clock_8h.html" target="_top" xlink:title=" ">
<polygon fill="white" stroke="#666666" points="1105.5,-85 991.5,-85 991.5,-55 1105.5,-55 1105.5,-85"/>
<text text-anchor="start" x="999.5" y="-73" font-family="Helvetica,sans-Serif" font-size="10.00">../components/clock</text>
<text text-anchor="middle" x="1048.5" y="-62" font-family="Helvetica,sans-Serif" font-size="10.00">/clock.h</text>
</a>
</g>
</g>
<!-- Node1&#45;&gt;Node20 -->
<g id="edge22_Node000001_Node000020" class="edge">
<title>Node1&#45;&gt;Node20</title>
<g id="a_edge22_Node000001_Node000020"><a xlink:title=" ">
<path fill="none" stroke="#63b8ff" d="M972.44,-186.77C975.23,-170 981.53,-141.79 994.5,-121 1001.37,-109.99 1011.28,-99.85 1020.75,-91.61"/>
<polygon fill="#63b8ff" stroke="#63b8ff" points="1023.06,-94.25 1028.52,-85.17 1018.59,-88.86 1023.06,-94.25"/>
</a>
</g>
</g>
<!-- Node21 -->
<g id="Node000021" class="node">
<title>Node21</title>
<g id="a_Node000021"><a xlink:href="webserver_8h.html" target="_top" xlink:title=" ">
<polygon fill="white" stroke="#666666" points="1568.5,-151 1428.5,-151 1428.5,-121 1568.5,-121 1568.5,-151"/>
<text text-anchor="start" x="1436.5" y="-139" font-family="Helvetica,sans-Serif" font-size="10.00">../components/webserver</text>
<text text-anchor="middle" x="1498.5" y="-128" font-family="Helvetica,sans-Serif" font-size="10.00">/webserver.h</text>
</a>
</g>
</g>
<!-- Node1&#45;&gt;Node21 -->
<g id="edge24_Node000001_Node000021" class="edge">
<title>Node1&#45;&gt;Node21</title>
<g id="a_edge24_Node000001_Node000021"><a xlink:title=" ">
<path fill="none" stroke="#63b8ff" d="M1047.76,-193.92C1135.19,-185.57 1282.08,-170.5 1418.13,-151.14"/>
<polygon fill="#63b8ff" stroke="#63b8ff" points="1418.92,-154.56 1428.33,-149.68 1417.93,-147.63 1418.92,-154.56"/>
</a>
</g>
</g>
<!-- Node23 -->
<g id="Node000023" class="node">
<title>Node23</title>
<g id="a_Node000023"><a xlink:href="config_8h.html" target="_top" xlink:title=" ">
<polygon fill="white" stroke="#666666" points="942.5,-151 824.5,-151 824.5,-121 942.5,-121 942.5,-151"/>
<text text-anchor="start" x="832.5" y="-139" font-family="Helvetica,sans-Serif" font-size="10.00">../components/config</text>
<text text-anchor="middle" x="883.5" y="-128" font-family="Helvetica,sans-Serif" font-size="10.00">/config.h</text>
</a>
</g>
</g>
<!-- Node1&#45;&gt;Node23 -->
<g id="edge26_Node000001_Node000023" class="edge">
<title>Node1&#45;&gt;Node23</title>
<g id="a_edge26_Node000001_Node000023"><a xlink:title=" ">
<path fill="none" stroke="#63b8ff" d="M951.19,-186.8C939.37,-178.1 924.04,-166.82 910.96,-157.2"/>
<polygon fill="#63b8ff" stroke="#63b8ff" points="912.88,-154.27 902.75,-151.16 908.74,-159.91 912.88,-154.27"/>
</a>
</g>
</g>
<!-- Node25 -->
<g id="Node000025" class="node">
<title>Node25</title>
<g id="a_Node000025"><a xlink:href="pwm_8h.html" target="_top" xlink:title=" ">
<polygon fill="white" stroke="#666666" points="1736,-145.5 1587,-145.5 1587,-126.5 1736,-126.5 1736,-145.5"/>
<text text-anchor="middle" x="1661.5" y="-133.5" font-family="Helvetica,sans-Serif" font-size="10.00">../components/pwm/pwm.h</text>
</a>
</g>
</g>
<!-- Node1&#45;&gt;Node25 -->
<g id="edge31_Node000001_Node000025" class="edge">
<title>Node1&#45;&gt;Node25</title>
<g id="a_edge31_Node000001_Node000025"><a xlink:title=" ">
<path fill="none" stroke="#63b8ff" d="M1047.85,-196.69C1163.4,-189.79 1387.84,-174.58 1577.5,-151 1586.24,-149.91 1595.46,-148.57 1604.47,-147.16"/>
<polygon fill="#63b8ff" stroke="#63b8ff" points="1605.19,-150.59 1614.51,-145.54 1604.08,-143.68 1605.19,-150.59"/>
</a>
</g>
</g>
<!-- Node26 -->
<g id="Node000026" class="node">
<title>Node26</title>
<g id="a_Node000026"><a xlink:href="dispatcher_8h.html" target="_top" xlink:title=" ">
<polygon fill="white" stroke="#666666" points="710.5,-151 570.5,-151 570.5,-121 710.5,-121 710.5,-151"/>
<text text-anchor="start" x="578.5" y="-139" font-family="Helvetica,sans-Serif" font-size="10.00">../components/dispatcher</text>
<text text-anchor="middle" x="640.5" y="-128" font-family="Helvetica,sans-Serif" font-size="10.00">/dispatcher.h</text>
</a>
</g>
</g>
<!-- Node1&#45;&gt;Node26 -->
<g id="edge32_Node000001_Node000026" class="edge">
<title>Node1&#45;&gt;Node26</title>
<g id="a_edge32_Node000001_Node000026"><a xlink:title=" ">
<path fill="none" stroke="#63b8ff" d="M898.08,-186.95C845.66,-176.79 774.8,-163.05 720.67,-152.55"/>
<polygon fill="#63b8ff" stroke="#63b8ff" points="721.25,-149.1 710.77,-150.63 719.92,-155.97 721.25,-149.1"/>
</a>
</g>
</g>
<!-- Node27 -->
<g id="Node000027" class="node">
<title>Node27</title>
<g id="a_Node000027"><a xlink:href="event__bus_8h.html" target="_top" xlink:title=" ">
<polygon fill="white" stroke="#666666" points="631,-85 524,-85 524,-55 631,-55 631,-85"/>
<text text-anchor="start" x="532" y="-73" font-family="Helvetica,sans-Serif" font-size="10.00">../event_bus/event</text>
<text text-anchor="middle" x="577.5" y="-62" font-family="Helvetica,sans-Serif" font-size="10.00">_bus.h</text>
</a>
</g>
</g>
<!-- Node1&#45;&gt;Node27 -->
<g id="edge36_Node000001_Node000027" class="edge">
<title>Node1&#45;&gt;Node27</title>
<g id="a_edge36_Node000001_Node000027"><a xlink:title=" ">
<path fill="none" stroke="#63b8ff" d="M893.14,-196.99C780.69,-190.36 583.07,-175.37 561.5,-151 547.88,-135.61 554.84,-111.96 563.43,-94.36"/>
<polygon fill="#63b8ff" stroke="#63b8ff" points="566.64,-95.77 568.25,-85.3 560.46,-92.48 566.64,-95.77"/>
</a>
</g>
</g>
<!-- Node28 -->
<g id="Node000028" class="node">
<title>Node28</title>
<g id="a_Node000028"><a xlink:href="wifi_8h.html" target="_top" xlink:title=" ">
<polygon fill="white" stroke="#666666" points="313.5,-85 207.5,-85 207.5,-55 313.5,-55 313.5,-85"/>
<text text-anchor="start" x="215.5" y="-73" font-family="Helvetica,sans-Serif" font-size="10.00">../components/wifi</text>
<text text-anchor="middle" x="260.5" y="-62" font-family="Helvetica,sans-Serif" font-size="10.00">/wifi.h</text>
</a>
</g>
</g>
<!-- Node1&#45;&gt;Node28 -->
<g id="edge37_Node000001_Node000028" class="edge">
<title>Node1&#45;&gt;Node28</title>
<g id="a_edge37_Node000001_Node000028"><a xlink:title=" ">
<path fill="none" stroke="#63b8ff" d="M893.29,-197.87C761.7,-191.91 499.66,-177.14 411.5,-151 366.13,-137.55 318.68,-109.81 289.35,-90.8"/>
<polygon fill="#63b8ff" stroke="#63b8ff" points="291.13,-87.78 280.86,-85.21 287.28,-93.63 291.13,-87.78"/>
</a>
</g>
</g>
<!-- Node5 -->
<g id="Node000005" class="node">
<title>Node5</title>
<g id="a_Node000005"><a xlink:title=" ">
<polygon fill="#e0e0e0" stroke="#999999" points="730,-19 617,-19 617,0 730,0 730,-19"/>
<text text-anchor="middle" x="673.5" y="-7" font-family="Helvetica,sans-Serif" font-size="10.00">freertos/FreeRTOS.h</text>
</a>
</g>
</g>
<!-- Node4&#45;&gt;Node5 -->
<g id="edge4_Node000004_Node000005" class="edge">
<title>Node4&#45;&gt;Node5</title>
<g id="a_edge4_Node000004_Node000005"><a xlink:title=" ">
<path fill="none" stroke="#63b8ff" d="M461.26,-126.29C468.85,-109.78 487.57,-73.92 514.5,-55 541.58,-35.98 576.57,-25.06 606.83,-18.81"/>
<polygon fill="#63b8ff" stroke="#63b8ff" points="607.74,-22.2 616.9,-16.87 606.41,-15.33 607.74,-22.2"/>
</a>
</g>
</g>
<!-- Node6 -->
<g id="Node000006" class="node">
<title>Node6</title>
<g id="a_Node000006"><a xlink:title=" ">
<polygon fill="#e0e0e0" stroke="#999999" points="552,-19 455,-19 455,0 552,0 552,-19"/>
<text text-anchor="middle" x="503.5" y="-7" font-family="Helvetica,sans-Serif" font-size="10.00">freertos/queue.h</text>
</a>
</g>
</g>
<!-- Node4&#45;&gt;Node6 -->
<g id="edge5_Node000004_Node000006" class="edge">
<title>Node4&#45;&gt;Node6</title>
<g id="a_edge5_Node000004_Node000006"><a xlink:title=" ">
<path fill="none" stroke="#63b8ff" d="M459.57,-126.43C463.25,-111.62 471.51,-80.36 481.5,-55 485.05,-45.98 489.73,-36.29 493.86,-28.27"/>
<polygon fill="#63b8ff" stroke="#63b8ff" points="497.09,-29.64 498.67,-19.17 490.9,-26.37 497.09,-29.64"/>
</a>
</g>
</g>
<!-- Node7 -->
<g id="Node000007" class="node">
<title>Node7</title>
<g id="a_Node000007"><a xlink:href="gpio__driver_8h.html" target="_top" xlink:title=" ">
<polygon fill="white" stroke="#666666" points="189.5,-79.5 109.5,-79.5 109.5,-60.5 189.5,-60.5 189.5,-79.5"/>
<text text-anchor="middle" x="149.5" y="-67.5" font-family="Helvetica,sans-Serif" font-size="10.00">gpio_driver.h</text>
</a>
</g>
</g>
<!-- Node4&#45;&gt;Node7 -->
<g id="edge6_Node000004_Node000007" class="edge">
<title>Node4&#45;&gt;Node7</title>
<g id="a_edge6_Node000004_Node000007"><a xlink:title=" ">
<path fill="none" stroke="#63b8ff" d="M420.83,-128.96C370.44,-120.43 277.12,-103.78 198.5,-85 194.93,-84.15 191.24,-83.21 187.55,-82.22"/>
<polygon fill="#63b8ff" stroke="#63b8ff" points="188.46,-78.84 177.89,-79.57 186.6,-85.59 188.46,-78.84"/>
</a>
</g>
</g>
<!-- Node9 -->
<g id="Node000009" class="node">
<title>Node9</title>
<g id="a_Node000009"><a xlink:href="rotary__encoder_8h.html" target="_top" xlink:title=" ">
<polygon fill="white" stroke="#666666" points="429.5,-79.5 331.5,-79.5 331.5,-60.5 429.5,-60.5 429.5,-79.5"/>
<text text-anchor="middle" x="380.5" y="-67.5" font-family="Helvetica,sans-Serif" font-size="10.00">rotary_encoder.h</text>
</a>
</g>
</g>
<!-- Node4&#45;&gt;Node9 -->
<g id="edge9_Node000004_Node000009" class="edge">
<title>Node4&#45;&gt;Node9</title>
<g id="a_edge9_Node000004_Node000009"><a xlink:title=" ">
<path fill="none" stroke="#63b8ff" d="M447.12,-126.37C434.78,-116.12 413.99,-98.84 398.91,-86.31"/>
<polygon fill="#63b8ff" stroke="#63b8ff" points="401.14,-83.61 391.21,-79.91 396.67,-88.99 401.14,-83.61"/>
</a>
</g>
</g>
<!-- Node7&#45;&gt;Node3 -->
<g id="edge7_Node000007_Node000003" class="edge">
<title>Node7&#45;&gt;Node3</title>
<g id="a_edge7_Node000007_Node000003"><a xlink:title=" ">
<path fill="none" stroke="#63b8ff" d="M144.48,-60.37C139.56,-51.9 131.91,-38.74 125.71,-28.07"/>
<polygon fill="#63b8ff" stroke="#63b8ff" points="128.59,-26.05 120.54,-19.17 122.54,-29.57 128.59,-26.05"/>
</a>
</g>
</g>
<!-- Node8 -->
<g id="Node000008" class="node">
<title>Node8</title>
<g id="a_Node000008"><a xlink:title=" ">
<polygon fill="#e0e0e0" stroke="#999999" points="291,-19 230,-19 230,0 291,0 291,-19"/>
<text text-anchor="middle" x="260.5" y="-7" font-family="Helvetica,sans-Serif" font-size="10.00">esp_err.h</text>
</a>
</g>
</g>
<!-- Node7&#45;&gt;Node8 -->
<g id="edge8_Node000007_Node000008" class="edge">
<title>Node7&#45;&gt;Node8</title>
<g id="a_edge8_Node000007_Node000008"><a xlink:title=" ">
<path fill="none" stroke="#63b8ff" d="M165.88,-60.37C184.08,-50.78 213.7,-35.17 234.95,-23.97"/>
<polygon fill="#63b8ff" stroke="#63b8ff" points="236.84,-26.93 244.05,-19.17 233.58,-20.73 236.84,-26.93"/>
</a>
</g>
</g>
<!-- Node10&#45;&gt;Node5 -->
<g id="edge11_Node000010_Node000005" class="edge">
<title>Node10&#45;&gt;Node5</title>
<g id="a_edge11_Node000010_Node000005"><a xlink:title=" ">
<path fill="none" stroke="#63b8ff" d="M767.29,-126.4C766.51,-110.7 762.88,-77 746.5,-55 736.17,-41.13 720.13,-30.67 705.71,-23.39"/>
<polygon fill="#63b8ff" stroke="#63b8ff" points="707.08,-20.17 696.55,-19.06 704.09,-26.49 707.08,-20.17"/>
</a>
</g>
</g>
<!-- Node11 -->
<g id="Node000011" class="node">
<title>Node11</title>
<g id="a_Node000011"><a xlink:title=" ">
<polygon fill="#e0e0e0" stroke="#999999" points="737.5,-79.5 649.5,-79.5 649.5,-60.5 737.5,-60.5 737.5,-79.5"/>
<text text-anchor="middle" x="693.5" y="-67.5" font-family="Helvetica,sans-Serif" font-size="10.00">freertos/task.h</text>
</a>
</g>
</g>
<!-- Node10&#45;&gt;Node11 -->
<g id="edge12_Node000010_Node000011" class="edge">
<title>Node10&#45;&gt;Node11</title>
<g id="a_edge12_Node000010_Node000011"><a xlink:title=" ">
<path fill="none" stroke="#63b8ff" d="M757.52,-126.37C745.78,-116.21 726.06,-99.16 711.6,-86.65"/>
<polygon fill="#63b8ff" stroke="#63b8ff" points="713.65,-83.8 703.8,-79.91 709.07,-89.09 713.65,-83.8"/>
</a>
</g>
</g>
<!-- Node16 -->
<g id="Node000016" class="node">
<title>Node16</title>
<g id="a_Node000016"><a xlink:title=" ">
<polygon fill="#e0e0e0" stroke="#999999" points="1487,-79.5 1410,-79.5 1410,-60.5 1487,-60.5 1487,-79.5"/>
<text text-anchor="middle" x="1448.5" y="-67.5" font-family="Helvetica,sans-Serif" font-size="10.00">driver/uart.h</text>
</a>
</g>
</g>
<!-- Node15&#45;&gt;Node16 -->
<g id="edge17_Node000015_Node000016" class="edge">
<title>Node15&#45;&gt;Node16</title>
<g id="a_edge17_Node000015_Node000016"><a xlink:title=" ">
<path fill="none" stroke="#63b8ff" d="M1376.92,-120.8C1392.05,-110.27 1412.6,-95.97 1427.8,-85.4"/>
<polygon fill="#63b8ff" stroke="#63b8ff" points="1429.84,-88.24 1436.05,-79.66 1425.85,-82.5 1429.84,-88.24"/>
</a>
</g>
</g>
<!-- Node18 -->
<g id="Node000018" class="node">
<title>Node18</title>
<g id="a_Node000018"><a xlink:title=" ">
<polygon fill="#e0e0e0" stroke="#999999" points="1213,-19 1160,-19 1160,0 1213,0 1213,-19"/>
<text text-anchor="middle" x="1186.5" y="-7" font-family="Helvetica,sans-Serif" font-size="10.00">stdint.h</text>
</a>
</g>
</g>
<!-- Node17&#45;&gt;Node18 -->
<g id="edge19_Node000017_Node000018" class="edge">
<title>Node17&#45;&gt;Node18</title>
<g id="a_edge19_Node000017_Node000018"><a xlink:title=" ">
<path fill="none" stroke="#63b8ff" d="M1186.5,-54.84C1186.5,-47.21 1186.5,-37.7 1186.5,-29.45"/>
<polygon fill="#63b8ff" stroke="#63b8ff" points="1190,-29.27 1186.5,-19.27 1183,-29.27 1190,-29.27"/>
</a>
</g>
</g>
<!-- Node19&#45;&gt;Node18 -->
<g id="edge21_Node000019_Node000018" class="edge">
<title>Node19&#45;&gt;Node18</title>
<g id="a_edge21_Node000019_Node000018"><a xlink:title=" ">
<path fill="none" stroke="#63b8ff" d="M1295.25,-54.99C1271.39,-45.23 1239.85,-32.33 1216.89,-22.93"/>
<polygon fill="#63b8ff" stroke="#63b8ff" points="1218.2,-19.69 1207.62,-19.14 1215.55,-26.17 1218.2,-19.69"/>
</a>
</g>
</g>
<!-- Node20&#45;&gt;Node18 -->
<g id="edge23_Node000020_Node000018" class="edge">
<title>Node20&#45;&gt;Node18</title>
<g id="a_edge23_Node000020_Node000018"><a xlink:title=" ">
<path fill="none" stroke="#63b8ff" d="M1081.55,-54.99C1104.48,-45.27 1134.74,-32.44 1156.88,-23.06"/>
<polygon fill="#63b8ff" stroke="#63b8ff" points="1158.28,-26.26 1166.12,-19.14 1155.55,-19.82 1158.28,-26.26"/>
</a>
</g>
</g>
<!-- Node22 -->
<g id="Node000022" class="node">
<title>Node22</title>
<g id="a_Node000022"><a xlink:title=" ">
<polygon fill="#e0e0e0" stroke="#999999" points="1608,-79.5 1505,-79.5 1505,-60.5 1608,-60.5 1608,-79.5"/>
<text text-anchor="middle" x="1556.5" y="-67.5" font-family="Helvetica,sans-Serif" font-size="10.00">esp_http_server.h</text>
</a>
</g>
</g>
<!-- Node21&#45;&gt;Node22 -->
<g id="edge25_Node000021_Node000022" class="edge">
<title>Node21&#45;&gt;Node22</title>
<g id="a_edge25_Node000021_Node000022"><a xlink:title=" ">
<path fill="none" stroke="#63b8ff" d="M1511.37,-120.8C1520.33,-110.92 1532.29,-97.72 1541.64,-87.39"/>
<polygon fill="#63b8ff" stroke="#63b8ff" points="1544.36,-89.6 1548.48,-79.84 1539.18,-84.9 1544.36,-89.6"/>
</a>
</g>
</g>
<!-- Node23&#45;&gt;Node5 -->
<g id="edge29_Node000023_Node000005" class="edge">
<title>Node23&#45;&gt;Node5</title>
<g id="a_edge29_Node000023_Node000005"><a xlink:title=" ">
<path fill="none" stroke="#63b8ff" d="M907.02,-120.73C931.01,-104.41 962.26,-77.11 943.5,-55 917.94,-24.88 811.62,-15.11 740.28,-11.97"/>
<polygon fill="#63b8ff" stroke="#63b8ff" points="740.15,-8.46 730.02,-11.55 739.87,-15.45 740.15,-8.46"/>
</a>
</g>
</g>
<!-- Node23&#45;&gt;Node8 -->
<g id="edge27_Node000023_Node000008" class="edge">
<title>Node23&#45;&gt;Node8</title>
<g id="a_edge27_Node000023_Node000008"><a xlink:title=" ">
<path fill="none" stroke="#63b8ff" d="M865.25,-120.78C840.11,-102.05 792.67,-69.78 746.5,-55 663.89,-28.55 402.53,-15.94 301.2,-11.96"/>
<polygon fill="#63b8ff" stroke="#63b8ff" points="301.18,-8.45 291.06,-11.56 300.91,-15.45 301.18,-8.45"/>
</a>
</g>
</g>
<!-- Node23&#45;&gt;Node20 -->
<g id="edge28_Node000023_Node000020" class="edge">
<title>Node23&#45;&gt;Node20</title>
<g id="a_edge28_Node000023_Node000020"><a xlink:title=" ">
<path fill="none" stroke="#63b8ff" d="M919.71,-120.95C944.21,-111.45 976.77,-98.82 1003.02,-88.64"/>
<polygon fill="#63b8ff" stroke="#63b8ff" points="1004.32,-91.89 1012.37,-85.01 1001.79,-85.37 1004.32,-91.89"/>
</a>
</g>
</g>
<!-- Node24 -->
<g id="Node000024" class="node">
<title>Node24</title>
<g id="a_Node000024"><a xlink:title=" ">
<polygon fill="#e0e0e0" stroke="#999999" points="935,-79.5 832,-79.5 832,-60.5 935,-60.5 935,-79.5"/>
<text text-anchor="middle" x="883.5" y="-67.5" font-family="Helvetica,sans-Serif" font-size="10.00">freertos/semphr.h</text>
</a>
</g>
</g>
<!-- Node23&#45;&gt;Node24 -->
<g id="edge30_Node000023_Node000024" class="edge">
<title>Node23&#45;&gt;Node24</title>
<g id="a_edge30_Node000023_Node000024"><a xlink:title=" ">
<path fill="none" stroke="#63b8ff" d="M883.5,-120.8C883.5,-111.7 883.5,-99.79 883.5,-89.9"/>
<polygon fill="#63b8ff" stroke="#63b8ff" points="887,-89.84 883.5,-79.84 880,-89.84 887,-89.84"/>
</a>
</g>
</g>
<!-- Node26&#45;&gt;Node27 -->
<g id="edge33_Node000026_Node000027" class="edge">
<title>Node26&#45;&gt;Node27</title>
<g id="a_edge33_Node000026_Node000027"><a xlink:title=" ">
<path fill="none" stroke="#63b8ff" d="M626.52,-120.8C618.28,-112.43 607.7,-101.68 598.48,-92.31"/>
<polygon fill="#63b8ff" stroke="#63b8ff" points="600.95,-89.84 591.44,-85.16 595.96,-94.75 600.95,-89.84"/>
</a>
</g>
</g>
<!-- Node27&#45;&gt;Node5 -->
<g id="edge34_Node000027_Node000005" class="edge">
<title>Node27&#45;&gt;Node5</title>
<g id="a_edge34_Node000027_Node000005"><a xlink:title=" ">
<path fill="none" stroke="#63b8ff" d="M600.74,-54.84C615.9,-45.6 635.61,-33.59 650.69,-24.4"/>
<polygon fill="#63b8ff" stroke="#63b8ff" points="652.68,-27.29 659.4,-19.09 649.04,-21.31 652.68,-27.29"/>
</a>
</g>
</g>
<!-- Node27&#45;&gt;Node6 -->
<g id="edge35_Node000027_Node000006" class="edge">
<title>Node27&#45;&gt;Node6</title>
<g id="a_edge35_Node000027_Node000006"><a xlink:title=" ">
<path fill="none" stroke="#63b8ff" d="M559.59,-54.84C548.41,-46 534.02,-34.63 522.62,-25.62"/>
<polygon fill="#63b8ff" stroke="#63b8ff" points="524.6,-22.72 514.59,-19.27 520.26,-28.21 524.6,-22.72"/>
</a>
</g>
</g>
<!-- Node28&#45;&gt;Node8 -->
<g id="edge38_Node000028_Node000008" class="edge">
<title>Node28&#45;&gt;Node8</title>
<g id="a_edge38_Node000028_Node000008"><a xlink:title=" ">
<path fill="none" stroke="#63b8ff" d="M260.5,-54.84C260.5,-47.21 260.5,-37.7 260.5,-29.45"/>
<polygon fill="#63b8ff" stroke="#63b8ff" points="264,-29.27 260.5,-19.27 257,-29.27 264,-29.27"/>
</a>
</g>
</g>
</g>
</svg>
