<?xml version="1.0" encoding="UTF-8" standalone="no"?>
<!DOCTYPE svg PUBLIC "-//W3C//DTD SVG 1.1//EN"
 "http://www.w3.org/Graphics/SVG/1.1/DTD/svg11.dtd">
<!-- Generated by graphviz version 2.43.0 (0)
 -->
<!-- Title: software/nixie_clock_esp32_project/main/main.c Pages: 1 -->
<svg width="1641pt" height="225pt"
 viewBox="0.00 0.00 1641.19 225.00" xmlns="http://www.w3.org/2000/svg" xmlns:xlink="http://www.w3.org/1999/xlink">
<g id="graph0" class="graph" transform="scale(1 1) rotate(0) translate(4 221)">
<title>software/nixie_clock_esp32_project/main/main.c</title>
<!-- Node1 -->
<g id="Node000001" class="node">
<title>Node1</title>
<g id="a_Node000001"><a xlink:title=" ">
<polygon fill="#999999" stroke="#666666" points="783.5,-217 629.5,-217 629.5,-187 783.5,-187 783.5,-217"/>
<text text-anchor="start" x="637.5" y="-205" font-family="Helvetica,sans-Serif" font-size="10.00">software/nixie_clock</text>
<text text-anchor="middle" x="706.5" y="-194" font-family="Helvetica,sans-Serif" font-size="10.00">_esp32_project/main/main.c</text>
</a>
</g>
</g>
<!-- Node2 -->
<g id="Node000002" class="node">
<title>Node2</title>
<g id="a_Node000002"><a xlink:title=" ">
<polygon fill="#e0e0e0" stroke="#999999" points="53,-145.5 0,-145.5 0,-126.5 53,-126.5 53,-145.5"/>
<text text-anchor="middle" x="26.5" y="-133.5" font-family="Helvetica,sans-Serif" font-size="10.00">string.h</text>
</a>
</g>
</g>
<!-- Node1&#45;&gt;Node2 -->
<g id="edge1_Node000001_Node000002" class="edge">
<title>Node1&#45;&gt;Node2</title>
<g id="a_edge1_Node000001_Node000002"><a xlink:title=" ">
<path fill="none" stroke="#63b8ff" d="M629.29,-197.84C482.49,-191.36 168.35,-175.14 62.5,-151 60.13,-150.46 57.71,-149.79 55.29,-149.04"/>
<polygon fill="#63b8ff" stroke="#63b8ff" points="56.2,-145.65 45.6,-145.63 53.87,-152.25 56.2,-145.65"/>
</a>
</g>
</g>
<!-- Node3 -->
<g id="Node000003" class="node">
<title>Node3</title>
<g id="a_Node000003"><a xlink:title=" ">
<polygon fill="#e0e0e0" stroke="#999999" points="163.5,-145.5 71.5,-145.5 71.5,-126.5 163.5,-126.5 163.5,-145.5"/>
<text text-anchor="middle" x="117.5" y="-133.5" font-family="Helvetica,sans-Serif" font-size="10.00">esp_task_wdt.h</text>
</a>
</g>
</g>
<!-- Node1&#45;&gt;Node3 -->
<g id="edge2_Node000001_Node000003" class="edge">
<title>Node1&#45;&gt;Node3</title>
<g id="a_edge2_Node000001_Node000003"><a xlink:title=" ">
<path fill="none" stroke="#63b8ff" d="M629.07,-197.54C524.73,-192.02 333.52,-178.86 172.5,-151 167.66,-150.16 162.61,-149.12 157.63,-147.98"/>
<polygon fill="#63b8ff" stroke="#63b8ff" points="158.12,-144.5 147.58,-145.56 156.48,-151.31 158.12,-144.5"/>
</a>
</g>
</g>
<!-- Node4 -->
<g id="Node000004" class="node">
<title>Node4</title>
<g id="a_Node000004"><a xlink:title=" ">
<polygon fill="#e0e0e0" stroke="#999999" points="245,-145.5 182,-145.5 182,-126.5 245,-126.5 245,-145.5"/>
<text text-anchor="middle" x="213.5" y="-133.5" font-family="Helvetica,sans-Serif" font-size="10.00">esp_log.h</text>
</a>
</g>
</g>
<!-- Node1&#45;&gt;Node4 -->
<g id="edge3_Node000001_Node000004" class="edge">
<title>Node1&#45;&gt;Node4</title>
<g id="a_edge3_Node000001_Node000004"><a xlink:title=" ">
<path fill="none" stroke="#63b8ff" d="M629.28,-197.6C538.62,-192.44 384.14,-179.94 254.5,-151 251.51,-150.33 248.44,-149.52 245.38,-148.64"/>
<polygon fill="#63b8ff" stroke="#63b8ff" points="246.39,-145.29 235.8,-145.6 244.28,-151.96 246.39,-145.29"/>
</a>
</g>
</g>
<!-- Node5 -->
<g id="Node000005" class="node">
<title>Node5</title>
<g id="a_Node000005"><a xlink:title=" ">
<polygon fill="#e0e0e0" stroke="#999999" points="1552.5,-19 1474.5,-19 1474.5,0 1552.5,0 1552.5,-19"/>
<text text-anchor="middle" x="1513.5" y="-7" font-family="Helvetica,sans-Serif" font-size="10.00">driver/gpio.h</text>
</a>
</g>
</g>
<!-- Node1&#45;&gt;Node5 -->
<g id="edge4_Node000001_Node000005" class="edge">
<title>Node1&#45;&gt;Node5</title>
<g id="a_edge4_Node000001_Node000005"><a xlink:title=" ">
<path fill="none" stroke="#63b8ff" d="M783.74,-198.61C947.37,-193.1 1324.19,-177.86 1449.5,-151 1532,-133.32 1579.31,-154.26 1627.5,-85 1635.11,-74.06 1635.02,-66.01 1627.5,-55 1612.92,-33.66 1586.47,-22.56 1562.71,-16.77"/>
<polygon fill="#63b8ff" stroke="#63b8ff" points="1563.25,-13.31 1552.73,-14.61 1561.76,-20.15 1563.25,-13.31"/>
</a>
</g>
</g>
<!-- Node6 -->
<g id="Node000006" class="node">
<title>Node6</title>
<g id="a_Node000006"><a xlink:href="ntp_8h.html" target="_top" xlink:title=" ">
<polygon fill="white" stroke="#666666" points="553.5,-145.5 421.5,-145.5 421.5,-126.5 553.5,-126.5 553.5,-145.5"/>
<text text-anchor="middle" x="487.5" y="-133.5" font-family="Helvetica,sans-Serif" font-size="10.00">../components/ntp/ntp.h</text>
</a>
</g>
</g>
<!-- Node1&#45;&gt;Node6 -->
<g id="edge5_Node000001_Node000006" class="edge">
<title>Node1&#45;&gt;Node6</title>
<g id="a_edge5_Node000001_Node000006"><a xlink:title=" ">
<path fill="none" stroke="#63b8ff" d="M658.44,-186.95C618.85,-175.38 563.41,-159.18 526.53,-148.41"/>
<polygon fill="#63b8ff" stroke="#63b8ff" points="527.23,-144.96 516.65,-145.52 525.26,-151.68 527.23,-144.96"/>
</a>
</g>
</g>
<!-- Node7 -->
<g id="Node000007" class="node">
<title>Node7</title>
<g id="a_Node000007"><a xlink:href="display_8h.html" target="_top" xlink:title=" ">
<polygon fill="white" stroke="#666666" points="546.5,-85 422.5,-85 422.5,-55 546.5,-55 546.5,-85"/>
<text text-anchor="start" x="430.5" y="-73" font-family="Helvetica,sans-Serif" font-size="10.00">../components/display</text>
<text text-anchor="middle" x="484.5" y="-62" font-family="Helvetica,sans-Serif" font-size="10.00">/display.h</text>
</a>
</g>
</g>
<!-- Node1&#45;&gt;Node7 -->
<g id="edge6_Node000001_Node000007" class="edge">
<title>Node1&#45;&gt;Node7</title>
<g id="a_edge6_Node000001_Node000007"><a xlink:title=" ">
<path fill="none" stroke="#63b8ff" d="M682.32,-186.84C642.37,-163.45 562.52,-116.69 517.45,-90.29"/>
<polygon fill="#63b8ff" stroke="#63b8ff" points="519.05,-87.18 508.65,-85.14 515.51,-93.22 519.05,-87.18"/>
</a>
</g>
</g>
<!-- Node9 -->
<g id="Node000009" class="node">
<title>Node9</title>
<g id="a_Node000009"><a xlink:href="clock_8h.html" target="_top" xlink:title=" ">
<polygon fill="white" stroke="#666666" points="678.5,-85 564.5,-85 564.5,-55 678.5,-55 678.5,-85"/>
<text text-anchor="start" x="572.5" y="-73" font-family="Helvetica,sans-Serif" font-size="10.00">../components/clock</text>
<text text-anchor="middle" x="621.5" y="-62" font-family="Helvetica,sans-Serif" font-size="10.00">/clock.h</text>
</a>
</g>
</g>
<!-- Node1&#45;&gt;Node9 -->
<g id="edge8_Node000001_Node000009" class="edge">
<title>Node1&#45;&gt;Node9</title>
<g id="a_edge8_Node000001_Node000009"><a xlink:title=" ">
<path fill="none" stroke="#63b8ff" d="M678.42,-186.8C664.35,-178.28 648.27,-166.14 638.5,-151 627.76,-134.36 623.68,-112.11 622.19,-95.3"/>
<polygon fill="#63b8ff" stroke="#63b8ff" points="625.67,-94.91 621.54,-85.15 618.68,-95.36 625.67,-94.91"/>
</a>
</g>
</g>
<!-- Node10 -->
<g id="Node000010" class="node">
<title>Node10</title>
<g id="a_Node000010"><a xlink:href="webserver_8h.html" target="_top" xlink:title=" ">
<polygon fill="white" stroke="#666666" points="403.5,-151 263.5,-151 263.5,-121 403.5,-121 403.5,-151"/>
<text text-anchor="start" x="271.5" y="-139" font-family="Helvetica,sans-Serif" font-size="10.00">../components/webserver</text>
<text text-anchor="middle" x="333.5" y="-128" font-family="Helvetica,sans-Serif" font-size="10.00">/webserver.h</text>
</a>
</g>
</g>
<!-- Node1&#45;&gt;Node10 -->
<g id="edge10_Node000001_Node000010" class="edge">
<title>Node1&#45;&gt;Node10</title>
<g id="a_edge10_Node000001_Node000010"><a xlink:title=" ">
<path fill="none" stroke="#63b8ff" d="M629.41,-188.04C572.52,-178.44 492.93,-164.94 413.85,-151.23"/>
<polygon fill="#63b8ff" stroke="#63b8ff" points="414.16,-147.73 403.71,-149.47 412.96,-154.63 414.16,-147.73"/>
</a>
</g>
</g>
<!-- Node12 -->
<g id="Node000012" class="node">
<title>Node12</title>
<g id="a_Node000012"><a xlink:href="config_8h.html" target="_top" xlink:title=" ">
<polygon fill="white" stroke="#666666" points="765.5,-151 647.5,-151 647.5,-121 765.5,-121 765.5,-151"/>
<text text-anchor="start" x="655.5" y="-139" font-family="Helvetica,sans-Serif" font-size="10.00">../components/config</text>
<text text-anchor="middle" x="706.5" y="-128" font-family="Helvetica,sans-Serif" font-size="10.00">/config.h</text>
</a>
</g>
</g>
<!-- Node1&#45;&gt;Node12 -->
<g id="edge12_Node000001_Node000012" class="edge">
<title>Node1&#45;&gt;Node12</title>
<g id="a_edge12_Node000001_Node000012"><a xlink:title=" ">
<path fill="none" stroke="#63b8ff" d="M706.5,-186.8C706.5,-179.34 706.5,-169.99 706.5,-161.41"/>
<polygon fill="#63b8ff" stroke="#63b8ff" points="710,-161.16 706.5,-151.16 703,-161.16 710,-161.16"/>
</a>
</g>
</g>
<!-- Node16 -->
<g id="Node000016" class="node">
<title>Node16</title>
<g id="a_Node000016"><a xlink:href="pwm_8h.html" target="_top" xlink:title=" ">
<polygon fill="white" stroke="#666666" points="1065,-145.5 916,-145.5 916,-126.5 1065,-126.5 1065,-145.5"/>
<text text-anchor="middle" x="990.5" y="-133.5" font-family="Helvetica,sans-Serif" font-size="10.00">../components/pwm/pwm.h</text>
</a>
</g>
</g>
<!-- Node1&#45;&gt;Node16 -->
<g id="edge17_Node000001_Node000016" class="edge">
<title>Node1&#45;&gt;Node16</title>
<g id="a_edge17_Node000001_Node000016"><a xlink:title=" ">
<path fill="none" stroke="#63b8ff" d="M768.83,-186.95C821.26,-175.14 895.14,-158.49 942.92,-147.72"/>
<polygon fill="#63b8ff" stroke="#63b8ff" points="943.72,-151.13 952.7,-145.52 942.18,-144.3 943.72,-151.13"/>
</a>
</g>
</g>
<!-- Node17 -->
<g id="Node000017" class="node">
<title>Node17</title>
<g id="a_Node000017"><a xlink:href="dispatcher__task_8h.html" target="_top" xlink:title=" ">
<polygon fill="white" stroke="#666666" points="1223.5,-151 1083.5,-151 1083.5,-121 1223.5,-121 1223.5,-151"/>
<text text-anchor="start" x="1091.5" y="-139" font-family="Helvetica,sans-Serif" font-size="10.00">../components/dispatcher</text>
<text text-anchor="middle" x="1153.5" y="-128" font-family="Helvetica,sans-Serif" font-size="10.00">_task/dispatcher_task.h</text>
</a>
</g>
</g>
<!-- Node1&#45;&gt;Node17 -->
<g id="edge18_Node000001_Node000017" class="edge">
<title>Node1&#45;&gt;Node17</title>
<g id="a_edge18_Node000001_Node000017"><a xlink:title=" ">
<path fill="none" stroke="#63b8ff" d="M783.59,-191.36C855.69,-182.14 966.62,-167.47 1073.31,-150.99"/>
<polygon fill="#63b8ff" stroke="#63b8ff" points="1073.94,-154.43 1083.28,-149.44 1072.87,-147.52 1073.94,-154.43"/>
</a>
</g>
</g>
<!-- Node18 -->
<g id="Node000018" class="node">
<title>Node18</title>
<g id="a_Node000018"><a xlink:href="event__bus_8h.html" target="_top" xlink:title=" ">
<polygon fill="white" stroke="#666666" points="1146,-85 1039,-85 1039,-55 1146,-55 1146,-85"/>
<text text-anchor="start" x="1047" y="-73" font-family="Helvetica,sans-Serif" font-size="10.00">../event_bus/event</text>
<text text-anchor="middle" x="1092.5" y="-62" font-family="Helvetica,sans-Serif" font-size="10.00">_bus.h</text>
</a>
</g>
</g>
<!-- Node1&#45;&gt;Node18 -->
<g id="edge22_Node000001_Node000018" class="edge">
<title>Node1&#45;&gt;Node18</title>
<g id="a_edge22_Node000001_Node000018"><a xlink:title=" ">
<path fill="none" stroke="#63b8ff" d="M783.68,-199.28C922.54,-195.38 1202.91,-183.53 1232.5,-151 1241.47,-141.14 1240.18,-131.9 1232.5,-121 1227.31,-113.64 1186.19,-99.45 1149.85,-88.06"/>
<polygon fill="#63b8ff" stroke="#63b8ff" points="1150.83,-84.7 1140.25,-85.08 1148.76,-91.39 1150.83,-84.7"/>
</a>
</g>
</g>
<!-- Node20 -->
<g id="Node000020" class="node">
<title>Node20</title>
<g id="a_Node000020"><a xlink:href="wifi_8h.html" target="_top" xlink:title=" ">
<polygon fill="white" stroke="#666666" points="1618.5,-85 1512.5,-85 1512.5,-55 1618.5,-55 1618.5,-85"/>
<text text-anchor="start" x="1520.5" y="-73" font-family="Helvetica,sans-Serif" font-size="10.00">../components/wifi</text>
<text text-anchor="middle" x="1565.5" y="-62" font-family="Helvetica,sans-Serif" font-size="10.00">/wifi.h</text>
</a>
</g>
</g>
<!-- Node1&#45;&gt;Node20 -->
<g id="edge23_Node000001_Node000020" class="edge">
<title>Node1&#45;&gt;Node20</title>
<g id="a_edge23_Node000001_Node000020"><a xlink:title=" ">
<path fill="none" stroke="#63b8ff" d="M783.62,-199.05C938.94,-194.52 1284.33,-181.3 1398.5,-151 1448.63,-137.69 1501.9,-109.39 1534.44,-90.27"/>
<polygon fill="#63b8ff" stroke="#63b8ff" points="1536.25,-93.27 1543.05,-85.14 1532.67,-87.25 1536.25,-93.27"/>
</a>
</g>
</g>
<!-- Node21 -->
<g id="Node000021" class="node">
<title>Node21</title>
<g id="a_Node000021"><a xlink:href="clock__task_8h.html" target="_top" xlink:title=" ">
<polygon fill="white" stroke="#666666" points="897.5,-151 783.5,-151 783.5,-121 897.5,-121 897.5,-151"/>
<text text-anchor="start" x="791.5" y="-139" font-family="Helvetica,sans-Serif" font-size="10.00">../components/clock</text>
<text text-anchor="middle" x="840.5" y="-128" font-family="Helvetica,sans-Serif" font-size="10.00">_task/clock_task.h</text>
</a>
</g>
</g>
<!-- Node1&#45;&gt;Node21 -->
<g id="edge25_Node000001_Node000021" class="edge">
<title>Node1&#45;&gt;Node21</title>
<g id="a_edge25_Node000001_Node000021"><a xlink:title=" ">
<path fill="none" stroke="#63b8ff" d="M735.91,-186.95C755.28,-177.7 780.86,-165.49 801.87,-155.45"/>
<polygon fill="#63b8ff" stroke="#63b8ff" points="803.65,-158.48 811.16,-151.01 800.63,-152.16 803.65,-158.48"/>
</a>
</g>
</g>
<!-- Node23 -->
<g id="Node000023" class="node">
<title>Node23</title>
<g id="a_Node000023"><a xlink:href="gpio__task_8h.html" target="_top" xlink:title=" ">
<polygon fill="white" stroke="#666666" points="1389.5,-151 1279.5,-151 1279.5,-121 1389.5,-121 1389.5,-151"/>
<text text-anchor="start" x="1287.5" y="-139" font-family="Helvetica,sans-Serif" font-size="10.00">../components/gpio</text>
<text text-anchor="middle" x="1334.5" y="-128" font-family="Helvetica,sans-Serif" font-size="10.00">_task/gpio_task.h</text>
</a>
</g>
</g>
<!-- Node1&#45;&gt;Node23 -->
<g id="edge29_Node000001_Node000023" class="edge">
<title>Node1&#45;&gt;Node23</title>
<g id="a_edge29_Node000001_Node000023"><a xlink:title=" ">
<path fill="none" stroke="#63b8ff" d="M783.67,-196.81C891.8,-190.33 1094.36,-175.94 1265.5,-151 1266.76,-150.82 1268.03,-150.62 1269.31,-150.43"/>
<polygon fill="#63b8ff" stroke="#63b8ff" points="1269.94,-153.87 1279.23,-148.78 1268.79,-146.96 1269.94,-153.87"/>
</a>
</g>
</g>
<!-- Node8 -->
<g id="Node000008" class="node">
<title>Node8</title>
<g id="a_Node000008"><a xlink:title=" ">
<polygon fill="#e0e0e0" stroke="#999999" points="580,-19 527,-19 527,0 580,0 580,-19"/>
<text text-anchor="middle" x="553.5" y="-7" font-family="Helvetica,sans-Serif" font-size="10.00">stdint.h</text>
</a>
</g>
</g>
<!-- Node7&#45;&gt;Node8 -->
<g id="edge7_Node000007_Node000008" class="edge">
<title>Node7&#45;&gt;Node8</title>
<g id="a_edge7_Node000007_Node000008"><a xlink:title=" ">
<path fill="none" stroke="#63b8ff" d="M501.2,-54.84C511.53,-46.09 524.78,-34.85 535.36,-25.88"/>
<polygon fill="#63b8ff" stroke="#63b8ff" points="537.8,-28.4 543.16,-19.27 533.27,-23.06 537.8,-28.4"/>
</a>
</g>
</g>
<!-- Node9&#45;&gt;Node8 -->
<g id="edge9_Node000009_Node000008" class="edge">
<title>Node9&#45;&gt;Node8</title>
<g id="a_edge9_Node000009_Node000008"><a xlink:title=" ">
<path fill="none" stroke="#63b8ff" d="M605.04,-54.84C594.87,-46.09 581.81,-34.85 571.38,-25.88"/>
<polygon fill="#63b8ff" stroke="#63b8ff" points="573.55,-23.13 563.69,-19.27 568.99,-28.44 573.55,-23.13"/>
</a>
</g>
</g>
<!-- Node11 -->
<g id="Node000011" class="node">
<title>Node11</title>
<g id="a_Node000011"><a xlink:title=" ">
<polygon fill="#e0e0e0" stroke="#999999" points="385,-79.5 282,-79.5 282,-60.5 385,-60.5 385,-79.5"/>
<text text-anchor="middle" x="333.5" y="-67.5" font-family="Helvetica,sans-Serif" font-size="10.00">esp_http_server.h</text>
</a>
</g>
</g>
<!-- Node10&#45;&gt;Node11 -->
<g id="edge11_Node000010_Node000011" class="edge">
<title>Node10&#45;&gt;Node11</title>
<g id="a_edge11_Node000010_Node000011"><a xlink:title=" ">
<path fill="none" stroke="#63b8ff" d="M333.5,-120.8C333.5,-111.7 333.5,-99.79 333.5,-89.9"/>
<polygon fill="#63b8ff" stroke="#63b8ff" points="337,-89.84 333.5,-79.84 330,-89.84 337,-89.84"/>
</a>
</g>
</g>
<!-- Node12&#45;&gt;Node9 -->
<g id="edge14_Node000012_Node000009" class="edge">
<title>Node12&#45;&gt;Node9</title>
<g id="a_edge14_Node000012_Node000009"><a xlink:title=" ">
<path fill="none" stroke="#63b8ff" d="M687.64,-120.8C676.08,-112.1 661.11,-100.82 648.33,-91.2"/>
<polygon fill="#63b8ff" stroke="#63b8ff" points="650.41,-88.38 640.31,-85.16 646.19,-93.98 650.41,-88.38"/>
</a>
</g>
</g>
<!-- Node13 -->
<g id="Node000013" class="node">
<title>Node13</title>
<g id="a_Node000013"><a xlink:title=" ">
<polygon fill="#e0e0e0" stroke="#999999" points="1323,-19 1262,-19 1262,0 1323,0 1323,-19"/>
<text text-anchor="middle" x="1292.5" y="-7" font-family="Helvetica,sans-Serif" font-size="10.00">esp_err.h</text>
</a>
</g>
</g>
<!-- Node12&#45;&gt;Node13 -->
<g id="edge13_Node000012_Node000013" class="edge">
<title>Node12&#45;&gt;Node13</title>
<g id="a_edge13_Node000012_Node000013"><a xlink:title=" ">
<path fill="none" stroke="#63b8ff" d="M757.7,-120.95C784.95,-112.44 818.52,-100.26 846.5,-85 865.7,-74.53 865.2,-63.14 885.5,-55 1024.91,0.88 1072.27,-35.93 1221.5,-19 1231.3,-17.89 1241.85,-16.65 1251.74,-15.47"/>
<polygon fill="#63b8ff" stroke="#63b8ff" points="1252.24,-18.93 1261.76,-14.27 1251.41,-11.98 1252.24,-18.93"/>
</a>
</g>
</g>
<!-- Node14 -->
<g id="Node000014" class="node">
<title>Node14</title>
<g id="a_Node000014"><a xlink:title=" ">
<polygon fill="#e0e0e0" stroke="#999999" points="1082,-19 969,-19 969,0 1082,0 1082,-19"/>
<text text-anchor="middle" x="1025.5" y="-7" font-family="Helvetica,sans-Serif" font-size="10.00">freertos/FreeRTOS.h</text>
</a>
</g>
</g>
<!-- Node12&#45;&gt;Node14 -->
<g id="edge15_Node000012_Node000014" class="edge">
<title>Node12&#45;&gt;Node14</title>
<g id="a_edge15_Node000012_Node000014"><a xlink:title=" ">
<path fill="none" stroke="#63b8ff" d="M705.47,-120.8C705,-102.72 707.2,-71.79 725.5,-55 758.59,-24.64 880.8,-14.98 958.65,-11.92"/>
<polygon fill="#63b8ff" stroke="#63b8ff" points="959,-15.41 968.86,-11.54 958.74,-8.41 959,-15.41"/>
</a>
</g>
</g>
<!-- Node15 -->
<g id="Node000015" class="node">
<title>Node15</title>
<g id="a_Node000015"><a xlink:title=" ">
<polygon fill="#e0e0e0" stroke="#999999" points="838,-79.5 735,-79.5 735,-60.5 838,-60.5 838,-79.5"/>
<text text-anchor="middle" x="786.5" y="-67.5" font-family="Helvetica,sans-Serif" font-size="10.00">freertos/semphr.h</text>
</a>
</g>
</g>
<!-- Node12&#45;&gt;Node15 -->
<g id="edge16_Node000012_Node000015" class="edge">
<title>Node12&#45;&gt;Node15</title>
<g id="a_edge16_Node000012_Node000015"><a xlink:title=" ">
<path fill="none" stroke="#63b8ff" d="M724.25,-120.8C737.09,-110.53 754.42,-96.67 767.53,-86.18"/>
<polygon fill="#63b8ff" stroke="#63b8ff" points="769.82,-88.82 775.44,-79.84 765.45,-83.36 769.82,-88.82"/>
</a>
</g>
</g>
<!-- Node17&#45;&gt;Node18 -->
<g id="edge19_Node000017_Node000018" class="edge">
<title>Node17&#45;&gt;Node18</title>
<g id="a_edge19_Node000017_Node000018"><a xlink:title=" ">
<path fill="none" stroke="#63b8ff" d="M1139.96,-120.8C1132.06,-112.51 1121.94,-101.89 1113.08,-92.59"/>
<polygon fill="#63b8ff" stroke="#63b8ff" points="1115.43,-89.99 1106,-85.16 1110.37,-94.82 1115.43,-89.99"/>
</a>
</g>
</g>
<!-- Node18&#45;&gt;Node14 -->
<g id="edge20_Node000018_Node000014" class="edge">
<title>Node18&#45;&gt;Node14</title>
<g id="a_edge20_Node000018_Node000014"><a xlink:title=" ">
<path fill="none" stroke="#63b8ff" d="M1076.28,-54.84C1066.26,-46.09 1053.39,-34.85 1043.12,-25.88"/>
<polygon fill="#63b8ff" stroke="#63b8ff" points="1045.37,-23.21 1035.54,-19.27 1040.77,-28.48 1045.37,-23.21"/>
</a>
</g>
</g>
<!-- Node19 -->
<g id="Node000019" class="node">
<title>Node19</title>
<g id="a_Node000019"><a xlink:title=" ">
<polygon fill="#e0e0e0" stroke="#999999" points="1213,-19 1116,-19 1116,0 1213,0 1213,-19"/>
<text text-anchor="middle" x="1164.5" y="-7" font-family="Helvetica,sans-Serif" font-size="10.00">freertos/queue.h</text>
</a>
</g>
</g>
<!-- Node18&#45;&gt;Node19 -->
<g id="edge21_Node000018_Node000019" class="edge">
<title>Node18&#45;&gt;Node19</title>
<g id="a_edge21_Node000018_Node000019"><a xlink:title=" ">
<path fill="none" stroke="#63b8ff" d="M1109.93,-54.84C1120.81,-46 1134.8,-34.63 1145.89,-25.62"/>
<polygon fill="#63b8ff" stroke="#63b8ff" points="1148.16,-28.29 1153.71,-19.27 1143.74,-22.86 1148.16,-28.29"/>
</a>
</g>
</g>
<!-- Node20&#45;&gt;Node13 -->
<g id="edge24_Node000020_Node000013" class="edge">
<title>Node20&#45;&gt;Node13</title>
<g id="a_edge24_Node000020_Node000013"><a xlink:title=" ">
<path fill="none" stroke="#63b8ff" d="M1512.41,-56.96C1509.4,-56.29 1506.41,-55.64 1503.5,-55 1444.37,-42.09 1375.77,-27.74 1333.25,-18.91"/>
<polygon fill="#63b8ff" stroke="#63b8ff" points="1333.78,-15.45 1323.28,-16.85 1332.36,-22.31 1333.78,-15.45"/>
</a>
</g>
</g>
<!-- Node21&#45;&gt;Node9 -->
<g id="edge28_Node000021_Node000009" class="edge">
<title>Node21&#45;&gt;Node9</title>
<g id="a_edge28_Node000021_Node000009"><a xlink:title=" ">
<path fill="none" stroke="#63b8ff" d="M792.44,-120.95C759.06,-111.2 714.43,-98.16 679.14,-87.84"/>
<polygon fill="#63b8ff" stroke="#63b8ff" points="680.03,-84.46 669.45,-85.01 678.07,-91.18 680.03,-84.46"/>
</a>
</g>
</g>
<!-- Node21&#45;&gt;Node14 -->
<g id="edge26_Node000021_Node000014" class="edge">
<title>Node21&#45;&gt;Node14</title>
<g id="a_edge26_Node000021_Node000014"><a xlink:title=" ">
<path fill="none" stroke="#63b8ff" d="M897.73,-121.14C934.24,-111.36 977.27,-97.77 991.5,-85 1007.99,-70.2 1017.01,-45.81 1021.53,-28.99"/>
<polygon fill="#63b8ff" stroke="#63b8ff" points="1024.95,-29.75 1023.9,-19.21 1018.15,-28.11 1024.95,-29.75"/>
</a>
</g>
</g>
<!-- Node22 -->
<g id="Node000022" class="node">
<title>Node22</title>
<g id="a_Node000022"><a xlink:title=" ">
<polygon fill="#e0e0e0" stroke="#999999" points="982.5,-79.5 894.5,-79.5 894.5,-60.5 982.5,-60.5 982.5,-79.5"/>
<text text-anchor="middle" x="938.5" y="-67.5" font-family="Helvetica,sans-Serif" font-size="10.00">freertos/task.h</text>
</a>
</g>
</g>
<!-- Node21&#45;&gt;Node22 -->
<g id="edge27_Node000021_Node000022" class="edge">
<title>Node21&#45;&gt;Node22</title>
<g id="a_edge27_Node000021_Node000022"><a xlink:title=" ">
<path fill="none" stroke="#63b8ff" d="M862.25,-120.8C878.37,-110.27 900.26,-95.97 916.45,-85.4"/>
<polygon fill="#63b8ff" stroke="#63b8ff" points="918.78,-88.06 925.24,-79.66 914.96,-82.2 918.78,-88.06"/>
</a>
</g>
</g>
<!-- Node23&#45;&gt;Node14 -->
<g id="edge30_Node000023_Node000014" class="edge">
<title>Node23&#45;&gt;Node14</title>
<g id="a_edge30_Node000023_Node000014"><a xlink:title=" ">
<path fill="none" stroke="#63b8ff" d="M1285.87,-120.97C1258.8,-112.28 1224.92,-99.94 1196.5,-85 1176.19,-74.33 1174.89,-65.52 1154.5,-55 1127.08,-40.86 1094.18,-29.59 1068.47,-21.93"/>
<polygon fill="#63b8ff" stroke="#63b8ff" points="1069.22,-18.5 1058.64,-19.07 1067.26,-25.22 1069.22,-18.5"/>
</a>
</g>
</g>
<!-- Node23&#45;&gt;Node19 -->
<g id="edge31_Node000023_Node000019" class="edge">
<title>Node23&#45;&gt;Node19</title>
<g id="a_edge31_Node000023_Node000019"><a xlink:title=" ">
<path fill="none" stroke="#63b8ff" d="M1296.79,-120.86C1276.38,-112.21 1251.35,-99.94 1231.5,-85 1209.45,-68.41 1189,-43.77 1176.64,-27.43"/>
<polygon fill="#63b8ff" stroke="#63b8ff" points="1179.4,-25.28 1170.64,-19.31 1173.77,-29.44 1179.4,-25.28"/>
</a>
</g>
</g>
<!-- Node24 -->
<g id="Node000024" class="node">
<title>Node24</title>
<g id="a_Node000024"><a xlink:href="gpio__driver_8h.html" target="_top" xlink:title=" ">
<polygon fill="white" stroke="#666666" points="1344.5,-85 1240.5,-85 1240.5,-55 1344.5,-55 1344.5,-85"/>
<text text-anchor="start" x="1248.5" y="-73" font-family="Helvetica,sans-Serif" font-size="10.00">../gpio_driver/gpio</text>
<text text-anchor="middle" x="1292.5" y="-62" font-family="Helvetica,sans-Serif" font-size="10.00">_driver.h</text>
</a>
</g>
</g>
<!-- Node23&#45;&gt;Node24 -->
<g id="edge32_Node000023_Node000024" class="edge">
<title>Node23&#45;&gt;Node24</title>
<g id="a_edge32_Node000023_Node000024"><a xlink:title=" ">
<path fill="none" stroke="#63b8ff" d="M1325.18,-120.8C1319.96,-112.84 1313.33,-102.74 1307.4,-93.71"/>
<polygon fill="#63b8ff" stroke="#63b8ff" points="1310.21,-91.6 1301.8,-85.16 1304.36,-95.44 1310.21,-91.6"/>
</a>
</g>
</g>
<!-- Node25 -->
<g id="Node000025" class="node">
<title>Node25</title>
<g id="a_Node000025"><a xlink:href="rotary__encoder_8h.html" target="_top" xlink:title=" ">
<polygon fill="white" stroke="#666666" points="1494,-85 1363,-85 1363,-55 1494,-55 1494,-85"/>
<text text-anchor="start" x="1371" y="-73" font-family="Helvetica,sans-Serif" font-size="10.00">../rotary_encoder/rotary</text>
<text text-anchor="middle" x="1428.5" y="-62" font-family="Helvetica,sans-Serif" font-size="10.00">_encoder.h</text>
</a>
</g>
</g>
<!-- Node23&#45;&gt;Node25 -->
<g id="edge35_Node000023_Node000025" class="edge">
<title>Node23&#45;&gt;Node25</title>
<g id="a_edge35_Node000023_Node000025"><a xlink:title=" ">
<path fill="none" stroke="#63b8ff" d="M1355.36,-120.8C1368.26,-112.01 1385.01,-100.61 1399.23,-90.93"/>
<polygon fill="#63b8ff" stroke="#63b8ff" points="1401.4,-93.69 1407.7,-85.16 1397.46,-87.9 1401.4,-93.69"/>
</a>
</g>
</g>
<!-- Node24&#45;&gt;Node5 -->
<g id="edge33_Node000024_Node000005" class="edge">
<title>Node24&#45;&gt;Node5</title>
<g id="a_edge33_Node000024_Node000005"><a xlink:title=" ">
<path fill="none" stroke="#63b8ff" d="M1344.59,-55.21C1383.32,-44.96 1435.48,-31.15 1471.54,-21.61"/>
<polygon fill="#63b8ff" stroke="#63b8ff" points="1472.49,-24.98 1481.26,-19.03 1470.7,-18.21 1472.49,-24.98"/>
</a>
</g>
</g>
<!-- Node24&#45;&gt;Node13 -->
<g id="edge34_Node000024_Node000013" class="edge">
<title>Node24&#45;&gt;Node13</title>
<g id="a_edge34_Node000024_Node000013"><a xlink:title=" ">
<path fill="none" stroke="#63b8ff" d="M1292.5,-54.84C1292.5,-47.21 1292.5,-37.7 1292.5,-29.45"/>
<polygon fill="#63b8ff" stroke="#63b8ff" points="1296,-29.27 1292.5,-19.27 1289,-29.27 1296,-29.27"/>
</a>
</g>
</g>
</g>
</svg>
