<?xml version="1.0" encoding="UTF-8" standalone="no"?>
<!DOCTYPE svg PUBLIC "-//W3C//DTD SVG 1.1//EN"
 "http://www.w3.org/Graphics/SVG/1.1/DTD/svg11.dtd">
<!-- Generated by graphviz version 2.43.0 (0)
 -->
<!-- Title: software/nixie_clock_esp32_project/main/main.c Pages: 1 -->
<svg width="1693pt" height="225pt"
 viewBox="0.00 0.00 1693.00 225.00" xmlns="http://www.w3.org/2000/svg" xmlns:xlink="http://www.w3.org/1999/xlink">
<g id="graph0" class="graph" transform="scale(1 1) rotate(0) translate(4 221)">
<title>software/nixie_clock_esp32_project/main/main.c</title>
<!-- Node1 -->
<g id="Node000001" class="node">
<title>Node1</title>
<g id="a_Node000001"><a xlink:title=" ">
<polygon fill="#999999" stroke="#666666" points="711.5,-217 557.5,-217 557.5,-187 711.5,-187 711.5,-217"/>
<text text-anchor="start" x="565.5" y="-205" font-family="Helvetica,sans-Serif" font-size="10.00">software/nixie_clock</text>
<text text-anchor="middle" x="634.5" y="-194" font-family="Helvetica,sans-Serif" font-size="10.00">_esp32_project/main/main.c</text>
</a>
</g>
</g>
<!-- Node2 -->
<g id="Node000002" class="node">
<title>Node2</title>
<g id="a_Node000002"><a xlink:title=" ">
<polygon fill="#e0e0e0" stroke="#999999" points="53,-145.5 0,-145.5 0,-126.5 53,-126.5 53,-145.5"/>
<text text-anchor="middle" x="26.5" y="-133.5" font-family="Helvetica,sans-Serif" font-size="10.00">string.h</text>
</a>
</g>
</g>
<!-- Node1&#45;&gt;Node2 -->
<g id="edge1_Node000001_Node000002" class="edge">
<title>Node1&#45;&gt;Node2</title>
<g id="a_edge1_Node000001_Node000002"><a xlink:title=" ">
<path fill="none" stroke="#63b8ff" d="M557.08,-201.14C446.1,-199.79 236.03,-191.46 62.5,-151 60.13,-150.45 57.71,-149.77 55.3,-149.02"/>
<polygon fill="#63b8ff" stroke="#63b8ff" points="56.21,-145.62 45.61,-145.59 53.87,-152.22 56.21,-145.62"/>
</a>
</g>
</g>
<!-- Node3 -->
<g id="Node000003" class="node">
<title>Node3</title>
<g id="a_Node000003"><a xlink:title=" ">
<polygon fill="#e0e0e0" stroke="#999999" points="163.5,-145.5 71.5,-145.5 71.5,-126.5 163.5,-126.5 163.5,-145.5"/>
<text text-anchor="middle" x="117.5" y="-133.5" font-family="Helvetica,sans-Serif" font-size="10.00">esp_task_wdt.h</text>
</a>
</g>
</g>
<!-- Node1&#45;&gt;Node3 -->
<g id="edge2_Node000001_Node000003" class="edge">
<title>Node1&#45;&gt;Node3</title>
<g id="a_edge2_Node000001_Node000003"><a xlink:title=" ">
<path fill="none" stroke="#63b8ff" d="M557.18,-195.99C465.04,-189.25 306.68,-175.21 172.5,-151 167.72,-150.14 162.74,-149.09 157.82,-147.96"/>
<polygon fill="#63b8ff" stroke="#63b8ff" points="158.42,-144.5 147.88,-145.55 156.77,-151.3 158.42,-144.5"/>
</a>
</g>
</g>
<!-- Node4 -->
<g id="Node000004" class="node">
<title>Node4</title>
<g id="a_Node000004"><a xlink:title=" ">
<polygon fill="#e0e0e0" stroke="#999999" points="245,-145.5 182,-145.5 182,-126.5 245,-126.5 245,-145.5"/>
<text text-anchor="middle" x="213.5" y="-133.5" font-family="Helvetica,sans-Serif" font-size="10.00">esp_log.h</text>
</a>
</g>
</g>
<!-- Node1&#45;&gt;Node4 -->
<g id="edge3_Node000001_Node000004" class="edge">
<title>Node1&#45;&gt;Node4</title>
<g id="a_edge3_Node000001_Node000004"><a xlink:title=" ">
<path fill="none" stroke="#63b8ff" d="M557.38,-194.42C481.12,-187.05 361.39,-173.14 259.5,-151 256.05,-150.25 252.49,-149.37 248.94,-148.41"/>
<polygon fill="#63b8ff" stroke="#63b8ff" points="249.67,-144.98 239.09,-145.6 247.75,-151.71 249.67,-144.98"/>
</a>
</g>
</g>
<!-- Node5 -->
<g id="Node000005" class="node">
<title>Node5</title>
<g id="a_Node000005"><a xlink:title=" ">
<polygon fill="#e0e0e0" stroke="#999999" points="454.5,-19 376.5,-19 376.5,0 454.5,0 454.5,-19"/>
<text text-anchor="middle" x="415.5" y="-7" font-family="Helvetica,sans-Serif" font-size="10.00">driver/gpio.h</text>
</a>
</g>
</g>
<!-- Node1&#45;&gt;Node5 -->
<g id="edge4_Node000001_Node000005" class="edge">
<title>Node1&#45;&gt;Node5</title>
<g id="a_edge4_Node000001_Node000005"><a xlink:title=" ">
<path fill="none" stroke="#63b8ff" d="M557.34,-196.48C484.76,-187.49 380.81,-161.19 336.5,-85 329.8,-73.47 329.77,-66.51 336.5,-55 345.18,-40.14 360.85,-29.86 375.96,-22.95"/>
<polygon fill="#63b8ff" stroke="#63b8ff" points="377.35,-26.17 385.23,-19.08 374.65,-19.71 377.35,-26.17"/>
</a>
</g>
</g>
<!-- Node6 -->
<g id="Node000006" class="node">
<title>Node6</title>
<g id="a_Node000006"><a xlink:href="ntp_8h.html" target="_top" xlink:title=" ">
<polygon fill="white" stroke="#666666" points="1233.5,-145.5 1101.5,-145.5 1101.5,-126.5 1233.5,-126.5 1233.5,-145.5"/>
<text text-anchor="middle" x="1167.5" y="-133.5" font-family="Helvetica,sans-Serif" font-size="10.00">../components/ntp/ntp.h</text>
</a>
</g>
</g>
<!-- Node1&#45;&gt;Node6 -->
<g id="edge5_Node000001_Node000006" class="edge">
<title>Node1&#45;&gt;Node6</title>
<g id="a_edge5_Node000001_Node000006"><a xlink:title=" ">
<path fill="none" stroke="#63b8ff" d="M711.71,-194.37C802.94,-186.12 959.17,-170.69 1092.5,-151 1099.71,-149.94 1107.28,-148.68 1114.73,-147.37"/>
<polygon fill="#63b8ff" stroke="#63b8ff" points="1115.54,-150.78 1124.76,-145.56 1114.3,-143.89 1115.54,-150.78"/>
</a>
</g>
</g>
<!-- Node7 -->
<g id="Node000007" class="node">
<title>Node7</title>
<g id="a_Node000007"><a xlink:href="uart_8h.html" target="_top" xlink:title=" ">
<polygon fill="white" stroke="#666666" points="1359.5,-151 1251.5,-151 1251.5,-121 1359.5,-121 1359.5,-151"/>
<text text-anchor="start" x="1259.5" y="-139" font-family="Helvetica,sans-Serif" font-size="10.00">../components/uart</text>
<text text-anchor="middle" x="1305.5" y="-128" font-family="Helvetica,sans-Serif" font-size="10.00">/uart.h</text>
</a>
</g>
</g>
<!-- Node1&#45;&gt;Node7 -->
<g id="edge6_Node000001_Node000007" class="edge">
<title>Node1&#45;&gt;Node7</title>
<g id="a_edge6_Node000001_Node000007"><a xlink:title=" ">
<path fill="none" stroke="#63b8ff" d="M711.67,-198.03C825.58,-192.91 1045.51,-180.15 1241.39,-151.03"/>
<polygon fill="#63b8ff" stroke="#63b8ff" points="1241.92,-154.49 1251.29,-149.54 1240.88,-147.57 1241.92,-154.49"/>
</a>
</g>
</g>
<!-- Node9 -->
<g id="Node000009" class="node">
<title>Node9</title>
<g id="a_Node000009"><a xlink:href="display_8h.html" target="_top" xlink:title=" ">
<polygon fill="white" stroke="#666666" points="157.5,-85 33.5,-85 33.5,-55 157.5,-55 157.5,-85"/>
<text text-anchor="start" x="41.5" y="-73" font-family="Helvetica,sans-Serif" font-size="10.00">../components/display</text>
<text text-anchor="middle" x="95.5" y="-62" font-family="Helvetica,sans-Serif" font-size="10.00">/display.h</text>
</a>
</g>
</g>
<!-- Node1&#45;&gt;Node9 -->
<g id="edge8_Node000001_Node000009" class="edge">
<title>Node1&#45;&gt;Node9</title>
<g id="a_edge8_Node000001_Node000009"><a xlink:title=" ">
<path fill="none" stroke="#63b8ff" d="M557.46,-194.75C470.8,-186.85 336.07,-171.76 289.5,-151 270.48,-142.52 271.77,-131 253.5,-121 226.86,-106.42 195.32,-95.37 167.46,-87.41"/>
<polygon fill="#63b8ff" stroke="#63b8ff" points="168.35,-84.02 157.77,-84.72 166.47,-90.76 168.35,-84.02"/>
</a>
</g>
</g>
<!-- Node11 -->
<g id="Node000011" class="node">
<title>Node11</title>
<g id="a_Node000011"><a xlink:href="clock_8h.html" target="_top" xlink:title=" ">
<polygon fill="white" stroke="#666666" points="289.5,-85 175.5,-85 175.5,-55 289.5,-55 289.5,-85"/>
<text text-anchor="start" x="183.5" y="-73" font-family="Helvetica,sans-Serif" font-size="10.00">../components/clock</text>
<text text-anchor="middle" x="232.5" y="-62" font-family="Helvetica,sans-Serif" font-size="10.00">/clock.h</text>
</a>
</g>
</g>
<!-- Node1&#45;&gt;Node11 -->
<g id="edge10_Node000001_Node000011" class="edge">
<title>Node1&#45;&gt;Node11</title>
<g id="a_edge10_Node000001_Node000011"><a xlink:title=" ">
<path fill="none" stroke="#63b8ff" d="M557.22,-198.46C495.03,-194.01 406.6,-182.16 335.5,-151 318.54,-143.57 281.23,-112.99 256.48,-91.87"/>
<polygon fill="#63b8ff" stroke="#63b8ff" points="258.48,-88.98 248.61,-85.12 253.92,-94.29 258.48,-88.98"/>
</a>
</g>
</g>
<!-- Node12 -->
<g id="Node000012" class="node">
<title>Node12</title>
<g id="a_Node000012"><a xlink:href="webserver_8h.html" target="_top" xlink:title=" ">
<polygon fill="white" stroke="#666666" points="1517.5,-151 1377.5,-151 1377.5,-121 1517.5,-121 1517.5,-151"/>
<text text-anchor="start" x="1385.5" y="-139" font-family="Helvetica,sans-Serif" font-size="10.00">../components/webserver</text>
<text text-anchor="middle" x="1447.5" y="-128" font-family="Helvetica,sans-Serif" font-size="10.00">/webserver.h</text>
</a>
</g>
</g>
<!-- Node1&#45;&gt;Node12 -->
<g id="edge12_Node000001_Node000012" class="edge">
<title>Node1&#45;&gt;Node12</title>
<g id="a_edge12_Node000001_Node000012"><a xlink:title=" ">
<path fill="none" stroke="#63b8ff" d="M711.63,-198.47C843.82,-193.54 1122.25,-180.53 1367.18,-151.07"/>
<polygon fill="#63b8ff" stroke="#63b8ff" points="1367.84,-154.52 1377.35,-149.84 1367,-147.57 1367.84,-154.52"/>
</a>
</g>
</g>
<!-- Node14 -->
<g id="Node000014" class="node">
<title>Node14</title>
<g id="a_Node000014"><a xlink:href="config_8h.html" target="_top" xlink:title=" ">
<polygon fill="white" stroke="#666666" points="627.5,-151 509.5,-151 509.5,-121 627.5,-121 627.5,-151"/>
<text text-anchor="start" x="517.5" y="-139" font-family="Helvetica,sans-Serif" font-size="10.00">../components/config</text>
<text text-anchor="middle" x="568.5" y="-128" font-family="Helvetica,sans-Serif" font-size="10.00">/config.h</text>
</a>
</g>
</g>
<!-- Node1&#45;&gt;Node14 -->
<g id="edge14_Node000001_Node000014" class="edge">
<title>Node1&#45;&gt;Node14</title>
<g id="a_edge14_Node000001_Node000014"><a xlink:title=" ">
<path fill="none" stroke="#63b8ff" d="M619.85,-186.8C611.22,-178.43 600.14,-167.68 590.48,-158.31"/>
<polygon fill="#63b8ff" stroke="#63b8ff" points="592.72,-155.61 583.11,-151.16 587.85,-160.64 592.72,-155.61"/>
</a>
</g>
</g>
<!-- Node18 -->
<g id="Node000018" class="node">
<title>Node18</title>
<g id="a_Node000018"><a xlink:href="pwm_8h.html" target="_top" xlink:title=" ">
<polygon fill="white" stroke="#666666" points="1685,-145.5 1536,-145.5 1536,-126.5 1685,-126.5 1685,-145.5"/>
<text text-anchor="middle" x="1610.5" y="-133.5" font-family="Helvetica,sans-Serif" font-size="10.00">../components/pwm/pwm.h</text>
</a>
</g>
</g>
<!-- Node1&#45;&gt;Node18 -->
<g id="edge19_Node000001_Node000018" class="edge">
<title>Node1&#45;&gt;Node18</title>
<g id="a_edge19_Node000001_Node000018"><a xlink:title=" ">
<path fill="none" stroke="#63b8ff" d="M711.69,-199.51C866.61,-195.89 1226.28,-184.33 1526.5,-151 1535.67,-149.98 1545.37,-148.63 1554.78,-147.16"/>
<polygon fill="#63b8ff" stroke="#63b8ff" points="1555.54,-150.59 1564.85,-145.54 1554.42,-143.67 1555.54,-150.59"/>
</a>
</g>
</g>
<!-- Node19 -->
<g id="Node000019" class="node">
<title>Node19</title>
<g id="a_Node000019"><a xlink:href="dispatcher__task_8h.html" target="_top" xlink:title=" ">
<polygon fill="white" stroke="#666666" points="1083.5,-151 943.5,-151 943.5,-121 1083.5,-121 1083.5,-151"/>
<text text-anchor="start" x="951.5" y="-139" font-family="Helvetica,sans-Serif" font-size="10.00">../components/dispatcher</text>
<text text-anchor="middle" x="1013.5" y="-128" font-family="Helvetica,sans-Serif" font-size="10.00">_task/dispatcher_task.h</text>
</a>
</g>
</g>
<!-- Node1&#45;&gt;Node19 -->
<g id="edge20_Node000001_Node000019" class="edge">
<title>Node1&#45;&gt;Node19</title>
<g id="a_edge20_Node000001_Node000019"><a xlink:title=" ">
<path fill="none" stroke="#63b8ff" d="M711.65,-187.97C776.16,-177.08 867.86,-161.59 933.22,-150.56"/>
<polygon fill="#63b8ff" stroke="#63b8ff" points="934.2,-153.94 943.48,-148.82 933.04,-147.04 934.2,-153.94"/>
</a>
</g>
</g>
<!-- Node20 -->
<g id="Node000020" class="node">
<title>Node20</title>
<g id="a_Node000020"><a xlink:href="event__bus_8h.html" target="_top" xlink:title=" ">
<polygon fill="white" stroke="#666666" points="1266,-85 1159,-85 1159,-55 1266,-55 1266,-85"/>
<text text-anchor="start" x="1167" y="-73" font-family="Helvetica,sans-Serif" font-size="10.00">../event_bus/event</text>
<text text-anchor="middle" x="1212.5" y="-62" font-family="Helvetica,sans-Serif" font-size="10.00">_bus.h</text>
</a>
</g>
</g>
<!-- Node1&#45;&gt;Node20 -->
<g id="edge24_Node000001_Node000020" class="edge">
<title>Node1&#45;&gt;Node20</title>
<g id="a_edge24_Node000001_Node000020"><a xlink:title=" ">
<path fill="none" stroke="#63b8ff" d="M711.68,-196C765.48,-190.23 837.85,-177.79 896.5,-151 916.07,-142.06 914.82,-129.71 934.5,-121 1020.54,-82.91 1052.84,-102.32 1148.67,-85.22"/>
<polygon fill="#63b8ff" stroke="#63b8ff" points="1149.59,-88.61 1158.77,-83.33 1148.3,-81.73 1149.59,-88.61"/>
</a>
</g>
</g>
<!-- Node22 -->
<g id="Node000022" class="node">
<title>Node22</title>
<g id="a_Node000022"><a xlink:href="wifi_8h.html" target="_top" xlink:title=" ">
<polygon fill="white" stroke="#666666" points="451.5,-85 345.5,-85 345.5,-55 451.5,-55 451.5,-85"/>
<text text-anchor="start" x="353.5" y="-73" font-family="Helvetica,sans-Serif" font-size="10.00">../components/wifi</text>
<text text-anchor="middle" x="398.5" y="-62" font-family="Helvetica,sans-Serif" font-size="10.00">/wifi.h</text>
</a>
</g>
</g>
<!-- Node1&#45;&gt;Node22 -->
<g id="edge25_Node000001_Node000022" class="edge">
<title>Node1&#45;&gt;Node22</title>
<g id="a_edge25_Node000001_Node000022"><a xlink:title=" ">
<path fill="none" stroke="#63b8ff" d="M586.1,-186.94C559.89,-178.36 527.46,-166.12 500.5,-151 470.83,-134.36 440.63,-109.47 420.88,-91.89"/>
<polygon fill="#63b8ff" stroke="#63b8ff" points="423.1,-89.18 413.33,-85.07 418.41,-94.37 423.1,-89.18"/>
</a>
</g>
</g>
<!-- Node23 -->
<g id="Node000023" class="node">
<title>Node23</title>
<g id="a_Node000023"><a xlink:href="clock__task_8h.html" target="_top" xlink:title=" ">
<polygon fill="white" stroke="#666666" points="887.5,-151 773.5,-151 773.5,-121 887.5,-121 887.5,-151"/>
<text text-anchor="start" x="781.5" y="-139" font-family="Helvetica,sans-Serif" font-size="10.00">../components/clock</text>
<text text-anchor="middle" x="830.5" y="-128" font-family="Helvetica,sans-Serif" font-size="10.00">_task/clock_task.h</text>
</a>
</g>
</g>
<!-- Node1&#45;&gt;Node23 -->
<g id="edge27_Node000001_Node000023" class="edge">
<title>Node1&#45;&gt;Node23</title>
<g id="a_edge27_Node000001_Node000023"><a xlink:title=" ">
<path fill="none" stroke="#63b8ff" d="M677.51,-186.95C707,-177.33 746.31,-164.49 777.7,-154.24"/>
<polygon fill="#63b8ff" stroke="#63b8ff" points="779.17,-157.44 787.59,-151.01 776.99,-150.79 779.17,-157.44"/>
</a>
</g>
</g>
<!-- Node25 -->
<g id="Node000025" class="node">
<title>Node25</title>
<g id="a_Node000025"><a xlink:href="gpio__task_8h.html" target="_top" xlink:title=" ">
<polygon fill="white" stroke="#666666" points="755.5,-151 645.5,-151 645.5,-121 755.5,-121 755.5,-151"/>
<text text-anchor="start" x="653.5" y="-139" font-family="Helvetica,sans-Serif" font-size="10.00">../components/gpio</text>
<text text-anchor="middle" x="700.5" y="-128" font-family="Helvetica,sans-Serif" font-size="10.00">_task/gpio_task.h</text>
</a>
</g>
</g>
<!-- Node1&#45;&gt;Node25 -->
<g id="edge30_Node000001_Node000025" class="edge">
<title>Node1&#45;&gt;Node25</title>
<g id="a_edge30_Node000001_Node000025"><a xlink:title=" ">
<path fill="none" stroke="#63b8ff" d="M649.15,-186.8C657.78,-178.43 668.86,-167.68 678.52,-158.31"/>
<polygon fill="#63b8ff" stroke="#63b8ff" points="681.15,-160.64 685.89,-151.16 676.28,-155.61 681.15,-160.64"/>
</a>
</g>
</g>
<!-- Node8 -->
<g id="Node000008" class="node">
<title>Node8</title>
<g id="a_Node000008"><a xlink:title=" ">
<polygon fill="#e0e0e0" stroke="#999999" points="1361,-79.5 1284,-79.5 1284,-60.5 1361,-60.5 1361,-79.5"/>
<text text-anchor="middle" x="1322.5" y="-67.5" font-family="Helvetica,sans-Serif" font-size="10.00">driver/uart.h</text>
</a>
</g>
</g>
<!-- Node7&#45;&gt;Node8 -->
<g id="edge7_Node000007_Node000008" class="edge">
<title>Node7&#45;&gt;Node8</title>
<g id="a_edge7_Node000007_Node000008"><a xlink:title=" ">
<path fill="none" stroke="#63b8ff" d="M1309.27,-120.8C1311.72,-111.6 1314.92,-99.53 1317.57,-89.58"/>
<polygon fill="#63b8ff" stroke="#63b8ff" points="1320.97,-90.41 1320.15,-79.84 1314.2,-88.61 1320.97,-90.41"/>
</a>
</g>
</g>
<!-- Node10 -->
<g id="Node000010" class="node">
<title>Node10</title>
<g id="a_Node000010"><a xlink:title=" ">
<polygon fill="#e0e0e0" stroke="#999999" points="191,-19 138,-19 138,0 191,0 191,-19"/>
<text text-anchor="middle" x="164.5" y="-7" font-family="Helvetica,sans-Serif" font-size="10.00">stdint.h</text>
</a>
</g>
</g>
<!-- Node9&#45;&gt;Node10 -->
<g id="edge9_Node000009_Node000010" class="edge">
<title>Node9&#45;&gt;Node10</title>
<g id="a_edge9_Node000009_Node000010"><a xlink:title=" ">
<path fill="none" stroke="#63b8ff" d="M112.2,-54.84C122.53,-46.09 135.78,-34.85 146.36,-25.88"/>
<polygon fill="#63b8ff" stroke="#63b8ff" points="148.8,-28.4 154.16,-19.27 144.27,-23.06 148.8,-28.4"/>
</a>
</g>
</g>
<!-- Node11&#45;&gt;Node10 -->
<g id="edge11_Node000011_Node000010" class="edge">
<title>Node11&#45;&gt;Node10</title>
<g id="a_edge11_Node000011_Node000010"><a xlink:title=" ">
<path fill="none" stroke="#63b8ff" d="M216.04,-54.84C205.87,-46.09 192.81,-34.85 182.38,-25.88"/>
<polygon fill="#63b8ff" stroke="#63b8ff" points="184.55,-23.13 174.69,-19.27 179.99,-28.44 184.55,-23.13"/>
</a>
</g>
</g>
<!-- Node13 -->
<g id="Node000013" class="node">
<title>Node13</title>
<g id="a_Node000013"><a xlink:title=" ">
<polygon fill="#e0e0e0" stroke="#999999" points="1499,-79.5 1396,-79.5 1396,-60.5 1499,-60.5 1499,-79.5"/>
<text text-anchor="middle" x="1447.5" y="-67.5" font-family="Helvetica,sans-Serif" font-size="10.00">esp_http_server.h</text>
</a>
</g>
</g>
<!-- Node12&#45;&gt;Node13 -->
<g id="edge13_Node000012_Node000013" class="edge">
<title>Node12&#45;&gt;Node13</title>
<g id="a_edge13_Node000012_Node000013"><a xlink:title=" ">
<path fill="none" stroke="#63b8ff" d="M1447.5,-120.8C1447.5,-111.7 1447.5,-99.79 1447.5,-89.9"/>
<polygon fill="#63b8ff" stroke="#63b8ff" points="1451,-89.84 1447.5,-79.84 1444,-89.84 1451,-89.84"/>
</a>
</g>
</g>
<!-- Node14&#45;&gt;Node11 -->
<g id="edge16_Node000014_Node000011" class="edge">
<title>Node14&#45;&gt;Node11</title>
<g id="a_edge16_Node000014_Node000011"><a xlink:title=" ">
<path fill="none" stroke="#63b8ff" d="M509.2,-123.71C450.49,-112.52 360.73,-95.43 299.48,-83.76"/>
<polygon fill="#63b8ff" stroke="#63b8ff" points="300,-80.29 289.52,-81.86 298.69,-87.17 300,-80.29"/>
</a>
</g>
</g>
<!-- Node15 -->
<g id="Node000015" class="node">
<title>Node15</title>
<g id="a_Node000015"><a xlink:title=" ">
<polygon fill="#e0e0e0" stroke="#999999" points="632,-19 571,-19 571,0 632,0 632,-19"/>
<text text-anchor="middle" x="601.5" y="-7" font-family="Helvetica,sans-Serif" font-size="10.00">esp_err.h</text>
</a>
</g>
</g>
<!-- Node14&#45;&gt;Node15 -->
<g id="edge15_Node000014_Node000015" class="edge">
<title>Node14&#45;&gt;Node15</title>
<g id="a_edge15_Node000014_Node000015"><a xlink:title=" ">
<path fill="none" stroke="#63b8ff" d="M572.29,-120.72C578.3,-98.02 590.04,-53.72 596.66,-28.75"/>
<polygon fill="#63b8ff" stroke="#63b8ff" points="600.05,-29.63 599.23,-19.07 593.28,-27.84 600.05,-29.63"/>
</a>
</g>
</g>
<!-- Node16 -->
<g id="Node000016" class="node">
<title>Node16</title>
<g id="a_Node000016"><a xlink:title=" ">
<polygon fill="#e0e0e0" stroke="#999999" points="950,-19 837,-19 837,0 950,0 950,-19"/>
<text text-anchor="middle" x="893.5" y="-7" font-family="Helvetica,sans-Serif" font-size="10.00">freertos/FreeRTOS.h</text>
</a>
</g>
</g>
<!-- Node14&#45;&gt;Node16 -->
<g id="edge17_Node000014_Node000016" class="edge">
<title>Node14&#45;&gt;Node16</title>
<g id="a_edge17_Node000014_Node000016"><a xlink:title=" ">
<path fill="none" stroke="#63b8ff" d="M627.92,-120.99C670.15,-110.47 722.74,-96.02 742.5,-85 759.81,-75.34 758.59,-65.35 775.5,-55 799.11,-40.55 828.18,-29.52 851.56,-22.05"/>
<polygon fill="#63b8ff" stroke="#63b8ff" points="852.68,-25.37 861.2,-19.07 850.61,-18.68 852.68,-25.37"/>
</a>
</g>
</g>
<!-- Node17 -->
<g id="Node000017" class="node">
<title>Node17</title>
<g id="a_Node000017"><a xlink:title=" ">
<polygon fill="#e0e0e0" stroke="#999999" points="573,-79.5 470,-79.5 470,-60.5 573,-60.5 573,-79.5"/>
<text text-anchor="middle" x="521.5" y="-67.5" font-family="Helvetica,sans-Serif" font-size="10.00">freertos/semphr.h</text>
</a>
</g>
</g>
<!-- Node14&#45;&gt;Node17 -->
<g id="edge18_Node000014_Node000017" class="edge">
<title>Node14&#45;&gt;Node17</title>
<g id="a_edge18_Node000014_Node000017"><a xlink:title=" ">
<path fill="none" stroke="#63b8ff" d="M558.07,-120.8C550.96,-111.11 541.5,-98.24 533.99,-88.01"/>
<polygon fill="#63b8ff" stroke="#63b8ff" points="536.74,-85.83 528,-79.84 531.09,-89.98 536.74,-85.83"/>
</a>
</g>
</g>
<!-- Node19&#45;&gt;Node20 -->
<g id="edge21_Node000019_Node000020" class="edge">
<title>Node19&#45;&gt;Node20</title>
<g id="a_edge21_Node000019_Node000020"><a xlink:title=" ">
<path fill="none" stroke="#63b8ff" d="M1057.17,-120.95C1087.24,-111.28 1127.37,-98.38 1159.3,-88.11"/>
<polygon fill="#63b8ff" stroke="#63b8ff" points="1160.48,-91.41 1168.93,-85.01 1158.34,-84.74 1160.48,-91.41"/>
</a>
</g>
</g>
<!-- Node20&#45;&gt;Node16 -->
<g id="edge22_Node000020_Node000016" class="edge">
<title>Node20&#45;&gt;Node16</title>
<g id="a_edge22_Node000020_Node000016"><a xlink:title=" ">
<path fill="none" stroke="#63b8ff" d="M1158.77,-56.69C1155.97,-56.11 1153.21,-55.54 1150.5,-55 1084.93,-41.93 1009.5,-29.13 957.4,-20.64"/>
<polygon fill="#63b8ff" stroke="#63b8ff" points="957.73,-17.15 947.3,-19 956.61,-24.06 957.73,-17.15"/>
</a>
</g>
</g>
<!-- Node21 -->
<g id="Node000021" class="node">
<title>Node21</title>
<g id="a_Node000021"><a xlink:title=" ">
<polygon fill="#e0e0e0" stroke="#999999" points="1167,-19 1070,-19 1070,0 1167,0 1167,-19"/>
<text text-anchor="middle" x="1118.5" y="-7" font-family="Helvetica,sans-Serif" font-size="10.00">freertos/queue.h</text>
</a>
</g>
</g>
<!-- Node20&#45;&gt;Node21 -->
<g id="edge23_Node000020_Node000021" class="edge">
<title>Node20&#45;&gt;Node21</title>
<g id="a_edge23_Node000020_Node000021"><a xlink:title=" ">
<path fill="none" stroke="#63b8ff" d="M1189.75,-54.84C1174.9,-45.6 1155.6,-33.59 1140.84,-24.4"/>
<polygon fill="#63b8ff" stroke="#63b8ff" points="1142.65,-21.41 1132.31,-19.09 1138.95,-27.35 1142.65,-21.41"/>
</a>
</g>
</g>
<!-- Node22&#45;&gt;Node15 -->
<g id="edge26_Node000022_Node000015" class="edge">
<title>Node22&#45;&gt;Node15</title>
<g id="a_edge26_Node000022_Node000015"><a xlink:title=" ">
<path fill="none" stroke="#63b8ff" d="M447.12,-54.99C482.31,-44.85 529.26,-31.32 562.1,-21.85"/>
<polygon fill="#63b8ff" stroke="#63b8ff" points="563.18,-25.19 571.82,-19.05 561.24,-18.46 563.18,-25.19"/>
</a>
</g>
</g>
<!-- Node23&#45;&gt;Node16 -->
<g id="edge28_Node000023_Node000016" class="edge">
<title>Node23&#45;&gt;Node16</title>
<g id="a_edge28_Node000023_Node000016"><a xlink:title=" ">
<path fill="none" stroke="#63b8ff" d="M887.56,-121.23C920.7,-111.95 957.78,-98.9 967.5,-85 975.14,-74.07 974.06,-66.61 967.5,-55 959.33,-40.55 944.38,-30.27 930.04,-23.26"/>
<polygon fill="#63b8ff" stroke="#63b8ff" points="931.35,-20.01 920.79,-19.12 928.49,-26.4 931.35,-20.01"/>
</a>
</g>
</g>
<!-- Node24 -->
<g id="Node000024" class="node">
<title>Node24</title>
<g id="a_Node000024"><a xlink:title=" ">
<polygon fill="#e0e0e0" stroke="#999999" points="1141.5,-79.5 1053.5,-79.5 1053.5,-60.5 1141.5,-60.5 1141.5,-79.5"/>
<text text-anchor="middle" x="1097.5" y="-67.5" font-family="Helvetica,sans-Serif" font-size="10.00">freertos/task.h</text>
</a>
</g>
</g>
<!-- Node23&#45;&gt;Node24 -->
<g id="edge29_Node000023_Node000024" class="edge">
<title>Node23&#45;&gt;Node24</title>
<g id="a_edge29_Node000023_Node000024"><a xlink:title=" ">
<path fill="none" stroke="#63b8ff" d="M887.72,-121.34C929.73,-111.31 988.17,-97.34 1039.5,-85 1043.64,-84.01 1047.94,-82.97 1052.24,-81.93"/>
<polygon fill="#63b8ff" stroke="#63b8ff" points="1053.33,-85.27 1062.23,-79.53 1051.69,-78.47 1053.33,-85.27"/>
</a>
</g>
</g>
<!-- Node25&#45;&gt;Node16 -->
<g id="edge31_Node000025_Node000016" class="edge">
<title>Node25&#45;&gt;Node16</title>
<g id="a_edge31_Node000025_Node000016"><a xlink:title=" ">
<path fill="none" stroke="#63b8ff" d="M721.92,-120.9C736.96,-110.94 757.53,-97.26 775.5,-85 794.75,-71.87 798.91,-67.62 818.5,-55 835.2,-44.24 854.49,-32.81 869.33,-24.24"/>
<polygon fill="#63b8ff" stroke="#63b8ff" points="871.43,-27.06 878.36,-19.05 867.95,-20.99 871.43,-27.06"/>
</a>
</g>
</g>
<!-- Node25&#45;&gt;Node21 -->
<g id="edge32_Node000025_Node000021" class="edge">
<title>Node25&#45;&gt;Node21</title>
<g id="a_edge32_Node000025_Node000021"><a xlink:title=" ">
<path fill="none" stroke="#63b8ff" d="M755.63,-122.79C758.63,-122.18 761.6,-121.57 764.5,-121 854.39,-103.21 880.43,-113.56 967.5,-85 1015.16,-69.37 1066.78,-41.22 1095.63,-24.36"/>
<polygon fill="#63b8ff" stroke="#63b8ff" points="1097.68,-27.21 1104.5,-19.1 1094.11,-21.19 1097.68,-27.21"/>
</a>
</g>
</g>
<!-- Node26 -->
<g id="Node000026" class="node">
<title>Node26</title>
<g id="a_Node000026"><a xlink:href="gpio__driver_8h.html" target="_top" xlink:title=" ">
<polygon fill="white" stroke="#666666" points="733.5,-85 629.5,-85 629.5,-55 733.5,-55 733.5,-85"/>
<text text-anchor="start" x="637.5" y="-73" font-family="Helvetica,sans-Serif" font-size="10.00">../gpio_driver/gpio</text>
<text text-anchor="middle" x="681.5" y="-62" font-family="Helvetica,sans-Serif" font-size="10.00">_driver.h</text>
</a>
</g>
</g>
<!-- Node25&#45;&gt;Node26 -->
<g id="edge33_Node000025_Node000026" class="edge">
<title>Node25&#45;&gt;Node26</title>
<g id="a_edge33_Node000025_Node000026"><a xlink:title=" ">
<path fill="none" stroke="#63b8ff" d="M696.28,-120.8C694.02,-113.17 691.17,-103.57 688.58,-94.84"/>
<polygon fill="#63b8ff" stroke="#63b8ff" points="691.91,-93.75 685.7,-85.16 685.2,-95.75 691.91,-93.75"/>
</a>
</g>
</g>
<!-- Node27 -->
<g id="Node000027" class="node">
<title>Node27</title>
<g id="a_Node000027"><a xlink:href="rotary__encoder_8h.html" target="_top" xlink:title=" ">
<polygon fill="white" stroke="#666666" points="959,-85 828,-85 828,-55 959,-55 959,-85"/>
<text text-anchor="start" x="836" y="-73" font-family="Helvetica,sans-Serif" font-size="10.00">../rotary_encoder/rotary</text>
<text text-anchor="middle" x="893.5" y="-62" font-family="Helvetica,sans-Serif" font-size="10.00">_encoder.h</text>
</a>
</g>
</g>
<!-- Node25&#45;&gt;Node27 -->
<g id="edge36_Node000025_Node000027" class="edge">
<title>Node25&#45;&gt;Node27</title>
<g id="a_edge36_Node000025_Node000027"><a xlink:title=" ">
<path fill="none" stroke="#63b8ff" d="M742.85,-120.95C771.89,-111.33 810.6,-98.49 841.51,-88.24"/>
<polygon fill="#63b8ff" stroke="#63b8ff" points="842.85,-91.48 851.24,-85.01 840.65,-84.84 842.85,-91.48"/>
</a>
</g>
</g>
<!-- Node26&#45;&gt;Node5 -->
<g id="edge34_Node000026_Node000005" class="edge">
<title>Node26&#45;&gt;Node5</title>
<g id="a_edge34_Node000026_Node000005"><a xlink:title=" ">
<path fill="none" stroke="#63b8ff" d="M629.26,-57.51C581.34,-46.97 510.89,-31.48 464.14,-21.2"/>
<polygon fill="#63b8ff" stroke="#63b8ff" points="464.77,-17.75 454.25,-19.02 463.26,-24.59 464.77,-17.75"/>
</a>
</g>
</g>
<!-- Node26&#45;&gt;Node15 -->
<g id="edge35_Node000026_Node000015" class="edge">
<title>Node26&#45;&gt;Node15</title>
<g id="a_edge35_Node000026_Node000015"><a xlink:title=" ">
<path fill="none" stroke="#63b8ff" d="M662.13,-54.84C649.93,-45.91 634.19,-34.41 621.81,-25.35"/>
<polygon fill="#63b8ff" stroke="#63b8ff" points="623.63,-22.34 613.49,-19.27 619.49,-27.99 623.63,-22.34"/>
</a>
</g>
</g>
</g>
</svg>
