<?xml version="1.0" encoding="UTF-8" standalone="no"?>
<!DOCTYPE svg PUBLIC "-//W3C//DTD SVG 1.1//EN"
 "http://www.w3.org/Graphics/SVG/1.1/DTD/svg11.dtd">
<!-- Generated by graphviz version 2.43.0 (0)
 -->
<!-- Title: software/nixie_clock_esp32_project/main/main.c Pages: 1 -->
<svg width="1803pt" height="225pt"
 viewBox="0.00 0.00 1803.00 225.00" xmlns="http://www.w3.org/2000/svg" xmlns:xlink="http://www.w3.org/1999/xlink">
<g id="graph0" class="graph" transform="scale(1 1) rotate(0) translate(4 221)">
<title>software/nixie_clock_esp32_project/main/main.c</title>
<!-- Node1 -->
<g id="Node000001" class="node">
<title>Node1</title>
<g id="a_Node000001"><a xlink:title=" ">
<polygon fill="#999999" stroke="#666666" points="804.5,-217 650.5,-217 650.5,-187 804.5,-187 804.5,-217"/>
<text text-anchor="start" x="658.5" y="-205" font-family="Helvetica,sans-Serif" font-size="10.00">software/nixie_clock</text>
<text text-anchor="middle" x="727.5" y="-194" font-family="Helvetica,sans-Serif" font-size="10.00">_esp32_project/main/main.c</text>
</a>
</g>
</g>
<!-- Node2 -->
<g id="Node000002" class="node">
<title>Node2</title>
<g id="a_Node000002"><a xlink:title=" ">
<polygon fill="#e0e0e0" stroke="#999999" points="130,-145.5 77,-145.5 77,-126.5 130,-126.5 130,-145.5"/>
<text text-anchor="middle" x="103.5" y="-133.5" font-family="Helvetica,sans-Serif" font-size="10.00">string.h</text>
</a>
</g>
</g>
<!-- Node1&#45;&gt;Node2 -->
<g id="edge1_Node000001_Node000002" class="edge">
<title>Node1&#45;&gt;Node2</title>
<g id="a_edge1_Node000001_Node000002"><a xlink:title=" ">
<path fill="none" stroke="#63b8ff" d="M650.3,-201.41C536.86,-200.45 319.15,-192.66 139.5,-151 137.13,-150.45 134.71,-149.78 132.3,-149.02"/>
<polygon fill="#63b8ff" stroke="#63b8ff" points="133.2,-145.63 122.61,-145.6 130.87,-152.23 133.2,-145.63"/>
</a>
</g>
</g>
<!-- Node3 -->
<g id="Node000003" class="node">
<title>Node3</title>
<g id="a_Node000003"><a xlink:title=" ">
<polygon fill="#e0e0e0" stroke="#999999" points="240.5,-145.5 148.5,-145.5 148.5,-126.5 240.5,-126.5 240.5,-145.5"/>
<text text-anchor="middle" x="194.5" y="-133.5" font-family="Helvetica,sans-Serif" font-size="10.00">esp_task_wdt.h</text>
</a>
</g>
</g>
<!-- Node1&#45;&gt;Node3 -->
<g id="edge2_Node000001_Node000003" class="edge">
<title>Node1&#45;&gt;Node3</title>
<g id="a_edge2_Node000001_Node000003"><a xlink:title=" ">
<path fill="none" stroke="#63b8ff" d="M650.44,-196.39C555.56,-189.93 389.75,-176.05 249.5,-151 244.72,-150.15 239.74,-149.1 234.82,-147.97"/>
<polygon fill="#63b8ff" stroke="#63b8ff" points="235.42,-144.52 224.87,-145.57 233.77,-151.32 235.42,-144.52"/>
</a>
</g>
</g>
<!-- Node4 -->
<g id="Node000004" class="node">
<title>Node4</title>
<g id="a_Node000004"><a xlink:title=" ">
<polygon fill="#e0e0e0" stroke="#999999" points="322,-145.5 259,-145.5 259,-126.5 322,-126.5 322,-145.5"/>
<text text-anchor="middle" x="290.5" y="-133.5" font-family="Helvetica,sans-Serif" font-size="10.00">esp_log.h</text>
</a>
</g>
</g>
<!-- Node1&#45;&gt;Node4 -->
<g id="edge3_Node000001_Node000004" class="edge">
<title>Node1&#45;&gt;Node4</title>
<g id="a_edge3_Node000001_Node000004"><a xlink:title=" ">
<path fill="none" stroke="#63b8ff" d="M650.43,-195C571.1,-187.93 444.23,-174.11 336.5,-151 333.05,-150.26 329.48,-149.38 325.93,-148.43"/>
<polygon fill="#63b8ff" stroke="#63b8ff" points="326.67,-145 316.09,-145.62 324.74,-151.73 326.67,-145"/>
</a>
</g>
</g>
<!-- Node5 -->
<g id="Node000005" class="node">
<title>Node5</title>
<g id="a_Node000005"><a xlink:title=" ">
<polygon fill="#e0e0e0" stroke="#999999" points="542.5,-19 464.5,-19 464.5,0 542.5,0 542.5,-19"/>
<text text-anchor="middle" x="503.5" y="-7" font-family="Helvetica,sans-Serif" font-size="10.00">driver/gpio.h</text>
</a>
</g>
</g>
<!-- Node1&#45;&gt;Node5 -->
<g id="edge4_Node000001_Node000005" class="edge">
<title>Node1&#45;&gt;Node5</title>
<g id="a_edge4_Node000001_Node000005"><a xlink:title=" ">
<path fill="none" stroke="#63b8ff" d="M650.13,-191.8C609.5,-184.69 559.9,-172.32 519.5,-151 480.82,-130.59 464.25,-124.98 446.5,-85 441.09,-72.81 440.65,-66.98 446.5,-55 452.8,-42.09 464.85,-31.83 476.26,-24.43"/>
<polygon fill="#63b8ff" stroke="#63b8ff" points="478.36,-27.25 485.15,-19.12 474.77,-21.25 478.36,-27.25"/>
</a>
</g>
</g>
<!-- Node6 -->
<g id="Node000006" class="node">
<title>Node6</title>
<g id="a_Node000006"><a xlink:href="ntp_8h.html" target="_top" xlink:title=" ">
<polygon fill="white" stroke="#666666" points="1343.5,-145.5 1211.5,-145.5 1211.5,-126.5 1343.5,-126.5 1343.5,-145.5"/>
<text text-anchor="middle" x="1277.5" y="-133.5" font-family="Helvetica,sans-Serif" font-size="10.00">../components/ntp/ntp.h</text>
</a>
</g>
</g>
<!-- Node1&#45;&gt;Node6 -->
<g id="edge5_Node000001_Node000006" class="edge">
<title>Node1&#45;&gt;Node6</title>
<g id="a_edge5_Node000001_Node000006"><a xlink:title=" ">
<path fill="none" stroke="#63b8ff" d="M804.66,-194.78C898.83,-186.75 1062.8,-171.36 1202.5,-151 1209.88,-149.92 1217.65,-148.64 1225.27,-147.3"/>
<polygon fill="#63b8ff" stroke="#63b8ff" points="1225.94,-150.74 1235.16,-145.51 1224.69,-143.85 1225.94,-150.74"/>
</a>
</g>
</g>
<!-- Node7 -->
<g id="Node000007" class="node">
<title>Node7</title>
<g id="a_Node000007"><a xlink:href="uart_8h.html" target="_top" xlink:title=" ">
<polygon fill="white" stroke="#666666" points="1469.5,-151 1361.5,-151 1361.5,-121 1469.5,-121 1469.5,-151"/>
<text text-anchor="start" x="1369.5" y="-139" font-family="Helvetica,sans-Serif" font-size="10.00">../components/uart</text>
<text text-anchor="middle" x="1415.5" y="-128" font-family="Helvetica,sans-Serif" font-size="10.00">/uart.h</text>
</a>
</g>
</g>
<!-- Node1&#45;&gt;Node7 -->
<g id="edge6_Node000001_Node000007" class="edge">
<title>Node1&#45;&gt;Node7</title>
<g id="a_edge6_Node000001_Node000007"><a xlink:title=" ">
<path fill="none" stroke="#63b8ff" d="M804.87,-198.27C921.43,-193.38 1149.1,-180.87 1351.38,-151.03"/>
<polygon fill="#63b8ff" stroke="#63b8ff" points="1351.92,-154.49 1361.29,-149.55 1350.89,-147.56 1351.92,-154.49"/>
</a>
</g>
</g>
<!-- Node9 -->
<g id="Node000009" class="node">
<title>Node9</title>
<g id="a_Node000009"><a xlink:href="hv5622_8h.html" target="_top" xlink:title=" ">
<polygon fill="white" stroke="#666666" points="125,-85 0,-85 0,-55 125,-55 125,-85"/>
<text text-anchor="start" x="8" y="-73" font-family="Helvetica,sans-Serif" font-size="10.00">../components/hv5622</text>
<text text-anchor="middle" x="62.5" y="-62" font-family="Helvetica,sans-Serif" font-size="10.00">/hv5622.h</text>
</a>
</g>
</g>
<!-- Node1&#45;&gt;Node9 -->
<g id="edge8_Node000001_Node000009" class="edge">
<title>Node1&#45;&gt;Node9</title>
<g id="a_edge8_Node000001_Node000009"><a xlink:title=" ">
<path fill="none" stroke="#63b8ff" d="M650.37,-195.62C559.3,-188.36 413.94,-173.67 364.5,-151 346.18,-142.6 348.63,-129.81 330.5,-121 253.64,-83.65 223.65,-100.18 135.22,-85.04"/>
<polygon fill="#63b8ff" stroke="#63b8ff" points="135.78,-81.58 125.32,-83.26 134.54,-88.47 135.78,-81.58"/>
</a>
</g>
</g>
<!-- Node11 -->
<g id="Node000011" class="node">
<title>Node11</title>
<g id="a_Node000011"><a xlink:href="display_8h.html" target="_top" xlink:title=" ">
<polygon fill="white" stroke="#666666" points="267.5,-85 143.5,-85 143.5,-55 267.5,-55 267.5,-85"/>
<text text-anchor="start" x="151.5" y="-73" font-family="Helvetica,sans-Serif" font-size="10.00">../components/display</text>
<text text-anchor="middle" x="205.5" y="-62" font-family="Helvetica,sans-Serif" font-size="10.00">/display.h</text>
</a>
</g>
</g>
<!-- Node1&#45;&gt;Node11 -->
<g id="edge10_Node000001_Node000011" class="edge">
<title>Node1&#45;&gt;Node11</title>
<g id="a_edge10_Node000001_Node000011"><a xlink:title=" ">
<path fill="none" stroke="#63b8ff" d="M650.23,-200.13C582.38,-196.83 482.33,-185.74 402.5,-151 382.77,-142.41 383.52,-131.06 364.5,-121 337.39,-106.66 305.46,-95.62 277.37,-87.61"/>
<polygon fill="#63b8ff" stroke="#63b8ff" points="278.17,-84.2 267.6,-84.9 276.3,-90.95 278.17,-84.2"/>
</a>
</g>
</g>
<!-- Node12 -->
<g id="Node000012" class="node">
<title>Node12</title>
<g id="a_Node000012"><a xlink:href="clock_8h.html" target="_top" xlink:title=" ">
<polygon fill="white" stroke="#666666" points="399.5,-85 285.5,-85 285.5,-55 399.5,-55 399.5,-85"/>
<text text-anchor="start" x="293.5" y="-73" font-family="Helvetica,sans-Serif" font-size="10.00">../components/clock</text>
<text text-anchor="middle" x="342.5" y="-62" font-family="Helvetica,sans-Serif" font-size="10.00">/clock.h</text>
</a>
</g>
</g>
<!-- Node1&#45;&gt;Node12 -->
<g id="edge12_Node000001_Node000012" class="edge">
<title>Node1&#45;&gt;Node12</title>
<g id="a_edge12_Node000001_Node000012"><a xlink:title=" ">
<path fill="none" stroke="#63b8ff" d="M650.43,-196.55C593.28,-191.04 514.53,-178.68 450.5,-151 432.91,-143.4 393.44,-112.63 367.41,-91.54"/>
<polygon fill="#63b8ff" stroke="#63b8ff" points="369.43,-88.68 359.47,-85.08 365.01,-94.11 369.43,-88.68"/>
</a>
</g>
</g>
<!-- Node13 -->
<g id="Node000013" class="node">
<title>Node13</title>
<g id="a_Node000013"><a xlink:href="webserver_8h.html" target="_top" xlink:title=" ">
<polygon fill="white" stroke="#666666" points="1627.5,-151 1487.5,-151 1487.5,-121 1627.5,-121 1627.5,-151"/>
<text text-anchor="start" x="1495.5" y="-139" font-family="Helvetica,sans-Serif" font-size="10.00">../components/webserver</text>
<text text-anchor="middle" x="1557.5" y="-128" font-family="Helvetica,sans-Serif" font-size="10.00">/webserver.h</text>
</a>
</g>
</g>
<!-- Node1&#45;&gt;Node13 -->
<g id="edge14_Node000001_Node000013" class="edge">
<title>Node1&#45;&gt;Node13</title>
<g id="a_edge14_Node000001_Node000013"><a xlink:title=" ">
<path fill="none" stroke="#63b8ff" d="M804.52,-198.64C939.04,-193.91 1225.65,-181.14 1477.28,-151.06"/>
<polygon fill="#63b8ff" stroke="#63b8ff" points="1477.84,-154.51 1487.35,-149.84 1477,-147.56 1477.84,-154.51"/>
</a>
</g>
</g>
<!-- Node15 -->
<g id="Node000015" class="node">
<title>Node15</title>
<g id="a_Node000015"><a xlink:href="config_8h.html" target="_top" xlink:title=" ">
<polygon fill="white" stroke="#666666" points="646.5,-151 528.5,-151 528.5,-121 646.5,-121 646.5,-151"/>
<text text-anchor="start" x="536.5" y="-139" font-family="Helvetica,sans-Serif" font-size="10.00">../components/config</text>
<text text-anchor="middle" x="587.5" y="-128" font-family="Helvetica,sans-Serif" font-size="10.00">/config.h</text>
</a>
</g>
</g>
<!-- Node1&#45;&gt;Node15 -->
<g id="edge16_Node000001_Node000015" class="edge">
<title>Node1&#45;&gt;Node15</title>
<g id="a_edge16_Node000001_Node000015"><a xlink:title=" ">
<path fill="none" stroke="#63b8ff" d="M696.78,-186.95C676.35,-177.62 649.33,-165.27 627.27,-155.18"/>
<polygon fill="#63b8ff" stroke="#63b8ff" points="628.7,-151.99 618.15,-151.01 625.79,-158.35 628.7,-151.99"/>
</a>
</g>
</g>
<!-- Node19 -->
<g id="Node000019" class="node">
<title>Node19</title>
<g id="a_Node000019"><a xlink:href="pwm_8h.html" target="_top" xlink:title=" ">
<polygon fill="white" stroke="#666666" points="1795,-145.5 1646,-145.5 1646,-126.5 1795,-126.5 1795,-145.5"/>
<text text-anchor="middle" x="1720.5" y="-133.5" font-family="Helvetica,sans-Serif" font-size="10.00">../components/pwm/pwm.h</text>
</a>
</g>
</g>
<!-- Node1&#45;&gt;Node19 -->
<g id="edge21_Node000001_Node000019" class="edge">
<title>Node1&#45;&gt;Node19</title>
<g id="a_edge21_Node000001_Node000019"><a xlink:title=" ">
<path fill="none" stroke="#63b8ff" d="M804.65,-199.62C961.68,-196.19 1329.58,-184.91 1636.5,-151 1645.67,-149.99 1655.37,-148.63 1664.78,-147.17"/>
<polygon fill="#63b8ff" stroke="#63b8ff" points="1665.54,-150.59 1674.85,-145.55 1664.42,-143.68 1665.54,-150.59"/>
</a>
</g>
</g>
<!-- Node20 -->
<g id="Node000020" class="node">
<title>Node20</title>
<g id="a_Node000020"><a xlink:href="dispatcher_8h.html" target="_top" xlink:title=" ">
<polygon fill="white" stroke="#666666" points="1193.5,-151 1053.5,-151 1053.5,-121 1193.5,-121 1193.5,-151"/>
<text text-anchor="start" x="1061.5" y="-139" font-family="Helvetica,sans-Serif" font-size="10.00">../components/dispatcher</text>
<text text-anchor="middle" x="1123.5" y="-128" font-family="Helvetica,sans-Serif" font-size="10.00">/dispatcher.h</text>
</a>
</g>
</g>
<!-- Node1&#45;&gt;Node20 -->
<g id="edge22_Node000001_Node000020" class="edge">
<title>Node1&#45;&gt;Node20</title>
<g id="a_edge22_Node000001_Node000020"><a xlink:title=" ">
<path fill="none" stroke="#63b8ff" d="M804.77,-188.75C867.92,-178.71 959.51,-164.08 1039.5,-151 1040.77,-150.79 1042.06,-150.58 1043.35,-150.37"/>
<polygon fill="#63b8ff" stroke="#63b8ff" points="1044.08,-153.8 1053.38,-148.72 1042.94,-146.89 1044.08,-153.8"/>
</a>
</g>
</g>
<!-- Node21 -->
<g id="Node000021" class="node">
<title>Node21</title>
<g id="a_Node000021"><a xlink:href="event__bus_8h.html" target="_top" xlink:title=" ">
<polygon fill="white" stroke="#666666" points="1376,-85 1269,-85 1269,-55 1376,-55 1376,-85"/>
<text text-anchor="start" x="1277" y="-73" font-family="Helvetica,sans-Serif" font-size="10.00">../event_bus/event</text>
<text text-anchor="middle" x="1322.5" y="-62" font-family="Helvetica,sans-Serif" font-size="10.00">_bus.h</text>
</a>
</g>
</g>
<!-- Node1&#45;&gt;Node21 -->
<g id="edge26_Node000001_Node000021" class="edge">
<title>Node1&#45;&gt;Node21</title>
<g id="a_edge26_Node000001_Node000021"><a xlink:title=" ">
<path fill="none" stroke="#63b8ff" d="M804.78,-197.28C862.51,-192.13 942.22,-179.92 1006.5,-151 1026.12,-142.17 1024.82,-129.71 1044.5,-121 1130.54,-82.91 1162.84,-102.32 1258.67,-85.22"/>
<polygon fill="#63b8ff" stroke="#63b8ff" points="1259.59,-88.61 1268.77,-83.33 1258.3,-81.73 1259.59,-88.61"/>
</a>
</g>
</g>
<!-- Node23 -->
<g id="Node000023" class="node">
<title>Node23</title>
<g id="a_Node000023"><a xlink:href="wifi_8h.html" target="_top" xlink:title=" ">
<polygon fill="white" stroke="#666666" points="881.5,-85 775.5,-85 775.5,-55 881.5,-55 881.5,-85"/>
<text text-anchor="start" x="783.5" y="-73" font-family="Helvetica,sans-Serif" font-size="10.00">../components/wifi</text>
<text text-anchor="middle" x="828.5" y="-62" font-family="Helvetica,sans-Serif" font-size="10.00">/wifi.h</text>
</a>
</g>
</g>
<!-- Node1&#45;&gt;Node23 -->
<g id="edge27_Node000001_Node000023" class="edge">
<title>Node1&#45;&gt;Node23</title>
<g id="a_edge27_Node000001_Node000023"><a xlink:title=" ">
<path fill="none" stroke="#63b8ff" d="M727.65,-186.93C728.5,-169.81 732.15,-140.75 746.5,-121 755.99,-107.94 770.02,-97.61 783.81,-89.81"/>
<polygon fill="#63b8ff" stroke="#63b8ff" points="785.59,-92.83 792.79,-85.05 782.31,-86.64 785.59,-92.83"/>
</a>
</g>
</g>
<!-- Node24 -->
<g id="Node000024" class="node">
<title>Node24</title>
<g id="a_Node000024"><a xlink:href="clock__task_8h.html" target="_top" xlink:title=" ">
<polygon fill="white" stroke="#666666" points="997.5,-151 883.5,-151 883.5,-121 997.5,-121 997.5,-151"/>
<text text-anchor="start" x="891.5" y="-139" font-family="Helvetica,sans-Serif" font-size="10.00">../components/clock</text>
<text text-anchor="middle" x="940.5" y="-128" font-family="Helvetica,sans-Serif" font-size="10.00">_task/clock_task.h</text>
</a>
</g>
</g>
<!-- Node1&#45;&gt;Node24 -->
<g id="edge29_Node000001_Node000024" class="edge">
<title>Node1&#45;&gt;Node24</title>
<g id="a_edge29_Node000001_Node000024"><a xlink:title=" ">
<path fill="none" stroke="#63b8ff" d="M774.24,-186.95C806.57,-177.24 849.75,-164.27 884,-153.98"/>
<polygon fill="#63b8ff" stroke="#63b8ff" points="885.3,-157.24 893.87,-151.01 883.28,-150.54 885.3,-157.24"/>
</a>
</g>
</g>
<!-- Node26 -->
<g id="Node000026" class="node">
<title>Node26</title>
<g id="a_Node000026"><a xlink:href="gpio__task_8h.html" target="_top" xlink:title=" ">
<polygon fill="white" stroke="#666666" points="865.5,-151 755.5,-151 755.5,-121 865.5,-121 865.5,-151"/>
<text text-anchor="start" x="763.5" y="-139" font-family="Helvetica,sans-Serif" font-size="10.00">../components/gpio</text>
<text text-anchor="middle" x="810.5" y="-128" font-family="Helvetica,sans-Serif" font-size="10.00">_task/gpio_task.h</text>
</a>
</g>
</g>
<!-- Node1&#45;&gt;Node26 -->
<g id="edge32_Node000001_Node000026" class="edge">
<title>Node1&#45;&gt;Node26</title>
<g id="a_edge32_Node000001_Node000026"><a xlink:title=" ">
<path fill="none" stroke="#63b8ff" d="M745.92,-186.8C757.1,-178.18 771.55,-167.04 783.94,-157.48"/>
<polygon fill="#63b8ff" stroke="#63b8ff" points="786.35,-160.04 792.13,-151.16 782.07,-154.5 786.35,-160.04"/>
</a>
</g>
</g>
<!-- Node8 -->
<g id="Node000008" class="node">
<title>Node8</title>
<g id="a_Node000008"><a xlink:title=" ">
<polygon fill="#e0e0e0" stroke="#999999" points="1471,-79.5 1394,-79.5 1394,-60.5 1471,-60.5 1471,-79.5"/>
<text text-anchor="middle" x="1432.5" y="-67.5" font-family="Helvetica,sans-Serif" font-size="10.00">driver/uart.h</text>
</a>
</g>
</g>
<!-- Node7&#45;&gt;Node8 -->
<g id="edge7_Node000007_Node000008" class="edge">
<title>Node7&#45;&gt;Node8</title>
<g id="a_edge7_Node000007_Node000008"><a xlink:title=" ">
<path fill="none" stroke="#63b8ff" d="M1419.27,-120.8C1421.72,-111.6 1424.92,-99.53 1427.57,-89.58"/>
<polygon fill="#63b8ff" stroke="#63b8ff" points="1430.97,-90.41 1430.15,-79.84 1424.2,-88.61 1430.97,-90.41"/>
</a>
</g>
</g>
<!-- Node10 -->
<g id="Node000010" class="node">
<title>Node10</title>
<g id="a_Node000010"><a xlink:title=" ">
<polygon fill="#e0e0e0" stroke="#999999" points="232,-19 179,-19 179,0 232,0 232,-19"/>
<text text-anchor="middle" x="205.5" y="-7" font-family="Helvetica,sans-Serif" font-size="10.00">stdint.h</text>
</a>
</g>
</g>
<!-- Node9&#45;&gt;Node10 -->
<g id="edge9_Node000009_Node000010" class="edge">
<title>Node9&#45;&gt;Node10</title>
<g id="a_edge9_Node000009_Node000010"><a xlink:title=" ">
<path fill="none" stroke="#63b8ff" d="M96.75,-54.99C120.61,-45.23 152.15,-32.33 175.11,-22.93"/>
<polygon fill="#63b8ff" stroke="#63b8ff" points="176.45,-26.17 184.38,-19.14 173.8,-19.69 176.45,-26.17"/>
</a>
</g>
</g>
<!-- Node11&#45;&gt;Node10 -->
<g id="edge11_Node000011_Node000010" class="edge">
<title>Node11&#45;&gt;Node10</title>
<g id="a_edge11_Node000011_Node000010"><a xlink:title=" ">
<path fill="none" stroke="#63b8ff" d="M205.5,-54.84C205.5,-47.21 205.5,-37.7 205.5,-29.45"/>
<polygon fill="#63b8ff" stroke="#63b8ff" points="209,-29.27 205.5,-19.27 202,-29.27 209,-29.27"/>
</a>
</g>
</g>
<!-- Node12&#45;&gt;Node10 -->
<g id="edge13_Node000012_Node000010" class="edge">
<title>Node12&#45;&gt;Node10</title>
<g id="a_edge13_Node000012_Node000010"><a xlink:title=" ">
<path fill="none" stroke="#63b8ff" d="M309.69,-54.99C287.03,-45.31 257.15,-32.56 235.2,-23.18"/>
<polygon fill="#63b8ff" stroke="#63b8ff" points="236.3,-19.85 225.73,-19.14 233.55,-26.29 236.3,-19.85"/>
</a>
</g>
</g>
<!-- Node14 -->
<g id="Node000014" class="node">
<title>Node14</title>
<g id="a_Node000014"><a xlink:title=" ">
<polygon fill="#e0e0e0" stroke="#999999" points="1609,-79.5 1506,-79.5 1506,-60.5 1609,-60.5 1609,-79.5"/>
<text text-anchor="middle" x="1557.5" y="-67.5" font-family="Helvetica,sans-Serif" font-size="10.00">esp_http_server.h</text>
</a>
</g>
</g>
<!-- Node13&#45;&gt;Node14 -->
<g id="edge15_Node000013_Node000014" class="edge">
<title>Node13&#45;&gt;Node14</title>
<g id="a_edge15_Node000013_Node000014"><a xlink:title=" ">
<path fill="none" stroke="#63b8ff" d="M1557.5,-120.8C1557.5,-111.7 1557.5,-99.79 1557.5,-89.9"/>
<polygon fill="#63b8ff" stroke="#63b8ff" points="1561,-89.84 1557.5,-79.84 1554,-89.84 1561,-89.84"/>
</a>
</g>
</g>
<!-- Node15&#45;&gt;Node12 -->
<g id="edge18_Node000015_Node000012" class="edge">
<title>Node15&#45;&gt;Node12</title>
<g id="a_edge18_Node000015_Node000012"><a xlink:title=" ">
<path fill="none" stroke="#63b8ff" d="M533.73,-120.95C496.08,-111.12 445.61,-97.93 405.97,-87.58"/>
<polygon fill="#63b8ff" stroke="#63b8ff" points="406.7,-84.15 396.14,-85.01 404.93,-90.93 406.7,-84.15"/>
</a>
</g>
</g>
<!-- Node16 -->
<g id="Node000016" class="node">
<title>Node16</title>
<g id="a_Node000016"><a xlink:title=" ">
<polygon fill="#e0e0e0" stroke="#999999" points="698,-19 637,-19 637,0 698,0 698,-19"/>
<text text-anchor="middle" x="667.5" y="-7" font-family="Helvetica,sans-Serif" font-size="10.00">esp_err.h</text>
</a>
</g>
</g>
<!-- Node15&#45;&gt;Node16 -->
<g id="edge17_Node000015_Node000016" class="edge">
<title>Node15&#45;&gt;Node16</title>
<g id="a_edge17_Node000015_Node000016"><a xlink:title=" ">
<path fill="none" stroke="#63b8ff" d="M587.94,-120.82C589.09,-103.86 593.06,-75.21 606.5,-55 615,-42.21 628.5,-31.81 640.63,-24.29"/>
<polygon fill="#63b8ff" stroke="#63b8ff" points="642.66,-27.16 649.54,-19.11 639.14,-21.11 642.66,-27.16"/>
</a>
</g>
</g>
<!-- Node17 -->
<g id="Node000017" class="node">
<title>Node17</title>
<g id="a_Node000017"><a xlink:title=" ">
<polygon fill="#e0e0e0" stroke="#999999" points="1151,-19 1038,-19 1038,0 1151,0 1151,-19"/>
<text text-anchor="middle" x="1094.5" y="-7" font-family="Helvetica,sans-Serif" font-size="10.00">freertos/FreeRTOS.h</text>
</a>
</g>
</g>
<!-- Node15&#45;&gt;Node17 -->
<g id="edge19_Node000015_Node000017" class="edge">
<title>Node15&#45;&gt;Node17</title>
<g id="a_edge19_Node000015_Node000017"><a xlink:title=" ">
<path fill="none" stroke="#63b8ff" d="M639.82,-120.94C667.17,-112.49 700.65,-100.38 728.5,-85 747.34,-74.6 746.69,-63.41 766.5,-55 812.22,-35.59 945.74,-22.1 1027.65,-15.39"/>
<polygon fill="#63b8ff" stroke="#63b8ff" points="1028.18,-18.86 1037.86,-14.57 1027.61,-11.88 1028.18,-18.86"/>
</a>
</g>
</g>
<!-- Node18 -->
<g id="Node000018" class="node">
<title>Node18</title>
<g id="a_Node000018"><a xlink:title=" ">
<polygon fill="#e0e0e0" stroke="#999999" points="559,-79.5 456,-79.5 456,-60.5 559,-60.5 559,-79.5"/>
<text text-anchor="middle" x="507.5" y="-67.5" font-family="Helvetica,sans-Serif" font-size="10.00">freertos/semphr.h</text>
</a>
</g>
</g>
<!-- Node15&#45;&gt;Node18 -->
<g id="edge20_Node000015_Node000018" class="edge">
<title>Node15&#45;&gt;Node18</title>
<g id="a_edge20_Node000015_Node000018"><a xlink:title=" ">
<path fill="none" stroke="#63b8ff" d="M569.75,-120.8C556.91,-110.53 539.58,-96.67 526.47,-86.18"/>
<polygon fill="#63b8ff" stroke="#63b8ff" points="528.55,-83.36 518.56,-79.84 524.18,-88.82 528.55,-83.36"/>
</a>
</g>
</g>
<!-- Node20&#45;&gt;Node21 -->
<g id="edge23_Node000020_Node000021" class="edge">
<title>Node20&#45;&gt;Node21</title>
<g id="a_edge23_Node000020_Node000021"><a xlink:title=" ">
<path fill="none" stroke="#63b8ff" d="M1167.17,-120.95C1197.24,-111.28 1237.37,-98.38 1269.3,-88.11"/>
<polygon fill="#63b8ff" stroke="#63b8ff" points="1270.48,-91.41 1278.93,-85.01 1268.34,-84.74 1270.48,-91.41"/>
</a>
</g>
</g>
<!-- Node21&#45;&gt;Node17 -->
<g id="edge24_Node000021_Node000017" class="edge">
<title>Node21&#45;&gt;Node17</title>
<g id="a_edge24_Node000021_Node000017"><a xlink:title=" ">
<path fill="none" stroke="#63b8ff" d="M1268.76,-55.21C1228.8,-44.96 1174.99,-31.15 1137.79,-21.61"/>
<polygon fill="#63b8ff" stroke="#63b8ff" points="1138.32,-18.13 1127.76,-19.03 1136.58,-24.91 1138.32,-18.13"/>
</a>
</g>
</g>
<!-- Node22 -->
<g id="Node000022" class="node">
<title>Node22</title>
<g id="a_Node000022"><a xlink:title=" ">
<polygon fill="#e0e0e0" stroke="#999999" points="1336,-19 1239,-19 1239,0 1336,0 1336,-19"/>
<text text-anchor="middle" x="1287.5" y="-7" font-family="Helvetica,sans-Serif" font-size="10.00">freertos/queue.h</text>
</a>
</g>
</g>
<!-- Node21&#45;&gt;Node22 -->
<g id="edge25_Node000021_Node000022" class="edge">
<title>Node21&#45;&gt;Node22</title>
<g id="a_edge25_Node000021_Node000022"><a xlink:title=" ">
<path fill="none" stroke="#63b8ff" d="M1314.03,-54.84C1309.21,-46.78 1303.13,-36.62 1298,-28.06"/>
<polygon fill="#63b8ff" stroke="#63b8ff" points="1300.88,-26.05 1292.74,-19.27 1294.88,-29.64 1300.88,-26.05"/>
</a>
</g>
</g>
<!-- Node23&#45;&gt;Node16 -->
<g id="edge28_Node000023_Node000016" class="edge">
<title>Node23&#45;&gt;Node16</title>
<g id="a_edge28_Node000023_Node000016"><a xlink:title=" ">
<path fill="none" stroke="#63b8ff" d="M789.94,-54.99C762.71,-45.1 726.62,-31.98 700.68,-22.56"/>
<polygon fill="#63b8ff" stroke="#63b8ff" points="701.87,-19.26 691.28,-19.14 699.48,-25.84 701.87,-19.26"/>
</a>
</g>
</g>
<!-- Node24&#45;&gt;Node17 -->
<g id="edge30_Node000024_Node000017" class="edge">
<title>Node24&#45;&gt;Node17</title>
<g id="a_edge30_Node000024_Node000017"><a xlink:title=" ">
<path fill="none" stroke="#63b8ff" d="M991.88,-120.91C1024.24,-111.09 1061.99,-97.54 1073.5,-85 1087.53,-69.72 1092.28,-45.78 1093.83,-29.18"/>
<polygon fill="#63b8ff" stroke="#63b8ff" points="1097.34,-29.25 1094.48,-19.05 1090.35,-28.81 1097.34,-29.25"/>
</a>
</g>
</g>
<!-- Node25 -->
<g id="Node000025" class="node">
<title>Node25</title>
<g id="a_Node000025"><a xlink:title=" ">
<polygon fill="#e0e0e0" stroke="#999999" points="1251.5,-79.5 1163.5,-79.5 1163.5,-60.5 1251.5,-60.5 1251.5,-79.5"/>
<text text-anchor="middle" x="1207.5" y="-67.5" font-family="Helvetica,sans-Serif" font-size="10.00">freertos/task.h</text>
</a>
</g>
</g>
<!-- Node24&#45;&gt;Node25 -->
<g id="edge31_Node000024_Node000025" class="edge">
<title>Node24&#45;&gt;Node25</title>
<g id="a_edge31_Node000024_Node000025"><a xlink:title=" ">
<path fill="none" stroke="#63b8ff" d="M997.72,-121.34C1039.73,-111.31 1098.17,-97.34 1149.5,-85 1153.64,-84.01 1157.94,-82.97 1162.24,-81.93"/>
<polygon fill="#63b8ff" stroke="#63b8ff" points="1163.33,-85.27 1172.23,-79.53 1161.69,-78.47 1163.33,-85.27"/>
</a>
</g>
</g>
<!-- Node26&#45;&gt;Node17 -->
<g id="edge33_Node000026_Node000017" class="edge">
<title>Node26&#45;&gt;Node17</title>
<g id="a_edge33_Node000026_Node000017"><a xlink:title=" ">
<path fill="none" stroke="#63b8ff" d="M865.66,-122.93C868.65,-122.28 871.61,-121.63 874.5,-121 947.83,-104.98 976.5,-125.81 1039.5,-85 1061.04,-71.04 1077.11,-45.52 1086.15,-28.28"/>
<polygon fill="#63b8ff" stroke="#63b8ff" points="1089.33,-29.75 1090.65,-19.24 1083.06,-26.63 1089.33,-29.75"/>
</a>
</g>
</g>
<!-- Node26&#45;&gt;Node22 -->
<g id="edge34_Node000026_Node000022" class="edge">
<title>Node26&#45;&gt;Node22</title>
<g id="a_edge34_Node000026_Node000022"><a xlink:title=" ">
<path fill="none" stroke="#63b8ff" d="M865.63,-122.82C868.63,-122.19 871.6,-121.58 874.5,-121 960.89,-103.58 984.35,-107.74 1069.5,-85 1108.21,-74.67 1116.61,-68.02 1154.5,-55 1187.37,-43.7 1224.94,-31.16 1251.75,-22.29"/>
<polygon fill="#63b8ff" stroke="#63b8ff" points="1253.07,-25.54 1261.46,-19.07 1250.87,-18.89 1253.07,-25.54"/>
</a>
</g>
</g>
<!-- Node27 -->
<g id="Node000027" class="node">
<title>Node27</title>
<g id="a_Node000027"><a xlink:href="gpio__driver_8h.html" target="_top" xlink:title=" ">
<polygon fill="white" stroke="#666666" points="719.5,-85 615.5,-85 615.5,-55 719.5,-55 719.5,-85"/>
<text text-anchor="start" x="623.5" y="-73" font-family="Helvetica,sans-Serif" font-size="10.00">../gpio_driver/gpio</text>
<text text-anchor="middle" x="667.5" y="-62" font-family="Helvetica,sans-Serif" font-size="10.00">_driver.h</text>
</a>
</g>
</g>
<!-- Node26&#45;&gt;Node27 -->
<g id="edge35_Node000026_Node000027" class="edge">
<title>Node26&#45;&gt;Node27</title>
<g id="a_edge35_Node000026_Node000027"><a xlink:title=" ">
<path fill="none" stroke="#63b8ff" d="M779.12,-120.95C758.26,-111.62 730.66,-99.27 708.12,-89.18"/>
<polygon fill="#63b8ff" stroke="#63b8ff" points="709.37,-85.9 698.81,-85.01 706.51,-92.29 709.37,-85.9"/>
</a>
</g>
</g>
<!-- Node28 -->
<g id="Node000028" class="node">
<title>Node28</title>
<g id="a_Node000028"><a xlink:href="rotary__encoder_8h.html" target="_top" xlink:title=" ">
<polygon fill="white" stroke="#666666" points="1031,-85 900,-85 900,-55 1031,-55 1031,-85"/>
<text text-anchor="start" x="908" y="-73" font-family="Helvetica,sans-Serif" font-size="10.00">../rotary_encoder/rotary</text>
<text text-anchor="middle" x="965.5" y="-62" font-family="Helvetica,sans-Serif" font-size="10.00">_encoder.h</text>
</a>
</g>
</g>
<!-- Node26&#45;&gt;Node28 -->
<g id="edge38_Node000026_Node000028" class="edge">
<title>Node26&#45;&gt;Node28</title>
<g id="a_edge38_Node000026_Node000028"><a xlink:title=" ">
<path fill="none" stroke="#63b8ff" d="M844.52,-120.95C867.33,-111.53 897.58,-99.04 922.12,-88.91"/>
<polygon fill="#63b8ff" stroke="#63b8ff" points="923.66,-92.06 931.56,-85.01 920.99,-85.59 923.66,-92.06"/>
</a>
</g>
</g>
<!-- Node27&#45;&gt;Node5 -->
<g id="edge36_Node000027_Node000005" class="edge">
<title>Node27&#45;&gt;Node5</title>
<g id="a_edge36_Node000027_Node000005"><a xlink:title=" ">
<path fill="none" stroke="#63b8ff" d="M628.22,-54.99C600.49,-45.1 563.72,-31.98 537.3,-22.56"/>
<polygon fill="#63b8ff" stroke="#63b8ff" points="538.31,-19.2 527.72,-19.14 535.96,-25.8 538.31,-19.2"/>
</a>
</g>
</g>
<!-- Node27&#45;&gt;Node16 -->
<g id="edge37_Node000027_Node000016" class="edge">
<title>Node27&#45;&gt;Node16</title>
<g id="a_edge37_Node000027_Node000016"><a xlink:title=" ">
<path fill="none" stroke="#63b8ff" d="M667.5,-54.84C667.5,-47.21 667.5,-37.7 667.5,-29.45"/>
<polygon fill="#63b8ff" stroke="#63b8ff" points="671,-29.27 667.5,-19.27 664,-29.27 671,-29.27"/>
</a>
</g>
</g>
</g>
</svg>
