<?xml version="1.0" encoding="UTF-8" standalone="no"?>
<!DOCTYPE svg PUBLIC "-//W3C//DTD SVG 1.1//EN"
 "http://www.w3.org/Graphics/SVG/1.1/DTD/svg11.dtd">
<!-- Generated by graphviz version 2.43.0 (0)
 -->
<!-- Title: software/nixie_clock_esp32_project/main/main.c Pages: 1 -->
<svg width="1648pt" height="225pt"
 viewBox="0.00 0.00 1648.00 225.00" xmlns="http://www.w3.org/2000/svg" xmlns:xlink="http://www.w3.org/1999/xlink">
<g id="graph0" class="graph" transform="scale(1 1) rotate(0) translate(4 221)">
<title>software/nixie_clock_esp32_project/main/main.c</title>
<!-- Node1 -->
<g id="Node000001" class="node">
<title>Node1</title>
<g id="a_Node000001"><a xlink:title=" ">
<polygon fill="#999999" stroke="#666666" points="989.5,-217 835.5,-217 835.5,-187 989.5,-187 989.5,-217"/>
<text text-anchor="start" x="843.5" y="-205" font-family="Helvetica,sans-Serif" font-size="10.00">software/nixie_clock</text>
<text text-anchor="middle" x="912.5" y="-194" font-family="Helvetica,sans-Serif" font-size="10.00">_esp32_project/main/main.c</text>
</a>
</g>
</g>
<!-- Node2 -->
<g id="Node000002" class="node">
<title>Node2</title>
<g id="a_Node000002"><a xlink:title=" ">
<polygon fill="#e0e0e0" stroke="#999999" points="53,-145.5 0,-145.5 0,-126.5 53,-126.5 53,-145.5"/>
<text text-anchor="middle" x="26.5" y="-133.5" font-family="Helvetica,sans-Serif" font-size="10.00">string.h</text>
</a>
</g>
</g>
<!-- Node1&#45;&gt;Node2 -->
<g id="edge1_Node000001_Node000002" class="edge">
<title>Node1&#45;&gt;Node2</title>
<g id="a_edge1_Node000001_Node000002"><a xlink:title=" ">
<path fill="none" stroke="#63b8ff" d="M835.34,-199.09C655.6,-194.23 213.23,-179.64 67.5,-151 64.25,-150.36 60.91,-149.53 57.6,-148.59"/>
<polygon fill="#63b8ff" stroke="#63b8ff" points="58.5,-145.2 47.91,-145.53 56.39,-151.87 58.5,-145.2"/>
</a>
</g>
</g>
<!-- Node3 -->
<g id="Node000003" class="node">
<title>Node3</title>
<g id="a_Node000003"><a xlink:title=" ">
<polygon fill="#e0e0e0" stroke="#999999" points="260.5,-19 182.5,-19 182.5,0 260.5,0 260.5,-19"/>
<text text-anchor="middle" x="221.5" y="-7" font-family="Helvetica,sans-Serif" font-size="10.00">driver/gpio.h</text>
</a>
</g>
</g>
<!-- Node1&#45;&gt;Node3 -->
<g id="edge2_Node000001_Node000003" class="edge">
<title>Node1&#45;&gt;Node3</title>
<g id="a_edge2_Node000001_Node000003"><a xlink:title=" ">
<path fill="none" stroke="#63b8ff" d="M835.36,-198.9C724.12,-194.84 512.57,-183.24 335.5,-151 228.77,-131.57 166.02,-171.46 100.5,-85 92.45,-74.37 92.87,-65.93 100.5,-55 116.67,-31.83 146.32,-20.69 172.22,-15.35"/>
<polygon fill="#63b8ff" stroke="#63b8ff" points="173.08,-18.75 182.29,-13.51 171.83,-11.86 173.08,-18.75"/>
</a>
</g>
</g>
<!-- Node4 -->
<g id="Node000004" class="node">
<title>Node4</title>
<g id="a_Node000004"><a xlink:href="gpio__task_8h.html" target="_top" xlink:title=" ">
<polygon fill="white" stroke="#666666" points="418,-145.5 345,-145.5 345,-126.5 418,-126.5 418,-145.5"/>
<text text-anchor="middle" x="381.5" y="-133.5" font-family="Helvetica,sans-Serif" font-size="10.00">gpio_task.h</text>
</a>
</g>
</g>
<!-- Node1&#45;&gt;Node4 -->
<g id="edge3_Node000001_Node000004" class="edge">
<title>Node1&#45;&gt;Node4</title>
<g id="a_edge3_Node000001_Node000004"><a xlink:title=" ">
<path fill="none" stroke="#63b8ff" d="M835.18,-197.8C738.69,-192.71 569.01,-180.19 426.5,-151 423.03,-150.29 419.44,-149.42 415.88,-148.46"/>
<polygon fill="#63b8ff" stroke="#63b8ff" points="416.61,-145.03 406.03,-145.6 414.65,-151.75 416.61,-145.03"/>
</a>
</g>
</g>
<!-- Node10 -->
<g id="Node000010" class="node">
<title>Node10</title>
<g id="a_Node000010"><a xlink:href="clock__task_8h.html" target="_top" xlink:title=" ">
<polygon fill="white" stroke="#666666" points="692,-145.5 615,-145.5 615,-126.5 692,-126.5 692,-145.5"/>
<text text-anchor="middle" x="653.5" y="-133.5" font-family="Helvetica,sans-Serif" font-size="10.00">clock_task.h</text>
</a>
</g>
</g>
<!-- Node1&#45;&gt;Node10 -->
<g id="edge10_Node000001_Node000010" class="edge">
<title>Node1&#45;&gt;Node10</title>
<g id="a_edge10_Node000001_Node000010"><a xlink:title=" ">
<path fill="none" stroke="#63b8ff" d="M855.66,-186.95C808.14,-175.21 741.31,-158.7 697.71,-147.93"/>
<polygon fill="#63b8ff" stroke="#63b8ff" points="698.52,-144.52 687.97,-145.52 696.84,-151.31 698.52,-144.52"/>
</a>
</g>
</g>
<!-- Node12 -->
<g id="Node000012" class="node">
<title>Node12</title>
<g id="a_Node000012"><a xlink:href="ntp_8h.html" target="_top" xlink:title=" ">
<polygon fill="white" stroke="#666666" points="1020,-145.5 979,-145.5 979,-126.5 1020,-126.5 1020,-145.5"/>
<text text-anchor="middle" x="999.5" y="-133.5" font-family="Helvetica,sans-Serif" font-size="10.00">ntp.h</text>
</a>
</g>
</g>
<!-- Node1&#45;&gt;Node12 -->
<g id="edge13_Node000001_Node000012" class="edge">
<title>Node1&#45;&gt;Node12</title>
<g id="a_edge13_Node000001_Node000012"><a xlink:title=" ">
<path fill="none" stroke="#63b8ff" d="M931.81,-186.8C945.99,-176.37 965.19,-162.24 979.52,-151.69"/>
<polygon fill="#63b8ff" stroke="#63b8ff" points="981.75,-154.4 987.73,-145.66 977.6,-148.76 981.75,-154.4"/>
</a>
</g>
</g>
<!-- Node13 -->
<g id="Node000013" class="node">
<title>Node13</title>
<g id="a_Node000013"><a xlink:title=" ">
<polygon fill="#e0e0e0" stroke="#999999" points="1101,-145.5 1038,-145.5 1038,-126.5 1101,-126.5 1101,-145.5"/>
<text text-anchor="middle" x="1069.5" y="-133.5" font-family="Helvetica,sans-Serif" font-size="10.00">esp_log.h</text>
</a>
</g>
</g>
<!-- Node1&#45;&gt;Node13 -->
<g id="edge14_Node000001_Node000013" class="edge">
<title>Node1&#45;&gt;Node13</title>
<g id="a_edge14_Node000001_Node000013"><a xlink:title=" ">
<path fill="none" stroke="#63b8ff" d="M946.95,-186.95C974.49,-175.73 1012.71,-160.15 1039.11,-149.39"/>
<polygon fill="#63b8ff" stroke="#63b8ff" points="1040.67,-152.53 1048.61,-145.52 1038.02,-146.05 1040.67,-152.53"/>
</a>
</g>
</g>
<!-- Node14 -->
<g id="Node000014" class="node">
<title>Node14</title>
<g id="a_Node000014"><a xlink:href="esp__stub_8h.html" target="_top" xlink:title=" ">
<polygon fill="white" stroke="#666666" points="1188,-145.5 1119,-145.5 1119,-126.5 1188,-126.5 1188,-145.5"/>
<text text-anchor="middle" x="1153.5" y="-133.5" font-family="Helvetica,sans-Serif" font-size="10.00">esp_stub.h</text>
</a>
</g>
</g>
<!-- Node1&#45;&gt;Node14 -->
<g id="edge15_Node000001_Node000014" class="edge">
<title>Node1&#45;&gt;Node14</title>
<g id="a_edge15_Node000001_Node000014"><a xlink:title=" ">
<path fill="none" stroke="#63b8ff" d="M971.8,-186.93C1011.03,-177.37 1063.53,-164.14 1109.5,-151 1112.25,-150.22 1115.08,-149.38 1117.92,-148.52"/>
<polygon fill="#63b8ff" stroke="#63b8ff" points="1119,-151.85 1127.52,-145.55 1116.93,-145.16 1119,-151.85"/>
</a>
</g>
</g>
<!-- Node15 -->
<g id="Node000015" class="node">
<title>Node15</title>
<g id="a_Node000015"><a xlink:href="uart_8h.html" target="_top" xlink:title=" ">
<polygon fill="white" stroke="#666666" points="1314.5,-151 1206.5,-151 1206.5,-121 1314.5,-121 1314.5,-151"/>
<text text-anchor="start" x="1214.5" y="-139" font-family="Helvetica,sans-Serif" font-size="10.00">../components/uart</text>
<text text-anchor="middle" x="1260.5" y="-128" font-family="Helvetica,sans-Serif" font-size="10.00">/uart.h</text>
</a>
</g>
</g>
<!-- Node1&#45;&gt;Node15 -->
<g id="edge16_Node000001_Node000015" class="edge">
<title>Node1&#45;&gt;Node15</title>
<g id="a_edge16_Node000001_Node000015"><a xlink:title=" ">
<path fill="none" stroke="#63b8ff" d="M989.5,-188.32C1046.72,-178.69 1126.63,-164.79 1196.5,-151 1196.6,-150.98 1196.7,-150.96 1196.8,-150.94"/>
<polygon fill="#63b8ff" stroke="#63b8ff" points="1197.3,-154.41 1206.41,-149 1195.92,-147.55 1197.3,-154.41"/>
</a>
</g>
</g>
<!-- Node17 -->
<g id="Node000017" class="node">
<title>Node17</title>
<g id="a_Node000017"><a xlink:href="hv5622_8h.html" target="_top" xlink:title=" ">
<polygon fill="white" stroke="#666666" points="1275,-85 1150,-85 1150,-55 1275,-55 1275,-85"/>
<text text-anchor="start" x="1158" y="-73" font-family="Helvetica,sans-Serif" font-size="10.00">../components/hv5622</text>
<text text-anchor="middle" x="1212.5" y="-62" font-family="Helvetica,sans-Serif" font-size="10.00">/hv5622.h</text>
</a>
</g>
</g>
<!-- Node1&#45;&gt;Node17 -->
<g id="edge18_Node000001_Node000017" class="edge">
<title>Node1&#45;&gt;Node17</title>
<g id="a_edge18_Node000001_Node000017"><a xlink:title=" ">
<path fill="none" stroke="#63b8ff" d="M918.5,-186.93C927.04,-168.69 944.49,-137.29 969.5,-121 973.15,-118.62 1069.53,-99.22 1139.79,-85.3"/>
<polygon fill="#63b8ff" stroke="#63b8ff" points="1140.82,-88.67 1149.95,-83.29 1139.46,-81.8 1140.82,-88.67"/>
</a>
</g>
</g>
<!-- Node19 -->
<g id="Node000019" class="node">
<title>Node19</title>
<g id="a_Node000019"><a xlink:href="display_8h.html" target="_top" xlink:title=" ">
<polygon fill="white" stroke="#666666" points="1131.5,-85 1007.5,-85 1007.5,-55 1131.5,-55 1131.5,-85"/>
<text text-anchor="start" x="1015.5" y="-73" font-family="Helvetica,sans-Serif" font-size="10.00">../components/display</text>
<text text-anchor="middle" x="1069.5" y="-62" font-family="Helvetica,sans-Serif" font-size="10.00">/display.h</text>
</a>
</g>
</g>
<!-- Node1&#45;&gt;Node19 -->
<g id="edge20_Node000001_Node000019" class="edge">
<title>Node1&#45;&gt;Node19</title>
<g id="a_edge20_Node000001_Node000019"><a xlink:title=" ">
<path fill="none" stroke="#63b8ff" d="M913.06,-186.7C914.49,-169.07 919.48,-139.23 936.5,-121 947.02,-109.74 978.97,-97.55 1008.91,-88.03"/>
<polygon fill="#63b8ff" stroke="#63b8ff" points="1010.02,-91.35 1018.53,-85.04 1007.95,-84.67 1010.02,-91.35"/>
</a>
</g>
</g>
<!-- Node20 -->
<g id="Node000020" class="node">
<title>Node20</title>
<g id="a_Node000020"><a xlink:href="clock_8h.html" target="_top" xlink:title=" ">
<polygon fill="white" stroke="#666666" points="989.5,-85 875.5,-85 875.5,-55 989.5,-55 989.5,-85"/>
<text text-anchor="start" x="883.5" y="-73" font-family="Helvetica,sans-Serif" font-size="10.00">../components/clock</text>
<text text-anchor="middle" x="932.5" y="-62" font-family="Helvetica,sans-Serif" font-size="10.00">/clock.h</text>
</a>
</g>
</g>
<!-- Node1&#45;&gt;Node20 -->
<g id="edge22_Node000001_Node000020" class="edge">
<title>Node1&#45;&gt;Node20</title>
<g id="a_edge22_Node000001_Node000020"><a xlink:title=" ">
<path fill="none" stroke="#63b8ff" d="M906.09,-186.88C899.64,-170.69 891.57,-143.51 898.5,-121 901.57,-111.02 907.39,-101.25 913.35,-93.03"/>
<polygon fill="#63b8ff" stroke="#63b8ff" points="916.15,-95.13 919.51,-85.08 910.62,-90.84 916.15,-95.13"/>
</a>
</g>
</g>
<!-- Node21 -->
<g id="Node000021" class="node">
<title>Node21</title>
<g id="a_Node000021"><a xlink:href="webserver_8h.html" target="_top" xlink:title=" ">
<polygon fill="white" stroke="#666666" points="1472.5,-151 1332.5,-151 1332.5,-121 1472.5,-121 1472.5,-151"/>
<text text-anchor="start" x="1340.5" y="-139" font-family="Helvetica,sans-Serif" font-size="10.00">../components/webserver</text>
<text text-anchor="middle" x="1402.5" y="-128" font-family="Helvetica,sans-Serif" font-size="10.00">/webserver.h</text>
</a>
</g>
</g>
<!-- Node1&#45;&gt;Node21 -->
<g id="edge24_Node000001_Node000021" class="edge">
<title>Node1&#45;&gt;Node21</title>
<g id="a_edge24_Node000001_Node000021"><a xlink:title=" ">
<path fill="none" stroke="#63b8ff" d="M989.55,-192.89C1070.09,-184.13 1200.35,-169.15 1322.42,-151.11"/>
<polygon fill="#63b8ff" stroke="#63b8ff" points="1322.94,-154.57 1332.32,-149.64 1321.92,-147.65 1322.94,-154.57"/>
</a>
</g>
</g>
<!-- Node23 -->
<g id="Node000023" class="node">
<title>Node23</title>
<g id="a_Node000023"><a xlink:href="config_8h.html" target="_top" xlink:title=" ">
<polygon fill="white" stroke="#666666" points="846.5,-151 728.5,-151 728.5,-121 846.5,-121 846.5,-151"/>
<text text-anchor="start" x="736.5" y="-139" font-family="Helvetica,sans-Serif" font-size="10.00">../components/config</text>
<text text-anchor="middle" x="787.5" y="-128" font-family="Helvetica,sans-Serif" font-size="10.00">/config.h</text>
</a>
</g>
</g>
<!-- Node1&#45;&gt;Node23 -->
<g id="edge26_Node000001_Node000023" class="edge">
<title>Node1&#45;&gt;Node23</title>
<g id="a_edge26_Node000001_Node000023"><a xlink:title=" ">
<path fill="none" stroke="#63b8ff" d="M885.07,-186.95C867.08,-177.74 843.35,-165.6 823.8,-155.59"/>
<polygon fill="#63b8ff" stroke="#63b8ff" points="825.36,-152.45 814.87,-151.01 822.17,-158.69 825.36,-152.45"/>
</a>
</g>
</g>
<!-- Node25 -->
<g id="Node000025" class="node">
<title>Node25</title>
<g id="a_Node000025"><a xlink:href="pwm_8h.html" target="_top" xlink:title=" ">
<polygon fill="white" stroke="#666666" points="1640,-145.5 1491,-145.5 1491,-126.5 1640,-126.5 1640,-145.5"/>
<text text-anchor="middle" x="1565.5" y="-133.5" font-family="Helvetica,sans-Serif" font-size="10.00">../components/pwm/pwm.h</text>
</a>
</g>
</g>
<!-- Node1&#45;&gt;Node25 -->
<g id="edge31_Node000001_Node000025" class="edge">
<title>Node1&#45;&gt;Node25</title>
<g id="a_edge31_Node000001_Node000025"><a xlink:title=" ">
<path fill="none" stroke="#63b8ff" d="M989.55,-196.13C1099.13,-188.78 1306.15,-173.28 1481.5,-151 1490.13,-149.9 1499.23,-148.57 1508.13,-147.17"/>
<polygon fill="#63b8ff" stroke="#63b8ff" points="1508.75,-150.62 1518.06,-145.57 1507.63,-143.7 1508.75,-150.62"/>
</a>
</g>
</g>
<!-- Node26 -->
<g id="Node000026" class="node">
<title>Node26</title>
<g id="a_Node000026"><a xlink:href="service__manager_8h.html" target="_top" xlink:title=" ">
<polygon fill="white" stroke="#666666" points="597,-151 436,-151 436,-121 597,-121 597,-151"/>
<text text-anchor="start" x="444" y="-139" font-family="Helvetica,sans-Serif" font-size="10.00">../components/service</text>
<text text-anchor="middle" x="516.5" y="-128" font-family="Helvetica,sans-Serif" font-size="10.00">_manager/service_manager.h</text>
</a>
</g>
</g>
<!-- Node1&#45;&gt;Node26 -->
<g id="edge32_Node000001_Node000026" class="edge">
<title>Node1&#45;&gt;Node26</title>
<g id="a_edge32_Node000001_Node000026"><a xlink:title=" ">
<path fill="none" stroke="#63b8ff" d="M835.21,-188.51C769.88,-177.95 676.21,-162.81 607.32,-151.68"/>
<polygon fill="#63b8ff" stroke="#63b8ff" points="607.77,-148.21 597.34,-150.06 606.65,-155.12 607.77,-148.21"/>
</a>
</g>
</g>
<!-- Node5 -->
<g id="Node000005" class="node">
<title>Node5</title>
<g id="a_Node000005"><a xlink:title=" ">
<polygon fill="#e0e0e0" stroke="#999999" points="591,-79.5 478,-79.5 478,-60.5 591,-60.5 591,-79.5"/>
<text text-anchor="middle" x="534.5" y="-67.5" font-family="Helvetica,sans-Serif" font-size="10.00">freertos/FreeRTOS.h</text>
</a>
</g>
</g>
<!-- Node4&#45;&gt;Node5 -->
<g id="edge4_Node000004_Node000005" class="edge">
<title>Node4&#45;&gt;Node5</title>
<g id="a_edge4_Node000004_Node000005"><a xlink:title=" ">
<path fill="none" stroke="#63b8ff" d="M402.13,-126.37C428.37,-115.39 473.88,-96.36 504.09,-83.72"/>
<polygon fill="#63b8ff" stroke="#63b8ff" points="505.83,-86.79 513.7,-79.7 503.13,-80.33 505.83,-86.79"/>
</a>
</g>
</g>
<!-- Node6 -->
<g id="Node000006" class="node">
<title>Node6</title>
<g id="a_Node000006"><a xlink:title=" ">
<polygon fill="#e0e0e0" stroke="#999999" points="323,-79.5 226,-79.5 226,-60.5 323,-60.5 323,-79.5"/>
<text text-anchor="middle" x="274.5" y="-67.5" font-family="Helvetica,sans-Serif" font-size="10.00">freertos/queue.h</text>
</a>
</g>
</g>
<!-- Node4&#45;&gt;Node6 -->
<g id="edge5_Node000004_Node000006" class="edge">
<title>Node4&#45;&gt;Node6</title>
<g id="a_edge5_Node000004_Node000006"><a xlink:title=" ">
<path fill="none" stroke="#63b8ff" d="M367.07,-126.37C349.28,-115.73 318.82,-97.51 297.72,-84.89"/>
<polygon fill="#63b8ff" stroke="#63b8ff" points="299.42,-81.83 289.04,-79.7 295.83,-87.84 299.42,-81.83"/>
</a>
</g>
</g>
<!-- Node7 -->
<g id="Node000007" class="node">
<title>Node7</title>
<g id="a_Node000007"><a xlink:href="gpio__driver_8h.html" target="_top" xlink:title=" ">
<polygon fill="white" stroke="#666666" points="421.5,-79.5 341.5,-79.5 341.5,-60.5 421.5,-60.5 421.5,-79.5"/>
<text text-anchor="middle" x="381.5" y="-67.5" font-family="Helvetica,sans-Serif" font-size="10.00">gpio_driver.h</text>
</a>
</g>
</g>
<!-- Node4&#45;&gt;Node7 -->
<g id="edge6_Node000004_Node000007" class="edge">
<title>Node4&#45;&gt;Node7</title>
<g id="a_edge6_Node000004_Node000007"><a xlink:title=" ">
<path fill="none" stroke="#63b8ff" d="M381.5,-126.37C381.5,-117.16 381.5,-102.29 381.5,-90.27"/>
<polygon fill="#63b8ff" stroke="#63b8ff" points="385,-89.91 381.5,-79.91 378,-89.91 385,-89.91"/>
</a>
</g>
</g>
<!-- Node9 -->
<g id="Node000009" class="node">
<title>Node9</title>
<g id="a_Node000009"><a xlink:href="rotary__encoder_8h.html" target="_top" xlink:title=" ">
<polygon fill="white" stroke="#666666" points="207.5,-79.5 109.5,-79.5 109.5,-60.5 207.5,-60.5 207.5,-79.5"/>
<text text-anchor="middle" x="158.5" y="-67.5" font-family="Helvetica,sans-Serif" font-size="10.00">rotary_encoder.h</text>
</a>
</g>
</g>
<!-- Node4&#45;&gt;Node9 -->
<g id="edge9_Node000004_Node000009" class="edge">
<title>Node4&#45;&gt;Node9</title>
<g id="a_edge9_Node000004_Node000009"><a xlink:title=" ">
<path fill="none" stroke="#63b8ff" d="M351.43,-126.37C311.83,-115 242.11,-95 198.21,-82.4"/>
<polygon fill="#63b8ff" stroke="#63b8ff" points="199.03,-78.99 188.45,-79.6 197.1,-85.72 199.03,-78.99"/>
</a>
</g>
</g>
<!-- Node7&#45;&gt;Node3 -->
<g id="edge7_Node000007_Node000003" class="edge">
<title>Node7&#45;&gt;Node3</title>
<g id="a_edge7_Node000007_Node000003"><a xlink:title=" ">
<path fill="none" stroke="#63b8ff" d="M358.23,-60.49C330.86,-50.49 285.23,-33.8 254.28,-22.49"/>
<polygon fill="#63b8ff" stroke="#63b8ff" points="255.39,-19.16 244.79,-19.02 252.98,-25.74 255.39,-19.16"/>
</a>
</g>
</g>
<!-- Node8 -->
<g id="Node000008" class="node">
<title>Node8</title>
<g id="a_Node000008"><a xlink:title=" ">
<polygon fill="#e0e0e0" stroke="#999999" points="480,-19 419,-19 419,0 480,0 480,-19"/>
<text text-anchor="middle" x="449.5" y="-7" font-family="Helvetica,sans-Serif" font-size="10.00">esp_err.h</text>
</a>
</g>
</g>
<!-- Node7&#45;&gt;Node8 -->
<g id="edge8_Node000007_Node000008" class="edge">
<title>Node7&#45;&gt;Node8</title>
<g id="a_edge8_Node000007_Node000008"><a xlink:title=" ">
<path fill="none" stroke="#63b8ff" d="M391.53,-60.37C402.08,-51.3 418.89,-36.84 431.69,-25.82"/>
<polygon fill="#63b8ff" stroke="#63b8ff" points="434.13,-28.34 439.43,-19.17 429.56,-23.04 434.13,-28.34"/>
</a>
</g>
</g>
<!-- Node10&#45;&gt;Node5 -->
<g id="edge11_Node000010_Node000005" class="edge">
<title>Node10&#45;&gt;Node5</title>
<g id="a_edge11_Node000010_Node000005"><a xlink:title=" ">
<path fill="none" stroke="#63b8ff" d="M637.45,-126.37C617.49,-115.63 583.18,-97.18 559.7,-84.55"/>
<polygon fill="#63b8ff" stroke="#63b8ff" points="561.14,-81.35 550.67,-79.7 557.82,-87.52 561.14,-81.35"/>
</a>
</g>
</g>
<!-- Node11 -->
<g id="Node000011" class="node">
<title>Node11</title>
<g id="a_Node000011"><a xlink:title=" ">
<polygon fill="#e0e0e0" stroke="#999999" points="697.5,-79.5 609.5,-79.5 609.5,-60.5 697.5,-60.5 697.5,-79.5"/>
<text text-anchor="middle" x="653.5" y="-67.5" font-family="Helvetica,sans-Serif" font-size="10.00">freertos/task.h</text>
</a>
</g>
</g>
<!-- Node10&#45;&gt;Node11 -->
<g id="edge12_Node000010_Node000011" class="edge">
<title>Node10&#45;&gt;Node11</title>
<g id="a_edge12_Node000010_Node000011"><a xlink:title=" ">
<path fill="none" stroke="#63b8ff" d="M653.5,-126.37C653.5,-117.16 653.5,-102.29 653.5,-90.27"/>
<polygon fill="#63b8ff" stroke="#63b8ff" points="657,-89.91 653.5,-79.91 650,-89.91 657,-89.91"/>
</a>
</g>
</g>
<!-- Node16 -->
<g id="Node000016" class="node">
<title>Node16</title>
<g id="a_Node000016"><a xlink:title=" ">
<polygon fill="#e0e0e0" stroke="#999999" points="1370,-79.5 1293,-79.5 1293,-60.5 1370,-60.5 1370,-79.5"/>
<text text-anchor="middle" x="1331.5" y="-67.5" font-family="Helvetica,sans-Serif" font-size="10.00">driver/uart.h</text>
</a>
</g>
</g>
<!-- Node15&#45;&gt;Node16 -->
<g id="edge17_Node000015_Node000016" class="edge">
<title>Node15&#45;&gt;Node16</title>
<g id="a_edge17_Node000015_Node000016"><a xlink:title=" ">
<path fill="none" stroke="#63b8ff" d="M1276.26,-120.8C1287.43,-110.72 1302.44,-97.19 1313.99,-86.78"/>
<polygon fill="#63b8ff" stroke="#63b8ff" points="1316.6,-89.14 1321.69,-79.84 1311.92,-83.94 1316.6,-89.14"/>
</a>
</g>
</g>
<!-- Node18 -->
<g id="Node000018" class="node">
<title>Node18</title>
<g id="a_Node000018"><a xlink:title=" ">
<polygon fill="#e0e0e0" stroke="#999999" points="1096,-19 1043,-19 1043,0 1096,0 1096,-19"/>
<text text-anchor="middle" x="1069.5" y="-7" font-family="Helvetica,sans-Serif" font-size="10.00">stdint.h</text>
</a>
</g>
</g>
<!-- Node17&#45;&gt;Node18 -->
<g id="edge19_Node000017_Node000018" class="edge">
<title>Node17&#45;&gt;Node18</title>
<g id="a_edge19_Node000017_Node000018"><a xlink:title=" ">
<path fill="none" stroke="#63b8ff" d="M1178.25,-54.99C1154.39,-45.23 1122.85,-32.33 1099.89,-22.93"/>
<polygon fill="#63b8ff" stroke="#63b8ff" points="1101.2,-19.69 1090.62,-19.14 1098.55,-26.17 1101.2,-19.69"/>
</a>
</g>
</g>
<!-- Node19&#45;&gt;Node18 -->
<g id="edge21_Node000019_Node000018" class="edge">
<title>Node19&#45;&gt;Node18</title>
<g id="a_edge21_Node000019_Node000018"><a xlink:title=" ">
<path fill="none" stroke="#63b8ff" d="M1069.5,-54.84C1069.5,-47.21 1069.5,-37.7 1069.5,-29.45"/>
<polygon fill="#63b8ff" stroke="#63b8ff" points="1073,-29.27 1069.5,-19.27 1066,-29.27 1073,-29.27"/>
</a>
</g>
</g>
<!-- Node20&#45;&gt;Node18 -->
<g id="edge23_Node000020_Node000018" class="edge">
<title>Node20&#45;&gt;Node18</title>
<g id="a_edge23_Node000020_Node000018"><a xlink:title=" ">
<path fill="none" stroke="#63b8ff" d="M965.31,-54.99C987.97,-45.31 1017.85,-32.56 1039.8,-23.18"/>
<polygon fill="#63b8ff" stroke="#63b8ff" points="1041.45,-26.29 1049.27,-19.14 1038.7,-19.85 1041.45,-26.29"/>
</a>
</g>
</g>
<!-- Node22 -->
<g id="Node000022" class="node">
<title>Node22</title>
<g id="a_Node000022"><a xlink:title=" ">
<polygon fill="#e0e0e0" stroke="#999999" points="1491,-79.5 1388,-79.5 1388,-60.5 1491,-60.5 1491,-79.5"/>
<text text-anchor="middle" x="1439.5" y="-67.5" font-family="Helvetica,sans-Serif" font-size="10.00">esp_http_server.h</text>
</a>
</g>
</g>
<!-- Node21&#45;&gt;Node22 -->
<g id="edge25_Node000021_Node000022" class="edge">
<title>Node21&#45;&gt;Node22</title>
<g id="a_edge25_Node000021_Node000022"><a xlink:title=" ">
<path fill="none" stroke="#63b8ff" d="M1410.71,-120.8C1416.2,-111.31 1423.45,-98.76 1429.31,-88.63"/>
<polygon fill="#63b8ff" stroke="#63b8ff" points="1432.41,-90.25 1434.39,-79.84 1426.35,-86.75 1432.41,-90.25"/>
</a>
</g>
</g>
<!-- Node23&#45;&gt;Node5 -->
<g id="edge29_Node000023_Node000005" class="edge">
<title>Node23&#45;&gt;Node5</title>
<g id="a_edge29_Node000023_Node000005"><a xlink:title=" ">
<path fill="none" stroke="#63b8ff" d="M731.98,-120.95C685.65,-109.24 620.55,-92.77 577.96,-81.99"/>
<polygon fill="#63b8ff" stroke="#63b8ff" points="578.72,-78.58 568.17,-79.52 577.01,-85.36 578.72,-78.58"/>
</a>
</g>
</g>
<!-- Node23&#45;&gt;Node8 -->
<g id="edge27_Node000023_Node000008" class="edge">
<title>Node23&#45;&gt;Node8</title>
<g id="a_edge27_Node000023_Node000008"><a xlink:title=" ">
<path fill="none" stroke="#63b8ff" d="M775.12,-120.87C756.69,-100.19 722.49,-63.23 706.5,-55 636.63,-19.04 543.38,-11.38 490.56,-10.18"/>
<polygon fill="#63b8ff" stroke="#63b8ff" points="490.3,-6.68 480.24,-10.02 490.19,-13.68 490.3,-6.68"/>
</a>
</g>
</g>
<!-- Node23&#45;&gt;Node20 -->
<g id="edge28_Node000023_Node000020" class="edge">
<title>Node23&#45;&gt;Node20</title>
<g id="a_edge28_Node000023_Node000020"><a xlink:title=" ">
<path fill="none" stroke="#63b8ff" d="M819.32,-120.95C840.47,-111.62 868.46,-99.27 891.31,-89.18"/>
<polygon fill="#63b8ff" stroke="#63b8ff" points="893.02,-92.25 900.75,-85.01 890.19,-85.85 893.02,-92.25"/>
</a>
</g>
</g>
<!-- Node24 -->
<g id="Node000024" class="node">
<title>Node24</title>
<g id="a_Node000024"><a xlink:title=" ">
<polygon fill="#e0e0e0" stroke="#999999" points="857,-79.5 754,-79.5 754,-60.5 857,-60.5 857,-79.5"/>
<text text-anchor="middle" x="805.5" y="-67.5" font-family="Helvetica,sans-Serif" font-size="10.00">freertos/semphr.h</text>
</a>
</g>
</g>
<!-- Node23&#45;&gt;Node24 -->
<g id="edge30_Node000023_Node000024" class="edge">
<title>Node23&#45;&gt;Node24</title>
<g id="a_edge30_Node000023_Node000024"><a xlink:title=" ">
<path fill="none" stroke="#63b8ff" d="M791.49,-120.8C794.08,-111.6 797.48,-99.53 800.27,-89.58"/>
<polygon fill="#63b8ff" stroke="#63b8ff" points="803.67,-90.42 803.01,-79.84 796.94,-88.52 803.67,-90.42"/>
</a>
</g>
</g>
<!-- Node26&#45;&gt;Node8 -->
<g id="edge33_Node000026_Node000008" class="edge">
<title>Node26&#45;&gt;Node8</title>
<g id="a_edge33_Node000026_Node000008"><a xlink:title=" ">
<path fill="none" stroke="#63b8ff" d="M499.06,-120.94C488.74,-111.74 476.22,-98.88 468.5,-85 458.79,-67.54 453.94,-45.03 451.59,-29.34"/>
<polygon fill="#63b8ff" stroke="#63b8ff" points="455.04,-28.76 450.28,-19.3 448.1,-29.67 455.04,-28.76"/>
</a>
</g>
</g>
</g>
</svg>
