<?xml version="1.0" encoding="UTF-8" standalone="no"?>
<!DOCTYPE svg PUBLIC "-//W3C//DTD SVG 1.1//EN"
 "http://www.w3.org/Graphics/SVG/1.1/DTD/svg11.dtd">
<!-- Generated by graphviz version 2.43.0 (0)
 -->
<!-- Title: software/nixie_clock_esp32_project/main/main.c Pages: 1 -->
<svg width="1663pt" height="225pt"
 viewBox="0.00 0.00 1663.00 225.00" xmlns="http://www.w3.org/2000/svg" xmlns:xlink="http://www.w3.org/1999/xlink">
<g id="graph0" class="graph" transform="scale(1 1) rotate(0) translate(4 221)">
<title>software/nixie_clock_esp32_project/main/main.c</title>
<!-- Node1 -->
<g id="Node000001" class="node">
<title>Node1</title>
<g id="a_Node000001"><a xlink:title=" ">
<polygon fill="#999999" stroke="#666666" points="783.5,-217 629.5,-217 629.5,-187 783.5,-187 783.5,-217"/>
<text text-anchor="start" x="637.5" y="-205" font-family="Helvetica,sans-Serif" font-size="10.00">software/nixie_clock</text>
<text text-anchor="middle" x="706.5" y="-194" font-family="Helvetica,sans-Serif" font-size="10.00">_esp32_project/main/main.c</text>
</a>
</g>
</g>
<!-- Node2 -->
<g id="Node000002" class="node">
<title>Node2</title>
<g id="a_Node000002"><a xlink:title=" ">
<polygon fill="#e0e0e0" stroke="#999999" points="53,-145.5 0,-145.5 0,-126.5 53,-126.5 53,-145.5"/>
<text text-anchor="middle" x="26.5" y="-133.5" font-family="Helvetica,sans-Serif" font-size="10.00">string.h</text>
</a>
</g>
</g>
<!-- Node1&#45;&gt;Node2 -->
<g id="edge1_Node000001_Node000002" class="edge">
<title>Node1&#45;&gt;Node2</title>
<g id="a_edge1_Node000001_Node000002"><a xlink:title=" ">
<path fill="none" stroke="#63b8ff" d="M629.29,-197.84C482.49,-191.36 168.35,-175.14 62.5,-151 60.13,-150.46 57.71,-149.79 55.29,-149.04"/>
<polygon fill="#63b8ff" stroke="#63b8ff" points="56.2,-145.65 45.6,-145.63 53.87,-152.25 56.2,-145.65"/>
</a>
</g>
</g>
<!-- Node3 -->
<g id="Node000003" class="node">
<title>Node3</title>
<g id="a_Node000003"><a xlink:title=" ">
<polygon fill="#e0e0e0" stroke="#999999" points="163.5,-145.5 71.5,-145.5 71.5,-126.5 163.5,-126.5 163.5,-145.5"/>
<text text-anchor="middle" x="117.5" y="-133.5" font-family="Helvetica,sans-Serif" font-size="10.00">esp_task_wdt.h</text>
</a>
</g>
</g>
<!-- Node1&#45;&gt;Node3 -->
<g id="edge2_Node000001_Node000003" class="edge">
<title>Node1&#45;&gt;Node3</title>
<g id="a_edge2_Node000001_Node000003"><a xlink:title=" ">
<path fill="none" stroke="#63b8ff" d="M629.07,-197.54C524.73,-192.02 333.52,-178.86 172.5,-151 167.66,-150.16 162.61,-149.12 157.63,-147.98"/>
<polygon fill="#63b8ff" stroke="#63b8ff" points="158.12,-144.5 147.58,-145.56 156.48,-151.31 158.12,-144.5"/>
</a>
</g>
</g>
<!-- Node4 -->
<g id="Node000004" class="node">
<title>Node4</title>
<g id="a_Node000004"><a xlink:title=" ">
<polygon fill="#e0e0e0" stroke="#999999" points="245,-145.5 182,-145.5 182,-126.5 245,-126.5 245,-145.5"/>
<text text-anchor="middle" x="213.5" y="-133.5" font-family="Helvetica,sans-Serif" font-size="10.00">esp_log.h</text>
</a>
</g>
</g>
<!-- Node1&#45;&gt;Node4 -->
<g id="edge3_Node000001_Node000004" class="edge">
<title>Node1&#45;&gt;Node4</title>
<g id="a_edge3_Node000001_Node000004"><a xlink:title=" ">
<path fill="none" stroke="#63b8ff" d="M629.28,-197.6C538.62,-192.44 384.14,-179.94 254.5,-151 251.51,-150.33 248.44,-149.52 245.38,-148.64"/>
<polygon fill="#63b8ff" stroke="#63b8ff" points="246.39,-145.29 235.8,-145.6 244.28,-151.96 246.39,-145.29"/>
</a>
</g>
</g>
<!-- Node5 -->
<g id="Node000005" class="node">
<title>Node5</title>
<g id="a_Node000005"><a xlink:title=" ">
<polygon fill="#e0e0e0" stroke="#999999" points="1125.5,-19 1047.5,-19 1047.5,0 1125.5,0 1125.5,-19"/>
<text text-anchor="middle" x="1086.5" y="-7" font-family="Helvetica,sans-Serif" font-size="10.00">driver/gpio.h</text>
</a>
</g>
</g>
<!-- Node1&#45;&gt;Node5 -->
<g id="edge4_Node000001_Node000005" class="edge">
<title>Node1&#45;&gt;Node5</title>
<g id="a_edge4_Node000001_Node000005"><a xlink:title=" ">
<path fill="none" stroke="#63b8ff" d="M783.75,-195.75C854.09,-189.42 951.16,-176.32 979.5,-151 1012.73,-121.3 980.72,-89.86 1008.5,-55 1019.76,-40.86 1036.82,-30.41 1052.12,-23.19"/>
<polygon fill="#63b8ff" stroke="#63b8ff" points="1053.61,-26.36 1061.35,-19.12 1050.79,-19.95 1053.61,-26.36"/>
</a>
</g>
</g>
<!-- Node6 -->
<g id="Node000006" class="node">
<title>Node6</title>
<g id="a_Node000006"><a xlink:href="ntp_8h.html" target="_top" xlink:title=" ">
<polygon fill="white" stroke="#666666" points="553.5,-145.5 421.5,-145.5 421.5,-126.5 553.5,-126.5 553.5,-145.5"/>
<text text-anchor="middle" x="487.5" y="-133.5" font-family="Helvetica,sans-Serif" font-size="10.00">../components/ntp/ntp.h</text>
</a>
</g>
</g>
<!-- Node1&#45;&gt;Node6 -->
<g id="edge5_Node000001_Node000006" class="edge">
<title>Node1&#45;&gt;Node6</title>
<g id="a_edge5_Node000001_Node000006"><a xlink:title=" ">
<path fill="none" stroke="#63b8ff" d="M658.44,-186.95C618.85,-175.38 563.41,-159.18 526.53,-148.41"/>
<polygon fill="#63b8ff" stroke="#63b8ff" points="527.23,-144.96 516.65,-145.52 525.26,-151.68 527.23,-144.96"/>
</a>
</g>
</g>
<!-- Node7 -->
<g id="Node000007" class="node">
<title>Node7</title>
<g id="a_Node000007"><a xlink:href="display_8h.html" target="_top" xlink:title=" ">
<polygon fill="white" stroke="#666666" points="545.5,-85 421.5,-85 421.5,-55 545.5,-55 545.5,-85"/>
<text text-anchor="start" x="429.5" y="-73" font-family="Helvetica,sans-Serif" font-size="10.00">../components/display</text>
<text text-anchor="middle" x="483.5" y="-62" font-family="Helvetica,sans-Serif" font-size="10.00">/display.h</text>
</a>
</g>
</g>
<!-- Node1&#45;&gt;Node7 -->
<g id="edge6_Node000001_Node000007" class="edge">
<title>Node1&#45;&gt;Node7</title>
<g id="a_edge6_Node000001_Node000007"><a xlink:title=" ">
<path fill="none" stroke="#63b8ff" d="M682.21,-186.84C642.08,-163.45 561.88,-116.69 516.6,-90.29"/>
<polygon fill="#63b8ff" stroke="#63b8ff" points="518.16,-87.15 507.76,-85.14 514.64,-93.2 518.16,-87.15"/>
</a>
</g>
</g>
<!-- Node9 -->
<g id="Node000009" class="node">
<title>Node9</title>
<g id="a_Node000009"><a xlink:href="clock_8h.html" target="_top" xlink:title=" ">
<polygon fill="white" stroke="#666666" points="677.5,-85 563.5,-85 563.5,-55 677.5,-55 677.5,-85"/>
<text text-anchor="start" x="571.5" y="-73" font-family="Helvetica,sans-Serif" font-size="10.00">../components/clock</text>
<text text-anchor="middle" x="620.5" y="-62" font-family="Helvetica,sans-Serif" font-size="10.00">/clock.h</text>
</a>
</g>
</g>
<!-- Node1&#45;&gt;Node9 -->
<g id="edge8_Node000001_Node000009" class="edge">
<title>Node1&#45;&gt;Node9</title>
<g id="a_edge8_Node000001_Node000009"><a xlink:title=" ">
<path fill="none" stroke="#63b8ff" d="M678.84,-186.96C664.71,-178.41 648.44,-166.21 638.5,-151 627.64,-134.38 623.27,-112.13 621.54,-95.31"/>
<polygon fill="#63b8ff" stroke="#63b8ff" points="625.02,-94.86 620.75,-85.16 618.04,-95.4 625.02,-94.86"/>
</a>
</g>
</g>
<!-- Node10 -->
<g id="Node000010" class="node">
<title>Node10</title>
<g id="a_Node000010"><a xlink:href="webserver_8h.html" target="_top" xlink:title=" ">
<polygon fill="white" stroke="#666666" points="403.5,-151 263.5,-151 263.5,-121 403.5,-121 403.5,-151"/>
<text text-anchor="start" x="271.5" y="-139" font-family="Helvetica,sans-Serif" font-size="10.00">../components/webserver</text>
<text text-anchor="middle" x="333.5" y="-128" font-family="Helvetica,sans-Serif" font-size="10.00">/webserver.h</text>
</a>
</g>
</g>
<!-- Node1&#45;&gt;Node10 -->
<g id="edge10_Node000001_Node000010" class="edge">
<title>Node1&#45;&gt;Node10</title>
<g id="a_edge10_Node000001_Node000010"><a xlink:title=" ">
<path fill="none" stroke="#63b8ff" d="M629.41,-188.04C572.52,-178.44 492.93,-164.94 413.85,-151.23"/>
<polygon fill="#63b8ff" stroke="#63b8ff" points="414.16,-147.73 403.71,-149.47 412.96,-154.63 414.16,-147.73"/>
</a>
</g>
</g>
<!-- Node12 -->
<g id="Node000012" class="node">
<title>Node12</title>
<g id="a_Node000012"><a xlink:href="config_8h.html" target="_top" xlink:title=" ">
<polygon fill="white" stroke="#666666" points="765.5,-151 647.5,-151 647.5,-121 765.5,-121 765.5,-151"/>
<text text-anchor="start" x="655.5" y="-139" font-family="Helvetica,sans-Serif" font-size="10.00">../components/config</text>
<text text-anchor="middle" x="706.5" y="-128" font-family="Helvetica,sans-Serif" font-size="10.00">/config.h</text>
</a>
</g>
</g>
<!-- Node1&#45;&gt;Node12 -->
<g id="edge12_Node000001_Node000012" class="edge">
<title>Node1&#45;&gt;Node12</title>
<g id="a_edge12_Node000001_Node000012"><a xlink:title=" ">
<path fill="none" stroke="#63b8ff" d="M706.5,-186.8C706.5,-179.34 706.5,-169.99 706.5,-161.41"/>
<polygon fill="#63b8ff" stroke="#63b8ff" points="710,-161.16 706.5,-151.16 703,-161.16 710,-161.16"/>
</a>
</g>
</g>
<!-- Node16 -->
<g id="Node000016" class="node">
<title>Node16</title>
<g id="a_Node000016"><a xlink:href="pwm_8h.html" target="_top" xlink:title=" ">
<polygon fill="white" stroke="#666666" points="970,-145.5 821,-145.5 821,-126.5 970,-126.5 970,-145.5"/>
<text text-anchor="middle" x="895.5" y="-133.5" font-family="Helvetica,sans-Serif" font-size="10.00">../components/pwm/pwm.h</text>
</a>
</g>
</g>
<!-- Node1&#45;&gt;Node16 -->
<g id="edge17_Node000001_Node000016" class="edge">
<title>Node1&#45;&gt;Node16</title>
<g id="a_edge17_Node000001_Node000016"><a xlink:title=" ">
<path fill="none" stroke="#63b8ff" d="M747.98,-186.95C781.71,-175.53 828.76,-159.6 860.59,-148.82"/>
<polygon fill="#63b8ff" stroke="#63b8ff" points="862,-152.04 870.35,-145.52 859.75,-145.41 862,-152.04"/>
</a>
</g>
</g>
<!-- Node17 -->
<g id="Node000017" class="node">
<title>Node17</title>
<g id="a_Node000017"><a xlink:href="dispatcher__task_8h.html" target="_top" xlink:title=" ">
<polygon fill="white" stroke="#666666" points="1558.5,-151 1418.5,-151 1418.5,-121 1558.5,-121 1558.5,-151"/>
<text text-anchor="start" x="1426.5" y="-139" font-family="Helvetica,sans-Serif" font-size="10.00">../components/dispatcher</text>
<text text-anchor="middle" x="1488.5" y="-128" font-family="Helvetica,sans-Serif" font-size="10.00">_task/dispatcher_task.h</text>
</a>
</g>
</g>
<!-- Node1&#45;&gt;Node17 -->
<g id="edge18_Node000001_Node000017" class="edge">
<title>Node1&#45;&gt;Node17</title>
<g id="a_edge18_Node000001_Node000017"><a xlink:title=" ">
<path fill="none" stroke="#63b8ff" d="M783.66,-197.34C911.25,-190.86 1174.09,-175.66 1395.5,-151 1399.7,-150.53 1404,-150.02 1408.34,-149.47"/>
<polygon fill="#63b8ff" stroke="#63b8ff" points="1409.04,-152.9 1418.5,-148.13 1408.13,-145.96 1409.04,-152.9"/>
</a>
</g>
</g>
<!-- Node18 -->
<g id="Node000018" class="node">
<title>Node18</title>
<g id="a_Node000018"><a xlink:href="event__bus_8h.html" target="_top" xlink:title=" ">
<polygon fill="white" stroke="#666666" points="1655,-85 1548,-85 1548,-55 1655,-55 1655,-85"/>
<text text-anchor="start" x="1556" y="-73" font-family="Helvetica,sans-Serif" font-size="10.00">../event_bus/event</text>
<text text-anchor="middle" x="1601.5" y="-62" font-family="Helvetica,sans-Serif" font-size="10.00">_bus.h</text>
</a>
</g>
</g>
<!-- Node1&#45;&gt;Node18 -->
<g id="edge22_Node000001_Node000018" class="edge">
<title>Node1&#45;&gt;Node18</title>
<g id="a_edge22_Node000001_Node000018"><a xlink:title=" ">
<path fill="none" stroke="#63b8ff" d="M783.53,-201.11C982.83,-200.74 1504.3,-195.5 1567.5,-151 1585.65,-138.22 1594.17,-113.7 1598.13,-95.17"/>
<polygon fill="#63b8ff" stroke="#63b8ff" points="1601.62,-95.54 1599.98,-85.07 1594.74,-94.28 1601.62,-95.54"/>
</a>
</g>
</g>
<!-- Node20 -->
<g id="Node000020" class="node">
<title>Node20</title>
<g id="a_Node000020"><a xlink:href="wifi_8h.html" target="_top" xlink:title=" ">
<polygon fill="white" stroke="#666666" points="961.5,-85 855.5,-85 855.5,-55 961.5,-55 961.5,-85"/>
<text text-anchor="start" x="863.5" y="-73" font-family="Helvetica,sans-Serif" font-size="10.00">../components/wifi</text>
<text text-anchor="middle" x="908.5" y="-62" font-family="Helvetica,sans-Serif" font-size="10.00">/wifi.h</text>
</a>
</g>
</g>
<!-- Node1&#45;&gt;Node20 -->
<g id="edge23_Node000001_Node000020" class="edge">
<title>Node1&#45;&gt;Node20</title>
<g id="a_edge23_Node000001_Node000020"><a xlink:title=" ">
<path fill="none" stroke="#63b8ff" d="M725.98,-186.95C739.64,-177.03 758.3,-163.35 774.5,-151 791.61,-137.96 794.43,-132.69 812.5,-121 830.21,-109.55 850.84,-98.53 868.42,-89.76"/>
<polygon fill="#63b8ff" stroke="#63b8ff" points="870.41,-92.68 877.84,-85.13 867.32,-86.4 870.41,-92.68"/>
</a>
</g>
</g>
<!-- Node21 -->
<g id="Node000021" class="node">
<title>Node21</title>
<g id="a_Node000021"><a xlink:href="clock__task_8h.html" target="_top" xlink:title=" ">
<polygon fill="white" stroke="#666666" points="1139.5,-151 1025.5,-151 1025.5,-121 1139.5,-121 1139.5,-151"/>
<text text-anchor="start" x="1033.5" y="-139" font-family="Helvetica,sans-Serif" font-size="10.00">../components/clock</text>
<text text-anchor="middle" x="1082.5" y="-128" font-family="Helvetica,sans-Serif" font-size="10.00">_task/clock_task.h</text>
</a>
</g>
</g>
<!-- Node1&#45;&gt;Node21 -->
<g id="edge25_Node000001_Node000021" class="edge">
<title>Node1&#45;&gt;Node21</title>
<g id="a_edge25_Node000001_Node000021"><a xlink:title=" ">
<path fill="none" stroke="#63b8ff" d="M783.71,-189.05C845.44,-179.32 934.14,-164.96 1011.5,-151 1012.75,-150.77 1014.02,-150.54 1015.29,-150.31"/>
<polygon fill="#63b8ff" stroke="#63b8ff" points="1015.99,-153.74 1025.18,-148.47 1014.71,-146.86 1015.99,-153.74"/>
</a>
</g>
</g>
<!-- Node23 -->
<g id="Node000023" class="node">
<title>Node23</title>
<g id="a_Node000023"><a xlink:href="gpio__task_8h.html" target="_top" xlink:title=" ">
<polygon fill="white" stroke="#666666" points="1386.5,-151 1276.5,-151 1276.5,-121 1386.5,-121 1386.5,-151"/>
<text text-anchor="start" x="1284.5" y="-139" font-family="Helvetica,sans-Serif" font-size="10.00">../components/gpio</text>
<text text-anchor="middle" x="1331.5" y="-128" font-family="Helvetica,sans-Serif" font-size="10.00">_task/gpio_task.h</text>
</a>
</g>
</g>
<!-- Node1&#45;&gt;Node23 -->
<g id="edge28_Node000001_Node000023" class="edge">
<title>Node1&#45;&gt;Node23</title>
<g id="a_edge28_Node000001_Node000023"><a xlink:title=" ">
<path fill="none" stroke="#63b8ff" d="M783.76,-193.09C908.04,-180.36 1150.13,-155.57 1266.27,-143.68"/>
<polygon fill="#63b8ff" stroke="#63b8ff" points="1266.85,-147.14 1276.44,-142.64 1266.13,-140.18 1266.85,-147.14"/>
</a>
</g>
</g>
<!-- Node8 -->
<g id="Node000008" class="node">
<title>Node8</title>
<g id="a_Node000008"><a xlink:title=" ">
<polygon fill="#e0e0e0" stroke="#999999" points="579,-19 526,-19 526,0 579,0 579,-19"/>
<text text-anchor="middle" x="552.5" y="-7" font-family="Helvetica,sans-Serif" font-size="10.00">stdint.h</text>
</a>
</g>
</g>
<!-- Node7&#45;&gt;Node8 -->
<g id="edge7_Node000007_Node000008" class="edge">
<title>Node7&#45;&gt;Node8</title>
<g id="a_edge7_Node000007_Node000008"><a xlink:title=" ">
<path fill="none" stroke="#63b8ff" d="M500.2,-54.84C510.53,-46.09 523.78,-34.85 534.36,-25.88"/>
<polygon fill="#63b8ff" stroke="#63b8ff" points="536.8,-28.4 542.16,-19.27 532.27,-23.06 536.8,-28.4"/>
</a>
</g>
</g>
<!-- Node9&#45;&gt;Node8 -->
<g id="edge9_Node000009_Node000008" class="edge">
<title>Node9&#45;&gt;Node8</title>
<g id="a_edge9_Node000009_Node000008"><a xlink:title=" ">
<path fill="none" stroke="#63b8ff" d="M604.04,-54.84C593.87,-46.09 580.81,-34.85 570.38,-25.88"/>
<polygon fill="#63b8ff" stroke="#63b8ff" points="572.55,-23.13 562.69,-19.27 567.99,-28.44 572.55,-23.13"/>
</a>
</g>
</g>
<!-- Node11 -->
<g id="Node000011" class="node">
<title>Node11</title>
<g id="a_Node000011"><a xlink:title=" ">
<polygon fill="#e0e0e0" stroke="#999999" points="385,-79.5 282,-79.5 282,-60.5 385,-60.5 385,-79.5"/>
<text text-anchor="middle" x="333.5" y="-67.5" font-family="Helvetica,sans-Serif" font-size="10.00">esp_http_server.h</text>
</a>
</g>
</g>
<!-- Node10&#45;&gt;Node11 -->
<g id="edge11_Node000010_Node000011" class="edge">
<title>Node10&#45;&gt;Node11</title>
<g id="a_edge11_Node000010_Node000011"><a xlink:title=" ">
<path fill="none" stroke="#63b8ff" d="M333.5,-120.8C333.5,-111.7 333.5,-99.79 333.5,-89.9"/>
<polygon fill="#63b8ff" stroke="#63b8ff" points="337,-89.84 333.5,-79.84 330,-89.84 337,-89.84"/>
</a>
</g>
</g>
<!-- Node12&#45;&gt;Node9 -->
<g id="edge14_Node000012_Node000009" class="edge">
<title>Node12&#45;&gt;Node9</title>
<g id="a_edge14_Node000012_Node000009"><a xlink:title=" ">
<path fill="none" stroke="#63b8ff" d="M687.41,-120.8C675.72,-112.1 660.57,-100.82 647.65,-91.2"/>
<polygon fill="#63b8ff" stroke="#63b8ff" points="649.64,-88.33 639.53,-85.16 645.47,-93.94 649.64,-88.33"/>
</a>
</g>
</g>
<!-- Node13 -->
<g id="Node000013" class="node">
<title>Node13</title>
<g id="a_Node000013"><a xlink:title=" ">
<polygon fill="#e0e0e0" stroke="#999999" points="939,-19 878,-19 878,0 939,0 939,-19"/>
<text text-anchor="middle" x="908.5" y="-7" font-family="Helvetica,sans-Serif" font-size="10.00">esp_err.h</text>
</a>
</g>
</g>
<!-- Node12&#45;&gt;Node13 -->
<g id="edge13_Node000012_Node000013" class="edge">
<title>Node12&#45;&gt;Node13</title>
<g id="a_edge13_Node000012_Node000013"><a xlink:title=" ">
<path fill="none" stroke="#63b8ff" d="M705.5,-120.76C705.08,-102.92 707.22,-72.55 724.5,-55 744.21,-34.98 819.65,-21.85 867.6,-15.34"/>
<polygon fill="#63b8ff" stroke="#63b8ff" points="868.22,-18.79 877.68,-14.01 867.3,-11.85 868.22,-18.79"/>
</a>
</g>
</g>
<!-- Node14 -->
<g id="Node000014" class="node">
<title>Node14</title>
<g id="a_Node000014"><a xlink:title=" ">
<polygon fill="#e0e0e0" stroke="#999999" points="1369,-19 1256,-19 1256,0 1369,0 1369,-19"/>
<text text-anchor="middle" x="1312.5" y="-7" font-family="Helvetica,sans-Serif" font-size="10.00">freertos/FreeRTOS.h</text>
</a>
</g>
</g>
<!-- Node12&#45;&gt;Node14 -->
<g id="edge15_Node000012_Node000014" class="edge">
<title>Node12&#45;&gt;Node14</title>
<g id="a_edge15_Node000012_Node000014"><a xlink:title=" ">
<path fill="none" stroke="#63b8ff" d="M765.59,-126.7C780.85,-124.69 797.28,-122.65 812.5,-121 906.51,-110.81 1150.55,-124.43 1236.5,-85 1240.26,-83.28 1275.92,-47.53 1297.03,-26.19"/>
<polygon fill="#63b8ff" stroke="#63b8ff" points="1299.53,-28.65 1304.07,-19.07 1294.55,-23.73 1299.53,-28.65"/>
</a>
</g>
</g>
<!-- Node15 -->
<g id="Node000015" class="node">
<title>Node15</title>
<g id="a_Node000015"><a xlink:title=" ">
<polygon fill="#e0e0e0" stroke="#999999" points="837,-79.5 734,-79.5 734,-60.5 837,-60.5 837,-79.5"/>
<text text-anchor="middle" x="785.5" y="-67.5" font-family="Helvetica,sans-Serif" font-size="10.00">freertos/semphr.h</text>
</a>
</g>
</g>
<!-- Node12&#45;&gt;Node15 -->
<g id="edge16_Node000012_Node000015" class="edge">
<title>Node12&#45;&gt;Node15</title>
<g id="a_edge16_Node000012_Node000015"><a xlink:title=" ">
<path fill="none" stroke="#63b8ff" d="M724.03,-120.8C736.71,-110.53 753.82,-96.67 766.76,-86.18"/>
<polygon fill="#63b8ff" stroke="#63b8ff" points="769.02,-88.86 774.58,-79.84 764.61,-83.42 769.02,-88.86"/>
</a>
</g>
</g>
<!-- Node17&#45;&gt;Node18 -->
<g id="edge19_Node000017_Node000018" class="edge">
<title>Node17&#45;&gt;Node18</title>
<g id="a_edge19_Node000017_Node000018"><a xlink:title=" ">
<path fill="none" stroke="#63b8ff" d="M1513.3,-120.95C1529.34,-111.87 1550.43,-99.93 1567.96,-90"/>
<polygon fill="#63b8ff" stroke="#63b8ff" points="1569.78,-92.99 1576.76,-85.01 1566.33,-86.9 1569.78,-92.99"/>
</a>
</g>
</g>
<!-- Node18&#45;&gt;Node14 -->
<g id="edge20_Node000018_Node000014" class="edge">
<title>Node18&#45;&gt;Node14</title>
<g id="a_edge20_Node000018_Node000014"><a xlink:title=" ">
<path fill="none" stroke="#63b8ff" d="M1547.82,-58.13C1495.48,-47.54 1416.41,-31.53 1364.62,-21.05"/>
<polygon fill="#63b8ff" stroke="#63b8ff" points="1365.13,-17.58 1354.64,-19.03 1363.74,-24.44 1365.13,-17.58"/>
</a>
</g>
</g>
<!-- Node19 -->
<g id="Node000019" class="node">
<title>Node19</title>
<g id="a_Node000019"><a xlink:title=" ">
<polygon fill="#e0e0e0" stroke="#999999" points="1609,-19 1512,-19 1512,0 1609,0 1609,-19"/>
<text text-anchor="middle" x="1560.5" y="-7" font-family="Helvetica,sans-Serif" font-size="10.00">freertos/queue.h</text>
</a>
</g>
</g>
<!-- Node18&#45;&gt;Node19 -->
<g id="edge21_Node000018_Node000019" class="edge">
<title>Node18&#45;&gt;Node19</title>
<g id="a_edge21_Node000018_Node000019"><a xlink:title=" ">
<path fill="none" stroke="#63b8ff" d="M1591.58,-54.84C1585.81,-46.61 1578.5,-36.18 1572.42,-27.51"/>
<polygon fill="#63b8ff" stroke="#63b8ff" points="1575.25,-25.45 1566.64,-19.27 1569.52,-29.46 1575.25,-25.45"/>
</a>
</g>
</g>
<!-- Node20&#45;&gt;Node13 -->
<g id="edge24_Node000020_Node000013" class="edge">
<title>Node20&#45;&gt;Node13</title>
<g id="a_edge24_Node000020_Node000013"><a xlink:title=" ">
<path fill="none" stroke="#63b8ff" d="M908.5,-54.84C908.5,-47.21 908.5,-37.7 908.5,-29.45"/>
<polygon fill="#63b8ff" stroke="#63b8ff" points="912,-29.27 908.5,-19.27 905,-29.27 912,-29.27"/>
</a>
</g>
</g>
<!-- Node21&#45;&gt;Node14 -->
<g id="edge26_Node000021_Node000014" class="edge">
<title>Node21&#45;&gt;Node14</title>
<g id="a_edge26_Node000021_Node000014"><a xlink:title=" ">
<path fill="none" stroke="#63b8ff" d="M1139.9,-131.14C1179.74,-125.9 1232.17,-113.63 1269.5,-85 1288.07,-70.76 1300.01,-46.04 1306.49,-29.01"/>
<polygon fill="#63b8ff" stroke="#63b8ff" points="1309.95,-29.71 1309.97,-19.11 1303.35,-27.39 1309.95,-29.71"/>
</a>
</g>
</g>
<!-- Node22 -->
<g id="Node000022" class="node">
<title>Node22</title>
<g id="a_Node000022"><a xlink:title=" ">
<polygon fill="#e0e0e0" stroke="#999999" points="1105.5,-79.5 1017.5,-79.5 1017.5,-60.5 1105.5,-60.5 1105.5,-79.5"/>
<text text-anchor="middle" x="1061.5" y="-67.5" font-family="Helvetica,sans-Serif" font-size="10.00">freertos/task.h</text>
</a>
</g>
</g>
<!-- Node21&#45;&gt;Node22 -->
<g id="edge27_Node000021_Node000022" class="edge">
<title>Node21&#45;&gt;Node22</title>
<g id="a_edge27_Node000021_Node000022"><a xlink:title=" ">
<path fill="none" stroke="#63b8ff" d="M1077.84,-120.8C1074.82,-111.6 1070.86,-99.53 1067.6,-89.58"/>
<polygon fill="#63b8ff" stroke="#63b8ff" points="1070.85,-88.25 1064.4,-79.84 1064.19,-90.44 1070.85,-88.25"/>
</a>
</g>
</g>
<!-- Node23&#45;&gt;Node14 -->
<g id="edge29_Node000023_Node000014" class="edge">
<title>Node23&#45;&gt;Node14</title>
<g id="a_edge29_Node000023_Node000014"><a xlink:title=" ">
<path fill="none" stroke="#63b8ff" d="M1329.32,-120.72C1325.87,-98.12 1319.16,-54.12 1315.34,-29.09"/>
<polygon fill="#63b8ff" stroke="#63b8ff" points="1318.78,-28.43 1313.81,-19.07 1311.86,-29.48 1318.78,-28.43"/>
</a>
</g>
</g>
<!-- Node23&#45;&gt;Node19 -->
<g id="edge30_Node000023_Node000019" class="edge">
<title>Node23&#45;&gt;Node19</title>
<g id="a_edge30_Node000023_Node000019"><a xlink:title=" ">
<path fill="none" stroke="#63b8ff" d="M1386.74,-122.44C1428.5,-112.24 1481.75,-97.56 1500.5,-85 1522.41,-70.32 1540.23,-45.18 1550.6,-28.21"/>
<polygon fill="#63b8ff" stroke="#63b8ff" points="1553.78,-29.7 1555.82,-19.3 1547.74,-26.16 1553.78,-29.7"/>
</a>
</g>
</g>
<!-- Node24 -->
<g id="Node000024" class="node">
<title>Node24</title>
<g id="a_Node000024"><a xlink:href="gpio__driver_8h.html" target="_top" xlink:title=" ">
<polygon fill="white" stroke="#666666" points="1227.5,-85 1123.5,-85 1123.5,-55 1227.5,-55 1227.5,-85"/>
<text text-anchor="start" x="1131.5" y="-73" font-family="Helvetica,sans-Serif" font-size="10.00">../gpio_driver/gpio</text>
<text text-anchor="middle" x="1175.5" y="-62" font-family="Helvetica,sans-Serif" font-size="10.00">_driver.h</text>
</a>
</g>
</g>
<!-- Node23&#45;&gt;Node24 -->
<g id="edge31_Node000023_Node000024" class="edge">
<title>Node23&#45;&gt;Node24</title>
<g id="a_edge31_Node000023_Node000024"><a xlink:title=" ">
<path fill="none" stroke="#63b8ff" d="M1297.27,-120.95C1274.3,-111.53 1243.86,-99.04 1219.16,-88.91"/>
<polygon fill="#63b8ff" stroke="#63b8ff" points="1220.24,-85.57 1209.66,-85.01 1217.58,-92.05 1220.24,-85.57"/>
</a>
</g>
</g>
<!-- Node25 -->
<g id="Node000025" class="node">
<title>Node25</title>
<g id="a_Node000025"><a xlink:href="rotary__encoder_8h.html" target="_top" xlink:title=" ">
<polygon fill="white" stroke="#666666" points="1491,-85 1360,-85 1360,-55 1491,-55 1491,-85"/>
<text text-anchor="start" x="1368" y="-73" font-family="Helvetica,sans-Serif" font-size="10.00">../rotary_encoder/rotary</text>
<text text-anchor="middle" x="1425.5" y="-62" font-family="Helvetica,sans-Serif" font-size="10.00">_encoder.h</text>
</a>
</g>
</g>
<!-- Node23&#45;&gt;Node25 -->
<g id="edge34_Node000023_Node000025" class="edge">
<title>Node23&#45;&gt;Node25</title>
<g id="a_edge34_Node000023_Node000025"><a xlink:title=" ">
<path fill="none" stroke="#63b8ff" d="M1352.36,-120.8C1365.26,-112.01 1382.01,-100.61 1396.23,-90.93"/>
<polygon fill="#63b8ff" stroke="#63b8ff" points="1398.4,-93.69 1404.7,-85.16 1394.46,-87.9 1398.4,-93.69"/>
</a>
</g>
</g>
<!-- Node24&#45;&gt;Node5 -->
<g id="edge32_Node000024_Node000005" class="edge">
<title>Node24&#45;&gt;Node5</title>
<g id="a_edge32_Node000024_Node000005"><a xlink:title=" ">
<path fill="none" stroke="#63b8ff" d="M1153.96,-54.84C1140.03,-45.68 1121.97,-33.82 1108.05,-24.66"/>
<polygon fill="#63b8ff" stroke="#63b8ff" points="1109.85,-21.66 1099.58,-19.09 1106.01,-27.51 1109.85,-21.66"/>
</a>
</g>
</g>
<!-- Node24&#45;&gt;Node13 -->
<g id="edge33_Node000024_Node000013" class="edge">
<title>Node24&#45;&gt;Node13</title>
<g id="a_edge33_Node000024_Node000013"><a xlink:title=" ">
<path fill="none" stroke="#63b8ff" d="M1123.27,-56.97C1120.3,-56.3 1117.36,-55.64 1114.5,-55 1057.21,-42.24 990.84,-28 949.26,-19.14"/>
<polygon fill="#63b8ff" stroke="#63b8ff" points="949.75,-15.67 939.24,-17.01 948.29,-22.52 949.75,-15.67"/>
</a>
</g>
</g>
</g>
</svg>
