<?xml version="1.0" encoding="UTF-8" standalone="no"?>
<!DOCTYPE svg PUBLIC "-//W3C//DTD SVG 1.1//EN"
 "http://www.w3.org/Graphics/SVG/1.1/DTD/svg11.dtd">
<!-- Generated by graphviz version 2.43.0 (0)
 -->
<!-- Title: software/nixie_clock_esp32_project/main/main.c Pages: 1 -->
<svg width="1986pt" height="225pt"
 viewBox="0.00 0.00 1986.00 225.00" xmlns="http://www.w3.org/2000/svg" xmlns:xlink="http://www.w3.org/1999/xlink">
<g id="graph0" class="graph" transform="scale(1 1) rotate(0) translate(4 221)">
<title>software/nixie_clock_esp32_project/main/main.c</title>
<!-- Node1 -->
<g id="Node000001" class="node">
<title>Node1</title>
<g id="a_Node000001"><a xlink:title=" ">
<polygon fill="#999999" stroke="#666666" points="1053.5,-217 899.5,-217 899.5,-187 1053.5,-187 1053.5,-217"/>
<text text-anchor="start" x="907.5" y="-205" font-family="Helvetica,sans-Serif" font-size="10.00">software/nixie_clock</text>
<text text-anchor="middle" x="976.5" y="-194" font-family="Helvetica,sans-Serif" font-size="10.00">_esp32_project/main/main.c</text>
</a>
</g>
</g>
<!-- Node2 -->
<g id="Node000002" class="node">
<title>Node2</title>
<g id="a_Node000002"><a xlink:title=" ">
<polygon fill="#e0e0e0" stroke="#999999" points="285,-145.5 232,-145.5 232,-126.5 285,-126.5 285,-145.5"/>
<text text-anchor="middle" x="258.5" y="-133.5" font-family="Helvetica,sans-Serif" font-size="10.00">string.h</text>
</a>
</g>
</g>
<!-- Node1&#45;&gt;Node2 -->
<g id="edge1_Node000001_Node000002" class="edge">
<title>Node1&#45;&gt;Node2</title>
<g id="a_edge1_Node000001_Node000002"><a xlink:title=" ">
<path fill="none" stroke="#63b8ff" d="M899.48,-201.66C772.94,-201.34 513.7,-194.73 299.5,-151 296.43,-150.37 293.27,-149.58 290.14,-148.69"/>
<polygon fill="#63b8ff" stroke="#63b8ff" points="290.93,-145.27 280.34,-145.61 288.83,-151.95 290.93,-145.27"/>
</a>
</g>
</g>
<!-- Node3 -->
<g id="Node000003" class="node">
<title>Node3</title>
<g id="a_Node000003"><a xlink:title=" ">
<polygon fill="#e0e0e0" stroke="#999999" points="542.5,-19 464.5,-19 464.5,0 542.5,0 542.5,-19"/>
<text text-anchor="middle" x="503.5" y="-7" font-family="Helvetica,sans-Serif" font-size="10.00">driver/gpio.h</text>
</a>
</g>
</g>
<!-- Node1&#45;&gt;Node3 -->
<g id="edge2_Node000001_Node000003" class="edge">
<title>Node1&#45;&gt;Node3</title>
<g id="a_edge2_Node000001_Node000003"><a xlink:title=" ">
<path fill="none" stroke="#63b8ff" d="M899.24,-198.28C787.12,-193.37 585.48,-180.63 519.5,-151 479.6,-133.08 464.25,-124.98 446.5,-85 441.09,-72.81 440.65,-66.98 446.5,-55 452.8,-42.09 464.85,-31.83 476.26,-24.43"/>
<polygon fill="#63b8ff" stroke="#63b8ff" points="478.36,-27.25 485.15,-19.12 474.77,-21.25 478.36,-27.25"/>
</a>
</g>
</g>
<!-- Node4 -->
<g id="Node000004" class="node">
<title>Node4</title>
<g id="a_Node000004"><a xlink:href="ntp_8h.html" target="_top" xlink:title=" ">
<polygon fill="white" stroke="#666666" points="1444.5,-145.5 1312.5,-145.5 1312.5,-126.5 1444.5,-126.5 1444.5,-145.5"/>
<text text-anchor="middle" x="1378.5" y="-133.5" font-family="Helvetica,sans-Serif" font-size="10.00">../components/ntp/ntp.h</text>
</a>
</g>
</g>
<!-- Node1&#45;&gt;Node4 -->
<g id="edge3_Node000001_Node000004" class="edge">
<title>Node1&#45;&gt;Node4</title>
<g id="a_edge3_Node000001_Node000004"><a xlink:title=" ">
<path fill="none" stroke="#63b8ff" d="M1053.66,-189.44C1118.94,-179.57 1214.91,-164.8 1298.5,-151 1305.67,-149.82 1313.2,-148.54 1320.65,-147.26"/>
<polygon fill="#63b8ff" stroke="#63b8ff" points="1321.47,-150.67 1330.72,-145.52 1320.27,-143.77 1321.47,-150.67"/>
</a>
</g>
</g>
<!-- Node5 -->
<g id="Node000005" class="node">
<title>Node5</title>
<g id="a_Node000005"><a xlink:title=" ">
<polygon fill="#e0e0e0" stroke="#999999" points="1526,-145.5 1463,-145.5 1463,-126.5 1526,-126.5 1526,-145.5"/>
<text text-anchor="middle" x="1494.5" y="-133.5" font-family="Helvetica,sans-Serif" font-size="10.00">esp_log.h</text>
</a>
</g>
</g>
<!-- Node1&#45;&gt;Node5 -->
<g id="edge4_Node000001_Node000005" class="edge">
<title>Node1&#45;&gt;Node5</title>
<g id="a_edge4_Node000001_Node000005"><a xlink:title=" ">
<path fill="none" stroke="#63b8ff" d="M1053.77,-198.23C1148.82,-193.61 1314.65,-181.58 1453.5,-151 1456.49,-150.34 1459.56,-149.54 1462.62,-148.65"/>
<polygon fill="#63b8ff" stroke="#63b8ff" points="1463.72,-151.98 1472.2,-145.63 1461.61,-145.3 1463.72,-151.98"/>
</a>
</g>
</g>
<!-- Node6 -->
<g id="Node000006" class="node">
<title>Node6</title>
<g id="a_Node000006"><a xlink:href="uart_8h.html" target="_top" xlink:title=" ">
<polygon fill="white" stroke="#666666" points="1652.5,-151 1544.5,-151 1544.5,-121 1652.5,-121 1652.5,-151"/>
<text text-anchor="start" x="1552.5" y="-139" font-family="Helvetica,sans-Serif" font-size="10.00">../components/uart</text>
<text text-anchor="middle" x="1598.5" y="-128" font-family="Helvetica,sans-Serif" font-size="10.00">/uart.h</text>
</a>
</g>
</g>
<!-- Node1&#45;&gt;Node6 -->
<g id="edge5_Node000001_Node000006" class="edge">
<title>Node1&#45;&gt;Node6</title>
<g id="a_edge5_Node000001_Node000006"><a xlink:title=" ">
<path fill="none" stroke="#63b8ff" d="M1053.59,-197.17C1161.59,-191.11 1363.86,-177.2 1534.5,-151 1534.6,-150.98 1534.7,-150.97 1534.81,-150.95"/>
<polygon fill="#63b8ff" stroke="#63b8ff" points="1535.19,-154.44 1544.47,-149.32 1534.02,-147.54 1535.19,-154.44"/>
</a>
</g>
</g>
<!-- Node8 -->
<g id="Node000008" class="node">
<title>Node8</title>
<g id="a_Node000008"><a xlink:href="hv5622_8h.html" target="_top" xlink:title=" ">
<polygon fill="white" stroke="#666666" points="125,-85 0,-85 0,-55 125,-55 125,-85"/>
<text text-anchor="start" x="8" y="-73" font-family="Helvetica,sans-Serif" font-size="10.00">../components/hv5622</text>
<text text-anchor="middle" x="62.5" y="-62" font-family="Helvetica,sans-Serif" font-size="10.00">/hv5622.h</text>
</a>
</g>
</g>
<!-- Node1&#45;&gt;Node8 -->
<g id="edge7_Node000001_Node000008" class="edge">
<title>Node1&#45;&gt;Node8</title>
<g id="a_edge7_Node000001_Node000008"><a xlink:title=" ">
<path fill="none" stroke="#63b8ff" d="M899.37,-201.14C750.35,-200.41 428.66,-193.76 327.5,-151 308.94,-143.15 311.48,-130.09 293.5,-121 286.27,-117.35 200.09,-99.18 135.09,-85.79"/>
<polygon fill="#63b8ff" stroke="#63b8ff" points="135.76,-82.36 125.26,-83.77 134.35,-89.21 135.76,-82.36"/>
</a>
</g>
</g>
<!-- Node10 -->
<g id="Node000010" class="node">
<title>Node10</title>
<g id="a_Node000010"><a xlink:href="display_8h.html" target="_top" xlink:title=" ">
<polygon fill="white" stroke="#666666" points="267.5,-85 143.5,-85 143.5,-55 267.5,-55 267.5,-85"/>
<text text-anchor="start" x="151.5" y="-73" font-family="Helvetica,sans-Serif" font-size="10.00">../components/display</text>
<text text-anchor="middle" x="205.5" y="-62" font-family="Helvetica,sans-Serif" font-size="10.00">/display.h</text>
</a>
</g>
</g>
<!-- Node1&#45;&gt;Node10 -->
<g id="edge9_Node000001_Node000010" class="edge">
<title>Node1&#45;&gt;Node10</title>
<g id="a_edge9_Node000001_Node000010"><a xlink:title=" ">
<path fill="none" stroke="#63b8ff" d="M899.35,-199.3C759.25,-195.43 468.71,-183.64 373.5,-151 350.41,-143.08 349.11,-132.35 327.5,-121 304.18,-108.76 277.18,-97.42 254.51,-88.65"/>
<polygon fill="#63b8ff" stroke="#63b8ff" points="255.68,-85.34 245.09,-85.05 253.18,-91.88 255.68,-85.34"/>
</a>
</g>
</g>
<!-- Node11 -->
<g id="Node000011" class="node">
<title>Node11</title>
<g id="a_Node000011"><a xlink:href="clock_8h.html" target="_top" xlink:title=" ">
<polygon fill="white" stroke="#666666" points="399.5,-85 285.5,-85 285.5,-55 399.5,-55 399.5,-85"/>
<text text-anchor="start" x="293.5" y="-73" font-family="Helvetica,sans-Serif" font-size="10.00">../components/clock</text>
<text text-anchor="middle" x="342.5" y="-62" font-family="Helvetica,sans-Serif" font-size="10.00">/clock.h</text>
</a>
</g>
</g>
<!-- Node1&#45;&gt;Node11 -->
<g id="edge11_Node000001_Node000011" class="edge">
<title>Node1&#45;&gt;Node11</title>
<g id="a_edge11_Node000001_Node000011"><a xlink:title=" ">
<path fill="none" stroke="#63b8ff" d="M899.34,-201.1C765.49,-200.14 496.59,-192.87 413.5,-151 388.42,-138.36 368.19,-112.73 355.84,-93.87"/>
<polygon fill="#63b8ff" stroke="#63b8ff" points="358.7,-91.85 350.42,-85.25 352.77,-95.58 358.7,-91.85"/>
</a>
</g>
</g>
<!-- Node12 -->
<g id="Node000012" class="node">
<title>Node12</title>
<g id="a_Node000012"><a xlink:href="webserver_8h.html" target="_top" xlink:title=" ">
<polygon fill="white" stroke="#666666" points="1810.5,-151 1670.5,-151 1670.5,-121 1810.5,-121 1810.5,-151"/>
<text text-anchor="start" x="1678.5" y="-139" font-family="Helvetica,sans-Serif" font-size="10.00">../components/webserver</text>
<text text-anchor="middle" x="1740.5" y="-128" font-family="Helvetica,sans-Serif" font-size="10.00">/webserver.h</text>
</a>
</g>
</g>
<!-- Node1&#45;&gt;Node12 -->
<g id="edge13_Node000001_Node000012" class="edge">
<title>Node1&#45;&gt;Node12</title>
<g id="a_edge13_Node000001_Node000012"><a xlink:title=" ">
<path fill="none" stroke="#63b8ff" d="M1053.54,-197.95C1178.73,-192.44 1434.24,-178.81 1660.28,-151.06"/>
<polygon fill="#63b8ff" stroke="#63b8ff" points="1660.85,-154.52 1670.35,-149.82 1659.99,-147.57 1660.85,-154.52"/>
</a>
</g>
</g>
<!-- Node14 -->
<g id="Node000014" class="node">
<title>Node14</title>
<g id="a_Node000014"><a xlink:href="config_8h.html" target="_top" xlink:title=" ">
<polygon fill="white" stroke="#666666" points="646.5,-151 528.5,-151 528.5,-121 646.5,-121 646.5,-151"/>
<text text-anchor="start" x="536.5" y="-139" font-family="Helvetica,sans-Serif" font-size="10.00">../components/config</text>
<text text-anchor="middle" x="587.5" y="-128" font-family="Helvetica,sans-Serif" font-size="10.00">/config.h</text>
</a>
</g>
</g>
<!-- Node1&#45;&gt;Node14 -->
<g id="edge15_Node000001_Node000014" class="edge">
<title>Node1&#45;&gt;Node14</title>
<g id="a_edge15_Node000001_Node000014"><a xlink:title=" ">
<path fill="none" stroke="#63b8ff" d="M899.18,-188.28C828.47,-176.65 724.83,-159.59 656.77,-148.4"/>
<polygon fill="#63b8ff" stroke="#63b8ff" points="657.01,-144.89 646.58,-146.72 655.88,-151.8 657.01,-144.89"/>
</a>
</g>
</g>
<!-- Node18 -->
<g id="Node000018" class="node">
<title>Node18</title>
<g id="a_Node000018"><a xlink:href="pwm_8h.html" target="_top" xlink:title=" ">
<polygon fill="white" stroke="#666666" points="1978,-145.5 1829,-145.5 1829,-126.5 1978,-126.5 1978,-145.5"/>
<text text-anchor="middle" x="1903.5" y="-133.5" font-family="Helvetica,sans-Serif" font-size="10.00">../components/pwm/pwm.h</text>
</a>
</g>
</g>
<!-- Node1&#45;&gt;Node18 -->
<g id="edge20_Node000001_Node000018" class="edge">
<title>Node1&#45;&gt;Node18</title>
<g id="a_edge20_Node000001_Node000018"><a xlink:title=" ">
<path fill="none" stroke="#63b8ff" d="M1053.74,-199.15C1202.4,-195 1538.5,-182.66 1819.5,-151 1828.67,-149.97 1838.36,-148.6 1847.78,-147.14"/>
<polygon fill="#63b8ff" stroke="#63b8ff" points="1848.53,-150.56 1857.85,-145.51 1847.42,-143.65 1848.53,-150.56"/>
</a>
</g>
</g>
<!-- Node19 -->
<g id="Node000019" class="node">
<title>Node19</title>
<g id="a_Node000019"><a xlink:href="dispatcher_8h.html" target="_top" xlink:title=" ">
<polygon fill="white" stroke="#666666" points="1256.5,-151 1116.5,-151 1116.5,-121 1256.5,-121 1256.5,-151"/>
<text text-anchor="start" x="1124.5" y="-139" font-family="Helvetica,sans-Serif" font-size="10.00">../components/dispatcher</text>
<text text-anchor="middle" x="1186.5" y="-128" font-family="Helvetica,sans-Serif" font-size="10.00">/dispatcher.h</text>
</a>
</g>
</g>
<!-- Node1&#45;&gt;Node19 -->
<g id="edge21_Node000001_Node000019" class="edge">
<title>Node1&#45;&gt;Node19</title>
<g id="a_edge21_Node000001_Node000019"><a xlink:title=" ">
<path fill="none" stroke="#63b8ff" d="M1022.59,-186.95C1054.45,-177.24 1097.03,-164.27 1130.8,-153.98"/>
<polygon fill="#63b8ff" stroke="#63b8ff" points="1131.98,-157.28 1140.52,-151.01 1129.94,-150.58 1131.98,-157.28"/>
</a>
</g>
</g>
<!-- Node20 -->
<g id="Node000020" class="node">
<title>Node20</title>
<g id="a_Node000020"><a xlink:href="event__bus_8h.html" target="_top" xlink:title=" ">
<polygon fill="white" stroke="#666666" points="1376,-85 1269,-85 1269,-55 1376,-55 1376,-85"/>
<text text-anchor="start" x="1277" y="-73" font-family="Helvetica,sans-Serif" font-size="10.00">../event_bus/event</text>
<text text-anchor="middle" x="1322.5" y="-62" font-family="Helvetica,sans-Serif" font-size="10.00">_bus.h</text>
</a>
</g>
</g>
<!-- Node1&#45;&gt;Node20 -->
<g id="edge25_Node000001_Node000020" class="edge">
<title>Node1&#45;&gt;Node20</title>
<g id="a_edge25_Node000001_Node000020"><a xlink:title=" ">
<path fill="none" stroke="#63b8ff" d="M1053.74,-194.3C1127.07,-186.76 1231.07,-172.66 1265.5,-151 1286.91,-137.53 1302.65,-112.81 1312.1,-94.4"/>
<polygon fill="#63b8ff" stroke="#63b8ff" points="1315.35,-95.71 1316.58,-85.19 1309.06,-92.65 1315.35,-95.71"/>
</a>
</g>
</g>
<!-- Node22 -->
<g id="Node000022" class="node">
<title>Node22</title>
<g id="a_Node000022"><a xlink:href="wifi_8h.html" target="_top" xlink:title=" ">
<polygon fill="white" stroke="#666666" points="881.5,-85 775.5,-85 775.5,-55 881.5,-55 881.5,-85"/>
<text text-anchor="start" x="783.5" y="-73" font-family="Helvetica,sans-Serif" font-size="10.00">../components/wifi</text>
<text text-anchor="middle" x="828.5" y="-62" font-family="Helvetica,sans-Serif" font-size="10.00">/wifi.h</text>
</a>
</g>
</g>
<!-- Node1&#45;&gt;Node22 -->
<g id="edge26_Node000001_Node000022" class="edge">
<title>Node1&#45;&gt;Node22</title>
<g id="a_edge26_Node000001_Node000022"><a xlink:title=" ">
<path fill="none" stroke="#63b8ff" d="M905.4,-186.95C884.13,-179.52 862.5,-168.2 847.5,-151 834.14,-135.67 829.76,-112.64 828.51,-95.21"/>
<polygon fill="#63b8ff" stroke="#63b8ff" points="832.01,-95.05 828.08,-85.21 825.01,-95.35 832.01,-95.05"/>
</a>
</g>
</g>
<!-- Node23 -->
<g id="Node000023" class="node">
<title>Node23</title>
<g id="a_Node000023"><a xlink:href="clock__task_8h.html" target="_top" xlink:title=" ">
<polygon fill="white" stroke="#666666" points="1098.5,-151 984.5,-151 984.5,-121 1098.5,-121 1098.5,-151"/>
<text text-anchor="start" x="992.5" y="-139" font-family="Helvetica,sans-Serif" font-size="10.00">../components/clock</text>
<text text-anchor="middle" x="1041.5" y="-128" font-family="Helvetica,sans-Serif" font-size="10.00">_task/clock_task.h</text>
</a>
</g>
</g>
<!-- Node1&#45;&gt;Node23 -->
<g id="edge28_Node000001_Node000023" class="edge">
<title>Node1&#45;&gt;Node23</title>
<g id="a_edge28_Node000001_Node000023"><a xlink:title=" ">
<path fill="none" stroke="#63b8ff" d="M990.93,-186.8C999.43,-178.43 1010.34,-167.68 1019.86,-158.31"/>
<polygon fill="#63b8ff" stroke="#63b8ff" points="1022.44,-160.67 1027.11,-151.16 1017.53,-155.69 1022.44,-160.67"/>
</a>
</g>
</g>
<!-- Node25 -->
<g id="Node000025" class="node">
<title>Node25</title>
<g id="a_Node000025"><a xlink:href="gpio__task_8h.html" target="_top" xlink:title=" ">
<polygon fill="white" stroke="#666666" points="966.5,-151 856.5,-151 856.5,-121 966.5,-121 966.5,-151"/>
<text text-anchor="start" x="864.5" y="-139" font-family="Helvetica,sans-Serif" font-size="10.00">../components/gpio</text>
<text text-anchor="middle" x="911.5" y="-128" font-family="Helvetica,sans-Serif" font-size="10.00">_task/gpio_task.h</text>
</a>
</g>
</g>
<!-- Node1&#45;&gt;Node25 -->
<g id="edge31_Node000001_Node000025" class="edge">
<title>Node1&#45;&gt;Node25</title>
<g id="a_edge31_Node000001_Node000025"><a xlink:title=" ">
<path fill="none" stroke="#63b8ff" d="M962.07,-186.8C953.57,-178.43 942.66,-167.68 933.14,-158.31"/>
<polygon fill="#63b8ff" stroke="#63b8ff" points="935.47,-155.69 925.89,-151.16 930.56,-160.67 935.47,-155.69"/>
</a>
</g>
</g>
<!-- Node7 -->
<g id="Node000007" class="node">
<title>Node7</title>
<g id="a_Node000007"><a xlink:title=" ">
<polygon fill="#e0e0e0" stroke="#999999" points="1637,-79.5 1560,-79.5 1560,-60.5 1637,-60.5 1637,-79.5"/>
<text text-anchor="middle" x="1598.5" y="-67.5" font-family="Helvetica,sans-Serif" font-size="10.00">driver/uart.h</text>
</a>
</g>
</g>
<!-- Node6&#45;&gt;Node7 -->
<g id="edge6_Node000006_Node000007" class="edge">
<title>Node6&#45;&gt;Node7</title>
<g id="a_edge6_Node000006_Node000007"><a xlink:title=" ">
<path fill="none" stroke="#63b8ff" d="M1598.5,-120.8C1598.5,-111.7 1598.5,-99.79 1598.5,-89.9"/>
<polygon fill="#63b8ff" stroke="#63b8ff" points="1602,-89.84 1598.5,-79.84 1595,-89.84 1602,-89.84"/>
</a>
</g>
</g>
<!-- Node9 -->
<g id="Node000009" class="node">
<title>Node9</title>
<g id="a_Node000009"><a xlink:title=" ">
<polygon fill="#e0e0e0" stroke="#999999" points="232,-19 179,-19 179,0 232,0 232,-19"/>
<text text-anchor="middle" x="205.5" y="-7" font-family="Helvetica,sans-Serif" font-size="10.00">stdint.h</text>
</a>
</g>
</g>
<!-- Node8&#45;&gt;Node9 -->
<g id="edge8_Node000008_Node000009" class="edge">
<title>Node8&#45;&gt;Node9</title>
<g id="a_edge8_Node000008_Node000009"><a xlink:title=" ">
<path fill="none" stroke="#63b8ff" d="M96.75,-54.99C120.61,-45.23 152.15,-32.33 175.11,-22.93"/>
<polygon fill="#63b8ff" stroke="#63b8ff" points="176.45,-26.17 184.38,-19.14 173.8,-19.69 176.45,-26.17"/>
</a>
</g>
</g>
<!-- Node10&#45;&gt;Node9 -->
<g id="edge10_Node000010_Node000009" class="edge">
<title>Node10&#45;&gt;Node9</title>
<g id="a_edge10_Node000010_Node000009"><a xlink:title=" ">
<path fill="none" stroke="#63b8ff" d="M205.5,-54.84C205.5,-47.21 205.5,-37.7 205.5,-29.45"/>
<polygon fill="#63b8ff" stroke="#63b8ff" points="209,-29.27 205.5,-19.27 202,-29.27 209,-29.27"/>
</a>
</g>
</g>
<!-- Node11&#45;&gt;Node9 -->
<g id="edge12_Node000011_Node000009" class="edge">
<title>Node11&#45;&gt;Node9</title>
<g id="a_edge12_Node000011_Node000009"><a xlink:title=" ">
<path fill="none" stroke="#63b8ff" d="M309.69,-54.99C287.03,-45.31 257.15,-32.56 235.2,-23.18"/>
<polygon fill="#63b8ff" stroke="#63b8ff" points="236.3,-19.85 225.73,-19.14 233.55,-26.29 236.3,-19.85"/>
</a>
</g>
</g>
<!-- Node13 -->
<g id="Node000013" class="node">
<title>Node13</title>
<g id="a_Node000013"><a xlink:title=" ">
<polygon fill="#e0e0e0" stroke="#999999" points="1792,-79.5 1689,-79.5 1689,-60.5 1792,-60.5 1792,-79.5"/>
<text text-anchor="middle" x="1740.5" y="-67.5" font-family="Helvetica,sans-Serif" font-size="10.00">esp_http_server.h</text>
</a>
</g>
</g>
<!-- Node12&#45;&gt;Node13 -->
<g id="edge14_Node000012_Node000013" class="edge">
<title>Node12&#45;&gt;Node13</title>
<g id="a_edge14_Node000012_Node000013"><a xlink:title=" ">
<path fill="none" stroke="#63b8ff" d="M1740.5,-120.8C1740.5,-111.7 1740.5,-99.79 1740.5,-89.9"/>
<polygon fill="#63b8ff" stroke="#63b8ff" points="1744,-89.84 1740.5,-79.84 1737,-89.84 1744,-89.84"/>
</a>
</g>
</g>
<!-- Node14&#45;&gt;Node11 -->
<g id="edge17_Node000014_Node000011" class="edge">
<title>Node14&#45;&gt;Node11</title>
<g id="a_edge17_Node000014_Node000011"><a xlink:title=" ">
<path fill="none" stroke="#63b8ff" d="M533.73,-120.95C496.08,-111.12 445.61,-97.93 405.97,-87.58"/>
<polygon fill="#63b8ff" stroke="#63b8ff" points="406.7,-84.15 396.14,-85.01 404.93,-90.93 406.7,-84.15"/>
</a>
</g>
</g>
<!-- Node15 -->
<g id="Node000015" class="node">
<title>Node15</title>
<g id="a_Node000015"><a xlink:title=" ">
<polygon fill="#e0e0e0" stroke="#999999" points="698,-19 637,-19 637,0 698,0 698,-19"/>
<text text-anchor="middle" x="667.5" y="-7" font-family="Helvetica,sans-Serif" font-size="10.00">esp_err.h</text>
</a>
</g>
</g>
<!-- Node14&#45;&gt;Node15 -->
<g id="edge16_Node000014_Node000015" class="edge">
<title>Node14&#45;&gt;Node15</title>
<g id="a_edge16_Node000014_Node000015"><a xlink:title=" ">
<path fill="none" stroke="#63b8ff" d="M587.94,-120.82C589.09,-103.86 593.06,-75.21 606.5,-55 615,-42.21 628.5,-31.81 640.63,-24.29"/>
<polygon fill="#63b8ff" stroke="#63b8ff" points="642.66,-27.16 649.54,-19.11 639.14,-21.11 642.66,-27.16"/>
</a>
</g>
</g>
<!-- Node16 -->
<g id="Node000016" class="node">
<title>Node16</title>
<g id="a_Node000016"><a xlink:title=" ">
<polygon fill="#e0e0e0" stroke="#999999" points="1151,-19 1038,-19 1038,0 1151,0 1151,-19"/>
<text text-anchor="middle" x="1094.5" y="-7" font-family="Helvetica,sans-Serif" font-size="10.00">freertos/FreeRTOS.h</text>
</a>
</g>
</g>
<!-- Node14&#45;&gt;Node16 -->
<g id="edge18_Node000014_Node000016" class="edge">
<title>Node14&#45;&gt;Node16</title>
<g id="a_edge18_Node000014_Node000016"><a xlink:title=" ">
<path fill="none" stroke="#63b8ff" d="M639.82,-120.94C667.17,-112.49 700.65,-100.38 728.5,-85 747.34,-74.6 746.69,-63.41 766.5,-55 812.22,-35.59 945.74,-22.1 1027.65,-15.39"/>
<polygon fill="#63b8ff" stroke="#63b8ff" points="1028.18,-18.86 1037.86,-14.57 1027.61,-11.88 1028.18,-18.86"/>
</a>
</g>
</g>
<!-- Node17 -->
<g id="Node000017" class="node">
<title>Node17</title>
<g id="a_Node000017"><a xlink:title=" ">
<polygon fill="#e0e0e0" stroke="#999999" points="559,-79.5 456,-79.5 456,-60.5 559,-60.5 559,-79.5"/>
<text text-anchor="middle" x="507.5" y="-67.5" font-family="Helvetica,sans-Serif" font-size="10.00">freertos/semphr.h</text>
</a>
</g>
</g>
<!-- Node14&#45;&gt;Node17 -->
<g id="edge19_Node000014_Node000017" class="edge">
<title>Node14&#45;&gt;Node17</title>
<g id="a_edge19_Node000014_Node000017"><a xlink:title=" ">
<path fill="none" stroke="#63b8ff" d="M569.75,-120.8C556.91,-110.53 539.58,-96.67 526.47,-86.18"/>
<polygon fill="#63b8ff" stroke="#63b8ff" points="528.55,-83.36 518.56,-79.84 524.18,-88.82 528.55,-83.36"/>
</a>
</g>
</g>
<!-- Node19&#45;&gt;Node20 -->
<g id="edge22_Node000019_Node000020" class="edge">
<title>Node19&#45;&gt;Node20</title>
<g id="a_edge22_Node000019_Node000020"><a xlink:title=" ">
<path fill="none" stroke="#63b8ff" d="M1216.35,-120.95C1236.1,-111.66 1262.2,-99.38 1283.58,-89.32"/>
<polygon fill="#63b8ff" stroke="#63b8ff" points="1285.17,-92.44 1292.72,-85.01 1282.19,-86.1 1285.17,-92.44"/>
</a>
</g>
</g>
<!-- Node20&#45;&gt;Node16 -->
<g id="edge23_Node000020_Node000016" class="edge">
<title>Node20&#45;&gt;Node16</title>
<g id="a_edge23_Node000020_Node000016"><a xlink:title=" ">
<path fill="none" stroke="#63b8ff" d="M1268.76,-55.21C1228.8,-44.96 1174.99,-31.15 1137.79,-21.61"/>
<polygon fill="#63b8ff" stroke="#63b8ff" points="1138.32,-18.13 1127.76,-19.03 1136.58,-24.91 1138.32,-18.13"/>
</a>
</g>
</g>
<!-- Node21 -->
<g id="Node000021" class="node">
<title>Node21</title>
<g id="a_Node000021"><a xlink:title=" ">
<polygon fill="#e0e0e0" stroke="#999999" points="1336,-19 1239,-19 1239,0 1336,0 1336,-19"/>
<text text-anchor="middle" x="1287.5" y="-7" font-family="Helvetica,sans-Serif" font-size="10.00">freertos/queue.h</text>
</a>
</g>
</g>
<!-- Node20&#45;&gt;Node21 -->
<g id="edge24_Node000020_Node000021" class="edge">
<title>Node20&#45;&gt;Node21</title>
<g id="a_edge24_Node000020_Node000021"><a xlink:title=" ">
<path fill="none" stroke="#63b8ff" d="M1314.03,-54.84C1309.21,-46.78 1303.13,-36.62 1298,-28.06"/>
<polygon fill="#63b8ff" stroke="#63b8ff" points="1300.88,-26.05 1292.74,-19.27 1294.88,-29.64 1300.88,-26.05"/>
</a>
</g>
</g>
<!-- Node22&#45;&gt;Node15 -->
<g id="edge27_Node000022_Node000015" class="edge">
<title>Node22&#45;&gt;Node15</title>
<g id="a_edge27_Node000022_Node000015"><a xlink:title=" ">
<path fill="none" stroke="#63b8ff" d="M789.94,-54.99C762.71,-45.1 726.62,-31.98 700.68,-22.56"/>
<polygon fill="#63b8ff" stroke="#63b8ff" points="701.87,-19.26 691.28,-19.14 699.48,-25.84 701.87,-19.26"/>
</a>
</g>
</g>
<!-- Node23&#45;&gt;Node16 -->
<g id="edge29_Node000023_Node000016" class="edge">
<title>Node23&#45;&gt;Node16</title>
<g id="a_edge29_Node000023_Node000016"><a xlink:title=" ">
<path fill="none" stroke="#63b8ff" d="M1052.22,-120.77C1059.09,-111.1 1067.76,-97.79 1073.5,-85 1081.74,-66.65 1087.52,-44.29 1090.9,-28.88"/>
<polygon fill="#63b8ff" stroke="#63b8ff" points="1094.34,-29.55 1092.94,-19.05 1087.49,-28.13 1094.34,-29.55"/>
</a>
</g>
</g>
<!-- Node24 -->
<g id="Node000024" class="node">
<title>Node24</title>
<g id="a_Node000024"><a xlink:title=" ">
<polygon fill="#e0e0e0" stroke="#999999" points="1251.5,-79.5 1163.5,-79.5 1163.5,-60.5 1251.5,-60.5 1251.5,-79.5"/>
<text text-anchor="middle" x="1207.5" y="-67.5" font-family="Helvetica,sans-Serif" font-size="10.00">freertos/task.h</text>
</a>
</g>
</g>
<!-- Node23&#45;&gt;Node24 -->
<g id="edge30_Node000023_Node000024" class="edge">
<title>Node23&#45;&gt;Node24</title>
<g id="a_edge30_Node000023_Node000024"><a xlink:title=" ">
<path fill="none" stroke="#63b8ff" d="M1077.93,-120.95C1107.17,-109.68 1147.81,-94.01 1175.74,-83.25"/>
<polygon fill="#63b8ff" stroke="#63b8ff" points="1177.34,-86.38 1185.41,-79.52 1174.82,-79.85 1177.34,-86.38"/>
</a>
</g>
</g>
<!-- Node25&#45;&gt;Node16 -->
<g id="edge32_Node000025_Node000016" class="edge">
<title>Node25&#45;&gt;Node16</title>
<g id="a_edge32_Node000025_Node000016"><a xlink:title=" ">
<path fill="none" stroke="#63b8ff" d="M966.66,-120.97C990.65,-113.06 1018.1,-101.39 1039.5,-85 1059.58,-69.62 1075.76,-45 1085.24,-28.31"/>
<polygon fill="#63b8ff" stroke="#63b8ff" points="1088.55,-29.55 1090.25,-19.1 1082.4,-26.21 1088.55,-29.55"/>
</a>
</g>
</g>
<!-- Node25&#45;&gt;Node21 -->
<g id="edge33_Node000025_Node000021" class="edge">
<title>Node25&#45;&gt;Node21</title>
<g id="a_edge33_Node000025_Node000021"><a xlink:title=" ">
<path fill="none" stroke="#63b8ff" d="M956.3,-120.93C987.53,-111.05 1030.12,-97.43 1067.5,-85 1106.31,-72.09 1115.77,-68.16 1154.5,-55 1187.41,-43.82 1224.98,-31.27 1251.77,-22.36"/>
<polygon fill="#63b8ff" stroke="#63b8ff" points="1253.1,-25.6 1261.48,-19.13 1250.89,-18.96 1253.1,-25.6"/>
</a>
</g>
</g>
<!-- Node26 -->
<g id="Node000026" class="node">
<title>Node26</title>
<g id="a_Node000026"><a xlink:href="gpio__driver_8h.html" target="_top" xlink:title=" ">
<polygon fill="white" stroke="#666666" points="719.5,-85 615.5,-85 615.5,-55 719.5,-55 719.5,-85"/>
<text text-anchor="start" x="623.5" y="-73" font-family="Helvetica,sans-Serif" font-size="10.00">../gpio_driver/gpio</text>
<text text-anchor="middle" x="667.5" y="-62" font-family="Helvetica,sans-Serif" font-size="10.00">_driver.h</text>
</a>
</g>
</g>
<!-- Node25&#45;&gt;Node26 -->
<g id="edge34_Node000025_Node000026" class="edge">
<title>Node25&#45;&gt;Node26</title>
<g id="a_edge34_Node000025_Node000026"><a xlink:title=" ">
<path fill="none" stroke="#63b8ff" d="M857.95,-120.95C820.06,-111.02 769.14,-97.66 729.49,-87.26"/>
<polygon fill="#63b8ff" stroke="#63b8ff" points="730.23,-83.83 719.67,-84.68 728.45,-90.61 730.23,-83.83"/>
</a>
</g>
</g>
<!-- Node27 -->
<g id="Node000027" class="node">
<title>Node27</title>
<g id="a_Node000027"><a xlink:href="rotary__encoder_8h.html" target="_top" xlink:title=" ">
<polygon fill="white" stroke="#666666" points="1031,-85 900,-85 900,-55 1031,-55 1031,-85"/>
<text text-anchor="start" x="908" y="-73" font-family="Helvetica,sans-Serif" font-size="10.00">../rotary_encoder/rotary</text>
<text text-anchor="middle" x="965.5" y="-62" font-family="Helvetica,sans-Serif" font-size="10.00">_encoder.h</text>
</a>
</g>
</g>
<!-- Node25&#45;&gt;Node27 -->
<g id="edge37_Node000025_Node000027" class="edge">
<title>Node25&#45;&gt;Node27</title>
<g id="a_edge37_Node000025_Node000027"><a xlink:title=" ">
<path fill="none" stroke="#63b8ff" d="M923.48,-120.8C930.41,-112.59 939.26,-102.1 947.05,-92.87"/>
<polygon fill="#63b8ff" stroke="#63b8ff" points="949.78,-95.06 953.55,-85.16 944.43,-90.55 949.78,-95.06"/>
</a>
</g>
</g>
<!-- Node26&#45;&gt;Node3 -->
<g id="edge35_Node000026_Node000003" class="edge">
<title>Node26&#45;&gt;Node3</title>
<g id="a_edge35_Node000026_Node000003"><a xlink:title=" ">
<path fill="none" stroke="#63b8ff" d="M628.22,-54.99C600.49,-45.1 563.72,-31.98 537.3,-22.56"/>
<polygon fill="#63b8ff" stroke="#63b8ff" points="538.31,-19.2 527.72,-19.14 535.96,-25.8 538.31,-19.2"/>
</a>
</g>
</g>
<!-- Node26&#45;&gt;Node15 -->
<g id="edge36_Node000026_Node000015" class="edge">
<title>Node26&#45;&gt;Node15</title>
<g id="a_edge36_Node000026_Node000015"><a xlink:title=" ">
<path fill="none" stroke="#63b8ff" d="M667.5,-54.84C667.5,-47.21 667.5,-37.7 667.5,-29.45"/>
<polygon fill="#63b8ff" stroke="#63b8ff" points="671,-29.27 667.5,-19.27 664,-29.27 671,-29.27"/>
</a>
</g>
</g>
</g>
</svg>
