<?xml version="1.0" encoding="UTF-8" standalone="no"?>
<!DOCTYPE svg PUBLIC "-//W3C//DTD SVG 1.1//EN"
 "http://www.w3.org/Graphics/SVG/1.1/DTD/svg11.dtd">
<!-- Generated by graphviz version 2.43.0 (0)
 -->
<!-- Title: software/nixie_clock_esp32_project/components/ntp/ntp.c Pages: 1 -->
<svg width="1161pt" height="225pt"
 viewBox="0.00 0.00 1160.50 225.00" xmlns="http://www.w3.org/2000/svg" xmlns:xlink="http://www.w3.org/1999/xlink">
<g id="graph0" class="graph" transform="scale(1 1) rotate(0) translate(4 221)">
<title>software/nixie_clock_esp32_project/components/ntp/ntp.c</title>
<!-- Node1 -->
<g id="Node000001" class="node">
<title>Node1</title>
<g id="a_Node000001"><a xlink:title=" ">
<polygon fill="#999999" stroke="#666666" points="733,-217 580,-217 580,-176 733,-176 733,-217"/>
<text text-anchor="start" x="588" y="-205" font-family="Helvetica,sans-Serif" font-size="10.00">software/nixie_clock</text>
<text text-anchor="start" x="588" y="-194" font-family="Helvetica,sans-Serif" font-size="10.00">_esp32_project/components</text>
<text text-anchor="middle" x="656.5" y="-183" font-family="Helvetica,sans-Serif" font-size="10.00">/ntp/ntp.c</text>
</a>
</g>
</g>
<!-- Node2 -->
<g id="Node000002" class="node">
<title>Node2</title>
<g id="a_Node000002"><a xlink:title=" ">
<polygon fill="#e0e0e0" stroke="#999999" points="69,-134.5 0,-134.5 0,-115.5 69,-115.5 69,-134.5"/>
<text text-anchor="middle" x="34.5" y="-122.5" font-family="Helvetica,sans-Serif" font-size="10.00">esp_sntp.h</text>
</a>
</g>
</g>
<!-- Node1&#45;&gt;Node2 -->
<g id="edge1_Node000001_Node000002" class="edge">
<title>Node1&#45;&gt;Node2</title>
<g id="a_edge1_Node000001_Node000002"><a xlink:title=" ">
<path fill="none" stroke="#63b8ff" d="M580,-193.31C468.62,-188.97 255.78,-176.28 78.5,-140 75.1,-139.3 71.59,-138.44 68.1,-137.49"/>
<polygon fill="#63b8ff" stroke="#63b8ff" points="69.05,-134.12 58.46,-134.64 67.06,-140.83 69.05,-134.12"/>
</a>
</g>
</g>
<!-- Node3 -->
<g id="Node000003" class="node">
<title>Node3</title>
<g id="a_Node000003"><a xlink:title=" ">
<polygon fill="#e0e0e0" stroke="#999999" points="157.5,-134.5 87.5,-134.5 87.5,-115.5 157.5,-115.5 157.5,-134.5"/>
<text text-anchor="middle" x="122.5" y="-122.5" font-family="Helvetica,sans-Serif" font-size="10.00">esp_netif.h</text>
</a>
</g>
</g>
<!-- Node1&#45;&gt;Node3 -->
<g id="edge2_Node000001_Node000003" class="edge">
<title>Node1&#45;&gt;Node3</title>
<g id="a_edge2_Node000001_Node000003"><a xlink:title=" ">
<path fill="none" stroke="#63b8ff" d="M579.79,-191.46C482.7,-185.28 310.72,-170.8 166.5,-140 163.1,-139.27 159.6,-138.39 156.12,-137.43"/>
<polygon fill="#63b8ff" stroke="#63b8ff" points="157.06,-134.06 146.48,-134.56 155.06,-140.77 157.06,-134.06"/>
</a>
</g>
</g>
<!-- Node4 -->
<g id="Node000004" class="node">
<title>Node4</title>
<g id="a_Node000004"><a xlink:title=" ">
<polygon fill="#e0e0e0" stroke="#999999" points="273,-134.5 176,-134.5 176,-115.5 273,-115.5 273,-134.5"/>
<text text-anchor="middle" x="224.5" y="-122.5" font-family="Helvetica,sans-Serif" font-size="10.00">esp_netif_sntp.h</text>
</a>
</g>
</g>
<!-- Node1&#45;&gt;Node4 -->
<g id="edge3_Node000001_Node000004" class="edge">
<title>Node1&#45;&gt;Node4</title>
<g id="a_edge3_Node000001_Node000004"><a xlink:title=" ">
<path fill="none" stroke="#63b8ff" d="M579.65,-186.27C503.6,-176.64 384.02,-160.13 281.5,-140 276.75,-139.07 271.8,-138 266.89,-136.88"/>
<polygon fill="#63b8ff" stroke="#63b8ff" points="267.47,-133.42 256.94,-134.53 265.86,-140.23 267.47,-133.42"/>
</a>
</g>
</g>
<!-- Node5 -->
<g id="Node000005" class="node">
<title>Node5</title>
<g id="a_Node000005"><a xlink:title=" ">
<polygon fill="#e0e0e0" stroke="#999999" points="354,-134.5 291,-134.5 291,-115.5 354,-115.5 354,-134.5"/>
<text text-anchor="middle" x="322.5" y="-122.5" font-family="Helvetica,sans-Serif" font-size="10.00">esp_log.h</text>
</a>
</g>
</g>
<!-- Node1&#45;&gt;Node5 -->
<g id="edge4_Node000001_Node000005" class="edge">
<title>Node1&#45;&gt;Node5</title>
<g id="a_edge4_Node000001_Node000005"><a xlink:title=" ">
<path fill="none" stroke="#63b8ff" d="M579.96,-184.28C520.2,-174.75 435.38,-159.51 362.5,-140 360.01,-139.33 357.46,-138.59 354.9,-137.8"/>
<polygon fill="#63b8ff" stroke="#63b8ff" points="355.75,-134.39 345.16,-134.59 353.57,-141.04 355.75,-134.39"/>
</a>
</g>
</g>
<!-- Node6 -->
<g id="Node000006" class="node">
<title>Node6</title>
<g id="a_Node000006"><a xlink:href="esp__stub_8h.html" target="_top" xlink:title=" ">
<polygon fill="white" stroke="#666666" points="487,-134.5 372,-134.5 372,-115.5 487,-115.5 487,-134.5"/>
<text text-anchor="middle" x="429.5" y="-122.5" font-family="Helvetica,sans-Serif" font-size="10.00">../../main/esp_stub.h</text>
</a>
</g>
</g>
<!-- Node1&#45;&gt;Node6 -->
<g id="edge5_Node000001_Node000006" class="edge">
<title>Node1&#45;&gt;Node6</title>
<g id="a_edge5_Node000001_Node000006"><a xlink:title=" ">
<path fill="none" stroke="#63b8ff" d="M592.66,-175.96C552.08,-163.53 500.95,-147.88 466.85,-137.44"/>
<polygon fill="#63b8ff" stroke="#63b8ff" points="467.86,-134.08 457.27,-134.5 465.81,-140.78 467.86,-134.08"/>
</a>
</g>
</g>
<!-- Node7 -->
<g id="Node000007" class="node">
<title>Node7</title>
<g id="a_Node000007"><a xlink:href="clock_8h.html" target="_top" xlink:title=" ">
<polygon fill="white" stroke="#666666" points="894,-74 805,-74 805,-55 894,-55 894,-74"/>
<text text-anchor="middle" x="849.5" y="-62" font-family="Helvetica,sans-Serif" font-size="10.00">../clock/clock.h</text>
</a>
</g>
</g>
<!-- Node1&#45;&gt;Node7 -->
<g id="edge6_Node000001_Node000007" class="edge">
<title>Node1&#45;&gt;Node7</title>
<g id="a_edge6_Node000001_Node000007"><a xlink:title=" ">
<path fill="none" stroke="#63b8ff" d="M733.2,-176.28C756.79,-167.82 781.73,-156.06 801.5,-140 820.29,-124.74 834.12,-100.09 841.98,-83.37"/>
<polygon fill="#63b8ff" stroke="#63b8ff" points="845.23,-84.69 846.1,-74.13 838.83,-81.84 845.23,-84.69"/>
</a>
</g>
</g>
<!-- Node9 -->
<g id="Node000009" class="node">
<title>Node9</title>
<g id="a_Node000009"><a xlink:href="clock__task_8h.html" target="_top" xlink:title=" ">
<polygon fill="white" stroke="#666666" points="628,-134.5 505,-134.5 505,-115.5 628,-115.5 628,-134.5"/>
<text text-anchor="middle" x="566.5" y="-122.5" font-family="Helvetica,sans-Serif" font-size="10.00">../../main/clock_task.h</text>
</a>
</g>
</g>
<!-- Node1&#45;&gt;Node9 -->
<g id="edge8_Node000001_Node000009" class="edge">
<title>Node1&#45;&gt;Node9</title>
<g id="a_edge8_Node000001_Node000009"><a xlink:title=" ">
<path fill="none" stroke="#63b8ff" d="M630.95,-175.77C616.63,-164.71 599.05,-151.13 585.87,-140.96"/>
<polygon fill="#63b8ff" stroke="#63b8ff" points="587.98,-138.16 577.92,-134.82 583.7,-143.7 587.98,-138.16"/>
</a>
</g>
</g>
<!-- Node10 -->
<g id="Node000010" class="node">
<title>Node10</title>
<g id="a_Node000010"><a xlink:title=" ">
<polygon fill="#e0e0e0" stroke="#999999" points="672,-74 559,-74 559,-55 672,-55 672,-74"/>
<text text-anchor="middle" x="615.5" y="-62" font-family="Helvetica,sans-Serif" font-size="10.00">freertos/FreeRTOS.h</text>
</a>
</g>
</g>
<!-- Node1&#45;&gt;Node10 -->
<g id="edge13_Node000001_Node000010" class="edge">
<title>Node1&#45;&gt;Node10</title>
<g id="a_edge13_Node000001_Node000010"><a xlink:title=" ">
<path fill="none" stroke="#63b8ff" d="M653.12,-175.81C649.82,-158.26 644.18,-132.02 636.5,-110 633.34,-100.92 628.9,-91.23 624.92,-83.22"/>
<polygon fill="#63b8ff" stroke="#63b8ff" points="627.93,-81.43 620.25,-74.13 621.71,-84.63 627.93,-81.43"/>
</a>
</g>
</g>
<!-- Node12 -->
<g id="Node000012" class="node">
<title>Node12</title>
<g id="a_Node000012"><a xlink:href="ntp_8h.html" target="_top" xlink:title=" ">
<polygon fill="white" stroke="#666666" points="1042,-134.5 1001,-134.5 1001,-115.5 1042,-115.5 1042,-134.5"/>
<text text-anchor="middle" x="1021.5" y="-122.5" font-family="Helvetica,sans-Serif" font-size="10.00">ntp.h</text>
</a>
</g>
</g>
<!-- Node1&#45;&gt;Node12 -->
<g id="edge11_Node000001_Node000012" class="edge">
<title>Node1&#45;&gt;Node12</title>
<g id="a_edge11_Node000001_Node000012"><a xlink:title=" ">
<path fill="none" stroke="#63b8ff" d="M733.21,-187.32C800.75,-179 901.34,-163.9 986.5,-140 988.44,-139.46 990.41,-138.84 992.39,-138.18"/>
<polygon fill="#63b8ff" stroke="#63b8ff" points="993.95,-141.34 1002.13,-134.6 991.54,-134.76 993.95,-141.34"/>
</a>
</g>
</g>
<!-- Node13 -->
<g id="Node000013" class="node">
<title>Node13</title>
<g id="a_Node000013"><a xlink:title=" ">
<polygon fill="#e0e0e0" stroke="#999999" points="1152.5,-134.5 1060.5,-134.5 1060.5,-115.5 1152.5,-115.5 1152.5,-134.5"/>
<text text-anchor="middle" x="1106.5" y="-122.5" font-family="Helvetica,sans-Serif" font-size="10.00">esp_interface.h</text>
</a>
</g>
</g>
<!-- Node1&#45;&gt;Node13 -->
<g id="edge12_Node000001_Node000013" class="edge">
<title>Node1&#45;&gt;Node13</title>
<g id="a_edge12_Node000001_Node000013"><a xlink:title=" ">
<path fill="none" stroke="#63b8ff" d="M733.01,-187.27C812.89,-178.09 941.6,-161.64 1051.5,-140 1056.15,-139.08 1060.99,-138.02 1065.79,-136.89"/>
<polygon fill="#63b8ff" stroke="#63b8ff" points="1066.63,-140.29 1075.51,-134.52 1064.97,-133.49 1066.63,-140.29"/>
</a>
</g>
</g>
<!-- Node14 -->
<g id="Node000014" class="node">
<title>Node14</title>
<g id="a_Node000014"><a xlink:title=" ">
<polygon fill="#e0e0e0" stroke="#999999" points="1094,-74 991,-74 991,-55 1094,-55 1094,-74"/>
<text text-anchor="middle" x="1042.5" y="-62" font-family="Helvetica,sans-Serif" font-size="10.00">freertos/semphr.h</text>
</a>
</g>
</g>
<!-- Node1&#45;&gt;Node14 -->
<g id="edge14_Node000001_Node000014" class="edge">
<title>Node1&#45;&gt;Node14</title>
<g id="a_edge14_Node000001_Node000014"><a xlink:title=" ">
<path fill="none" stroke="#63b8ff" d="M733.3,-191.86C795.29,-186.45 883.41,-173.07 953.5,-140 961.65,-136.15 1001.88,-101.3 1025.36,-80.65"/>
<polygon fill="#63b8ff" stroke="#63b8ff" points="1027.71,-83.26 1032.89,-74.02 1023.08,-78 1027.71,-83.26"/>
</a>
</g>
</g>
<!-- Node15 -->
<g id="Node000015" class="node">
<title>Node15</title>
<g id="a_Node000015"><a xlink:href="config_8h.html" target="_top" xlink:title=" ">
<polygon fill="white" stroke="#666666" points="944.5,-134.5 848.5,-134.5 848.5,-115.5 944.5,-115.5 944.5,-134.5"/>
<text text-anchor="middle" x="896.5" y="-122.5" font-family="Helvetica,sans-Serif" font-size="10.00">../config/config.h</text>
</a>
</g>
</g>
<!-- Node1&#45;&gt;Node15 -->
<g id="edge15_Node000001_Node000015" class="edge">
<title>Node1&#45;&gt;Node15</title>
<g id="a_edge15_Node000001_Node000015"><a xlink:title=" ">
<path fill="none" stroke="#63b8ff" d="M723.99,-175.96C767.08,-163.48 821.42,-147.74 857.47,-137.3"/>
<polygon fill="#63b8ff" stroke="#63b8ff" points="858.5,-140.65 867.14,-134.5 856.56,-133.92 858.5,-140.65"/>
</a>
</g>
</g>
<!-- Node17 -->
<g id="Node000017" class="node">
<title>Node17</title>
<g id="a_Node000017"><a xlink:href="event__bus_8h.html" target="_top" xlink:title=" ">
<polygon fill="white" stroke="#666666" points="792,-140 685,-140 685,-110 792,-110 792,-140"/>
<text text-anchor="start" x="693" y="-128" font-family="Helvetica,sans-Serif" font-size="10.00">../event_bus/event</text>
<text text-anchor="middle" x="738.5" y="-117" font-family="Helvetica,sans-Serif" font-size="10.00">_bus.h</text>
</a>
</g>
</g>
<!-- Node1&#45;&gt;Node17 -->
<g id="edge20_Node000001_Node000017" class="edge">
<title>Node1&#45;&gt;Node17</title>
<g id="a_edge20_Node000001_Node000017"><a xlink:title=" ">
<path fill="none" stroke="#63b8ff" d="M679.78,-175.77C690.49,-166.69 703.21,-155.91 714.06,-146.71"/>
<polygon fill="#63b8ff" stroke="#63b8ff" points="716.57,-149.17 721.94,-140.04 712.05,-143.83 716.57,-149.17"/>
</a>
</g>
</g>
<!-- Node8 -->
<g id="Node000008" class="node">
<title>Node8</title>
<g id="a_Node000008"><a xlink:title=" ">
<polygon fill="#e0e0e0" stroke="#999999" points="876,-19 823,-19 823,0 876,0 876,-19"/>
<text text-anchor="middle" x="849.5" y="-7" font-family="Helvetica,sans-Serif" font-size="10.00">stdint.h</text>
</a>
</g>
</g>
<!-- Node7&#45;&gt;Node8 -->
<g id="edge7_Node000007_Node000008" class="edge">
<title>Node7&#45;&gt;Node8</title>
<g id="a_edge7_Node000007_Node000008"><a xlink:title=" ">
<path fill="none" stroke="#63b8ff" d="M849.5,-54.75C849.5,-47.8 849.5,-37.85 849.5,-29.13"/>
<polygon fill="#63b8ff" stroke="#63b8ff" points="853,-29.09 849.5,-19.09 846,-29.09 853,-29.09"/>
</a>
</g>
</g>
<!-- Node9&#45;&gt;Node10 -->
<g id="edge9_Node000009_Node000010" class="edge">
<title>Node9&#45;&gt;Node10</title>
<g id="a_edge9_Node000009_Node000010"><a xlink:title=" ">
<path fill="none" stroke="#63b8ff" d="M573.73,-115.37C581.04,-106.64 592.52,-92.93 601.6,-82.09"/>
<polygon fill="#63b8ff" stroke="#63b8ff" points="604.5,-84.08 608.24,-74.17 599.14,-79.59 604.5,-84.08"/>
</a>
</g>
</g>
<!-- Node11 -->
<g id="Node000011" class="node">
<title>Node11</title>
<g id="a_Node000011"><a xlink:title=" ">
<polygon fill="#e0e0e0" stroke="#999999" points="540.5,-74 452.5,-74 452.5,-55 540.5,-55 540.5,-74"/>
<text text-anchor="middle" x="496.5" y="-62" font-family="Helvetica,sans-Serif" font-size="10.00">freertos/task.h</text>
</a>
</g>
</g>
<!-- Node9&#45;&gt;Node11 -->
<g id="edge10_Node000009_Node000011" class="edge">
<title>Node9&#45;&gt;Node11</title>
<g id="a_edge10_Node000009_Node000011"><a xlink:title=" ">
<path fill="none" stroke="#63b8ff" d="M556.17,-115.37C545.31,-106.3 528.01,-91.84 514.83,-80.82"/>
<polygon fill="#63b8ff" stroke="#63b8ff" points="516.79,-77.89 506.87,-74.17 512.3,-83.27 516.79,-77.89"/>
</a>
</g>
</g>
<!-- Node15&#45;&gt;Node7 -->
<g id="edge17_Node000015_Node000007" class="edge">
<title>Node15&#45;&gt;Node7</title>
<g id="a_edge17_Node000015_Node000007"><a xlink:title=" ">
<path fill="none" stroke="#63b8ff" d="M889.56,-115.37C882.55,-106.64 871.54,-92.93 862.83,-82.09"/>
<polygon fill="#63b8ff" stroke="#63b8ff" points="865.46,-79.77 856.46,-74.17 860,-84.16 865.46,-79.77"/>
</a>
</g>
</g>
<!-- Node15&#45;&gt;Node10 -->
<g id="edge18_Node000015_Node000010" class="edge">
<title>Node15&#45;&gt;Node10</title>
<g id="a_edge18_Node000015_Node000010"><a xlink:title=" ">
<path fill="none" stroke="#63b8ff" d="M855.64,-115.49C805.59,-105.07 720.78,-87.42 666.51,-76.12"/>
<polygon fill="#63b8ff" stroke="#63b8ff" points="666.91,-72.63 656.41,-74.02 665.49,-79.48 666.91,-72.63"/>
</a>
</g>
</g>
<!-- Node15&#45;&gt;Node14 -->
<g id="edge19_Node000015_Node000014" class="edge">
<title>Node15&#45;&gt;Node14</title>
<g id="a_edge19_Node000015_Node000014"><a xlink:title=" ">
<path fill="none" stroke="#63b8ff" d="M917.73,-115.49C942.49,-105.57 983.62,-89.09 1011.85,-77.78"/>
<polygon fill="#63b8ff" stroke="#63b8ff" points="1013.26,-80.99 1021.24,-74.02 1010.66,-74.49 1013.26,-80.99"/>
</a>
</g>
</g>
<!-- Node16 -->
<g id="Node000016" class="node">
<title>Node16</title>
<g id="a_Node000016"><a xlink:title=" ">
<polygon fill="#e0e0e0" stroke="#999999" points="973,-74 912,-74 912,-55 973,-55 973,-74"/>
<text text-anchor="middle" x="942.5" y="-62" font-family="Helvetica,sans-Serif" font-size="10.00">esp_err.h</text>
</a>
</g>
</g>
<!-- Node15&#45;&gt;Node16 -->
<g id="edge16_Node000015_Node000016" class="edge">
<title>Node15&#45;&gt;Node16</title>
<g id="a_edge16_Node000015_Node000016"><a xlink:title=" ">
<path fill="none" stroke="#63b8ff" d="M903.29,-115.37C910.15,-106.64 920.93,-92.93 929.45,-82.09"/>
<polygon fill="#63b8ff" stroke="#63b8ff" points="932.25,-84.19 935.68,-74.17 926.75,-79.86 932.25,-84.19"/>
</a>
</g>
</g>
<!-- Node17&#45;&gt;Node10 -->
<g id="edge21_Node000017_Node000010" class="edge">
<title>Node17&#45;&gt;Node10</title>
<g id="a_edge21_Node000017_Node000010"><a xlink:title=" ">
<path fill="none" stroke="#63b8ff" d="M709.04,-109.99C688.88,-100.4 662.36,-87.79 642.7,-78.44"/>
<polygon fill="#63b8ff" stroke="#63b8ff" points="644.2,-75.27 633.66,-74.14 641.19,-81.6 644.2,-75.27"/>
</a>
</g>
</g>
<!-- Node18 -->
<g id="Node000018" class="node">
<title>Node18</title>
<g id="a_Node000018"><a xlink:title=" ">
<polygon fill="#e0e0e0" stroke="#999999" points="787,-74 690,-74 690,-55 787,-55 787,-74"/>
<text text-anchor="middle" x="738.5" y="-62" font-family="Helvetica,sans-Serif" font-size="10.00">freertos/queue.h</text>
</a>
</g>
</g>
<!-- Node17&#45;&gt;Node18 -->
<g id="edge22_Node000017_Node000018" class="edge">
<title>Node17&#45;&gt;Node18</title>
<g id="a_edge22_Node000017_Node000018"><a xlink:title=" ">
<path fill="none" stroke="#63b8ff" d="M738.5,-109.84C738.5,-102.21 738.5,-92.7 738.5,-84.45"/>
<polygon fill="#63b8ff" stroke="#63b8ff" points="742,-84.27 738.5,-74.27 735,-84.27 742,-84.27"/>
</a>
</g>
</g>
</g>
</svg>
