<?xml version="1.0" encoding="UTF-8" standalone="no"?>
<!DOCTYPE svg PUBLIC "-//W3C//DTD SVG 1.1//EN"
 "http://www.w3.org/Graphics/SVG/1.1/DTD/svg11.dtd">
<!-- Generated by graphviz version 2.43.0 (0)
 -->
<!-- Title: software/nixie_clock_esp32_project/components/ntp/ntp.c Pages: 1 -->
<svg width="798pt" height="225pt"
 viewBox="0.00 0.00 798.00 225.00" xmlns="http://www.w3.org/2000/svg" xmlns:xlink="http://www.w3.org/1999/xlink">
<g id="graph0" class="graph" transform="scale(1 1) rotate(0) translate(4 221)">
<title>software/nixie_clock_esp32_project/components/ntp/ntp.c</title>
<!-- Node1 -->
<g id="Node000001" class="node">
<title>Node1</title>
<g id="a_Node000001"><a xlink:title=" ">
<polygon fill="#999999" stroke="#666666" points="543,-217 390,-217 390,-176 543,-176 543,-217"/>
<text text-anchor="start" x="398" y="-205" font-family="Helvetica,sans-Serif" font-size="10.00">software/nixie_clock</text>
<text text-anchor="start" x="398" y="-194" font-family="Helvetica,sans-Serif" font-size="10.00">_esp32_project/components</text>
<text text-anchor="middle" x="466.5" y="-183" font-family="Helvetica,sans-Serif" font-size="10.00">/ntp/ntp.c</text>
</a>
</g>
</g>
<!-- Node2 -->
<g id="Node000002" class="node">
<title>Node2</title>
<g id="a_Node000002"><a xlink:title=" ">
<polygon fill="#e0e0e0" stroke="#999999" points="69,-134.5 0,-134.5 0,-115.5 69,-115.5 69,-134.5"/>
<text text-anchor="middle" x="34.5" y="-122.5" font-family="Helvetica,sans-Serif" font-size="10.00">esp_sntp.h</text>
</a>
</g>
</g>
<!-- Node1&#45;&gt;Node2 -->
<g id="edge1_Node000001_Node000002" class="edge">
<title>Node1&#45;&gt;Node2</title>
<g id="a_edge1_Node000001_Node000002"><a xlink:title=" ">
<path fill="none" stroke="#63b8ff" d="M389.98,-188.34C311.22,-180.1 185.29,-164.45 78.5,-140 75.3,-139.27 71.99,-138.41 68.7,-137.49"/>
<polygon fill="#63b8ff" stroke="#63b8ff" points="69.55,-134.09 58.97,-134.58 67.55,-140.8 69.55,-134.09"/>
</a>
</g>
</g>
<!-- Node3 -->
<g id="Node000003" class="node">
<title>Node3</title>
<g id="a_Node000003"><a xlink:title=" ">
<polygon fill="#e0e0e0" stroke="#999999" points="157.5,-134.5 87.5,-134.5 87.5,-115.5 157.5,-115.5 157.5,-134.5"/>
<text text-anchor="middle" x="122.5" y="-122.5" font-family="Helvetica,sans-Serif" font-size="10.00">esp_netif.h</text>
</a>
</g>
</g>
<!-- Node1&#45;&gt;Node3 -->
<g id="edge2_Node000001_Node000003" class="edge">
<title>Node1&#45;&gt;Node3</title>
<g id="a_edge2_Node000001_Node000003"><a xlink:title=" ">
<path fill="none" stroke="#63b8ff" d="M389.79,-184.03C328.84,-174.26 241.64,-158.83 166.5,-140 163.49,-139.25 160.38,-138.4 157.27,-137.5"/>
<polygon fill="#63b8ff" stroke="#63b8ff" points="158.06,-134.09 147.47,-134.54 156.03,-140.79 158.06,-134.09"/>
</a>
</g>
</g>
<!-- Node4 -->
<g id="Node000004" class="node">
<title>Node4</title>
<g id="a_Node000004"><a xlink:title=" ">
<polygon fill="#e0e0e0" stroke="#999999" points="273,-134.5 176,-134.5 176,-115.5 273,-115.5 273,-134.5"/>
<text text-anchor="middle" x="224.5" y="-122.5" font-family="Helvetica,sans-Serif" font-size="10.00">esp_netif_sntp.h</text>
</a>
</g>
</g>
<!-- Node1&#45;&gt;Node4 -->
<g id="edge3_Node000001_Node000004" class="edge">
<title>Node1&#45;&gt;Node4</title>
<g id="a_edge3_Node000001_Node000004"><a xlink:title=" ">
<path fill="none" stroke="#63b8ff" d="M398.45,-175.96C355,-163.48 300.21,-147.74 263.85,-137.3"/>
<polygon fill="#63b8ff" stroke="#63b8ff" points="264.69,-133.9 254.11,-134.5 262.75,-140.63 264.69,-133.9"/>
</a>
</g>
</g>
<!-- Node5 -->
<g id="Node000005" class="node">
<title>Node5</title>
<g id="a_Node000005"><a xlink:title=" ">
<polygon fill="#e0e0e0" stroke="#999999" points="354,-134.5 291,-134.5 291,-115.5 354,-115.5 354,-134.5"/>
<text text-anchor="middle" x="322.5" y="-122.5" font-family="Helvetica,sans-Serif" font-size="10.00">esp_log.h</text>
</a>
</g>
</g>
<!-- Node1&#45;&gt;Node5 -->
<g id="edge4_Node000001_Node000005" class="edge">
<title>Node1&#45;&gt;Node5</title>
<g id="a_edge4_Node000001_Node000005"><a xlink:title=" ">
<path fill="none" stroke="#63b8ff" d="M426,-175.96C401.48,-164.12 370.87,-149.35 349.33,-138.95"/>
<polygon fill="#63b8ff" stroke="#63b8ff" points="350.65,-135.7 340.12,-134.5 347.6,-142 350.65,-135.7"/>
</a>
</g>
</g>
<!-- Node6 -->
<g id="Node000006" class="node">
<title>Node6</title>
<g id="a_Node000006"><a xlink:href="clock_8h.html" target="_top" xlink:title=" ">
<polygon fill="white" stroke="#666666" points="590,-74 501,-74 501,-55 590,-55 590,-74"/>
<text text-anchor="middle" x="545.5" y="-62" font-family="Helvetica,sans-Serif" font-size="10.00">../clock/clock.h</text>
</a>
</g>
</g>
<!-- Node1&#45;&gt;Node6 -->
<g id="edge5_Node000001_Node000006" class="edge">
<title>Node1&#45;&gt;Node6</title>
<g id="a_edge5_Node000001_Node000006"><a xlink:title=" ">
<path fill="none" stroke="#63b8ff" d="M480.7,-175.77C488.05,-165.31 497.03,-152.13 504.5,-140 516.18,-121.02 528.34,-98.53 536.35,-83.26"/>
<polygon fill="#63b8ff" stroke="#63b8ff" points="539.46,-84.86 540.97,-74.37 533.25,-81.63 539.46,-84.86"/>
</a>
</g>
</g>
<!-- Node8 -->
<g id="Node000008" class="node">
<title>Node8</title>
<g id="a_Node000008"><a xlink:href="ntp_8h.html" target="_top" xlink:title=" ">
<polygon fill="white" stroke="#666666" points="767,-134.5 726,-134.5 726,-115.5 767,-115.5 767,-134.5"/>
<text text-anchor="middle" x="746.5" y="-122.5" font-family="Helvetica,sans-Serif" font-size="10.00">ntp.h</text>
</a>
</g>
</g>
<!-- Node1&#45;&gt;Node8 -->
<g id="edge7_Node000001_Node000008" class="edge">
<title>Node1&#45;&gt;Node8</title>
<g id="a_edge7_Node000001_Node000008"><a xlink:title=" ">
<path fill="none" stroke="#63b8ff" d="M543.19,-181.36C591.91,-171.59 656.01,-157.26 711.5,-140 713.37,-139.42 715.29,-138.78 717.21,-138.1"/>
<polygon fill="#63b8ff" stroke="#63b8ff" points="718.57,-141.33 726.71,-134.55 716.11,-134.78 718.57,-141.33"/>
</a>
</g>
</g>
<!-- Node9 -->
<g id="Node000009" class="node">
<title>Node9</title>
<g id="a_Node000009"><a xlink:title=" ">
<polygon fill="#e0e0e0" stroke="#999999" points="483,-74 370,-74 370,-55 483,-55 483,-74"/>
<text text-anchor="middle" x="426.5" y="-62" font-family="Helvetica,sans-Serif" font-size="10.00">freertos/FreeRTOS.h</text>
</a>
</g>
</g>
<!-- Node1&#45;&gt;Node9 -->
<g id="edge8_Node000001_Node000009" class="edge">
<title>Node1&#45;&gt;Node9</title>
<g id="a_edge8_Node000001_Node000009"><a xlink:title=" ">
<path fill="none" stroke="#63b8ff" d="M479.14,-175.95C488.99,-158.02 499.35,-131.14 488.5,-110 481.54,-96.44 468.31,-86.07 455.85,-78.78"/>
<polygon fill="#63b8ff" stroke="#63b8ff" points="457.48,-75.68 447.02,-74 454.15,-81.84 457.48,-75.68"/>
</a>
</g>
</g>
<!-- Node10 -->
<g id="Node000010" class="node">
<title>Node10</title>
<g id="a_Node000010"><a xlink:title=" ">
<polygon fill="#e0e0e0" stroke="#999999" points="790,-74 687,-74 687,-55 790,-55 790,-74"/>
<text text-anchor="middle" x="738.5" y="-62" font-family="Helvetica,sans-Serif" font-size="10.00">freertos/semphr.h</text>
</a>
</g>
</g>
<!-- Node1&#45;&gt;Node10 -->
<g id="edge9_Node000001_Node000010" class="edge">
<title>Node1&#45;&gt;Node10</title>
<g id="a_edge9_Node000001_Node000010"><a xlink:title=" ">
<path fill="none" stroke="#63b8ff" d="M543.09,-187.38C585.65,-180.06 638.02,-166.2 678.5,-140 700.76,-125.59 718.59,-100.18 728.86,-83.09"/>
<polygon fill="#63b8ff" stroke="#63b8ff" points="732.06,-84.55 734.01,-74.14 725.99,-81.06 732.06,-84.55"/>
</a>
</g>
</g>
<!-- Node11 -->
<g id="Node000011" class="node">
<title>Node11</title>
<g id="a_Node000011"><a xlink:href="config_8h.html" target="_top" xlink:title=" ">
<polygon fill="white" stroke="#666666" points="669.5,-134.5 573.5,-134.5 573.5,-115.5 669.5,-115.5 669.5,-134.5"/>
<text text-anchor="middle" x="621.5" y="-122.5" font-family="Helvetica,sans-Serif" font-size="10.00">../config/config.h</text>
</a>
</g>
</g>
<!-- Node1&#45;&gt;Node11 -->
<g id="edge10_Node000001_Node000011" class="edge">
<title>Node1&#45;&gt;Node11</title>
<g id="a_edge10_Node000001_Node000011"><a xlink:title=" ">
<path fill="none" stroke="#63b8ff" d="M510.09,-175.96C536.73,-164.01 570.02,-149.08 593.25,-138.67"/>
<polygon fill="#63b8ff" stroke="#63b8ff" points="594.84,-141.79 602.54,-134.5 591.98,-135.4 594.84,-141.79"/>
</a>
</g>
</g>
<!-- Node13 -->
<g id="Node000013" class="node">
<title>Node13</title>
<g id="a_Node000013"><a xlink:href="event__bus_8h.html" target="_top" xlink:title=" ">
<polygon fill="white" stroke="#666666" points="479,-140 372,-140 372,-110 479,-110 479,-140"/>
<text text-anchor="start" x="380" y="-128" font-family="Helvetica,sans-Serif" font-size="10.00">../event_bus/event</text>
<text text-anchor="middle" x="425.5" y="-117" font-family="Helvetica,sans-Serif" font-size="10.00">_bus.h</text>
</a>
</g>
</g>
<!-- Node1&#45;&gt;Node13 -->
<g id="edge15_Node000001_Node000013" class="edge">
<title>Node1&#45;&gt;Node13</title>
<g id="a_edge15_Node000001_Node000013"><a xlink:title=" ">
<path fill="none" stroke="#63b8ff" d="M454.86,-175.77C449.92,-167.4 444.14,-157.59 439.01,-148.9"/>
<polygon fill="#63b8ff" stroke="#63b8ff" points="441.88,-146.87 433.78,-140.04 435.85,-150.43 441.88,-146.87"/>
</a>
</g>
</g>
<!-- Node7 -->
<g id="Node000007" class="node">
<title>Node7</title>
<g id="a_Node000007"><a xlink:title=" ">
<polygon fill="#e0e0e0" stroke="#999999" points="572,-19 519,-19 519,0 572,0 572,-19"/>
<text text-anchor="middle" x="545.5" y="-7" font-family="Helvetica,sans-Serif" font-size="10.00">stdint.h</text>
</a>
</g>
</g>
<!-- Node6&#45;&gt;Node7 -->
<g id="edge6_Node000006_Node000007" class="edge">
<title>Node6&#45;&gt;Node7</title>
<g id="a_edge6_Node000006_Node000007"><a xlink:title=" ">
<path fill="none" stroke="#63b8ff" d="M545.5,-54.75C545.5,-47.8 545.5,-37.85 545.5,-29.13"/>
<polygon fill="#63b8ff" stroke="#63b8ff" points="549,-29.09 545.5,-19.09 542,-29.09 549,-29.09"/>
</a>
</g>
</g>
<!-- Node11&#45;&gt;Node6 -->
<g id="edge12_Node000011_Node000006" class="edge">
<title>Node11&#45;&gt;Node6</title>
<g id="a_edge12_Node000011_Node000006"><a xlink:title=" ">
<path fill="none" stroke="#63b8ff" d="M610.29,-115.37C598.39,-106.21 579.36,-91.56 564.99,-80.51"/>
<polygon fill="#63b8ff" stroke="#63b8ff" points="566.82,-77.49 556.76,-74.17 562.55,-83.04 566.82,-77.49"/>
</a>
</g>
</g>
<!-- Node11&#45;&gt;Node9 -->
<g id="edge13_Node000011_Node000009" class="edge">
<title>Node11&#45;&gt;Node9</title>
<g id="a_edge13_Node000011_Node000009"><a xlink:title=" ">
<path fill="none" stroke="#63b8ff" d="M593.15,-115.49C559.21,-105.31 502.24,-88.22 464.51,-76.9"/>
<polygon fill="#63b8ff" stroke="#63b8ff" points="465.47,-73.54 454.89,-74.02 463.46,-80.24 465.47,-73.54"/>
</a>
</g>
</g>
<!-- Node11&#45;&gt;Node10 -->
<g id="edge14_Node000011_Node000010" class="edge">
<title>Node11&#45;&gt;Node10</title>
<g id="a_edge14_Node000011_Node000010"><a xlink:title=" ">
<path fill="none" stroke="#63b8ff" d="M638.51,-115.49C657.92,-105.79 689.89,-89.81 712.44,-78.53"/>
<polygon fill="#63b8ff" stroke="#63b8ff" points="714.09,-81.62 721.47,-74.02 710.96,-75.36 714.09,-81.62"/>
</a>
</g>
</g>
<!-- Node12 -->
<g id="Node000012" class="node">
<title>Node12</title>
<g id="a_Node000012"><a xlink:title=" ">
<polygon fill="#e0e0e0" stroke="#999999" points="669,-74 608,-74 608,-55 669,-55 669,-74"/>
<text text-anchor="middle" x="638.5" y="-62" font-family="Helvetica,sans-Serif" font-size="10.00">esp_err.h</text>
</a>
</g>
</g>
<!-- Node11&#45;&gt;Node12 -->
<g id="edge11_Node000011_Node000012" class="edge">
<title>Node11&#45;&gt;Node12</title>
<g id="a_edge11_Node000011_Node000012"><a xlink:title=" ">
<path fill="none" stroke="#63b8ff" d="M624.01,-115.37C626.39,-107.16 630.06,-94.54 633.11,-84.05"/>
<polygon fill="#63b8ff" stroke="#63b8ff" points="636.55,-84.75 635.98,-74.17 629.83,-82.79 636.55,-84.75"/>
</a>
</g>
</g>
<!-- Node13&#45;&gt;Node9 -->
<g id="edge16_Node000013_Node000009" class="edge">
<title>Node13&#45;&gt;Node9</title>
<g id="a_edge16_Node000013_Node000009"><a xlink:title=" ">
<path fill="none" stroke="#63b8ff" d="M425.74,-109.84C425.87,-102.21 426.03,-92.7 426.18,-84.45"/>
<polygon fill="#63b8ff" stroke="#63b8ff" points="429.68,-84.32 426.35,-74.27 422.68,-84.2 429.68,-84.32"/>
</a>
</g>
</g>
<!-- Node14 -->
<g id="Node000014" class="node">
<title>Node14</title>
<g id="a_Node000014"><a xlink:title=" ">
<polygon fill="#e0e0e0" stroke="#999999" points="352,-74 255,-74 255,-55 352,-55 352,-74"/>
<text text-anchor="middle" x="303.5" y="-62" font-family="Helvetica,sans-Serif" font-size="10.00">freertos/queue.h</text>
</a>
</g>
</g>
<!-- Node13&#45;&gt;Node14 -->
<g id="edge17_Node000013_Node000014" class="edge">
<title>Node13&#45;&gt;Node14</title>
<g id="a_edge17_Node000013_Node000014"><a xlink:title=" ">
<path fill="none" stroke="#63b8ff" d="M396.28,-109.99C376.38,-100.45 350.22,-87.9 330.75,-78.57"/>
<polygon fill="#63b8ff" stroke="#63b8ff" points="332.05,-75.31 321.52,-74.14 329.02,-81.62 332.05,-75.31"/>
</a>
</g>
</g>
</g>
</svg>
