<?xml version="1.0" encoding="UTF-8" standalone="no"?>
<!DOCTYPE svg PUBLIC "-//W3C//DTD SVG 1.1//EN"
 "http://www.w3.org/Graphics/SVG/1.1/DTD/svg11.dtd">
<!-- Generated by graphviz version 2.43.0 (0)
 -->
<!-- Title: software/nixie_clock_esp32_project/components/ntp/ntp.c Pages: 1 -->
<svg width="952pt" height="225pt"
 viewBox="0.00 0.00 952.00 225.00" xmlns="http://www.w3.org/2000/svg" xmlns:xlink="http://www.w3.org/1999/xlink">
<g id="graph0" class="graph" transform="scale(1 1) rotate(0) translate(4 221)">
<title>software/nixie_clock_esp32_project/components/ntp/ntp.c</title>
<!-- Node1 -->
<g id="Node000001" class="node">
<title>Node1</title>
<g id="a_Node000001"><a xlink:title=" ">
<polygon fill="#999999" stroke="#666666" points="583,-217 430,-217 430,-176 583,-176 583,-217"/>
<text text-anchor="start" x="438" y="-205" font-family="Helvetica,sans-Serif" font-size="10.00">software/nixie_clock</text>
<text text-anchor="start" x="438" y="-194" font-family="Helvetica,sans-Serif" font-size="10.00">_esp32_project/components</text>
<text text-anchor="middle" x="506.5" y="-183" font-family="Helvetica,sans-Serif" font-size="10.00">/ntp/ntp.c</text>
</a>
</g>
</g>
<!-- Node2 -->
<g id="Node000002" class="node">
<title>Node2</title>
<g id="a_Node000002"><a xlink:title=" ">
<polygon fill="#e0e0e0" stroke="#999999" points="69,-134.5 0,-134.5 0,-115.5 69,-115.5 69,-134.5"/>
<text text-anchor="middle" x="34.5" y="-122.5" font-family="Helvetica,sans-Serif" font-size="10.00">esp_sntp.h</text>
</a>
</g>
</g>
<!-- Node1&#45;&gt;Node2 -->
<g id="edge1_Node000001_Node000002" class="edge">
<title>Node1&#45;&gt;Node2</title>
<g id="a_edge1_Node000001_Node000002"><a xlink:title=" ">
<path fill="none" stroke="#63b8ff" d="M429.63,-189.71C343.4,-182.25 199.74,-166.92 78.5,-140 75.29,-139.29 71.98,-138.44 68.69,-137.53"/>
<polygon fill="#63b8ff" stroke="#63b8ff" points="69.54,-134.13 58.96,-134.64 67.54,-140.84 69.54,-134.13"/>
</a>
</g>
</g>
<!-- Node3 -->
<g id="Node000003" class="node">
<title>Node3</title>
<g id="a_Node000003"><a xlink:title=" ">
<polygon fill="#e0e0e0" stroke="#999999" points="157.5,-134.5 87.5,-134.5 87.5,-115.5 157.5,-115.5 157.5,-134.5"/>
<text text-anchor="middle" x="122.5" y="-122.5" font-family="Helvetica,sans-Serif" font-size="10.00">esp_netif.h</text>
</a>
</g>
</g>
<!-- Node1&#45;&gt;Node3 -->
<g id="edge2_Node000001_Node000003" class="edge">
<title>Node1&#45;&gt;Node3</title>
<g id="a_edge2_Node000001_Node000003"><a xlink:title=" ">
<path fill="none" stroke="#63b8ff" d="M429.91,-186.26C360.58,-177.12 255.93,-161.41 166.5,-140 163.48,-139.28 160.36,-138.45 157.25,-137.57"/>
<polygon fill="#63b8ff" stroke="#63b8ff" points="158.04,-134.15 147.45,-134.64 156.03,-140.86 158.04,-134.15"/>
</a>
</g>
</g>
<!-- Node4 -->
<g id="Node000004" class="node">
<title>Node4</title>
<g id="a_Node000004"><a xlink:title=" ">
<polygon fill="#e0e0e0" stroke="#999999" points="273,-134.5 176,-134.5 176,-115.5 273,-115.5 273,-134.5"/>
<text text-anchor="middle" x="224.5" y="-122.5" font-family="Helvetica,sans-Serif" font-size="10.00">esp_netif_sntp.h</text>
</a>
</g>
</g>
<!-- Node1&#45;&gt;Node4 -->
<g id="edge3_Node000001_Node000004" class="edge">
<title>Node1&#45;&gt;Node4</title>
<g id="a_edge3_Node000001_Node000004"><a xlink:title=" ">
<path fill="none" stroke="#63b8ff" d="M429.81,-176.6C378.33,-163.91 312.28,-147.63 269.2,-137.02"/>
<polygon fill="#63b8ff" stroke="#63b8ff" points="269.84,-133.57 259.3,-134.58 268.17,-140.37 269.84,-133.57"/>
</a>
</g>
</g>
<!-- Node5 -->
<g id="Node000005" class="node">
<title>Node5</title>
<g id="a_Node000005"><a xlink:title=" ">
<polygon fill="#e0e0e0" stroke="#999999" points="354,-134.5 291,-134.5 291,-115.5 354,-115.5 354,-134.5"/>
<text text-anchor="middle" x="322.5" y="-122.5" font-family="Helvetica,sans-Serif" font-size="10.00">esp_log.h</text>
</a>
</g>
</g>
<!-- Node1&#45;&gt;Node5 -->
<g id="edge4_Node000001_Node000005" class="edge">
<title>Node1&#45;&gt;Node5</title>
<g id="a_edge4_Node000001_Node000005"><a xlink:title=" ">
<path fill="none" stroke="#63b8ff" d="M454.76,-175.96C422.57,-163.8 382.19,-148.55 354.57,-138.11"/>
<polygon fill="#63b8ff" stroke="#63b8ff" points="355.6,-134.76 345.01,-134.5 353.13,-141.31 355.6,-134.76"/>
</a>
</g>
</g>
<!-- Node6 -->
<g id="Node000006" class="node">
<title>Node6</title>
<g id="a_Node000006"><a xlink:href="clock_8h.html" target="_top" xlink:title=" ">
<polygon fill="white" stroke="#666666" points="744,-74 655,-74 655,-55 744,-55 744,-74"/>
<text text-anchor="middle" x="699.5" y="-62" font-family="Helvetica,sans-Serif" font-size="10.00">../clock/clock.h</text>
</a>
</g>
</g>
<!-- Node1&#45;&gt;Node6 -->
<g id="edge5_Node000001_Node000006" class="edge">
<title>Node1&#45;&gt;Node6</title>
<g id="a_edge5_Node000001_Node000006"><a xlink:title=" ">
<path fill="none" stroke="#63b8ff" d="M583.2,-176.28C606.79,-167.82 631.73,-156.06 651.5,-140 670.29,-124.74 684.12,-100.09 691.98,-83.37"/>
<polygon fill="#63b8ff" stroke="#63b8ff" points="695.23,-84.69 696.1,-74.13 688.83,-81.84 695.23,-84.69"/>
</a>
</g>
</g>
<!-- Node8 -->
<g id="Node000008" class="node">
<title>Node8</title>
<g id="a_Node000008"><a xlink:href="clock__task_8h.html" target="_top" xlink:title=" ">
<polygon fill="white" stroke="#666666" points="478.5,-140 372.5,-140 372.5,-110 478.5,-110 478.5,-140"/>
<text text-anchor="start" x="380.5" y="-128" font-family="Helvetica,sans-Serif" font-size="10.00">../clock_task/clock</text>
<text text-anchor="middle" x="425.5" y="-117" font-family="Helvetica,sans-Serif" font-size="10.00">_task.h</text>
</a>
</g>
</g>
<!-- Node1&#45;&gt;Node8 -->
<g id="edge7_Node000001_Node000008" class="edge">
<title>Node1&#45;&gt;Node8</title>
<g id="a_edge7_Node000001_Node000008"><a xlink:title=" ">
<path fill="none" stroke="#63b8ff" d="M483.51,-175.77C472.92,-166.69 460.36,-155.91 449.64,-146.71"/>
<polygon fill="#63b8ff" stroke="#63b8ff" points="451.73,-143.89 441.86,-140.04 447.17,-149.21 451.73,-143.89"/>
</a>
</g>
</g>
<!-- Node9 -->
<g id="Node000009" class="node">
<title>Node9</title>
<g id="a_Node000009"><a xlink:title=" ">
<polygon fill="#e0e0e0" stroke="#999999" points="522,-74 409,-74 409,-55 522,-55 522,-74"/>
<text text-anchor="middle" x="465.5" y="-62" font-family="Helvetica,sans-Serif" font-size="10.00">freertos/FreeRTOS.h</text>
</a>
</g>
</g>
<!-- Node1&#45;&gt;Node9 -->
<g id="edge11_Node000001_Node000009" class="edge">
<title>Node1&#45;&gt;Node9</title>
<g id="a_edge11_Node000001_Node000009"><a xlink:title=" ">
<path fill="none" stroke="#63b8ff" d="M503.5,-175.77C500.51,-158.2 495.23,-131.94 487.5,-110 484.24,-100.75 479.53,-90.94 475.31,-82.89"/>
<polygon fill="#63b8ff" stroke="#63b8ff" points="478.38,-81.21 470.53,-74.09 472.23,-84.55 478.38,-81.21"/>
</a>
</g>
</g>
<!-- Node11 -->
<g id="Node000011" class="node">
<title>Node11</title>
<g id="a_Node000011"><a xlink:href="ntp_8h.html" target="_top" xlink:title=" ">
<polygon fill="white" stroke="#666666" points="892,-134.5 851,-134.5 851,-115.5 892,-115.5 892,-134.5"/>
<text text-anchor="middle" x="871.5" y="-122.5" font-family="Helvetica,sans-Serif" font-size="10.00">ntp.h</text>
</a>
</g>
</g>
<!-- Node1&#45;&gt;Node11 -->
<g id="edge10_Node000001_Node000011" class="edge">
<title>Node1&#45;&gt;Node11</title>
<g id="a_edge10_Node000001_Node000011"><a xlink:title=" ">
<path fill="none" stroke="#63b8ff" d="M583.21,-187.32C650.75,-179 751.34,-163.9 836.5,-140 838.44,-139.46 840.41,-138.84 842.39,-138.18"/>
<polygon fill="#63b8ff" stroke="#63b8ff" points="843.95,-141.34 852.13,-134.6 841.54,-134.76 843.95,-141.34"/>
</a>
</g>
</g>
<!-- Node12 -->
<g id="Node000012" class="node">
<title>Node12</title>
<g id="a_Node000012"><a xlink:title=" ">
<polygon fill="#e0e0e0" stroke="#999999" points="944,-74 841,-74 841,-55 944,-55 944,-74"/>
<text text-anchor="middle" x="892.5" y="-62" font-family="Helvetica,sans-Serif" font-size="10.00">freertos/semphr.h</text>
</a>
</g>
</g>
<!-- Node1&#45;&gt;Node12 -->
<g id="edge12_Node000001_Node000012" class="edge">
<title>Node1&#45;&gt;Node12</title>
<g id="a_edge12_Node000001_Node000012"><a xlink:title=" ">
<path fill="none" stroke="#63b8ff" d="M583.3,-191.86C645.29,-186.45 733.41,-173.07 803.5,-140 811.65,-136.15 851.88,-101.3 875.36,-80.65"/>
<polygon fill="#63b8ff" stroke="#63b8ff" points="877.71,-83.26 882.89,-74.02 873.08,-78 877.71,-83.26"/>
</a>
</g>
</g>
<!-- Node13 -->
<g id="Node000013" class="node">
<title>Node13</title>
<g id="a_Node000013"><a xlink:href="config_8h.html" target="_top" xlink:title=" ">
<polygon fill="white" stroke="#666666" points="794.5,-134.5 698.5,-134.5 698.5,-115.5 794.5,-115.5 794.5,-134.5"/>
<text text-anchor="middle" x="746.5" y="-122.5" font-family="Helvetica,sans-Serif" font-size="10.00">../config/config.h</text>
</a>
</g>
</g>
<!-- Node1&#45;&gt;Node13 -->
<g id="edge13_Node000001_Node000013" class="edge">
<title>Node1&#45;&gt;Node13</title>
<g id="a_edge13_Node000001_Node000013"><a xlink:title=" ">
<path fill="none" stroke="#63b8ff" d="M573.99,-175.96C617.08,-163.48 671.42,-147.74 707.47,-137.3"/>
<polygon fill="#63b8ff" stroke="#63b8ff" points="708.5,-140.65 717.14,-134.5 706.56,-133.92 708.5,-140.65"/>
</a>
</g>
</g>
<!-- Node15 -->
<g id="Node000015" class="node">
<title>Node15</title>
<g id="a_Node000015"><a xlink:href="event__bus_8h.html" target="_top" xlink:title=" ">
<polygon fill="white" stroke="#666666" points="642,-140 535,-140 535,-110 642,-110 642,-140"/>
<text text-anchor="start" x="543" y="-128" font-family="Helvetica,sans-Serif" font-size="10.00">../event_bus/event</text>
<text text-anchor="middle" x="588.5" y="-117" font-family="Helvetica,sans-Serif" font-size="10.00">_bus.h</text>
</a>
</g>
</g>
<!-- Node1&#45;&gt;Node15 -->
<g id="edge18_Node000001_Node000015" class="edge">
<title>Node1&#45;&gt;Node15</title>
<g id="a_edge18_Node000001_Node000015"><a xlink:title=" ">
<path fill="none" stroke="#63b8ff" d="M529.78,-175.77C540.49,-166.69 553.21,-155.91 564.06,-146.71"/>
<polygon fill="#63b8ff" stroke="#63b8ff" points="566.57,-149.17 571.94,-140.04 562.05,-143.83 566.57,-149.17"/>
</a>
</g>
</g>
<!-- Node7 -->
<g id="Node000007" class="node">
<title>Node7</title>
<g id="a_Node000007"><a xlink:title=" ">
<polygon fill="#e0e0e0" stroke="#999999" points="726,-19 673,-19 673,0 726,0 726,-19"/>
<text text-anchor="middle" x="699.5" y="-7" font-family="Helvetica,sans-Serif" font-size="10.00">stdint.h</text>
</a>
</g>
</g>
<!-- Node6&#45;&gt;Node7 -->
<g id="edge6_Node000006_Node000007" class="edge">
<title>Node6&#45;&gt;Node7</title>
<g id="a_edge6_Node000006_Node000007"><a xlink:title=" ">
<path fill="none" stroke="#63b8ff" d="M699.5,-54.75C699.5,-47.8 699.5,-37.85 699.5,-29.13"/>
<polygon fill="#63b8ff" stroke="#63b8ff" points="703,-29.09 699.5,-19.09 696,-29.09 703,-29.09"/>
</a>
</g>
</g>
<!-- Node8&#45;&gt;Node9 -->
<g id="edge8_Node000008_Node000009" class="edge">
<title>Node8&#45;&gt;Node9</title>
<g id="a_edge8_Node000008_Node000009"><a xlink:title=" ">
<path fill="none" stroke="#63b8ff" d="M435.18,-109.84C440.75,-101.69 447.79,-91.4 453.68,-82.78"/>
<polygon fill="#63b8ff" stroke="#63b8ff" points="456.75,-84.5 459.51,-74.27 450.97,-80.55 456.75,-84.5"/>
</a>
</g>
</g>
<!-- Node10 -->
<g id="Node000010" class="node">
<title>Node10</title>
<g id="a_Node000010"><a xlink:title=" ">
<polygon fill="#e0e0e0" stroke="#999999" points="390.5,-74 302.5,-74 302.5,-55 390.5,-55 390.5,-74"/>
<text text-anchor="middle" x="346.5" y="-62" font-family="Helvetica,sans-Serif" font-size="10.00">freertos/task.h</text>
</a>
</g>
</g>
<!-- Node8&#45;&gt;Node10 -->
<g id="edge9_Node000008_Node000010" class="edge">
<title>Node8&#45;&gt;Node10</title>
<g id="a_edge9_Node000008_Node000010"><a xlink:title=" ">
<path fill="none" stroke="#63b8ff" d="M406.38,-109.84C394.32,-100.91 378.79,-89.41 366.56,-80.35"/>
<polygon fill="#63b8ff" stroke="#63b8ff" points="368.46,-77.4 358.34,-74.27 364.29,-83.03 368.46,-77.4"/>
</a>
</g>
</g>
<!-- Node13&#45;&gt;Node6 -->
<g id="edge15_Node000013_Node000006" class="edge">
<title>Node13&#45;&gt;Node6</title>
<g id="a_edge15_Node000013_Node000006"><a xlink:title=" ">
<path fill="none" stroke="#63b8ff" d="M739.56,-115.37C732.55,-106.64 721.54,-92.93 712.83,-82.09"/>
<polygon fill="#63b8ff" stroke="#63b8ff" points="715.46,-79.77 706.46,-74.17 710,-84.16 715.46,-79.77"/>
</a>
</g>
</g>
<!-- Node13&#45;&gt;Node9 -->
<g id="edge16_Node000013_Node000009" class="edge">
<title>Node13&#45;&gt;Node9</title>
<g id="a_edge16_Node000013_Node000009"><a xlink:title=" ">
<path fill="none" stroke="#63b8ff" d="M705.64,-115.49C655.59,-105.07 570.78,-87.42 516.51,-76.12"/>
<polygon fill="#63b8ff" stroke="#63b8ff" points="516.91,-72.63 506.41,-74.02 515.49,-79.48 516.91,-72.63"/>
</a>
</g>
</g>
<!-- Node13&#45;&gt;Node12 -->
<g id="edge17_Node000013_Node000012" class="edge">
<title>Node13&#45;&gt;Node12</title>
<g id="a_edge17_Node000013_Node000012"><a xlink:title=" ">
<path fill="none" stroke="#63b8ff" d="M767.73,-115.49C792.49,-105.57 833.62,-89.09 861.85,-77.78"/>
<polygon fill="#63b8ff" stroke="#63b8ff" points="863.26,-80.99 871.24,-74.02 860.66,-74.49 863.26,-80.99"/>
</a>
</g>
</g>
<!-- Node14 -->
<g id="Node000014" class="node">
<title>Node14</title>
<g id="a_Node000014"><a xlink:title=" ">
<polygon fill="#e0e0e0" stroke="#999999" points="823,-74 762,-74 762,-55 823,-55 823,-74"/>
<text text-anchor="middle" x="792.5" y="-62" font-family="Helvetica,sans-Serif" font-size="10.00">esp_err.h</text>
</a>
</g>
</g>
<!-- Node13&#45;&gt;Node14 -->
<g id="edge14_Node000013_Node000014" class="edge">
<title>Node13&#45;&gt;Node14</title>
<g id="a_edge14_Node000013_Node000014"><a xlink:title=" ">
<path fill="none" stroke="#63b8ff" d="M753.29,-115.37C760.15,-106.64 770.93,-92.93 779.45,-82.09"/>
<polygon fill="#63b8ff" stroke="#63b8ff" points="782.25,-84.19 785.68,-74.17 776.75,-79.86 782.25,-84.19"/>
</a>
</g>
</g>
<!-- Node15&#45;&gt;Node9 -->
<g id="edge19_Node000015_Node000009" class="edge">
<title>Node15&#45;&gt;Node9</title>
<g id="a_edge19_Node000015_Node000009"><a xlink:title=" ">
<path fill="none" stroke="#63b8ff" d="M559.04,-109.99C538.88,-100.4 512.36,-87.79 492.7,-78.44"/>
<polygon fill="#63b8ff" stroke="#63b8ff" points="494.2,-75.27 483.66,-74.14 491.19,-81.6 494.2,-75.27"/>
</a>
</g>
</g>
<!-- Node16 -->
<g id="Node000016" class="node">
<title>Node16</title>
<g id="a_Node000016"><a xlink:title=" ">
<polygon fill="#e0e0e0" stroke="#999999" points="637,-74 540,-74 540,-55 637,-55 637,-74"/>
<text text-anchor="middle" x="588.5" y="-62" font-family="Helvetica,sans-Serif" font-size="10.00">freertos/queue.h</text>
</a>
</g>
</g>
<!-- Node15&#45;&gt;Node16 -->
<g id="edge20_Node000015_Node000016" class="edge">
<title>Node15&#45;&gt;Node16</title>
<g id="a_edge20_Node000015_Node000016"><a xlink:title=" ">
<path fill="none" stroke="#63b8ff" d="M588.5,-109.84C588.5,-102.21 588.5,-92.7 588.5,-84.45"/>
<polygon fill="#63b8ff" stroke="#63b8ff" points="592,-84.27 588.5,-74.27 585,-84.27 592,-84.27"/>
</a>
</g>
</g>
</g>
</svg>
