<?xml version="1.0" encoding="UTF-8" standalone="no"?>
<!DOCTYPE svg PUBLIC "-//W3C//DTD SVG 1.1//EN"
 "http://www.w3.org/Graphics/SVG/1.1/DTD/svg11.dtd">
<!-- Generated by graphviz version 2.43.0 (0)
 -->
<!-- Title: software/nixie_clock_esp32_project/components/ntp/ntp.c Pages: 1 -->
<svg width="909pt" height="225pt"
 viewBox="0.00 0.00 909.00 225.00" xmlns="http://www.w3.org/2000/svg" xmlns:xlink="http://www.w3.org/1999/xlink">
<g id="graph0" class="graph" transform="scale(1 1) rotate(0) translate(4 221)">
<title>software/nixie_clock_esp32_project/components/ntp/ntp.c</title>
<!-- Node1 -->
<g id="Node000001" class="node">
<title>Node1</title>
<g id="a_Node000001"><a xlink:title=" ">
<polygon fill="#999999" stroke="#666666" points="613,-217 460,-217 460,-176 613,-176 613,-217"/>
<text text-anchor="start" x="468" y="-205" font-family="Helvetica,sans-Serif" font-size="10.00">software/nixie_clock</text>
<text text-anchor="start" x="468" y="-194" font-family="Helvetica,sans-Serif" font-size="10.00">_esp32_project/components</text>
<text text-anchor="middle" x="536.5" y="-183" font-family="Helvetica,sans-Serif" font-size="10.00">/ntp/ntp.c</text>
</a>
</g>
</g>
<!-- Node2 -->
<g id="Node000002" class="node">
<title>Node2</title>
<g id="a_Node000002"><a xlink:title=" ">
<polygon fill="#e0e0e0" stroke="#999999" points="69,-134.5 0,-134.5 0,-115.5 69,-115.5 69,-134.5"/>
<text text-anchor="middle" x="34.5" y="-122.5" font-family="Helvetica,sans-Serif" font-size="10.00">esp_sntp.h</text>
</a>
</g>
</g>
<!-- Node1&#45;&gt;Node2 -->
<g id="edge1_Node000001_Node000002" class="edge">
<title>Node1&#45;&gt;Node2</title>
<g id="a_edge1_Node000001_Node000002"><a xlink:title=" ">
<path fill="none" stroke="#63b8ff" d="M460,-190.63C368.46,-183.8 210.96,-168.83 78.5,-140 75.11,-139.26 71.6,-138.37 68.12,-137.4"/>
<polygon fill="#63b8ff" stroke="#63b8ff" points="69.07,-134.03 58.49,-134.53 67.07,-140.74 69.07,-134.03"/>
</a>
</g>
</g>
<!-- Node3 -->
<g id="Node000003" class="node">
<title>Node3</title>
<g id="a_Node000003"><a xlink:title=" ">
<polygon fill="#e0e0e0" stroke="#999999" points="157.5,-134.5 87.5,-134.5 87.5,-115.5 157.5,-115.5 157.5,-134.5"/>
<text text-anchor="middle" x="122.5" y="-122.5" font-family="Helvetica,sans-Serif" font-size="10.00">esp_netif.h</text>
</a>
</g>
</g>
<!-- Node1&#45;&gt;Node3 -->
<g id="edge2_Node000001_Node000003" class="edge">
<title>Node1&#45;&gt;Node3</title>
<g id="a_edge2_Node000001_Node000003"><a xlink:title=" ">
<path fill="none" stroke="#63b8ff" d="M459.65,-187.59C384.35,-178.99 266.62,-163.28 166.5,-140 163.3,-139.26 159.99,-138.39 156.7,-137.46"/>
<polygon fill="#63b8ff" stroke="#63b8ff" points="157.56,-134.07 146.98,-134.55 155.55,-140.77 157.56,-134.07"/>
</a>
</g>
</g>
<!-- Node4 -->
<g id="Node000004" class="node">
<title>Node4</title>
<g id="a_Node000004"><a xlink:title=" ">
<polygon fill="#e0e0e0" stroke="#999999" points="273,-134.5 176,-134.5 176,-115.5 273,-115.5 273,-134.5"/>
<text text-anchor="middle" x="224.5" y="-122.5" font-family="Helvetica,sans-Serif" font-size="10.00">esp_netif_sntp.h</text>
</a>
</g>
</g>
<!-- Node1&#45;&gt;Node4 -->
<g id="edge3_Node000001_Node000004" class="edge">
<title>Node1&#45;&gt;Node4</title>
<g id="a_edge3_Node000001_Node000004"><a xlink:title=" ">
<path fill="none" stroke="#63b8ff" d="M459.99,-179.24C409.52,-168.4 342,-153.68 282.5,-140 278.18,-139.01 273.69,-137.95 269.19,-136.89"/>
<polygon fill="#63b8ff" stroke="#63b8ff" points="269.97,-133.48 259.44,-134.56 268.35,-140.29 269.97,-133.48"/>
</a>
</g>
</g>
<!-- Node5 -->
<g id="Node000005" class="node">
<title>Node5</title>
<g id="a_Node000005"><a xlink:title=" ">
<polygon fill="#e0e0e0" stroke="#999999" points="383.5,-134.5 291.5,-134.5 291.5,-115.5 383.5,-115.5 383.5,-134.5"/>
<text text-anchor="middle" x="337.5" y="-122.5" font-family="Helvetica,sans-Serif" font-size="10.00">esp_task_wdt.h</text>
</a>
</g>
</g>
<!-- Node1&#45;&gt;Node5 -->
<g id="edge4_Node000001_Node000005" class="edge">
<title>Node1&#45;&gt;Node5</title>
<g id="a_edge4_Node000001_Node000005"><a xlink:title=" ">
<path fill="none" stroke="#63b8ff" d="M480.54,-175.96C445.42,-163.69 401.29,-148.28 371.4,-137.84"/>
<polygon fill="#63b8ff" stroke="#63b8ff" points="372.44,-134.5 361.85,-134.5 370.14,-141.11 372.44,-134.5"/>
</a>
</g>
</g>
<!-- Node6 -->
<g id="Node000006" class="node">
<title>Node6</title>
<g id="a_Node000006"><a xlink:title=" ">
<polygon fill="#e0e0e0" stroke="#999999" points="465,-134.5 402,-134.5 402,-115.5 465,-115.5 465,-134.5"/>
<text text-anchor="middle" x="433.5" y="-122.5" font-family="Helvetica,sans-Serif" font-size="10.00">esp_log.h</text>
</a>
</g>
</g>
<!-- Node1&#45;&gt;Node6 -->
<g id="edge5_Node000001_Node000006" class="edge">
<title>Node1&#45;&gt;Node6</title>
<g id="a_edge5_Node000001_Node000006"><a xlink:title=" ">
<path fill="none" stroke="#63b8ff" d="M507.53,-175.96C490.78,-164.65 470.06,-150.67 454.81,-140.38"/>
<polygon fill="#63b8ff" stroke="#63b8ff" points="456.35,-137.2 446.1,-134.5 452.43,-143 456.35,-137.2"/>
</a>
</g>
</g>
<!-- Node7 -->
<g id="Node000007" class="node">
<title>Node7</title>
<g id="a_Node000007"><a xlink:href="clock_8h.html" target="_top" xlink:title=" ">
<polygon fill="white" stroke="#666666" points="701,-74 612,-74 612,-55 701,-55 701,-74"/>
<text text-anchor="middle" x="656.5" y="-62" font-family="Helvetica,sans-Serif" font-size="10.00">../clock/clock.h</text>
</a>
</g>
</g>
<!-- Node1&#45;&gt;Node7 -->
<g id="edge6_Node000001_Node000007" class="edge">
<title>Node1&#45;&gt;Node7</title>
<g id="a_edge6_Node000001_Node000007"><a xlink:title=" ">
<path fill="none" stroke="#63b8ff" d="M571.47,-175.84C586.28,-166.35 602.97,-153.98 615.5,-140 630.7,-123.05 642.46,-99.48 649.42,-83.42"/>
<polygon fill="#63b8ff" stroke="#63b8ff" points="652.68,-84.68 653.28,-74.1 646.22,-82 652.68,-84.68"/>
</a>
</g>
</g>
<!-- Node9 -->
<g id="Node000009" class="node">
<title>Node9</title>
<g id="a_Node000009"><a xlink:href="ntp_8h.html" target="_top" xlink:title=" ">
<polygon fill="white" stroke="#666666" points="878,-134.5 837,-134.5 837,-115.5 878,-115.5 878,-134.5"/>
<text text-anchor="middle" x="857.5" y="-122.5" font-family="Helvetica,sans-Serif" font-size="10.00">ntp.h</text>
</a>
</g>
</g>
<!-- Node1&#45;&gt;Node9 -->
<g id="edge8_Node000001_Node000009" class="edge">
<title>Node1&#45;&gt;Node9</title>
<g id="a_edge8_Node000001_Node000009"><a xlink:title=" ">
<path fill="none" stroke="#63b8ff" d="M613.01,-184.68C671.15,-175.49 752.75,-160.52 822.5,-140 824.43,-139.43 826.4,-138.8 828.38,-138.12"/>
<polygon fill="#63b8ff" stroke="#63b8ff" points="829.95,-141.27 838.11,-134.51 827.51,-134.71 829.95,-141.27"/>
</a>
</g>
</g>
<!-- Node10 -->
<g id="Node000010" class="node">
<title>Node10</title>
<g id="a_Node000010"><a xlink:title=" ">
<polygon fill="#e0e0e0" stroke="#999999" points="594,-74 481,-74 481,-55 594,-55 594,-74"/>
<text text-anchor="middle" x="537.5" y="-62" font-family="Helvetica,sans-Serif" font-size="10.00">freertos/FreeRTOS.h</text>
</a>
</g>
</g>
<!-- Node1&#45;&gt;Node10 -->
<g id="edge9_Node000001_Node000010" class="edge">
<title>Node1&#45;&gt;Node10</title>
<g id="a_edge9_Node000001_Node000010"><a xlink:title=" ">
<path fill="none" stroke="#63b8ff" d="M568.49,-175.94C580.57,-166.69 592.96,-154.48 599.5,-140 604.99,-127.85 605.59,-121.86 599.5,-110 592.54,-96.44 579.31,-86.07 566.85,-78.78"/>
<polygon fill="#63b8ff" stroke="#63b8ff" points="568.48,-75.68 558.02,-74 565.15,-81.84 568.48,-75.68"/>
</a>
</g>
</g>
<!-- Node11 -->
<g id="Node000011" class="node">
<title>Node11</title>
<g id="a_Node000011"><a xlink:title=" ">
<polygon fill="#e0e0e0" stroke="#999999" points="901,-74 798,-74 798,-55 901,-55 901,-74"/>
<text text-anchor="middle" x="849.5" y="-62" font-family="Helvetica,sans-Serif" font-size="10.00">freertos/semphr.h</text>
</a>
</g>
</g>
<!-- Node1&#45;&gt;Node11 -->
<g id="edge10_Node000001_Node000011" class="edge">
<title>Node1&#45;&gt;Node11</title>
<g id="a_edge10_Node000001_Node000011"><a xlink:title=" ">
<path fill="none" stroke="#63b8ff" d="M613.15,-191.97C666.08,-186.49 736.26,-172.96 789.5,-140 812.04,-126.04 829.81,-100.52 839.98,-83.28"/>
<polygon fill="#63b8ff" stroke="#63b8ff" points="843.22,-84.67 845.08,-74.24 837.12,-81.23 843.22,-84.67"/>
</a>
</g>
</g>
<!-- Node12 -->
<g id="Node000012" class="node">
<title>Node12</title>
<g id="a_Node000012"><a xlink:href="config_8h.html" target="_top" xlink:title=" ">
<polygon fill="white" stroke="#666666" points="780.5,-134.5 684.5,-134.5 684.5,-115.5 780.5,-115.5 780.5,-134.5"/>
<text text-anchor="middle" x="732.5" y="-122.5" font-family="Helvetica,sans-Serif" font-size="10.00">../config/config.h</text>
</a>
</g>
</g>
<!-- Node1&#45;&gt;Node12 -->
<g id="edge11_Node000001_Node000012" class="edge">
<title>Node1&#45;&gt;Node12</title>
<g id="a_edge11_Node000001_Node000012"><a xlink:title=" ">
<path fill="none" stroke="#63b8ff" d="M591.62,-175.96C626.06,-163.74 669.29,-148.41 698.72,-137.98"/>
<polygon fill="#63b8ff" stroke="#63b8ff" points="700.26,-141.14 708.52,-134.5 697.92,-134.55 700.26,-141.14"/>
</a>
</g>
</g>
<!-- Node14 -->
<g id="Node000014" class="node">
<title>Node14</title>
<g id="a_Node000014"><a xlink:href="event__bus_8h.html" target="_top" xlink:title=" ">
<polygon fill="white" stroke="#666666" points="590,-140 483,-140 483,-110 590,-110 590,-140"/>
<text text-anchor="start" x="491" y="-128" font-family="Helvetica,sans-Serif" font-size="10.00">../event_bus/event</text>
<text text-anchor="middle" x="536.5" y="-117" font-family="Helvetica,sans-Serif" font-size="10.00">_bus.h</text>
</a>
</g>
</g>
<!-- Node1&#45;&gt;Node14 -->
<g id="edge16_Node000001_Node000014" class="edge">
<title>Node1&#45;&gt;Node14</title>
<g id="a_edge16_Node000001_Node000014"><a xlink:title=" ">
<path fill="none" stroke="#63b8ff" d="M536.5,-175.77C536.5,-167.85 536.5,-158.63 536.5,-150.3"/>
<polygon fill="#63b8ff" stroke="#63b8ff" points="540,-150.04 536.5,-140.04 533,-150.04 540,-150.04"/>
</a>
</g>
</g>
<!-- Node8 -->
<g id="Node000008" class="node">
<title>Node8</title>
<g id="a_Node000008"><a xlink:title=" ">
<polygon fill="#e0e0e0" stroke="#999999" points="683,-19 630,-19 630,0 683,0 683,-19"/>
<text text-anchor="middle" x="656.5" y="-7" font-family="Helvetica,sans-Serif" font-size="10.00">stdint.h</text>
</a>
</g>
</g>
<!-- Node7&#45;&gt;Node8 -->
<g id="edge7_Node000007_Node000008" class="edge">
<title>Node7&#45;&gt;Node8</title>
<g id="a_edge7_Node000007_Node000008"><a xlink:title=" ">
<path fill="none" stroke="#63b8ff" d="M656.5,-54.75C656.5,-47.8 656.5,-37.85 656.5,-29.13"/>
<polygon fill="#63b8ff" stroke="#63b8ff" points="660,-29.09 656.5,-19.09 653,-29.09 660,-29.09"/>
</a>
</g>
</g>
<!-- Node12&#45;&gt;Node7 -->
<g id="edge13_Node000012_Node000007" class="edge">
<title>Node12&#45;&gt;Node7</title>
<g id="a_edge13_Node000012_Node000007"><a xlink:title=" ">
<path fill="none" stroke="#63b8ff" d="M721.29,-115.37C709.39,-106.21 690.36,-91.56 675.99,-80.51"/>
<polygon fill="#63b8ff" stroke="#63b8ff" points="677.82,-77.49 667.76,-74.17 673.55,-83.04 677.82,-77.49"/>
</a>
</g>
</g>
<!-- Node12&#45;&gt;Node10 -->
<g id="edge14_Node000012_Node000010" class="edge">
<title>Node12&#45;&gt;Node10</title>
<g id="a_edge14_Node000012_Node000010"><a xlink:title=" ">
<path fill="none" stroke="#63b8ff" d="M704.15,-115.49C670.21,-105.31 613.24,-88.22 575.51,-76.9"/>
<polygon fill="#63b8ff" stroke="#63b8ff" points="576.47,-73.54 565.89,-74.02 574.46,-80.24 576.47,-73.54"/>
</a>
</g>
</g>
<!-- Node12&#45;&gt;Node11 -->
<g id="edge15_Node000012_Node000011" class="edge">
<title>Node12&#45;&gt;Node11</title>
<g id="a_edge15_Node000012_Node000011"><a xlink:title=" ">
<path fill="none" stroke="#63b8ff" d="M749.51,-115.49C768.92,-105.79 800.89,-89.81 823.44,-78.53"/>
<polygon fill="#63b8ff" stroke="#63b8ff" points="825.09,-81.62 832.47,-74.02 821.96,-75.36 825.09,-81.62"/>
</a>
</g>
</g>
<!-- Node13 -->
<g id="Node000013" class="node">
<title>Node13</title>
<g id="a_Node000013"><a xlink:title=" ">
<polygon fill="#e0e0e0" stroke="#999999" points="780,-74 719,-74 719,-55 780,-55 780,-74"/>
<text text-anchor="middle" x="749.5" y="-62" font-family="Helvetica,sans-Serif" font-size="10.00">esp_err.h</text>
</a>
</g>
</g>
<!-- Node12&#45;&gt;Node13 -->
<g id="edge12_Node000012_Node000013" class="edge">
<title>Node12&#45;&gt;Node13</title>
<g id="a_edge12_Node000012_Node000013"><a xlink:title=" ">
<path fill="none" stroke="#63b8ff" d="M735.01,-115.37C737.39,-107.16 741.06,-94.54 744.11,-84.05"/>
<polygon fill="#63b8ff" stroke="#63b8ff" points="747.55,-84.75 746.98,-74.17 740.83,-82.79 747.55,-84.75"/>
</a>
</g>
</g>
<!-- Node14&#45;&gt;Node10 -->
<g id="edge17_Node000014_Node000010" class="edge">
<title>Node14&#45;&gt;Node10</title>
<g id="a_edge17_Node000014_Node000010"><a xlink:title=" ">
<path fill="none" stroke="#63b8ff" d="M536.74,-109.84C536.87,-102.21 537.03,-92.7 537.18,-84.45"/>
<polygon fill="#63b8ff" stroke="#63b8ff" points="540.68,-84.32 537.35,-74.27 533.68,-84.2 540.68,-84.32"/>
</a>
</g>
</g>
<!-- Node15 -->
<g id="Node000015" class="node">
<title>Node15</title>
<g id="a_Node000015"><a xlink:title=" ">
<polygon fill="#e0e0e0" stroke="#999999" points="463,-74 366,-74 366,-55 463,-55 463,-74"/>
<text text-anchor="middle" x="414.5" y="-62" font-family="Helvetica,sans-Serif" font-size="10.00">freertos/queue.h</text>
</a>
</g>
</g>
<!-- Node14&#45;&gt;Node15 -->
<g id="edge18_Node000014_Node000015" class="edge">
<title>Node14&#45;&gt;Node15</title>
<g id="a_edge18_Node000014_Node000015"><a xlink:title=" ">
<path fill="none" stroke="#63b8ff" d="M507.28,-109.99C487.38,-100.45 461.22,-87.9 441.75,-78.57"/>
<polygon fill="#63b8ff" stroke="#63b8ff" points="443.05,-75.31 432.52,-74.14 440.02,-81.62 443.05,-75.31"/>
</a>
</g>
</g>
</g>
</svg>
