<?xml version="1.0" encoding="UTF-8" standalone="no"?>
<!DOCTYPE svg PUBLIC "-//W3C//DTD SVG 1.1//EN"
 "http://www.w3.org/Graphics/SVG/1.1/DTD/svg11.dtd">
<!-- Generated by graphviz version 2.43.0 (0)
 -->
<!-- Title: software/nixie_clock_esp32_project/components/ntp/ntp.c Pages: 1 -->
<svg width="957pt" height="225pt"
 viewBox="0.00 0.00 957.00 225.00" xmlns="http://www.w3.org/2000/svg" xmlns:xlink="http://www.w3.org/1999/xlink">
<g id="graph0" class="graph" transform="scale(1 1) rotate(0) translate(4 221)">
<title>software/nixie_clock_esp32_project/components/ntp/ntp.c</title>
<!-- Node1 -->
<g id="Node000001" class="node">
<title>Node1</title>
<g id="a_Node000001"><a xlink:title=" ">
<polygon fill="#999999" stroke="#666666" points="654,-217 501,-217 501,-176 654,-176 654,-217"/>
<text text-anchor="start" x="509" y="-205" font-family="Helvetica,sans-Serif" font-size="10.00">software/nixie_clock</text>
<text text-anchor="start" x="509" y="-194" font-family="Helvetica,sans-Serif" font-size="10.00">_esp32_project/components</text>
<text text-anchor="middle" x="577.5" y="-183" font-family="Helvetica,sans-Serif" font-size="10.00">/ntp/ntp.c</text>
</a>
</g>
</g>
<!-- Node2 -->
<g id="Node000002" class="node">
<title>Node2</title>
<g id="a_Node000002"><a xlink:title=" ">
<polygon fill="#e0e0e0" stroke="#999999" points="69,-134.5 0,-134.5 0,-115.5 69,-115.5 69,-134.5"/>
<text text-anchor="middle" x="34.5" y="-122.5" font-family="Helvetica,sans-Serif" font-size="10.00">esp_sntp.h</text>
</a>
</g>
</g>
<!-- Node1&#45;&gt;Node2 -->
<g id="edge1_Node000001_Node000002" class="edge">
<title>Node1&#45;&gt;Node2</title>
<g id="a_edge1_Node000001_Node000002"><a xlink:title=" ">
<path fill="none" stroke="#63b8ff" d="M500.67,-191.67C402.03,-185.67 226,-171.35 78.5,-140 75.1,-139.28 71.6,-138.4 68.12,-137.44"/>
<polygon fill="#63b8ff" stroke="#63b8ff" points="69.06,-134.07 58.48,-134.57 67.06,-140.78 69.06,-134.07"/>
</a>
</g>
</g>
<!-- Node3 -->
<g id="Node000003" class="node">
<title>Node3</title>
<g id="a_Node000003"><a xlink:title=" ">
<polygon fill="#e0e0e0" stroke="#999999" points="157.5,-134.5 87.5,-134.5 87.5,-115.5 157.5,-115.5 157.5,-134.5"/>
<text text-anchor="middle" x="122.5" y="-122.5" font-family="Helvetica,sans-Serif" font-size="10.00">esp_netif.h</text>
</a>
</g>
</g>
<!-- Node1&#45;&gt;Node3 -->
<g id="edge2_Node000001_Node000003" class="edge">
<title>Node1&#45;&gt;Node3</title>
<g id="a_edge2_Node000001_Node000003"><a xlink:title=" ">
<path fill="none" stroke="#63b8ff" d="M500.67,-189.15C417.56,-181.35 281.53,-165.86 166.5,-140 163.29,-139.28 159.99,-138.43 156.69,-137.51"/>
<polygon fill="#63b8ff" stroke="#63b8ff" points="157.54,-134.11 146.96,-134.61 155.54,-140.82 157.54,-134.11"/>
</a>
</g>
</g>
<!-- Node4 -->
<g id="Node000004" class="node">
<title>Node4</title>
<g id="a_Node000004"><a xlink:title=" ">
<polygon fill="#e0e0e0" stroke="#999999" points="273,-134.5 176,-134.5 176,-115.5 273,-115.5 273,-134.5"/>
<text text-anchor="middle" x="224.5" y="-122.5" font-family="Helvetica,sans-Serif" font-size="10.00">esp_netif_sntp.h</text>
</a>
</g>
</g>
<!-- Node1&#45;&gt;Node4 -->
<g id="edge3_Node000001_Node000004" class="edge">
<title>Node1&#45;&gt;Node4</title>
<g id="a_edge3_Node000001_Node000004"><a xlink:title=" ">
<path fill="none" stroke="#63b8ff" d="M500.88,-182.19C441.21,-171.56 356.38,-155.86 282.5,-140 277.87,-139.01 273.04,-137.92 268.24,-136.81"/>
<polygon fill="#63b8ff" stroke="#63b8ff" points="269.01,-133.4 258.48,-134.51 267.41,-140.21 269.01,-133.4"/>
</a>
</g>
</g>
<!-- Node5 -->
<g id="Node000005" class="node">
<title>Node5</title>
<g id="a_Node000005"><a xlink:title=" ">
<polygon fill="#e0e0e0" stroke="#999999" points="383.5,-134.5 291.5,-134.5 291.5,-115.5 383.5,-115.5 383.5,-134.5"/>
<text text-anchor="middle" x="337.5" y="-122.5" font-family="Helvetica,sans-Serif" font-size="10.00">esp_task_wdt.h</text>
</a>
</g>
</g>
<!-- Node1&#45;&gt;Node5 -->
<g id="edge4_Node000001_Node000005" class="edge">
<title>Node1&#45;&gt;Node5</title>
<g id="a_edge4_Node000001_Node000005"><a xlink:title=" ">
<path fill="none" stroke="#63b8ff" d="M510.01,-175.96C466.92,-163.48 412.58,-147.74 376.53,-137.3"/>
<polygon fill="#63b8ff" stroke="#63b8ff" points="377.44,-133.92 366.86,-134.5 375.5,-140.65 377.44,-133.92"/>
</a>
</g>
</g>
<!-- Node6 -->
<g id="Node000006" class="node">
<title>Node6</title>
<g id="a_Node000006"><a xlink:title=" ">
<polygon fill="#e0e0e0" stroke="#999999" points="465,-134.5 402,-134.5 402,-115.5 465,-115.5 465,-134.5"/>
<text text-anchor="middle" x="433.5" y="-122.5" font-family="Helvetica,sans-Serif" font-size="10.00">esp_log.h</text>
</a>
</g>
</g>
<!-- Node1&#45;&gt;Node6 -->
<g id="edge5_Node000001_Node000006" class="edge">
<title>Node1&#45;&gt;Node6</title>
<g id="a_edge5_Node000001_Node000006"><a xlink:title=" ">
<path fill="none" stroke="#63b8ff" d="M537,-175.96C512.48,-164.12 481.87,-149.35 460.33,-138.95"/>
<polygon fill="#63b8ff" stroke="#63b8ff" points="461.65,-135.7 451.12,-134.5 458.6,-142 461.65,-135.7"/>
</a>
</g>
</g>
<!-- Node7 -->
<g id="Node000007" class="node">
<title>Node7</title>
<g id="a_Node000007"><a xlink:href="clock_8h.html" target="_top" xlink:title=" ">
<polygon fill="white" stroke="#666666" points="701,-74 612,-74 612,-55 701,-55 701,-74"/>
<text text-anchor="middle" x="656.5" y="-62" font-family="Helvetica,sans-Serif" font-size="10.00">../clock/clock.h</text>
</a>
</g>
</g>
<!-- Node1&#45;&gt;Node7 -->
<g id="edge6_Node000001_Node000007" class="edge">
<title>Node1&#45;&gt;Node7</title>
<g id="a_edge6_Node000001_Node000007"><a xlink:title=" ">
<path fill="none" stroke="#63b8ff" d="M591.7,-175.77C599.05,-165.31 608.03,-152.13 615.5,-140 627.18,-121.02 639.34,-98.53 647.35,-83.26"/>
<polygon fill="#63b8ff" stroke="#63b8ff" points="650.46,-84.86 651.97,-74.37 644.25,-81.63 650.46,-84.86"/>
</a>
</g>
</g>
<!-- Node9 -->
<g id="Node000009" class="node">
<title>Node9</title>
<g id="a_Node000009"><a xlink:href="ntp_8h.html" target="_top" xlink:title=" ">
<polygon fill="white" stroke="#666666" points="878,-134.5 837,-134.5 837,-115.5 878,-115.5 878,-134.5"/>
<text text-anchor="middle" x="857.5" y="-122.5" font-family="Helvetica,sans-Serif" font-size="10.00">ntp.h</text>
</a>
</g>
</g>
<!-- Node1&#45;&gt;Node9 -->
<g id="edge8_Node000001_Node000009" class="edge">
<title>Node1&#45;&gt;Node9</title>
<g id="a_edge8_Node000001_Node000009"><a xlink:title=" ">
<path fill="none" stroke="#63b8ff" d="M654.19,-181.36C702.91,-171.59 767.01,-157.26 822.5,-140 824.37,-139.42 826.29,-138.78 828.21,-138.1"/>
<polygon fill="#63b8ff" stroke="#63b8ff" points="829.57,-141.33 837.71,-134.55 827.11,-134.78 829.57,-141.33"/>
</a>
</g>
</g>
<!-- Node10 -->
<g id="Node000010" class="node">
<title>Node10</title>
<g id="a_Node000010"><a xlink:title=" ">
<polygon fill="#e0e0e0" stroke="#999999" points="594,-74 481,-74 481,-55 594,-55 594,-74"/>
<text text-anchor="middle" x="537.5" y="-62" font-family="Helvetica,sans-Serif" font-size="10.00">freertos/FreeRTOS.h</text>
</a>
</g>
</g>
<!-- Node1&#45;&gt;Node10 -->
<g id="edge9_Node000001_Node000010" class="edge">
<title>Node1&#45;&gt;Node10</title>
<g id="a_edge9_Node000001_Node000010"><a xlink:title=" ">
<path fill="none" stroke="#63b8ff" d="M590.14,-175.95C599.99,-158.02 610.35,-131.14 599.5,-110 592.54,-96.44 579.31,-86.07 566.85,-78.78"/>
<polygon fill="#63b8ff" stroke="#63b8ff" points="568.48,-75.68 558.02,-74 565.15,-81.84 568.48,-75.68"/>
</a>
</g>
</g>
<!-- Node11 -->
<g id="Node000011" class="node">
<title>Node11</title>
<g id="a_Node000011"><a xlink:title=" ">
<polygon fill="#e0e0e0" stroke="#999999" points="901,-74 798,-74 798,-55 901,-55 901,-74"/>
<text text-anchor="middle" x="849.5" y="-62" font-family="Helvetica,sans-Serif" font-size="10.00">freertos/semphr.h</text>
</a>
</g>
</g>
<!-- Node1&#45;&gt;Node11 -->
<g id="edge10_Node000001_Node000011" class="edge">
<title>Node1&#45;&gt;Node11</title>
<g id="a_edge10_Node000001_Node000011"><a xlink:title=" ">
<path fill="none" stroke="#63b8ff" d="M654.09,-187.38C696.65,-180.06 749.02,-166.2 789.5,-140 811.76,-125.59 829.59,-100.18 839.86,-83.09"/>
<polygon fill="#63b8ff" stroke="#63b8ff" points="843.06,-84.55 845.01,-74.14 836.99,-81.06 843.06,-84.55"/>
</a>
</g>
</g>
<!-- Node12 -->
<g id="Node000012" class="node">
<title>Node12</title>
<g id="a_Node000012"><a xlink:href="config_8h.html" target="_top" xlink:title=" ">
<polygon fill="white" stroke="#666666" points="780.5,-134.5 684.5,-134.5 684.5,-115.5 780.5,-115.5 780.5,-134.5"/>
<text text-anchor="middle" x="732.5" y="-122.5" font-family="Helvetica,sans-Serif" font-size="10.00">../config/config.h</text>
</a>
</g>
</g>
<!-- Node1&#45;&gt;Node12 -->
<g id="edge11_Node000001_Node000012" class="edge">
<title>Node1&#45;&gt;Node12</title>
<g id="a_edge11_Node000001_Node000012"><a xlink:title=" ">
<path fill="none" stroke="#63b8ff" d="M621.09,-175.96C647.73,-164.01 681.02,-149.08 704.25,-138.67"/>
<polygon fill="#63b8ff" stroke="#63b8ff" points="705.84,-141.79 713.54,-134.5 702.98,-135.4 705.84,-141.79"/>
</a>
</g>
</g>
<!-- Node14 -->
<g id="Node000014" class="node">
<title>Node14</title>
<g id="a_Node000014"><a xlink:href="event__bus_8h.html" target="_top" xlink:title=" ">
<polygon fill="white" stroke="#666666" points="590,-140 483,-140 483,-110 590,-110 590,-140"/>
<text text-anchor="start" x="491" y="-128" font-family="Helvetica,sans-Serif" font-size="10.00">../event_bus/event</text>
<text text-anchor="middle" x="536.5" y="-117" font-family="Helvetica,sans-Serif" font-size="10.00">_bus.h</text>
</a>
</g>
</g>
<!-- Node1&#45;&gt;Node14 -->
<g id="edge16_Node000001_Node000014" class="edge">
<title>Node1&#45;&gt;Node14</title>
<g id="a_edge16_Node000001_Node000014"><a xlink:title=" ">
<path fill="none" stroke="#63b8ff" d="M565.86,-175.77C560.92,-167.4 555.14,-157.59 550.01,-148.9"/>
<polygon fill="#63b8ff" stroke="#63b8ff" points="552.88,-146.87 544.78,-140.04 546.85,-150.43 552.88,-146.87"/>
</a>
</g>
</g>
<!-- Node16 -->
<g id="Node000016" class="node">
<title>Node16</title>
<g id="a_Node000016"><a xlink:title=" ">
<polygon fill="#e0e0e0" stroke="#999999" points="949,-134.5 896,-134.5 896,-115.5 949,-115.5 949,-134.5"/>
<text text-anchor="middle" x="922.5" y="-122.5" font-family="Helvetica,sans-Serif" font-size="10.00">string.h</text>
</a>
</g>
</g>
<!-- Node1&#45;&gt;Node16 -->
<g id="edge19_Node000001_Node000016" class="edge">
<title>Node1&#45;&gt;Node16</title>
<g id="a_edge19_Node000001_Node000016"><a xlink:title=" ">
<path fill="none" stroke="#63b8ff" d="M654.29,-186.18C717.63,-177.44 809.44,-162.35 887.5,-140 889.43,-139.45 891.41,-138.82 893.39,-138.16"/>
<polygon fill="#63b8ff" stroke="#63b8ff" points="894.95,-141.31 903.12,-134.56 892.53,-134.74 894.95,-141.31"/>
</a>
</g>
</g>
<!-- Node8 -->
<g id="Node000008" class="node">
<title>Node8</title>
<g id="a_Node000008"><a xlink:title=" ">
<polygon fill="#e0e0e0" stroke="#999999" points="683,-19 630,-19 630,0 683,0 683,-19"/>
<text text-anchor="middle" x="656.5" y="-7" font-family="Helvetica,sans-Serif" font-size="10.00">stdint.h</text>
</a>
</g>
</g>
<!-- Node7&#45;&gt;Node8 -->
<g id="edge7_Node000007_Node000008" class="edge">
<title>Node7&#45;&gt;Node8</title>
<g id="a_edge7_Node000007_Node000008"><a xlink:title=" ">
<path fill="none" stroke="#63b8ff" d="M656.5,-54.75C656.5,-47.8 656.5,-37.85 656.5,-29.13"/>
<polygon fill="#63b8ff" stroke="#63b8ff" points="660,-29.09 656.5,-19.09 653,-29.09 660,-29.09"/>
</a>
</g>
</g>
<!-- Node12&#45;&gt;Node7 -->
<g id="edge13_Node000012_Node000007" class="edge">
<title>Node12&#45;&gt;Node7</title>
<g id="a_edge13_Node000012_Node000007"><a xlink:title=" ">
<path fill="none" stroke="#63b8ff" d="M721.29,-115.37C709.39,-106.21 690.36,-91.56 675.99,-80.51"/>
<polygon fill="#63b8ff" stroke="#63b8ff" points="677.82,-77.49 667.76,-74.17 673.55,-83.04 677.82,-77.49"/>
</a>
</g>
</g>
<!-- Node12&#45;&gt;Node10 -->
<g id="edge14_Node000012_Node000010" class="edge">
<title>Node12&#45;&gt;Node10</title>
<g id="a_edge14_Node000012_Node000010"><a xlink:title=" ">
<path fill="none" stroke="#63b8ff" d="M704.15,-115.49C670.21,-105.31 613.24,-88.22 575.51,-76.9"/>
<polygon fill="#63b8ff" stroke="#63b8ff" points="576.47,-73.54 565.89,-74.02 574.46,-80.24 576.47,-73.54"/>
</a>
</g>
</g>
<!-- Node12&#45;&gt;Node11 -->
<g id="edge15_Node000012_Node000011" class="edge">
<title>Node12&#45;&gt;Node11</title>
<g id="a_edge15_Node000012_Node000011"><a xlink:title=" ">
<path fill="none" stroke="#63b8ff" d="M749.51,-115.49C768.92,-105.79 800.89,-89.81 823.44,-78.53"/>
<polygon fill="#63b8ff" stroke="#63b8ff" points="825.09,-81.62 832.47,-74.02 821.96,-75.36 825.09,-81.62"/>
</a>
</g>
</g>
<!-- Node13 -->
<g id="Node000013" class="node">
<title>Node13</title>
<g id="a_Node000013"><a xlink:title=" ">
<polygon fill="#e0e0e0" stroke="#999999" points="780,-74 719,-74 719,-55 780,-55 780,-74"/>
<text text-anchor="middle" x="749.5" y="-62" font-family="Helvetica,sans-Serif" font-size="10.00">esp_err.h</text>
</a>
</g>
</g>
<!-- Node12&#45;&gt;Node13 -->
<g id="edge12_Node000012_Node000013" class="edge">
<title>Node12&#45;&gt;Node13</title>
<g id="a_edge12_Node000012_Node000013"><a xlink:title=" ">
<path fill="none" stroke="#63b8ff" d="M735.01,-115.37C737.39,-107.16 741.06,-94.54 744.11,-84.05"/>
<polygon fill="#63b8ff" stroke="#63b8ff" points="747.55,-84.75 746.98,-74.17 740.83,-82.79 747.55,-84.75"/>
</a>
</g>
</g>
<!-- Node14&#45;&gt;Node10 -->
<g id="edge17_Node000014_Node000010" class="edge">
<title>Node14&#45;&gt;Node10</title>
<g id="a_edge17_Node000014_Node000010"><a xlink:title=" ">
<path fill="none" stroke="#63b8ff" d="M536.74,-109.84C536.87,-102.21 537.03,-92.7 537.18,-84.45"/>
<polygon fill="#63b8ff" stroke="#63b8ff" points="540.68,-84.32 537.35,-74.27 533.68,-84.2 540.68,-84.32"/>
</a>
</g>
</g>
<!-- Node15 -->
<g id="Node000015" class="node">
<title>Node15</title>
<g id="a_Node000015"><a xlink:title=" ">
<polygon fill="#e0e0e0" stroke="#999999" points="463,-74 366,-74 366,-55 463,-55 463,-74"/>
<text text-anchor="middle" x="414.5" y="-62" font-family="Helvetica,sans-Serif" font-size="10.00">freertos/queue.h</text>
</a>
</g>
</g>
<!-- Node14&#45;&gt;Node15 -->
<g id="edge18_Node000014_Node000015" class="edge">
<title>Node14&#45;&gt;Node15</title>
<g id="a_edge18_Node000014_Node000015"><a xlink:title=" ">
<path fill="none" stroke="#63b8ff" d="M507.28,-109.99C487.38,-100.45 461.22,-87.9 441.75,-78.57"/>
<polygon fill="#63b8ff" stroke="#63b8ff" points="443.05,-75.31 432.52,-74.14 440.02,-81.62 443.05,-75.31"/>
</a>
</g>
</g>
</g>
</svg>
