<?xml version="1.0" encoding="UTF-8" standalone="no"?>
<!DOCTYPE svg PUBLIC "-//W3C//DTD SVG 1.1//EN"
 "http://www.w3.org/Graphics/SVG/1.1/DTD/svg11.dtd">
<!-- Generated by graphviz version 2.43.0 (0)
 -->
<!-- Title: software/nixie_clock_esp32_project/components/ntp/ntp.h Pages: 1 -->
<svg width="505pt" height="126pt"
 viewBox="0.00 0.00 504.50 126.00" xmlns="http://www.w3.org/2000/svg" xmlns:xlink="http://www.w3.org/1999/xlink">
<g id="graph0" class="graph" transform="scale(1 1) rotate(0) translate(4 122)">
<title>software/nixie_clock_esp32_project/components/ntp/ntp.h</title>
<!-- Node1 -->
<g id="Node000001" class="node">
<title>Node1</title>
<g id="a_Node000001"><a xlink:title=" ">
<polygon fill="#999999" stroke="#666666" points="324,-118 171,-118 171,-77 324,-77 324,-118"/>
<text text-anchor="start" x="179" y="-106" font-family="Helvetica,sans-Serif" font-size="10.00">software/nixie_clock</text>
<text text-anchor="start" x="179" y="-95" font-family="Helvetica,sans-Serif" font-size="10.00">_esp32_project/components</text>
<text text-anchor="middle" x="247.5" y="-84" font-family="Helvetica,sans-Serif" font-size="10.00">/ntp/ntp.h</text>
</a>
</g>
</g>
<!-- Node2 -->
<g id="Node000002" class="node">
<title>Node2</title>
<g id="a_Node000002"><a xlink:href="config_8c.html" target="_top" xlink:title=" ">
<polygon fill="white" stroke="#666666" points="153,-41 0,-41 0,0 153,0 153,-41"/>
<text text-anchor="start" x="8" y="-29" font-family="Helvetica,sans-Serif" font-size="10.00">software/nixie_clock</text>
<text text-anchor="start" x="8" y="-18" font-family="Helvetica,sans-Serif" font-size="10.00">_esp32_project/components</text>
<text text-anchor="middle" x="76.5" y="-7" font-family="Helvetica,sans-Serif" font-size="10.00">/config/config.c</text>
</a>
</g>
</g>
<!-- Node1&#45;&gt;Node2 -->
<g id="edge1_Node000001_Node000002" class="edge">
<title>Node1&#45;&gt;Node2</title>
<g id="a_edge1_Node000001_Node000002"><a xlink:title=" ">
<path fill="none" stroke="#63b8ff" d="M193.6,-72.86C170.25,-62.62 143.25,-50.77 121.06,-41.04"/>
<polygon fill="#63b8ff" stroke="#63b8ff" points="192.45,-76.18 203.02,-76.99 195.27,-69.77 192.45,-76.18"/>
</a>
</g>
</g>
<!-- Node3 -->
<g id="Node000003" class="node">
<title>Node3</title>
<g id="a_Node000003"><a xlink:href="ntp_8c.html" target="_top" xlink:title=" ">
<polygon fill="white" stroke="#666666" points="324,-41 171,-41 171,0 324,0 324,-41"/>
<text text-anchor="start" x="179" y="-29" font-family="Helvetica,sans-Serif" font-size="10.00">software/nixie_clock</text>
<text text-anchor="start" x="179" y="-18" font-family="Helvetica,sans-Serif" font-size="10.00">_esp32_project/components</text>
<text text-anchor="middle" x="247.5" y="-7" font-family="Helvetica,sans-Serif" font-size="10.00">/ntp/ntp.c</text>
</a>
</g>
</g>
<!-- Node1&#45;&gt;Node3 -->
<g id="edge2_Node000001_Node000003" class="edge">
<title>Node1&#45;&gt;Node3</title>
<g id="a_edge2_Node000001_Node000003"><a xlink:title=" ">
<path fill="none" stroke="#63b8ff" d="M247.5,-66.69C247.5,-58.08 247.5,-48.9 247.5,-41.07"/>
<polygon fill="#63b8ff" stroke="#63b8ff" points="244,-66.79 247.5,-76.79 251,-66.79 244,-66.79"/>
</a>
</g>
</g>
<!-- Node4 -->
<g id="Node000004" class="node">
<title>Node4</title>
<g id="a_Node000004"><a xlink:href="main_8c.html" target="_top" xlink:title=" ">
<polygon fill="white" stroke="#666666" points="496.5,-35.5 342.5,-35.5 342.5,-5.5 496.5,-5.5 496.5,-35.5"/>
<text text-anchor="start" x="350.5" y="-23.5" font-family="Helvetica,sans-Serif" font-size="10.00">software/nixie_clock</text>
<text text-anchor="middle" x="419.5" y="-12.5" font-family="Helvetica,sans-Serif" font-size="10.00">_esp32_project/main/main.c</text>
</a>
</g>
</g>
<!-- Node1&#45;&gt;Node4 -->
<g id="edge3_Node000001_Node000004" class="edge">
<title>Node1&#45;&gt;Node4</title>
<g id="a_edge3_Node000001_Node000004"><a xlink:title=" ">
<path fill="none" stroke="#63b8ff" d="M301.56,-72.93C329.68,-60.66 363.13,-46.08 387.2,-35.58"/>
<polygon fill="#63b8ff" stroke="#63b8ff" points="300.01,-69.79 292.24,-76.99 302.81,-76.2 300.01,-69.79"/>
</a>
</g>
</g>
</g>
</svg>
