<?xml version="1.0" encoding="UTF-8" standalone="no"?>
<!DOCTYPE svg PUBLIC "-//W3C//DTD SVG 1.1//EN"
 "http://www.w3.org/Graphics/SVG/1.1/DTD/svg11.dtd">
<!-- Generated by graphviz version 2.43.0 (0)
 -->
<!-- Title: software/nixie_clock_esp32_project/components/nvs/nvs.h Pages: 1 -->
<svg width="332pt" height="126pt"
 viewBox="0.00 0.00 332.00 126.00" xmlns="http://www.w3.org/2000/svg" xmlns:xlink="http://www.w3.org/1999/xlink">
<g id="graph0" class="graph" transform="scale(1 1) rotate(0) translate(4 122)">
<title>software/nixie_clock_esp32_project/components/nvs/nvs.h</title>
<!-- Node1 -->
<g id="Node000001" class="node">
<title>Node1</title>
<g id="a_Node000001"><a xlink:title=" ">
<polygon fill="#999999" stroke="#666666" points="238,-118 85,-118 85,-77 238,-77 238,-118"/>
<text text-anchor="start" x="93" y="-106" font-family="Helvetica,sans-Serif" font-size="10.00">software/nixie_clock</text>
<text text-anchor="start" x="93" y="-95" font-family="Helvetica,sans-Serif" font-size="10.00">_esp32_project/components</text>
<text text-anchor="middle" x="161.5" y="-84" font-family="Helvetica,sans-Serif" font-size="10.00">/nvs/nvs.h</text>
</a>
</g>
</g>
<!-- Node2 -->
<g id="Node000002" class="node">
<title>Node2</title>
<g id="a_Node000002"><a xlink:href="config_8c.html" target="_top" xlink:title=" ">
<polygon fill="white" stroke="#666666" points="153,-41 0,-41 0,0 153,0 153,-41"/>
<text text-anchor="start" x="8" y="-29" font-family="Helvetica,sans-Serif" font-size="10.00">software/nixie_clock</text>
<text text-anchor="start" x="8" y="-18" font-family="Helvetica,sans-Serif" font-size="10.00">_esp32_project/components</text>
<text text-anchor="middle" x="76.5" y="-7" font-family="Helvetica,sans-Serif" font-size="10.00">/config/config.c</text>
</a>
</g>
</g>
<!-- Node1&#45;&gt;Node2 -->
<g id="edge1_Node000001_Node000002" class="edge">
<title>Node1&#45;&gt;Node2</title>
<g id="a_edge1_Node000001_Node000002"><a xlink:title=" ">
<path fill="none" stroke="#63b8ff" d="M131.55,-70.07C120.73,-60.52 108.72,-49.93 98.68,-41.07"/>
<polygon fill="#63b8ff" stroke="#63b8ff" points="129.35,-72.8 139.17,-76.79 133.98,-67.55 129.35,-72.8"/>
</a>
</g>
</g>
<!-- Node3 -->
<g id="Node000003" class="node">
<title>Node3</title>
<g id="a_Node000003"><a xlink:href="nvs_8c.html" target="_top" xlink:title=" ">
<polygon fill="white" stroke="#666666" points="324,-41 171,-41 171,0 324,0 324,-41"/>
<text text-anchor="start" x="179" y="-29" font-family="Helvetica,sans-Serif" font-size="10.00">software/nixie_clock</text>
<text text-anchor="start" x="179" y="-18" font-family="Helvetica,sans-Serif" font-size="10.00">_esp32_project/components</text>
<text text-anchor="middle" x="247.5" y="-7" font-family="Helvetica,sans-Serif" font-size="10.00">/nvs/nvs.c</text>
</a>
</g>
</g>
<!-- Node1&#45;&gt;Node3 -->
<g id="edge2_Node000001_Node000003" class="edge">
<title>Node1&#45;&gt;Node3</title>
<g id="a_edge2_Node000001_Node000003"><a xlink:title=" ">
<path fill="none" stroke="#63b8ff" d="M191.81,-70.07C202.75,-60.52 214.9,-49.93 225.06,-41.07"/>
<polygon fill="#63b8ff" stroke="#63b8ff" points="189.33,-67.58 184.1,-76.79 193.93,-72.86 189.33,-67.58"/>
</a>
</g>
</g>
</g>
</svg>
