<?xml version="1.0" encoding="UTF-8" standalone="no"?>
<!DOCTYPE svg PUBLIC "-//W3C//DTD SVG 1.1//EN"
 "http://www.w3.org/Graphics/SVG/1.1/DTD/svg11.dtd">
<!-- Generated by graphviz version 2.43.0 (0)
 -->
<!-- Title: software/nixie_clock_esp32_project/components/rotary_encoder/rotary_encoder.h Pages: 1 -->
<svg width="549pt" height="203pt"
 viewBox="0.00 0.00 548.50 203.00" xmlns="http://www.w3.org/2000/svg" xmlns:xlink="http://www.w3.org/1999/xlink">
<g id="graph0" class="graph" transform="scale(1 1) rotate(0) translate(4 199)">
<title>software/nixie_clock_esp32_project/components/rotary_encoder/rotary_encoder.h</title>
<!-- Node1 -->
<g id="Node000001" class="node">
<title>Node1</title>
<g id="a_Node000001"><a xlink:title=" ">
<polygon fill="#999999" stroke="#666666" points="342.5,-195 164.5,-195 164.5,-154 342.5,-154 342.5,-195"/>
<text text-anchor="start" x="172.5" y="-183" font-family="Helvetica,sans-Serif" font-size="10.00">software/nixie_clock</text>
<text text-anchor="start" x="172.5" y="-172" font-family="Helvetica,sans-Serif" font-size="10.00">_esp32_project/components</text>
<text text-anchor="middle" x="253.5" y="-161" font-family="Helvetica,sans-Serif" font-size="10.00">/rotary_encoder/rotary_encoder.h</text>
</a>
</g>
</g>
<!-- Node2 -->
<g id="Node000002" class="node">
<title>Node2</title>
<g id="a_Node000002"><a xlink:href="rotary__encoder_8c.html" target="_top" xlink:title=" ">
<polygon fill="white" stroke="#666666" points="177,-118 0,-118 0,-77 177,-77 177,-118"/>
<text text-anchor="start" x="8" y="-106" font-family="Helvetica,sans-Serif" font-size="10.00">software/nixie_clock</text>
<text text-anchor="start" x="8" y="-95" font-family="Helvetica,sans-Serif" font-size="10.00">_esp32_project/components</text>
<text text-anchor="middle" x="88.5" y="-84" font-family="Helvetica,sans-Serif" font-size="10.00">/rotary_encoder/rotary_encoder.c</text>
</a>
</g>
</g>
<!-- Node1&#45;&gt;Node2 -->
<g id="edge1_Node000001_Node000002" class="edge">
<title>Node1&#45;&gt;Node2</title>
<g id="a_edge1_Node000001_Node000002"><a xlink:title=" ">
<path fill="none" stroke="#63b8ff" d="M201.19,-149.72C178.73,-139.51 152.81,-127.73 131.49,-118.04"/>
<polygon fill="#63b8ff" stroke="#63b8ff" points="200.03,-153.04 210.58,-153.99 202.92,-146.67 200.03,-153.04"/>
</a>
</g>
</g>
<!-- Node3 -->
<g id="Node000003" class="node">
<title>Node3</title>
<g id="a_Node000003"><a xlink:href="clock__task_8c.html" target="_top" xlink:title=" ">
<polygon fill="white" stroke="#666666" points="208.5,-41 62.5,-41 62.5,0 208.5,0 208.5,-41"/>
<text text-anchor="start" x="70.5" y="-29" font-family="Helvetica,sans-Serif" font-size="10.00">software/nixie_clock</text>
<text text-anchor="start" x="70.5" y="-18" font-family="Helvetica,sans-Serif" font-size="10.00">_esp32_project/main/clock</text>
<text text-anchor="middle" x="135.5" y="-7" font-family="Helvetica,sans-Serif" font-size="10.00">_task.c</text>
</a>
</g>
</g>
<!-- Node1&#45;&gt;Node3 -->
<g id="edge2_Node000001_Node000003" class="edge">
<title>Node1&#45;&gt;Node3</title>
<g id="a_edge2_Node000001_Node000003"><a xlink:title=" ">
<path fill="none" stroke="#63b8ff" d="M234.94,-145.3C221.72,-125.71 203.24,-99.23 185.5,-77 175.63,-64.63 163.81,-51.45 154.14,-41.04"/>
<polygon fill="#63b8ff" stroke="#63b8ff" points="232.14,-147.42 240.61,-153.78 237.96,-143.52 232.14,-147.42"/>
</a>
</g>
</g>
<!-- Node4 -->
<g id="Node000004" class="node">
<title>Node4</title>
<g id="a_Node000004"><a xlink:href="gpio__task_8c.html" target="_top" xlink:title=" ">
<polygon fill="white" stroke="#666666" points="540.5,-41 398.5,-41 398.5,0 540.5,0 540.5,-41"/>
<text text-anchor="start" x="406.5" y="-29" font-family="Helvetica,sans-Serif" font-size="10.00">software/nixie_clock</text>
<text text-anchor="start" x="406.5" y="-18" font-family="Helvetica,sans-Serif" font-size="10.00">_esp32_project/main/gpio</text>
<text text-anchor="middle" x="469.5" y="-7" font-family="Helvetica,sans-Serif" font-size="10.00">_task.c</text>
</a>
</g>
</g>
<!-- Node1&#45;&gt;Node4 -->
<g id="edge3_Node000001_Node000004" class="edge">
<title>Node1&#45;&gt;Node4</title>
<g id="a_edge3_Node000001_Node000004"><a xlink:title=" ">
<path fill="none" stroke="#63b8ff" d="M323.83,-150.08C344.07,-141.63 365.52,-130.92 383.5,-118 413.57,-96.39 440.6,-62.55 456.02,-41.22"/>
<polygon fill="#63b8ff" stroke="#63b8ff" points="322.28,-146.93 314.32,-153.92 324.9,-153.42 322.28,-146.93"/>
</a>
</g>
</g>
<!-- Node5 -->
<g id="Node000005" class="node">
<title>Node5</title>
<g id="a_Node000005"><a xlink:href="gpio__task_8h.html" target="_top" xlink:title=" ">
<polygon fill="white" stroke="#666666" points="374.5,-118 232.5,-118 232.5,-77 374.5,-77 374.5,-118"/>
<text text-anchor="start" x="240.5" y="-106" font-family="Helvetica,sans-Serif" font-size="10.00">software/nixie_clock</text>
<text text-anchor="start" x="240.5" y="-95" font-family="Helvetica,sans-Serif" font-size="10.00">_esp32_project/main/gpio</text>
<text text-anchor="middle" x="303.5" y="-84" font-family="Helvetica,sans-Serif" font-size="10.00">_task.h</text>
</a>
</g>
</g>
<!-- Node1&#45;&gt;Node5 -->
<g id="edge4_Node000001_Node000005" class="edge">
<title>Node1&#45;&gt;Node5</title>
<g id="a_edge4_Node000001_Node000005"><a xlink:title=" ">
<path fill="none" stroke="#63b8ff" d="M272.24,-145.39C278.3,-136.3 284.89,-126.41 290.45,-118.07"/>
<polygon fill="#63b8ff" stroke="#63b8ff" points="269.27,-143.53 266.64,-153.79 275.1,-147.42 269.27,-143.53"/>
</a>
</g>
</g>
<!-- Node5&#45;&gt;Node3 -->
<g id="edge5_Node000005_Node000003" class="edge">
<title>Node5&#45;&gt;Node3</title>
<g id="a_edge5_Node000005_Node000003"><a xlink:title=" ">
<path fill="none" stroke="#63b8ff" d="M250.54,-72.86C227.61,-62.62 201.07,-50.77 179.27,-41.04"/>
<polygon fill="#63b8ff" stroke="#63b8ff" points="249.24,-76.11 259.8,-76.99 252.09,-69.72 249.24,-76.11"/>
</a>
</g>
</g>
<!-- Node5&#45;&gt;Node4 -->
<g id="edge6_Node000005_Node000004" class="edge">
<title>Node5&#45;&gt;Node4</title>
<g id="a_edge6_Node000005_Node000004"><a xlink:title=" ">
<path fill="none" stroke="#63b8ff" d="M355.83,-72.86C378.49,-62.62 404.71,-50.77 426.25,-41.04"/>
<polygon fill="#63b8ff" stroke="#63b8ff" points="354.35,-69.68 346.68,-76.99 357.24,-76.06 354.35,-69.68"/>
</a>
</g>
</g>
<!-- Node6 -->
<g id="Node000006" class="node">
<title>Node6</title>
<g id="a_Node000006"><a xlink:href="main_8c.html" target="_top" xlink:title=" ">
<polygon fill="white" stroke="#666666" points="380.5,-35.5 226.5,-35.5 226.5,-5.5 380.5,-5.5 380.5,-35.5"/>
<text text-anchor="start" x="234.5" y="-23.5" font-family="Helvetica,sans-Serif" font-size="10.00">software/nixie_clock</text>
<text text-anchor="middle" x="303.5" y="-12.5" font-family="Helvetica,sans-Serif" font-size="10.00">_esp32_project/main/main.c</text>
</a>
</g>
</g>
<!-- Node5&#45;&gt;Node6 -->
<g id="edge7_Node000005_Node000006" class="edge">
<title>Node5&#45;&gt;Node6</title>
<g id="a_edge7_Node000005_Node000006"><a xlink:title=" ">
<path fill="none" stroke="#63b8ff" d="M303.5,-66.61C303.5,-56.01 303.5,-44.57 303.5,-35.86"/>
<polygon fill="#63b8ff" stroke="#63b8ff" points="300,-66.79 303.5,-76.79 307,-66.79 300,-66.79"/>
</a>
</g>
</g>
</g>
</svg>
