<?xml version="1.0" encoding="UTF-8" standalone="no"?>
<!DOCTYPE svg PUBLIC "-//W3C//DTD SVG 1.1//EN"
 "http://www.w3.org/Graphics/SVG/1.1/DTD/svg11.dtd">
<!-- Generated by graphviz version 2.43.0 (0)
 -->
<!-- Title: software/nixie_clock_esp32_project/components/rotary_encoder/rotary_encoder.h Pages: 1 -->
<svg width="566pt" height="203pt"
 viewBox="0.00 0.00 566.00 203.00" xmlns="http://www.w3.org/2000/svg" xmlns:xlink="http://www.w3.org/1999/xlink">
<g id="graph0" class="graph" transform="scale(1 1) rotate(0) translate(4 199)">
<title>software/nixie_clock_esp32_project/components/rotary_encoder/rotary_encoder.h</title>
<!-- Node1 -->
<g id="Node000001" class="node">
<title>Node1</title>
<g id="a_Node000001"><a xlink:title=" ">
<polygon fill="#999999" stroke="#666666" points="389.5,-195 211.5,-195 211.5,-154 389.5,-154 389.5,-195"/>
<text text-anchor="start" x="219.5" y="-183" font-family="Helvetica,sans-Serif" font-size="10.00">software/nixie_clock</text>
<text text-anchor="start" x="219.5" y="-172" font-family="Helvetica,sans-Serif" font-size="10.00">_esp32_project/components</text>
<text text-anchor="middle" x="300.5" y="-161" font-family="Helvetica,sans-Serif" font-size="10.00">/rotary_encoder/rotary_encoder.h</text>
</a>
</g>
</g>
<!-- Node2 -->
<g id="Node000002" class="node">
<title>Node2</title>
<g id="a_Node000002"><a xlink:href="clock__task_8c.html" target="_top" xlink:title=" ">
<polygon fill="white" stroke="#666666" points="153,-41 0,-41 0,0 153,0 153,-41"/>
<text text-anchor="start" x="8" y="-29" font-family="Helvetica,sans-Serif" font-size="10.00">software/nixie_clock</text>
<text text-anchor="start" x="8" y="-18" font-family="Helvetica,sans-Serif" font-size="10.00">_esp32_project/components</text>
<text text-anchor="middle" x="76.5" y="-7" font-family="Helvetica,sans-Serif" font-size="10.00">/clock_task/clock_task.c</text>
</a>
</g>
</g>
<!-- Node1&#45;&gt;Node2 -->
<g id="edge1_Node000001_Node000002" class="edge">
<title>Node1&#45;&gt;Node2</title>
<g id="a_edge1_Node000001_Node000002"><a xlink:title=" ">
<path fill="none" stroke="#63b8ff" d="M225.15,-150.41C203.86,-142.02 181.36,-131.26 162.5,-118 132.21,-96.71 105.24,-62.77 89.89,-41.34"/>
<polygon fill="#63b8ff" stroke="#63b8ff" points="223.92,-153.69 234.51,-153.98 226.42,-147.15 223.92,-153.69"/>
</a>
</g>
</g>
<!-- Node3 -->
<g id="Node000003" class="node">
<title>Node3</title>
<g id="a_Node000003"><a xlink:href="gpio__task_8c.html" target="_top" xlink:title=" ">
<polygon fill="white" stroke="#666666" points="497,-41 344,-41 344,0 497,0 497,-41"/>
<text text-anchor="start" x="352" y="-29" font-family="Helvetica,sans-Serif" font-size="10.00">software/nixie_clock</text>
<text text-anchor="start" x="352" y="-18" font-family="Helvetica,sans-Serif" font-size="10.00">_esp32_project/components</text>
<text text-anchor="middle" x="420.5" y="-7" font-family="Helvetica,sans-Serif" font-size="10.00">/gpio_task/gpio_task.c</text>
</a>
</g>
</g>
<!-- Node1&#45;&gt;Node3 -->
<g id="edge2_Node000001_Node000003" class="edge">
<title>Node1&#45;&gt;Node3</title>
<g id="a_edge2_Node000001_Node000003"><a xlink:title=" ">
<path fill="none" stroke="#63b8ff" d="M320.35,-145.8C334.53,-126.29 354.25,-99.71 372.5,-77 382.24,-64.89 393.59,-51.71 402.82,-41.24"/>
<polygon fill="#63b8ff" stroke="#63b8ff" points="317.47,-143.81 314.44,-153.96 323.14,-147.92 317.47,-143.81"/>
</a>
</g>
</g>
<!-- Node4 -->
<g id="Node000004" class="node">
<title>Node4</title>
<g id="a_Node000004"><a xlink:href="gpio__task_8h.html" target="_top" xlink:title=" ">
<polygon fill="white" stroke="#666666" points="325,-118 172,-118 172,-77 325,-77 325,-118"/>
<text text-anchor="start" x="180" y="-106" font-family="Helvetica,sans-Serif" font-size="10.00">software/nixie_clock</text>
<text text-anchor="start" x="180" y="-95" font-family="Helvetica,sans-Serif" font-size="10.00">_esp32_project/components</text>
<text text-anchor="middle" x="248.5" y="-84" font-family="Helvetica,sans-Serif" font-size="10.00">/gpio_task/gpio_task.h</text>
</a>
</g>
</g>
<!-- Node1&#45;&gt;Node4 -->
<g id="edge3_Node000001_Node000004" class="edge">
<title>Node1&#45;&gt;Node4</title>
<g id="a_edge3_Node000001_Node000004"><a xlink:title=" ">
<path fill="none" stroke="#63b8ff" d="M281.01,-145.39C274.7,-136.3 267.85,-126.41 262.07,-118.07"/>
<polygon fill="#63b8ff" stroke="#63b8ff" points="278.26,-147.57 286.84,-153.79 284.02,-143.58 278.26,-147.57"/>
</a>
</g>
</g>
<!-- Node6 -->
<g id="Node000006" class="node">
<title>Node6</title>
<g id="a_Node000006"><a xlink:href="rotary__encoder_8c.html" target="_top" xlink:title=" ">
<polygon fill="white" stroke="#666666" points="558,-118 381,-118 381,-77 558,-77 558,-118"/>
<text text-anchor="start" x="389" y="-106" font-family="Helvetica,sans-Serif" font-size="10.00">software/nixie_clock</text>
<text text-anchor="start" x="389" y="-95" font-family="Helvetica,sans-Serif" font-size="10.00">_esp32_project/components</text>
<text text-anchor="middle" x="469.5" y="-84" font-family="Helvetica,sans-Serif" font-size="10.00">/rotary_encoder/rotary_encoder.c</text>
</a>
</g>
</g>
<!-- Node1&#45;&gt;Node6 -->
<g id="edge7_Node000001_Node000006" class="edge">
<title>Node1&#45;&gt;Node6</title>
<g id="a_edge7_Node000001_Node000006"><a xlink:title=" ">
<path fill="none" stroke="#63b8ff" d="M353.77,-149.86C376.85,-139.62 403.54,-127.77 425.47,-118.04"/>
<polygon fill="#63b8ff" stroke="#63b8ff" points="352.18,-146.73 344.46,-153.99 355.02,-153.13 352.18,-146.73"/>
</a>
</g>
</g>
<!-- Node4&#45;&gt;Node2 -->
<g id="edge4_Node000004_Node000002" class="edge">
<title>Node4&#45;&gt;Node2</title>
<g id="a_edge4_Node000004_Node000002"><a xlink:title=" ">
<path fill="none" stroke="#63b8ff" d="M194.28,-72.86C170.8,-62.62 143.64,-50.77 121.32,-41.04"/>
<polygon fill="#63b8ff" stroke="#63b8ff" points="193.19,-76.2 203.76,-76.99 195.99,-69.79 193.19,-76.2"/>
</a>
</g>
</g>
<!-- Node4&#45;&gt;Node3 -->
<g id="edge5_Node000004_Node000003" class="edge">
<title>Node4&#45;&gt;Node3</title>
<g id="a_edge5_Node000004_Node000003"><a xlink:title=" ">
<path fill="none" stroke="#63b8ff" d="M302.72,-72.86C326.2,-62.62 353.36,-50.77 375.68,-41.04"/>
<polygon fill="#63b8ff" stroke="#63b8ff" points="301.01,-69.79 293.24,-76.99 303.81,-76.2 301.01,-69.79"/>
</a>
</g>
</g>
<!-- Node5 -->
<g id="Node000005" class="node">
<title>Node5</title>
<g id="a_Node000005"><a xlink:href="main_8c.html" target="_top" xlink:title=" ">
<polygon fill="white" stroke="#666666" points="325.5,-35.5 171.5,-35.5 171.5,-5.5 325.5,-5.5 325.5,-35.5"/>
<text text-anchor="start" x="179.5" y="-23.5" font-family="Helvetica,sans-Serif" font-size="10.00">software/nixie_clock</text>
<text text-anchor="middle" x="248.5" y="-12.5" font-family="Helvetica,sans-Serif" font-size="10.00">_esp32_project/main/main.c</text>
</a>
</g>
</g>
<!-- Node4&#45;&gt;Node5 -->
<g id="edge6_Node000004_Node000005" class="edge">
<title>Node4&#45;&gt;Node5</title>
<g id="a_edge6_Node000004_Node000005"><a xlink:title=" ">
<path fill="none" stroke="#63b8ff" d="M248.5,-66.61C248.5,-56.01 248.5,-44.57 248.5,-35.86"/>
<polygon fill="#63b8ff" stroke="#63b8ff" points="245,-66.79 248.5,-76.79 252,-66.79 245,-66.79"/>
</a>
</g>
</g>
</g>
</svg>
