<?xml version="1.0" encoding="UTF-8" standalone="no"?>
<!DOCTYPE svg PUBLIC "-//W3C//DTD SVG 1.1//EN"
 "http://www.w3.org/Graphics/SVG/1.1/DTD/svg11.dtd">
<!-- Generated by graphviz version 2.43.0 (0)
 -->
<!-- Title: software/nixie_clock_esp32_project/components/service_manager/service_manager.c Pages: 1 -->
<svg width="1018pt" height="225pt"
 viewBox="0.00 0.00 1017.50 225.00" xmlns="http://www.w3.org/2000/svg" xmlns:xlink="http://www.w3.org/1999/xlink">
<g id="graph0" class="graph" transform="scale(1 1) rotate(0) translate(4 221)">
<title>software/nixie_clock_esp32_project/components/service_manager/service_manager.c</title>
<!-- Node1 -->
<g id="Node000001" class="node">
<title>Node1</title>
<g id="a_Node000001"><a xlink:title=" ">
<polygon fill="#999999" stroke="#666666" points="549,-217 396,-217 396,-165 549,-165 549,-217"/>
<text text-anchor="start" x="404" y="-205" font-family="Helvetica,sans-Serif" font-size="10.00">software/nixie_clock</text>
<text text-anchor="start" x="404" y="-194" font-family="Helvetica,sans-Serif" font-size="10.00">_esp32_project/components</text>
<text text-anchor="start" x="404" y="-183" font-family="Helvetica,sans-Serif" font-size="10.00">/service_manager/service</text>
<text text-anchor="middle" x="472.5" y="-172" font-family="Helvetica,sans-Serif" font-size="10.00">_manager.c</text>
</a>
</g>
</g>
<!-- Node2 -->
<g id="Node000002" class="node">
<title>Node2</title>
<g id="a_Node000002"><a xlink:title=" ">
<polygon fill="#e0e0e0" stroke="#999999" points="63,-129 0,-129 0,-110 63,-110 63,-129"/>
<text text-anchor="middle" x="31.5" y="-117" font-family="Helvetica,sans-Serif" font-size="10.00">esp_log.h</text>
</a>
</g>
</g>
<!-- Node1&#45;&gt;Node2 -->
<g id="edge1_Node000001_Node000002" class="edge">
<title>Node1&#45;&gt;Node2</title>
<g id="a_edge1_Node000001_Node000002"><a xlink:title=" ">
<path fill="none" stroke="#63b8ff" d="M395.78,-179.69C317.12,-168.8 191.03,-150.51 73.26,-129.24"/>
<polygon fill="#63b8ff" stroke="#63b8ff" points="73.81,-125.79 63.34,-127.44 72.56,-132.67 73.81,-125.79"/>
</a>
</g>
</g>
<!-- Node3 -->
<g id="Node000003" class="node">
<title>Node3</title>
<g id="a_Node000003"><a xlink:title=" ">
<polygon fill="#e0e0e0" stroke="#999999" points="283,-74 170,-74 170,-55 283,-55 283,-74"/>
<text text-anchor="middle" x="226.5" y="-62" font-family="Helvetica,sans-Serif" font-size="10.00">freertos/FreeRTOS.h</text>
</a>
</g>
</g>
<!-- Node1&#45;&gt;Node3 -->
<g id="edge2_Node000001_Node000003" class="edge">
<title>Node1&#45;&gt;Node3</title>
<g id="a_edge2_Node000001_Node000003"><a xlink:title=" ">
<path fill="none" stroke="#63b8ff" d="M395.75,-175.33C359.39,-165.97 316.56,-151.29 282.5,-129 263.93,-116.85 247.79,-96.96 237.67,-82.67"/>
<polygon fill="#63b8ff" stroke="#63b8ff" points="240.45,-80.53 231.93,-74.23 234.66,-84.47 240.45,-80.53"/>
</a>
</g>
</g>
<!-- Node4 -->
<g id="Node000004" class="node">
<title>Node4</title>
<g id="a_Node000004"><a xlink:title=" ">
<polygon fill="#e0e0e0" stroke="#999999" points="404,-74 301,-74 301,-55 404,-55 404,-74"/>
<text text-anchor="middle" x="352.5" y="-62" font-family="Helvetica,sans-Serif" font-size="10.00">freertos/semphr.h</text>
</a>
</g>
</g>
<!-- Node1&#45;&gt;Node4 -->
<g id="edge3_Node000001_Node000004" class="edge">
<title>Node1&#45;&gt;Node4</title>
<g id="a_edge3_Node000001_Node000004"><a xlink:title=" ">
<path fill="none" stroke="#63b8ff" d="M395.61,-184.86C357.12,-177.93 313.68,-162.55 289.5,-129 275.61,-109.73 300.8,-90.83 323.33,-78.72"/>
<polygon fill="#63b8ff" stroke="#63b8ff" points="325.06,-81.77 332.39,-74.12 321.89,-75.53 325.06,-81.77"/>
</a>
</g>
</g>
<!-- Node5 -->
<g id="Node000005" class="node">
<title>Node5</title>
<g id="a_Node000005"><a xlink:href="nvs_8h.html" target="_top" xlink:title=" ">
<polygon fill="white" stroke="#666666" points="456,-129 413,-129 413,-110 456,-110 456,-129"/>
<text text-anchor="middle" x="434.5" y="-117" font-family="Helvetica,sans-Serif" font-size="10.00">nvs.h</text>
</a>
</g>
</g>
<!-- Node1&#45;&gt;Node5 -->
<g id="edge4_Node000001_Node000005" class="edge">
<title>Node1&#45;&gt;Node5</title>
<g id="a_edge4_Node000001_Node000005"><a xlink:title=" ">
<path fill="none" stroke="#63b8ff" d="M458.78,-164.91C453.94,-156.06 448.61,-146.31 444.18,-138.2"/>
<polygon fill="#63b8ff" stroke="#63b8ff" points="447.18,-136.4 439.31,-129.3 441.04,-139.76 447.18,-136.4"/>
</a>
</g>
</g>
<!-- Node7 -->
<g id="Node000007" class="node">
<title>Node7</title>
<g id="a_Node000007"><a xlink:href="wifi_8h.html" target="_top" xlink:title=" ">
<polygon fill="white" stroke="#666666" points="546.5,-129 474.5,-129 474.5,-110 546.5,-110 546.5,-129"/>
<text text-anchor="middle" x="510.5" y="-117" font-family="Helvetica,sans-Serif" font-size="10.00">../wifi/wifi.h</text>
</a>
</g>
</g>
<!-- Node1&#45;&gt;Node7 -->
<g id="edge6_Node000001_Node000007" class="edge">
<title>Node1&#45;&gt;Node7</title>
<g id="a_edge6_Node000001_Node000007"><a xlink:title=" ">
<path fill="none" stroke="#63b8ff" d="M486.22,-164.91C491.06,-156.06 496.39,-146.31 500.82,-138.2"/>
<polygon fill="#63b8ff" stroke="#63b8ff" points="503.96,-139.76 505.69,-129.3 497.82,-136.4 503.96,-139.76"/>
</a>
</g>
</g>
<!-- Node8 -->
<g id="Node000008" class="node">
<title>Node8</title>
<g id="a_Node000008"><a xlink:href="esp__stub_8h.html" target="_top" xlink:title=" ">
<polygon fill="white" stroke="#666666" points="846,-129 731,-129 731,-110 846,-110 846,-129"/>
<text text-anchor="middle" x="788.5" y="-117" font-family="Helvetica,sans-Serif" font-size="10.00">../../main/esp_stub.h</text>
</a>
</g>
</g>
<!-- Node1&#45;&gt;Node8 -->
<g id="edge8_Node000001_Node000008" class="edge">
<title>Node1&#45;&gt;Node8</title>
<g id="a_edge8_Node000001_Node000008"><a xlink:title=" ">
<path fill="none" stroke="#63b8ff" d="M549.4,-173.09C608.71,-160.04 688.93,-142.4 739.7,-131.23"/>
<polygon fill="#63b8ff" stroke="#63b8ff" points="740.75,-134.59 749.76,-129.02 739.24,-127.75 740.75,-134.59"/>
</a>
</g>
</g>
<!-- Node9 -->
<g id="Node000009" class="node">
<title>Node9</title>
<g id="a_Node000009"><a xlink:href="clock__task_8h.html" target="_top" xlink:title=" ">
<polygon fill="white" stroke="#666666" points="204,-129 81,-129 81,-110 204,-110 204,-129"/>
<text text-anchor="middle" x="142.5" y="-117" font-family="Helvetica,sans-Serif" font-size="10.00">../../main/clock_task.h</text>
</a>
</g>
</g>
<!-- Node1&#45;&gt;Node9 -->
<g id="edge9_Node000001_Node000009" class="edge">
<title>Node1&#45;&gt;Node9</title>
<g id="a_edge9_Node000001_Node000009"><a xlink:title=" ">
<path fill="none" stroke="#63b8ff" d="M395.96,-173.88C333.54,-160.73 247.12,-142.53 193.04,-131.14"/>
<polygon fill="#63b8ff" stroke="#63b8ff" points="193.51,-127.67 183.01,-129.03 192.07,-134.52 193.51,-127.67"/>
</a>
</g>
</g>
<!-- Node11 -->
<g id="Node000011" class="node">
<title>Node11</title>
<g id="a_Node000011"><a xlink:href="ntp_8h.html" target="_top" xlink:title=" ">
<polygon fill="white" stroke="#666666" points="905,-129 864,-129 864,-110 905,-110 905,-129"/>
<text text-anchor="middle" x="884.5" y="-117" font-family="Helvetica,sans-Serif" font-size="10.00">ntp.h</text>
</a>
</g>
</g>
<!-- Node1&#45;&gt;Node11 -->
<g id="edge12_Node000001_Node000011" class="edge">
<title>Node1&#45;&gt;Node11</title>
<g id="a_edge12_Node000001_Node000011"><a xlink:title=" ">
<path fill="none" stroke="#63b8ff" d="M549.35,-180.69C624.79,-170.88 743.22,-153.71 853.98,-129.11"/>
<polygon fill="#63b8ff" stroke="#63b8ff" points="855,-132.47 863.99,-126.86 853.47,-125.64 855,-132.47"/>
</a>
</g>
</g>
<!-- Node12 -->
<g id="Node000012" class="node">
<title>Node12</title>
<g id="a_Node000012"><a xlink:href="clock_8h.html" target="_top" xlink:title=" ">
<polygon fill="white" stroke="#666666" points="687,-74 598,-74 598,-55 687,-55 687,-74"/>
<text text-anchor="middle" x="642.5" y="-62" font-family="Helvetica,sans-Serif" font-size="10.00">../clock/clock.h</text>
</a>
</g>
</g>
<!-- Node1&#45;&gt;Node12 -->
<g id="edge13_Node000001_Node000012" class="edge">
<title>Node1&#45;&gt;Node12</title>
<g id="a_edge13_Node000001_Node000012"><a xlink:title=" ">
<path fill="none" stroke="#63b8ff" d="M549.13,-177.74C602.53,-167.44 667.03,-150.91 683.5,-129 695.52,-113.01 678.69,-93.55 663.1,-80.42"/>
<polygon fill="#63b8ff" stroke="#63b8ff" points="665.24,-77.65 655.23,-74.18 660.89,-83.13 665.24,-77.65"/>
</a>
</g>
</g>
<!-- Node14 -->
<g id="Node000014" class="node">
<title>Node14</title>
<g id="a_Node000014"><a xlink:href="pwm_8h.html" target="_top" xlink:title=" ">
<polygon fill="white" stroke="#666666" points="1009.5,-129 923.5,-129 923.5,-110 1009.5,-110 1009.5,-129"/>
<text text-anchor="middle" x="966.5" y="-117" font-family="Helvetica,sans-Serif" font-size="10.00">../pwm/pwm.h</text>
</a>
</g>
</g>
<!-- Node1&#45;&gt;Node14 -->
<g id="edge15_Node000001_Node000014" class="edge">
<title>Node1&#45;&gt;Node14</title>
<g id="a_edge15_Node000001_Node000014"><a xlink:title=" ">
<path fill="none" stroke="#63b8ff" d="M549.24,-180C635.31,-168.65 779.34,-149.25 913.34,-129.14"/>
<polygon fill="#63b8ff" stroke="#63b8ff" points="914.02,-132.58 923.38,-127.63 912.97,-125.66 914.02,-132.58"/>
</a>
</g>
</g>
<!-- Node15 -->
<g id="Node000015" class="node">
<title>Node15</title>
<g id="a_Node000015"><a xlink:href="config_8h.html" target="_top" xlink:title=" ">
<polygon fill="white" stroke="#666666" points="394.5,-129 298.5,-129 298.5,-110 394.5,-110 394.5,-129"/>
<text text-anchor="middle" x="346.5" y="-117" font-family="Helvetica,sans-Serif" font-size="10.00">../config/config.h</text>
</a>
</g>
</g>
<!-- Node1&#45;&gt;Node15 -->
<g id="edge16_Node000001_Node000015" class="edge">
<title>Node1&#45;&gt;Node15</title>
<g id="a_edge16_Node000001_Node000015"><a xlink:title=" ">
<path fill="none" stroke="#63b8ff" d="M427.01,-164.91C408.21,-154.54 387.16,-142.93 371.3,-134.18"/>
<polygon fill="#63b8ff" stroke="#63b8ff" points="372.6,-130.9 362.16,-129.14 369.22,-137.03 372.6,-130.9"/>
</a>
</g>
</g>
<!-- Node16 -->
<g id="Node000016" class="node">
<title>Node16</title>
<g id="a_Node000016"><a xlink:href="service__manager_8h.html" target="_top" xlink:title=" ">
<polygon fill="white" stroke="#666666" points="674,-129 565,-129 565,-110 674,-110 674,-129"/>
<text text-anchor="middle" x="619.5" y="-117" font-family="Helvetica,sans-Serif" font-size="10.00">service_manager.h</text>
</a>
</g>
</g>
<!-- Node1&#45;&gt;Node16 -->
<g id="edge21_Node000001_Node000016" class="edge">
<title>Node1&#45;&gt;Node16</title>
<g id="a_edge21_Node000001_Node000016"><a xlink:title=" ">
<path fill="none" stroke="#63b8ff" d="M525.57,-164.91C548.12,-154.25 573.46,-142.27 592.13,-133.44"/>
<polygon fill="#63b8ff" stroke="#63b8ff" points="593.69,-136.57 601.24,-129.14 590.7,-130.25 593.69,-136.57"/>
</a>
</g>
</g>
<!-- Node6 -->
<g id="Node000006" class="node">
<title>Node6</title>
<g id="a_Node000006"><a xlink:title=" ">
<polygon fill="#e0e0e0" stroke="#999999" points="515,-74 454,-74 454,-55 515,-55 515,-74"/>
<text text-anchor="middle" x="484.5" y="-62" font-family="Helvetica,sans-Serif" font-size="10.00">esp_err.h</text>
</a>
</g>
</g>
<!-- Node5&#45;&gt;Node6 -->
<g id="edge5_Node000005_Node000006" class="edge">
<title>Node5&#45;&gt;Node6</title>
<g id="a_edge5_Node000005_Node000006"><a xlink:title=" ">
<path fill="none" stroke="#63b8ff" d="M442.76,-109.75C449.96,-102.11 460.61,-90.82 469.35,-81.56"/>
<polygon fill="#63b8ff" stroke="#63b8ff" points="472.08,-83.76 476.4,-74.09 466.99,-78.96 472.08,-83.76"/>
</a>
</g>
</g>
<!-- Node7&#45;&gt;Node6 -->
<g id="edge7_Node000007_Node000006" class="edge">
<title>Node7&#45;&gt;Node6</title>
<g id="a_edge7_Node000007_Node000006"><a xlink:title=" ">
<path fill="none" stroke="#63b8ff" d="M506.21,-109.75C502.69,-102.57 497.59,-92.18 493.22,-83.27"/>
<polygon fill="#63b8ff" stroke="#63b8ff" points="496.26,-81.53 488.71,-74.09 489.98,-84.61 496.26,-81.53"/>
</a>
</g>
</g>
<!-- Node9&#45;&gt;Node3 -->
<g id="edge10_Node000009_Node000003" class="edge">
<title>Node9&#45;&gt;Node3</title>
<g id="a_edge10_Node000009_Node000003"><a xlink:title=" ">
<path fill="none" stroke="#63b8ff" d="M156,-109.98C168.9,-101.84 188.6,-89.41 203.9,-79.76"/>
<polygon fill="#63b8ff" stroke="#63b8ff" points="206.17,-82.47 212.76,-74.17 202.43,-76.55 206.17,-82.47"/>
</a>
</g>
</g>
<!-- Node10 -->
<g id="Node000010" class="node">
<title>Node10</title>
<g id="a_Node000010"><a xlink:title=" ">
<polygon fill="#e0e0e0" stroke="#999999" points="151.5,-74 63.5,-74 63.5,-55 151.5,-55 151.5,-74"/>
<text text-anchor="middle" x="107.5" y="-62" font-family="Helvetica,sans-Serif" font-size="10.00">freertos/task.h</text>
</a>
</g>
</g>
<!-- Node9&#45;&gt;Node10 -->
<g id="edge11_Node000009_Node000010" class="edge">
<title>Node9&#45;&gt;Node10</title>
<g id="a_edge11_Node000009_Node000010"><a xlink:title=" ">
<path fill="none" stroke="#63b8ff" d="M136.72,-109.75C131.88,-102.42 124.82,-91.73 118.86,-82.7"/>
<polygon fill="#63b8ff" stroke="#63b8ff" points="121.6,-80.5 113.17,-74.09 115.76,-84.36 121.6,-80.5"/>
</a>
</g>
</g>
<!-- Node13 -->
<g id="Node000013" class="node">
<title>Node13</title>
<g id="a_Node000013"><a xlink:title=" ">
<polygon fill="#e0e0e0" stroke="#999999" points="669,-19 616,-19 616,0 669,0 669,-19"/>
<text text-anchor="middle" x="642.5" y="-7" font-family="Helvetica,sans-Serif" font-size="10.00">stdint.h</text>
</a>
</g>
</g>
<!-- Node12&#45;&gt;Node13 -->
<g id="edge14_Node000012_Node000013" class="edge">
<title>Node12&#45;&gt;Node13</title>
<g id="a_edge14_Node000012_Node000013"><a xlink:title=" ">
<path fill="none" stroke="#63b8ff" d="M642.5,-54.75C642.5,-47.8 642.5,-37.85 642.5,-29.13"/>
<polygon fill="#63b8ff" stroke="#63b8ff" points="646,-29.09 642.5,-19.09 639,-29.09 646,-29.09"/>
</a>
</g>
</g>
<!-- Node15&#45;&gt;Node3 -->
<g id="edge19_Node000015_Node000003" class="edge">
<title>Node15&#45;&gt;Node3</title>
<g id="a_edge19_Node000015_Node000003"><a xlink:title=" ">
<path fill="none" stroke="#63b8ff" d="M327.22,-109.98C307.83,-101.42 277.69,-88.11 255.43,-78.28"/>
<polygon fill="#63b8ff" stroke="#63b8ff" points="256.69,-75.01 246.13,-74.17 253.86,-81.41 256.69,-75.01"/>
</a>
</g>
</g>
<!-- Node15&#45;&gt;Node4 -->
<g id="edge20_Node000015_Node000004" class="edge">
<title>Node15&#45;&gt;Node4</title>
<g id="a_edge20_Node000015_Node000004"><a xlink:title=" ">
<path fill="none" stroke="#63b8ff" d="M347.49,-109.75C348.28,-102.8 349.4,-92.85 350.39,-84.13"/>
<polygon fill="#63b8ff" stroke="#63b8ff" points="353.88,-84.42 351.53,-74.09 346.92,-83.63 353.88,-84.42"/>
</a>
</g>
</g>
<!-- Node15&#45;&gt;Node6 -->
<g id="edge17_Node000015_Node000006" class="edge">
<title>Node15&#45;&gt;Node6</title>
<g id="a_edge17_Node000015_Node000006"><a xlink:title=" ">
<path fill="none" stroke="#63b8ff" d="M368.67,-109.98C391.27,-101.3 426.56,-87.75 452.25,-77.88"/>
<polygon fill="#63b8ff" stroke="#63b8ff" points="453.84,-81.02 461.92,-74.17 451.33,-74.49 453.84,-81.02"/>
</a>
</g>
</g>
<!-- Node15&#45;&gt;Node12 -->
<g id="edge18_Node000015_Node000012" class="edge">
<title>Node15&#45;&gt;Node12</title>
<g id="a_edge18_Node000015_Node000012"><a xlink:title=" ">
<path fill="none" stroke="#63b8ff" d="M394.06,-109.98C446.98,-100.51 532.35,-85.22 587.95,-75.27"/>
<polygon fill="#63b8ff" stroke="#63b8ff" points="588.74,-78.68 597.97,-73.47 587.51,-71.79 588.74,-78.68"/>
</a>
</g>
</g>
<!-- Node16&#45;&gt;Node6 -->
<g id="edge22_Node000016_Node000006" class="edge">
<title>Node16&#45;&gt;Node6</title>
<g id="a_edge22_Node000016_Node000006"><a xlink:title=" ">
<path fill="none" stroke="#63b8ff" d="M597.81,-109.98C575.7,-101.3 541.18,-87.75 516.05,-77.88"/>
<polygon fill="#63b8ff" stroke="#63b8ff" points="517.17,-74.57 506.58,-74.17 514.61,-81.08 517.17,-74.57"/>
</a>
</g>
</g>
</g>
</svg>
