<?xml version="1.0" encoding="UTF-8" standalone="no"?>
<!DOCTYPE svg PUBLIC "-//W3C//DTD SVG 1.1//EN"
 "http://www.w3.org/Graphics/SVG/1.1/DTD/svg11.dtd">
<!-- Generated by graphviz version 2.43.0 (0)
 -->
<!-- Title: software/nixie_clock_esp32_project/components/webserver/webserver.c Pages: 1 -->
<svg width="929pt" height="214pt"
 viewBox="0.00 0.00 929.00 214.00" xmlns="http://www.w3.org/2000/svg" xmlns:xlink="http://www.w3.org/1999/xlink">
<g id="graph0" class="graph" transform="scale(1 1) rotate(0) translate(4 210)">
<title>software/nixie_clock_esp32_project/components/webserver/webserver.c</title>
<!-- Node1 -->
<g id="Node000001" class="node">
<title>Node1</title>
<g id="a_Node000001"><a xlink:title=" ">
<polygon fill="#999999" stroke="#666666" points="512,-206 359,-206 359,-165 512,-165 512,-206"/>
<text text-anchor="start" x="367" y="-194" font-family="Helvetica,sans-Serif" font-size="10.00">software/nixie_clock</text>
<text text-anchor="start" x="367" y="-183" font-family="Helvetica,sans-Serif" font-size="10.00">_esp32_project/components</text>
<text text-anchor="middle" x="435.5" y="-172" font-family="Helvetica,sans-Serif" font-size="10.00">/webserver/webserver.c</text>
</a>
</g>
</g>
<!-- Node2 -->
<g id="Node000002" class="node">
<title>Node2</title>
<g id="a_Node000002"><a xlink:title=" ">
<polygon fill="#e0e0e0" stroke="#999999" points="51,-129 0,-129 0,-110 51,-110 51,-129"/>
<text text-anchor="middle" x="25.5" y="-117" font-family="Helvetica,sans-Serif" font-size="10.00">errno.h</text>
</a>
</g>
</g>
<!-- Node1&#45;&gt;Node2 -->
<g id="edge1_Node000001_Node000002" class="edge">
<title>Node1&#45;&gt;Node2</title>
<g id="a_edge1_Node000001_Node000002"><a xlink:title=" ">
<path fill="none" stroke="#63b8ff" d="M358.66,-175.21C284.84,-165.82 170.02,-149.96 60.92,-128.91"/>
<polygon fill="#63b8ff" stroke="#63b8ff" points="61.54,-125.47 51.05,-126.99 60.2,-132.34 61.54,-125.47"/>
</a>
</g>
</g>
<!-- Node3 -->
<g id="Node000003" class="node">
<title>Node3</title>
<g id="a_Node000003"><a xlink:title=" ">
<polygon fill="#e0e0e0" stroke="#999999" points="614,-74 501,-74 501,-55 614,-55 614,-74"/>
<text text-anchor="middle" x="557.5" y="-62" font-family="Helvetica,sans-Serif" font-size="10.00">freertos/FreeRTOS.h</text>
</a>
</g>
</g>
<!-- Node1&#45;&gt;Node3 -->
<g id="edge2_Node000001_Node000003" class="edge">
<title>Node1&#45;&gt;Node3</title>
<g id="a_edge2_Node000001_Node000003"><a xlink:title=" ">
<path fill="none" stroke="#63b8ff" d="M512.1,-179.88C547.44,-173.45 586.38,-159.33 608.5,-129 621.23,-111.54 600.6,-92.3 581.89,-79.63"/>
<polygon fill="#63b8ff" stroke="#63b8ff" points="583.6,-76.57 573.29,-74.13 579.83,-82.47 583.6,-76.57"/>
</a>
</g>
</g>
<!-- Node4 -->
<g id="Node000004" class="node">
<title>Node4</title>
<g id="a_Node000004"><a xlink:title=" ">
<polygon fill="#e0e0e0" stroke="#999999" points="251.5,-129 163.5,-129 163.5,-110 251.5,-110 251.5,-129"/>
<text text-anchor="middle" x="207.5" y="-117" font-family="Helvetica,sans-Serif" font-size="10.00">freertos/task.h</text>
</a>
</g>
</g>
<!-- Node1&#45;&gt;Node4 -->
<g id="edge3_Node000001_Node000004" class="edge">
<title>Node1&#45;&gt;Node4</title>
<g id="a_edge3_Node000001_Node000004"><a xlink:title=" ">
<path fill="none" stroke="#63b8ff" d="M365.85,-164.95C327.04,-154.06 280.11,-140.88 247.46,-131.72"/>
<polygon fill="#63b8ff" stroke="#63b8ff" points="248.38,-128.34 237.81,-129.01 246.49,-135.08 248.38,-128.34"/>
</a>
</g>
</g>
<!-- Node5 -->
<g id="Node000005" class="node">
<title>Node5</title>
<g id="a_Node000005"><a xlink:title=" ">
<polygon fill="#e0e0e0" stroke="#999999" points="335,-129 270,-129 270,-110 335,-110 335,-129"/>
<text text-anchor="middle" x="302.5" y="-117" font-family="Helvetica,sans-Serif" font-size="10.00">esp_wifi.h</text>
</a>
</g>
</g>
<!-- Node1&#45;&gt;Node5 -->
<g id="edge4_Node000001_Node000005" class="edge">
<title>Node1&#45;&gt;Node5</title>
<g id="a_edge4_Node000001_Node000005"><a xlink:title=" ">
<path fill="none" stroke="#63b8ff" d="M394.87,-164.95C373.67,-154.75 348.3,-142.54 329.52,-133.5"/>
<polygon fill="#63b8ff" stroke="#63b8ff" points="330.88,-130.27 320.35,-129.09 327.85,-136.58 330.88,-130.27"/>
</a>
</g>
</g>
<!-- Node6 -->
<g id="Node000006" class="node">
<title>Node6</title>
<g id="a_Node000006"><a xlink:title=" ">
<polygon fill="#e0e0e0" stroke="#999999" points="429.5,-129 353.5,-129 353.5,-110 429.5,-110 429.5,-129"/>
<text text-anchor="middle" x="391.5" y="-117" font-family="Helvetica,sans-Serif" font-size="10.00">esp_event.h</text>
</a>
</g>
</g>
<!-- Node1&#45;&gt;Node6 -->
<g id="edge5_Node000001_Node000006" class="edge">
<title>Node1&#45;&gt;Node6</title>
<g id="a_edge5_Node000001_Node000006"><a xlink:title=" ">
<path fill="none" stroke="#63b8ff" d="M422.06,-164.95C416.05,-156.2 409.02,-145.99 403.23,-137.56"/>
<polygon fill="#63b8ff" stroke="#63b8ff" points="406.07,-135.52 397.52,-129.26 400.3,-139.48 406.07,-135.52"/>
</a>
</g>
</g>
<!-- Node7 -->
<g id="Node000007" class="node">
<title>Node7</title>
<g id="a_Node000007"><a xlink:title=" ">
<polygon fill="#e0e0e0" stroke="#999999" points="511,-129 448,-129 448,-110 511,-110 511,-129"/>
<text text-anchor="middle" x="479.5" y="-117" font-family="Helvetica,sans-Serif" font-size="10.00">esp_log.h</text>
</a>
</g>
</g>
<!-- Node1&#45;&gt;Node7 -->
<g id="edge6_Node000001_Node000007" class="edge">
<title>Node1&#45;&gt;Node7</title>
<g id="a_edge6_Node000001_Node000007"><a xlink:title=" ">
<path fill="none" stroke="#63b8ff" d="M448.94,-164.95C454.95,-156.2 461.98,-145.99 467.77,-137.56"/>
<polygon fill="#63b8ff" stroke="#63b8ff" points="470.7,-139.48 473.48,-129.26 464.93,-135.52 470.7,-139.48"/>
</a>
</g>
</g>
<!-- Node8 -->
<g id="Node000008" class="node">
<title>Node8</title>
<g id="a_Node000008"><a xlink:title=" ">
<polygon fill="#e0e0e0" stroke="#999999" points="599.5,-129 529.5,-129 529.5,-110 599.5,-110 599.5,-129"/>
<text text-anchor="middle" x="564.5" y="-117" font-family="Helvetica,sans-Serif" font-size="10.00">esp_netif.h</text>
</a>
</g>
</g>
<!-- Node1&#45;&gt;Node8 -->
<g id="edge7_Node000001_Node000008" class="edge">
<title>Node1&#45;&gt;Node8</title>
<g id="a_edge7_Node000001_Node000008"><a xlink:title=" ">
<path fill="none" stroke="#63b8ff" d="M474.91,-164.95C495.29,-154.84 519.63,-142.76 537.79,-133.75"/>
<polygon fill="#63b8ff" stroke="#63b8ff" points="539.78,-136.67 547.18,-129.09 536.67,-130.4 539.78,-136.67"/>
</a>
</g>
</g>
<!-- Node9 -->
<g id="Node000009" class="node">
<title>Node9</title>
<g id="a_Node000009"><a xlink:href="webserver_8h.html" target="_top" xlink:title=" ">
<polygon fill="white" stroke="#666666" points="145.5,-129 69.5,-129 69.5,-110 145.5,-110 145.5,-129"/>
<text text-anchor="middle" x="107.5" y="-117" font-family="Helvetica,sans-Serif" font-size="10.00">webserver.h</text>
</a>
</g>
</g>
<!-- Node1&#45;&gt;Node9 -->
<g id="edge8_Node000001_Node000009" class="edge">
<title>Node1&#45;&gt;Node9</title>
<g id="a_edge8_Node000001_Node000009"><a xlink:title=" ">
<path fill="none" stroke="#63b8ff" d="M358.6,-169.49C295.81,-157.24 209.01,-140.31 155.65,-129.9"/>
<polygon fill="#63b8ff" stroke="#63b8ff" points="156.25,-126.45 145.77,-127.97 154.91,-133.32 156.25,-126.45"/>
</a>
</g>
</g>
<!-- Node11 -->
<g id="Node000011" class="node">
<title>Node11</title>
<g id="a_Node000011"><a xlink:href="config_8h.html" target="_top" xlink:title=" ">
<polygon fill="white" stroke="#666666" points="711,-129 656,-129 656,-110 711,-110 711,-129"/>
<text text-anchor="middle" x="683.5" y="-117" font-family="Helvetica,sans-Serif" font-size="10.00">config.h</text>
</a>
</g>
</g>
<!-- Node1&#45;&gt;Node11 -->
<g id="edge10_Node000001_Node000011" class="edge">
<title>Node1&#45;&gt;Node11</title>
<g id="a_edge10_Node000001_Node000011"><a xlink:title=" ">
<path fill="none" stroke="#63b8ff" d="M511.26,-164.95C555.85,-153.44 610.32,-139.39 645.9,-130.2"/>
<polygon fill="#63b8ff" stroke="#63b8ff" points="647.05,-133.52 655.86,-127.63 645.31,-126.74 647.05,-133.52"/>
</a>
</g>
</g>
<!-- Node16 -->
<g id="Node000016" class="node">
<title>Node16</title>
<g id="a_Node000016"><a xlink:href="esp__stub_8h.html" target="_top" xlink:title=" ">
<polygon fill="white" stroke="#666666" points="844,-129 729,-129 729,-110 844,-110 844,-129"/>
<text text-anchor="middle" x="786.5" y="-117" font-family="Helvetica,sans-Serif" font-size="10.00">../../main/esp_stub.h</text>
</a>
</g>
</g>
<!-- Node1&#45;&gt;Node16 -->
<g id="edge16_Node000001_Node000016" class="edge">
<title>Node1&#45;&gt;Node16</title>
<g id="a_edge16_Node000001_Node000016"><a xlink:title=" ">
<path fill="none" stroke="#63b8ff" d="M512.09,-170.53C577.69,-158.57 670.65,-141.62 729.76,-130.85"/>
<polygon fill="#63b8ff" stroke="#63b8ff" points="730.46,-134.28 739.67,-129.04 729.2,-127.39 730.46,-134.28"/>
</a>
</g>
</g>
<!-- Node10 -->
<g id="Node000010" class="node">
<title>Node10</title>
<g id="a_Node000010"><a xlink:title=" ">
<polygon fill="#e0e0e0" stroke="#999999" points="159,-74 56,-74 56,-55 159,-55 159,-74"/>
<text text-anchor="middle" x="107.5" y="-62" font-family="Helvetica,sans-Serif" font-size="10.00">esp_http_server.h</text>
</a>
</g>
</g>
<!-- Node9&#45;&gt;Node10 -->
<g id="edge9_Node000009_Node000010" class="edge">
<title>Node9&#45;&gt;Node10</title>
<g id="a_edge9_Node000009_Node000010"><a xlink:title=" ">
<path fill="none" stroke="#63b8ff" d="M107.5,-109.75C107.5,-102.8 107.5,-92.85 107.5,-84.13"/>
<polygon fill="#63b8ff" stroke="#63b8ff" points="111,-84.09 107.5,-74.09 104,-84.09 111,-84.09"/>
</a>
</g>
</g>
<!-- Node11&#45;&gt;Node3 -->
<g id="edge14_Node000011_Node000003" class="edge">
<title>Node11&#45;&gt;Node3</title>
<g id="a_edge14_Node000011_Node000003"><a xlink:title=" ">
<path fill="none" stroke="#63b8ff" d="M663.26,-109.98C642.8,-101.38 610.97,-87.99 587.57,-78.15"/>
<polygon fill="#63b8ff" stroke="#63b8ff" points="588.69,-74.82 578.11,-74.17 585.97,-81.27 588.69,-74.82"/>
</a>
</g>
</g>
<!-- Node12 -->
<g id="Node000012" class="node">
<title>Node12</title>
<g id="a_Node000012"><a xlink:title=" ">
<polygon fill="#e0e0e0" stroke="#999999" points="814,-74 753,-74 753,-55 814,-55 814,-74"/>
<text text-anchor="middle" x="783.5" y="-62" font-family="Helvetica,sans-Serif" font-size="10.00">esp_err.h</text>
</a>
</g>
</g>
<!-- Node11&#45;&gt;Node12 -->
<g id="edge11_Node000011_Node000012" class="edge">
<title>Node11&#45;&gt;Node12</title>
<g id="a_edge11_Node000011_Node000012"><a xlink:title=" ">
<path fill="none" stroke="#63b8ff" d="M699.57,-109.98C715.36,-101.61 739.72,-88.7 758.13,-78.95"/>
<polygon fill="#63b8ff" stroke="#63b8ff" points="759.94,-81.95 767.14,-74.17 756.67,-75.76 759.94,-81.95"/>
</a>
</g>
</g>
<!-- Node13 -->
<g id="Node000013" class="node">
<title>Node13</title>
<g id="a_Node000013"><a xlink:href="clock_8h.html" target="_top" xlink:title=" ">
<polygon fill="white" stroke="#666666" points="921,-74 832,-74 832,-55 921,-55 921,-74"/>
<text text-anchor="middle" x="876.5" y="-62" font-family="Helvetica,sans-Serif" font-size="10.00">../clock/clock.h</text>
</a>
</g>
</g>
<!-- Node11&#45;&gt;Node13 -->
<g id="edge12_Node000011_Node000013" class="edge">
<title>Node11&#45;&gt;Node13</title>
<g id="a_edge12_Node000011_Node000013"><a xlink:title=" ">
<path fill="none" stroke="#63b8ff" d="M711.15,-110.91C743.64,-101.98 797.85,-87.1 835.3,-76.81"/>
<polygon fill="#63b8ff" stroke="#63b8ff" points="836.67,-80.07 845.38,-74.05 834.81,-73.32 836.67,-80.07"/>
</a>
</g>
</g>
<!-- Node15 -->
<g id="Node000015" class="node">
<title>Node15</title>
<g id="a_Node000015"><a xlink:title=" ">
<polygon fill="#e0e0e0" stroke="#999999" points="735,-74 632,-74 632,-55 735,-55 735,-74"/>
<text text-anchor="middle" x="683.5" y="-62" font-family="Helvetica,sans-Serif" font-size="10.00">freertos/semphr.h</text>
</a>
</g>
</g>
<!-- Node11&#45;&gt;Node15 -->
<g id="edge15_Node000011_Node000015" class="edge">
<title>Node11&#45;&gt;Node15</title>
<g id="a_edge15_Node000011_Node000015"><a xlink:title=" ">
<path fill="none" stroke="#63b8ff" d="M683.5,-109.75C683.5,-102.8 683.5,-92.85 683.5,-84.13"/>
<polygon fill="#63b8ff" stroke="#63b8ff" points="687,-84.09 683.5,-74.09 680,-84.09 687,-84.09"/>
</a>
</g>
</g>
<!-- Node14 -->
<g id="Node000014" class="node">
<title>Node14</title>
<g id="a_Node000014"><a xlink:title=" ">
<polygon fill="#e0e0e0" stroke="#999999" points="903,-19 850,-19 850,0 903,0 903,-19"/>
<text text-anchor="middle" x="876.5" y="-7" font-family="Helvetica,sans-Serif" font-size="10.00">stdint.h</text>
</a>
</g>
</g>
<!-- Node13&#45;&gt;Node14 -->
<g id="edge13_Node000013_Node000014" class="edge">
<title>Node13&#45;&gt;Node14</title>
<g id="a_edge13_Node000013_Node000014"><a xlink:title=" ">
<path fill="none" stroke="#63b8ff" d="M876.5,-54.75C876.5,-47.8 876.5,-37.85 876.5,-29.13"/>
<polygon fill="#63b8ff" stroke="#63b8ff" points="880,-29.09 876.5,-19.09 873,-29.09 880,-29.09"/>
</a>
</g>
</g>
</g>
</svg>
