<?xml version="1.0" encoding="UTF-8" standalone="no"?>
<!DOCTYPE svg PUBLIC "-//W3C//DTD SVG 1.1//EN"
 "http://www.w3.org/Graphics/SVG/1.1/DTD/svg11.dtd">
<!-- Generated by graphviz version 2.43.0 (0)
 -->
<!-- Title: software/nixie_clock_esp32_project/components/webserver/webserver.c Pages: 1 -->
<svg width="1089pt" height="225pt"
 viewBox="0.00 0.00 1089.00 225.00" xmlns="http://www.w3.org/2000/svg" xmlns:xlink="http://www.w3.org/1999/xlink">
<g id="graph0" class="graph" transform="scale(1 1) rotate(0) translate(4 221)">
<title>software/nixie_clock_esp32_project/components/webserver/webserver.c</title>
<!-- Node1 -->
<g id="Node000001" class="node">
<title>Node1</title>
<g id="a_Node000001"><a xlink:title=" ">
<polygon fill="#999999" stroke="#666666" points="583,-217 430,-217 430,-176 583,-176 583,-217"/>
<text text-anchor="start" x="438" y="-205" font-family="Helvetica,sans-Serif" font-size="10.00">software/nixie_clock</text>
<text text-anchor="start" x="438" y="-194" font-family="Helvetica,sans-Serif" font-size="10.00">_esp32_project/components</text>
<text text-anchor="middle" x="506.5" y="-183" font-family="Helvetica,sans-Serif" font-size="10.00">/webserver/webserver.c</text>
</a>
</g>
</g>
<!-- Node2 -->
<g id="Node000002" class="node">
<title>Node2</title>
<g id="a_Node000002"><a xlink:title=" ">
<polygon fill="#e0e0e0" stroke="#999999" points="51,-134.5 0,-134.5 0,-115.5 51,-115.5 51,-134.5"/>
<text text-anchor="middle" x="25.5" y="-122.5" font-family="Helvetica,sans-Serif" font-size="10.00">errno.h</text>
</a>
</g>
</g>
<!-- Node1&#45;&gt;Node2 -->
<g id="edge1_Node000001_Node000002" class="edge">
<title>Node1&#45;&gt;Node2</title>
<g id="a_edge1_Node000001_Node000002"><a xlink:title=" ">
<path fill="none" stroke="#63b8ff" d="M429.8,-192.2C339.81,-186.91 186.75,-173.45 59.5,-140 57.56,-139.49 55.57,-138.89 53.6,-138.24"/>
<polygon fill="#63b8ff" stroke="#63b8ff" points="54.49,-134.83 43.9,-134.62 52.04,-141.39 54.49,-134.83"/>
</a>
</g>
</g>
<!-- Node3 -->
<g id="Node000003" class="node">
<title>Node3</title>
<g id="a_Node000003"><a xlink:title=" ">
<polygon fill="#e0e0e0" stroke="#999999" points="122,-134.5 69,-134.5 69,-115.5 122,-115.5 122,-134.5"/>
<text text-anchor="middle" x="95.5" y="-122.5" font-family="Helvetica,sans-Serif" font-size="10.00">string.h</text>
</a>
</g>
</g>
<!-- Node1&#45;&gt;Node3 -->
<g id="edge2_Node000001_Node000003" class="edge">
<title>Node1&#45;&gt;Node3</title>
<g id="a_edge2_Node000001_Node000003"><a xlink:title=" ">
<path fill="none" stroke="#63b8ff" d="M429.71,-189.21C353.19,-181.76 232.81,-166.83 131.5,-140 129.2,-139.39 126.85,-138.68 124.51,-137.91"/>
<polygon fill="#63b8ff" stroke="#63b8ff" points="125.64,-134.6 115.04,-134.51 123.27,-141.19 125.64,-134.6"/>
</a>
</g>
</g>
<!-- Node4 -->
<g id="Node000004" class="node">
<title>Node4</title>
<g id="a_Node000004"><a xlink:title=" ">
<polygon fill="#e0e0e0" stroke="#999999" points="966,-74 853,-74 853,-55 966,-55 966,-74"/>
<text text-anchor="middle" x="909.5" y="-62" font-family="Helvetica,sans-Serif" font-size="10.00">freertos/FreeRTOS.h</text>
</a>
</g>
</g>
<!-- Node1&#45;&gt;Node4 -->
<g id="edge3_Node000001_Node000004" class="edge">
<title>Node1&#45;&gt;Node4</title>
<g id="a_edge3_Node000001_Node000004"><a xlink:title=" ">
<path fill="none" stroke="#63b8ff" d="M583.26,-191.96C647.49,-186.63 740.26,-173.3 814.5,-140 816.67,-139.03 863.45,-102.04 890.54,-80.55"/>
<polygon fill="#63b8ff" stroke="#63b8ff" points="892.9,-83.15 898.56,-74.19 888.55,-77.66 892.9,-83.15"/>
</a>
</g>
</g>
<!-- Node5 -->
<g id="Node000005" class="node">
<title>Node5</title>
<g id="a_Node000005"><a xlink:title=" ">
<polygon fill="#e0e0e0" stroke="#999999" points="322.5,-134.5 234.5,-134.5 234.5,-115.5 322.5,-115.5 322.5,-134.5"/>
<text text-anchor="middle" x="278.5" y="-122.5" font-family="Helvetica,sans-Serif" font-size="10.00">freertos/task.h</text>
</a>
</g>
</g>
<!-- Node1&#45;&gt;Node5 -->
<g id="edge4_Node000001_Node000005" class="edge">
<title>Node1&#45;&gt;Node5</title>
<g id="a_edge4_Node000001_Node000005"><a xlink:title=" ">
<path fill="none" stroke="#63b8ff" d="M442.38,-175.96C401.62,-163.53 350.27,-147.88 316.01,-137.44"/>
<polygon fill="#63b8ff" stroke="#63b8ff" points="316.98,-134.07 306.4,-134.5 314.94,-140.77 316.98,-134.07"/>
</a>
</g>
</g>
<!-- Node6 -->
<g id="Node000006" class="node">
<title>Node6</title>
<g id="a_Node000006"><a xlink:title=" ">
<polygon fill="#e0e0e0" stroke="#999999" points="406,-134.5 341,-134.5 341,-115.5 406,-115.5 406,-134.5"/>
<text text-anchor="middle" x="373.5" y="-122.5" font-family="Helvetica,sans-Serif" font-size="10.00">esp_wifi.h</text>
</a>
</g>
</g>
<!-- Node1&#45;&gt;Node6 -->
<g id="edge5_Node000001_Node000006" class="edge">
<title>Node1&#45;&gt;Node6</title>
<g id="a_edge5_Node000001_Node000006"><a xlink:title=" ">
<path fill="none" stroke="#63b8ff" d="M469.1,-175.96C446.65,-164.22 418.69,-149.61 398.82,-139.23"/>
<polygon fill="#63b8ff" stroke="#63b8ff" points="400.26,-136.03 389.77,-134.5 397.01,-142.24 400.26,-136.03"/>
</a>
</g>
</g>
<!-- Node7 -->
<g id="Node000007" class="node">
<title>Node7</title>
<g id="a_Node000007"><a xlink:title=" ">
<polygon fill="#e0e0e0" stroke="#999999" points="500.5,-134.5 424.5,-134.5 424.5,-115.5 500.5,-115.5 500.5,-134.5"/>
<text text-anchor="middle" x="462.5" y="-122.5" font-family="Helvetica,sans-Serif" font-size="10.00">esp_event.h</text>
</a>
</g>
</g>
<!-- Node1&#45;&gt;Node7 -->
<g id="edge6_Node000001_Node000007" class="edge">
<title>Node1&#45;&gt;Node7</title>
<g id="a_edge6_Node000001_Node000007"><a xlink:title=" ">
<path fill="none" stroke="#63b8ff" d="M494.01,-175.77C487.54,-165.55 479.71,-153.19 473.48,-143.34"/>
<polygon fill="#63b8ff" stroke="#63b8ff" points="476.39,-141.4 468.08,-134.82 470.48,-145.14 476.39,-141.4"/>
</a>
</g>
</g>
<!-- Node8 -->
<g id="Node000008" class="node">
<title>Node8</title>
<g id="a_Node000008"><a xlink:title=" ">
<polygon fill="#e0e0e0" stroke="#999999" points="582,-134.5 519,-134.5 519,-115.5 582,-115.5 582,-134.5"/>
<text text-anchor="middle" x="550.5" y="-122.5" font-family="Helvetica,sans-Serif" font-size="10.00">esp_log.h</text>
</a>
</g>
</g>
<!-- Node1&#45;&gt;Node8 -->
<g id="edge7_Node000001_Node000008" class="edge">
<title>Node1&#45;&gt;Node8</title>
<g id="a_edge7_Node000001_Node000008"><a xlink:title=" ">
<path fill="none" stroke="#63b8ff" d="M518.99,-175.77C525.46,-165.55 533.29,-153.19 539.52,-143.34"/>
<polygon fill="#63b8ff" stroke="#63b8ff" points="542.52,-145.14 544.92,-134.82 536.61,-141.4 542.52,-145.14"/>
</a>
</g>
</g>
<!-- Node9 -->
<g id="Node000009" class="node">
<title>Node9</title>
<g id="a_Node000009"><a xlink:title=" ">
<polygon fill="#e0e0e0" stroke="#999999" points="670.5,-134.5 600.5,-134.5 600.5,-115.5 670.5,-115.5 670.5,-134.5"/>
<text text-anchor="middle" x="635.5" y="-122.5" font-family="Helvetica,sans-Serif" font-size="10.00">esp_netif.h</text>
</a>
</g>
</g>
<!-- Node1&#45;&gt;Node9 -->
<g id="edge8_Node000001_Node000009" class="edge">
<title>Node1&#45;&gt;Node9</title>
<g id="a_edge8_Node000001_Node000009"><a xlink:title=" ">
<path fill="none" stroke="#63b8ff" d="M542.78,-175.96C564.45,-164.28 591.42,-149.75 610.68,-139.37"/>
<polygon fill="#63b8ff" stroke="#63b8ff" points="612.57,-142.33 619.72,-134.5 609.25,-136.17 612.57,-142.33"/>
</a>
</g>
</g>
<!-- Node10 -->
<g id="Node000010" class="node">
<title>Node10</title>
<g id="a_Node000010"><a xlink:href="webserver_8h.html" target="_top" xlink:title=" ">
<polygon fill="white" stroke="#666666" points="216.5,-134.5 140.5,-134.5 140.5,-115.5 216.5,-115.5 216.5,-134.5"/>
<text text-anchor="middle" x="178.5" y="-122.5" font-family="Helvetica,sans-Serif" font-size="10.00">webserver.h</text>
</a>
</g>
</g>
<!-- Node1&#45;&gt;Node10 -->
<g id="edge9_Node000001_Node000010" class="edge">
<title>Node1&#45;&gt;Node10</title>
<g id="a_edge9_Node000001_Node000010"><a xlink:title=" ">
<path fill="none" stroke="#63b8ff" d="M429.74,-182.36C373.01,-172.16 294.05,-156.94 225.5,-140 222.28,-139.2 218.94,-138.32 215.61,-137.41"/>
<polygon fill="#63b8ff" stroke="#63b8ff" points="216.3,-133.96 205.72,-134.58 214.37,-140.69 216.3,-133.96"/>
</a>
</g>
</g>
<!-- Node12 -->
<g id="Node000012" class="node">
<title>Node12</title>
<g id="a_Node000012"><a xlink:href="config_8h.html" target="_top" xlink:title=" ">
<polygon fill="white" stroke="#666666" points="805,-134.5 750,-134.5 750,-115.5 805,-115.5 805,-134.5"/>
<text text-anchor="middle" x="777.5" y="-122.5" font-family="Helvetica,sans-Serif" font-size="10.00">config.h</text>
</a>
</g>
</g>
<!-- Node1&#45;&gt;Node12 -->
<g id="edge11_Node000001_Node000012" class="edge">
<title>Node1&#45;&gt;Node12</title>
<g id="a_edge11_Node000001_Node000012"><a xlink:title=" ">
<path fill="none" stroke="#63b8ff" d="M583.16,-180.21C629.44,-170.29 689.36,-156.21 741.5,-140 743.37,-139.42 745.29,-138.79 747.21,-138.12"/>
<polygon fill="#63b8ff" stroke="#63b8ff" points="748.54,-141.36 756.73,-134.64 746.14,-134.79 748.54,-141.36"/>
</a>
</g>
</g>
<!-- Node17 -->
<g id="Node000017" class="node">
<title>Node17</title>
<g id="a_Node000017"><a xlink:href="wifi_8h.html" target="_top" xlink:title=" ">
<polygon fill="white" stroke="#666666" points="732,-134.5 689,-134.5 689,-115.5 732,-115.5 732,-134.5"/>
<text text-anchor="middle" x="710.5" y="-122.5" font-family="Helvetica,sans-Serif" font-size="10.00">wifi.h</text>
</a>
</g>
</g>
<!-- Node1&#45;&gt;Node17 -->
<g id="edge17_Node000001_Node000017" class="edge">
<title>Node1&#45;&gt;Node17</title>
<g id="a_edge17_Node000001_Node000017"><a xlink:title=" ">
<path fill="none" stroke="#63b8ff" d="M573.66,-175.9C605.96,-165.98 645.06,-153.25 679.5,-140 680.68,-139.55 681.88,-139.07 683.08,-138.58"/>
<polygon fill="#63b8ff" stroke="#63b8ff" points="684.47,-141.79 692.29,-134.64 681.72,-135.36 684.47,-141.79"/>
</a>
</g>
</g>
<!-- Node18 -->
<g id="Node000018" class="node">
<title>Node18</title>
<g id="a_Node000018"><a xlink:href="event__bus_8h.html" target="_top" xlink:title=" ">
<polygon fill="white" stroke="#666666" points="969,-140 862,-140 862,-110 969,-110 969,-140"/>
<text text-anchor="start" x="870" y="-128" font-family="Helvetica,sans-Serif" font-size="10.00">../event_bus/event</text>
<text text-anchor="middle" x="915.5" y="-117" font-family="Helvetica,sans-Serif" font-size="10.00">_bus.h</text>
</a>
</g>
</g>
<!-- Node1&#45;&gt;Node18 -->
<g id="edge19_Node000001_Node000018" class="edge">
<title>Node1&#45;&gt;Node18</title>
<g id="a_edge19_Node000001_Node000018"><a xlink:title=" ">
<path fill="none" stroke="#63b8ff" d="M583.18,-183.96C652.39,-173.31 756.95,-156.68 847.5,-140 848.94,-139.73 850.41,-139.46 851.88,-139.18"/>
<polygon fill="#63b8ff" stroke="#63b8ff" points="852.56,-142.62 861.72,-137.29 851.24,-135.74 852.56,-142.62"/>
</a>
</g>
</g>
<!-- Node11 -->
<g id="Node000011" class="node">
<title>Node11</title>
<g id="a_Node000011"><a xlink:title=" ">
<polygon fill="#e0e0e0" stroke="#999999" points="230,-74 127,-74 127,-55 230,-55 230,-74"/>
<text text-anchor="middle" x="178.5" y="-62" font-family="Helvetica,sans-Serif" font-size="10.00">esp_http_server.h</text>
</a>
</g>
</g>
<!-- Node10&#45;&gt;Node11 -->
<g id="edge10_Node000010_Node000011" class="edge">
<title>Node10&#45;&gt;Node11</title>
<g id="a_edge10_Node000010_Node000011"><a xlink:title=" ">
<path fill="none" stroke="#63b8ff" d="M178.5,-115.37C178.5,-107.25 178.5,-94.81 178.5,-84.39"/>
<polygon fill="#63b8ff" stroke="#63b8ff" points="182,-84.17 178.5,-74.17 175,-84.17 182,-84.17"/>
</a>
</g>
</g>
<!-- Node12&#45;&gt;Node4 -->
<g id="edge15_Node000012_Node000004" class="edge">
<title>Node12&#45;&gt;Node4</title>
<g id="a_edge15_Node000012_Node000004"><a xlink:title=" ">
<path fill="none" stroke="#63b8ff" d="M796.69,-115.49C818.89,-105.66 855.62,-89.38 881.12,-78.08"/>
<polygon fill="#63b8ff" stroke="#63b8ff" points="882.56,-81.27 890.28,-74.02 879.72,-74.87 882.56,-81.27"/>
</a>
</g>
</g>
<!-- Node13 -->
<g id="Node000013" class="node">
<title>Node13</title>
<g id="a_Node000013"><a xlink:title=" ">
<polygon fill="#e0e0e0" stroke="#999999" points="607,-74 546,-74 546,-55 607,-55 607,-74"/>
<text text-anchor="middle" x="576.5" y="-62" font-family="Helvetica,sans-Serif" font-size="10.00">esp_err.h</text>
</a>
</g>
</g>
<!-- Node12&#45;&gt;Node13 -->
<g id="edge12_Node000012_Node000013" class="edge">
<title>Node12&#45;&gt;Node13</title>
<g id="a_edge12_Node000012_Node000013"><a xlink:title=" ">
<path fill="none" stroke="#63b8ff" d="M756.7,-115.47C751.75,-113.57 746.47,-111.63 741.5,-110 699.6,-96.25 650.74,-83.46 617.12,-75.16"/>
<polygon fill="#63b8ff" stroke="#63b8ff" points="617.75,-71.71 607.2,-72.73 616.08,-78.51 617.75,-71.71"/>
</a>
</g>
</g>
<!-- Node14 -->
<g id="Node000014" class="node">
<title>Node14</title>
<g id="a_Node000014"><a xlink:href="clock_8h.html" target="_top" xlink:title=" ">
<polygon fill="white" stroke="#666666" points="714,-74 625,-74 625,-55 714,-55 714,-74"/>
<text text-anchor="middle" x="669.5" y="-62" font-family="Helvetica,sans-Serif" font-size="10.00">../clock/clock.h</text>
</a>
</g>
</g>
<!-- Node12&#45;&gt;Node14 -->
<g id="edge13_Node000012_Node000014" class="edge">
<title>Node12&#45;&gt;Node14</title>
<g id="a_edge13_Node000012_Node000014"><a xlink:title=" ">
<path fill="none" stroke="#63b8ff" d="M761.56,-115.37C743.86,-105.78 715.04,-90.17 694.36,-78.97"/>
<polygon fill="#63b8ff" stroke="#63b8ff" points="695.96,-75.85 685.5,-74.17 692.63,-82.01 695.96,-75.85"/>
</a>
</g>
</g>
<!-- Node16 -->
<g id="Node000016" class="node">
<title>Node16</title>
<g id="a_Node000016"><a xlink:title=" ">
<polygon fill="#e0e0e0" stroke="#999999" points="835,-74 732,-74 732,-55 835,-55 835,-74"/>
<text text-anchor="middle" x="783.5" y="-62" font-family="Helvetica,sans-Serif" font-size="10.00">freertos/semphr.h</text>
</a>
</g>
</g>
<!-- Node12&#45;&gt;Node16 -->
<g id="edge16_Node000012_Node000016" class="edge">
<title>Node12&#45;&gt;Node16</title>
<g id="a_edge16_Node000012_Node000016"><a xlink:title=" ">
<path fill="none" stroke="#63b8ff" d="M778.39,-115.37C779.22,-107.25 780.49,-94.81 781.56,-84.39"/>
<polygon fill="#63b8ff" stroke="#63b8ff" points="785.07,-84.47 782.61,-74.17 778.11,-83.76 785.07,-84.47"/>
</a>
</g>
</g>
<!-- Node15 -->
<g id="Node000015" class="node">
<title>Node15</title>
<g id="a_Node000015"><a xlink:title=" ">
<polygon fill="#e0e0e0" stroke="#999999" points="696,-19 643,-19 643,0 696,0 696,-19"/>
<text text-anchor="middle" x="669.5" y="-7" font-family="Helvetica,sans-Serif" font-size="10.00">stdint.h</text>
</a>
</g>
</g>
<!-- Node14&#45;&gt;Node15 -->
<g id="edge14_Node000014_Node000015" class="edge">
<title>Node14&#45;&gt;Node15</title>
<g id="a_edge14_Node000014_Node000015"><a xlink:title=" ">
<path fill="none" stroke="#63b8ff" d="M669.5,-54.75C669.5,-47.8 669.5,-37.85 669.5,-29.13"/>
<polygon fill="#63b8ff" stroke="#63b8ff" points="673,-29.09 669.5,-19.09 666,-29.09 673,-29.09"/>
</a>
</g>
</g>
<!-- Node17&#45;&gt;Node13 -->
<g id="edge18_Node000017_Node000013" class="edge">
<title>Node17&#45;&gt;Node13</title>
<g id="a_edge18_Node000017_Node000013"><a xlink:title=" ">
<path fill="none" stroke="#63b8ff" d="M691.5,-115.36C687.54,-113.58 683.39,-111.72 679.5,-110 654.85,-99.11 626.76,-86.99 606.14,-78.15"/>
<polygon fill="#63b8ff" stroke="#63b8ff" points="607.24,-74.82 596.67,-74.1 604.49,-81.25 607.24,-74.82"/>
</a>
</g>
</g>
<!-- Node18&#45;&gt;Node4 -->
<g id="edge20_Node000018_Node000004" class="edge">
<title>Node18&#45;&gt;Node4</title>
<g id="a_edge20_Node000018_Node000004"><a xlink:title=" ">
<path fill="none" stroke="#63b8ff" d="M914.05,-109.84C913.27,-102.21 912.29,-92.7 911.44,-84.45"/>
<polygon fill="#63b8ff" stroke="#63b8ff" points="914.9,-83.86 910.4,-74.27 907.94,-84.57 914.9,-83.86"/>
</a>
</g>
</g>
<!-- Node19 -->
<g id="Node000019" class="node">
<title>Node19</title>
<g id="a_Node000019"><a xlink:title=" ">
<polygon fill="#e0e0e0" stroke="#999999" points="1081,-74 984,-74 984,-55 1081,-55 1081,-74"/>
<text text-anchor="middle" x="1032.5" y="-62" font-family="Helvetica,sans-Serif" font-size="10.00">freertos/queue.h</text>
</a>
</g>
</g>
<!-- Node18&#45;&gt;Node19 -->
<g id="edge21_Node000018_Node000019" class="edge">
<title>Node18&#45;&gt;Node19</title>
<g id="a_edge21_Node000018_Node000019"><a xlink:title=" ">
<path fill="none" stroke="#63b8ff" d="M943.52,-109.99C962.52,-100.49 987.47,-88.02 1006.11,-78.69"/>
<polygon fill="#63b8ff" stroke="#63b8ff" points="1007.84,-81.74 1015.22,-74.14 1004.71,-75.48 1007.84,-81.74"/>
</a>
</g>
</g>
</g>
</svg>
