<?xml version="1.0" encoding="UTF-8" standalone="no"?>
<!DOCTYPE svg PUBLIC "-//W3C//DTD SVG 1.1//EN"
 "http://www.w3.org/Graphics/SVG/1.1/DTD/svg11.dtd">
<!-- Generated by graphviz version 2.43.0 (0)
 -->
<!-- Title: software/nixie_clock_esp32_project/components/webserver/webserver.c Pages: 1 -->
<svg width="1046pt" height="225pt"
 viewBox="0.00 0.00 1046.00 225.00" xmlns="http://www.w3.org/2000/svg" xmlns:xlink="http://www.w3.org/1999/xlink">
<g id="graph0" class="graph" transform="scale(1 1) rotate(0) translate(4 221)">
<title>software/nixie_clock_esp32_project/components/webserver/webserver.c</title>
<!-- Node1 -->
<g id="Node000001" class="node">
<title>Node1</title>
<g id="a_Node000001"><a xlink:title=" ">
<polygon fill="#999999" stroke="#666666" points="567,-217 414,-217 414,-176 567,-176 567,-217"/>
<text text-anchor="start" x="422" y="-205" font-family="Helvetica,sans-Serif" font-size="10.00">software/nixie_clock</text>
<text text-anchor="start" x="422" y="-194" font-family="Helvetica,sans-Serif" font-size="10.00">_esp32_project/components</text>
<text text-anchor="middle" x="490.5" y="-183" font-family="Helvetica,sans-Serif" font-size="10.00">/webserver/webserver.c</text>
</a>
</g>
</g>
<!-- Node2 -->
<g id="Node000002" class="node">
<title>Node2</title>
<g id="a_Node000002"><a xlink:title=" ">
<polygon fill="#e0e0e0" stroke="#999999" points="51,-134.5 0,-134.5 0,-115.5 51,-115.5 51,-134.5"/>
<text text-anchor="middle" x="25.5" y="-122.5" font-family="Helvetica,sans-Serif" font-size="10.00">errno.h</text>
</a>
</g>
</g>
<!-- Node1&#45;&gt;Node2 -->
<g id="edge1_Node000001_Node000002" class="edge">
<title>Node1&#45;&gt;Node2</title>
<g id="a_edge1_Node000001_Node000002"><a xlink:title=" ">
<path fill="none" stroke="#63b8ff" d="M413.82,-191.7C326.71,-186 180.91,-172.21 59.5,-140 57.56,-139.48 55.58,-138.88 53.6,-138.23"/>
<polygon fill="#63b8ff" stroke="#63b8ff" points="54.49,-134.83 43.9,-134.61 52.04,-141.38 54.49,-134.83"/>
</a>
</g>
</g>
<!-- Node3 -->
<g id="Node000003" class="node">
<title>Node3</title>
<g id="a_Node000003"><a xlink:title=" ">
<polygon fill="#e0e0e0" stroke="#999999" points="122,-134.5 69,-134.5 69,-115.5 122,-115.5 122,-134.5"/>
<text text-anchor="middle" x="95.5" y="-122.5" font-family="Helvetica,sans-Serif" font-size="10.00">string.h</text>
</a>
</g>
</g>
<!-- Node1&#45;&gt;Node3 -->
<g id="edge2_Node000001_Node000003" class="edge">
<title>Node1&#45;&gt;Node3</title>
<g id="a_edge2_Node000001_Node000003"><a xlink:title=" ">
<path fill="none" stroke="#63b8ff" d="M413.95,-188.8C340.34,-181.16 226.43,-166.21 130.5,-140 128.35,-139.41 126.14,-138.73 123.95,-137.99"/>
<polygon fill="#63b8ff" stroke="#63b8ff" points="125.08,-134.68 114.49,-134.5 122.66,-141.25 125.08,-134.68"/>
</a>
</g>
</g>
<!-- Node4 -->
<g id="Node000004" class="node">
<title>Node4</title>
<g id="a_Node000004"><a xlink:title=" ">
<polygon fill="#e0e0e0" stroke="#999999" points="445,-74 332,-74 332,-55 445,-55 445,-74"/>
<text text-anchor="middle" x="388.5" y="-62" font-family="Helvetica,sans-Serif" font-size="10.00">freertos/FreeRTOS.h</text>
</a>
</g>
</g>
<!-- Node1&#45;&gt;Node4 -->
<g id="edge3_Node000001_Node000004" class="edge">
<title>Node1&#45;&gt;Node4</title>
<g id="a_edge3_Node000001_Node000004"><a xlink:title=" ">
<path fill="none" stroke="#63b8ff" d="M463.95,-175.79C451.85,-165.94 437.94,-153.3 427.5,-140 413.88,-122.64 402.75,-99.82 395.91,-84.03"/>
<polygon fill="#63b8ff" stroke="#63b8ff" points="398.97,-82.26 391.89,-74.37 392.51,-84.95 398.97,-82.26"/>
</a>
</g>
</g>
<!-- Node5 -->
<g id="Node000005" class="node">
<title>Node5</title>
<g id="a_Node000005"><a xlink:title=" ">
<polygon fill="#e0e0e0" stroke="#999999" points="666.5,-74 578.5,-74 578.5,-55 666.5,-55 666.5,-74"/>
<text text-anchor="middle" x="622.5" y="-62" font-family="Helvetica,sans-Serif" font-size="10.00">freertos/task.h</text>
</a>
</g>
</g>
<!-- Node1&#45;&gt;Node5 -->
<g id="edge4_Node000001_Node000005" class="edge">
<title>Node1&#45;&gt;Node5</title>
<g id="a_edge4_Node000001_Node000005"><a xlink:title=" ">
<path fill="none" stroke="#63b8ff" d="M513.31,-175.92C525.22,-165.49 539.89,-152.31 552.5,-140 572.22,-120.75 593.76,-97.45 607.67,-82.09"/>
<polygon fill="#63b8ff" stroke="#63b8ff" points="610.46,-84.22 614.55,-74.45 605.26,-79.54 610.46,-84.22"/>
</a>
</g>
</g>
<!-- Node6 -->
<g id="Node000006" class="node">
<title>Node6</title>
<g id="a_Node000006"><a xlink:title=" ">
<polygon fill="#e0e0e0" stroke="#999999" points="666,-134.5 601,-134.5 601,-115.5 666,-115.5 666,-134.5"/>
<text text-anchor="middle" x="633.5" y="-122.5" font-family="Helvetica,sans-Serif" font-size="10.00">esp_wifi.h</text>
</a>
</g>
</g>
<!-- Node1&#45;&gt;Node6 -->
<g id="edge5_Node000001_Node000006" class="edge">
<title>Node1&#45;&gt;Node6</title>
<g id="a_edge5_Node000001_Node000006"><a xlink:title=" ">
<path fill="none" stroke="#63b8ff" d="M530.71,-175.96C555.07,-164.12 585.46,-149.35 606.86,-138.95"/>
<polygon fill="#63b8ff" stroke="#63b8ff" points="608.54,-142.02 616,-134.5 605.48,-135.73 608.54,-142.02"/>
</a>
</g>
</g>
<!-- Node7 -->
<g id="Node000007" class="node">
<title>Node7</title>
<g id="a_Node000007"><a xlink:title=" ">
<polygon fill="#e0e0e0" stroke="#999999" points="760.5,-134.5 684.5,-134.5 684.5,-115.5 760.5,-115.5 760.5,-134.5"/>
<text text-anchor="middle" x="722.5" y="-122.5" font-family="Helvetica,sans-Serif" font-size="10.00">esp_event.h</text>
</a>
</g>
</g>
<!-- Node1&#45;&gt;Node7 -->
<g id="edge6_Node000001_Node000007" class="edge">
<title>Node1&#45;&gt;Node7</title>
<g id="a_edge6_Node000001_Node000007"><a xlink:title=" ">
<path fill="none" stroke="#63b8ff" d="M555.74,-175.96C597.22,-163.53 649.47,-147.88 684.33,-137.44"/>
<polygon fill="#63b8ff" stroke="#63b8ff" points="685.54,-140.73 694.11,-134.5 683.53,-134.02 685.54,-140.73"/>
</a>
</g>
</g>
<!-- Node8 -->
<g id="Node000008" class="node">
<title>Node8</title>
<g id="a_Node000008"><a xlink:title=" ">
<polygon fill="#e0e0e0" stroke="#999999" points="842,-134.5 779,-134.5 779,-115.5 842,-115.5 842,-134.5"/>
<text text-anchor="middle" x="810.5" y="-122.5" font-family="Helvetica,sans-Serif" font-size="10.00">esp_log.h</text>
</a>
</g>
</g>
<!-- Node1&#45;&gt;Node8 -->
<g id="edge7_Node000001_Node000008" class="edge">
<title>Node1&#45;&gt;Node8</title>
<g id="a_edge7_Node000001_Node000008"><a xlink:title=" ">
<path fill="none" stroke="#63b8ff" d="M567.21,-183.07C623.62,-173.24 701.9,-158.18 769.5,-140 772.13,-139.29 774.84,-138.5 777.55,-137.67"/>
<polygon fill="#63b8ff" stroke="#63b8ff" points="778.81,-140.94 787.25,-134.54 776.66,-134.28 778.81,-140.94"/>
</a>
</g>
</g>
<!-- Node9 -->
<g id="Node000009" class="node">
<title>Node9</title>
<g id="a_Node000009"><a xlink:title=" ">
<polygon fill="#e0e0e0" stroke="#999999" points="930.5,-134.5 860.5,-134.5 860.5,-115.5 930.5,-115.5 930.5,-134.5"/>
<text text-anchor="middle" x="895.5" y="-122.5" font-family="Helvetica,sans-Serif" font-size="10.00">esp_netif.h</text>
</a>
</g>
</g>
<!-- Node1&#45;&gt;Node9 -->
<g id="edge8_Node000001_Node000009" class="edge">
<title>Node1&#45;&gt;Node9</title>
<g id="a_edge8_Node000001_Node000009"><a xlink:title=" ">
<path fill="none" stroke="#63b8ff" d="M567.22,-187.21C640.76,-178.45 754.57,-162.72 851.5,-140 854.7,-139.25 858,-138.38 861.3,-137.45"/>
<polygon fill="#63b8ff" stroke="#63b8ff" points="862.45,-140.76 871.02,-134.53 860.44,-134.05 862.45,-140.76"/>
</a>
</g>
</g>
<!-- Node10 -->
<g id="Node000010" class="node">
<title>Node10</title>
<g id="a_Node000010"><a xlink:href="webserver_8h.html" target="_top" xlink:title=" ">
<polygon fill="white" stroke="#666666" points="1024.5,-134.5 948.5,-134.5 948.5,-115.5 1024.5,-115.5 1024.5,-134.5"/>
<text text-anchor="middle" x="986.5" y="-122.5" font-family="Helvetica,sans-Serif" font-size="10.00">webserver.h</text>
</a>
</g>
</g>
<!-- Node1&#45;&gt;Node10 -->
<g id="edge9_Node000001_Node000010" class="edge">
<title>Node1&#45;&gt;Node10</title>
<g id="a_edge9_Node000001_Node000010"><a xlink:title=" ">
<path fill="none" stroke="#63b8ff" d="M567,-189.95C656.88,-182.53 810.15,-167.06 939.5,-140 943.13,-139.24 946.89,-138.33 950.62,-137.35"/>
<polygon fill="#63b8ff" stroke="#63b8ff" points="951.66,-140.7 960.35,-134.63 949.77,-133.95 951.66,-140.7"/>
</a>
</g>
</g>
<!-- Node12 -->
<g id="Node000012" class="node">
<title>Node12</title>
<g id="a_Node000012"><a xlink:href="config_8h.html" target="_top" xlink:title=" ">
<polygon fill="white" stroke="#666666" points="256,-134.5 201,-134.5 201,-115.5 256,-115.5 256,-134.5"/>
<text text-anchor="middle" x="228.5" y="-122.5" font-family="Helvetica,sans-Serif" font-size="10.00">config.h</text>
</a>
</g>
</g>
<!-- Node1&#45;&gt;Node12 -->
<g id="edge11_Node000001_Node000012" class="edge">
<title>Node1&#45;&gt;Node12</title>
<g id="a_edge11_Node000001_Node000012"><a xlink:title=" ">
<path fill="none" stroke="#63b8ff" d="M413.85,-178.99C370.04,-168.96 314.29,-155.19 265.5,-140 263.58,-139.4 261.62,-138.76 259.65,-138.09"/>
<polygon fill="#63b8ff" stroke="#63b8ff" points="260.46,-134.66 249.87,-134.58 258.1,-141.25 260.46,-134.66"/>
</a>
</g>
</g>
<!-- Node17 -->
<g id="Node000017" class="node">
<title>Node17</title>
<g id="a_Node000017"><a xlink:href="wifi_8h.html" target="_top" xlink:title=" ">
<polygon fill="white" stroke="#666666" points="183,-134.5 140,-134.5 140,-115.5 183,-115.5 183,-134.5"/>
<text text-anchor="middle" x="161.5" y="-122.5" font-family="Helvetica,sans-Serif" font-size="10.00">wifi.h</text>
</a>
</g>
</g>
<!-- Node1&#45;&gt;Node17 -->
<g id="edge17_Node000001_Node000017" class="edge">
<title>Node1&#45;&gt;Node17</title>
<g id="a_edge17_Node000001_Node000017"><a xlink:title=" ">
<path fill="none" stroke="#63b8ff" d="M413.93,-186.72C352.73,-178.42 265.28,-163.64 191.5,-140 190.1,-139.55 188.68,-139.05 187.25,-138.52"/>
<polygon fill="#63b8ff" stroke="#63b8ff" points="188.59,-135.28 178.02,-134.62 185.87,-141.73 188.59,-135.28"/>
</a>
</g>
</g>
<!-- Node18 -->
<g id="Node000018" class="node">
<title>Node18</title>
<g id="a_Node000018"><a xlink:href="event__bus_8h.html" target="_top" xlink:title=" ">
<polygon fill="white" stroke="#666666" points="544,-140 437,-140 437,-110 544,-110 544,-140"/>
<text text-anchor="start" x="445" y="-128" font-family="Helvetica,sans-Serif" font-size="10.00">../event_bus/event</text>
<text text-anchor="middle" x="490.5" y="-117" font-family="Helvetica,sans-Serif" font-size="10.00">_bus.h</text>
</a>
</g>
</g>
<!-- Node1&#45;&gt;Node18 -->
<g id="edge19_Node000001_Node000018" class="edge">
<title>Node1&#45;&gt;Node18</title>
<g id="a_edge19_Node000001_Node000018"><a xlink:title=" ">
<path fill="none" stroke="#63b8ff" d="M490.5,-175.77C490.5,-167.85 490.5,-158.63 490.5,-150.3"/>
<polygon fill="#63b8ff" stroke="#63b8ff" points="494,-150.04 490.5,-140.04 487,-150.04 494,-150.04"/>
</a>
</g>
</g>
<!-- Node20 -->
<g id="Node000020" class="node">
<title>Node20</title>
<g id="a_Node000020"><a xlink:href="clock__task_8h.html" target="_top" xlink:title=" ">
<polygon fill="white" stroke="#666666" points="380.5,-140 274.5,-140 274.5,-110 380.5,-110 380.5,-140"/>
<text text-anchor="start" x="282.5" y="-128" font-family="Helvetica,sans-Serif" font-size="10.00">../clock_task/clock</text>
<text text-anchor="middle" x="327.5" y="-117" font-family="Helvetica,sans-Serif" font-size="10.00">_task.h</text>
</a>
</g>
</g>
<!-- Node1&#45;&gt;Node20 -->
<g id="edge22_Node000001_Node000020" class="edge">
<title>Node1&#45;&gt;Node20</title>
<g id="a_edge22_Node000001_Node000020"><a xlink:title=" ">
<path fill="none" stroke="#63b8ff" d="M444.66,-175.96C421.18,-165.94 392.78,-153.83 369.82,-144.04"/>
<polygon fill="#63b8ff" stroke="#63b8ff" points="370.92,-140.71 360.34,-140 368.17,-147.15 370.92,-140.71"/>
</a>
</g>
</g>
<!-- Node11 -->
<g id="Node000011" class="node">
<title>Node11</title>
<g id="a_Node000011"><a xlink:title=" ">
<polygon fill="#e0e0e0" stroke="#999999" points="1038,-74 935,-74 935,-55 1038,-55 1038,-74"/>
<text text-anchor="middle" x="986.5" y="-62" font-family="Helvetica,sans-Serif" font-size="10.00">esp_http_server.h</text>
</a>
</g>
</g>
<!-- Node10&#45;&gt;Node11 -->
<g id="edge10_Node000010_Node000011" class="edge">
<title>Node10&#45;&gt;Node11</title>
<g id="a_edge10_Node000010_Node000011"><a xlink:title=" ">
<path fill="none" stroke="#63b8ff" d="M986.5,-115.37C986.5,-107.25 986.5,-94.81 986.5,-84.39"/>
<polygon fill="#63b8ff" stroke="#63b8ff" points="990,-84.17 986.5,-74.17 983,-84.17 990,-84.17"/>
</a>
</g>
</g>
<!-- Node12&#45;&gt;Node4 -->
<g id="edge15_Node000012_Node000004" class="edge">
<title>Node12&#45;&gt;Node4</title>
<g id="a_edge15_Node000012_Node000004"><a xlink:title=" ">
<path fill="none" stroke="#63b8ff" d="M251.18,-115.36C255.91,-113.57 260.86,-111.72 265.5,-110 295.64,-98.85 330.04,-86.43 354.78,-77.55"/>
<polygon fill="#63b8ff" stroke="#63b8ff" points="356.19,-80.76 364.42,-74.09 353.83,-74.17 356.19,-80.76"/>
</a>
</g>
</g>
<!-- Node13 -->
<g id="Node000013" class="node">
<title>Node13</title>
<g id="a_Node000013"><a xlink:title=" ">
<polygon fill="#e0e0e0" stroke="#999999" points="86,-74 25,-74 25,-55 86,-55 86,-74"/>
<text text-anchor="middle" x="55.5" y="-62" font-family="Helvetica,sans-Serif" font-size="10.00">esp_err.h</text>
</a>
</g>
</g>
<!-- Node12&#45;&gt;Node13 -->
<g id="edge12_Node000012_Node000013" class="edge">
<title>Node12&#45;&gt;Node13</title>
<g id="a_edge12_Node000012_Node000013"><a xlink:title=" ">
<path fill="none" stroke="#63b8ff" d="M206.26,-115.4C201.41,-113.57 196.29,-111.69 191.5,-110 158.11,-98.23 119.76,-85.77 92.31,-77.04"/>
<polygon fill="#63b8ff" stroke="#63b8ff" points="93.31,-73.69 82.72,-74 91.19,-80.36 93.31,-73.69"/>
</a>
</g>
</g>
<!-- Node14 -->
<g id="Node000014" class="node">
<title>Node14</title>
<g id="a_Node000014"><a xlink:href="clock_8h.html" target="_top" xlink:title=" ">
<polygon fill="white" stroke="#666666" points="314,-74 225,-74 225,-55 314,-55 314,-74"/>
<text text-anchor="middle" x="269.5" y="-62" font-family="Helvetica,sans-Serif" font-size="10.00">../clock/clock.h</text>
</a>
</g>
</g>
<!-- Node12&#45;&gt;Node14 -->
<g id="edge13_Node000012_Node000014" class="edge">
<title>Node12&#45;&gt;Node14</title>
<g id="a_edge13_Node000012_Node000014"><a xlink:title=" ">
<path fill="none" stroke="#63b8ff" d="M234.55,-115.37C240.61,-106.73 250.09,-93.2 257.64,-82.42"/>
<polygon fill="#63b8ff" stroke="#63b8ff" points="260.55,-84.37 263.43,-74.17 254.82,-80.35 260.55,-84.37"/>
</a>
</g>
</g>
<!-- Node16 -->
<g id="Node000016" class="node">
<title>Node16</title>
<g id="a_Node000016"><a xlink:title=" ">
<polygon fill="#e0e0e0" stroke="#999999" points="207,-74 104,-74 104,-55 207,-55 207,-74"/>
<text text-anchor="middle" x="155.5" y="-62" font-family="Helvetica,sans-Serif" font-size="10.00">freertos/semphr.h</text>
</a>
</g>
</g>
<!-- Node12&#45;&gt;Node16 -->
<g id="edge16_Node000012_Node000016" class="edge">
<title>Node12&#45;&gt;Node16</title>
<g id="a_edge16_Node000012_Node000016"><a xlink:title=" ">
<path fill="none" stroke="#63b8ff" d="M217.73,-115.37C206.3,-106.21 188.02,-91.56 174.22,-80.51"/>
<polygon fill="#63b8ff" stroke="#63b8ff" points="176.31,-77.69 166.32,-74.17 171.93,-83.15 176.31,-77.69"/>
</a>
</g>
</g>
<!-- Node15 -->
<g id="Node000015" class="node">
<title>Node15</title>
<g id="a_Node000015"><a xlink:title=" ">
<polygon fill="#e0e0e0" stroke="#999999" points="296,-19 243,-19 243,0 296,0 296,-19"/>
<text text-anchor="middle" x="269.5" y="-7" font-family="Helvetica,sans-Serif" font-size="10.00">stdint.h</text>
</a>
</g>
</g>
<!-- Node14&#45;&gt;Node15 -->
<g id="edge14_Node000014_Node000015" class="edge">
<title>Node14&#45;&gt;Node15</title>
<g id="a_edge14_Node000014_Node000015"><a xlink:title=" ">
<path fill="none" stroke="#63b8ff" d="M269.5,-54.75C269.5,-47.8 269.5,-37.85 269.5,-29.13"/>
<polygon fill="#63b8ff" stroke="#63b8ff" points="273,-29.09 269.5,-19.09 266,-29.09 273,-29.09"/>
</a>
</g>
</g>
<!-- Node17&#45;&gt;Node13 -->
<g id="edge18_Node000017_Node000013" class="edge">
<title>Node17&#45;&gt;Node13</title>
<g id="a_edge18_Node000017_Node000013"><a xlink:title=" ">
<path fill="none" stroke="#63b8ff" d="M145.86,-115.37C128.56,-105.82 100.45,-90.31 80.17,-79.12"/>
<polygon fill="#63b8ff" stroke="#63b8ff" points="81.65,-75.93 71.2,-74.17 78.27,-82.06 81.65,-75.93"/>
</a>
</g>
</g>
<!-- Node18&#45;&gt;Node4 -->
<g id="edge20_Node000018_Node000004" class="edge">
<title>Node18&#45;&gt;Node4</title>
<g id="a_edge20_Node000018_Node000004"><a xlink:title=" ">
<path fill="none" stroke="#63b8ff" d="M466.07,-109.99C449.81,-100.66 428.55,-88.47 412.4,-79.21"/>
<polygon fill="#63b8ff" stroke="#63b8ff" points="413.98,-76.08 403.56,-74.14 410.5,-82.15 413.98,-76.08"/>
</a>
</g>
</g>
<!-- Node19 -->
<g id="Node000019" class="node">
<title>Node19</title>
<g id="a_Node000019"><a xlink:title=" ">
<polygon fill="#e0e0e0" stroke="#999999" points="560,-74 463,-74 463,-55 560,-55 560,-74"/>
<text text-anchor="middle" x="511.5" y="-62" font-family="Helvetica,sans-Serif" font-size="10.00">freertos/queue.h</text>
</a>
</g>
</g>
<!-- Node18&#45;&gt;Node19 -->
<g id="edge21_Node000018_Node000019" class="edge">
<title>Node18&#45;&gt;Node19</title>
<g id="a_edge21_Node000018_Node000019"><a xlink:title=" ">
<path fill="none" stroke="#63b8ff" d="M495.58,-109.84C498.38,-102.04 501.89,-92.27 504.9,-83.89"/>
<polygon fill="#63b8ff" stroke="#63b8ff" points="508.27,-84.86 508.35,-74.27 501.68,-82.5 508.27,-84.86"/>
</a>
</g>
</g>
<!-- Node20&#45;&gt;Node4 -->
<g id="edge23_Node000020_Node000004" class="edge">
<title>Node20&#45;&gt;Node4</title>
<g id="a_edge23_Node000020_Node000004"><a xlink:title=" ">
<path fill="none" stroke="#63b8ff" d="M342.27,-109.84C351.21,-101.26 362.64,-90.3 371.9,-81.42"/>
<polygon fill="#63b8ff" stroke="#63b8ff" points="374.56,-83.71 379.36,-74.27 369.72,-78.66 374.56,-83.71"/>
</a>
</g>
</g>
<!-- Node20&#45;&gt;Node5 -->
<g id="edge24_Node000020_Node000005" class="edge">
<title>Node20&#45;&gt;Node5</title>
<g id="a_edge24_Node000020_Node000005"><a xlink:title=" ">
<path fill="none" stroke="#63b8ff" d="M380.58,-113.47C434.03,-102.87 516.03,-86.61 569.46,-76.02"/>
<polygon fill="#63b8ff" stroke="#63b8ff" points="570.3,-79.42 579.43,-74.04 568.94,-72.55 570.3,-79.42"/>
</a>
</g>
</g>
<!-- Node20&#45;&gt;Node14 -->
<g id="edge25_Node000020_Node000014" class="edge">
<title>Node20&#45;&gt;Node14</title>
<g id="a_edge25_Node000020_Node000014"><a xlink:title=" ">
<path fill="none" stroke="#63b8ff" d="M313.46,-109.84C304.95,-101.26 294.09,-90.3 285.28,-81.42"/>
<polygon fill="#63b8ff" stroke="#63b8ff" points="287.72,-78.9 278.19,-74.27 282.75,-83.83 287.72,-78.9"/>
</a>
</g>
</g>
</g>
</svg>
