<?xml version="1.0" encoding="UTF-8" standalone="no"?>
<!DOCTYPE svg PUBLIC "-//W3C//DTD SVG 1.1//EN"
 "http://www.w3.org/Graphics/SVG/1.1/DTD/svg11.dtd">
<!-- Generated by graphviz version 2.43.0 (0)
 -->
<!-- Title: software/nixie_clock_esp32_project/components/webserver/webserver.c Pages: 1 -->
<svg width="1018pt" height="225pt"
 viewBox="0.00 0.00 1018.00 225.00" xmlns="http://www.w3.org/2000/svg" xmlns:xlink="http://www.w3.org/1999/xlink">
<g id="graph0" class="graph" transform="scale(1 1) rotate(0) translate(4 221)">
<title>software/nixie_clock_esp32_project/components/webserver/webserver.c</title>
<!-- Node1 -->
<g id="Node000001" class="node">
<title>Node1</title>
<g id="a_Node000001"><a xlink:title=" ">
<polygon fill="#999999" stroke="#666666" points="556,-217 403,-217 403,-176 556,-176 556,-217"/>
<text text-anchor="start" x="411" y="-205" font-family="Helvetica,sans-Serif" font-size="10.00">software/nixie_clock</text>
<text text-anchor="start" x="411" y="-194" font-family="Helvetica,sans-Serif" font-size="10.00">_esp32_project/components</text>
<text text-anchor="middle" x="479.5" y="-183" font-family="Helvetica,sans-Serif" font-size="10.00">/webserver/webserver.c</text>
</a>
</g>
</g>
<!-- Node2 -->
<g id="Node000002" class="node">
<title>Node2</title>
<g id="a_Node000002"><a xlink:title=" ">
<polygon fill="#e0e0e0" stroke="#999999" points="51,-134.5 0,-134.5 0,-115.5 51,-115.5 51,-134.5"/>
<text text-anchor="middle" x="25.5" y="-122.5" font-family="Helvetica,sans-Serif" font-size="10.00">errno.h</text>
</a>
</g>
</g>
<!-- Node1&#45;&gt;Node2 -->
<g id="edge1_Node000001_Node000002" class="edge">
<title>Node1&#45;&gt;Node2</title>
<g id="a_edge1_Node000001_Node000002"><a xlink:title=" ">
<path fill="none" stroke="#63b8ff" d="M402.71,-191.07C317.83,-184.86 177.63,-170.67 60.5,-140 58.34,-139.43 56.13,-138.77 53.93,-138.05"/>
<polygon fill="#63b8ff" stroke="#63b8ff" points="55.06,-134.73 44.47,-134.58 52.65,-141.3 55.06,-134.73"/>
</a>
</g>
</g>
<!-- Node3 -->
<g id="Node000003" class="node">
<title>Node3</title>
<g id="a_Node000003"><a xlink:title=" ">
<polygon fill="#e0e0e0" stroke="#999999" points="895,-74 782,-74 782,-55 895,-55 895,-74"/>
<text text-anchor="middle" x="838.5" y="-62" font-family="Helvetica,sans-Serif" font-size="10.00">freertos/FreeRTOS.h</text>
</a>
</g>
</g>
<!-- Node1&#45;&gt;Node3 -->
<g id="edge2_Node000001_Node000003" class="edge">
<title>Node1&#45;&gt;Node3</title>
<g id="a_edge2_Node000001_Node000003"><a xlink:title=" ">
<path fill="none" stroke="#63b8ff" d="M556.09,-188.74C610.42,-181.75 683.96,-167.75 743.5,-140 745.65,-139 792.44,-102.02 819.54,-80.55"/>
<polygon fill="#63b8ff" stroke="#63b8ff" points="821.9,-83.14 827.56,-74.18 817.55,-77.66 821.9,-83.14"/>
</a>
</g>
</g>
<!-- Node4 -->
<g id="Node000004" class="node">
<title>Node4</title>
<g id="a_Node000004"><a xlink:title=" ">
<polygon fill="#e0e0e0" stroke="#999999" points="251.5,-134.5 163.5,-134.5 163.5,-115.5 251.5,-115.5 251.5,-134.5"/>
<text text-anchor="middle" x="207.5" y="-122.5" font-family="Helvetica,sans-Serif" font-size="10.00">freertos/task.h</text>
</a>
</g>
</g>
<!-- Node1&#45;&gt;Node4 -->
<g id="edge3_Node000001_Node000004" class="edge">
<title>Node1&#45;&gt;Node4</title>
<g id="a_edge3_Node000001_Node000004"><a xlink:title=" ">
<path fill="none" stroke="#63b8ff" d="M402.93,-176.3C360.86,-165.69 307.78,-152.23 260.5,-140 256.93,-139.08 253.22,-138.11 249.5,-137.14"/>
<polygon fill="#63b8ff" stroke="#63b8ff" points="250.28,-133.72 239.72,-134.57 248.5,-140.49 250.28,-133.72"/>
</a>
</g>
</g>
<!-- Node5 -->
<g id="Node000005" class="node">
<title>Node5</title>
<g id="a_Node000005"><a xlink:title=" ">
<polygon fill="#e0e0e0" stroke="#999999" points="335,-134.5 270,-134.5 270,-115.5 335,-115.5 335,-134.5"/>
<text text-anchor="middle" x="302.5" y="-122.5" font-family="Helvetica,sans-Serif" font-size="10.00">esp_wifi.h</text>
</a>
</g>
</g>
<!-- Node1&#45;&gt;Node5 -->
<g id="edge4_Node000001_Node000005" class="edge">
<title>Node1&#45;&gt;Node5</title>
<g id="a_edge4_Node000001_Node000005"><a xlink:title=" ">
<path fill="none" stroke="#63b8ff" d="M429.72,-175.96C398.9,-163.85 360.26,-148.68 333.7,-138.25"/>
<polygon fill="#63b8ff" stroke="#63b8ff" points="334.74,-134.9 324.16,-134.5 332.19,-141.42 334.74,-134.9"/>
</a>
</g>
</g>
<!-- Node6 -->
<g id="Node000006" class="node">
<title>Node6</title>
<g id="a_Node000006"><a xlink:title=" ">
<polygon fill="#e0e0e0" stroke="#999999" points="429.5,-134.5 353.5,-134.5 353.5,-115.5 429.5,-115.5 429.5,-134.5"/>
<text text-anchor="middle" x="391.5" y="-122.5" font-family="Helvetica,sans-Serif" font-size="10.00">esp_event.h</text>
</a>
</g>
</g>
<!-- Node1&#45;&gt;Node6 -->
<g id="edge5_Node000001_Node000006" class="edge">
<title>Node1&#45;&gt;Node6</title>
<g id="a_edge5_Node000001_Node000006"><a xlink:title=" ">
<path fill="none" stroke="#63b8ff" d="M454.52,-175.77C440.65,-164.81 423.65,-151.39 410.81,-141.25"/>
<polygon fill="#63b8ff" stroke="#63b8ff" points="412.68,-138.27 402.67,-134.82 408.35,-143.76 412.68,-138.27"/>
</a>
</g>
</g>
<!-- Node7 -->
<g id="Node000007" class="node">
<title>Node7</title>
<g id="a_Node000007"><a xlink:title=" ">
<polygon fill="#e0e0e0" stroke="#999999" points="511,-134.5 448,-134.5 448,-115.5 511,-115.5 511,-134.5"/>
<text text-anchor="middle" x="479.5" y="-122.5" font-family="Helvetica,sans-Serif" font-size="10.00">esp_log.h</text>
</a>
</g>
</g>
<!-- Node1&#45;&gt;Node7 -->
<g id="edge6_Node000001_Node000007" class="edge">
<title>Node1&#45;&gt;Node7</title>
<g id="a_edge6_Node000001_Node000007"><a xlink:title=" ">
<path fill="none" stroke="#63b8ff" d="M479.5,-175.77C479.5,-166.08 479.5,-154.46 479.5,-144.88"/>
<polygon fill="#63b8ff" stroke="#63b8ff" points="483,-144.82 479.5,-134.82 476,-144.82 483,-144.82"/>
</a>
</g>
</g>
<!-- Node8 -->
<g id="Node000008" class="node">
<title>Node8</title>
<g id="a_Node000008"><a xlink:title=" ">
<polygon fill="#e0e0e0" stroke="#999999" points="599.5,-134.5 529.5,-134.5 529.5,-115.5 599.5,-115.5 599.5,-134.5"/>
<text text-anchor="middle" x="564.5" y="-122.5" font-family="Helvetica,sans-Serif" font-size="10.00">esp_netif.h</text>
</a>
</g>
</g>
<!-- Node1&#45;&gt;Node8 -->
<g id="edge7_Node000001_Node000008" class="edge">
<title>Node1&#45;&gt;Node8</title>
<g id="a_edge7_Node000001_Node000008"><a xlink:title=" ">
<path fill="none" stroke="#63b8ff" d="M503.63,-175.77C517.03,-164.81 533.45,-151.39 545.85,-141.25"/>
<polygon fill="#63b8ff" stroke="#63b8ff" points="548.19,-143.86 553.71,-134.82 543.76,-138.44 548.19,-143.86"/>
</a>
</g>
</g>
<!-- Node9 -->
<g id="Node000009" class="node">
<title>Node9</title>
<g id="a_Node000009"><a xlink:href="webserver_8h.html" target="_top" xlink:title=" ">
<polygon fill="white" stroke="#666666" points="145.5,-134.5 69.5,-134.5 69.5,-115.5 145.5,-115.5 145.5,-134.5"/>
<text text-anchor="middle" x="107.5" y="-122.5" font-family="Helvetica,sans-Serif" font-size="10.00">webserver.h</text>
</a>
</g>
</g>
<!-- Node1&#45;&gt;Node9 -->
<g id="edge8_Node000001_Node000009" class="edge">
<title>Node1&#45;&gt;Node9</title>
<g id="a_edge8_Node000001_Node000009"><a xlink:title=" ">
<path fill="none" stroke="#63b8ff" d="M402.81,-185.06C336.62,-175.43 238.67,-159.65 154.5,-140 151.08,-139.2 147.54,-138.3 144.01,-137.34"/>
<polygon fill="#63b8ff" stroke="#63b8ff" points="144.77,-133.92 134.19,-134.56 142.86,-140.65 144.77,-133.92"/>
</a>
</g>
</g>
<!-- Node11 -->
<g id="Node000011" class="node">
<title>Node11</title>
<g id="a_Node000011"><a xlink:href="config_8h.html" target="_top" xlink:title=" ">
<polygon fill="white" stroke="#666666" points="734,-134.5 679,-134.5 679,-115.5 734,-115.5 734,-134.5"/>
<text text-anchor="middle" x="706.5" y="-122.5" font-family="Helvetica,sans-Serif" font-size="10.00">config.h</text>
</a>
</g>
</g>
<!-- Node1&#45;&gt;Node11 -->
<g id="edge10_Node000001_Node000011" class="edge">
<title>Node1&#45;&gt;Node11</title>
<g id="a_edge10_Node000001_Node000011"><a xlink:title=" ">
<path fill="none" stroke="#63b8ff" d="M552.53,-175.91C588.31,-165.9 631.91,-153.08 670.5,-140 672.16,-139.44 673.85,-138.84 675.56,-138.23"/>
<polygon fill="#63b8ff" stroke="#63b8ff" points="677.15,-141.38 685.29,-134.6 674.7,-134.82 677.15,-141.38"/>
</a>
</g>
</g>
<!-- Node16 -->
<g id="Node000016" class="node">
<title>Node16</title>
<g id="a_Node000016"><a xlink:href="wifi_8h.html" target="_top" xlink:title=" ">
<polygon fill="white" stroke="#666666" points="661,-134.5 618,-134.5 618,-115.5 661,-115.5 661,-134.5"/>
<text text-anchor="middle" x="639.5" y="-122.5" font-family="Helvetica,sans-Serif" font-size="10.00">wifi.h</text>
</a>
</g>
</g>
<!-- Node1&#45;&gt;Node16 -->
<g id="edge16_Node000001_Node000016" class="edge">
<title>Node1&#45;&gt;Node16</title>
<g id="a_edge16_Node000001_Node000016"><a xlink:title=" ">
<path fill="none" stroke="#63b8ff" d="M525.56,-175.92C550.21,-165.38 581.06,-152.1 608.5,-140 609.35,-139.62 610.21,-139.24 611.09,-138.86"/>
<polygon fill="#63b8ff" stroke="#63b8ff" points="612.81,-141.92 620.51,-134.64 609.95,-135.53 612.81,-141.92"/>
</a>
</g>
</g>
<!-- Node17 -->
<g id="Node000017" class="node">
<title>Node17</title>
<g id="a_Node000017"><a xlink:href="event__bus_8h.html" target="_top" xlink:title=" ">
<polygon fill="white" stroke="#666666" points="898,-140 791,-140 791,-110 898,-110 898,-140"/>
<text text-anchor="start" x="799" y="-128" font-family="Helvetica,sans-Serif" font-size="10.00">../event_bus/event</text>
<text text-anchor="middle" x="844.5" y="-117" font-family="Helvetica,sans-Serif" font-size="10.00">_bus.h</text>
</a>
</g>
</g>
<!-- Node1&#45;&gt;Node17 -->
<g id="edge18_Node000001_Node000017" class="edge">
<title>Node1&#45;&gt;Node17</title>
<g id="a_edge18_Node000001_Node000017"><a xlink:title=" ">
<path fill="none" stroke="#63b8ff" d="M556.19,-181.57C616.2,-170.57 701.74,-154.68 776.5,-140 777.94,-139.72 779.4,-139.43 780.87,-139.14"/>
<polygon fill="#63b8ff" stroke="#63b8ff" points="781.58,-142.57 790.7,-137.17 780.2,-135.7 781.58,-142.57"/>
</a>
</g>
</g>
<!-- Node10 -->
<g id="Node000010" class="node">
<title>Node10</title>
<g id="a_Node000010"><a xlink:title=" ">
<polygon fill="#e0e0e0" stroke="#999999" points="159,-74 56,-74 56,-55 159,-55 159,-74"/>
<text text-anchor="middle" x="107.5" y="-62" font-family="Helvetica,sans-Serif" font-size="10.00">esp_http_server.h</text>
</a>
</g>
</g>
<!-- Node9&#45;&gt;Node10 -->
<g id="edge9_Node000009_Node000010" class="edge">
<title>Node9&#45;&gt;Node10</title>
<g id="a_edge9_Node000009_Node000010"><a xlink:title=" ">
<path fill="none" stroke="#63b8ff" d="M107.5,-115.37C107.5,-107.25 107.5,-94.81 107.5,-84.39"/>
<polygon fill="#63b8ff" stroke="#63b8ff" points="111,-84.17 107.5,-74.17 104,-84.17 111,-84.17"/>
</a>
</g>
</g>
<!-- Node11&#45;&gt;Node3 -->
<g id="edge14_Node000011_Node000003" class="edge">
<title>Node11&#45;&gt;Node3</title>
<g id="a_edge14_Node000011_Node000003"><a xlink:title=" ">
<path fill="none" stroke="#63b8ff" d="M725.69,-115.49C747.89,-105.66 784.62,-89.38 810.12,-78.08"/>
<polygon fill="#63b8ff" stroke="#63b8ff" points="811.56,-81.27 819.28,-74.02 808.72,-74.87 811.56,-81.27"/>
</a>
</g>
</g>
<!-- Node12 -->
<g id="Node000012" class="node">
<title>Node12</title>
<g id="a_Node000012"><a xlink:title=" ">
<polygon fill="#e0e0e0" stroke="#999999" points="536,-74 475,-74 475,-55 536,-55 536,-74"/>
<text text-anchor="middle" x="505.5" y="-62" font-family="Helvetica,sans-Serif" font-size="10.00">esp_err.h</text>
</a>
</g>
</g>
<!-- Node11&#45;&gt;Node12 -->
<g id="edge11_Node000011_Node000012" class="edge">
<title>Node11&#45;&gt;Node12</title>
<g id="a_edge11_Node000011_Node000012"><a xlink:title=" ">
<path fill="none" stroke="#63b8ff" d="M685.7,-115.47C680.75,-113.57 675.47,-111.63 670.5,-110 628.6,-96.25 579.74,-83.46 546.12,-75.16"/>
<polygon fill="#63b8ff" stroke="#63b8ff" points="546.75,-71.71 536.2,-72.73 545.08,-78.51 546.75,-71.71"/>
</a>
</g>
</g>
<!-- Node13 -->
<g id="Node000013" class="node">
<title>Node13</title>
<g id="a_Node000013"><a xlink:href="clock_8h.html" target="_top" xlink:title=" ">
<polygon fill="white" stroke="#666666" points="643,-74 554,-74 554,-55 643,-55 643,-74"/>
<text text-anchor="middle" x="598.5" y="-62" font-family="Helvetica,sans-Serif" font-size="10.00">../clock/clock.h</text>
</a>
</g>
</g>
<!-- Node11&#45;&gt;Node13 -->
<g id="edge12_Node000011_Node000013" class="edge">
<title>Node11&#45;&gt;Node13</title>
<g id="a_edge12_Node000011_Node000013"><a xlink:title=" ">
<path fill="none" stroke="#63b8ff" d="M690.56,-115.37C672.86,-105.78 644.04,-90.17 623.36,-78.97"/>
<polygon fill="#63b8ff" stroke="#63b8ff" points="624.96,-75.85 614.5,-74.17 621.63,-82.01 624.96,-75.85"/>
</a>
</g>
</g>
<!-- Node15 -->
<g id="Node000015" class="node">
<title>Node15</title>
<g id="a_Node000015"><a xlink:title=" ">
<polygon fill="#e0e0e0" stroke="#999999" points="764,-74 661,-74 661,-55 764,-55 764,-74"/>
<text text-anchor="middle" x="712.5" y="-62" font-family="Helvetica,sans-Serif" font-size="10.00">freertos/semphr.h</text>
</a>
</g>
</g>
<!-- Node11&#45;&gt;Node15 -->
<g id="edge15_Node000011_Node000015" class="edge">
<title>Node11&#45;&gt;Node15</title>
<g id="a_edge15_Node000011_Node000015"><a xlink:title=" ">
<path fill="none" stroke="#63b8ff" d="M707.39,-115.37C708.22,-107.25 709.49,-94.81 710.56,-84.39"/>
<polygon fill="#63b8ff" stroke="#63b8ff" points="714.07,-84.47 711.61,-74.17 707.11,-83.76 714.07,-84.47"/>
</a>
</g>
</g>
<!-- Node14 -->
<g id="Node000014" class="node">
<title>Node14</title>
<g id="a_Node000014"><a xlink:title=" ">
<polygon fill="#e0e0e0" stroke="#999999" points="625,-19 572,-19 572,0 625,0 625,-19"/>
<text text-anchor="middle" x="598.5" y="-7" font-family="Helvetica,sans-Serif" font-size="10.00">stdint.h</text>
</a>
</g>
</g>
<!-- Node13&#45;&gt;Node14 -->
<g id="edge13_Node000013_Node000014" class="edge">
<title>Node13&#45;&gt;Node14</title>
<g id="a_edge13_Node000013_Node000014"><a xlink:title=" ">
<path fill="none" stroke="#63b8ff" d="M598.5,-54.75C598.5,-47.8 598.5,-37.85 598.5,-29.13"/>
<polygon fill="#63b8ff" stroke="#63b8ff" points="602,-29.09 598.5,-19.09 595,-29.09 602,-29.09"/>
</a>
</g>
</g>
<!-- Node16&#45;&gt;Node12 -->
<g id="edge17_Node000016_Node000012" class="edge">
<title>Node16&#45;&gt;Node12</title>
<g id="a_edge17_Node000016_Node000012"><a xlink:title=" ">
<path fill="none" stroke="#63b8ff" d="M620.5,-115.36C616.54,-113.58 612.39,-111.72 608.5,-110 583.85,-99.11 555.76,-86.99 535.14,-78.15"/>
<polygon fill="#63b8ff" stroke="#63b8ff" points="536.24,-74.82 525.67,-74.1 533.49,-81.25 536.24,-74.82"/>
</a>
</g>
</g>
<!-- Node17&#45;&gt;Node3 -->
<g id="edge19_Node000017_Node000003" class="edge">
<title>Node17&#45;&gt;Node3</title>
<g id="a_edge19_Node000017_Node000003"><a xlink:title=" ">
<path fill="none" stroke="#63b8ff" d="M843.05,-109.84C842.27,-102.21 841.29,-92.7 840.44,-84.45"/>
<polygon fill="#63b8ff" stroke="#63b8ff" points="843.9,-83.86 839.4,-74.27 836.94,-84.57 843.9,-83.86"/>
</a>
</g>
</g>
<!-- Node18 -->
<g id="Node000018" class="node">
<title>Node18</title>
<g id="a_Node000018"><a xlink:title=" ">
<polygon fill="#e0e0e0" stroke="#999999" points="1010,-74 913,-74 913,-55 1010,-55 1010,-74"/>
<text text-anchor="middle" x="961.5" y="-62" font-family="Helvetica,sans-Serif" font-size="10.00">freertos/queue.h</text>
</a>
</g>
</g>
<!-- Node17&#45;&gt;Node18 -->
<g id="edge20_Node000017_Node000018" class="edge">
<title>Node17&#45;&gt;Node18</title>
<g id="a_edge20_Node000017_Node000018"><a xlink:title=" ">
<path fill="none" stroke="#63b8ff" d="M872.52,-109.99C891.52,-100.49 916.47,-88.02 935.11,-78.69"/>
<polygon fill="#63b8ff" stroke="#63b8ff" points="936.84,-81.74 944.22,-74.14 933.71,-75.48 936.84,-81.74"/>
</a>
</g>
</g>
</g>
</svg>
