<?xml version="1.0" encoding="UTF-8" standalone="no"?>
<!DOCTYPE svg PUBLIC "-//W3C//DTD SVG 1.1//EN"
 "http://www.w3.org/Graphics/SVG/1.1/DTD/svg11.dtd">
<!-- Generated by graphviz version 2.43.0 (0)
 -->
<!-- Title: software/nixie_clock_esp32_project/components/webserver/webserver.c Pages: 1 -->
<svg width="983pt" height="225pt"
 viewBox="0.00 0.00 982.50 225.00" xmlns="http://www.w3.org/2000/svg" xmlns:xlink="http://www.w3.org/1999/xlink">
<g id="graph0" class="graph" transform="scale(1 1) rotate(0) translate(4 221)">
<title>software/nixie_clock_esp32_project/components/webserver/webserver.c</title>
<!-- Node1 -->
<g id="Node000001" class="node">
<title>Node1</title>
<g id="a_Node000001"><a xlink:title=" ">
<polygon fill="#999999" stroke="#666666" points="556,-217 403,-217 403,-176 556,-176 556,-217"/>
<text text-anchor="start" x="411" y="-205" font-family="Helvetica,sans-Serif" font-size="10.00">software/nixie_clock</text>
<text text-anchor="start" x="411" y="-194" font-family="Helvetica,sans-Serif" font-size="10.00">_esp32_project/components</text>
<text text-anchor="middle" x="479.5" y="-183" font-family="Helvetica,sans-Serif" font-size="10.00">/webserver/webserver.c</text>
</a>
</g>
</g>
<!-- Node2 -->
<g id="Node000002" class="node">
<title>Node2</title>
<g id="a_Node000002"><a xlink:title=" ">
<polygon fill="#e0e0e0" stroke="#999999" points="51,-134.5 0,-134.5 0,-115.5 51,-115.5 51,-134.5"/>
<text text-anchor="middle" x="25.5" y="-122.5" font-family="Helvetica,sans-Serif" font-size="10.00">errno.h</text>
</a>
</g>
</g>
<!-- Node1&#45;&gt;Node2 -->
<g id="edge1_Node000001_Node000002" class="edge">
<title>Node1&#45;&gt;Node2</title>
<g id="a_edge1_Node000001_Node000002"><a xlink:title=" ">
<path fill="none" stroke="#63b8ff" d="M402.71,-191.07C317.83,-184.86 177.63,-170.67 60.5,-140 58.34,-139.43 56.13,-138.77 53.93,-138.05"/>
<polygon fill="#63b8ff" stroke="#63b8ff" points="55.06,-134.73 44.47,-134.58 52.65,-141.3 55.06,-134.73"/>
</a>
</g>
</g>
<!-- Node3 -->
<g id="Node000003" class="node">
<title>Node3</title>
<g id="a_Node000003"><a xlink:title=" ">
<polygon fill="#e0e0e0" stroke="#999999" points="621,-74 508,-74 508,-55 621,-55 621,-74"/>
<text text-anchor="middle" x="564.5" y="-62" font-family="Helvetica,sans-Serif" font-size="10.00">freertos/FreeRTOS.h</text>
</a>
</g>
</g>
<!-- Node1&#45;&gt;Node3 -->
<g id="edge2_Node000001_Node000003" class="edge">
<title>Node1&#45;&gt;Node3</title>
<g id="a_edge2_Node000001_Node000003"><a xlink:title=" ">
<path fill="none" stroke="#63b8ff" d="M556.32,-179.01C576.69,-170.76 596.37,-158.43 608.5,-140 615.83,-128.86 613.57,-122.33 608.5,-110 603.69,-98.31 594.17,-88.05 585.2,-80.34"/>
<polygon fill="#63b8ff" stroke="#63b8ff" points="587.27,-77.51 577.28,-74 582.9,-82.98 587.27,-77.51"/>
</a>
</g>
</g>
<!-- Node4 -->
<g id="Node000004" class="node">
<title>Node4</title>
<g id="a_Node000004"><a xlink:title=" ">
<polygon fill="#e0e0e0" stroke="#999999" points="251.5,-134.5 163.5,-134.5 163.5,-115.5 251.5,-115.5 251.5,-134.5"/>
<text text-anchor="middle" x="207.5" y="-122.5" font-family="Helvetica,sans-Serif" font-size="10.00">freertos/task.h</text>
</a>
</g>
</g>
<!-- Node1&#45;&gt;Node4 -->
<g id="edge3_Node000001_Node000004" class="edge">
<title>Node1&#45;&gt;Node4</title>
<g id="a_edge3_Node000001_Node000004"><a xlink:title=" ">
<path fill="none" stroke="#63b8ff" d="M402.93,-176.3C360.86,-165.69 307.78,-152.23 260.5,-140 256.93,-139.08 253.22,-138.11 249.5,-137.14"/>
<polygon fill="#63b8ff" stroke="#63b8ff" points="250.28,-133.72 239.72,-134.57 248.5,-140.49 250.28,-133.72"/>
</a>
</g>
</g>
<!-- Node5 -->
<g id="Node000005" class="node">
<title>Node5</title>
<g id="a_Node000005"><a xlink:title=" ">
<polygon fill="#e0e0e0" stroke="#999999" points="335,-134.5 270,-134.5 270,-115.5 335,-115.5 335,-134.5"/>
<text text-anchor="middle" x="302.5" y="-122.5" font-family="Helvetica,sans-Serif" font-size="10.00">esp_wifi.h</text>
</a>
</g>
</g>
<!-- Node1&#45;&gt;Node5 -->
<g id="edge4_Node000001_Node000005" class="edge">
<title>Node1&#45;&gt;Node5</title>
<g id="a_edge4_Node000001_Node000005"><a xlink:title=" ">
<path fill="none" stroke="#63b8ff" d="M429.72,-175.96C398.9,-163.85 360.26,-148.68 333.7,-138.25"/>
<polygon fill="#63b8ff" stroke="#63b8ff" points="334.74,-134.9 324.16,-134.5 332.19,-141.42 334.74,-134.9"/>
</a>
</g>
</g>
<!-- Node6 -->
<g id="Node000006" class="node">
<title>Node6</title>
<g id="a_Node000006"><a xlink:title=" ">
<polygon fill="#e0e0e0" stroke="#999999" points="429.5,-134.5 353.5,-134.5 353.5,-115.5 429.5,-115.5 429.5,-134.5"/>
<text text-anchor="middle" x="391.5" y="-122.5" font-family="Helvetica,sans-Serif" font-size="10.00">esp_event.h</text>
</a>
</g>
</g>
<!-- Node1&#45;&gt;Node6 -->
<g id="edge5_Node000001_Node000006" class="edge">
<title>Node1&#45;&gt;Node6</title>
<g id="a_edge5_Node000001_Node000006"><a xlink:title=" ">
<path fill="none" stroke="#63b8ff" d="M454.52,-175.77C440.65,-164.81 423.65,-151.39 410.81,-141.25"/>
<polygon fill="#63b8ff" stroke="#63b8ff" points="412.68,-138.27 402.67,-134.82 408.35,-143.76 412.68,-138.27"/>
</a>
</g>
</g>
<!-- Node7 -->
<g id="Node000007" class="node">
<title>Node7</title>
<g id="a_Node000007"><a xlink:title=" ">
<polygon fill="#e0e0e0" stroke="#999999" points="511,-134.5 448,-134.5 448,-115.5 511,-115.5 511,-134.5"/>
<text text-anchor="middle" x="479.5" y="-122.5" font-family="Helvetica,sans-Serif" font-size="10.00">esp_log.h</text>
</a>
</g>
</g>
<!-- Node1&#45;&gt;Node7 -->
<g id="edge6_Node000001_Node000007" class="edge">
<title>Node1&#45;&gt;Node7</title>
<g id="a_edge6_Node000001_Node000007"><a xlink:title=" ">
<path fill="none" stroke="#63b8ff" d="M479.5,-175.77C479.5,-166.08 479.5,-154.46 479.5,-144.88"/>
<polygon fill="#63b8ff" stroke="#63b8ff" points="483,-144.82 479.5,-134.82 476,-144.82 483,-144.82"/>
</a>
</g>
</g>
<!-- Node8 -->
<g id="Node000008" class="node">
<title>Node8</title>
<g id="a_Node000008"><a xlink:title=" ">
<polygon fill="#e0e0e0" stroke="#999999" points="599.5,-134.5 529.5,-134.5 529.5,-115.5 599.5,-115.5 599.5,-134.5"/>
<text text-anchor="middle" x="564.5" y="-122.5" font-family="Helvetica,sans-Serif" font-size="10.00">esp_netif.h</text>
</a>
</g>
</g>
<!-- Node1&#45;&gt;Node8 -->
<g id="edge7_Node000001_Node000008" class="edge">
<title>Node1&#45;&gt;Node8</title>
<g id="a_edge7_Node000001_Node000008"><a xlink:title=" ">
<path fill="none" stroke="#63b8ff" d="M503.63,-175.77C517.03,-164.81 533.45,-151.39 545.85,-141.25"/>
<polygon fill="#63b8ff" stroke="#63b8ff" points="548.19,-143.86 553.71,-134.82 543.76,-138.44 548.19,-143.86"/>
</a>
</g>
</g>
<!-- Node9 -->
<g id="Node000009" class="node">
<title>Node9</title>
<g id="a_Node000009"><a xlink:href="webserver_8h.html" target="_top" xlink:title=" ">
<polygon fill="white" stroke="#666666" points="145.5,-134.5 69.5,-134.5 69.5,-115.5 145.5,-115.5 145.5,-134.5"/>
<text text-anchor="middle" x="107.5" y="-122.5" font-family="Helvetica,sans-Serif" font-size="10.00">webserver.h</text>
</a>
</g>
</g>
<!-- Node1&#45;&gt;Node9 -->
<g id="edge8_Node000001_Node000009" class="edge">
<title>Node1&#45;&gt;Node9</title>
<g id="a_edge8_Node000001_Node000009"><a xlink:title=" ">
<path fill="none" stroke="#63b8ff" d="M402.81,-185.06C336.62,-175.43 238.67,-159.65 154.5,-140 151.08,-139.2 147.54,-138.3 144.01,-137.34"/>
<polygon fill="#63b8ff" stroke="#63b8ff" points="144.77,-133.92 134.19,-134.56 142.86,-140.65 144.77,-133.92"/>
</a>
</g>
</g>
<!-- Node11 -->
<g id="Node000011" class="node">
<title>Node11</title>
<g id="a_Node000011"><a xlink:href="config_8h.html" target="_top" xlink:title=" ">
<polygon fill="white" stroke="#666666" points="711,-134.5 656,-134.5 656,-115.5 711,-115.5 711,-134.5"/>
<text text-anchor="middle" x="683.5" y="-122.5" font-family="Helvetica,sans-Serif" font-size="10.00">config.h</text>
</a>
</g>
</g>
<!-- Node1&#45;&gt;Node11 -->
<g id="edge10_Node000001_Node000011" class="edge">
<title>Node1&#45;&gt;Node11</title>
<g id="a_edge10_Node000001_Node000011"><a xlink:title=" ">
<path fill="none" stroke="#63b8ff" d="M536.87,-175.96C572.87,-163.69 618.1,-148.28 648.74,-137.84"/>
<polygon fill="#63b8ff" stroke="#63b8ff" points="650.2,-141.04 658.54,-134.5 647.95,-134.42 650.2,-141.04"/>
</a>
</g>
</g>
<!-- Node16 -->
<g id="Node000016" class="node">
<title>Node16</title>
<g id="a_Node000016"><a xlink:href="esp__stub_8h.html" target="_top" xlink:title=" ">
<polygon fill="white" stroke="#666666" points="844,-134.5 729,-134.5 729,-115.5 844,-115.5 844,-134.5"/>
<text text-anchor="middle" x="786.5" y="-122.5" font-family="Helvetica,sans-Serif" font-size="10.00">../../main/esp_stub.h</text>
</a>
</g>
</g>
<!-- Node1&#45;&gt;Node16 -->
<g id="edge16_Node000001_Node000016" class="edge">
<title>Node1&#45;&gt;Node16</title>
<g id="a_edge16_Node000001_Node000016"><a xlink:title=" ">
<path fill="none" stroke="#63b8ff" d="M556.18,-178.14C613.55,-165.15 690.2,-147.8 738.98,-136.76"/>
<polygon fill="#63b8ff" stroke="#63b8ff" points="739.96,-140.12 748.94,-134.5 738.42,-133.3 739.96,-140.12"/>
</a>
</g>
</g>
<!-- Node17 -->
<g id="Node000017" class="node">
<title>Node17</title>
<g id="a_Node000017"><a xlink:href="service__manager_8h.html" target="_top" xlink:title=" ">
<polygon fill="white" stroke="#666666" points="974.5,-140 862.5,-140 862.5,-110 974.5,-110 974.5,-140"/>
<text text-anchor="start" x="870.5" y="-128" font-family="Helvetica,sans-Serif" font-size="10.00">../service_manager</text>
<text text-anchor="middle" x="918.5" y="-117" font-family="Helvetica,sans-Serif" font-size="10.00">/service_manager.h</text>
</a>
</g>
</g>
<!-- Node1&#45;&gt;Node17 -->
<g id="edge17_Node000001_Node000017" class="edge">
<title>Node1&#45;&gt;Node17</title>
<g id="a_edge17_Node000001_Node000017"><a xlink:title=" ">
<path fill="none" stroke="#63b8ff" d="M556.02,-185.62C629.49,-175.8 743.8,-159.64 852.05,-140.2"/>
<polygon fill="#63b8ff" stroke="#63b8ff" points="852.96,-143.59 862.17,-138.37 851.71,-136.7 852.96,-143.59"/>
</a>
</g>
</g>
<!-- Node10 -->
<g id="Node000010" class="node">
<title>Node10</title>
<g id="a_Node000010"><a xlink:title=" ">
<polygon fill="#e0e0e0" stroke="#999999" points="159,-74 56,-74 56,-55 159,-55 159,-74"/>
<text text-anchor="middle" x="107.5" y="-62" font-family="Helvetica,sans-Serif" font-size="10.00">esp_http_server.h</text>
</a>
</g>
</g>
<!-- Node9&#45;&gt;Node10 -->
<g id="edge9_Node000009_Node000010" class="edge">
<title>Node9&#45;&gt;Node10</title>
<g id="a_edge9_Node000009_Node000010"><a xlink:title=" ">
<path fill="none" stroke="#63b8ff" d="M107.5,-115.37C107.5,-107.25 107.5,-94.81 107.5,-84.39"/>
<polygon fill="#63b8ff" stroke="#63b8ff" points="111,-84.17 107.5,-74.17 104,-84.17 111,-84.17"/>
</a>
</g>
</g>
<!-- Node11&#45;&gt;Node3 -->
<g id="edge14_Node000011_Node000003" class="edge">
<title>Node11&#45;&gt;Node3</title>
<g id="a_edge14_Node000011_Node000003"><a xlink:title=" ">
<path fill="none" stroke="#63b8ff" d="M666.2,-115.49C646.45,-105.79 613.95,-89.81 591.01,-78.53"/>
<polygon fill="#63b8ff" stroke="#63b8ff" points="592.34,-75.29 581.82,-74.02 589.25,-81.57 592.34,-75.29"/>
</a>
</g>
</g>
<!-- Node12 -->
<g id="Node000012" class="node">
<title>Node12</title>
<g id="a_Node000012"><a xlink:title=" ">
<polygon fill="#e0e0e0" stroke="#999999" points="942,-74 881,-74 881,-55 942,-55 942,-74"/>
<text text-anchor="middle" x="911.5" y="-62" font-family="Helvetica,sans-Serif" font-size="10.00">esp_err.h</text>
</a>
</g>
</g>
<!-- Node11&#45;&gt;Node12 -->
<g id="edge11_Node000011_Node000012" class="edge">
<title>Node11&#45;&gt;Node12</title>
<g id="a_edge11_Node000011_Node000012"><a xlink:title=" ">
<path fill="none" stroke="#63b8ff" d="M704.86,-115.37C709.94,-113.47 715.37,-111.56 720.5,-110 771.63,-94.45 831.87,-81.23 870.82,-73.34"/>
<polygon fill="#63b8ff" stroke="#63b8ff" points="871.62,-76.75 880.74,-71.36 870.24,-69.89 871.62,-76.75"/>
</a>
</g>
</g>
<!-- Node13 -->
<g id="Node000013" class="node">
<title>Node13</title>
<g id="a_Node000013"><a xlink:href="clock_8h.html" target="_top" xlink:title=" ">
<polygon fill="white" stroke="#666666" points="849,-74 760,-74 760,-55 849,-55 849,-74"/>
<text text-anchor="middle" x="804.5" y="-62" font-family="Helvetica,sans-Serif" font-size="10.00">../clock/clock.h</text>
</a>
</g>
</g>
<!-- Node11&#45;&gt;Node13 -->
<g id="edge12_Node000011_Node000013" class="edge">
<title>Node11&#45;&gt;Node13</title>
<g id="a_edge12_Node000011_Node000013"><a xlink:title=" ">
<path fill="none" stroke="#63b8ff" d="M701.09,-115.49C721.26,-105.75 754.52,-89.66 777.86,-78.38"/>
<polygon fill="#63b8ff" stroke="#63b8ff" points="779.4,-81.52 786.88,-74.02 776.36,-75.22 779.4,-81.52"/>
</a>
</g>
</g>
<!-- Node15 -->
<g id="Node000015" class="node">
<title>Node15</title>
<g id="a_Node000015"><a xlink:title=" ">
<polygon fill="#e0e0e0" stroke="#999999" points="742,-74 639,-74 639,-55 742,-55 742,-74"/>
<text text-anchor="middle" x="690.5" y="-62" font-family="Helvetica,sans-Serif" font-size="10.00">freertos/semphr.h</text>
</a>
</g>
</g>
<!-- Node11&#45;&gt;Node15 -->
<g id="edge15_Node000011_Node000015" class="edge">
<title>Node11&#45;&gt;Node15</title>
<g id="a_edge15_Node000011_Node000015"><a xlink:title=" ">
<path fill="none" stroke="#63b8ff" d="M684.53,-115.37C685.5,-107.25 686.99,-94.81 688.24,-84.39"/>
<polygon fill="#63b8ff" stroke="#63b8ff" points="691.75,-84.51 689.46,-74.17 684.8,-83.68 691.75,-84.51"/>
</a>
</g>
</g>
<!-- Node14 -->
<g id="Node000014" class="node">
<title>Node14</title>
<g id="a_Node000014"><a xlink:title=" ">
<polygon fill="#e0e0e0" stroke="#999999" points="831,-19 778,-19 778,0 831,0 831,-19"/>
<text text-anchor="middle" x="804.5" y="-7" font-family="Helvetica,sans-Serif" font-size="10.00">stdint.h</text>
</a>
</g>
</g>
<!-- Node13&#45;&gt;Node14 -->
<g id="edge13_Node000013_Node000014" class="edge">
<title>Node13&#45;&gt;Node14</title>
<g id="a_edge13_Node000013_Node000014"><a xlink:title=" ">
<path fill="none" stroke="#63b8ff" d="M804.5,-54.75C804.5,-47.8 804.5,-37.85 804.5,-29.13"/>
<polygon fill="#63b8ff" stroke="#63b8ff" points="808,-29.09 804.5,-19.09 801,-29.09 808,-29.09"/>
</a>
</g>
</g>
<!-- Node17&#45;&gt;Node12 -->
<g id="edge18_Node000017_Node000012" class="edge">
<title>Node17&#45;&gt;Node12</title>
<g id="a_edge18_Node000017_Node000012"><a xlink:title=" ">
<path fill="none" stroke="#63b8ff" d="M916.81,-109.84C915.89,-102.21 914.76,-92.7 913.77,-84.45"/>
<polygon fill="#63b8ff" stroke="#63b8ff" points="917.21,-83.78 912.55,-74.27 910.26,-84.61 917.21,-83.78"/>
</a>
</g>
</g>
</g>
</svg>
