<?xml version="1.0" encoding="UTF-8" standalone="no"?>
<!DOCTYPE svg PUBLIC "-//W3C//DTD SVG 1.1//EN"
 "http://www.w3.org/Graphics/SVG/1.1/DTD/svg11.dtd">
<!-- Generated by graphviz version 2.43.0 (0)
 -->
<!-- Title: software/nixie_clock_esp32_project/components/wifi/wifi.h Pages: 1 -->
<svg width="503pt" height="137pt"
 viewBox="0.00 0.00 503.00 137.00" xmlns="http://www.w3.org/2000/svg" xmlns:xlink="http://www.w3.org/1999/xlink">
<g id="graph0" class="graph" transform="scale(1 1) rotate(0) translate(4 133)">
<title>software/nixie_clock_esp32_project/components/wifi/wifi.h</title>
<!-- Node1 -->
<g id="Node000001" class="node">
<title>Node1</title>
<g id="a_Node000001"><a xlink:title=" ">
<polygon fill="#999999" stroke="#666666" points="324,-129 171,-129 171,-88 324,-88 324,-129"/>
<text text-anchor="start" x="179" y="-117" font-family="Helvetica,sans-Serif" font-size="10.00">software/nixie_clock</text>
<text text-anchor="start" x="179" y="-106" font-family="Helvetica,sans-Serif" font-size="10.00">_esp32_project/components</text>
<text text-anchor="middle" x="247.5" y="-95" font-family="Helvetica,sans-Serif" font-size="10.00">/wifi/wifi.h</text>
</a>
</g>
</g>
<!-- Node2 -->
<g id="Node000002" class="node">
<title>Node2</title>
<g id="a_Node000002"><a xlink:href="config_8c.html" target="_top" xlink:title=" ">
<polygon fill="white" stroke="#666666" points="153,-46.5 0,-46.5 0,-5.5 153,-5.5 153,-46.5"/>
<text text-anchor="start" x="8" y="-34.5" font-family="Helvetica,sans-Serif" font-size="10.00">software/nixie_clock</text>
<text text-anchor="start" x="8" y="-23.5" font-family="Helvetica,sans-Serif" font-size="10.00">_esp32_project/components</text>
<text text-anchor="middle" x="76.5" y="-12.5" font-family="Helvetica,sans-Serif" font-size="10.00">/config/config.c</text>
</a>
</g>
</g>
<!-- Node1&#45;&gt;Node2 -->
<g id="edge1_Node000001_Node000002" class="edge">
<title>Node1&#45;&gt;Node2</title>
<g id="a_edge1_Node000001_Node000002"><a xlink:title=" ">
<path fill="none" stroke="#63b8ff" d="M196.36,-83.42C171.4,-71.67 141.76,-57.72 118.2,-46.63"/>
<polygon fill="#63b8ff" stroke="#63b8ff" points="195.13,-86.71 205.67,-87.81 198.11,-80.38 195.13,-86.71"/>
</a>
</g>
</g>
<!-- Node3 -->
<g id="Node000003" class="node">
<title>Node3</title>
<g id="a_Node000003"><a xlink:href="service__manager_8c.html" target="_top" xlink:title=" ">
<polygon fill="white" stroke="#666666" points="324,-52 171,-52 171,0 324,0 324,-52"/>
<text text-anchor="start" x="179" y="-40" font-family="Helvetica,sans-Serif" font-size="10.00">software/nixie_clock</text>
<text text-anchor="start" x="179" y="-29" font-family="Helvetica,sans-Serif" font-size="10.00">_esp32_project/components</text>
<text text-anchor="start" x="179" y="-18" font-family="Helvetica,sans-Serif" font-size="10.00">/service_manager/service</text>
<text text-anchor="middle" x="247.5" y="-7" font-family="Helvetica,sans-Serif" font-size="10.00">_manager.c</text>
</a>
</g>
</g>
<!-- Node1&#45;&gt;Node3 -->
<g id="edge2_Node000001_Node000003" class="edge">
<title>Node1&#45;&gt;Node3</title>
<g id="a_edge2_Node000001_Node000003"><a xlink:title=" ">
<path fill="none" stroke="#63b8ff" d="M247.5,-77.49C247.5,-69.15 247.5,-60.19 247.5,-52.16"/>
<polygon fill="#63b8ff" stroke="#63b8ff" points="244,-77.6 247.5,-87.6 251,-77.6 244,-77.6"/>
</a>
</g>
</g>
<!-- Node4 -->
<g id="Node000004" class="node">
<title>Node4</title>
<g id="a_Node000004"><a xlink:href="wifi_8c.html" target="_top" xlink:title=" ">
<polygon fill="white" stroke="#666666" points="495,-46.5 342,-46.5 342,-5.5 495,-5.5 495,-46.5"/>
<text text-anchor="start" x="350" y="-34.5" font-family="Helvetica,sans-Serif" font-size="10.00">software/nixie_clock</text>
<text text-anchor="start" x="350" y="-23.5" font-family="Helvetica,sans-Serif" font-size="10.00">_esp32_project/components</text>
<text text-anchor="middle" x="418.5" y="-12.5" font-family="Helvetica,sans-Serif" font-size="10.00">/wifi/wifi.c</text>
</a>
</g>
</g>
<!-- Node1&#45;&gt;Node4 -->
<g id="edge3_Node000001_Node000004" class="edge">
<title>Node1&#45;&gt;Node4</title>
<g id="a_edge3_Node000001_Node000004"><a xlink:title=" ">
<path fill="none" stroke="#63b8ff" d="M298.64,-83.42C323.6,-71.67 353.24,-57.72 376.8,-46.63"/>
<polygon fill="#63b8ff" stroke="#63b8ff" points="296.89,-80.38 289.33,-87.81 299.87,-86.71 296.89,-80.38"/>
</a>
</g>
</g>
</g>
</svg>
