  0
SECTION
  2
HEADER
  9
$ACADVER
  1
AC1014
  9
$HANDSEED
  5
FFFF
  9
$INSUNITS
 70
     0
  9
$MEASUREMENT
 70
     1
  0
ENDSEC
  0
SECTION
  2
TABLES
  0
TABLE
  2
VPORT
  5
8
330
0
100
AcDbSymbolTable
 70
     4
  0
VPORT
  5
2E
330
8
100
AcDbSymbolTableRecord
100
AcDbViewportTableRecord
  2
*ACTIVE
 70
     0
 10
0.0
 20
0.0
 11
1.0
 21
1.0
 12
210.0
 22
148.5
 13
0.0
 23
0.0
 14
10.0
 24
10.0
 15
10.0
 25
10.0
 16
0.0
 26
0.0
 36
1.0
 17
0.0
 27
0.0
 37
0.0
 40
341.0
 41
1.24
 42
50.0
 43
0.0
 44
0.0
 50
0.0
 51
0.0
 71
     0
 72
   100
 73
     1
 74
     3
 75
     0
 76
     0
 77
     0
 78
     0
  0
ENDTAB
  0
TABLE
  2
LTYPE
  5
5
330
0
100
AcDbSymbolTable
 70
     1
  0
LTYPE
  5
14
330
5
100
AcDbSymbolTableRecord
100
AcDbLinetypeTableRecord
  2
BYBLOCK
 70
     0
  3

 72
    65
 73
     0
 40
0.0
  0
LTYPE
  5
15
330
5
100
AcDbSymbolTableRecord
100
AcDbLinetypeTableRecord
  2
BYLAYER
 70
     0
  3

 72
    65
 73
     0
 40
0.0
  0
LTYPE
  5
16
330
5
100
AcDbSymbolTableRecord
100
AcDbLinetypeTableRecord
  2
CONTINUOUS
 70
     0
  3
Solid line
 72
    65
 73
     0
 40
0.0
  0
ENDTAB
  0
TABLE
  2
LAYER
  5
2
100
AcDbSymbolTable
 70
1
  0
LAYER
  5
50
100
AcDbSymbolTableRecord
100
AcDbLayerTableRecord
  2
0
 70
0
  6
CONTINUOUS
  0
ENDTAB
  0
TABLE
  2
STYLE
  5
3
330
0
100
AcDbSymbolTable
 70
     1
  0
STYLE
  5
11
330
3
100
AcDbSymbolTableRecord
100
AcDbTextStyleTableRecord
  2
STANDARD
 70
     0
 40
0.0
 41
1.0
 50
0.0
 71
     0
 42
2.5
  3
txt
  4

  0
ENDTAB
  0
TABLE
  2
VIEW
  5
6
330
0
100
AcDbSymbolTable
 70
     0
  0
ENDTAB
  0
TABLE
  2
UCS
  5
7
330
0
100
AcDbSymbolTable
 70
     0
  0
ENDTAB
  0
TABLE
  2
APPID
  5
9
330
0
100
AcDbSymbolTable
 70
     2
  0
APPID
  5
12
330
9
100
AcDbSymbolTableRecord
100
AcDbRegAppTableRecord
  2
ACAD
 70
     0
  0
ENDTAB
  0
TABLE
  2
DIMSTYLE
  5
A
330
0
100
AcDbSymbolTable
 70
     1
  0
DIMSTYLE
105
27
330
A
100
AcDbSymbolTableRecord
100
AcDbDimStyleTableRecord
  2
ISO-25
 70
     0
  3

  4

  5

  6

  7

 40
1.0
 41
2.5
 42
0.625
 43
3.75
 44
1.25
 45
0.0
 46
0.0
 47
0.0
 48
0.0
140
2.5
141
2.5
142
0.0
143
0.03937007874016
144
1.0
145
0.0
146
1.0
147
0.625
 71
     0
 72
     0
 73
     0
 74
     0
 75
     0
 76
     0
 77
     1
 78
     8
170
     0
171
     3
172
     1
173
     0
174
     0
175
     0
176
     0
177
     0
178
     0
270
     2
271
     2
272
     2
273
     2
274
     3
340
11
275
     0
280
     0
281
     0
282
     0
283
     0
284
     8
285
     0
286
     0
287
     3
288
     0
  0
ENDTAB
  0
TABLE
  2
BLOCK_RECORD
  5
1
330
0
100
AcDbSymbolTable
 70
     1
  0
BLOCK_RECORD
  5
1F
330
1
100
AcDbSymbolTableRecord
100
AcDbBlockTableRecord
  2
*MODEL_SPACE
  0
BLOCK_RECORD
  5
1B
330
1
100
AcDbSymbolTableRecord
100
AcDbBlockTableRecord
  2
*PAPER_SPACE
  0
ENDTAB
  0
ENDSEC
  0
SECTION
  2
BLOCKS
  0
BLOCK
  5
20
330
1F
100
AcDbEntity
  8
0
100
AcDbBlockBegin
  2
*MODEL_SPACE
 70
     0
 10
0.0
 20
0.0
 30
0.0
  3
*MODEL_SPACE
  1

  0
ENDBLK
  5
21
330
1F
100
AcDbEntity
  8
0
100
AcDbBlockEnd
  0
BLOCK
  5
1C
330
1B
100
AcDbEntity
 67
     1
  8
0
100
AcDbBlockBegin
  2
*PAPER_SPACE
  1

  0
ENDBLK
  5
1D
330
1B
100
AcDbEntity
 67
     1
  8
0
100
AcDbBlockEnd
  0
ENDSEC
  0
SECTION
  2
ENTITIES
  0
LWPOLYLINE
  5
100
100
AcDbEntity
  8
0
 62
7
100
AcDbPolyline
 90
4
 70
1
 10
0.578862
 20
47.711319
 30
0.0
 10
35.685643
 20
36.014909
 30
0.0
 10
70.778383
 20
47.711319
 30
0.0
 10
35.143936
 20
59.411239
 30
0.0
  0
LWPOLYLINE
  5
101
100
AcDbEntity
  8
0
 62
7
100
AcDbPolyline
 90
6
 70
1
 10
35.140906
 20
60.028059
 30
0.0
 10
0.390763
 20
48.266446
 30
0.0
 10
0.578149
 20
47.711156
 30
0.0
 10
0.393056
 20
47.155866
 30
0.0
 10
35.684765
 20
35.398815
 30
0.0
 10
72.640062
 20
47.715730
 30
0.0
  0
LWPOLYLINE
  5
102
100
AcDbEntity
  8
0
 62
7
100
AcDbPolyline
 90
4
 70
1
 10
35.147926
 20
58.794092
 30
0.0
 10
68.915440
 20
47.706581
 30
0.0
 10
35.684929
 20
36.630512
 30
0.0
 10
2.415563
 20
47.715730
 30
0.0
  0
LWPOLYLINE
  5
103
100
AcDbEntity
  8
0
 62
7
100
AcDbPolyline
 90
4
 70
1
 10
35.684568
 20
82.815085
 30
0.0
 10
0.584845
 20
94.820361
 30
0.0
 10
0.584845
 20
59.491318
 30
0.0
 10
35.684568
 20
47.715361
 30
0.0
  0
LWPOLYLINE
  5
104
100
AcDbEntity
  8
0
 62
7
100
AcDbPolyline
 90
11
 70
1
 10
-0.000152
 20
95.638714
 30
0.0
 10
-0.000152
 20
59.071008
 30
0.0
 10
36.269978
 20
46.902540
 30
0.0
 10
36.269978
 20
83.232831
 30
0.0
 10
35.126935
 20
48.519342
 30
0.0
 10
1.169748
 20
59.912172
 30
0.0
 10
1.169748
 20
94.001499
 30
0.0
 10
35.495416
 20
82.261674
 30
0.0
 10
35.100077
 20
82.814932
 30
0.0
 10
36.269978
 20
83.232831
 30
0.0
 10
35.873565
 20
83.368191
 30
0.0
  0
LWPOLYLINE
  5
105
100
AcDbEntity
  8
0
 62
7
100
AcDbPolyline
 90
4
 70
0
 10
35.684575
 20
36.015144
 30
0.0
 10
70.784335
 20
47.715064
 30
0.0
 10
70.784335
 20
12.548615
 30
0.0
 10
35.684575
 20
0.915384
 30
0.0
  0
LWPOLYLINE
  5
106
100
AcDbEntity
  8
0
 62
7
100
AcDbPolyline
 90
8
 70
1
 10
71.369296
 20
48.527436
 30
0.0
 10
35.499447
 20
36.569299
 30
0.0
 10
35.869632
 20
35.461013
 30
0.0
 10
70.199304
 20
46.904997
 30
0.0
 10
70.199304
 20
12.970654
 30
0.0
 10
35.499447
 20
1.469539
 30
0.0
 10
35.869632
 20
0.358959
 30
0.0
 10
71.369296
 20
12.125148
 30
0.0
  0
LWPOLYLINE
  5
107
100
AcDbEntity
  8
0
 62
7
100
AcDbPolyline
 90
4
 70
1
 10
35.684575
 20
82.814824
 30
0.0
 10
70.784335
 20
94.514744
 30
0.0
 10
70.784335
 20
59.414984
 30
0.0
 10
35.684575
 20
47.715064
 30
0.0
  0
LWPOLYLINE
  5
108
100
AcDbEntity
  8
0
 62
7
100
AcDbPolyline
 90
6
 70
1
 10
71.369296
 20
95.327117
 30
0.0
 10
35.499447
 20
83.368979
 30
0.0
 10
35.684539
 20
82.813689
 30
0.0
 10
35.099543
 20
82.813689
 30
0.0
 10
35.099543
 20
46.902704
 30
0.0
 10
71.369296
 20
58.993389
 30
0.0
  0
SPLINE
  5
109
100
AcDbEntity
  8
0
 62
7
100
AcDbSpline
 70
8
 71
3
 72
8
 73
4
 74
0
 40
0
 40
0
 40
0
 40
0
 40
1
 40
1
 40
1
 40
1
 10
133.979025
 20
52.016266
 30
0.0
 10
133.874504
 20
54.367948
 30
0.0
 10
133.325777
 20
56.353813
 30
0.0
 10
132.332846
 20
57.973863
 30
0.0
  0
SPLINE
  5
10a
100
AcDbEntity
  8
0
 62
7
100
AcDbSpline
 70
8
 71
3
 72
8
 73
4
 74
0
 40
0
 40
0
 40
0
 40
0
 40
1
 40
1
 40
1
 40
1
 10
132.332846
 20
57.973863
 30
0.0
 10
131.392171
 20
59.646169
 30
0.0
 10
130.059550
 20
60.926530
 30
0.0
 10
128.334982
 20
61.814944
 30
0.0
  0
SPLINE
  5
10b
100
AcDbEntity
  8
0
 62
7
100
AcDbSpline
 70
8
 71
3
 72
8
 73
4
 74
0
 40
0
 40
0
 40
0
 40
0
 40
1
 40
1
 40
1
 40
1
 10
128.334982
 20
61.814944
 30
0.0
 10
126.610415
 20
62.755618
 30
0.0
 10
124.624549
 20
63.225956
 30
0.0
 10
122.377386
 20
63.225956
 30
0.0
  0
SPLINE
  5
10c
100
AcDbEntity
  8
0
 62
7
100
AcDbSpline
 70
8
 71
3
 72
8
 73
4
 74
0
 40
0
 40
0
 40
0
 40
0
 40
1
 40
1
 40
1
 40
1
 10
122.377386
 20
63.225956
 30
0.0
 10
119.868922
 20
63.225956
 30
0.0
 10
117.674017
 20
62.651099
 30
0.0
 10
115.792672
 20
61.501385
 30
0.0
  0
SPLINE
  5
10d
100
AcDbEntity
  8
0
 62
7
100
AcDbSpline
 70
8
 71
3
 72
8
 73
4
 74
0
 40
0
 40
0
 40
0
 40
0
 40
1
 40
1
 40
1
 40
1
 10
115.792672
 20
61.501385
 30
0.0
 10
113.963586
 20
60.351674
 30
0.0
 10
112.526448
 20
58.731627
 30
0.0
 10
111.481255
 20
56.641242
 30
0.0
  0
SPLINE
  5
10e
100
AcDbEntity
  8
0
 62
7
100
AcDbSpline
 70
8
 71
3
 72
8
 73
4
 74
0
 40
0
 40
0
 40
0
 40
0
 40
1
 40
1
 40
1
 40
1
 10
111.481255
 20
56.641242
 30
0.0
 10
110.436062
 20
54.603117
 30
0.0
 10
109.913466
 20
52.199175
 30
0.0
 10
109.913466
 20
49.429415
 30
0.0
  0
SPLINE
  5
10f
100
AcDbEntity
  8
0
 62
7
100
AcDbSpline
 70
8
 71
3
 72
8
 73
4
 74
0
 40
0
 40
0
 40
0
 40
0
 40
1
 40
1
 40
1
 40
1
 10
109.913466
 20
49.429415
 30
0.0
 10
109.913466
 20
46.450616
 30
0.0
 10
110.462191
 20
43.863763
 30
0.0
 10
111.559641
 20
41.668856
 30
0.0
  0
SPLINE
  5
110
100
AcDbEntity
  8
0
 62
7
100
AcDbSpline
 70
8
 71
3
 72
8
 73
4
 74
0
 40
0
 40
0
 40
0
 40
0
 40
1
 40
1
 40
1
 40
1
 10
111.559641
 20
41.668856
 30
0.0
 10
112.709355
 20
39.473953
 30
0.0
 10
114.277143
 20
37.775516
 30
0.0
 10
116.263007
 20
36.573545
 30
0.0
  0
SPLINE
  5
111
100
AcDbEntity
  8
0
 62
7
100
AcDbSpline
 70
8
 71
3
 72
8
 73
4
 74
0
 40
0
 40
0
 40
0
 40
0
 40
1
 40
1
 40
1
 40
1
 10
116.263007
 20
36.573545
 30
0.0
 10
118.301135
 20
35.371574
 30
0.0
 10
120.626690
 20
34.770589
 30
0.0
 10
123.239671
 20
34.770589
 30
0.0
  0
SPLINE
  5
112
100
AcDbEntity
  8
0
 62
7
100
AcDbSpline
 70
8
 71
3
 72
8
 73
4
 74
0
 40
0
 40
0
 40
0
 40
0
 40
1
 40
1
 40
1
 40
1
 10
123.239671
 20
34.770589
 30
0.0
 10
127.890777
 20
34.770589
 30
0.0
 10
131.810249
 20
36.416767
 30
0.0
 10
134.998088
 20
39.709123
 30
0.0
  0
LWPOLYLINE
  5
113
100
AcDbEntity
  8
0
 62
7
100
AcDbPolyline
 90
4
 70
1
 10
70.199304
 20
93.704677
 30
0.0
 10
70.199304
 20
59.836603
 30
0.0
 10
36.269535
 20
48.525155
 30
0.0
 10
36.269535
 20
82.393229
 30
0.0
  0
SPLINE
  5
114
100
AcDbEntity
  8
0
 62
7
100
AcDbSpline
 70
8
 71
3
 72
8
 73
4
 74
0
 40
0
 40
0
 40
0
 40
0
 40
1
 40
1
 40
1
 40
1
 10
139.779840
 20
34.927365
 30
0.0
 10
137.741715
 20
32.680202
 30
0.0
 10
135.259384
 20
30.929504
 30
0.0
 10
132.332846
 20
29.675272
 30
0.0
  0
SPLINE
  5
115
100
AcDbEntity
  8
0
 62
7
100
AcDbSpline
 70
8
 71
3
 72
8
 73
4
 74
0
 40
0
 40
0
 40
0
 40
0
 40
1
 40
1
 40
1
 40
1
 10
132.332846
 20
29.675272
 30
0.0
 10
129.406307
 20
28.473301
 30
0.0
 10
126.140079
 20
27.872316
 30
0.0
 10
122.534163
 20
27.872316
 30
0.0
  0
SPLINE
  5
116
100
AcDbEntity
  8
0
 62
7
100
AcDbSpline
 70
8
 71
3
 72
8
 73
4
 74
0
 40
0
 40
0
 40
0
 40
0
 40
1
 40
1
 40
1
 40
1
 10
122.534163
 20
27.872316
 30
0.0
 10
118.248874
 20
27.872316
 30
0.0
 10
114.512311
 20
28.760730
 30
0.0
 10
111.324473
 20
30.537558
 30
0.0
  0
SPLINE
  5
117
100
AcDbEntity
  8
0
 62
7
100
AcDbSpline
 70
8
 71
3
 72
8
 73
4
 74
0
 40
0
 40
0
 40
0
 40
0
 40
1
 40
1
 40
1
 40
1
 10
111.324473
 20
30.537558
 30
0.0
 10
108.136638
 20
32.314386
 30
0.0
 10
105.654307
 20
34.770589
 30
0.0
 10
103.877479
 20
37.906166
 30
0.0
  0
SPLINE
  5
118
100
AcDbEntity
  8
0
 62
7
100
AcDbSpline
 70
8
 71
3
 72
8
 73
4
 74
0
 40
0
 40
0
 40
0
 40
0
 40
1
 40
1
 40
1
 40
1
 10
103.877479
 20
37.906166
 30
0.0
 10
102.100650
 20
41.094001
 30
0.0
 10
101.212236
 20
44.778304
 30
0.0
 10
101.212236
 20
48.959074
 30
0.0
  0
SPLINE
  5
119
100
AcDbEntity
  8
0
 62
7
100
AcDbSpline
 70
8
 71
3
 72
8
 73
4
 74
0
 40
0
 40
0
 40
0
 40
0
 40
1
 40
1
 40
1
 40
1
 10
101.212236
 20
48.959074
 30
0.0
 10
101.212236
 20
53.139844
 30
0.0
 10
102.100650
 20
56.798018
 30
0.0
 10
103.877479
 20
59.933596
 30
0.0
  0
SPLINE
  5
11a
100
AcDbEntity
  8
0
 62
7
100
AcDbSpline
 70
8
 71
3
 72
8
 73
4
 74
0
 40
0
 40
0
 40
0
 40
0
 40
1
 40
1
 40
1
 40
1
 10
103.877479
 20
59.933596
 30
0.0
 10
105.654307
 20
63.121434
 30
0.0
 10
108.136638
 20
65.603767
 30
0.0
 10
111.324473
 20
67.380595
 30
0.0
  0
SPLINE
  5
11b
100
AcDbEntity
  8
0
 62
7
100
AcDbSpline
 70
8
 71
3
 72
8
 73
4
 74
0
 40
0
 40
0
 40
0
 40
0
 40
1
 40
1
 40
1
 40
1
 10
111.324473
 20
67.380595
 30
0.0
 10
114.512311
 20
69.157422
 30
0.0
 10
118.170485
 20
70.071966
 30
0.0
 10
122.298995
 20
70.124226
 30
0.0
  0
SPLINE
  5
11c
100
AcDbEntity
  8
0
 62
7
100
AcDbSpline
 70
8
 71
3
 72
8
 73
4
 74
0
 40
0
 40
0
 40
0
 40
0
 40
1
 40
1
 40
1
 40
1
 10
122.298995
 20
70.124226
 30
0.0
 10
127.211401
 20
70.124226
 30
0.0
 10
131.157003
 20
69.105163
 30
0.0
 10
134.135802
 20
67.067037
 30
0.0
  0
SPLINE
  5
11d
100
AcDbEntity
  8
0
 62
7
100
AcDbSpline
 70
8
 71
3
 72
8
 73
4
 74
0
 40
0
 40
0
 40
0
 40
0
 40
1
 40
1
 40
1
 40
1
 10
134.135802
 20
67.067037
 30
0.0
 10
137.114601
 20
65.081173
 30
0.0
 10
139.231117
 20
62.259154
 30
0.0
 10
140.485349
 20
58.600980
 30
0.0
  0
SPLINE
  5
11e
100
AcDbEntity
  8
0
 62
7
100
AcDbSpline
 70
8
 71
3
 72
8
 73
4
 74
0
 40
0
 40
0
 40
0
 40
0
 40
1
 40
1
 40
1
 40
1
 10
140.485349
 20
58.600980
 30
0.0
 10
141.739580
 20
54.942806
 30
0.0
 10
142.183787
 20
50.605256
 30
0.0
 10
141.817970
 20
45.588329
 30
0.0
  0
LWPOLYLINE
  5
11f
100
AcDbEntity
  8
0
 62
7
100
AcDbPolyline
 90
2
 70
0
 10
134.998088
 20
39.709123
 30
0.0
 10
139.779840
 20
34.927365
 30
0.0
  0
SPLINE
  5
120
100
AcDbEntity
  8
0
 62
7
100
AcDbSpline
 70
8
 71
3
 72
8
 73
4
 74
0
 40
0
 40
0
 40
0
 40
0
 40
1
 40
1
 40
1
 40
1
 10
178.051397
 20
51.702707
 30
0.0
 10
178.051397
 20
54.995063
 30
0.0
 10
177.189112
 20
57.555786
 30
0.0
 10
175.464541
 20
59.384875
 30
0.0
  0
SPLINE
  5
121
100
AcDbEntity
  8
0
 62
7
100
AcDbSpline
 70
8
 71
3
 72
8
 73
4
 74
0
 40
0
 40
0
 40
0
 40
0
 40
1
 40
1
 40
1
 40
1
 10
175.464541
 20
59.384875
 30
0.0
 10
173.739974
 20
61.266221
 30
0.0
 10
171.336031
 20
62.206894
 30
0.0
 10
168.252714
 20
62.206894
 30
0.0
  0
SPLINE
  5
122
100
AcDbEntity
  8
0
 62
7
100
AcDbSpline
 70
8
 71
3
 72
8
 73
4
 74
0
 40
0
 40
0
 40
0
 40
0
 40
1
 40
1
 40
1
 40
1
 10
168.252714
 20
62.206894
 30
0.0
 10
164.646801
 20
62.102372
 30
0.0
 10
161.798652
 20
60.769751
 30
0.0
 10
159.708267
 20
58.209030
 30
0.0
  0
SPLINE
  5
123
100
AcDbEntity
  8
0
 62
7
100
AcDbSpline
 70
8
 71
3
 72
8
 73
4
 74
0
 40
0
 40
0
 40
0
 40
0
 40
1
 40
1
 40
1
 40
1
 10
159.708267
 20
58.209030
 30
0.0
 10
157.670142
 20
55.648310
 30
0.0
 10
156.651080
 20
52.486602
 30
0.0
 10
156.651080
 20
48.723906
 30
0.0
  0
LWPOLYLINE
  5
124
100
AcDbEntity
  8
0
 62
7
100
AcDbPolyline
 90
4
 70
0
 10
141.817970
 20
45.588329
 30
0.0
 10
108.502454
 20
45.588329
 30
0.0
 10
108.502454
 20
52.016266
 30
0.0
 10
133.979025
 20
52.016266
 30
0.0
  0
SPLINE
  5
125
100
AcDbEntity
  8
0
 62
7
100
AcDbSpline
 70
8
 71
3
 72
8
 73
4
 74
0
 40
0
 40
0
 40
0
 40
0
 40
1
 40
1
 40
1
 40
1
 10
154.142615
 20
48.723906
 30
0.0
 10
154.142615
 20
53.845351
 30
0.0
 10
154.848120
 20
57.973863
 30
0.0
 10
156.259130
 20
61.109440
 30
0.0
  0
SPLINE
  5
126
100
AcDbEntity
  8
0
 62
7
100
AcDbSpline
 70
8
 71
3
 72
8
 73
4
 74
0
 40
0
 40
0
 40
0
 40
0
 40
1
 40
1
 40
1
 40
1
 10
156.259130
 20
61.109440
 30
0.0
 10
157.722401
 20
64.245018
 30
0.0
 10
159.760528
 20
66.518312
 30
0.0
 10
162.373509
 20
67.929321
 30
0.0
  0
SPLINE
  5
127
100
AcDbEntity
  8
0
 62
7
100
AcDbSpline
 70
8
 71
3
 72
8
 73
4
 74
0
 40
0
 40
0
 40
0
 40
0
 40
1
 40
1
 40
1
 40
1
 10
162.373509
 20
67.929321
 30
0.0
 10
165.038747
 20
69.392591
 30
0.0
 10
168.174325
 20
70.124226
 30
0.0
 10
171.780242
 20
70.124226
 30
0.0
  0
SPLINE
  5
128
100
AcDbEntity
  8
0
 62
7
100
AcDbSpline
 70
8
 71
3
 72
8
 73
4
 74
0
 40
0
 40
0
 40
0
 40
0
 40
1
 40
1
 40
1
 40
1
 10
171.780242
 20
70.124226
 30
0.0
 10
174.968077
 20
70.124226
 30
0.0
 10
177.685576
 20
69.470980
 30
0.0
 10
179.932740
 20
68.164490
 30
0.0
  0
SPLINE
  5
129
100
AcDbEntity
  8
0
 62
7
100
AcDbSpline
 70
8
 71
3
 72
8
 73
4
 74
0
 40
0
 40
0
 40
0
 40
0
 40
1
 40
1
 40
1
 40
1
 10
179.932740
 20
68.164490
 30
0.0
 10
182.232164
 20
66.857997
 30
0.0
 10
183.982862
 20
65.002780
 30
0.0
 10
185.184833
 20
62.598838
 30
0.0
  0
SPLINE
  5
12a
100
AcDbEntity
  8
0
 62
7
100
AcDbSpline
 70
8
 71
3
 72
8
 73
4
 74
0
 40
0
 40
0
 40
0
 40
0
 40
1
 40
1
 40
1
 40
1
 10
185.184833
 20
62.598838
 30
0.0
 10
186.439065
 20
60.247157
 30
0.0
 10
187.066181
 20
57.399007
 30
0.0
 10
187.066181
 20
54.054390
 30
0.0
  0
LWPOLYLINE
  5
12b
100
AcDbEntity
  8
0
 62
7
100
AcDbPolyline
 90
2
 70
0
 10
156.651080
 20
48.723906
 30
0.0
 10
154.142615
 20
48.723906
 30
0.0
  0
SPLINE
  5
12c
100
AcDbEntity
  8
0
 62
7
100
AcDbSpline
 70
8
 71
3
 72
8
 73
4
 74
0
 40
0
 40
0
 40
0
 40
0
 40
1
 40
1
 40
1
 40
1
 10
208.388107
 20
51.702707
 30
0.0
 10
208.388107
 20
54.995063
 30
0.0
 10
207.499694
 20
57.555786
 30
0.0
 10
205.722870
 20
59.384875
 30
0.0
  0
SPLINE
  5
12d
100
AcDbEntity
  8
0
 62
7
100
AcDbSpline
 70
8
 71
3
 72
8
 73
4
 74
0
 40
0
 40
0
 40
0
 40
0
 40
1
 40
1
 40
1
 40
1
 10
205.722870
 20
59.384875
 30
0.0
 10
203.998303
 20
61.266221
 30
0.0
 10
201.594359
 20
62.206894
 30
0.0
 10
198.511038
 20
62.206894
 30
0.0
  0
SPLINE
  5
12e
100
AcDbEntity
  8
0
 62
7
100
AcDbSpline
 70
8
 71
3
 72
8
 73
4
 74
0
 40
0
 40
0
 40
0
 40
0
 40
1
 40
1
 40
1
 40
1
 10
198.511038
 20
62.206894
 30
0.0
 10
194.957386
 20
62.102372
 30
0.0
 10
192.161495
 20
60.769751
 30
0.0
 10
190.123367
 20
58.209030
 30
0.0
  0
SPLINE
  5
12f
100
AcDbEntity
  8
0
 62
7
100
AcDbSpline
 70
8
 71
3
 72
8
 73
4
 74
0
 40
0
 40
0
 40
0
 40
0
 40
1
 40
1
 40
1
 40
1
 10
190.123367
 20
58.209030
 30
0.0
 10
188.085243
 20
55.648310
 30
0.0
 10
187.066181
 20
52.486602
 30
0.0
 10
187.066181
 20
48.723906
 30
0.0
  0
LWPOLYLINE
  5
130
100
AcDbEntity
  8
0
 62
7
100
AcDbPolyline
 90
4
 70
0
 10
187.066181
 20
54.054390
 30
0.0
 10
187.066181
 20
28.185875
 30
0.0
 10
178.051397
 20
28.185875
 30
0.0
 10
178.051397
 20
51.702707
 30
0.0
  0
SPLINE
  5
131
100
AcDbEntity
  8
0
 62
7
100
AcDbSpline
 70
8
 71
3
 72
8
 73
4
 74
0
 40
0
 40
0
 40
0
 40
0
 40
1
 40
1
 40
1
 40
1
 10
184.479330
 20
48.723906
 30
0.0
 10
184.479330
 20
53.845351
 30
0.0
 10
185.184835
 20
57.973863
 30
0.0
 10
186.595845
 20
61.109440
 30
0.0
  0
SPLINE
  5
132
100
AcDbEntity
  8
0
 62
7
100
AcDbSpline
 70
8
 71
3
 72
8
 73
4
 74
0
 40
0
 40
0
 40
0
 40
0
 40
1
 40
1
 40
1
 40
1
 10
186.595845
 20
61.109440
 30
0.0
 10
188.059112
 20
64.245018
 30
0.0
 10
190.097237
 20
66.518312
 30
0.0
 10
192.710218
 20
67.929321
 30
0.0
  0
SPLINE
  5
133
100
AcDbEntity
  8
0
 62
7
100
AcDbSpline
 70
8
 71
3
 72
8
 73
4
 74
0
 40
0
 40
0
 40
0
 40
0
 40
1
 40
1
 40
1
 40
1
 10
192.710218
 20
67.929321
 30
0.0
 10
195.375460
 20
69.392591
 30
0.0
 10
198.511038
 20
70.124226
 30
0.0
 10
202.116951
 20
70.124226
 30
0.0
  0
SPLINE
  5
134
100
AcDbEntity
  8
0
 62
7
100
AcDbSpline
 70
8
 71
3
 72
8
 73
4
 74
0
 40
0
 40
0
 40
0
 40
0
 40
1
 40
1
 40
1
 40
1
 10
202.116951
 20
70.124226
 30
0.0
 10
205.304790
 20
70.124226
 30
0.0
 10
208.022291
 20
69.470980
 30
0.0
 10
210.269454
 20
68.164490
 30
0.0
  0
SPLINE
  5
135
100
AcDbEntity
  8
0
 62
7
100
AcDbSpline
 70
8
 71
3
 72
8
 73
4
 74
0
 40
0
 40
0
 40
0
 40
0
 40
1
 40
1
 40
1
 40
1
 10
210.269454
 20
68.164490
 30
0.0
 10
212.568879
 20
66.857997
 30
0.0
 10
214.319577
 20
65.002780
 30
0.0
 10
215.521548
 20
62.598838
 30
0.0
  0
SPLINE
  5
136
100
AcDbEntity
  8
0
 62
7
100
AcDbSpline
 70
8
 71
3
 72
8
 73
4
 74
0
 40
0
 40
0
 40
0
 40
0
 40
1
 40
1
 40
1
 40
1
 10
215.521548
 20
62.598838
 30
0.0
 10
216.775779
 20
60.247157
 30
0.0
 10
217.402895
 20
57.399007
 30
0.0
 10
217.402895
 20
54.054390
 30
0.0
  0
LWPOLYLINE
  5
137
100
AcDbEntity
  8
0
 62
7
100
AcDbPolyline
 90
2
 70
0
 10
187.066181
 20
48.723906
 30
0.0
 10
184.479330
 20
48.723906
 30
0.0
  0
LWPOLYLINE
  5
138
100
AcDbEntity
  8
0
 62
7
100
AcDbPolyline
 90
4
 70
0
 10
217.402895
 20
54.054390
 30
0.0
 10
217.402895
 20
28.185875
 30
0.0
 10
208.388107
 20
28.185875
 30
0.0
 10
208.388107
 20
51.702707
 30
0.0
  0
SPLINE
  5
139
100
AcDbEntity
  8
0
 62
7
100
AcDbSpline
 70
8
 71
3
 72
8
 73
4
 74
0
 40
0
 40
0
 40
0
 40
0
 40
1
 40
1
 40
1
 40
1
 10
249.952008
 20
70.124226
 30
0.0
 10
253.923739
 20
70.124226
 30
0.0
 10
257.399004
 20
69.235812
 30
0.0
 10
260.377803
 20
67.458985
 30
0.0
  0
SPLINE
  5
13a
100
AcDbEntity
  8
0
 62
7
100
AcDbSpline
 70
8
 71
3
 72
8
 73
4
 74
0
 40
0
 40
0
 40
0
 40
0
 40
1
 40
1
 40
1
 40
1
 10
260.377803
 20
67.458985
 30
0.0
 10
263.356602
 20
65.682158
 30
0.0
 10
265.682155
 20
63.199825
 30
0.0
 10
267.354462
 20
60.011987
 30
0.0
  0
SPLINE
  5
13b
100
AcDbEntity
  8
0
 62
7
100
AcDbSpline
 70
8
 71
3
 72
8
 73
4
 74
0
 40
0
 40
0
 40
0
 40
0
 40
1
 40
1
 40
1
 40
1
 10
267.354462
 20
60.011987
 30
0.0
 10
269.026772
 20
56.824149
 30
0.0
 10
269.862927
 20
53.113716
 30
0.0
 10
269.862927
 20
48.880688
 30
0.0
  0
SPLINE
  5
13c
100
AcDbEntity
  8
0
 62
7
100
AcDbSpline
 70
8
 71
3
 72
8
 73
4
 74
0
 40
0
 40
0
 40
0
 40
0
 40
1
 40
1
 40
1
 40
1
 10
269.862927
 20
48.880688
 30
0.0
 10
269.862927
 20
44.752175
 30
0.0
 10
269.026772
 20
41.094001
 30
0.0
 10
267.354462
 20
37.906166
 30
0.0
  0
SPLINE
  5
13d
100
AcDbEntity
  8
0
 62
7
100
AcDbSpline
 70
8
 71
3
 72
8
 73
4
 74
0
 40
0
 40
0
 40
0
 40
0
 40
1
 40
1
 40
1
 40
1
 10
267.354462
 20
37.906166
 30
0.0
 10
265.734416
 20
34.770589
 30
0.0
 10
263.434993
 20
32.314386
 30
0.0
 10
260.456194
 20
30.537558
 30
0.0
  0
SPLINE
  5
13e
100
AcDbEntity
  8
0
 62
7
100
AcDbSpline
 70
8
 71
3
 72
8
 73
4
 74
0
 40
0
 40
0
 40
0
 40
0
 40
1
 40
1
 40
1
 40
1
 10
260.456194
 20
30.537558
 30
0.0
 10
257.529656
 20
28.760730
 30
0.0
 10
254.080519
 20
27.872316
 30
0.0
 10
250.108784
 20
27.872316
 30
0.0
  0
SPLINE
  5
13f
100
AcDbEntity
  8
0
 62
7
100
AcDbSpline
 70
8
 71
3
 72
8
 73
4
 74
0
 40
0
 40
0
 40
0
 40
0
 40
1
 40
1
 40
1
 40
1
 10
250.108784
 20
27.872316
 30
0.0
 10
246.293832
 20
27.872316
 30
0.0
 10
243.027606
 20
28.708471
 30
0.0
 10
240.310107
 20
30.380781
 30
0.0
  0
SPLINE
  5
140
100
AcDbEntity
  8
0
 62
7
100
AcDbSpline
 70
8
 71
3
 72
8
 73
4
 74
0
 40
0
 40
0
 40
0
 40
0
 40
1
 40
1
 40
1
 40
1
 10
240.310107
 20
30.380781
 30
0.0
 10
237.644865
 20
32.053088
 30
0.0
 10
235.606739
 20
34.457030
 30
0.0
 10
234.195728
 20
37.592608
 30
0.0
  0
SPLINE
  5
141
100
AcDbEntity
  8
0
 62
7
100
AcDbSpline
 70
8
 71
3
 72
8
 73
4
 74
0
 40
0
 40
0
 40
0
 40
0
 40
1
 40
1
 40
1
 40
1
 10
234.195728
 20
37.592608
 30
0.0
 10
232.784718
 20
40.780446
 30
0.0
 10
232.079213
 20
44.543140
 30
0.0
 10
232.079213
 20
48.880688
 30
0.0
  0
SPLINE
  5
142
100
AcDbEntity
  8
0
 62
7
100
AcDbSpline
 70
8
 71
3
 72
8
 73
4
 74
0
 40
0
 40
0
 40
0
 40
0
 40
1
 40
1
 40
1
 40
1
 10
232.079213
 20
48.880688
 30
0.0
 10
232.079213
 20
53.375016
 30
0.0
 10
232.784718
 20
57.189968
 30
0.0
 10
234.195728
 20
60.325546
 30
0.0
  0
SPLINE
  5
143
100
AcDbEntity
  8
0
 62
7
100
AcDbSpline
 70
8
 71
3
 72
8
 73
4
 74
0
 40
0
 40
0
 40
0
 40
0
 40
1
 40
1
 40
1
 40
1
 10
234.195728
 20
60.325546
 30
0.0
 10
235.606739
 20
63.513384
 30
0.0
 10
237.644865
 20
65.943457
 30
0.0
 10
240.310107
 20
67.615763
 30
0.0
  0
SPLINE
  5
144
100
AcDbEntity
  8
0
 62
7
100
AcDbSpline
 70
8
 71
3
 72
8
 73
4
 74
0
 40
0
 40
0
 40
0
 40
0
 40
1
 40
1
 40
1
 40
1
 10
240.310107
 20
67.615763
 30
0.0
 10
243.027606
 20
69.288072
 30
0.0
 10
246.241573
 20
70.124226
 30
0.0
 10
249.952008
 20
70.124226
 30
0.0
  0
LWPOLYLINE
  5
145
100
AcDbEntity
  8
0
 62
7
100
AcDbPolyline
 90
4
 70
1
 10
147.714683
 20
69.810668
 30
0.0
 10
156.651080
 20
69.810668
 30
0.0
 10
156.651080
 20
28.185875
 30
0.0
 10
147.714683
 20
28.185875
 30
0.0
  0
SPLINE
  5
146
100
AcDbEntity
  8
0
 62
7
100
AcDbSpline
 70
8
 71
3
 72
8
 73
4
 74
0
 40
0
 40
0
 40
0
 40
0
 40
1
 40
1
 40
1
 40
1
 10
248.070660
 20
62.990788
 30
0.0
 10
245.614457
 20
62.990788
 30
0.0
 10
243.419552
 20
62.389802
 30
0.0
 10
241.485946
 20
61.187831
 30
0.0
  0
SPLINE
  5
147
100
AcDbEntity
  8
0
 62
7
100
AcDbSpline
 70
8
 71
3
 72
8
 73
4
 74
0
 40
0
 40
0
 40
0
 40
0
 40
1
 40
1
 40
1
 40
1
 10
241.485946
 20
61.187831
 30
0.0
 10
239.552343
 20
59.985860
 30
0.0
 10
238.036815
 20
58.339682
 30
0.0
 10
236.939361
 20
56.249297
 30
0.0
  0
SPLINE
  5
148
100
AcDbEntity
  8
0
 62
7
100
AcDbSpline
 70
8
 71
3
 72
8
 73
4
 74
0
 40
0
 40
0
 40
0
 40
0
 40
1
 40
1
 40
1
 40
1
 10
236.939361
 20
56.249297
 30
0.0
 10
235.894169
 20
54.211169
 30
0.0
 10
235.371573
 20
51.833355
 30
0.0
 10
235.371573
 20
49.115856
 30
0.0
  0
SPLINE
  5
149
100
AcDbEntity
  8
0
 62
7
100
AcDbSpline
 70
8
 71
3
 72
8
 73
4
 74
0
 40
0
 40
0
 40
0
 40
0
 40
1
 40
1
 40
1
 40
1
 10
235.371573
 20
49.115856
 30
0.0
 10
235.371573
 20
46.398353
 30
0.0
 10
235.894169
 20
43.968281
 30
0.0
 10
236.939361
 20
41.825639
 30
0.0
  0
SPLINE
  5
14a
100
AcDbEntity
  8
0
 62
7
100
AcDbSpline
 70
8
 71
3
 72
8
 73
4
 74
0
 40
0
 40
0
 40
0
 40
0
 40
1
 40
1
 40
1
 40
1
 10
236.939361
 20
41.825639
 30
0.0
 10
238.036815
 20
39.735253
 30
0.0
 10
239.552343
 20
38.089075
 30
0.0
 10
241.485946
 20
36.887104
 30
0.0
  0
SPLINE
  5
14b
100
AcDbEntity
  8
0
 62
7
100
AcDbSpline
 70
8
 71
3
 72
8
 73
4
 74
0
 40
0
 40
0
 40
0
 40
0
 40
1
 40
1
 40
1
 40
1
 10
241.485946
 20
36.887104
 30
0.0
 10
243.419552
 20
35.737390
 30
0.0
 10
245.614457
 20
35.162533
 30
0.0
 10
248.070660
 20
35.162533
 30
0.0
  0
SPLINE
  5
14c
100
AcDbEntity
  8
0
 62
7
100
AcDbSpline
 70
8
 71
3
 72
8
 73
4
 74
0
 40
0
 40
0
 40
0
 40
0
 40
1
 40
1
 40
1
 40
1
 10
248.070660
 20
35.162533
 30
0.0
 10
250.579124
 20
35.162533
 30
0.0
 10
252.774028
 20
35.763519
 30
0.0
 10
254.655374
 20
36.965490
 30
0.0
  0
SPLINE
  5
14d
100
AcDbEntity
  8
0
 62
7
100
AcDbSpline
 70
8
 71
3
 72
8
 73
4
 74
0
 40
0
 40
0
 40
0
 40
0
 40
1
 40
1
 40
1
 40
1
 10
254.655374
 20
36.965490
 30
0.0
 10
256.588981
 20
38.167461
 30
0.0
 10
258.078380
 20
39.813639
 30
0.0
 10
259.123573
 20
41.904024
 30
0.0
  0
SPLINE
  5
14e
100
AcDbEntity
  8
0
 62
7
100
AcDbSpline
 70
8
 71
3
 72
8
 73
4
 74
0
 40
0
 40
0
 40
0
 40
0
 40
1
 40
1
 40
1
 40
1
 10
259.123573
 20
41.904024
 30
0.0
 10
260.221026
 20
43.994409
 30
0.0
 10
260.769753
 20
46.398353
 30
0.0
 10
260.769753
 20
49.115856
 30
0.0
  0
SPLINE
  5
14f
100
AcDbEntity
  8
0
 62
7
100
AcDbSpline
 70
8
 71
3
 72
8
 73
4
 74
0
 40
0
 40
0
 40
0
 40
0
 40
1
 40
1
 40
1
 40
1
 10
260.769753
 20
49.115856
 30
0.0
 10
260.769753
 20
51.781098
 30
0.0
 10
260.221026
 20
54.158912
 30
0.0
 10
259.123573
 20
56.249297
 30
0.0
  0
SPLINE
  5
150
100
AcDbEntity
  8
0
 62
7
100
AcDbSpline
 70
8
 71
3
 72
8
 73
4
 74
0
 40
0
 40
0
 40
0
 40
0
 40
1
 40
1
 40
1
 40
1
 10
259.123573
 20
56.249297
 30
0.0
 10
258.078380
 20
58.339682
 30
0.0
 10
256.588981
 20
59.985860
 30
0.0
 10
254.655374
 20
61.187831
 30
0.0
  0
SPLINE
  5
151
100
AcDbEntity
  8
0
 62
7
100
AcDbSpline
 70
8
 71
3
 72
8
 73
4
 74
0
 40
0
 40
0
 40
0
 40
0
 40
1
 40
1
 40
1
 40
1
 10
254.655374
 20
61.187831
 30
0.0
 10
252.774028
 20
62.389802
 30
0.0
 10
250.579124
 20
62.990788
 30
0.0
 10
248.070660
 20
62.990788
 30
0.0
  0
LWPOLYLINE
  5
152
100
AcDbEntity
  8
0
 62
7
100
AcDbPolyline
 90
1
 70
1
 10
249.952008
 20
70.124226
 30
0.0
  0
LWPOLYLINE
  5
153
100
AcDbEntity
  8
0
 62
7
100
AcDbPolyline
 90
1
 70
1
 10
248.070660
 20
62.990788
 30
0.0
  0
SPLINE
  5
154
100
AcDbEntity
  8
0
 62
7
100
AcDbSpline
 70
8
 71
3
 72
8
 73
4
 74
0
 40
0
 40
0
 40
0
 40
0
 40
1
 40
1
 40
1
 40
1
 10
289.399476
 20
46.764173
 30
0.0
 10
286.472937
 20
46.764173
 30
0.0
 10
284.304163
 20
46.319966
 30
0.0
 10
282.893153
 20
45.431552
 30
0.0
  0
SPLINE
  5
155
100
AcDbEntity
  8
0
 62
7
100
AcDbSpline
 70
8
 71
3
 72
8
 73
4
 74
0
 40
0
 40
0
 40
0
 40
0
 40
1
 40
1
 40
1
 40
1
 10
282.893153
 20
45.431552
 30
0.0
 10
281.482142
 20
44.543138
 30
0.0
 10
280.776637
 20
43.079869
 30
0.0
 10
280.776637
 20
41.041744
 30
0.0
  0
SPLINE
  5
156
100
AcDbEntity
  8
0
 62
7
100
AcDbSpline
 70
8
 71
3
 72
8
 73
4
 74
0
 40
0
 40
0
 40
0
 40
0
 40
1
 40
1
 40
1
 40
1
 10
280.776637
 20
41.041744
 30
0.0
 10
280.776637
 20
39.108138
 30
0.0
 10
281.482142
 20
37.566477
 30
0.0
 10
282.893153
 20
36.416763
 30
0.0
  0
SPLINE
  5
157
100
AcDbEntity
  8
0
 62
7
100
AcDbSpline
 70
8
 71
3
 72
8
 73
4
 74
0
 40
0
 40
0
 40
0
 40
0
 40
1
 40
1
 40
1
 40
1
 10
282.893153
 20
36.416763
 30
0.0
 10
284.356424
 20
35.267053
 30
0.0
 10
286.342291
 20
34.692198
 30
0.0
 10
288.850755
 20
34.692198
 30
0.0
  0
SPLINE
  5
158
100
AcDbEntity
  8
0
 62
7
100
AcDbSpline
 70
8
 71
3
 72
8
 73
4
 74
0
 40
0
 40
0
 40
0
 40
0
 40
1
 40
1
 40
1
 40
1
 10
288.850755
 20
34.692198
 30
0.0
 10
291.097918
 20
34.692198
 30
0.0
 10
293.109912
 20
35.084146
 30
0.0
 10
294.886737
 20
35.868042
 30
0.0
  0
SPLINE
  5
159
100
AcDbEntity
  8
0
 62
7
100
AcDbSpline
 70
8
 71
3
 72
8
 73
4
 74
0
 40
0
 40
0
 40
0
 40
0
 40
1
 40
1
 40
1
 40
1
 10
294.886737
 20
35.868042
 30
0.0
 10
296.663565
 20
36.651935
 30
0.0
 10
298.074575
 20
37.697127
 30
0.0
 10
299.119768
 20
39.003620
 30
0.0
  0
SPLINE
  5
15a
100
AcDbEntity
  8
0
 62
7
100
AcDbSpline
 70
8
 71
3
 72
8
 73
4
 74
0
 40
0
 40
0
 40
0
 40
0
 40
1
 40
1
 40
1
 40
1
 10
299.119768
 20
39.003620
 30
0.0
 10
300.164960
 20
40.362369
 30
0.0
 10
300.713687
 20
41.877897
 30
0.0
 10
300.765948
 20
43.550204
 30
0.0
  0
LWPOLYLINE
  5
15b
100
AcDbEntity
  8
0
 62
7
100
AcDbPolyline
 90
4
 70
1
 10
226.356784
 20
86.350840
 30
0.0
 10
235.371573
 20
86.350840
 30
0.0
 10
235.371573
 20
28.185875
 30
0.0
 10
226.356784
 20
28.185875
 30
0.0
  0
SPLINE
  5
15c
100
AcDbEntity
  8
0
 62
7
100
AcDbSpline
 70
8
 71
3
 72
8
 73
4
 74
0
 40
0
 40
0
 40
0
 40
0
 40
1
 40
1
 40
1
 40
1
 10
302.490513
 20
35.946428
 30
0.0
 10
301.184024
 20
33.228928
 30
0.0
 10
299.198159
 20
31.190804
 30
0.0
 10
296.532917
 20
29.832054
 30
0.0
  0
SPLINE
  5
15d
100
AcDbEntity
  8
0
 62
7
100
AcDbSpline
 70
8
 71
3
 72
8
 73
4
 74
0
 40
0
 40
0
 40
0
 40
0
 40
1
 40
1
 40
1
 40
1
 10
296.532917
 20
29.832054
 30
0.0
 10
293.867675
 20
28.473301
 30
0.0
 10
290.679838
 20
27.793925
 30
0.0
 10
286.969407
 20
27.793925
 30
0.0
  0
SPLINE
  5
15e
100
AcDbEntity
  8
0
 62
7
100
AcDbSpline
 70
8
 71
3
 72
8
 73
4
 74
0
 40
0
 40
0
 40
0
 40
0
 40
1
 40
1
 40
1
 40
1
 10
286.969407
 20
27.793925
 30
0.0
 10
283.990608
 20
27.793925
 30
0.0
 10
281.403755
 20
28.368782
 30
0.0
 10
279.208848
 20
29.518496
 30
0.0
  0
SPLINE
  5
15f
100
AcDbEntity
  8
0
 62
7
100
AcDbSpline
 70
8
 71
3
 72
8
 73
4
 74
0
 40
0
 40
0
 40
0
 40
0
 40
1
 40
1
 40
1
 40
1
 10
279.208848
 20
29.518496
 30
0.0
 10
277.013945
 20
30.668206
 30
0.0
 10
275.315508
 20
32.209864
 30
0.0
 10
274.113537
 20
34.143471
 30
0.0
  0
SPLINE
  5
160
100
AcDbEntity
  8
0
 62
7
100
AcDbSpline
 70
8
 71
3
 72
8
 73
4
 74
0
 40
0
 40
0
 40
0
 40
0
 40
1
 40
1
 40
1
 40
1
 10
274.113537
 20
34.143471
 30
0.0
 10
272.911566
 20
36.129338
 30
0.0
 10
272.310581
 20
38.324243
 30
0.0
 10
272.310581
 20
40.728185
 30
0.0
  0
SPLINE
  5
161
100
AcDbEntity
  8
0
 62
7
100
AcDbSpline
 70
8
 71
3
 72
8
 73
4
 74
0
 40
0
 40
0
 40
0
 40
0
 40
1
 40
1
 40
1
 40
1
 10
272.310581
 20
40.728185
 30
0.0
 10
272.310581
 20
44.490877
 30
0.0
 10
273.669330
 20
47.495805
 30
0.0
 10
276.386829
 20
49.742968
 30
0.0
  0
SPLINE
  5
162
100
AcDbEntity
  8
0
 62
7
100
AcDbSpline
 70
8
 71
3
 72
8
 73
4
 74
0
 40
0
 40
0
 40
0
 40
0
 40
1
 40
1
 40
1
 40
1
 10
276.386829
 20
49.742968
 30
0.0
 10
279.156589
 20
51.990136
 30
0.0
 10
283.049933
 20
53.139848
 30
0.0
 10
288.066860
 20
53.192105
 30
0.0
  0
LWPOLYLINE
  5
163
100
AcDbEntity
  8
0
 62
7
100
AcDbPolyline
 90
2
 70
0
 10
300.765948
 20
43.550204
 30
0.0
 10
302.490513
 20
35.946428
 30
0.0
  0
SPLINE
  5
164
100
AcDbEntity
  8
0
 62
7
100
AcDbSpline
 70
8
 71
3
 72
8
 73
4
 74
0
 40
0
 40
0
 40
0
 40
0
 40
1
 40
1
 40
1
 40
1
 10
300.687557
 20
54.603117
 30
0.0
 10
300.687557
 20
57.320616
 30
0.0
 10
299.851403
 20
59.437132
 30
0.0
 10
298.179097
 20
60.952664
 30
0.0
  0
SPLINE
  5
165
100
AcDbEntity
  8
0
 62
7
100
AcDbSpline
 70
8
 71
3
 72
8
 73
4
 74
0
 40
0
 40
0
 40
0
 40
0
 40
1
 40
1
 40
1
 40
1
 10
298.179097
 20
60.952664
 30
0.0
 10
296.506786
 20
62.468192
 30
0.0
 10
294.024453
 20
63.225956
 30
0.0
 10
290.732097
 20
63.225956
 30
0.0
  0
SPLINE
  5
166
100
AcDbEntity
  8
0
 62
7
100
AcDbSpline
 70
8
 71
3
 72
8
 73
4
 74
0
 40
0
 40
0
 40
0
 40
0
 40
1
 40
1
 40
1
 40
1
 10
290.732097
 20
63.225956
 30
0.0
 10
288.746233
 20
63.225956
 30
0.0
 10
286.708109
 20
62.860138
 30
0.0
 10
284.617724
 20
62.128502
 30
0.0
  0
SPLINE
  5
167
100
AcDbEntity
  8
0
 62
7
100
AcDbSpline
 70
8
 71
3
 72
8
 73
4
 74
0
 40
0
 40
0
 40
0
 40
0
 40
1
 40
1
 40
1
 40
1
 10
284.617724
 20
62.128502
 30
0.0
 10
282.579596
 20
61.396867
 30
0.0
 10
280.515339
 20
60.325544
 30
0.0
 10
278.424954
 20
58.914534
 30
0.0
  0
LWPOLYLINE
  5
168
100
AcDbEntity
  8
0
 62
7
100
AcDbPolyline
 90
4
 70
0
 10
288.066860
 20
53.192105
 30
0.0
 10
301.863401
 20
53.192105
 30
0.0
 10
301.863401
 20
46.764173
 30
0.0
 10
289.399476
 20
46.764173
 30
0.0
  0
SPLINE
  5
169
100
AcDbEntity
  8
0
 62
7
100
AcDbSpline
 70
8
 71
3
 72
8
 73
4
 74
0
 40
0
 40
0
 40
0
 40
0
 40
1
 40
1
 40
1
 40
1
 10
274.740655
 20
64.715354
 30
0.0
 10
276.674258
 20
65.917325
 30
0.0
 10
278.503345
 20
66.910258
 30
0.0
 10
280.227916
 20
67.694153
 30
0.0
  0
SPLINE
  5
16a
100
AcDbEntity
  8
0
 62
7
100
AcDbSpline
 70
8
 71
3
 72
8
 73
4
 74
0
 40
0
 40
0
 40
0
 40
0
 40
1
 40
1
 40
1
 40
1
 10
280.227916
 20
67.694153
 30
0.0
 10
281.952483
 20
68.478047
 30
0.0
 10
283.781570
 20
69.079033
 30
0.0
 10
285.715177
 20
69.497110
 30
0.0
  0
SPLINE
  5
16b
100
AcDbEntity
  8
0
 62
7
100
AcDbSpline
 70
8
 71
3
 72
8
 73
4
 74
0
 40
0
 40
0
 40
0
 40
0
 40
1
 40
1
 40
1
 40
1
 10
285.715177
 20
69.497110
 30
0.0
 10
287.701041
 20
69.915187
 30
0.0
 10
290.026594
 20
70.124226
 30
0.0
 10
292.691836
 20
70.124226
 30
0.0
  0
SPLINE
  5
16c
100
AcDbEntity
  8
0
 62
7
100
AcDbSpline
 70
8
 71
3
 72
8
 73
4
 74
0
 40
0
 40
0
 40
0
 40
0
 40
1
 40
1
 40
1
 40
1
 10
292.691836
 20
70.124226
 30
0.0
 10
298.074577
 20
70.124226
 30
0.0
 10
302.203087
 20
68.817734
 30
0.0
 10
305.077364
 20
66.204751
 30
0.0
  0
SPLINE
  5
16d
100
AcDbEntity
  8
0
 62
7
100
AcDbSpline
 70
8
 71
3
 72
8
 73
4
 74
0
 40
0
 40
0
 40
0
 40
0
 40
1
 40
1
 40
1
 40
1
 10
305.077364
 20
66.204751
 30
0.0
 10
308.003906
 20
63.644031
 30
0.0
 10
309.493306
 20
60.090376
 30
0.0
 10
309.545563
 20
55.543788
 30
0.0
  0
LWPOLYLINE
  5
16e
100
AcDbEntity
  8
0
 62
7
100
AcDbPolyline
 90
2
 70
0
 10
278.424954
 20
58.914534
 30
0.0
 10
274.740655
 20
64.715354
 30
0.0
  0
SPLINE
  5
16f
100
AcDbEntity
  8
0
 62
7
100
AcDbSpline
 70
8
 71
3
 72
8
 73
4
 74
0
 40
0
 40
0
 40
0
 40
0
 40
1
 40
1
 40
1
 40
1
 10
341.624433
 20
61.971726
 30
0.0
 10
338.645634
 20
62.128504
 30
0.0
 10
336.058781
 20
61.605908
 30
0.0
 10
333.863875
 20
60.403937
 30
0.0
  0
SPLINE
  5
170
100
AcDbEntity
  8
0
 62
7
100
AcDbSpline
 70
8
 71
3
 72
8
 73
4
 74
0
 40
0
 40
0
 40
0
 40
0
 40
1
 40
1
 40
1
 40
1
 10
333.863875
 20
60.403937
 30
0.0
 10
331.721233
 20
59.254223
 30
0.0
 10
330.048926
 20
57.634173
 30
0.0
 10
328.846955
 20
55.543788
 30
0.0
  0
SPLINE
  5
171
100
AcDbEntity
  8
0
 62
7
100
AcDbSpline
 70
8
 71
3
 72
8
 73
4
 74
0
 40
0
 40
0
 40
0
 40
0
 40
1
 40
1
 40
1
 40
1
 10
328.846955
 20
55.543788
 30
0.0
 10
327.697241
 20
53.453403
 30
0.0
 10
327.122384
 20
51.049461
 30
0.0
 10
327.122384
 20
48.331962
 30
0.0
  0
LWPOLYLINE
  5
172
100
AcDbEntity
  8
0
 62
7
100
AcDbPolyline
 90
4
 70
0
 10
309.545563
 20
55.543788
 30
0.0
 10
309.623954
 20
28.185875
 30
0.0
 10
300.765948
 20
28.185875
 30
0.0
 10
300.687557
 20
54.603117
 30
0.0
  0
SPLINE
  5
173
100
AcDbEntity
  8
0
 62
7
100
AcDbSpline
 70
8
 71
3
 72
8
 73
4
 74
0
 40
0
 40
0
 40
0
 40
0
 40
1
 40
1
 40
1
 40
1
 10
324.613924
 20
48.645521
 30
0.0
 10
324.613924
 20
53.296626
 30
0.0
 10
325.293299
 20
57.216099
 30
0.0
 10
326.652048
 20
60.403937
 30
0.0
  0
SPLINE
  5
174
100
AcDbEntity
  8
0
 62
7
100
AcDbSpline
 70
8
 71
3
 72
8
 73
4
 74
0
 40
0
 40
0
 40
0
 40
0
 40
1
 40
1
 40
1
 40
1
 10
326.652048
 20
60.403937
 30
0.0
 10
328.010798
 20
63.591772
 30
0.0
 10
329.970533
 20
65.995714
 30
0.0
 10
332.531254
 20
67.615763
 30
0.0
  0
SPLINE
  5
175
100
AcDbEntity
  8
0
 62
7
100
AcDbSpline
 70
8
 71
3
 72
8
 73
4
 74
0
 40
0
 40
0
 40
0
 40
0
 40
1
 40
1
 40
1
 40
1
 10
332.531254
 20
67.615763
 30
0.0
 10
335.091978
 20
69.288072
 30
0.0
 10
338.123038
 20
70.124226
 30
0.0
 10
341.624433
 20
70.124226
 30
0.0
  0
LWPOLYLINE
  5
176
100
AcDbEntity
  8
0
 62
7
100
AcDbPolyline
 90
2
 70
0
 10
327.122384
 20
48.331962
 30
0.0
 10
324.613924
 20
48.645521
 30
0.0
  0
LWPOLYLINE
  5
177
100
AcDbEntity
  8
0
 62
7
100
AcDbPolyline
 90
2
 70
0
 10
341.624433
 20
70.124226
 30
0.0
 10
341.624433
 20
61.971726
 30
0.0
  0
SPLINE
  5
178
100
AcDbEntity
  8
0
 62
7
100
AcDbSpline
 70
8
 71
3
 72
8
 73
4
 74
0
 40
0
 40
0
 40
0
 40
0
 40
1
 40
1
 40
1
 40
1
 10
361.474453
 20
70.202615
 30
0.0
 10
365.341666
 20
70.202615
 30
0.0
 10
368.607892
 20
69.340331
 30
0.0
 10
371.273130
 20
67.615763
 30
0.0
  0
SPLINE
  5
179
100
AcDbEntity
  8
0
 62
7
100
AcDbSpline
 70
8
 71
3
 72
8
 73
4
 74
0
 40
0
 40
0
 40
0
 40
0
 40
1
 40
1
 40
1
 40
1
 10
371.273130
 20
67.615763
 30
0.0
 10
373.990633
 20
65.943457
 30
0.0
 10
376.054888
 20
63.513384
 30
0.0
 10
377.465895
 20
60.325546
 30
0.0
  0
SPLINE
  5
17a
100
AcDbEntity
  8
0
 62
7
100
AcDbSpline
 70
8
 71
3
 72
8
 73
4
 74
0
 40
0
 40
0
 40
0
 40
0
 40
1
 40
1
 40
1
 40
1
 10
377.465895
 20
60.325546
 30
0.0
 10
378.929166
 20
57.189968
 30
0.0
 10
379.634671
 20
53.427275
 30
0.0
 10
379.582410
 20
49.037465
 30
0.0
  0
SPLINE
  5
17b
100
AcDbEntity
  8
0
 62
7
100
AcDbSpline
 70
8
 71
3
 72
8
 73
4
 74
0
 40
0
 40
0
 40
0
 40
0
 40
1
 40
1
 40
1
 40
1
 10
379.582410
 20
49.037465
 30
0.0
 10
379.634671
 20
44.647656
 30
0.0
 10
378.955296
 20
40.858833
 30
0.0
 10
377.544286
 20
37.670999
 30
0.0
  0
SPLINE
  5
17c
100
AcDbEntity
  8
0
 62
7
100
AcDbSpline
 70
8
 71
3
 72
8
 73
4
 74
0
 40
0
 40
0
 40
0
 40
0
 40
1
 40
1
 40
1
 40
1
 10
377.544286
 20
37.670999
 30
0.0
 10
376.133275
 20
34.483160
 30
0.0
 10
374.069021
 20
32.026957
 30
0.0
 10
371.351522
 20
30.302390
 30
0.0
  0
SPLINE
  5
17d
100
AcDbEntity
  8
0
 62
7
100
AcDbSpline
 70
8
 71
3
 72
8
 73
4
 74
0
 40
0
 40
0
 40
0
 40
0
 40
1
 40
1
 40
1
 40
1
 10
371.351522
 20
30.302390
 30
0.0
 10
368.686279
 20
28.630080
 30
0.0
 10
365.446182
 20
27.793925
 30
0.0
 10
361.631230
 20
27.793925
 30
0.0
  0
SPLINE
  5
17e
100
AcDbEntity
  8
0
 62
7
100
AcDbSpline
 70
8
 71
3
 72
8
 73
4
 74
0
 40
0
 40
0
 40
0
 40
0
 40
1
 40
1
 40
1
 40
1
 10
361.631230
 20
27.793925
 30
0.0
 10
357.659499
 20
27.793925
 30
0.0
 10
354.158103
 20
28.682339
 30
0.0
 10
351.127043
 20
30.459167
 30
0.0
  0
SPLINE
  5
17f
100
AcDbEntity
  8
0
 62
7
100
AcDbSpline
 70
8
 71
3
 72
8
 73
4
 74
0
 40
0
 40
0
 40
0
 40
0
 40
1
 40
1
 40
1
 40
1
 10
351.127043
 20
30.459167
 30
0.0
 10
348.148244
 20
32.288256
 30
0.0
 10
345.822691
 20
34.796717
 30
0.0
 10
344.150385
 20
37.984552
 30
0.0
  0
SPLINE
  5
180
100
AcDbEntity
  8
0
 62
7
100
AcDbSpline
 70
8
 71
3
 72
8
 73
4
 74
0
 40
0
 40
0
 40
0
 40
0
 40
1
 40
1
 40
1
 40
1
 10
344.150385
 20
37.984552
 30
0.0
 10
342.478078
 20
41.224651
 30
0.0
 10
341.641925
 20
44.935086
 30
0.0
 10
341.641925
 20
49.115856
 30
0.0
  0
SPLINE
  5
181
100
AcDbEntity
  8
0
 62
7
100
AcDbSpline
 70
8
 71
3
 72
8
 73
4
 74
0
 40
0
 40
0
 40
0
 40
0
 40
1
 40
1
 40
1
 40
1
 10
341.641925
 20
49.115856
 30
0.0
 10
341.641925
 20
53.296626
 30
0.0
 10
342.478078
 20
56.954800
 30
0.0
 10
344.150385
 20
60.090378
 30
0.0
  0
SPLINE
  5
182
100
AcDbEntity
  8
0
 62
7
100
AcDbSpline
 70
8
 71
3
 72
8
 73
4
 74
0
 40
0
 40
0
 40
0
 40
0
 40
1
 40
1
 40
1
 40
1
 10
344.150385
 20
60.090378
 30
0.0
 10
345.822691
 20
63.278217
 30
0.0
 10
348.148244
 20
65.760548
 30
0.0
 10
351.127043
 20
67.537374
 30
0.0
  0
SPLINE
  5
183
100
AcDbEntity
  8
0
 62
7
100
AcDbSpline
 70
8
 71
3
 72
8
 73
4
 74
0
 40
0
 40
0
 40
0
 40
0
 40
1
 40
1
 40
1
 40
1
 10
351.127043
 20
67.537374
 30
0.0
 10
354.105842
 20
69.314201
 30
0.0
 10
357.554979
 20
70.202615
 30
0.0
 10
361.474453
 20
70.202615
 30
0.0
  0
LWPOLYLINE
  5
184
100
AcDbEntity
  8
0
 62
7
100
AcDbPolyline
 90
4
 70
1
 10
318.185986
 20
69.810668
 30
0.0
 10
327.200775
 20
69.810668
 30
0.0
 10
327.200775
 20
28.185875
 30
0.0
 10
318.185986
 20
28.185875
 30
0.0
  0
SPLINE
  5
185
100
AcDbEntity
  8
0
 62
7
100
AcDbSpline
 70
8
 71
3
 72
8
 73
4
 74
0
 40
0
 40
0
 40
0
 40
0
 40
1
 40
1
 40
1
 40
1
 10
363.512577
 20
62.912397
 30
0.0
 10
361.004114
 20
62.912397
 30
0.0
 10
358.783079
 20
62.311411
 30
0.0
 10
356.849472
 20
61.109440
 30
0.0
  0
SPLINE
  5
186
100
AcDbEntity
  8
0
 62
7
100
AcDbSpline
 70
8
 71
3
 72
8
 73
4
 74
0
 40
0
 40
0
 40
0
 40
0
 40
1
 40
1
 40
1
 40
1
 10
356.849472
 20
61.109440
 30
0.0
 10
354.915869
 20
59.907469
 30
0.0
 10
353.400341
 20
58.235161
 30
0.0
 10
352.302888
 20
56.092515
 30
0.0
  0
SPLINE
  5
187
100
AcDbEntity
  8
0
 62
7
100
AcDbSpline
 70
8
 71
3
 72
8
 73
4
 74
0
 40
0
 40
0
 40
0
 40
0
 40
1
 40
1
 40
1
 40
1
 10
352.302888
 20
56.092515
 30
0.0
 10
351.257695
 20
54.002130
 30
0.0
 10
350.708968
 20
51.598188
 30
0.0
 10
350.656708
 20
48.880688
 30
0.0
  0
SPLINE
  5
188
100
AcDbEntity
  8
0
 62
7
100
AcDbSpline
 70
8
 71
3
 72
8
 73
4
 74
0
 40
0
 40
0
 40
0
 40
0
 40
1
 40
1
 40
1
 40
1
 10
350.656708
 20
48.880688
 30
0.0
 10
350.708968
 20
46.163186
 30
0.0
 10
351.257695
 20
43.759242
 30
0.0
 10
352.302888
 20
41.668856
 30
0.0
  0
SPLINE
  5
189
100
AcDbEntity
  8
0
 62
7
100
AcDbSpline
 70
8
 71
3
 72
8
 73
4
 74
0
 40
0
 40
0
 40
0
 40
0
 40
1
 40
1
 40
1
 40
1
 10
352.302888
 20
41.668856
 30
0.0
 10
353.400341
 20
39.578471
 30
0.0
 10
354.915869
 20
37.932293
 30
0.0
 10
356.849472
 20
36.730322
 30
0.0
  0
SPLINE
  5
18a
100
AcDbEntity
  8
0
 62
7
100
AcDbSpline
 70
8
 71
3
 72
8
 73
4
 74
0
 40
0
 40
0
 40
0
 40
0
 40
1
 40
1
 40
1
 40
1
 10
356.849472
 20
36.730322
 30
0.0
 10
358.783079
 20
35.528351
 30
0.0
 10
361.004114
 20
34.927365
 30
0.0
 10
363.512577
 20
34.927365
 30
0.0
  0
SPLINE
  5
18b
100
AcDbEntity
  8
0
 62
7
100
AcDbSpline
 70
8
 71
3
 72
8
 73
4
 74
0
 40
0
 40
0
 40
0
 40
0
 40
1
 40
1
 40
1
 40
1
 10
363.512577
 20
34.927365
 30
0.0
 10
366.021041
 20
34.927365
 30
0.0
 10
368.242074
 20
35.528351
 30
0.0
 10
370.175677
 20
36.730322
 30
0.0
  0
SPLINE
  5
18c
100
AcDbEntity
  8
0
 62
7
100
AcDbSpline
 70
8
 71
3
 72
8
 73
4
 74
0
 40
0
 40
0
 40
0
 40
0
 40
1
 40
1
 40
1
 40
1
 10
370.175677
 20
36.730322
 30
0.0
 10
372.109284
 20
37.932293
 30
0.0
 10
373.598683
 20
39.578471
 30
0.0
 10
374.643876
 20
41.668856
 30
0.0
  0
SPLINE
  5
18d
100
AcDbEntity
  8
0
 62
7
100
AcDbSpline
 70
8
 71
3
 72
8
 73
4
 74
0
 40
0
 40
0
 40
0
 40
0
 40
1
 40
1
 40
1
 40
1
 10
374.643876
 20
41.668856
 30
0.0
 10
375.741329
 20
43.759242
 30
0.0
 10
376.290056
 20
46.163186
 30
0.0
 10
376.290056
 20
48.880688
 30
0.0
  0
SPLINE
  5
18e
100
AcDbEntity
  8
0
 62
7
100
AcDbSpline
 70
8
 71
3
 72
8
 73
4
 74
0
 40
0
 40
0
 40
0
 40
0
 40
1
 40
1
 40
1
 40
1
 10
376.290056
 20
48.880688
 30
0.0
 10
376.290056
 20
51.650448
 30
0.0
 10
375.741329
 20
54.080521
 30
0.0
 10
374.643876
 20
56.170906
 30
0.0
  0
SPLINE
  5
18f
100
AcDbEntity
  8
0
 62
7
100
AcDbSpline
 70
8
 71
3
 72
8
 73
4
 74
0
 40
0
 40
0
 40
0
 40
0
 40
1
 40
1
 40
1
 40
1
 10
374.643876
 20
56.170906
 30
0.0
 10
373.598683
 20
58.261291
 30
0.0
 10
372.109284
 20
59.907469
 30
0.0
 10
370.175677
 20
61.109440
 30
0.0
  0
SPLINE
  5
190
100
AcDbEntity
  8
0
 62
7
100
AcDbSpline
 70
8
 71
3
 72
8
 73
4
 74
0
 40
0
 40
0
 40
0
 40
0
 40
1
 40
1
 40
1
 40
1
 10
370.175677
 20
61.109440
 30
0.0
 10
368.242074
 20
62.311411
 30
0.0
 10
366.021041
 20
62.912397
 30
0.0
 10
363.512577
 20
62.912397
 30
0.0
  0
LWPOLYLINE
  5
191
100
AcDbEntity
  8
0
 62
7
100
AcDbPolyline
 90
1
 70
1
 10
361.474453
 20
70.202615
 30
0.0
  0
LWPOLYLINE
  5
192
100
AcDbEntity
  8
0
 62
7
100
AcDbPolyline
 90
1
 70
1
 10
363.512577
 20
62.912397
 30
0.0
  0
SPLINE
  5
193
100
AcDbEntity
  8
0
 62
7
100
AcDbSpline
 70
8
 71
3
 72
8
 73
4
 74
0
 40
0
 40
0
 40
0
 40
0
 40
1
 40
1
 40
1
 40
1
 10
403.195109
 20
46.293837
 30
0.0
 10
403.195109
 20
43.053738
 30
0.0
 10
404.057392
 20
40.493016
 30
0.0
 10
405.781960
 20
38.611670
 30
0.0
  0
SPLINE
  5
194
100
AcDbEntity
  8
0
 62
7
100
AcDbSpline
 70
8
 71
3
 72
8
 73
4
 74
0
 40
0
 40
0
 40
0
 40
0
 40
1
 40
1
 40
1
 40
1
 10
405.781960
 20
38.611670
 30
0.0
 10
407.506527
 20
36.782585
 30
0.0
 10
409.884339
 20
35.868042
 30
0.0
 10
412.915395
 20
35.868042
 30
0.0
  0
SPLINE
  5
195
100
AcDbEntity
  8
0
 62
7
100
AcDbSpline
 70
8
 71
3
 72
8
 73
4
 74
0
 40
0
 40
0
 40
0
 40
0
 40
1
 40
1
 40
1
 40
1
 10
412.915395
 20
35.868042
 30
0.0
 10
416.521312
 20
35.972560
 30
0.0
 10
419.317202
 20
37.305179
 30
0.0
 10
421.303066
 20
39.865900
 30
0.0
  0
SPLINE
  5
196
100
AcDbEntity
  8
0
 62
7
100
AcDbSpline
 70
8
 71
3
 72
8
 73
4
 74
0
 40
0
 40
0
 40
0
 40
0
 40
1
 40
1
 40
1
 40
1
 10
421.303066
 20
39.865900
 30
0.0
 10
423.341194
 20
42.426624
 30
0.0
 10
424.360258
 20
45.588332
 30
0.0
 10
424.360258
 20
49.351024
 30
0.0
  0
LWPOLYLINE
  5
197
100
AcDbEntity
  8
0
 62
7
100
AcDbPolyline
 90
4
 70
1
 10
376.290056
 20
69.810668
 30
0.0
 10
385.304839
 20
69.810668
 30
0.0
 10
385.304839
 20
12.978322
 30
0.0
 10
376.290056
 20
12.978322
 30
0.0
  0
SPLINE
  5
198
100
AcDbEntity
  8
0
 62
7
100
AcDbSpline
 70
8
 71
3
 72
8
 73
4
 74
0
 40
0
 40
0
 40
0
 40
0
 40
1
 40
1
 40
1
 40
1
 10
426.790327
 20
49.351024
 30
0.0
 10
426.790327
 20
44.229579
 30
0.0
 10
426.084822
 20
40.101068
 30
0.0
 10
424.673811
 20
36.965490
 30
0.0
  0
SPLINE
  5
199
100
AcDbEntity
  8
0
 62
7
100
AcDbSpline
 70
8
 71
3
 72
8
 73
4
 74
0
 40
0
 40
0
 40
0
 40
0
 40
1
 40
1
 40
1
 40
1
 10
424.673811
 20
36.965490
 30
0.0
 10
423.262805
 20
33.829912
 30
0.0
 10
421.250811
 20
31.530490
 30
0.0
 10
418.637829
 20
30.067222
 30
0.0
  0
SPLINE
  5
19a
100
AcDbEntity
  8
0
 62
7
100
AcDbSpline
 70
8
 71
3
 72
8
 73
4
 74
0
 40
0
 40
0
 40
0
 40
0
 40
1
 40
1
 40
1
 40
1
 10
418.637829
 20
30.067222
 30
0.0
 10
416.077105
 20
28.656212
 30
0.0
 10
413.019917
 20
27.924576
 30
0.0
 10
409.466264
 20
27.872316
 30
0.0
  0
SPLINE
  5
19b
100
AcDbEntity
  8
0
 62
7
100
AcDbSpline
 70
8
 71
3
 72
8
 73
4
 74
0
 40
0
 40
0
 40
0
 40
0
 40
1
 40
1
 40
1
 40
1
 10
409.466264
 20
27.872316
 30
0.0
 10
406.278426
 20
27.872316
 30
0.0
 10
403.534794
 20
28.525562
 30
0.0
 10
401.235370
 20
29.832054
 30
0.0
  0
SPLINE
  5
19c
100
AcDbEntity
  8
0
 62
7
100
AcDbSpline
 70
8
 71
3
 72
8
 73
4
 74
0
 40
0
 40
0
 40
0
 40
0
 40
1
 40
1
 40
1
 40
1
 10
401.235370
 20
29.832054
 30
0.0
 10
398.988206
 20
31.138543
 30
0.0
 10
397.237508
 20
32.993759
 30
0.0
 10
395.983277
 20
35.397701
 30
0.0
  0
SPLINE
  5
19d
100
AcDbEntity
  8
0
 62
7
100
AcDbSpline
 70
8
 71
3
 72
8
 73
4
 74
0
 40
0
 40
0
 40
0
 40
0
 40
1
 40
1
 40
1
 40
1
 10
395.983277
 20
35.397701
 30
0.0
 10
394.781306
 20
37.801647
 30
0.0
 10
394.180320
 20
40.649798
 30
0.0
 10
394.180320
 20
43.942154
 30
0.0
  0
LWPOLYLINE
  5
19e
100
AcDbEntity
  8
0
 62
7
100
AcDbPolyline
 90
2
 70
0
 10
424.360258
 20
49.351024
 30
0.0
 10
426.790327
 20
49.351024
 30
0.0
  0
LWPOLYLINE
  5
19f
100
AcDbEntity
  8
0
 62
7
100
AcDbPolyline
 90
4
 70
0
 10
394.180320
 20
43.942154
 30
0.0
 10
394.180320
 20
69.810668
 30
0.0
 10
403.195109
 20
69.810668
 30
0.0
 10
403.195109
 20
46.293837
 30
0.0
  0
SPLINE
  5
1a0
100
AcDbEntity
  8
0
 62
7
100
AcDbSpline
 70
8
 71
3
 72
8
 73
4
 74
0
 40
0
 40
0
 40
0
 40
0
 40
1
 40
1
 40
1
 40
1
 10
472.038593
 20
52.016266
 30
0.0
 10
471.934071
 20
54.367948
 30
0.0
 10
471.385345
 20
56.353813
 30
0.0
 10
470.392413
 20
57.973863
 30
0.0
  0
SPLINE
  5
1a1
100
AcDbEntity
  8
0
 62
7
100
AcDbSpline
 70
8
 71
3
 72
8
 73
4
 74
0
 40
0
 40
0
 40
0
 40
0
 40
1
 40
1
 40
1
 40
1
 10
470.392413
 20
57.973863
 30
0.0
 10
469.451738
 20
59.646169
 30
0.0
 10
468.119117
 20
60.926530
 30
0.0
 10
466.394550
 20
61.814944
 30
0.0
  0
SPLINE
  5
1a2
100
AcDbEntity
  8
0
 62
7
100
AcDbSpline
 70
8
 71
3
 72
8
 73
4
 74
0
 40
0
 40
0
 40
0
 40
0
 40
1
 40
1
 40
1
 40
1
 10
466.394550
 20
61.814944
 30
0.0
 10
464.669982
 20
62.755618
 30
0.0
 10
462.684117
 20
63.225956
 30
0.0
 10
460.436953
 20
63.225956
 30
0.0
  0
SPLINE
  5
1a3
100
AcDbEntity
  8
0
 62
7
100
AcDbSpline
 70
8
 71
3
 72
8
 73
4
 74
0
 40
0
 40
0
 40
0
 40
0
 40
1
 40
1
 40
1
 40
1
 10
460.436953
 20
63.225956
 30
0.0
 10
457.928493
 20
63.225956
 30
0.0
 10
455.733588
 20
62.651099
 30
0.0
 10
453.852239
 20
61.501385
 30
0.0
  0
SPLINE
  5
1a4
100
AcDbEntity
  8
0
 62
7
100
AcDbSpline
 70
8
 71
3
 72
8
 73
4
 74
0
 40
0
 40
0
 40
0
 40
0
 40
1
 40
1
 40
1
 40
1
 10
453.852239
 20
61.501385
 30
0.0
 10
452.023154
 20
60.351674
 30
0.0
 10
450.586015
 20
58.731627
 30
0.0
 10
449.540822
 20
56.641242
 30
0.0
  0
SPLINE
  5
1a5
100
AcDbEntity
  8
0
 62
7
100
AcDbSpline
 70
8
 71
3
 72
8
 73
4
 74
0
 40
0
 40
0
 40
0
 40
0
 40
1
 40
1
 40
1
 40
1
 10
449.540822
 20
56.641242
 30
0.0
 10
448.495630
 20
54.603117
 30
0.0
 10
447.973033
 20
52.199175
 30
0.0
 10
447.973033
 20
49.429415
 30
0.0
  0
SPLINE
  5
1a6
100
AcDbEntity
  8
0
 62
7
100
AcDbSpline
 70
8
 71
3
 72
8
 73
4
 74
0
 40
0
 40
0
 40
0
 40
0
 40
1
 40
1
 40
1
 40
1
 10
447.973033
 20
49.429415
 30
0.0
 10
447.973033
 20
46.450616
 30
0.0
 10
448.521760
 20
43.863763
 30
0.0
 10
449.619213
 20
41.668856
 30
0.0
  0
SPLINE
  5
1a7
100
AcDbEntity
  8
0
 62
7
100
AcDbSpline
 70
8
 71
3
 72
8
 73
4
 74
0
 40
0
 40
0
 40
0
 40
0
 40
1
 40
1
 40
1
 40
1
 10
449.619213
 20
41.668856
 30
0.0
 10
450.768924
 20
39.473953
 30
0.0
 10
452.336713
 20
37.775516
 30
0.0
 10
454.322580
 20
36.573545
 30
0.0
  0
SPLINE
  5
1a8
100
AcDbEntity
  8
0
 62
7
100
AcDbSpline
 70
8
 71
3
 72
8
 73
4
 74
0
 40
0
 40
0
 40
0
 40
0
 40
1
 40
1
 40
1
 40
1
 10
454.322580
 20
36.573545
 30
0.0
 10
456.360704
 20
35.371574
 30
0.0
 10
458.686257
 20
34.770589
 30
0.0
 10
461.299239
 20
34.770589
 30
0.0
  0
SPLINE
  5
1a9
100
AcDbEntity
  8
0
 62
7
100
AcDbSpline
 70
8
 71
3
 72
8
 73
4
 74
0
 40
0
 40
0
 40
0
 40
0
 40
1
 40
1
 40
1
 40
1
 10
461.299239
 20
34.770589
 30
0.0
 10
465.950344
 20
34.770589
 30
0.0
 10
469.869817
 20
36.416767
 30
0.0
 10
473.057655
 20
39.709123
 30
0.0
  0
LWPOLYLINE
  5
1aa
100
AcDbEntity
  8
0
 62
7
100
AcDbPolyline
 90
4
 70
1
 10
424.360258
 20
69.810668
 30
0.0
 10
433.375041
 20
69.810668
 30
0.0
 10
433.375041
 20
28.185875
 30
0.0
 10
424.360258
 20
28.185875
 30
0.0
  0
SPLINE
  5
1ab
100
AcDbEntity
  8
0
 62
7
100
AcDbSpline
 70
8
 71
3
 72
8
 73
4
 74
0
 40
0
 40
0
 40
0
 40
0
 40
1
 40
1
 40
1
 40
1
 10
477.839407
 20
34.927365
 30
0.0
 10
475.801283
 20
32.680202
 30
0.0
 10
473.318951
 20
30.929504
 30
0.0
 10
470.392413
 20
29.675272
 30
0.0
  0
SPLINE
  5
1ac
100
AcDbEntity
  8
0
 62
7
100
AcDbSpline
 70
8
 71
3
 72
8
 73
4
 74
0
 40
0
 40
0
 40
0
 40
0
 40
1
 40
1
 40
1
 40
1
 10
470.392413
 20
29.675272
 30
0.0
 10
467.465874
 20
28.473301
 30
0.0
 10
464.199649
 20
27.872316
 30
0.0
 10
460.593735
 20
27.872316
 30
0.0
  0
SPLINE
  5
1ad
100
AcDbEntity
  8
0
 62
7
100
AcDbSpline
 70
8
 71
3
 72
8
 73
4
 74
0
 40
0
 40
0
 40
0
 40
0
 40
1
 40
1
 40
1
 40
1
 10
460.593735
 20
27.872316
 30
0.0
 10
456.308444
 20
27.872316
 30
0.0
 10
452.571879
 20
28.760730
 30
0.0
 10
449.384040
 20
30.537558
 30
0.0
  0
SPLINE
  5
1ae
100
AcDbEntity
  8
0
 62
7
100
AcDbSpline
 70
8
 71
3
 72
8
 73
4
 74
0
 40
0
 40
0
 40
0
 40
0
 40
1
 40
1
 40
1
 40
1
 10
449.384040
 20
30.537558
 30
0.0
 10
446.196205
 20
32.314386
 30
0.0
 10
443.713874
 20
34.770589
 30
0.0
 10
441.937046
 20
37.906166
 30
0.0
  0
SPLINE
  5
1af
100
AcDbEntity
  8
0
 62
7
100
AcDbSpline
 70
8
 71
3
 72
8
 73
4
 74
0
 40
0
 40
0
 40
0
 40
0
 40
1
 40
1
 40
1
 40
1
 10
441.937046
 20
37.906166
 30
0.0
 10
440.160218
 20
41.094001
 30
0.0
 10
439.271804
 20
44.778304
 30
0.0
 10
439.271804
 20
48.959074
 30
0.0
  0
SPLINE
  5
1b0
100
AcDbEntity
  8
0
 62
7
100
AcDbSpline
 70
8
 71
3
 72
8
 73
4
 74
0
 40
0
 40
0
 40
0
 40
0
 40
1
 40
1
 40
1
 40
1
 10
439.271804
 20
48.959074
 30
0.0
 10
439.271804
 20
53.139844
 30
0.0
 10
440.160218
 20
56.798018
 30
0.0
 10
441.937046
 20
59.933596
 30
0.0
  0
SPLINE
  5
1b1
100
AcDbEntity
  8
0
 62
7
100
AcDbSpline
 70
8
 71
3
 72
8
 73
4
 74
0
 40
0
 40
0
 40
0
 40
0
 40
1
 40
1
 40
1
 40
1
 10
441.937046
 20
59.933596
 30
0.0
 10
443.713874
 20
63.121434
 30
0.0
 10
446.196205
 20
65.603767
 30
0.0
 10
449.384040
 20
67.380595
 30
0.0
  0
SPLINE
  5
1b2
100
AcDbEntity
  8
0
 62
7
100
AcDbSpline
 70
8
 71
3
 72
8
 73
4
 74
0
 40
0
 40
0
 40
0
 40
0
 40
1
 40
1
 40
1
 40
1
 10
449.384040
 20
67.380595
 30
0.0
 10
452.571879
 20
69.157422
 30
0.0
 10
456.230053
 20
70.071966
 30
0.0
 10
460.358562
 20
70.124226
 30
0.0
  0
SPLINE
  5
1b3
100
AcDbEntity
  8
0
 62
7
100
AcDbSpline
 70
8
 71
3
 72
8
 73
4
 74
0
 40
0
 40
0
 40
0
 40
0
 40
1
 40
1
 40
1
 40
1
 10
460.358562
 20
70.124226
 30
0.0
 10
465.270968
 20
70.124226
 30
0.0
 10
469.216570
 20
69.105163
 30
0.0
 10
472.195369
 20
67.067037
 30
0.0
  0
SPLINE
  5
1b4
100
AcDbEntity
  8
0
 62
7
100
AcDbSpline
 70
8
 71
3
 72
8
 73
4
 74
0
 40
0
 40
0
 40
0
 40
0
 40
1
 40
1
 40
1
 40
1
 10
472.195369
 20
67.067037
 30
0.0
 10
475.174169
 20
65.081173
 30
0.0
 10
477.290684
 20
62.259154
 30
0.0
 10
478.544916
 20
58.600980
 30
0.0
  0
SPLINE
  5
1b5
100
AcDbEntity
  8
0
 62
7
100
AcDbSpline
 70
8
 71
3
 72
8
 73
4
 74
0
 40
0
 40
0
 40
0
 40
0
 40
1
 40
1
 40
1
 40
1
 10
478.544916
 20
58.600980
 30
0.0
 10
479.799148
 20
54.942806
 30
0.0
 10
480.243355
 20
50.605256
 30
0.0
 10
479.877537
 20
45.588329
 30
0.0
  0
LWPOLYLINE
  5
1b6
100
AcDbEntity
  8
0
 62
7
100
AcDbPolyline
 90
2
 70
0
 10
473.057655
 20
39.709123
 30
0.0
 10
477.839407
 20
34.927365
 30
0.0
  0
LWPOLYLINE
  5
1b7
100
AcDbEntity
  8
0
 62
7
100
AcDbPolyline
 90
4
 70
0
 10
479.877537
 20
45.588329
 30
0.0
 10
446.562021
 20
45.588329
 30
0.0
 10
446.562021
 20
52.016266
 30
0.0
 10
472.038593
 20
52.016266
 30
0.0
  0
ENDSEC
  0
SECTION
  2
OBJECTS
  0
DICTIONARY
  5
C
330
0
100
AcDbDictionary
  3
ACAD_GROUP
350
D
  3
ACAD_MLINESTYLE
350
17
  0
DICTIONARY
  5
D
330
C
100
AcDbDictionary
  0
DICTIONARY
  5
1A
330
C
100
AcDbDictionary
  0
DICTIONARY
  5
17
330
C
100
AcDbDictionary
  3
STANDARD
350
18
  0
DICTIONARY
  5
19
330
C
100
AcDbDictionary
  0
ENDSEC
  0
EOF
